<?xml version="1.0" encoding="UTF-8" standalone="no"?>
<svg width="2100px" height="2970px" version="1.1" xmlns="http://www.w3.org/2000/svg" xmlns:xlink="http://www.w3.org/1999/xlink" xmlns:mei="http://www.music-encoding.org/ns/mei" overflow="visible">
   <desc>Engraved by Verovio 4.4.0-66ab39c</desc>
   <defs>
      <symbol id="E240-1t93zux" viewBox="0 0 1000 1000" overflow="inherit">
         <path transform="scale(1,-1)" d="M179 -646c15 29 29 55 46 102c18 49 30 108 30 138c0 105 -80 173 -168 200c-18 5 -47 9 -87 16v190h22c8 0 33 -61 71 -95c4 -3 -2 3 61 -56c62 -58 122 -137 122 -241c0 -38 -13 -106 -35 -163c-20 -51 -43 -99 -66 -132c-6 -5 -10 -7 -13 -7s-5 2 -5 5l4 10 c1 3 14 25 18 33z" />
      </symbol>
      <symbol id="E4E6-1t93zux" viewBox="0 0 1000 1000" overflow="inherit">
         <path transform="scale(1,-1)" d="M0 123c7 34 33 56 69 60c29 -3 43 -9 53 -29c4 -8 7 -15 10 -22c0 -21 -1 -25 -11 -35c-5 -8 -18 -14 -40 -20l12 -3l15 -1c44 0 97 26 122 56c10 11 18 26 24 42c7 1 15 2 22 3l-140 -424h-36l111 330c-10 -6 -27 -12 -53 -16l-52 -8h-10l-20 1c-1 0 -8 3 -21 6 c-37 9 -55 28 -55 60z" />
      </symbol>
      <symbol id="E4E7-1t93zux" viewBox="0 0 1000 1000" overflow="inherit">
         <path transform="scale(1,-1)" d="M133 -111c0 -33 -21 -50 -52 -55c10 -3 18 -4 25 -4c40 0 69 24 90 47l66 197c-36 -18 -64 -25 -112 -25c-23 0 -38 3 -45 8c-37 7 -55 27 -55 59c8 35 30 54 68 58c45 -6 49 -13 64 -48c0 -3 1 -5 1 -7c0 -27 -25 -46 -52 -49c6 -4 15 -6 26 -6c32 2 62 14 88 29 c32 19 44 36 59 71l7 1l10 2h4c-72 -220 -143 -439 -215 -659h-37l108 324c-20 -13 -51 -20 -82 -20c-21 0 -35 4 -43 10c-37 6 -55 26 -55 58c8 35 31 56 68 60c43 -8 48 -13 64 -51z" />
      </symbol>
      <symbol id="E084-1t93zux" viewBox="0 0 1000 1000" overflow="inherit">
         <path transform="scale(1,-1)" d="M20 -78c84 97 114 180 134 329h170c-13 -32 -82 -132 -99 -151l-84 -97c-33 -36 -59 -63 -80 -81h162v102l127 123v-225h57v-39h-57v-34c0 -43 19 -65 57 -65v-34h-244v36c48 0 60 26 60 70v27h-203v39z" />
      </symbol>
      <symbol id="E0A4-1t93zux" viewBox="0 0 1000 1000" overflow="inherit">
         <path transform="scale(1,-1)" d="M0 -39c0 68 73 172 200 172c66 0 114 -37 114 -95c0 -84 -106 -171 -218 -171c-64 0 -96 30 -96 94z" />
      </symbol>
      <symbol id="E0A9-1t93zux" viewBox="0 0 1000 1000" overflow="inherit">
         <path transform="scale(1,-1)" d="M0 -110c0 4 1 8 5 11l119 99l-119 100c-3 3 -5 8 -5 12c0 6 5 13 12 13c3 0 6 -1 8 -2l124 -105l126 105c2 1 5 2 7 2c6 0 13 -6 13 -14c0 -4 -2 -9 -5 -11l-119 -100l119 -99c3 -3 5 -7 5 -12c0 -6 -5 -14 -13 -14c-2 0 -5 1 -7 3l-126 105l-124 -105c-2 -2 -4 -3 -7 -3 c-8 0 -13 7 -13 15z" />
      </symbol>
      <symbol id="E0D9-1t93zux" viewBox="0 0 1000 1000" overflow="inherit">
         <path transform="scale(1,-1)" d="M0 0c0 3 1 4 3 6c53 47 102 98 151 153c2 2 5 3 8 3s5 -1 7 -3c49 -55 89 -106 142 -153c2 -2 3 -3 3 -6s-1 -4 -3 -6c-53 -47 -93 -98 -142 -153c-2 -2 -4 -3 -7 -3s-6 1 -8 3c-49 55 -98 106 -151 153c-2 2 -3 3 -3 6zM83 36c-2 -2 -3 -4 -3 -6s1 -4 3 -6l96 -101 c2 -2 4 -3 7 -3s5 1 7 3l40 41c2 2 3 4 3 6s-1 4 -3 6l-96 101c-2 2 -4 3 -7 3s-5 -1 -7 -3z" />
      </symbol>
      <symbol id="E069-1t93zux" viewBox="0 0 1000 1000" overflow="inherit">
         <path transform="scale(1,-1)" d="M200 250h125v-500h-125v500zM0 250h125v-500h-125v500z" />
      </symbol>
   </defs>
   <style type="text/css">g.page-margin{font-family:Times,serif;} g.ending, g.fing, g.reh, g.tempo{font-weight:bold;} g.dir, g.dynam, g.mNum{font-style:italic;} g.label{font-weight:normal;}</style>
   <svg class="definition-scale" color="black" viewBox="0 0 21000 29700">
      <g class="page-margin" transform="translate(500, 500)">
         <g id="m-eaf67603-7320-45fa-abc3-0d9ab78c1f0e" class="mdiv pageMilestone" />
         <g id="m-88c8e459-1cdb-4dd5-8910-5f807e105cea" class="score pageMilestone" />
         <g id="soq3h" class="system">
            <g id="m-02ae2c70-0d49-4b96-b62d-756f6d350ead" class="section systemMilestone" />
            <g id="m-effbb204-f909-4899-8057-02af9d2e47c1" class="measure">
               <g id="m-63800f1b-747e-47db-aa9d-5c8841139d17" class="staff">
                  <path d="M0 1730 L5134 1730" stroke="currentColor" stroke-width="13" />
                  <path d="M0 1910 L5134 1910" stroke="currentColor" stroke-width="13" />
                  <path d="M0 2090 L5134 2090" stroke="currentColor" stroke-width="13" />
                  <path d="M0 2270 L5134 2270" stroke="currentColor" stroke-width="13" />
                  <path d="M0 2450 L5134 2450" stroke="currentColor" stroke-width="13" />
                  <g id="c1jmu4pi" class="clef">
                     <use xlink:href="#E069-1t93zux" x="90" y="2090" height="720px" width="720px" />
                  </g>
                  <g id="k183q3t6" class="keySig" />
                  <g id="m1v23tgn" class="meterSig">
                     <use xlink:href="#E084-1t93zux" x="490" y="1910" height="720px" width="720px" />
                     <use xlink:href="#E084-1t93zux" x="490" y="2270" height="720px" width="720px" />
                  </g>
                  <g id="m-c12e2cde-5b01-4c1d-aec4-781db0c8c83b" class="layer">
                     <g id="m-fd19c340-7c67-4f16-95e1-3ecfa04cbf0e" class="beam">
                        <polygon points="1242,1055 2026,1055 2026,1145 1242,1145" />
                        <polygon points="1800,1190 2026,1190 2026,1280 1800,1280" />
                        <g id="m-fd443d73-58a3-4f76-8373-c273f5d6aff7" class="note">
                           <g class="notehead">
                              <use xlink:href="#E0A9-1t93zux" x="1052" y="1640" height="720px" width="720px" />
                           </g>
                           <g id="d138ovc7" class="dots">
                              <ellipse cx="1350" cy="1640" rx="36" ry="36" />
                           </g>
                           <g id="s530p11" class="stem">
                              <path d="M1251 1561 L1251 1073" stroke="currentColor" stroke-width="18" />
                           </g>
                        </g>
                        <g id="m-f8f72d0e-d215-49be-9be6-e5d5e0f80279" class="note">
                           <g class="notehead">
                              <use xlink:href="#E0A9-1t93zux" x="1818" y="1640" height="720px" width="720px" />
                           </g>
                           <g id="s1r8tbc8" class="stem">
                              <path d="M2017 1561 L2017 1073" stroke="currentColor" stroke-width="18" />
                           </g>
                        </g>
                     </g>
                     <g id="m-7e9e27d8-8660-4de3-8395-48032cf04c8c" class="rest">
                        <use xlink:href="#E4E6-1t93zux" x="2134" y="1550" height="720px" width="720px" />
                     </g>
                     <g id="m-a382adde-5401-4ad2-8131-0c89eca5ebf2" class="note">
                        <g class="notehead">
                           <use xlink:href="#E0A9-1t93zux" x="2773" y="1640" height="720px" width="720px" />
                        </g>
                        <g id="s16brgux" class="stem">
                           <path d="M2972 1561 L2972 1130" stroke="currentColor" stroke-width="18" />
                           <g id="f8nl9j7" class="flag">
                              <use xlink:href="#E240-1t93zux" x="2963" y="1130" height="720px" width="720px" />
                           </g>
                        </g>
                     </g>
                     <g id="m-37e45f55-f5d4-40b5-8675-b3ee7e7d1f2f" class="rest">
                        <use xlink:href="#E4E6-1t93zux" x="3251" y="1550" height="720px" width="720px" />
                     </g>
                     <g id="m-54a4b9e1-1f27-48d2-9600-e4f4b19f903a" class="note">
                        <g class="notehead">
                           <use xlink:href="#E0A9-1t93zux" x="3701" y="1640" height="720px" width="720px" />
                        </g>
                        <g id="s9v5kce" class="stem">
                           <path d="M3900 1561 L3900 1130" stroke="currentColor" stroke-width="18" />
                           <g id="f1xpbabl" class="flag">
                              <use xlink:href="#E240-1t93zux" x="3891" y="1130" height="720px" width="720px" />
                           </g>
                        </g>
                     </g>
                     <g id="m-b5978258-f344-4f3d-9cab-c644e440a9a9" class="rest">
                        <use xlink:href="#E4E6-1t93zux" x="4179" y="1550" height="720px" width="720px" />
                     </g>
                     <g id="m-74166328-98f4-4daa-9ca1-4577d564a84c" class="note">
                        <g class="notehead">
                           <use xlink:href="#E0A9-1t93zux" x="4629" y="1640" height="720px" width="720px" />
                        </g>
                        <g id="s1ie9u5" class="stem">
                           <path d="M4828 1561 L4828 1130" stroke="currentColor" stroke-width="18" />
                           <g id="f5g5dnf" class="flag">
                              <use xlink:href="#E240-1t93zux" x="4819" y="1130" height="720px" width="720px" />
                           </g>
                        </g>
                     </g>
                  </g>
                  <g id="m-5ba5a7c3-bafe-432d-a3eb-106e5e4f89ce" class="layer">
                     <g id="m-680f0526-fe17-4d82-a029-cdb2720c3889" class="beam">
                        <polygon points="1052,3125 1836,3125 1836,3035 1052,3035" />
                        <polygon points="1511,2990 1836,2990 1836,2900 1511,2900" />
                        <g id="m-b5fe1302-ced7-4897-84dc-a550a01c32ce" class="note">
                           <g class="notehead">
                              <use xlink:href="#E0A4-1t93zux" x="1052" y="2540" height="720px" width="720px" />
                           </g>
                           <g id="s15gsi3v" class="stem">
                              <path d="M1061 2568 L1061 3107" stroke="currentColor" stroke-width="18" />
                           </g>
                        </g>
                        <g id="m-d25cfdfd-b265-4c96-8b65-30e7d00932b2" class="note">
                           <g class="notehead">
                              <use xlink:href="#E0D9-1t93zux" x="1502" y="2090" height="720px" width="720px" />
                           </g>
                           <g id="slhmzdu" class="stem">
                              <path d="M1511 2090 L1511 3107" stroke="currentColor" stroke-width="18" />
                           </g>
                           <g id="a157zw2s" class="accid" />
                        </g>
                        <g id="m-d396ec2f-a0e1-4fe2-930e-13d48b3a4e2a" class="note">
                           <g class="notehead">
                              <use xlink:href="#E0A4-1t93zux" x="1818" y="2540" height="720px" width="720px" />
                           </g>
                           <g id="sb68jr8" class="stem">
                              <path d="M1827 2568 L1827 3107" stroke="currentColor" stroke-width="18" />
                           </g>
                        </g>
                     </g>
                     <g id="m-e7e65c6e-77c1-424d-80ed-ab032bc0bcb1" class="rest">
                        <use xlink:href="#E4E7-1t93zux" x="2134" y="2450" height="720px" width="720px" />
                     </g>
                     <g id="m-e21e68f3-1dd9-4e4a-9452-5d7e350ee06e" class="beam">
                        <polygon points="2457,2990 2791,3035 2791,2945 2457,2900" />
                        <polygon points="2457,2855 2683,2888 2683,2798 2457,2765" />
                        <g id="m-6bc6fc9d-0b83-44c8-8197-c302a66364c4" class="note">
                           <g class="notehead">
                              <use xlink:href="#E0A4-1t93zux" x="2457" y="2090" height="720px" width="720px" />
                           </g>
                           <g id="s1pobwnr" class="stem">
                              <path d="M2466 2118 L2466 2972" stroke="currentColor" stroke-width="18" />
                           </g>
                           <g id="alvughi" class="accid" />
                        </g>
                        <g id="m-8618cd30-dc94-4874-9790-7b4e4fc47e59" class="note">
                           <g class="notehead">
                              <use xlink:href="#E0A4-1t93zux" x="2773" y="2540" height="720px" width="720px" />
                           </g>
                           <g id="s1buwm6z" class="stem">
                              <path d="M2782 2568 L2782 3017" stroke="currentColor" stroke-width="18" />
                           </g>
                        </g>
                     </g>
                     <g id="m-f0726f50-12fc-472c-865d-aede1f45377f" class="beam">
                        <polygon points="3251,2990 3719,3035 3719,2945 3251,2900" />
                        <g id="m-cb3151de-0c9e-457e-8cb4-298c902b98c3" class="note">
                           <g class="notehead">
                              <use xlink:href="#E0A4-1t93zux" x="3251" y="2090" height="720px" width="720px" />
                           </g>
                           <g id="ss3ea20" class="stem">
                              <path d="M3260 2118 L3260 2972" stroke="currentColor" stroke-width="18" />
                           </g>
                           <g id="ao64ezb" class="accid" />
                        </g>
                        <g id="m-bacd8e8f-ff2f-4b20-87dd-b9c136123016" class="note">
                           <g class="notehead">
                              <use xlink:href="#E0A4-1t93zux" x="3701" y="2540" height="720px" width="720px" />
                           </g>
                           <g id="swwvej0" class="stem">
                              <path d="M3710 2568 L3710 3017" stroke="currentColor" stroke-width="18" />
                           </g>
                        </g>
                     </g>
                     <g id="m-7e271fd1-e0e5-4a76-8f0d-7727b0edd982" class="beam">
                        <polygon points="4179,2990 4647,3035 4647,2945 4179,2900" />
                        <g id="m-5959cbaa-c402-49a6-8675-9a4966105127" class="note">
                           <g class="notehead">
                              <use xlink:href="#E0A4-1t93zux" x="4179" y="2090" height="720px" width="720px" />
                           </g>
                           <g id="s35tpo0" class="stem">
                              <path d="M4188 2118 L4188 2972" stroke="currentColor" stroke-width="18" />
                           </g>
                           <g id="al1laea" class="accid" />
                        </g>
                        <g id="m-0905b723-08ef-4e08-b704-e10e92de9da6" class="note">
                           <g class="notehead">
                              <use xlink:href="#E0A4-1t93zux" x="4629" y="2540" height="720px" width="720px" />
                           </g>
                           <g id="s6u7lfa" class="stem">
                              <path d="M4638 2568 L4638 3017" stroke="currentColor" stroke-width="18" />
                           </g>
                        </g>
                     </g>
                  </g>
               </g>
               <g id="b1m4pa4z" class="barLine">
                  <path d="M5121 1730 L5121 2450" stroke="currentColor" stroke-width="27" />
               </g>
            </g>
            <g id="s1qw5hcw" class="systemMilestoneEnd m-02ae2c70-0d49-4b96-b62d-756f6d350ead" />
         </g>
         <g id="p1yhf49n" class="pageMilestoneEnd m-88c8e459-1cdb-4dd5-8910-5f807e105cea" />
         <g id="pzt11hi" class="pageMilestoneEnd m-eaf67603-7320-45fa-abc3-0d9ab78c1f0e" />
         <g id="p15olqj7" class="pgHead autogenerated">
            <text font-size="0px">
               <tspan id="rikw9bi" class="rend" x="10000" y="415" text-anchor="middle">
                  <title class="labelAttr">title</title>
                  <tspan id="r8rnk3j" class="rend">
                     <tspan id="tkrfg60" class="text">
                        <tspan font-size="607px">43_rock_120_beat_4-4</tspan>
                     </tspan>
                  </tspan>
                  <tspan id="l3mmjgh" class="lb" />
                  <tspan id="rbsfzb5" class="rend">
                     <tspan id="ti6cs6i" class="text" x="10000" y="805">
                        <tspan font-size="324px">43_rock_120_beat_4-4</tspan>
                     </tspan>
                  </tspan>
               </tspan>
            </text>
         </g>
         <g id="p1vn7bg6" class="pgFoot autogenerated">
            <g id="ffy4tfi" class="fig">
               <g class="svg" transform="translate(7750, 28099) scale(10.000000, 10.000000)">
                  <g>
                     <path fill="#00000" d="M 17.11278,49.26451 V 10.367554 h 12.696511 c 3.288815,7.336676 6.71267,14.610456 10.127281,21.888976 3.419998,-7.484684 6.255515,-14.204887 9.58887,-21.909915 2.436207,0.103726 4.316952,0.08453 6.484294,-0.05808 V 49.264423 H 50.274275 C 50.145222,38.35639 50.016136,27.448368 49.887066,16.540329 45.003488,27.315459 39.967448,38.433564 35.083854,49.208695 34.678996,49.343717 34.426583,49.135619 34.021726,49.270644 29.46588,39.330716 24.910049,29.390805 20.354201,19.450876 20.224341,29.388756 20.09461,39.326619 19.964815,49.264497 H 17.11278 Z M 36.754144,39.324695 C 32.721221,30.512695 28.6883,21.700679 24.655394,12.888662 22.530527,12.750737 22.656775,12.71031 20.714356,12.813974 v 0.966497 c 4.612938,9.99784 9.609439,20.748709 13.87298,30.081745 0.722248,-1.512523 1.444528,-3.025014 2.166808,-4.537521 z m 25.738417,9.939815 c 0,-12.965651 0,-25.931305 0,-38.896956 10.084388,0 20.168791,0 30.253178,0 0,0.960416 0,1.920849 0,2.881265 -6.482825,0 -12.965652,0 -19.448478,0 0,4.802097 0,9.604178 0,14.406277 5.52241,0 11.044819,0 16.567229,0 0,0.960415 0,1.920832 0,2.881248 -5.52241,0 -11.044819,0 -16.567229,0 0,5.282306 0,10.564611 0,15.846917 6.963035,0 13.926068,0 20.889103,0 0,0.960416 0,1.920832 0,2.881249 -10.564597,0 -21.129207,0 -31.693803,0 z m 4.321874,-2.160937 c 0,-11.765131 0,-23.530263 0,-35.295394 -0.720312,0 -1.440625,0 -2.160937,0 0,11.765131 0,23.530263 0,35.295394 0.720312,0 1.440625,0 2.160937,0 z m 32.41413,2.160937 c 0,-12.965651 0,-25.931305 0,-38.896956 2.401045,0 4.802095,0 7.203135,0 0,12.965651 0,25.931305 0,38.896956 -2.40104,0 -4.80209,0 -7.203135,0 z m 2.881265,-2.160937 c 0,-11.765131 0,-23.530263 0,-35.295394 -0.72031,0 -1.44064,0 -2.160953,0 0,11.765131 0,23.530263 0,35.295394 0.720313,0 1.440643,0 2.160953,0 z" />
                     <path fill="#00000" d="m 346.3,6.7 c -3.1,0.5 -4.9,4.4 -2.7,6.8 1.2,1.4 2.7,2.4 4.1,3.5 -2.4,5.3 -7.7,8.3 -11.9,12.1 -3.7,2.8 -7,6.2 -9.7,9.9 -2.2,-0.8 -0.3,-6.8 -0.6,-9.5 0.1,-3.1 0.7,-6.4 2.9,-8.7 1.3,-1.9 3,-3.5 4.5,-5.2 1.2,-3.4 -3.2,-4.9 -5.8,-4.6 -7.3,-0.5 -14.6,2 -20,6.8 -5,4.6 -10,10.1 -11.5,17 -0.9,3.5 -0.2,7.5 2.8,9.9 2.5,2.8 7.4,2.9 9.8,-0.2 1.7,-2.3 3.2,-4.8 3.8,-7.6 -0.1,-2.6 -4.4,-2.3 -4.3,0.2 1.2,2.4 -0.9,4.7 -2.7,6.2 -1.7,0.9 -4.7,0.7 -4.8,-1.7 -1,-5.8 2.1,-11.3 5.2,-16.1 4,-5.8 9.8,-11.2 17.2,-11.8 1.6,0 8.1,-1.2 6.8,1.4 -2.8,2.8 -5.6,6.1 -6,10.3 -1.6,7.7 0.1,15.7 -2.3,23.2 -1.1,3.9 2,2.6 2.5,0.2 3.3,-7.4 8.9,-13.4 15.1,-18.5 4.2,-3.9 9.5,-7.1 11.9,-12.6 1.3,-3.6 1.2,-9 -2.7,-10.9 -0.6,-0.2 -1.2,-0.3 -1.8,-0.3 z m 66,14.5 c -2,0.8 -1.8,4.9 0.8,4.4 3.4,0.4 2.9,-6.2 -0.8,-4.4 z m 0.6,7.3 c -1.3,0.5 -7.6,0.5 -5.4,2.2 4,-0.3 0.7,4.5 0.6,6.7 -0.4,2.9 -2.4,5.9 -1.2,8.8 2.7,1.7 5.6,-0.8 6.8,-3.2 1.6,-1.4 -0.5,-3 -1.2,-0.9 -0.4,0.8 -2.4,3.5 -2.6,1.8 1.1,-5 2.7,-9.9 3.9,-14.9 l -0.1,-0.5 h -0.9 z m -65.1,0.2 c -6.5,1.6 -10.5,9.5 -8.2,15.7 2.1,3.4 7.4,2.9 10.1,0.4 2,-0.2 3.6,-5.3 1,-3.4 -1.4,2 -4,4.2 -6.5,2.8 -2.2,-1.9 -1.9,-5.7 1.7,-5.3 3.1,-0.9 6.9,-2.1 8.1,-5.5 0.9,-2.7 -1.6,-5.2 -4.3,-4.8 h -1.1 -0.7 z m 13.6,0 c -2.2,0 -8.5,1.8 -2.9,2.3 0.9,1.9 -1,4.9 -1.1,7.2 -0.5,2.9 -1.4,5.7 -1.7,8.7 3.7,0.7 3.8,-2.6 4.4,-5.3 0.9,-3.3 1.6,-7 4.1,-9.5 2.4,1.6 6.8,-0.7 3.7,-3.4 -2.9,-0.5 -4.8,2.4 -6.2,4.3 0,-1.2 2.4,-5 -0.2,-4.3 z m 15.8,0 c -6.4,1.3 -9.6,9.1 -7.7,14.9 1.9,4 7.7,3.9 11,1.7 4.1,-3 6,-8.9 4.4,-13.7 -1.3,-3 -4.8,-3.2 -7.6,-3 z m 17,0 c -2.3,0 -8.8,1.9 -3,2.4 0.4,2.5 -1,5.7 -1.4,8.4 -0.7,2.4 -1.8,7.5 2.1,7.2 3.8,-0.1 6.5,-3.5 8.5,-6.3 2,-3.2 4.5,-7 3.3,-10.9 -3.7,-3 -3.6,2.6 -3.1,5.1 -0.7,3.8 -2.7,7.9 -6.2,9.8 -3.6,0.6 -1,-4.3 -0.8,-6.1 0.6,-3.2 1.6,-6.3 1.9,-9.5 -0.4,0 -0.8,0 -1.1,0 z m 30.6,0 c -6.3,1.2 -9.5,8.9 -7.8,14.7 1.5,4 7.2,4.2 10.5,2.4 4.6,-2.8 6.6,-9.3 4.8,-14.3 -1.4,-2.8 -4.8,-3 -7.5,-2.8 z m -75.4,1.7 c 2.1,1.5 0.2,4.7 -1.6,5.7 -1.1,0.4 -5.5,3.4 -4.6,0.7 0.8,-2.7 2.2,-6.2 5.3,-6.6 l 0.9,0.1 z m 30.8,0 c 2.6,1.5 1.3,5.2 0.8,7.6 -0.8,2.7 -1.9,5.9 -4.7,7.1 -5.1,0.8 -4,-5.8 -2.8,-8.8 1,-2.8 3,-6.8 6.7,-5.8 z m 47.1,-0.1 c 2.9,0.7 2,4.7 1.5,6.8 -0.7,3 -1.8,6.7 -5,8 -4.7,0.8 -4,-5.1 -3,-7.9 0.9,-3 2.7,-7.3 6.5,-6.8 z m -88.1,5.9 c -0.3,1.3 0.9,-0.6 0,0 z m -1.1,2.4 c -0.2,0.5 0.5,-0.1 0,0 z m -1.3,4.5 c -0.3,1.3 0.8,-0.2 0,0 z" />
                     <text y="41" x="201" fill="#00000" style="font-style:italic;font-weight:normal;font-size:30px;line-height:125%;font-family:Times;text-anchor:middle" xml:space="preserve">engraved with</text>
                  </g>
               </g>
            </g>
         </g>
      </g>
   </svg>
</svg>
