<?xml version="1.0" encoding="UTF-8" standalone="no"?>
<svg width="2100px" height="2970px" version="1.1" xmlns="http://www.w3.org/2000/svg" xmlns:xlink="http://www.w3.org/1999/xlink" xmlns:mei="http://www.music-encoding.org/ns/mei" overflow="visible">
   <desc>Engraved by Verovio 4.4.0-66ab39c</desc>
   <defs>
      <symbol id="E242-vhw2mz" viewBox="0 0 1000 1000" overflow="inherit">
         <path transform="scale(1,-1)" d="M206 -748c32 48 49 100 49 149c0 89 -55 168 -168 203c-18 5 -47 9 -87 16v190v190h22c8 0 33 -61 71 -95c4 -3 -2 3 61 -56c62 -58 122 -137 122 -241c0 -32 -7 -65 -17 -96c11 -29 17 -60 17 -94c0 -71 -32 -148 -67 -190c-6 -5 -10 -7 -13 -7s-5 2 -5 5l4 10 c1 3 6 8 11 16zM248 -463c4 18 7 38 7 57c0 105 -80 173 -168 200c-11 3 -27 6 -47 9c9 -17 23 -61 53 -88c4 -3 -2 3 61 -56c36 -33 71 -74 94 -122z" />
      </symbol>
      <symbol id="E244-vhw2mz" viewBox="0 0 1000 1000" overflow="inherit">
         <path transform="scale(1,-1)" d="M248 -463c4 18 7 38 7 57c0 105 -80 173 -168 200c-11 3 -27 6 -47 9c9 -17 23 -61 53 -88c4 -3 -2 3 61 -56c36 -33 71 -74 94 -122zM206 -748c32 48 49 100 49 149c0 89 -55 168 -168 203c-18 5 -47 9 -87 16v190v190v190h22c8 0 33 -61 71 -95c4 -3 -2 3 61 -56 c61 -57 122 -134 122 -235v-6c-1 -59 -10 -80 -19 -91c12 -30 19 -63 19 -99c0 -32 -7 -65 -17 -96c11 -29 17 -60 17 -94c0 -71 -32 -148 -67 -190c-6 -5 -10 -7 -13 -7s-5 2 -5 5l4 10c1 3 6 8 11 16zM247 -270c4 11 8 28 8 54c0 105 -80 173 -168 200c-11 3 -27 6 -47 9 c9 -17 23 -61 53 -88c4 -3 -2 3 61 -56c35 -33 70 -72 93 -119z" />
      </symbol>
      <symbol id="E0A9-vhw2mz" viewBox="0 0 1000 1000" overflow="inherit">
         <path transform="scale(1,-1)" d="M0 -110c0 4 1 8 5 11l119 99l-119 100c-3 3 -5 8 -5 12c0 6 5 13 12 13c3 0 6 -1 8 -2l124 -105l126 105c2 1 5 2 7 2c6 0 13 -6 13 -14c0 -4 -2 -9 -5 -11l-119 -100l119 -99c3 -3 5 -7 5 -12c0 -6 -5 -14 -13 -14c-2 0 -5 1 -7 3l-126 105l-124 -105c-2 -2 -4 -3 -7 -3 c-8 0 -13 7 -13 15z" />
      </symbol>
      <symbol id="E069-vhw2mz" viewBox="0 0 1000 1000" overflow="inherit">
         <path transform="scale(1,-1)" d="M200 250h125v-500h-125v500zM0 250h125v-500h-125v500z" />
      </symbol>
      <symbol id="E4E3-vhw2mz" viewBox="0 0 1000 1000" overflow="inherit">
         <path transform="scale(1,-1)" d="M0 -115v105c0 9 1 10 10 10h280c9 0 10 -1 10 -10v-105c0 -9 -1 -10 -10 -10h-280c-9 0 -10 1 -10 10z" />
      </symbol>
      <symbol id="E084-vhw2mz" viewBox="0 0 1000 1000" overflow="inherit">
         <path transform="scale(1,-1)" d="M20 -78c84 97 114 180 134 329h170c-13 -32 -82 -132 -99 -151l-84 -97c-33 -36 -59 -63 -80 -81h162v102l127 123v-225h57v-39h-57v-34c0 -43 19 -65 57 -65v-34h-244v36c48 0 60 26 60 70v27h-203v39z" />
      </symbol>
      <symbol id="E0A2-vhw2mz" viewBox="0 0 1000 1000" overflow="inherit">
         <path transform="scale(1,-1)" d="M198 133c102 0 207 -45 207 -133c0 -92 -118 -133 -227 -133c-101 0 -178 46 -178 133c0 88 93 133 198 133zM293 -21c0 14 -3 29 -8 44c-7 20 -18 38 -33 54c-20 21 -43 31 -68 31l-20 -2c-15 -5 -27 -14 -36 -28c-4 -9 -6 -17 -8 -24s-3 -16 -3 -27c0 -15 3 -34 9 -57 s18 -41 34 -55c15 -15 36 -23 62 -23c4 0 10 1 18 2c19 5 32 15 40 30s13 34 13 55z" />
      </symbol>
      <symbol id="E0A4-vhw2mz" viewBox="0 0 1000 1000" overflow="inherit">
         <path transform="scale(1,-1)" d="M0 -39c0 68 73 172 200 172c66 0 114 -37 114 -95c0 -84 -106 -171 -218 -171c-64 0 -96 30 -96 94z" />
      </symbol>
      <symbol id="E241-vhw2mz" viewBox="0 0 1000 1000" overflow="inherit">
         <path transform="scale(1,-1)" d="M179 646c-4 8 -17 30 -18 33l-4 10c0 3 2 5 5 5s7 -2 13 -7c23 -33 46 -81 66 -132c22 -57 35 -125 35 -163c0 -104 -60 -183 -122 -241c-63 -59 -57 -53 -61 -56c-38 -34 -63 -95 -71 -95h-22v190c40 7 69 11 87 16c88 27 168 95 168 200c0 30 -12 89 -30 138 c-17 47 -31 73 -46 102z" />
      </symbol>
      <symbol id="E4E6-vhw2mz" viewBox="0 0 1000 1000" overflow="inherit">
         <path transform="scale(1,-1)" d="M0 123c7 34 33 56 69 60c29 -3 43 -9 53 -29c4 -8 7 -15 10 -22c0 -21 -1 -25 -11 -35c-5 -8 -18 -14 -40 -20l12 -3l15 -1c44 0 97 26 122 56c10 11 18 26 24 42c7 1 15 2 22 3l-140 -424h-36l111 330c-10 -6 -27 -12 -53 -16l-52 -8h-10l-20 1c-1 0 -8 3 -21 6 c-37 9 -55 28 -55 60z" />
      </symbol>
      <symbol id="E4E7-vhw2mz" viewBox="0 0 1000 1000" overflow="inherit">
         <path transform="scale(1,-1)" d="M133 -111c0 -33 -21 -50 -52 -55c10 -3 18 -4 25 -4c40 0 69 24 90 47l66 197c-36 -18 -64 -25 -112 -25c-23 0 -38 3 -45 8c-37 7 -55 27 -55 59c8 35 30 54 68 58c45 -6 49 -13 64 -48c0 -3 1 -5 1 -7c0 -27 -25 -46 -52 -49c6 -4 15 -6 26 -6c32 2 62 14 88 29 c32 19 44 36 59 71l7 1l10 2h4c-72 -220 -143 -439 -215 -659h-37l108 324c-20 -13 -51 -20 -82 -20c-21 0 -35 4 -43 10c-37 6 -55 26 -55 58c8 35 31 56 68 60c43 -8 48 -13 64 -51z" />
      </symbol>
   </defs>
   <style type="text/css">g.page-margin{font-family:Times,serif;} g.ending, g.fing, g.reh, g.tempo{font-weight:bold;} g.dir, g.dynam, g.mNum{font-style:italic;} g.label{font-weight:normal;}</style>
   <svg class="definition-scale" color="black" viewBox="0 0 21000 29700">
      <g class="page-margin" transform="translate(500, 500)">
         <g id="m-9989367e-648a-4eec-8339-8d9b9926ceb2" class="mdiv pageMilestone" />
         <g id="m-4b555b10-ff99-414c-90d6-49e4b0df45c3" class="score pageMilestone" />
         <g id="s1bylvos" class="system">
            <g id="m-53c1c713-5f5e-4257-abd9-a33991a02afd" class="section systemMilestone" />
            <g id="m-edf65103-3b34-4c62-93a3-5d8460d48654" class="measure">
               <g id="m-c276eec6-6786-4888-8dd5-e03e9500aa89" class="staff">
                  <path d="M0 2135 L6477 2135" stroke="currentColor" stroke-width="13" />
                  <path d="M0 2315 L6477 2315" stroke="currentColor" stroke-width="13" />
                  <path d="M0 2495 L6477 2495" stroke="currentColor" stroke-width="13" />
                  <path d="M0 2675 L6477 2675" stroke="currentColor" stroke-width="13" />
                  <path d="M0 2855 L6477 2855" stroke="currentColor" stroke-width="13" />
                  <g id="cyqiw0h" class="clef">
                     <use xlink:href="#E069-vhw2mz" x="90" y="2495" height="720px" width="720px" />
                  </g>
                  <g id="kd8hlk2" class="keySig" />
                  <g id="m78fu8b" class="meterSig">
                     <use xlink:href="#E084-vhw2mz" x="490" y="2315" height="720px" width="720px" />
                     <use xlink:href="#E084-vhw2mz" x="490" y="2675" height="720px" width="720px" />
                  </g>
                  <g class="ledgerLines above">
                     <path d="M1472 1955 L1740 1955" stroke="currentColor" stroke-width="22" />
                     <path d="M1772 1955 L2040 1955" stroke="currentColor" stroke-width="22" />
                     <path d="M2675 1955 L2979 1955" stroke="currentColor" stroke-width="22" />
                     <path d="M3928 1955 L4232 1955" stroke="currentColor" stroke-width="22" />
                     <path d="M5516 1955 L5820 1955" stroke="currentColor" stroke-width="22" />
                  </g>
                  <g class="ledgerLines below">
                     <path d="M1004 3035 L1308 3035" stroke="currentColor" stroke-width="22" />
                     <path d="M1754 3035 L2058 3035" stroke="currentColor" stroke-width="22" />
                  </g>
                  <g id="m-cb011a56-481f-4987-a817-b3db14ca0dda" class="layer">
                     <g id="m-2ba4ba2a-4c34-4a61-a244-a8b52526a0c6" class="rest">
                        <use xlink:href="#E4E6-vhw2mz" x="1052" y="1775" height="720px" width="720px" />
                     </g>
                     <g id="m-e3833a46-16d1-4371-80a7-f0a0c8274d93" class="beam">
                        <polygon points="1692,1280 2010,1280 2010,1370 1692,1370" />
                        <polygon points="1692,1415 2010,1415 2010,1505 1692,1505" />
                        <g id="m-8fcf390d-65cc-41db-934e-4f25afb6beb5" class="note">
                           <g class="notehead">
                              <use xlink:href="#E0A9-vhw2mz" x="1502" y="1865" height="720px" width="720px" />
                           </g>
                           <g id="s1p936br" class="stem">
                              <path d="M1701 1786 L1701 1298" stroke="currentColor" stroke-width="18" />
                           </g>
                           <g id="a11mj3h9" class="accid" />
                        </g>
                        <g id="m-c745f6c7-6018-42a1-bc92-a57cb6ea44e4" class="note">
                           <g class="notehead">
                              <use xlink:href="#E0A9-vhw2mz" x="1802" y="1865" height="720px" width="720px" />
                           </g>
                           <g id="s1gdlnij" class="stem">
                              <path d="M2001 1786 L2001 1298" stroke="currentColor" stroke-width="18" />
                           </g>
                           <g id="a5m0xiz" class="accid" />
                        </g>
                     </g>
                     <g id="m-e518e66d-9aec-4207-bddf-51bd1f072dad" class="rest">
                        <use xlink:href="#E4E7-vhw2mz" x="2102" y="1775" height="720px" width="720px" />
                     </g>
                     <g id="m-b8f6e595-687b-45f0-9a37-8a71a580f444" class="beam">
                        <polygon points="2615,1235 2931,1055 2931,1145 2615,1325" />
                        <polygon points="2615,1370 2931,1190 2931,1280 2615,1460" />
                        <polygon points="2615,1505 2931,1325 2931,1415 2615,1595" />
                        <g id="m-ffc7e934-109a-4563-a97a-870fa67ceea3" class="note">
                           <g class="notehead">
                              <use xlink:href="#E0A9-vhw2mz" x="2425" y="2045" height="720px" width="720px" />
                           </g>
                           <g id="s1rgz5uw" class="stem">
                              <path d="M2624 1966 L2624 1253" stroke="currentColor" stroke-width="18" />
                           </g>
                        </g>
                        <g id="m-df098665-6941-41b0-a35c-76e9e57c5d7a" class="note">
                           <g class="notehead">
                              <use xlink:href="#E0A9-vhw2mz" x="2723" y="1865" height="720px" width="720px" />
                           </g>
                           <g id="s1xi564f" class="stem">
                              <path d="M2922 1786 L2922 1073" stroke="currentColor" stroke-width="18" />
                           </g>
                           <g id="aahnz02" class="accid" />
                        </g>
                     </g>
                     <g id="m-9ff38247-859d-43fd-b9b0-7d469ac3e1b3" class="rest">
                        <use xlink:href="#E4E6-vhw2mz" x="3021" y="1775" height="720px" width="720px" />
                     </g>
                     <g id="m-e7fa9d7b-583e-4775-a746-ce981ab94f6f" class="rest">
                        <use xlink:href="#E4E7-vhw2mz" x="3653" y="1775" height="720px" width="720px" />
                     </g>
                     <g id="m-b58ef468-b59e-4324-a018-d0f10386d6f3" class="note">
                        <g class="notehead">
                           <use xlink:href="#E0A9-vhw2mz" x="3976" y="1865" height="720px" width="720px" />
                        </g>
                        <g id="sana23h" class="stem">
                           <path d="M4175 1786 L4175 1355" stroke="currentColor" stroke-width="18" />
                           <g id="fn371zw" class="flag">
                              <use xlink:href="#E242-vhw2mz" x="4166" y="1355" height="720px" width="720px" />
                           </g>
                        </g>
                        <g id="au7gsxu" class="accid" />
                     </g>
                     <g id="m-ccc8c7c8-3331-4cc4-a2e0-2885a8375abb" class="rest">
                        <use xlink:href="#E4E7-vhw2mz" x="4454" y="1775" height="720px" width="720px" />
                        <g id="dc1j0t7" class="dots">
                           <ellipse cx="4777" cy="1685" rx="36" ry="36" />
                        </g>
                     </g>
                     <g id="m-ed386ce0-82a1-48b7-8d1a-72b53e81f887" class="note">
                        <g class="notehead">
                           <use xlink:href="#E0A9-vhw2mz" x="5086" y="2045" height="720px" width="720px" />
                        </g>
                        <g id="sbu7ov9" class="stem">
                           <path d="M5285 1966 L5285 1535" stroke="currentColor" stroke-width="18" />
                           <g id="f1ci1ln0" class="flag">
                              <use xlink:href="#E244-vhw2mz" x="5276" y="1535" height="720px" width="720px" />
                           </g>
                        </g>
                     </g>
                     <g id="m-41f1688f-c66b-4674-ba2d-db2ae883430a" class="note">
                        <g class="notehead">
                           <use xlink:href="#E0A9-vhw2mz" x="5564" y="1865" height="720px" width="720px" />
                        </g>
                        <g id="sx7qwxm" class="stem">
                           <path d="M5763 1786 L5763 1415" stroke="currentColor" stroke-width="18" />
                        </g>
                        <g id="aj9h4p9" class="accid" />
                     </g>
                  </g>
                  <g id="m-daec9663-9b08-4c60-b6fd-72cb7dc86981" class="layer">
                     <g id="m-09f93ca3-e980-4c54-9bf5-a46dcd3c448f" class="beam">
                        <polygon points="1052,3710 1820,3710 1820,3620 1052,3620" />
                        <polygon points="1594,3575 1820,3575 1820,3485 1594,3485" />
                        <g id="m-7ffb6bf0-3c95-4c13-bb8b-62480f28c94e" class="chord">
                           <g id="d15ey9pm" class="dots" />
                           <g id="s11cwbzb" class="stem">
                              <path d="M1061 2523 L1061 3692" stroke="currentColor" stroke-width="18" />
                           </g>
                           <g id="m-35f8b260-a9d5-441d-b72a-399b896c0c67" class="note">
                              <g class="notehead">
                                 <use xlink:href="#E0A9-vhw2mz" x="1052" y="3125" height="720px" width="720px" />
                              </g>
                              <g id="dkppjie" class="dots">
                                 <ellipse cx="1350" cy="3125" rx="36" ry="36" />
                              </g>
                              <g id="a16rmyo6" class="accid" />
                           </g>
                           <g id="m-e546f8df-00bc-4ab8-adc2-2b42f1d06af8" class="note">
                              <g class="notehead">
                                 <use xlink:href="#E0A4-vhw2mz" x="1052" y="2495" height="720px" width="720px" />
                              </g>
                              <g id="d1sd3na" class="dots">
                                 <ellipse cx="1368" cy="2585" rx="36" ry="36" />
                              </g>
                              <g id="azq6zcg" class="accid" />
                           </g>
                        </g>
                        <g id="m-b3e632b4-0cd0-4bfd-b930-173e5b68b57b" class="note">
                           <g class="notehead">
                              <use xlink:href="#E0A9-vhw2mz" x="1802" y="3125" height="720px" width="720px" />
                           </g>
                           <g id="s1l3h89r" class="stem">
                              <path d="M1811 3204 L1811 3692" stroke="currentColor" stroke-width="18" />
                           </g>
                           <g id="ad5wuto" class="accid" />
                        </g>
                     </g>
                     <g id="m-9a848058-5dfa-4138-a10a-7a0cbae2e2fe" class="beam">
                        <polygon points="2102,3215 3355,3575 3355,3485 2102,3125" />
                        <polygon points="3030,3348 3355,3440 3355,3350 3030,3258" />
                        <g id="m-f87bb6be-b352-41f0-b9ec-d5dffcab5015" class="note">
                           <g class="notehead">
                              <use xlink:href="#E0A4-vhw2mz" x="2102" y="2495" height="720px" width="720px" />
                           </g>
                           <g id="syqvvd1" class="stem">
                              <path d="M2111 2523 L2111 3197" stroke="currentColor" stroke-width="18" />
                           </g>
                           <g id="a10n9j59" class="accid" />
                        </g>
                        <g id="m-293db198-64cc-4227-aa1f-3f5ffed0879a" class="note">
                           <g class="notehead">
                              <use xlink:href="#E0A4-vhw2mz" x="3021" y="2495" height="720px" width="720px" />
                           </g>
                           <g id="srjgo8a" class="stem">
                              <path d="M3030 2523 L3030 3465" stroke="currentColor" stroke-width="18" />
                           </g>
                           <g id="a1rgk2hy" class="accid" />
                        </g>
                        <g id="m-c22c3ae5-ed48-4aef-9e6d-6c10193e7e26" class="note">
                           <g class="notehead">
                              <use xlink:href="#E0A4-vhw2mz" x="3337" y="2945" height="720px" width="720px" />
                           </g>
                           <g id="sjouz3b" class="stem">
                              <path d="M3346 2973 L3346 3557" stroke="currentColor" stroke-width="18" />
                           </g>
                        </g>
                     </g>
                     <g id="m-04b801fe-e995-46f6-b232-92851f549c4d" class="beam">
                        <polygon points="3653,3530 4788,3530 4788,3440 3653,3440" />
                        <polygon points="4463,3395 4788,3395 4788,3305 4463,3305" />
                        <g id="m-b18cfc3f-53bb-4dd3-8854-3e8e35ee5bd7" class="note">
                           <g class="notehead">
                              <use xlink:href="#E0A4-vhw2mz" x="3653" y="2495" height="720px" width="720px" />
                           </g>
                           <g id="s4t7sao" class="stem">
                              <path d="M3662 2523 L3662 3512" stroke="currentColor" stroke-width="18" />
                           </g>
                           <g id="a1b1hchb" class="accid" />
                        </g>
                        <g id="m-bd24d831-d3d2-4360-8ab2-c6b6755994e0" class="note">
                           <g class="notehead">
                              <use xlink:href="#E0A4-vhw2mz" x="4454" y="2945" height="720px" width="720px" />
                           </g>
                           <g id="s1196gqi" class="stem">
                              <path d="M4463 2973 L4463 3512" stroke="currentColor" stroke-width="18" />
                           </g>
                        </g>
                        <g id="m-58645070-791f-4fe7-bfb6-127eb1857f20" class="note">
                           <g class="notehead">
                              <use xlink:href="#E0A4-vhw2mz" x="4770" y="2495" height="720px" width="720px" />
                           </g>
                           <g id="s1c64nof" class="stem">
                              <path d="M4779 2523 L4779 3512" stroke="currentColor" stroke-width="18" />
                           </g>
                           <g id="a1oa3a3a" class="accid" />
                        </g>
                     </g>
                     <g id="m-2dc05721-76a6-440d-8ade-e0ce85d0e0af" class="rest">
                        <use xlink:href="#E4E6-vhw2mz" x="5564" y="2675" height="720px" width="720px" />
                     </g>
                     <g id="m-7609cceb-8944-4c10-82da-eec3cfeadea8" class="chord">
                        <g id="s1w4ohaf" class="stem">
                           <path d="M6023 2523 L6023 3485" stroke="currentColor" stroke-width="18" />
                           <g id="f1814xqq" class="flag">
                              <use xlink:href="#E241-vhw2mz" x="6014" y="3485" height="720px" width="720px" />
                           </g>
                        </g>
                        <g id="m-35aa623c-374e-4ba8-891d-67107fd0bdcd" class="note">
                           <g class="notehead">
                              <use xlink:href="#E0A4-vhw2mz" x="6014" y="2495" height="720px" width="720px" />
                           </g>
                           <g id="a1uz5muk" class="accid" />
                        </g>
                        <g id="m-54c16c68-c216-4361-8270-3400c8125a9c" class="note">
                           <g class="notehead">
                              <use xlink:href="#E0A4-vhw2mz" x="6014" y="2945" height="720px" width="720px" />
                           </g>
                        </g>
                     </g>
                  </g>
               </g>
               <g id="b1hmcdgt" class="barLine">
                  <path d="M6464 2135 L6464 2855" stroke="currentColor" stroke-width="27" />
               </g>
            </g>
            <g id="m-009e7d80-550b-4418-b1fe-86f1ba8768da" class="measure">
               <g id="m-7d294690-025d-4d67-8f8f-ea82cf500407" class="staff">
                  <path d="M6477 2135 L8260 2135" stroke="currentColor" stroke-width="13" />
                  <path d="M6477 2315 L8260 2315" stroke="currentColor" stroke-width="13" />
                  <path d="M6477 2495 L8260 2495" stroke="currentColor" stroke-width="13" />
                  <path d="M6477 2675 L8260 2675" stroke="currentColor" stroke-width="13" />
                  <path d="M6477 2855 L8260 2855" stroke="currentColor" stroke-width="13" />
                  <g id="m-35c585ce-a44b-44a0-a268-dd69fa129c64" class="layer">
                     <g id="m-ef03442d-b833-4624-b53a-de83b0a7785b" class="rest">
                        <use xlink:href="#E4E3-vhw2mz" x="6657" y="1955" height="720px" width="720px" />
                        <g class="ledgerLines">
                           <path d="M6609 1955 L6921 1955" stroke="currentColor" stroke-width="22" />
                        </g>
                     </g>
                  </g>
                  <g id="m-f55d183b-199e-49dc-982d-562f946c2010" class="layer">
                     <g id="m-8052260c-c4e8-4fc7-9b7a-aeec64e3f1c2" class="note">
                        <g class="notehead">
                           <use xlink:href="#E0A2-vhw2mz" x="6657" y="2495" height="720px" width="720px" />
                        </g>
                        <g id="a1h2supu" class="accid" />
                     </g>
                  </g>
               </g>
               <g id="b1goqtkf" class="barLine">
                  <path d="M8247 2135 L8247 2855" stroke="currentColor" stroke-width="27" />
               </g>
            </g>
            <g id="st4d7mi" class="systemMilestoneEnd m-53c1c713-5f5e-4257-abd9-a33991a02afd" />
         </g>
         <g id="p1n80zns" class="pageMilestoneEnd m-4b555b10-ff99-414c-90d6-49e4b0df45c3" />
         <g id="p1hxz5s0" class="pageMilestoneEnd m-9989367e-648a-4eec-8339-8d9b9926ceb2" />
         <g id="p174rps7" class="pgHead autogenerated">
            <text font-size="0px">
               <tspan id="r7ugs9o" class="rend" x="10000" y="415" text-anchor="middle">
                  <title class="labelAttr">title</title>
                  <tspan id="rgtgk49" class="rend">
                     <tspan id="tdmllw1" class="text">
                        <tspan font-size="607px">13_rock_130_beat_4-4</tspan>
                     </tspan>
                  </tspan>
                  <tspan id="l1f8xm69" class="lb" />
                  <tspan id="rd0c2ah" class="rend">
                     <tspan id="t136ps6r" class="text" x="10000" y="805">
                        <tspan font-size="324px">13_rock_130_beat_4-4</tspan>
                     </tspan>
                  </tspan>
               </tspan>
            </text>
         </g>
         <g id="pfmptgo" class="pgFoot autogenerated">
            <g id="fq51kwu" class="fig">
               <g class="svg" transform="translate(7750, 28099) scale(10.000000, 10.000000)">
                  <g>
                     <path fill="#00000" d="M 17.11278,49.26451 V 10.367554 h 12.696511 c 3.288815,7.336676 6.71267,14.610456 10.127281,21.888976 3.419998,-7.484684 6.255515,-14.204887 9.58887,-21.909915 2.436207,0.103726 4.316952,0.08453 6.484294,-0.05808 V 49.264423 H 50.274275 C 50.145222,38.35639 50.016136,27.448368 49.887066,16.540329 45.003488,27.315459 39.967448,38.433564 35.083854,49.208695 34.678996,49.343717 34.426583,49.135619 34.021726,49.270644 29.46588,39.330716 24.910049,29.390805 20.354201,19.450876 20.224341,29.388756 20.09461,39.326619 19.964815,49.264497 H 17.11278 Z M 36.754144,39.324695 C 32.721221,30.512695 28.6883,21.700679 24.655394,12.888662 22.530527,12.750737 22.656775,12.71031 20.714356,12.813974 v 0.966497 c 4.612938,9.99784 9.609439,20.748709 13.87298,30.081745 0.722248,-1.512523 1.444528,-3.025014 2.166808,-4.537521 z m 25.738417,9.939815 c 0,-12.965651 0,-25.931305 0,-38.896956 10.084388,0 20.168791,0 30.253178,0 0,0.960416 0,1.920849 0,2.881265 -6.482825,0 -12.965652,0 -19.448478,0 0,4.802097 0,9.604178 0,14.406277 5.52241,0 11.044819,0 16.567229,0 0,0.960415 0,1.920832 0,2.881248 -5.52241,0 -11.044819,0 -16.567229,0 0,5.282306 0,10.564611 0,15.846917 6.963035,0 13.926068,0 20.889103,0 0,0.960416 0,1.920832 0,2.881249 -10.564597,0 -21.129207,0 -31.693803,0 z m 4.321874,-2.160937 c 0,-11.765131 0,-23.530263 0,-35.295394 -0.720312,0 -1.440625,0 -2.160937,0 0,11.765131 0,23.530263 0,35.295394 0.720312,0 1.440625,0 2.160937,0 z m 32.41413,2.160937 c 0,-12.965651 0,-25.931305 0,-38.896956 2.401045,0 4.802095,0 7.203135,0 0,12.965651 0,25.931305 0,38.896956 -2.40104,0 -4.80209,0 -7.203135,0 z m 2.881265,-2.160937 c 0,-11.765131 0,-23.530263 0,-35.295394 -0.72031,0 -1.44064,0 -2.160953,0 0,11.765131 0,23.530263 0,35.295394 0.720313,0 1.440643,0 2.160953,0 z" />
                     <path fill="#00000" d="m 346.3,6.7 c -3.1,0.5 -4.9,4.4 -2.7,6.8 1.2,1.4 2.7,2.4 4.1,3.5 -2.4,5.3 -7.7,8.3 -11.9,12.1 -3.7,2.8 -7,6.2 -9.7,9.9 -2.2,-0.8 -0.3,-6.8 -0.6,-9.5 0.1,-3.1 0.7,-6.4 2.9,-8.7 1.3,-1.9 3,-3.5 4.5,-5.2 1.2,-3.4 -3.2,-4.9 -5.8,-4.6 -7.3,-0.5 -14.6,2 -20,6.8 -5,4.6 -10,10.1 -11.5,17 -0.9,3.5 -0.2,7.5 2.8,9.9 2.5,2.8 7.4,2.9 9.8,-0.2 1.7,-2.3 3.2,-4.8 3.8,-7.6 -0.1,-2.6 -4.4,-2.3 -4.3,0.2 1.2,2.4 -0.9,4.7 -2.7,6.2 -1.7,0.9 -4.7,0.7 -4.8,-1.7 -1,-5.8 2.1,-11.3 5.2,-16.1 4,-5.8 9.8,-11.2 17.2,-11.8 1.6,0 8.1,-1.2 6.8,1.4 -2.8,2.8 -5.6,6.1 -6,10.3 -1.6,7.7 0.1,15.7 -2.3,23.2 -1.1,3.9 2,2.6 2.5,0.2 3.3,-7.4 8.9,-13.4 15.1,-18.5 4.2,-3.9 9.5,-7.1 11.9,-12.6 1.3,-3.6 1.2,-9 -2.7,-10.9 -0.6,-0.2 -1.2,-0.3 -1.8,-0.3 z m 66,14.5 c -2,0.8 -1.8,4.9 0.8,4.4 3.4,0.4 2.9,-6.2 -0.8,-4.4 z m 0.6,7.3 c -1.3,0.5 -7.6,0.5 -5.4,2.2 4,-0.3 0.7,4.5 0.6,6.7 -0.4,2.9 -2.4,5.9 -1.2,8.8 2.7,1.7 5.6,-0.8 6.8,-3.2 1.6,-1.4 -0.5,-3 -1.2,-0.9 -0.4,0.8 -2.4,3.5 -2.6,1.8 1.1,-5 2.7,-9.9 3.9,-14.9 l -0.1,-0.5 h -0.9 z m -65.1,0.2 c -6.5,1.6 -10.5,9.5 -8.2,15.7 2.1,3.4 7.4,2.9 10.1,0.4 2,-0.2 3.6,-5.3 1,-3.4 -1.4,2 -4,4.2 -6.5,2.8 -2.2,-1.9 -1.9,-5.7 1.7,-5.3 3.1,-0.9 6.9,-2.1 8.1,-5.5 0.9,-2.7 -1.6,-5.2 -4.3,-4.8 h -1.1 -0.7 z m 13.6,0 c -2.2,0 -8.5,1.8 -2.9,2.3 0.9,1.9 -1,4.9 -1.1,7.2 -0.5,2.9 -1.4,5.7 -1.7,8.7 3.7,0.7 3.8,-2.6 4.4,-5.3 0.9,-3.3 1.6,-7 4.1,-9.5 2.4,1.6 6.8,-0.7 3.7,-3.4 -2.9,-0.5 -4.8,2.4 -6.2,4.3 0,-1.2 2.4,-5 -0.2,-4.3 z m 15.8,0 c -6.4,1.3 -9.6,9.1 -7.7,14.9 1.9,4 7.7,3.9 11,1.7 4.1,-3 6,-8.9 4.4,-13.7 -1.3,-3 -4.8,-3.2 -7.6,-3 z m 17,0 c -2.3,0 -8.8,1.9 -3,2.4 0.4,2.5 -1,5.7 -1.4,8.4 -0.7,2.4 -1.8,7.5 2.1,7.2 3.8,-0.1 6.5,-3.5 8.5,-6.3 2,-3.2 4.5,-7 3.3,-10.9 -3.7,-3 -3.6,2.6 -3.1,5.1 -0.7,3.8 -2.7,7.9 -6.2,9.8 -3.6,0.6 -1,-4.3 -0.8,-6.1 0.6,-3.2 1.6,-6.3 1.9,-9.5 -0.4,0 -0.8,0 -1.1,0 z m 30.6,0 c -6.3,1.2 -9.5,8.9 -7.8,14.7 1.5,4 7.2,4.2 10.5,2.4 4.6,-2.8 6.6,-9.3 4.8,-14.3 -1.4,-2.8 -4.8,-3 -7.5,-2.8 z m -75.4,1.7 c 2.1,1.5 0.2,4.7 -1.6,5.7 -1.1,0.4 -5.5,3.4 -4.6,0.7 0.8,-2.7 2.2,-6.2 5.3,-6.6 l 0.9,0.1 z m 30.8,0 c 2.6,1.5 1.3,5.2 0.8,7.6 -0.8,2.7 -1.9,5.9 -4.7,7.1 -5.1,0.8 -4,-5.8 -2.8,-8.8 1,-2.8 3,-6.8 6.7,-5.8 z m 47.1,-0.1 c 2.9,0.7 2,4.7 1.5,6.8 -0.7,3 -1.8,6.7 -5,8 -4.7,0.8 -4,-5.1 -3,-7.9 0.9,-3 2.7,-7.3 6.5,-6.8 z m -88.1,5.9 c -0.3,1.3 0.9,-0.6 0,0 z m -1.1,2.4 c -0.2,0.5 0.5,-0.1 0,0 z m -1.3,4.5 c -0.3,1.3 0.8,-0.2 0,0 z" />
                     <text y="41" x="201" fill="#00000" style="font-style:italic;font-weight:normal;font-size:30px;line-height:125%;font-family:Times;text-anchor:middle" xml:space="preserve">engraved with</text>
                  </g>
               </g>
            </g>
         </g>
      </g>
   </svg>
</svg>
