<?xml version="1.0" encoding="UTF-8" standalone="no"?>
<svg width="2100px" height="2970px" version="1.1" xmlns="http://www.w3.org/2000/svg" xmlns:xlink="http://www.w3.org/1999/xlink" xmlns:mei="http://www.music-encoding.org/ns/mei" overflow="visible">
   <desc>Engraved by Verovio 4.4.0-66ab39c</desc>
   <defs>
      <symbol id="E4E4-n6jf8p" viewBox="0 0 1000 1000" overflow="inherit">
         <path transform="scale(1,-1)" d="M0 10v105c0 9 1 10 10 10h280c9 0 10 -1 10 -10v-105c0 -9 -1 -10 -10 -10h-280c-9 0 -10 1 -10 10z" />
      </symbol>
      <symbol id="E4E3-n6jf8p" viewBox="0 0 1000 1000" overflow="inherit">
         <path transform="scale(1,-1)" d="M0 -115v105c0 9 1 10 10 10h280c9 0 10 -1 10 -10v-105c0 -9 -1 -10 -10 -10h-280c-9 0 -10 1 -10 10z" />
      </symbol>
      <symbol id="E243-n6jf8p" viewBox="0 0 1000 1000" overflow="inherit">
         <path transform="scale(1,-1)" d="M216 730c-5 8 -10 13 -11 16l-4 10c0 3 2 5 5 5s7 -2 13 -7c35 -42 57 -101 57 -172c0 -34 -6 -65 -17 -94c10 -31 17 -64 17 -96c0 -104 -60 -183 -122 -241c-63 -59 -57 -53 -61 -56c-38 -34 -63 -95 -71 -95h-22v190v190c40 7 69 11 87 16c116 36 175 111 175 197 c0 44 -15 91 -46 137zM248 463c-23 -48 -58 -89 -94 -122c-63 -59 -57 -53 -61 -56c-30 -27 -44 -71 -53 -88c20 3 36 6 47 9c88 27 168 95 168 200c0 19 -3 39 -7 57z" />
      </symbol>
      <symbol id="E0A9-n6jf8p" viewBox="0 0 1000 1000" overflow="inherit">
         <path transform="scale(1,-1)" d="M0 -110c0 4 1 8 5 11l119 99l-119 100c-3 3 -5 8 -5 12c0 6 5 13 12 13c3 0 6 -1 8 -2l124 -105l126 105c2 1 5 2 7 2c6 0 13 -6 13 -14c0 -4 -2 -9 -5 -11l-119 -100l119 -99c3 -3 5 -7 5 -12c0 -6 -5 -14 -13 -14c-2 0 -5 1 -7 3l-126 105l-124 -105c-2 -2 -4 -3 -7 -3 c-8 0 -13 7 -13 15z" />
      </symbol>
      <symbol id="E0D9-n6jf8p" viewBox="0 0 1000 1000" overflow="inherit">
         <path transform="scale(1,-1)" d="M0 0c0 3 1 4 3 6c53 47 102 98 151 153c2 2 5 3 8 3s5 -1 7 -3c49 -55 89 -106 142 -153c2 -2 3 -3 3 -6s-1 -4 -3 -6c-53 -47 -93 -98 -142 -153c-2 -2 -4 -3 -7 -3s-6 1 -8 3c-49 55 -98 106 -151 153c-2 2 -3 3 -3 6zM83 36c-2 -2 -3 -4 -3 -6s1 -4 3 -6l96 -101 c2 -2 4 -3 7 -3s5 1 7 3l40 41c2 2 3 4 3 6s-1 4 -3 6l-96 101c-2 2 -4 3 -7 3s-5 -1 -7 -3z" />
      </symbol>
      <symbol id="E069-n6jf8p" viewBox="0 0 1000 1000" overflow="inherit">
         <path transform="scale(1,-1)" d="M200 250h125v-500h-125v500zM0 250h125v-500h-125v500z" />
      </symbol>
      <symbol id="E0A2-n6jf8p" viewBox="0 0 1000 1000" overflow="inherit">
         <path transform="scale(1,-1)" d="M198 133c102 0 207 -45 207 -133c0 -92 -118 -133 -227 -133c-101 0 -178 46 -178 133c0 88 93 133 198 133zM293 -21c0 14 -3 29 -8 44c-7 20 -18 38 -33 54c-20 21 -43 31 -68 31l-20 -2c-15 -5 -27 -14 -36 -28c-4 -9 -6 -17 -8 -24s-3 -16 -3 -27c0 -15 3 -34 9 -57 s18 -41 34 -55c15 -15 36 -23 62 -23c4 0 10 1 18 2c19 5 32 15 40 30s13 34 13 55z" />
      </symbol>
      <symbol id="E0A4-n6jf8p" viewBox="0 0 1000 1000" overflow="inherit">
         <path transform="scale(1,-1)" d="M0 -39c0 68 73 172 200 172c66 0 114 -37 114 -95c0 -84 -106 -171 -218 -171c-64 0 -96 30 -96 94z" />
      </symbol>
      <symbol id="E240-n6jf8p" viewBox="0 0 1000 1000" overflow="inherit">
         <path transform="scale(1,-1)" d="M179 -646c15 29 29 55 46 102c18 49 30 108 30 138c0 105 -80 173 -168 200c-18 5 -47 9 -87 16v190h22c8 0 33 -61 71 -95c4 -3 -2 3 61 -56c62 -58 122 -137 122 -241c0 -38 -13 -106 -35 -163c-20 -51 -43 -99 -66 -132c-6 -5 -10 -7 -13 -7s-5 2 -5 5l4 10 c1 3 14 25 18 33z" />
      </symbol>
      <symbol id="E4E5-n6jf8p" viewBox="0 0 1000 1000" overflow="inherit">
         <path transform="scale(1,-1)" d="M107 292c-13 24 -30 49 -52 71c-1 1 0 2 0 3l-2 2c3 3 4 4 6 4c12 0 26 -7 40 -20s44 -40 89 -81c26 -24 28 -29 46 -47c4 -4 8 -9 10 -14c6 -8 8 -16 8 -27c0 -19 -12 -40 -36 -61c-28 -23 -49 -38 -61 -73c-4 -11 -7 -27 -10 -50c13 -43 34 -83 59 -121 c31 -47 59 -79 101 -129c-8 0 -26 7 -54 20l-62 29l-21 6l-23 1c-25 0 -45 -10 -60 -30l-4 -14l-1 -12c0 -33 20 -56 39 -78c8 -9 17 -18 26 -26c17 -15 27 -24 28 -30l-3 -3c-11 5 -19 10 -25 15c-9 3 -37 21 -45 26c-24 14 -45 32 -63 51c-19 21 -37 44 -37 71 c0 63 27 95 80 95c41 0 86 -18 136 -52c-19 26 -37 48 -55 66c-23 23 -48 44 -73 65c-28 23 -47 40 -58 53s-17 26 -18 39c75 64 113 125 113 183c0 27 -7 48 -18 68z" />
      </symbol>
      <symbol id="E4E6-n6jf8p" viewBox="0 0 1000 1000" overflow="inherit">
         <path transform="scale(1,-1)" d="M0 123c7 34 33 56 69 60c29 -3 43 -9 53 -29c4 -8 7 -15 10 -22c0 -21 -1 -25 -11 -35c-5 -8 -18 -14 -40 -20l12 -3l15 -1c44 0 97 26 122 56c10 11 18 26 24 42c7 1 15 2 22 3l-140 -424h-36l111 330c-10 -6 -27 -12 -53 -16l-52 -8h-10l-20 1c-1 0 -8 3 -21 6 c-37 9 -55 28 -55 60z" />
      </symbol>
      <symbol id="E4E7-n6jf8p" viewBox="0 0 1000 1000" overflow="inherit">
         <path transform="scale(1,-1)" d="M133 -111c0 -33 -21 -50 -52 -55c10 -3 18 -4 25 -4c40 0 69 24 90 47l66 197c-36 -18 -64 -25 -112 -25c-23 0 -38 3 -45 8c-37 7 -55 27 -55 59c8 35 30 54 68 58c45 -6 49 -13 64 -48c0 -3 1 -5 1 -7c0 -27 -25 -46 -52 -49c6 -4 15 -6 26 -6c32 2 62 14 88 29 c32 19 44 36 59 71l7 1l10 2h4c-72 -220 -143 -439 -215 -659h-37l108 324c-20 -13 -51 -20 -82 -20c-21 0 -35 4 -43 10c-37 6 -55 26 -55 58c8 35 31 56 68 60c43 -8 48 -13 64 -51z" />
      </symbol>
      <symbol id="E222-n6jf8p" viewBox="0 0 1000 1000" overflow="inherit">
         <path transform="scale(1,-1)" d="M-163 -200l326 150v-100l-326 -150v100zM-163 150l326 150v-100l-326 -150v100zM-163 -25l326 150v-100l-326 -150v100z" />
      </symbol>
      <symbol id="E084-n6jf8p" viewBox="0 0 1000 1000" overflow="inherit">
         <path transform="scale(1,-1)" d="M20 -78c84 97 114 180 134 329h170c-13 -32 -82 -132 -99 -151l-84 -97c-33 -36 -59 -63 -80 -81h162v102l127 123v-225h57v-39h-57v-34c0 -43 19 -65 57 -65v-34h-244v36c48 0 60 26 60 70v27h-203v39z" />
      </symbol>
   </defs>
   <style type="text/css">g.page-margin{font-family:Times,serif;} g.ending, g.fing, g.reh, g.tempo{font-weight:bold;} g.dir, g.dynam, g.mNum{font-style:italic;} g.label{font-weight:normal;}</style>
   <svg class="definition-scale" color="black" viewBox="0 0 21000 29700">
      <g class="page-margin" transform="translate(500, 500)">
         <g id="m-8fe2d162-33df-4f52-ac87-5dcccfa8f41b" class="mdiv pageMilestone" />
         <g id="m-d3f1f623-a353-4b1c-b47f-0b09e2ade708" class="score pageMilestone" />
         <g id="sgk0qq5" class="system">
            <g id="m-070ca438-987d-465e-8c28-79931cd74024" class="section systemMilestone" />
            <g id="m-5028017f-f03d-47f4-bd6a-386bd2eaa7ba" class="measure">
               <g id="m-38dff6ac-5550-4f2a-b6be-64b9a7b102a1" class="staff">
                  <path d="M0 1667 L4930 1667" stroke="currentColor" stroke-width="13" />
                  <path d="M0 1847 L4930 1847" stroke="currentColor" stroke-width="13" />
                  <path d="M0 2027 L4930 2027" stroke="currentColor" stroke-width="13" />
                  <path d="M0 2207 L4930 2207" stroke="currentColor" stroke-width="13" />
                  <path d="M0 2387 L4930 2387" stroke="currentColor" stroke-width="13" />
                  <g id="c11k7l5r" class="clef">
                     <use xlink:href="#E069-n6jf8p" x="90" y="2027" height="720px" width="720px" />
                  </g>
                  <g id="k8j9oxk" class="keySig" />
                  <g id="m1i656j5" class="meterSig">
                     <use xlink:href="#E084-n6jf8p" x="490" y="1847" height="720px" width="720px" />
                     <use xlink:href="#E084-n6jf8p" x="490" y="2207" height="720px" width="720px" />
                  </g>
                  <g id="m-0044de51-7500-4208-93c7-e431358f966b" class="layer">
                     <g id="m-e0c71fc6-6685-40fd-8457-b972e0550da7" class="rest">
                        <use xlink:href="#E4E3-n6jf8p" x="1052" y="1487" height="720px" width="720px" />
                        <g class="ledgerLines">
                           <path d="M1004 1487 L1316 1487" stroke="currentColor" stroke-width="22" />
                        </g>
                     </g>
                  </g>
                  <g id="m-b5ad095e-70a0-45a2-9309-280f40e12c07" class="layer">
                     <g id="m-635590b0-40ad-4194-becb-978ef2cc7bee" class="rest">
                        <use xlink:href="#E4E5-n6jf8p" x="1052" y="2387" height="720px" width="720px" />
                        <g id="du6k0tl" class="dots">
                           <ellipse cx="1361" cy="2297" rx="36" ry="36" />
                        </g>
                     </g>
                     <g id="m-1890bd7b-120a-41f0-8904-5951008053e2" class="rest">
                        <use xlink:href="#E4E7-n6jf8p" x="1932" y="2207" height="720px" width="720px" />
                     </g>
                     <g id="m-cf32fc5b-1ed3-428b-9a6e-7a640fb6b4ca" class="note">
                        <g class="notehead">
                           <use xlink:href="#E0A4-n6jf8p" x="2255" y="2027" height="720px" width="720px" />
                        </g>
                        <g id="smynaf2" class="stem">
                           <path d="M2264 2055 L2264 2627" stroke="currentColor" stroke-width="18" />
                           <g id="f1uncqz9" class="flag">
                              <use xlink:href="#E243-n6jf8p" x="2255" y="2627" height="720px" width="720px" />
                           </g>
                        </g>
                        <g id="a1sdjn85" class="accid" />
                     </g>
                     <g id="m-3df61e58-96e9-4224-9b7d-375164f1e3de" class="beam">
                        <polygon points="2571,2612 3537,2612 3537,2522 2571,2522" />
                        <polygon points="2571,2477 2896,2477 2896,2387 2571,2387" />
                        <polygon points="2896,2477 3212,2477 3212,2387 2896,2387" />
                        <polygon points="3212,2477 3537,2477 3537,2387 3212,2387" />
                        <g id="m-bb230f5e-1f69-48f7-bc52-a6f027609dde" class="note">
                           <g class="notehead">
                              <use xlink:href="#E0A4-n6jf8p" x="2571" y="1757" height="720px" width="720px" />
                           </g>
                           <g id="s1lxxosy" class="stem">
                              <path d="M2580 1785 L2580 2594" stroke="currentColor" stroke-width="18" />
                           </g>
                           <g id="amtt8dq" class="accid" />
                        </g>
                        <g id="m-6633fbb4-fcba-4938-aab5-8c80da49d6d6" class="note">
                           <g class="notehead">
                              <use xlink:href="#E0A4-n6jf8p" x="2887" y="1757" height="720px" width="720px" />
                           </g>
                           <g id="siye3et" class="stem">
                              <path d="M2896 1785 L2896 2594" stroke="currentColor" stroke-width="18" />
                           </g>
                           <g id="ailqaz7" class="accid" />
                        </g>
                        <g id="m-69df1cd3-2e9d-4eb9-abd7-2676a7ae4cf3" class="note">
                           <g class="notehead">
                              <use xlink:href="#E0D9-n6jf8p" x="3203" y="2027" height="720px" width="720px" />
                           </g>
                           <g id="scdgwvu" class="stem">
                              <path d="M3212 2027 L3212 2594" stroke="currentColor" stroke-width="18" />
                           </g>
                           <g id="a79al36" class="accid" />
                        </g>
                        <g id="m-9adc036d-2547-4b86-bdd4-7da674278afd" class="note">
                           <g class="notehead">
                              <use xlink:href="#E0A4-n6jf8p" x="3519" y="1757" height="720px" width="720px" />
                           </g>
                           <g id="s1212268" class="stem">
                              <path d="M3528 1785 L3528 2594" stroke="currentColor" stroke-width="18" />
                           </g>
                           <g id="a18ohwd9" class="accid" />
                        </g>
                     </g>
                     <g id="m-fe382ea9-f0a1-44b5-89d9-95b63ce7dd3b" class="beam">
                        <polygon points="3835,2612 4485,2612 4485,2522 3835,2522" />
                        <polygon points="3835,2477 4160,2477 4160,2387 3835,2387" />
                        <g id="m-efaac201-420f-4557-87f9-eef7d51272a9" class="note">
                           <g class="notehead">
                              <use xlink:href="#E0A4-n6jf8p" x="3835" y="1847" height="720px" width="720px" />
                           </g>
                           <g id="s1yg1f1c" class="stem">
                              <path d="M3844 1875 L3844 2594" stroke="currentColor" stroke-width="18" />
                           </g>
                        </g>
                        <g id="m-be8a6fcc-9f08-46e2-8d2e-0bbc575ea7b4" class="note">
                           <g class="notehead">
                              <use xlink:href="#E0A4-n6jf8p" x="4151" y="2027" height="720px" width="720px" />
                           </g>
                           <g id="s1fvksdk" class="stem">
                              <path d="M4160 2055 L4160 2594" stroke="currentColor" stroke-width="18" />
                           </g>
                           <g id="a1dwbsr1" class="accid" />
                        </g>
                        <g id="m-12383d6c-ab44-4313-b917-70306519a1aa" class="note">
                           <g class="notehead">
                              <use xlink:href="#E0A4-n6jf8p" x="4467" y="1847" height="720px" width="720px" />
                           </g>
                           <g id="s1cmr1kd" class="stem">
                              <path d="M4476 1875 L4476 2594" stroke="currentColor" stroke-width="18" />
                           </g>
                        </g>
                     </g>
                  </g>
               </g>
               <g id="b112b3d2" class="barLine">
                  <path d="M4917 1667 L4917 2387" stroke="currentColor" stroke-width="27" />
               </g>
            </g>
            <g id="m-4b292f5d-3a60-451e-b290-8eac15dc2094" class="measure">
               <g id="m-33645f85-77da-4d58-a9ff-6e14c479ac73" class="staff">
                  <path d="M4930 1667 L10745 1667" stroke="currentColor" stroke-width="13" />
                  <path d="M4930 1847 L10745 1847" stroke="currentColor" stroke-width="13" />
                  <path d="M4930 2027 L10745 2027" stroke="currentColor" stroke-width="13" />
                  <path d="M4930 2207 L10745 2207" stroke="currentColor" stroke-width="13" />
                  <path d="M4930 2387 L10745 2387" stroke="currentColor" stroke-width="13" />
                  <g id="m-c0c85b03-6fa8-4541-b019-d4878c488826" class="layer">
                     <g id="m-56b40b41-1f92-4753-a766-b181797986e7" class="rest">
                        <use xlink:href="#E4E4-n6jf8p" x="5110" y="1487" height="720px" width="720px" />
                        <g class="ledgerLines">
                           <path d="M5062 1487 L5374 1487" stroke="currentColor" stroke-width="22" />
                        </g>
                     </g>
                     <g id="m-ff394731-02c1-4e83-aa00-40beacc9e2f3" class="rest">
                        <use xlink:href="#E4E5-n6jf8p" x="7880" y="1487" height="720px" width="720px" />
                        <g id="d53jngq" class="dots">
                           <ellipse cx="8189" cy="1397" rx="36" ry="36" />
                        </g>
                     </g>
                     <g id="m-c542f57d-f5fa-4d71-8a12-6a74227b4739" class="note">
                        <g class="notehead">
                           <use xlink:href="#E0A9-n6jf8p" x="10240" y="1577" height="720px" width="720px" />
                        </g>
                        <g id="s3mt0w5" class="stem">
                           <path d="M10439 1498 L10439 1067" stroke="currentColor" stroke-width="18" />
                           <g id="f1433yev" class="flag">
                              <use xlink:href="#E240-n6jf8p" x="10430" y="1067" height="720px" width="720px" />
                           </g>
                        </g>
                     </g>
                  </g>
                  <g id="m-2984cc15-a441-4e97-9542-cd850103fc35" class="layer">
                     <g id="m-80cadb89-2a38-4488-99ea-a5d51d451fe9" class="beam">
                        <polygon points="5110,2972 6133,2972 6133,2882 5110,2882" />
                        <polygon points="5110,2837 5435,2837 5435,2747 5110,2747" />
                        <polygon points="5435,2837 5808,2837 5808,2747 5435,2747" />
                        <polygon points="5808,2837 6133,2837 6133,2747 5808,2747" />
                        <g id="m-fb85c039-fa2f-4728-9286-2e334e6a283d" class="note">
                           <g class="notehead">
                              <use xlink:href="#E0A4-n6jf8p" x="5110" y="1847" height="720px" width="720px" />
                           </g>
                           <g id="savu1gb" class="stem">
                              <path d="M5119 1875 L5119 2954" stroke="currentColor" stroke-width="18" />
                           </g>
                        </g>
                        <g id="m-f57f8e92-bcbd-4a78-815f-9b5061a5298d" class="note">
                           <g class="notehead">
                              <use xlink:href="#E0A4-n6jf8p" x="5426" y="2027" height="720px" width="720px" />
                           </g>
                           <g id="sl9jto4" class="stem">
                              <path d="M5435 2055 L5435 2954" stroke="currentColor" stroke-width="18" />
                              <use xlink:href="#E222-n6jf8p" x="5435" y="2513" height="720px" width="720px" />
                           </g>
                           <g id="a1v3on0j" class="accid" />
                        </g>
                        <g id="m-2da2473d-b565-4fbb-96eb-9aaf1bc2bb34" class="note">
                           <g class="notehead">
                              <use xlink:href="#E0A4-n6jf8p" x="5799" y="1757" height="720px" width="720px" />
                           </g>
                           <g id="s1ammh9" class="stem">
                              <path d="M5808 1785 L5808 2954" stroke="currentColor" stroke-width="18" />
                           </g>
                           <g id="a1c8arpr" class="accid" />
                        </g>
                        <g id="m-a4527a40-5d8e-400a-b63e-5866ea40bc5d" class="note">
                           <g class="notehead">
                              <use xlink:href="#E0A4-n6jf8p" x="6115" y="2027" height="720px" width="720px" />
                           </g>
                           <g id="suzrvws" class="stem">
                              <path d="M6124 2055 L6124 2954" stroke="currentColor" stroke-width="18" />
                           </g>
                           <g id="a1cmqrta" class="accid" />
                        </g>
                     </g>
                     <g id="m-8775c732-0aad-42ff-8122-6d4969a6d13b" class="beam">
                        <polygon points="6431,2612 7448,2792 7448,2702 6431,2522" />
                        <polygon points="6431,2477 6756,2534 6756,2444 6431,2387" />
                        <g id="m-5a604962-2bb6-4924-8c96-1a3266f0ce22" class="note">
                           <g class="notehead">
                              <use xlink:href="#E0A4-n6jf8p" x="6431" y="2027" height="720px" width="720px" />
                           </g>
                           <g id="s1xebogf" class="stem">
                              <path d="M6440 2055 L6440 2594" stroke="currentColor" stroke-width="18" />
                           </g>
                           <g id="ad77ybj" class="accid" />
                        </g>
                        <g id="m-bb2eba61-00d7-4768-aa2a-3e95dff843c2" class="note">
                           <g class="notehead">
                              <use xlink:href="#E0A4-n6jf8p" x="6747" y="1757" height="720px" width="720px" />
                           </g>
                           <g id="s1r2uwuw" class="stem">
                              <path d="M6756 1785 L6756 2651" stroke="currentColor" stroke-width="18" />
                           </g>
                           <g id="a1v12eml" class="accid" />
                        </g>
                        <g id="m-dd278d10-0244-4734-8ad7-02018a0f1dc9" class="note">
                           <g class="notehead">
                              <use xlink:href="#E0A4-n6jf8p" x="7063" y="2297" height="540px" width="540px" />
                           </g>
                           <g id="s9v0g6y" class="stem">
                              <path d="M7223 2276 L7223 1825" stroke="currentColor" stroke-width="18" />
                              <g id="f12ea2bh" class="flag">
                                 <use xlink:href="#E240-n6jf8p" x="7214" y="1825" height="540px" width="540px" />
                              </g>
                           </g>
                        </g>
                        <g id="m-69820de1-493b-4193-a592-3b18ac9bbe8e" class="note">
                           <g class="notehead">
                              <use xlink:href="#E0A4-n6jf8p" x="7430" y="2297" height="720px" width="720px" />
                           </g>
                           <g id="s6ay6d4" class="stem">
                              <path d="M7439 2325 L7439 2774" stroke="currentColor" stroke-width="18" />
                           </g>
                        </g>
                     </g>
                     <g id="m-3fc8cbd6-10a5-4e36-b0dc-1039726b5829" class="beam">
                        <polygon points="7880,3062 8664,3062 8664,2972 7880,2972" />
                        <polygon points="8339,2927 8664,2927 8664,2837 8339,2837" />
                        <g id="m-37612b1a-c9dc-4d1d-b90c-ad63bc7afe7b" class="chord">
                           <g id="sxeegui" class="stem">
                              <path d="M7889 2325 L7889 3044" stroke="currentColor" stroke-width="18" />
                           </g>
                           <g id="m-a8b0f6b0-c891-4aa9-80bd-3738160a532a" class="note">
                              <g class="notehead">
                                 <use xlink:href="#E0A4-n6jf8p" x="7880" y="2297" height="720px" width="720px" />
                              </g>
                           </g>
                           <g id="m-92194f6c-31bc-42ad-9fdc-66ecca32d63a" class="note">
                              <g class="notehead">
                                 <use xlink:href="#E0A4-n6jf8p" x="7880" y="2477" height="720px" width="720px" />
                              </g>
                           </g>
                        </g>
                        <g id="m-6da04d13-5200-4657-9516-8ea03edc6e89" class="chord">
                           <g id="s12hqmw7" class="stem">
                              <path d="M8339 2055 L8339 3044" stroke="currentColor" stroke-width="18" />
                           </g>
                           <g id="m-d49cee45-7699-4b49-aad1-6d6bfbf21d3c" class="note">
                              <g class="notehead">
                                 <use xlink:href="#E0A4-n6jf8p" x="8330" y="2027" height="720px" width="720px" />
                              </g>
                              <g id="amdym8p" class="accid" />
                           </g>
                           <g id="m-1167ab92-666e-4dec-b656-e4ba873ae122" class="note">
                              <g class="notehead">
                                 <use xlink:href="#E0A4-n6jf8p" x="8330" y="2297" height="720px" width="720px" />
                              </g>
                           </g>
                        </g>
                        <g id="m-f3870d74-2bbe-436f-8a86-d2b8ab148b8e" class="chord">
                           <g id="s18yqwr3" class="stem">
                              <path d="M8655 2055 L8655 3044" stroke="currentColor" stroke-width="18" />
                           </g>
                           <g id="m-08e07ef7-d6c7-4266-b409-46c7f4e9d588" class="note">
                              <g class="notehead">
                                 <use xlink:href="#E0A4-n6jf8p" x="8646" y="2477" height="720px" width="720px" />
                              </g>
                           </g>
                           <g id="m-4123efd0-bf2b-4333-b7ed-b88e7e283507" class="note">
                              <g class="notehead">
                                 <use xlink:href="#E0A4-n6jf8p" x="8646" y="2027" height="720px" width="720px" />
                              </g>
                              <g id="azl87ny" class="accid" />
                           </g>
                        </g>
                     </g>
                     <g id="m-0e60d403-98d4-475a-ba18-21141b6efff4" class="beam">
                        <polygon points="9070,3152 9942,3152 9942,3062 9070,3062" />
                        <polygon points="9070,3017 9560,3017 9560,2927 9070,2927" />
                        <polygon points="9560,3017 9942,3017 9942,2927 9560,2927" />
                        <polygon points="9560,2882 9942,2882 9942,2792 9560,2792" />
                        <g id="m-705c4e91-004a-4b04-9d2b-eb06d1c5d90d" class="note">
                           <g class="notehead">
                              <use xlink:href="#E0A4-n6jf8p" x="9070" y="2027" height="720px" width="720px" />
                           </g>
                           <g id="s1twnnsh" class="stem">
                              <path d="M9079 2055 L9079 3134" stroke="currentColor" stroke-width="18" />
                              <use xlink:href="#E222-n6jf8p" x="9079" y="2513" height="720px" width="720px" />
                           </g>
                           <g id="a1645qke" class="accid" />
                        </g>
                        <g id="m-dad98b91-522c-4434-ad54-d9c4d117e926" class="note">
                           <g class="notehead">
                              <use xlink:href="#E0A4-n6jf8p" x="9551" y="2027" height="720px" width="720px" />
                           </g>
                           <g id="s13f6qt8" class="stem">
                              <path d="M9560 2055 L9560 3134" stroke="currentColor" stroke-width="18" />
                              <use xlink:href="#E222-n6jf8p" x="9560" y="2513" height="720px" width="720px" />
                           </g>
                           <g id="aw5xdzy" class="accid" />
                        </g>
                        <g id="m-043d1fbb-d528-496f-99dc-9cf78538970f" class="note">
                           <g class="notehead">
                              <use xlink:href="#E0A4-n6jf8p" x="9924" y="2027" height="720px" width="720px" />
                           </g>
                           <g id="sc6cmit" class="stem">
                              <path d="M9933 2055 L9933 3134" stroke="currentColor" stroke-width="18" />
                           </g>
                           <g id="adieja8" class="accid" />
                        </g>
                     </g>
                     <g id="m-bfb6b04c-6264-4ae7-92d2-4490786dd4ca" class="rest">
                        <use xlink:href="#E4E6-n6jf8p" x="10240" y="2387" height="720px" width="720px" />
                     </g>
                  </g>
               </g>
               <g id="b14iyqbn" class="barLine">
                  <path d="M10732 1667 L10732 2387" stroke="currentColor" stroke-width="27" />
               </g>
            </g>
            <g id="m-fecc6820-bef4-4bc5-883f-788ac21e39d0" class="measure">
               <g id="m-31c10521-abb7-4c68-91b6-557861a00da9" class="staff">
                  <path d="M10745 1667 L12528 1667" stroke="currentColor" stroke-width="13" />
                  <path d="M10745 1847 L12528 1847" stroke="currentColor" stroke-width="13" />
                  <path d="M10745 2027 L12528 2027" stroke="currentColor" stroke-width="13" />
                  <path d="M10745 2207 L12528 2207" stroke="currentColor" stroke-width="13" />
                  <path d="M10745 2387 L12528 2387" stroke="currentColor" stroke-width="13" />
                  <g id="m-72b746dc-f551-476e-9e2a-d0b3c65b0599" class="layer">
                     <g id="m-28a3ad14-1b70-4173-a6a0-66d3ee64081f" class="rest">
                        <use xlink:href="#E4E3-n6jf8p" x="10925" y="1667" height="720px" width="720px" />
                        <g class="ledgerLines" />
                     </g>
                  </g>
                  <g id="m-293dd9d2-e8bb-4f7e-bcbd-75331d560064" class="layer">
                     <g id="m-49efb710-cf15-427a-80aa-804784ce0c2e" class="note">
                        <g class="notehead">
                           <use xlink:href="#E0A2-n6jf8p" x="10925" y="2477" height="720px" width="720px" />
                        </g>
                     </g>
                  </g>
               </g>
               <g id="b3wa9li" class="barLine">
                  <path d="M12515 1667 L12515 2387" stroke="currentColor" stroke-width="27" />
               </g>
            </g>
            <g id="s16194il" class="systemMilestoneEnd m-070ca438-987d-465e-8c28-79931cd74024" />
         </g>
         <g id="p11izztl" class="pageMilestoneEnd m-d3f1f623-a353-4b1c-b47f-0b09e2ade708" />
         <g id="pztiq2m" class="pageMilestoneEnd m-8fe2d162-33df-4f52-ac87-5dcccfa8f41b" />
         <g id="p1quuqzr" class="pgHead autogenerated">
            <text font-size="0px">
               <tspan id="r71oddc" class="rend" x="10000" y="418" text-anchor="middle">
                  <title class="labelAttr">title</title>
                  <tspan id="rb14c8d" class="rend">
                     <tspan id="t1chkqff" class="text">
                        <tspan font-size="607px">12_rock_95_beat_4-4</tspan>
                     </tspan>
                  </tspan>
                  <tspan id="lkc72yr" class="lb" />
                  <tspan id="rmrj3xb" class="rend">
                     <tspan id="tx7davz" class="text" x="10000" y="808">
                        <tspan font-size="324px">12_rock_95_beat_4-4</tspan>
                     </tspan>
                  </tspan>
               </tspan>
            </text>
         </g>
         <g id="p19nos2u" class="pgFoot autogenerated">
            <g id="fjx67i3" class="fig">
               <g class="svg" transform="translate(7750, 28099) scale(10.000000, 10.000000)">
                  <g>
                     <path fill="#00000" d="M 17.11278,49.26451 V 10.367554 h 12.696511 c 3.288815,7.336676 6.71267,14.610456 10.127281,21.888976 3.419998,-7.484684 6.255515,-14.204887 9.58887,-21.909915 2.436207,0.103726 4.316952,0.08453 6.484294,-0.05808 V 49.264423 H 50.274275 C 50.145222,38.35639 50.016136,27.448368 49.887066,16.540329 45.003488,27.315459 39.967448,38.433564 35.083854,49.208695 34.678996,49.343717 34.426583,49.135619 34.021726,49.270644 29.46588,39.330716 24.910049,29.390805 20.354201,19.450876 20.224341,29.388756 20.09461,39.326619 19.964815,49.264497 H 17.11278 Z M 36.754144,39.324695 C 32.721221,30.512695 28.6883,21.700679 24.655394,12.888662 22.530527,12.750737 22.656775,12.71031 20.714356,12.813974 v 0.966497 c 4.612938,9.99784 9.609439,20.748709 13.87298,30.081745 0.722248,-1.512523 1.444528,-3.025014 2.166808,-4.537521 z m 25.738417,9.939815 c 0,-12.965651 0,-25.931305 0,-38.896956 10.084388,0 20.168791,0 30.253178,0 0,0.960416 0,1.920849 0,2.881265 -6.482825,0 -12.965652,0 -19.448478,0 0,4.802097 0,9.604178 0,14.406277 5.52241,0 11.044819,0 16.567229,0 0,0.960415 0,1.920832 0,2.881248 -5.52241,0 -11.044819,0 -16.567229,0 0,5.282306 0,10.564611 0,15.846917 6.963035,0 13.926068,0 20.889103,0 0,0.960416 0,1.920832 0,2.881249 -10.564597,0 -21.129207,0 -31.693803,0 z m 4.321874,-2.160937 c 0,-11.765131 0,-23.530263 0,-35.295394 -0.720312,0 -1.440625,0 -2.160937,0 0,11.765131 0,23.530263 0,35.295394 0.720312,0 1.440625,0 2.160937,0 z m 32.41413,2.160937 c 0,-12.965651 0,-25.931305 0,-38.896956 2.401045,0 4.802095,0 7.203135,0 0,12.965651 0,25.931305 0,38.896956 -2.40104,0 -4.80209,0 -7.203135,0 z m 2.881265,-2.160937 c 0,-11.765131 0,-23.530263 0,-35.295394 -0.72031,0 -1.44064,0 -2.160953,0 0,11.765131 0,23.530263 0,35.295394 0.720313,0 1.440643,0 2.160953,0 z" />
                     <path fill="#00000" d="m 346.3,6.7 c -3.1,0.5 -4.9,4.4 -2.7,6.8 1.2,1.4 2.7,2.4 4.1,3.5 -2.4,5.3 -7.7,8.3 -11.9,12.1 -3.7,2.8 -7,6.2 -9.7,9.9 -2.2,-0.8 -0.3,-6.8 -0.6,-9.5 0.1,-3.1 0.7,-6.4 2.9,-8.7 1.3,-1.9 3,-3.5 4.5,-5.2 1.2,-3.4 -3.2,-4.9 -5.8,-4.6 -7.3,-0.5 -14.6,2 -20,6.8 -5,4.6 -10,10.1 -11.5,17 -0.9,3.5 -0.2,7.5 2.8,9.9 2.5,2.8 7.4,2.9 9.8,-0.2 1.7,-2.3 3.2,-4.8 3.8,-7.6 -0.1,-2.6 -4.4,-2.3 -4.3,0.2 1.2,2.4 -0.9,4.7 -2.7,6.2 -1.7,0.9 -4.7,0.7 -4.8,-1.7 -1,-5.8 2.1,-11.3 5.2,-16.1 4,-5.8 9.8,-11.2 17.2,-11.8 1.6,0 8.1,-1.2 6.8,1.4 -2.8,2.8 -5.6,6.1 -6,10.3 -1.6,7.7 0.1,15.7 -2.3,23.2 -1.1,3.9 2,2.6 2.5,0.2 3.3,-7.4 8.9,-13.4 15.1,-18.5 4.2,-3.9 9.5,-7.1 11.9,-12.6 1.3,-3.6 1.2,-9 -2.7,-10.9 -0.6,-0.2 -1.2,-0.3 -1.8,-0.3 z m 66,14.5 c -2,0.8 -1.8,4.9 0.8,4.4 3.4,0.4 2.9,-6.2 -0.8,-4.4 z m 0.6,7.3 c -1.3,0.5 -7.6,0.5 -5.4,2.2 4,-0.3 0.7,4.5 0.6,6.7 -0.4,2.9 -2.4,5.9 -1.2,8.8 2.7,1.7 5.6,-0.8 6.8,-3.2 1.6,-1.4 -0.5,-3 -1.2,-0.9 -0.4,0.8 -2.4,3.5 -2.6,1.8 1.1,-5 2.7,-9.9 3.9,-14.9 l -0.1,-0.5 h -0.9 z m -65.1,0.2 c -6.5,1.6 -10.5,9.5 -8.2,15.7 2.1,3.4 7.4,2.9 10.1,0.4 2,-0.2 3.6,-5.3 1,-3.4 -1.4,2 -4,4.2 -6.5,2.8 -2.2,-1.9 -1.9,-5.7 1.7,-5.3 3.1,-0.9 6.9,-2.1 8.1,-5.5 0.9,-2.7 -1.6,-5.2 -4.3,-4.8 h -1.1 -0.7 z m 13.6,0 c -2.2,0 -8.5,1.8 -2.9,2.3 0.9,1.9 -1,4.9 -1.1,7.2 -0.5,2.9 -1.4,5.7 -1.7,8.7 3.7,0.7 3.8,-2.6 4.4,-5.3 0.9,-3.3 1.6,-7 4.1,-9.5 2.4,1.6 6.8,-0.7 3.7,-3.4 -2.9,-0.5 -4.8,2.4 -6.2,4.3 0,-1.2 2.4,-5 -0.2,-4.3 z m 15.8,0 c -6.4,1.3 -9.6,9.1 -7.7,14.9 1.9,4 7.7,3.9 11,1.7 4.1,-3 6,-8.9 4.4,-13.7 -1.3,-3 -4.8,-3.2 -7.6,-3 z m 17,0 c -2.3,0 -8.8,1.9 -3,2.4 0.4,2.5 -1,5.7 -1.4,8.4 -0.7,2.4 -1.8,7.5 2.1,7.2 3.8,-0.1 6.5,-3.5 8.5,-6.3 2,-3.2 4.5,-7 3.3,-10.9 -3.7,-3 -3.6,2.6 -3.1,5.1 -0.7,3.8 -2.7,7.9 -6.2,9.8 -3.6,0.6 -1,-4.3 -0.8,-6.1 0.6,-3.2 1.6,-6.3 1.9,-9.5 -0.4,0 -0.8,0 -1.1,0 z m 30.6,0 c -6.3,1.2 -9.5,8.9 -7.8,14.7 1.5,4 7.2,4.2 10.5,2.4 4.6,-2.8 6.6,-9.3 4.8,-14.3 -1.4,-2.8 -4.8,-3 -7.5,-2.8 z m -75.4,1.7 c 2.1,1.5 0.2,4.7 -1.6,5.7 -1.1,0.4 -5.5,3.4 -4.6,0.7 0.8,-2.7 2.2,-6.2 5.3,-6.6 l 0.9,0.1 z m 30.8,0 c 2.6,1.5 1.3,5.2 0.8,7.6 -0.8,2.7 -1.9,5.9 -4.7,7.1 -5.1,0.8 -4,-5.8 -2.8,-8.8 1,-2.8 3,-6.8 6.7,-5.8 z m 47.1,-0.1 c 2.9,0.7 2,4.7 1.5,6.8 -0.7,3 -1.8,6.7 -5,8 -4.7,0.8 -4,-5.1 -3,-7.9 0.9,-3 2.7,-7.3 6.5,-6.8 z m -88.1,5.9 c -0.3,1.3 0.9,-0.6 0,0 z m -1.1,2.4 c -0.2,0.5 0.5,-0.1 0,0 z m -1.3,4.5 c -0.3,1.3 0.8,-0.2 0,0 z" />
                     <text y="41" x="201" fill="#00000" style="font-style:italic;font-weight:normal;font-size:30px;line-height:125%;font-family:Times;text-anchor:middle" xml:space="preserve">engraved with</text>
                  </g>
               </g>
            </g>
         </g>
      </g>
   </svg>
</svg>
