<?xml version="1.0" encoding="UTF-8" standalone="no"?>
<svg width="2100px" height="2970px" version="1.1" xmlns="http://www.w3.org/2000/svg" xmlns:xlink="http://www.w3.org/1999/xlink" xmlns:mei="http://www.music-encoding.org/ns/mei" overflow="visible">
   <desc>Engraved by Verovio 4.4.0-66ab39c</desc>
   <defs>
      <symbol id="E4E3-29ptcx" viewBox="0 0 1000 1000" overflow="inherit">
         <path transform="scale(1,-1)" d="M0 -115v105c0 9 1 10 10 10h280c9 0 10 -1 10 -10v-105c0 -9 -1 -10 -10 -10h-280c-9 0 -10 1 -10 10z" />
      </symbol>
      <symbol id="E0A9-29ptcx" viewBox="0 0 1000 1000" overflow="inherit">
         <path transform="scale(1,-1)" d="M0 -110c0 4 1 8 5 11l119 99l-119 100c-3 3 -5 8 -5 12c0 6 5 13 12 13c3 0 6 -1 8 -2l124 -105l126 105c2 1 5 2 7 2c6 0 13 -6 13 -14c0 -4 -2 -9 -5 -11l-119 -100l119 -99c3 -3 5 -7 5 -12c0 -6 -5 -14 -13 -14c-2 0 -5 1 -7 3l-126 105l-124 -105c-2 -2 -4 -3 -7 -3 c-8 0 -13 7 -13 15z" />
      </symbol>
      <symbol id="E069-29ptcx" viewBox="0 0 1000 1000" overflow="inherit">
         <path transform="scale(1,-1)" d="M200 250h125v-500h-125v500zM0 250h125v-500h-125v500z" />
      </symbol>
      <symbol id="E0A4-29ptcx" viewBox="0 0 1000 1000" overflow="inherit">
         <path transform="scale(1,-1)" d="M0 -39c0 68 73 172 200 172c66 0 114 -37 114 -95c0 -84 -106 -171 -218 -171c-64 0 -96 30 -96 94z" />
      </symbol>
      <symbol id="E4E5-29ptcx" viewBox="0 0 1000 1000" overflow="inherit">
         <path transform="scale(1,-1)" d="M107 292c-13 24 -30 49 -52 71c-1 1 0 2 0 3l-2 2c3 3 4 4 6 4c12 0 26 -7 40 -20s44 -40 89 -81c26 -24 28 -29 46 -47c4 -4 8 -9 10 -14c6 -8 8 -16 8 -27c0 -19 -12 -40 -36 -61c-28 -23 -49 -38 -61 -73c-4 -11 -7 -27 -10 -50c13 -43 34 -83 59 -121 c31 -47 59 -79 101 -129c-8 0 -26 7 -54 20l-62 29l-21 6l-23 1c-25 0 -45 -10 -60 -30l-4 -14l-1 -12c0 -33 20 -56 39 -78c8 -9 17 -18 26 -26c17 -15 27 -24 28 -30l-3 -3c-11 5 -19 10 -25 15c-9 3 -37 21 -45 26c-24 14 -45 32 -63 51c-19 21 -37 44 -37 71 c0 63 27 95 80 95c41 0 86 -18 136 -52c-19 26 -37 48 -55 66c-23 23 -48 44 -73 65c-28 23 -47 40 -58 53s-17 26 -18 39c75 64 113 125 113 183c0 27 -7 48 -18 68z" />
      </symbol>
      <symbol id="E084-29ptcx" viewBox="0 0 1000 1000" overflow="inherit">
         <path transform="scale(1,-1)" d="M20 -78c84 97 114 180 134 329h170c-13 -32 -82 -132 -99 -151l-84 -97c-33 -36 -59 -63 -80 -81h162v102l127 123v-225h57v-39h-57v-34c0 -43 19 -65 57 -65v-34h-244v36c48 0 60 26 60 70v27h-203v39z" />
      </symbol>
   </defs>
   <style type="text/css">g.page-margin{font-family:Times,serif;} g.ending, g.fing, g.reh, g.tempo{font-weight:bold;} g.dir, g.dynam, g.mNum{font-style:italic;} g.label{font-weight:normal;}</style>
   <svg class="definition-scale" color="black" viewBox="0 0 21000 29700">
      <g class="page-margin" transform="translate(500, 500)">
         <g id="m-1097e0f9-6ad8-43c8-80b1-f4ce6c56505f" class="mdiv pageMilestone" />
         <g id="m-1d47c891-591b-4437-abb0-60e63111c0eb" class="score pageMilestone" />
         <g id="sar88k" class="system">
            <g id="m-5c76b3de-182c-4015-a9e8-6157e584ea99" class="section systemMilestone" />
            <g id="m-5f4c6c12-05c9-426a-8628-9e66f9432516" class="measure">
               <g id="m-d5403dfd-dc61-445a-af4e-7a9d7035c260" class="staff">
                  <path d="M0 1595 L4035 1595" stroke="currentColor" stroke-width="13" />
                  <path d="M0 1775 L4035 1775" stroke="currentColor" stroke-width="13" />
                  <path d="M0 1955 L4035 1955" stroke="currentColor" stroke-width="13" />
                  <path d="M0 2135 L4035 2135" stroke="currentColor" stroke-width="13" />
                  <path d="M0 2315 L4035 2315" stroke="currentColor" stroke-width="13" />
                  <g id="c13ztpg7" class="clef">
                     <use xlink:href="#E069-29ptcx" x="90" y="1955" height="720px" width="720px" />
                  </g>
                  <g id="k1b1jfh0" class="keySig" />
                  <g id="mp1h3ak" class="meterSig">
                     <use xlink:href="#E084-29ptcx" x="490" y="1775" height="720px" width="720px" />
                     <use xlink:href="#E084-29ptcx" x="490" y="2135" height="720px" width="720px" />
                  </g>
                  <g class="ledgerLines below">
                     <path d="M1757 2495 L2061 2495" stroke="currentColor" stroke-width="22" />
                     <path d="M3235 2495 L3539 2495" stroke="currentColor" stroke-width="22" />
                  </g>
                  <g id="m-476049a2-101d-419a-b5a4-0ff34f85059c" class="layer">
                     <g id="m-c9ac9105-1d95-495a-9974-9f3a93d09294" class="rest">
                        <use xlink:href="#E4E3-29ptcx" x="1065" y="1775" height="720px" width="720px" />
                        <g class="ledgerLines" />
                     </g>
                  </g>
                  <g id="m-a176d98e-bc5b-41c5-af30-d4571cb5e7ba" class="layer">
                     <g id="m-8c7426a9-97a9-48b3-8c0c-76b7c8a87561" class="rest">
                        <use xlink:href="#E4E5-29ptcx" x="1065" y="2675" height="720px" width="720px" />
                     </g>
                     <g id="m-9cf35067-0660-4541-93a8-1ca1b4993fda" class="note">
                        <g class="notehead">
                           <use xlink:href="#E0A9-29ptcx" x="1805" y="2585" height="720px" width="720px" />
                        </g>
                        <g id="s1rdxnpq" class="stem">
                           <path d="M1814 2664 L1814 3035" stroke="currentColor" stroke-width="18" />
                        </g>
                        <g id="avpyy5e" class="accid" />
                     </g>
                     <g id="m-0f791f97-4f9d-48dd-b178-f3bd60075b00" class="rest">
                        <use xlink:href="#E4E5-29ptcx" x="2544" y="2675" height="720px" width="720px" />
                     </g>
                     <g id="m-ff7abae2-7222-40cd-936b-9fd3721a20c6" class="note">
                        <g class="notehead">
                           <use xlink:href="#E0A9-29ptcx" x="3283" y="2585" height="720px" width="720px" />
                        </g>
                        <g id="s1tm9h23" class="stem">
                           <path d="M3292 2664 L3292 3035" stroke="currentColor" stroke-width="18" />
                        </g>
                        <g id="a1l6vqvg" class="accid" />
                     </g>
                  </g>
               </g>
               <g id="bl52jqy" class="barLine">
                  <path d="M4022 1595 L4022 2315" stroke="currentColor" stroke-width="27" />
               </g>
            </g>
            <g id="m-0b86bafc-fea5-453f-98d6-1f2e2acc6d4e" class="measure">
               <g id="m-723927c8-d679-474c-a6d5-1087b820c860" class="staff">
                  <path d="M4035 1595 L7873 1595" stroke="currentColor" stroke-width="13" />
                  <path d="M4035 1775 L7873 1775" stroke="currentColor" stroke-width="13" />
                  <path d="M4035 1955 L7873 1955" stroke="currentColor" stroke-width="13" />
                  <path d="M4035 2135 L7873 2135" stroke="currentColor" stroke-width="13" />
                  <path d="M4035 2315 L7873 2315" stroke="currentColor" stroke-width="13" />
                  <g class="ledgerLines below">
                     <path d="M5145 2495 L5449 2495" stroke="currentColor" stroke-width="22" />
                     <path d="M7073 2495 L7377 2495" stroke="currentColor" stroke-width="22" />
                  </g>
                  <g id="m-523d92e0-3fd1-4c50-8a2b-cbc602df4c49" class="layer">
                     <g id="m-a344f9ab-f8fe-440b-a1f1-4683f490b764" class="rest">
                        <use xlink:href="#E4E3-29ptcx" x="4228" y="1595" height="720px" width="720px" />
                        <g class="ledgerLines" />
                     </g>
                  </g>
                  <g id="m-ef450f7c-e85f-4fa6-a5bc-d527bf9086bf" class="layer">
                     <g id="m-4ae862d3-4adc-453c-909e-0e086963bc51" class="beam">
                        <polygon points="4228,2720 4728,2720 4728,2630 4228,2630" />
                        <g id="m-b95b5e30-1fc9-4f02-9f5e-676277280eaa" class="note">
                           <g class="notehead">
                              <use xlink:href="#E0A4-29ptcx" x="4228" y="2225" height="720px" width="720px" />
                           </g>
                           <g id="sg6mi" class="stem">
                              <path d="M4237 2253 L4237 2702" stroke="currentColor" stroke-width="18" />
                           </g>
                        </g>
                        <g id="m-36065a23-7f61-47a6-ac0f-71c641119698" class="note">
                           <g class="notehead">
                              <use xlink:href="#E0A4-29ptcx" x="4710" y="2225" height="720px" width="720px" />
                           </g>
                           <g id="s1su3tcy" class="stem">
                              <path d="M4719 2253 L4719 2702" stroke="currentColor" stroke-width="18" />
                           </g>
                        </g>
                     </g>
                     <g id="m-b436e5cd-aa0d-4984-bc5b-b7a8f06919ae" class="beam">
                        <polygon points="5193,3080 5693,3035 5693,2945 5193,2990" />
                        <g id="m-8dee90c1-b1b5-4d33-b169-3575a7f88a38" class="chord">
                           <g id="s1hi5g4d" class="stem">
                              <path d="M5202 1983 L5202 3062" stroke="currentColor" stroke-width="18" />
                           </g>
                           <g id="m-13d1b704-7e73-4d7d-a6ee-d77cba9afe7a" class="note">
                              <g class="notehead">
                                 <use xlink:href="#E0A9-29ptcx" x="5193" y="2585" height="720px" width="720px" />
                              </g>
                              <g id="ae7h0dh" class="accid" />
                           </g>
                           <g id="m-bb4da8c1-a9bb-4b67-a3ee-070004275fa7" class="note">
                              <g class="notehead">
                                 <use xlink:href="#E0A4-29ptcx" x="5193" y="1955" height="720px" width="720px" />
                              </g>
                              <g id="af7ffyw" class="accid" />
                           </g>
                        </g>
                        <g id="m-e20a7214-e171-4a16-97c3-9c5537ae3b6f" class="chord">
                           <g id="scawlw8" class="stem">
                              <path d="M5684 2253 L5684 3017" stroke="currentColor" stroke-width="18" />
                           </g>
                           <g id="m-ceb02e32-fc2e-48da-9fa9-6430689fb0a5" class="note">
                              <g class="notehead">
                                 <use xlink:href="#E0A4-29ptcx" x="5675" y="2225" height="720px" width="720px" />
                              </g>
                           </g>
                           <g id="m-134d703d-4c5e-42f3-93dd-c8d695778836" class="note">
                              <g class="notehead">
                                 <use xlink:href="#E0A4-29ptcx" x="5675" y="2405" height="720px" width="720px" />
                              </g>
                           </g>
                        </g>
                     </g>
                     <g id="m-ea6da1e5-12ac-424b-b079-2373a75c3d78" class="beam">
                        <polygon points="6157,2675 6657,2720 6657,2630 6157,2585" />
                        <g id="m-1db8f26f-b859-4670-be72-9440dabde8ee" class="note">
                           <g class="notehead">
                              <use xlink:href="#E0A4-29ptcx" x="6157" y="1775" height="720px" width="720px" />
                           </g>
                           <g id="s13aiwnj" class="stem">
                              <path d="M6166 1803 L6166 2657" stroke="currentColor" stroke-width="18" />
                           </g>
                        </g>
                        <g id="m-19975a5c-21d7-429e-a3bb-5765ffbe07e8" class="note">
                           <g class="notehead">
                              <use xlink:href="#E0A4-29ptcx" x="6639" y="2225" height="720px" width="720px" />
                           </g>
                           <g id="s17072uh" class="stem">
                              <path d="M6648 2253 L6648 2702" stroke="currentColor" stroke-width="18" />
                           </g>
                        </g>
                     </g>
                     <g id="m-eda2566a-ed3a-4f94-b111-32134be5e356" class="chord">
                        <g id="s1hsgcpn" class="stem">
                           <path d="M7130 1983 L7130 3035" stroke="currentColor" stroke-width="18" />
                        </g>
                        <g id="m-de2e8d69-2a2e-4bcd-81af-a86fb1d279d2" class="note">
                           <g class="notehead">
                              <use xlink:href="#E0A9-29ptcx" x="7121" y="2585" height="720px" width="720px" />
                           </g>
                           <g id="a1q2pyx4" class="accid" />
                        </g>
                        <g id="m-ad43efa4-46d0-4086-a711-943400f01d6a" class="note">
                           <g class="notehead">
                              <use xlink:href="#E0A4-29ptcx" x="7121" y="1955" height="720px" width="720px" />
                           </g>
                           <g id="a3vqahh" class="accid" />
                        </g>
                        <g id="m-53620a4a-5048-4b1e-8df5-beaf2b389baf" class="note">
                           <g class="notehead">
                              <use xlink:href="#E0A4-29ptcx" x="7121" y="2225" height="720px" width="720px" />
                           </g>
                        </g>
                     </g>
                  </g>
               </g>
               <g id="bfzau6h" class="barLine">
                  <path d="M7860 1595 L7860 2315" stroke="currentColor" stroke-width="27" />
               </g>
            </g>
            <g id="m-2e5cfc04-931a-46f1-a3a4-f9497655b6ae" class="measure">
               <g id="m-2b5adcad-f647-49b7-9b89-58f8da9ddc2a" class="staff">
                  <path d="M7873 1595 L11711 1595" stroke="currentColor" stroke-width="13" />
                  <path d="M7873 1775 L11711 1775" stroke="currentColor" stroke-width="13" />
                  <path d="M7873 1955 L11711 1955" stroke="currentColor" stroke-width="13" />
                  <path d="M7873 2135 L11711 2135" stroke="currentColor" stroke-width="13" />
                  <path d="M7873 2315 L11711 2315" stroke="currentColor" stroke-width="13" />
                  <g class="ledgerLines below">
                     <path d="M8758 2495 L9062 2495" stroke="currentColor" stroke-width="22" />
                     <path d="M10686 2495 L10990 2495" stroke="currentColor" stroke-width="22" />
                  </g>
                  <g id="m-672771ed-27b5-4a75-ad9e-f51d17ccb8ea" class="layer">
                     <g id="m-77781ca0-d2a0-40d2-924b-85bb3ec333ca" class="rest">
                        <use xlink:href="#E4E3-29ptcx" x="8066" y="1595" height="720px" width="720px" />
                        <g class="ledgerLines" />
                     </g>
                  </g>
                  <g id="m-ab9555dc-8095-48a4-a589-7173de5be1dc" class="layer">
                     <g id="m-bf6316cb-12af-422c-b963-ce5e90443084" class="chord">
                        <g id="s1ijph0n" class="stem">
                           <path d="M8075 2253 L8075 2855" stroke="currentColor" stroke-width="18" />
                        </g>
                        <g id="m-38c051a5-89d0-4fd8-baa3-7be9febb3660" class="note">
                           <g class="notehead">
                              <use xlink:href="#E0A4-29ptcx" x="8066" y="2405" height="720px" width="720px" />
                           </g>
                        </g>
                        <g id="m-27a09253-b987-4d8c-851f-7b8c7b90ff41" class="note">
                           <g class="notehead">
                              <use xlink:href="#E0A4-29ptcx" x="8066" y="2225" height="720px" width="720px" />
                           </g>
                        </g>
                     </g>
                     <g id="m-b47b4c06-25f2-4cc0-a080-3248017e26a7" class="beam">
                        <polygon points="8806,3080 9306,3035 9306,2945 8806,2990" />
                        <g id="m-6cafb7b5-2b1a-4ecf-a1fe-39920efd044e" class="chord">
                           <g id="sf0h4gx" class="stem">
                              <path d="M8815 1983 L8815 3062" stroke="currentColor" stroke-width="18" />
                           </g>
                           <g id="m-0aa5d3dd-317f-41da-b9a2-21173e3e2571" class="note">
                              <g class="notehead">
                                 <use xlink:href="#E0A9-29ptcx" x="8806" y="2585" height="720px" width="720px" />
                              </g>
                              <g id="ai4jb55" class="accid" />
                           </g>
                           <g id="m-cf8e365c-9202-4082-abc2-c361f9f1c23e" class="note">
                              <g class="notehead">
                                 <use xlink:href="#E0A4-29ptcx" x="8806" y="2225" height="720px" width="720px" />
                              </g>
                           </g>
                           <g id="m-6d5bfe85-0808-42cd-8ee3-5adc9dff387f" class="note">
                              <g class="notehead">
                                 <use xlink:href="#E0A4-29ptcx" x="8806" y="1955" height="720px" width="720px" />
                              </g>
                              <g id="av63yh1" class="accid" />
                           </g>
                        </g>
                        <g id="m-a07924f4-6af1-4048-ae52-b46ee39dad9b" class="chord">
                           <g id="s1wxfeoh" class="stem">
                              <path d="M9297 1983 L9297 3017" stroke="currentColor" stroke-width="18" />
                           </g>
                           <g id="m-b3936fe0-5f7b-4bf1-a9cd-060fb560ef8b" class="note">
                              <g class="notehead">
                                 <use xlink:href="#E0A4-29ptcx" x="9288" y="1955" height="720px" width="720px" />
                              </g>
                              <g id="a1v73c62" class="accid" />
                           </g>
                           <g id="m-ba428025-59fb-4398-a839-c726dae4736d" class="note">
                              <g class="notehead">
                                 <use xlink:href="#E0A4-29ptcx" x="9288" y="2405" height="720px" width="720px" />
                              </g>
                           </g>
                        </g>
                     </g>
                     <g id="m-f38a031f-762a-49cb-bcbf-5e0d86ec8044" class="beam">
                        <polygon points="9770,2720 10270,2675 10270,2585 9770,2630" />
                        <g id="m-b0d74efd-e567-474c-934e-b40f462041bf" class="note">
                           <g class="notehead">
                              <use xlink:href="#E0A4-29ptcx" x="9770" y="2225" height="720px" width="720px" />
                           </g>
                           <g id="sy6u5r0" class="stem">
                              <path d="M9779 2253 L9779 2702" stroke="currentColor" stroke-width="18" />
                           </g>
                        </g>
                        <g id="m-bb37e3fb-0746-4a73-9a2c-9ebac8f39eca" class="note">
                           <g class="notehead">
                              <use xlink:href="#E0A4-29ptcx" x="10252" y="1775" height="720px" width="720px" />
                           </g>
                           <g id="s1x2cors" class="stem">
                              <path d="M10261 1803 L10261 2657" stroke="currentColor" stroke-width="18" />
                           </g>
                        </g>
                     </g>
                     <g id="m-be1429a3-aec2-4a11-82dd-ecc6030a96f8" class="beam">
                        <polygon points="10734,3080 11234,3035 11234,2945 10734,2990" />
                        <g id="m-23ed3cdb-9c6c-4b07-a93b-75377d25d579" class="chord">
                           <g id="s1u9xopk" class="stem">
                              <path d="M10743 1983 L10743 3062" stroke="currentColor" stroke-width="18" />
                           </g>
                           <g id="m-c2c7ae20-5a0e-4da8-b512-bab379ad03b2" class="note">
                              <g class="notehead">
                                 <use xlink:href="#E0A9-29ptcx" x="10734" y="2585" height="720px" width="720px" />
                              </g>
                              <g id="a1dlp7ou" class="accid" />
                           </g>
                           <g id="m-f4861ce2-f562-450f-8051-eb4e47c721e1" class="note">
                              <g class="notehead">
                                 <use xlink:href="#E0A4-29ptcx" x="10734" y="1955" height="720px" width="720px" />
                              </g>
                              <g id="a1qqs8ti" class="accid" />
                           </g>
                           <g id="m-00374bfa-2acf-4791-803f-58db129ba81a" class="note">
                              <g class="notehead">
                                 <use xlink:href="#E0A4-29ptcx" x="10734" y="2225" height="720px" width="720px" />
                              </g>
                           </g>
                        </g>
                        <g id="m-f45aee2e-b1de-43db-9d8e-c71d71aad4aa" class="note">
                           <g class="notehead">
                              <use xlink:href="#E0A4-29ptcx" x="11216" y="2405" height="720px" width="720px" />
                           </g>
                           <g id="ssj36y5" class="stem">
                              <path d="M11225 2433 L11225 3017" stroke="currentColor" stroke-width="18" />
                           </g>
                        </g>
                     </g>
                  </g>
               </g>
               <g id="b7fleaj" class="barLine">
                  <path d="M11698 1595 L11698 2315" stroke="currentColor" stroke-width="27" />
               </g>
            </g>
            <g id="m-ce39d40f-9900-4ed8-8a4d-11291daece69" class="measure">
               <g id="m-18471fc7-b6fb-4a51-93ab-18f5d1dccc6d" class="staff">
                  <path d="M11711 1595 L15549 1595" stroke="currentColor" stroke-width="13" />
                  <path d="M11711 1775 L15549 1775" stroke="currentColor" stroke-width="13" />
                  <path d="M11711 1955 L15549 1955" stroke="currentColor" stroke-width="13" />
                  <path d="M11711 2135 L15549 2135" stroke="currentColor" stroke-width="13" />
                  <path d="M11711 2315 L15549 2315" stroke="currentColor" stroke-width="13" />
                  <g class="ledgerLines below">
                     <path d="M12596 2495 L12900 2495" stroke="currentColor" stroke-width="22" />
                     <path d="M14524 2495 L14828 2495" stroke="currentColor" stroke-width="22" />
                  </g>
                  <g id="m-deaa2919-d72d-4298-af38-86ea79dd2a32" class="layer">
                     <g id="m-c24fdd92-1709-4215-90a4-c4bc037d6d0a" class="rest">
                        <use xlink:href="#E4E3-29ptcx" x="11904" y="1595" height="720px" width="720px" />
                        <g class="ledgerLines" />
                     </g>
                  </g>
                  <g id="m-a98db807-6923-4cff-a56f-8f1739aabdfb" class="layer">
                     <g id="m-ce388449-373f-41a2-8b06-65b14768a266" class="chord">
                        <g id="szbgmuh" class="stem">
                           <path d="M11913 2253 L11913 2855" stroke="currentColor" stroke-width="18" />
                        </g>
                        <g id="m-762c82f9-ad2b-4e24-a501-e58837534919" class="note">
                           <g class="notehead">
                              <use xlink:href="#E0A4-29ptcx" x="11904" y="2405" height="720px" width="720px" />
                           </g>
                        </g>
                        <g id="m-ff474dd7-5046-4da3-ad59-ae9352aca43a" class="note">
                           <g class="notehead">
                              <use xlink:href="#E0A4-29ptcx" x="11904" y="2225" height="720px" width="720px" />
                           </g>
                        </g>
                     </g>
                     <g id="m-6041211b-1fca-4e5c-8071-30ce15c0cb7b" class="beam">
                        <polygon points="12644,3080 13144,3035 13144,2945 12644,2990" />
                        <g id="m-9def7e39-8fd7-455e-8ffd-949c5a4d3c8d" class="chord">
                           <g id="s1he9eba" class="stem">
                              <path d="M12653 1983 L12653 3062" stroke="currentColor" stroke-width="18" />
                           </g>
                           <g id="m-7b54d7ba-ba4f-4f8c-8584-39e23eba983c" class="note">
                              <g class="notehead">
                                 <use xlink:href="#E0A9-29ptcx" x="12644" y="2585" height="720px" width="720px" />
                              </g>
                              <g id="aepg9mh" class="accid" />
                           </g>
                           <g id="m-01e469c4-f2a0-4939-9dec-82a2f5559274" class="note">
                              <g class="notehead">
                                 <use xlink:href="#E0A4-29ptcx" x="12644" y="2225" height="720px" width="720px" />
                              </g>
                           </g>
                           <g id="m-b1237673-f1cd-4870-b2cd-98530e2c13b6" class="note">
                              <g class="notehead">
                                 <use xlink:href="#E0A4-29ptcx" x="12644" y="1955" height="720px" width="720px" />
                              </g>
                              <g id="a83m814" class="accid" />
                           </g>
                        </g>
                        <g id="m-2c7f087d-b8c9-44a1-bb9f-4e2b86755f2e" class="note">
                           <g class="notehead">
                              <use xlink:href="#E0A4-29ptcx" x="13126" y="2405" height="720px" width="720px" />
                           </g>
                           <g id="s1cqzz7l" class="stem">
                              <path d="M13135 2433 L13135 3017" stroke="currentColor" stroke-width="18" />
                           </g>
                        </g>
                     </g>
                     <g id="m-0299a4b3-4138-4f5f-b217-2e95eff1b0e4" class="beam">
                        <polygon points="13608,2720 14108,2675 14108,2585 13608,2630" />
                        <g id="m-1b3f8686-02b9-4a7b-bd60-a61f27c6acda" class="note">
                           <g class="notehead">
                              <use xlink:href="#E0A4-29ptcx" x="13608" y="2225" height="720px" width="720px" />
                           </g>
                           <g id="s1bhg9tj" class="stem">
                              <path d="M13617 2253 L13617 2702" stroke="currentColor" stroke-width="18" />
                           </g>
                        </g>
                        <g id="m-808ee44e-f97c-4898-baf8-26666cc75549" class="note">
                           <g class="notehead">
                              <use xlink:href="#E0A4-29ptcx" x="14090" y="1775" height="720px" width="720px" />
                           </g>
                           <g id="s1xd9n6s" class="stem">
                              <path d="M14099 1803 L14099 2657" stroke="currentColor" stroke-width="18" />
                           </g>
                        </g>
                     </g>
                     <g id="m-6ba1fdb3-0699-49b8-b75c-f8e0af708d6a" class="beam">
                        <polygon points="14572,3080 15072,3035 15072,2945 14572,2990" />
                        <g id="m-0575a167-4efb-4df9-be95-e5a5316df890" class="chord">
                           <g id="s158gmvw" class="stem">
                              <path d="M14581 1983 L14581 3062" stroke="currentColor" stroke-width="18" />
                           </g>
                           <g id="m-45fea557-db7f-4c21-bd21-d2449fe56a82" class="note">
                              <g class="notehead">
                                 <use xlink:href="#E0A9-29ptcx" x="14572" y="2585" height="720px" width="720px" />
                              </g>
                              <g id="a1xmi9jx" class="accid" />
                           </g>
                           <g id="m-2d71a87d-cee1-4c03-bb29-00d287161ba8" class="note">
                              <g class="notehead">
                                 <use xlink:href="#E0A4-29ptcx" x="14572" y="1955" height="720px" width="720px" />
                              </g>
                              <g id="azfim33" class="accid" />
                           </g>
                           <g id="m-c61f7765-be35-4b84-aa41-59a763595c2c" class="note">
                              <g class="notehead">
                                 <use xlink:href="#E0A4-29ptcx" x="14572" y="2225" height="720px" width="720px" />
                              </g>
                           </g>
                        </g>
                        <g id="m-05c17e20-f80e-42f9-8a53-f8b582673fcf" class="note">
                           <g class="notehead">
                              <use xlink:href="#E0A4-29ptcx" x="15054" y="2405" height="720px" width="720px" />
                           </g>
                           <g id="s1e8txik" class="stem">
                              <path d="M15063 2433 L15063 3017" stroke="currentColor" stroke-width="18" />
                           </g>
                        </g>
                     </g>
                  </g>
               </g>
               <g id="buwuxub" class="barLine">
                  <path d="M15536 1595 L15536 2315" stroke="currentColor" stroke-width="27" />
               </g>
            </g>
            <g id="m-b5089e50-4be8-42f8-8d1a-dee2c42d1c4c" class="measure">
               <g id="m-c061855f-3d0e-4a86-acbf-f9320676df0a" class="staff">
                  <path d="M15549 1595 L20002 1595" stroke="currentColor" stroke-width="13" />
                  <path d="M15549 1775 L20002 1775" stroke="currentColor" stroke-width="13" />
                  <path d="M15549 1955 L20002 1955" stroke="currentColor" stroke-width="13" />
                  <path d="M15549 2135 L20002 2135" stroke="currentColor" stroke-width="13" />
                  <path d="M15549 2315 L20002 2315" stroke="currentColor" stroke-width="13" />
                  <g class="ledgerLines below">
                     <path d="M18782 2495 L19086 2495" stroke="currentColor" stroke-width="22" />
                  </g>
                  <g id="m-5aefb102-77d9-4f12-87dc-78d4e17e67f7" class="layer">
                     <g id="m-e14f8588-30a9-475d-8ee2-bbf86453a561" class="rest">
                        <use xlink:href="#E4E3-29ptcx" x="15742" y="1775" height="720px" width="720px" />
                        <g class="ledgerLines" />
                     </g>
                  </g>
                  <g id="m-241b8c26-6091-41a1-8693-f0c1246f8db9" class="layer">
                     <g id="m-d903ae6e-8a54-4207-bf80-3ca617a274a2" class="beam">
                        <polygon points="15742,2855 16242,2855 16242,2765 15742,2765" />
                        <g id="m-c3eec258-71be-4ec8-a954-a218c140ba2b" class="chord">
                           <g id="s17j8qtn" class="stem">
                              <path d="M15751 2253 L15751 2837" stroke="currentColor" stroke-width="18" />
                           </g>
                           <g id="m-62cc8b04-c00c-4424-b9b5-2547ce206763" class="note">
                              <g class="notehead">
                                 <use xlink:href="#E0A4-29ptcx" x="15742" y="2225" height="720px" width="720px" />
                              </g>
                           </g>
                           <g id="m-a6ef096c-af65-4cfb-80d3-59fb1ec8655c" class="note">
                              <g class="notehead">
                                 <use xlink:href="#E0A4-29ptcx" x="15742" y="2405" height="720px" width="720px" />
                              </g>
                           </g>
                        </g>
                        <g id="m-23cb4b98-937d-4b4d-9633-47747b39f65b" class="note">
                           <g class="notehead">
                              <use xlink:href="#E0A4-29ptcx" x="16224" y="2405" height="720px" width="720px" />
                           </g>
                           <g id="syv5d98" class="stem">
                              <path d="M16233 2433 L16233 2837" stroke="currentColor" stroke-width="18" />
                           </g>
                        </g>
                     </g>
                     <g id="m-c7090de2-0320-4a90-b2fc-9f0e22db0a54" class="beam">
                        <polygon points="16707,2855 17207,2900 17207,2810 16707,2765" />
                        <g id="m-646f3f21-f67b-4c8c-8b1a-d3899b2bbcf8" class="chord">
                           <g id="s5z15f9" class="stem">
                              <path d="M16716 1983 L16716 2837" stroke="currentColor" stroke-width="18" />
                           </g>
                           <g id="m-4ae17a83-835c-4576-89c1-ababbadd9474" class="note">
                              <g class="notehead">
                                 <use xlink:href="#E0A4-29ptcx" x="16707" y="1955" height="720px" width="720px" />
                              </g>
                              <g id="ax22i0g" class="accid" />
                           </g>
                           <g id="m-224cfdc7-7360-498c-b822-15c7c234c516" class="note">
                              <g class="notehead">
                                 <use xlink:href="#E0A4-29ptcx" x="16707" y="2225" height="720px" width="720px" />
                              </g>
                           </g>
                        </g>
                        <g id="m-e6aab78a-dcca-40be-adcb-b917287b9faf" class="chord">
                           <g id="sbed7dd" class="stem">
                              <path d="M17198 1983 L17198 2882" stroke="currentColor" stroke-width="18" />
                           </g>
                           <g id="m-601c0b6a-2181-4897-99f4-31019890822f" class="note">
                              <g class="notehead">
                                 <use xlink:href="#E0A4-29ptcx" x="17189" y="2405" height="720px" width="720px" />
                              </g>
                           </g>
                           <g id="m-a6c5664d-7d53-47da-b6a7-aa906e25b053" class="note">
                              <g class="notehead">
                                 <use xlink:href="#E0A4-29ptcx" x="17189" y="2225" height="720px" width="720px" />
                              </g>
                           </g>
                           <g id="m-eb635b57-5366-4cfd-be3f-fc147592c8dd" class="note">
                              <g class="notehead">
                                 <use xlink:href="#E0A4-29ptcx" x="17189" y="1955" height="720px" width="720px" />
                              </g>
                              <g id="az7vs74" class="accid" />
                           </g>
                        </g>
                     </g>
                     <g id="m-2279afa8-d3e1-4fe0-a25b-54b407051ca0" class="beam">
                        <polygon points="17671,2990 18509,2990 18509,2900 17671,2900" />
                        <polygon points="18162,2855 18509,2855 18509,2765 18162,2765" />
                        <g id="m-930324fa-c81f-4add-9dea-5cf276c6df7e" class="chord">
                           <g id="s1dgqpi5" class="stem">
                              <path d="M17680 1983 L17680 2972" stroke="currentColor" stroke-width="18" />
                           </g>
                           <g id="m-5a816f20-9505-4783-8912-7488af784f05" class="note">
                              <g class="notehead">
                                 <use xlink:href="#E0A4-29ptcx" x="17671" y="2225" height="720px" width="720px" />
                              </g>
                           </g>
                           <g id="m-aaaa3cc5-8dad-4e9d-96b0-c7e95bf8e3ee" class="note">
                              <g class="notehead">
                                 <use xlink:href="#E0A4-29ptcx" x="17671" y="1955" height="720px" width="720px" />
                              </g>
                              <g id="a1pnnail" class="accid" />
                           </g>
                           <g id="m-9c5b6d42-c906-4350-aa4d-7da26bc070ab" class="note">
                              <g class="notehead">
                                 <use xlink:href="#E0A4-29ptcx" x="17671" y="2405" height="720px" width="720px" />
                              </g>
                           </g>
                        </g>
                        <g id="m-d90608eb-5d3c-4f35-9b0a-03b07d40f46d" class="chord">
                           <g id="s1src9y6" class="stem">
                              <path d="M18162 2253 L18162 2972" stroke="currentColor" stroke-width="18" />
                           </g>
                           <g id="m-a530bc36-77d6-4534-9ba4-08cfa16ed521" class="note">
                              <g class="notehead">
                                 <use xlink:href="#E0A4-29ptcx" x="18153" y="2405" height="720px" width="720px" />
                              </g>
                           </g>
                           <g id="m-ef60cbf6-6243-4661-bcc0-f91c1c75da9f" class="note">
                              <g class="notehead">
                                 <use xlink:href="#E0A4-29ptcx" x="18153" y="2225" height="720px" width="720px" />
                              </g>
                           </g>
                        </g>
                        <g id="m-5d86a3b5-add0-4141-a076-568539925f15" class="note">
                           <g class="notehead">
                              <use xlink:href="#E0A4-29ptcx" x="18491" y="1955" height="720px" width="720px" />
                           </g>
                           <g id="svrisc7" class="stem">
                              <path d="M18500 1983 L18500 2972" stroke="currentColor" stroke-width="18" />
                           </g>
                           <g id="a3ctt0t" class="accid" />
                        </g>
                     </g>
                     <g id="m-1161e81b-d7ec-466c-9a1b-3a2d6fb43772" class="beam">
                        <polygon points="18830,3215 19525,3035 19525,2945 18830,3125" />
                        <polygon points="18830,3080 19177,2991 19177,2901 18830,2990" />
                        <g id="m-42974cbe-54d9-4915-a295-966769ba1f58" class="chord">
                           <g id="s14a1slc" class="stem">
                              <path d="M18839 1983 L18839 3197" stroke="currentColor" stroke-width="18" />
                           </g>
                           <g id="m-7282b081-495a-45d8-bf67-dd0069018cad" class="note">
                              <g class="notehead">
                                 <use xlink:href="#E0A9-29ptcx" x="18830" y="2585" height="720px" width="720px" />
                              </g>
                              <g id="a1wsryxf" class="accid" />
                           </g>
                           <g id="m-0b2ab339-082a-4a41-ad3a-1371dac064e6" class="note">
                              <g class="notehead">
                                 <use xlink:href="#E0A4-29ptcx" x="18830" y="1955" height="720px" width="720px" />
                              </g>
                              <g id="a1g0v7r1" class="accid" />
                           </g>
                        </g>
                        <g id="m-51198d27-2588-41a8-b75e-521a23ba7cce" class="note">
                           <g class="notehead">
                              <use xlink:href="#E0A4-29ptcx" x="19168" y="1955" height="720px" width="720px" />
                           </g>
                           <g id="sc26pcz" class="stem">
                              <path d="M19177 1983 L19177 3108" stroke="currentColor" stroke-width="18" />
                           </g>
                           <g id="asziamn" class="accid" />
                        </g>
                        <g id="m-d4ddd756-68e6-402e-b57b-6750fe29d483" class="note">
                           <g class="notehead">
                              <use xlink:href="#E0A4-29ptcx" x="19507" y="1955" height="720px" width="720px" />
                           </g>
                           <g id="s1sc155" class="stem">
                              <path d="M19516 1983 L19516 3017" stroke="currentColor" stroke-width="18" />
                           </g>
                           <g id="a1lwzdni" class="accid" />
                        </g>
                     </g>
                  </g>
               </g>
               <g id="b139n2kb" class="barLine">
                  <path d="M19989 1595 L19989 2315" stroke="currentColor" stroke-width="27" />
               </g>
            </g>
            <g id="s1fbckvh" class="systemMilestoneEnd m-5c76b3de-182c-4015-a9e8-6157e584ea99" />
         </g>
         <g id="p1fzq5pf" class="pageMilestoneEnd m-1d47c891-591b-4437-abb0-60e63111c0eb" />
         <g id="p17yprzm" class="pageMilestoneEnd m-1097e0f9-6ad8-43c8-80b1-f4ce6c56505f" />
         <g id="p13upxw8" class="pgHead autogenerated">
            <text font-size="0px">
               <tspan id="r18nza9i" class="rend" x="10000" y="415" text-anchor="middle">
                  <title class="labelAttr">title</title>
                  <tspan id="ruezw4h" class="rend">
                     <tspan id="t7jzhff" class="text">
                        <tspan font-size="607px">2_rock_120_beat_4-4</tspan>
                     </tspan>
                  </tspan>
                  <tspan id="l8cnxtr" class="lb" />
                  <tspan id="r1ymcb44" class="rend">
                     <tspan id="tza201y" class="text" x="10000" y="805">
                        <tspan font-size="324px">2_rock_120_beat_4-4</tspan>
                     </tspan>
                  </tspan>
               </tspan>
            </text>
         </g>
         <g id="p1yr31ej" class="pgFoot autogenerated">
            <g id="fxuilfj" class="fig">
               <g class="svg" transform="translate(7750, 28099) scale(10.000000, 10.000000)">
                  <g>
                     <path fill="#00000" d="M 17.11278,49.26451 V 10.367554 h 12.696511 c 3.288815,7.336676 6.71267,14.610456 10.127281,21.888976 3.419998,-7.484684 6.255515,-14.204887 9.58887,-21.909915 2.436207,0.103726 4.316952,0.08453 6.484294,-0.05808 V 49.264423 H 50.274275 C 50.145222,38.35639 50.016136,27.448368 49.887066,16.540329 45.003488,27.315459 39.967448,38.433564 35.083854,49.208695 34.678996,49.343717 34.426583,49.135619 34.021726,49.270644 29.46588,39.330716 24.910049,29.390805 20.354201,19.450876 20.224341,29.388756 20.09461,39.326619 19.964815,49.264497 H 17.11278 Z M 36.754144,39.324695 C 32.721221,30.512695 28.6883,21.700679 24.655394,12.888662 22.530527,12.750737 22.656775,12.71031 20.714356,12.813974 v 0.966497 c 4.612938,9.99784 9.609439,20.748709 13.87298,30.081745 0.722248,-1.512523 1.444528,-3.025014 2.166808,-4.537521 z m 25.738417,9.939815 c 0,-12.965651 0,-25.931305 0,-38.896956 10.084388,0 20.168791,0 30.253178,0 0,0.960416 0,1.920849 0,2.881265 -6.482825,0 -12.965652,0 -19.448478,0 0,4.802097 0,9.604178 0,14.406277 5.52241,0 11.044819,0 16.567229,0 0,0.960415 0,1.920832 0,2.881248 -5.52241,0 -11.044819,0 -16.567229,0 0,5.282306 0,10.564611 0,15.846917 6.963035,0 13.926068,0 20.889103,0 0,0.960416 0,1.920832 0,2.881249 -10.564597,0 -21.129207,0 -31.693803,0 z m 4.321874,-2.160937 c 0,-11.765131 0,-23.530263 0,-35.295394 -0.720312,0 -1.440625,0 -2.160937,0 0,11.765131 0,23.530263 0,35.295394 0.720312,0 1.440625,0 2.160937,0 z m 32.41413,2.160937 c 0,-12.965651 0,-25.931305 0,-38.896956 2.401045,0 4.802095,0 7.203135,0 0,12.965651 0,25.931305 0,38.896956 -2.40104,0 -4.80209,0 -7.203135,0 z m 2.881265,-2.160937 c 0,-11.765131 0,-23.530263 0,-35.295394 -0.72031,0 -1.44064,0 -2.160953,0 0,11.765131 0,23.530263 0,35.295394 0.720313,0 1.440643,0 2.160953,0 z" />
                     <path fill="#00000" d="m 346.3,6.7 c -3.1,0.5 -4.9,4.4 -2.7,6.8 1.2,1.4 2.7,2.4 4.1,3.5 -2.4,5.3 -7.7,8.3 -11.9,12.1 -3.7,2.8 -7,6.2 -9.7,9.9 -2.2,-0.8 -0.3,-6.8 -0.6,-9.5 0.1,-3.1 0.7,-6.4 2.9,-8.7 1.3,-1.9 3,-3.5 4.5,-5.2 1.2,-3.4 -3.2,-4.9 -5.8,-4.6 -7.3,-0.5 -14.6,2 -20,6.8 -5,4.6 -10,10.1 -11.5,17 -0.9,3.5 -0.2,7.5 2.8,9.9 2.5,2.8 7.4,2.9 9.8,-0.2 1.7,-2.3 3.2,-4.8 3.8,-7.6 -0.1,-2.6 -4.4,-2.3 -4.3,0.2 1.2,2.4 -0.9,4.7 -2.7,6.2 -1.7,0.9 -4.7,0.7 -4.8,-1.7 -1,-5.8 2.1,-11.3 5.2,-16.1 4,-5.8 9.8,-11.2 17.2,-11.8 1.6,0 8.1,-1.2 6.8,1.4 -2.8,2.8 -5.6,6.1 -6,10.3 -1.6,7.7 0.1,15.7 -2.3,23.2 -1.1,3.9 2,2.6 2.5,0.2 3.3,-7.4 8.9,-13.4 15.1,-18.5 4.2,-3.9 9.5,-7.1 11.9,-12.6 1.3,-3.6 1.2,-9 -2.7,-10.9 -0.6,-0.2 -1.2,-0.3 -1.8,-0.3 z m 66,14.5 c -2,0.8 -1.8,4.9 0.8,4.4 3.4,0.4 2.9,-6.2 -0.8,-4.4 z m 0.6,7.3 c -1.3,0.5 -7.6,0.5 -5.4,2.2 4,-0.3 0.7,4.5 0.6,6.7 -0.4,2.9 -2.4,5.9 -1.2,8.8 2.7,1.7 5.6,-0.8 6.8,-3.2 1.6,-1.4 -0.5,-3 -1.2,-0.9 -0.4,0.8 -2.4,3.5 -2.6,1.8 1.1,-5 2.7,-9.9 3.9,-14.9 l -0.1,-0.5 h -0.9 z m -65.1,0.2 c -6.5,1.6 -10.5,9.5 -8.2,15.7 2.1,3.4 7.4,2.9 10.1,0.4 2,-0.2 3.6,-5.3 1,-3.4 -1.4,2 -4,4.2 -6.5,2.8 -2.2,-1.9 -1.9,-5.7 1.7,-5.3 3.1,-0.9 6.9,-2.1 8.1,-5.5 0.9,-2.7 -1.6,-5.2 -4.3,-4.8 h -1.1 -0.7 z m 13.6,0 c -2.2,0 -8.5,1.8 -2.9,2.3 0.9,1.9 -1,4.9 -1.1,7.2 -0.5,2.9 -1.4,5.7 -1.7,8.7 3.7,0.7 3.8,-2.6 4.4,-5.3 0.9,-3.3 1.6,-7 4.1,-9.5 2.4,1.6 6.8,-0.7 3.7,-3.4 -2.9,-0.5 -4.8,2.4 -6.2,4.3 0,-1.2 2.4,-5 -0.2,-4.3 z m 15.8,0 c -6.4,1.3 -9.6,9.1 -7.7,14.9 1.9,4 7.7,3.9 11,1.7 4.1,-3 6,-8.9 4.4,-13.7 -1.3,-3 -4.8,-3.2 -7.6,-3 z m 17,0 c -2.3,0 -8.8,1.9 -3,2.4 0.4,2.5 -1,5.7 -1.4,8.4 -0.7,2.4 -1.8,7.5 2.1,7.2 3.8,-0.1 6.5,-3.5 8.5,-6.3 2,-3.2 4.5,-7 3.3,-10.9 -3.7,-3 -3.6,2.6 -3.1,5.1 -0.7,3.8 -2.7,7.9 -6.2,9.8 -3.6,0.6 -1,-4.3 -0.8,-6.1 0.6,-3.2 1.6,-6.3 1.9,-9.5 -0.4,0 -0.8,0 -1.1,0 z m 30.6,0 c -6.3,1.2 -9.5,8.9 -7.8,14.7 1.5,4 7.2,4.2 10.5,2.4 4.6,-2.8 6.6,-9.3 4.8,-14.3 -1.4,-2.8 -4.8,-3 -7.5,-2.8 z m -75.4,1.7 c 2.1,1.5 0.2,4.7 -1.6,5.7 -1.1,0.4 -5.5,3.4 -4.6,0.7 0.8,-2.7 2.2,-6.2 5.3,-6.6 l 0.9,0.1 z m 30.8,0 c 2.6,1.5 1.3,5.2 0.8,7.6 -0.8,2.7 -1.9,5.9 -4.7,7.1 -5.1,0.8 -4,-5.8 -2.8,-8.8 1,-2.8 3,-6.8 6.7,-5.8 z m 47.1,-0.1 c 2.9,0.7 2,4.7 1.5,6.8 -0.7,3 -1.8,6.7 -5,8 -4.7,0.8 -4,-5.1 -3,-7.9 0.9,-3 2.7,-7.3 6.5,-6.8 z m -88.1,5.9 c -0.3,1.3 0.9,-0.6 0,0 z m -1.1,2.4 c -0.2,0.5 0.5,-0.1 0,0 z m -1.3,4.5 c -0.3,1.3 0.8,-0.2 0,0 z" />
                     <text y="41" x="201" fill="#00000" style="font-style:italic;font-weight:normal;font-size:30px;line-height:125%;font-family:Times;text-anchor:middle" xml:space="preserve">engraved with</text>
                  </g>
               </g>
            </g>
         </g>
      </g>
   </svg>
</svg>
