<?xml version="1.0" encoding="UTF-8" standalone="no"?>
<svg width="2100px" height="2970px" version="1.1" xmlns="http://www.w3.org/2000/svg" xmlns:xlink="http://www.w3.org/1999/xlink" xmlns:mei="http://www.music-encoding.org/ns/mei" overflow="visible">
   <desc>Engraved by Verovio 4.4.0-66ab39c</desc>
   <defs>
      <symbol id="E4E7-5xdpii" viewBox="0 0 1000 1000" overflow="inherit">
         <path transform="scale(1,-1)" d="M133 -111c0 -33 -21 -50 -52 -55c10 -3 18 -4 25 -4c40 0 69 24 90 47l66 197c-36 -18 -64 -25 -112 -25c-23 0 -38 3 -45 8c-37 7 -55 27 -55 59c8 35 30 54 68 58c45 -6 49 -13 64 -48c0 -3 1 -5 1 -7c0 -27 -25 -46 -52 -49c6 -4 15 -6 26 -6c32 2 62 14 88 29 c32 19 44 36 59 71l7 1l10 2h4c-72 -220 -143 -439 -215 -659h-37l108 324c-20 -13 -51 -20 -82 -20c-21 0 -35 4 -43 10c-37 6 -55 26 -55 58c8 35 31 56 68 60c43 -8 48 -13 64 -51z" />
      </symbol>
      <symbol id="E084-5xdpii" viewBox="0 0 1000 1000" overflow="inherit">
         <path transform="scale(1,-1)" d="M20 -78c84 97 114 180 134 329h170c-13 -32 -82 -132 -99 -151l-84 -97c-33 -36 -59 -63 -80 -81h162v102l127 123v-225h57v-39h-57v-34c0 -43 19 -65 57 -65v-34h-244v36c48 0 60 26 60 70v27h-203v39z" />
      </symbol>
      <symbol id="E0A4-5xdpii" viewBox="0 0 1000 1000" overflow="inherit">
         <path transform="scale(1,-1)" d="M0 -39c0 68 73 172 200 172c66 0 114 -37 114 -95c0 -84 -106 -171 -218 -171c-64 0 -96 30 -96 94z" />
      </symbol>
      <symbol id="E0A9-5xdpii" viewBox="0 0 1000 1000" overflow="inherit">
         <path transform="scale(1,-1)" d="M0 -110c0 4 1 8 5 11l119 99l-119 100c-3 3 -5 8 -5 12c0 6 5 13 12 13c3 0 6 -1 8 -2l124 -105l126 105c2 1 5 2 7 2c6 0 13 -6 13 -14c0 -4 -2 -9 -5 -11l-119 -100l119 -99c3 -3 5 -7 5 -12c0 -6 -5 -14 -13 -14c-2 0 -5 1 -7 3l-126 105l-124 -105c-2 -2 -4 -3 -7 -3 c-8 0 -13 7 -13 15z" />
      </symbol>
      <symbol id="E0D9-5xdpii" viewBox="0 0 1000 1000" overflow="inherit">
         <path transform="scale(1,-1)" d="M0 0c0 3 1 4 3 6c53 47 102 98 151 153c2 2 5 3 8 3s5 -1 7 -3c49 -55 89 -106 142 -153c2 -2 3 -3 3 -6s-1 -4 -3 -6c-53 -47 -93 -98 -142 -153c-2 -2 -4 -3 -7 -3s-6 1 -8 3c-49 55 -98 106 -151 153c-2 2 -3 3 -3 6zM83 36c-2 -2 -3 -4 -3 -6s1 -4 3 -6l96 -101 c2 -2 4 -3 7 -3s5 1 7 3l40 41c2 2 3 4 3 6s-1 4 -3 6l-96 101c-2 2 -4 3 -7 3s-5 -1 -7 -3z" />
      </symbol>
      <symbol id="E4E4-5xdpii" viewBox="0 0 1000 1000" overflow="inherit">
         <path transform="scale(1,-1)" d="M0 10v105c0 9 1 10 10 10h280c9 0 10 -1 10 -10v-105c0 -9 -1 -10 -10 -10h-280c-9 0 -10 1 -10 10z" />
      </symbol>
      <symbol id="E069-5xdpii" viewBox="0 0 1000 1000" overflow="inherit">
         <path transform="scale(1,-1)" d="M200 250h125v-500h-125v500zM0 250h125v-500h-125v500z" />
      </symbol>
   </defs>
   <style type="text/css">g.page-margin{font-family:Times,serif;} g.ending, g.fing, g.reh, g.tempo{font-weight:bold;} g.dir, g.dynam, g.mNum{font-style:italic;} g.label{font-weight:normal;}</style>
   <svg class="definition-scale" color="black" viewBox="0 0 21000 29700">
      <g class="page-margin" transform="translate(500, 500)">
         <g id="m-ca1914b4-2fd0-4f4d-851e-23859e1f1460" class="mdiv pageMilestone" />
         <g id="m-fcc72447-2204-4d39-9fe9-65bd92edcdc4" class="score pageMilestone" />
         <g id="sr5m6so" class="system">
            <g id="m-d08cc979-eb65-4a42-be0d-078f0cbe2b08" class="section systemMilestone" />
            <g id="m-c7937192-aa70-40e2-bf49-8c0f7be27695" class="measure">
               <g id="m-eeae5db3-b016-4079-bb56-24bea3985bf5" class="staff">
                  <path d="M0 1775 L5368 1775" stroke="currentColor" stroke-width="13" />
                  <path d="M0 1955 L5368 1955" stroke="currentColor" stroke-width="13" />
                  <path d="M0 2135 L5368 2135" stroke="currentColor" stroke-width="13" />
                  <path d="M0 2315 L5368 2315" stroke="currentColor" stroke-width="13" />
                  <path d="M0 2495 L5368 2495" stroke="currentColor" stroke-width="13" />
                  <g id="c1ag9zd0" class="clef">
                     <use xlink:href="#E069-5xdpii" x="90" y="2135" height="720px" width="720px" />
                  </g>
                  <g id="k1nnt7v3" class="keySig" />
                  <g id="m1odl82e" class="meterSig">
                     <use xlink:href="#E084-5xdpii" x="490" y="1955" height="720px" width="720px" />
                     <use xlink:href="#E084-5xdpii" x="490" y="2315" height="720px" width="720px" />
                  </g>
                  <g class="ledgerLines above">
                     <path d="M1004 1595 L1308 1595" stroke="currentColor" stroke-width="22" />
                     <path d="M1454 1595 L1758 1595" stroke="currentColor" stroke-width="22" />
                     <path d="M1904 1595 L2208 1595" stroke="currentColor" stroke-width="22" />
                     <path d="M2354 1595 L2658 1595" stroke="currentColor" stroke-width="22" />
                  </g>
                  <g id="m-2ffe3bc6-aed4-4376-851b-38e7f13f7584" class="layer">
                     <g id="m-d1097f91-3915-4af5-b14b-b49014545628" class="beam">
                        <polygon points="1242,1055 1710,1055 1710,1145 1242,1145" />
                        <g id="m-4dc70c8a-beba-43e1-a42f-063f07eb4857" class="note">
                           <g class="notehead">
                              <use xlink:href="#E0A9-5xdpii" x="1052" y="1505" height="720px" width="720px" />
                           </g>
                           <g id="s1ctajms" class="stem">
                              <path d="M1251 1426 L1251 1073" stroke="currentColor" stroke-width="18" />
                           </g>
                           <g id="a16nnqtm" class="accid" />
                        </g>
                        <g id="m-48ad30af-6647-45c5-a423-f5b7e37bfb1c" class="note">
                           <g class="notehead">
                              <use xlink:href="#E0A9-5xdpii" x="1502" y="1505" height="720px" width="720px" />
                           </g>
                           <g id="s1czmh55" class="stem">
                              <path d="M1701 1426 L1701 1073" stroke="currentColor" stroke-width="18" />
                           </g>
                           <g id="a117bwrb" class="accid" />
                        </g>
                     </g>
                     <g id="m-da1dc971-351d-4f6c-8ba2-fd7595dec308" class="beam">
                        <polygon points="2142,1055 2610,1055 2610,1145 2142,1145" />
                        <g id="m-108045fa-7175-4b28-a61c-1436b281629c" class="note">
                           <g class="notehead">
                              <use xlink:href="#E0A9-5xdpii" x="1952" y="1505" height="720px" width="720px" />
                           </g>
                           <g id="s16vlgjc" class="stem">
                              <path d="M2151 1426 L2151 1073" stroke="currentColor" stroke-width="18" />
                           </g>
                           <g id="a14ekt0l" class="accid" />
                        </g>
                        <g id="m-3cee1351-7ef3-4012-a4be-172b14d13cb3" class="note">
                           <g class="notehead">
                              <use xlink:href="#E0A9-5xdpii" x="2402" y="1505" height="720px" width="720px" />
                           </g>
                           <g id="s1nx8zs" class="stem">
                              <path d="M2601 1426 L2601 1073" stroke="currentColor" stroke-width="18" />
                           </g>
                           <g id="acwul3e" class="accid" />
                        </g>
                     </g>
                     <g id="m-fa922940-9049-4e3f-9c39-4b858d5a4ce3" class="rest">
                        <use xlink:href="#E4E4-5xdpii" x="3002" y="1595" height="720px" width="720px" />
                        <g class="ledgerLines">
                           <path d="M2954 1595 L3266 1595" stroke="currentColor" stroke-width="22" />
                        </g>
                     </g>
                  </g>
                  <g id="m-2aab389c-21fb-4d03-8cfa-bfe84022899a" class="layer">
                     <g id="m-5c48d018-1143-449c-9f32-287959223323" class="note">
                        <g class="notehead">
                           <use xlink:href="#E0A4-5xdpii" x="1052" y="2585" height="720px" width="720px" />
                        </g>
                        <g id="s19zeihs" class="stem">
                           <path d="M1061 2613 L1061 3035" stroke="currentColor" stroke-width="18" />
                        </g>
                     </g>
                     <g id="m-b8556b1d-5522-4c52-a211-bf20ee860262" class="beam">
                        <polygon points="1952,2720 2720,2720 2720,2630 1952,2630" />
                        <polygon points="2494,2585 2720,2585 2720,2495 2494,2495" />
                        <g id="m-55ba6759-7dc2-4cba-a300-14d286d06c20" class="note">
                           <g class="notehead">
                              <use xlink:href="#E0A4-5xdpii" x="1952" y="2135" height="720px" width="720px" />
                           </g>
                           <g id="d1k7b1vu" class="dots">
                              <ellipse cx="2268" cy="2225" rx="36" ry="36" />
                           </g>
                           <g id="s1k0n8oc" class="stem">
                              <path d="M1961 2163 L1961 2702" stroke="currentColor" stroke-width="18" />
                           </g>
                           <g id="acu0hyr" class="accid" />
                        </g>
                        <g id="m-aed0e2ff-9e5e-4385-8056-02ca0aac13ff" class="note">
                           <g class="notehead">
                              <use xlink:href="#E0A4-5xdpii" x="2702" y="2135" height="720px" width="720px" />
                           </g>
                           <g id="s121gxzb" class="stem">
                              <path d="M2711 2163 L2711 2702" stroke="currentColor" stroke-width="18" />
                           </g>
                           <g id="axdh7us" class="accid" />
                        </g>
                     </g>
                     <g id="m-42ab84c1-437e-4cb5-87c6-c073451b562e" class="rest">
                        <use xlink:href="#E4E7-5xdpii" x="3002" y="2315" height="720px" width="720px" />
                     </g>
                     <g id="m-61957a71-07c0-4a94-8297-c3aa07360ce6" class="beam">
                        <polygon points="3325,2720 3975,2720 3975,2630 3325,2630" />
                        <polygon points="3325,2585 3650,2585 3650,2495 3325,2495" />
                        <polygon points="3650,2585 3975,2585 3975,2495 3650,2495" />
                        <g id="m-5f348007-9e15-4289-8a2b-8c1877de8e47" class="note">
                           <g class="notehead">
                              <use xlink:href="#E0A4-5xdpii" x="3325" y="2135" height="720px" width="720px" />
                           </g>
                           <g id="s10ajkml" class="stem">
                              <path d="M3334 2163 L3334 2702" stroke="currentColor" stroke-width="18" />
                           </g>
                           <g id="axqrwy7" class="accid" />
                        </g>
                        <g id="m-a6a70265-bcc3-452f-a51e-93f5e01c8058" class="note">
                           <g class="notehead">
                              <use xlink:href="#E0D9-5xdpii" x="3641" y="2135" height="720px" width="720px" />
                           </g>
                           <g id="s19f8hci" class="stem">
                              <path d="M3650 2135 L3650 2702" stroke="currentColor" stroke-width="18" />
                           </g>
                           <g id="a4ol8lo" class="accid" />
                        </g>
                        <g id="m-9769202b-7b9b-4030-8038-53438a68b051" class="note">
                           <g class="notehead">
                              <use xlink:href="#E0A4-5xdpii" x="3957" y="2135" height="720px" width="720px" />
                           </g>
                           <g id="s8w5swy" class="stem">
                              <path d="M3966 2163 L3966 2702" stroke="currentColor" stroke-width="18" />
                           </g>
                           <g id="al41kpy" class="accid" />
                        </g>
                     </g>
                     <g id="m-b415d51c-c44b-41b9-b122-2136344c8689" class="beam">
                        <polygon points="4273,2495 4923,2585 4923,2495 4273,2405" />
                        <polygon points="4273,2360 4598,2405 4598,2315 4273,2270" />
                        <g id="m-ccd56b28-c408-4a3c-9d68-417fb798992b" class="note">
                           <g class="notehead">
                              <use xlink:href="#E0A4-5xdpii" x="4273" y="1865" height="720px" width="720px" />
                           </g>
                           <g id="s136vw2f" class="stem">
                              <path d="M4282 1893 L4282 2477" stroke="currentColor" stroke-width="18" />
                           </g>
                           <g id="a1j2mwpr" class="accid" />
                        </g>
                        <g id="m-bdab16b1-edca-4772-a69a-d34afeaae923" class="note">
                           <g class="notehead">
                              <use xlink:href="#E0A4-5xdpii" x="4589" y="1865" height="720px" width="720px" />
                           </g>
                           <g id="sddnw5t" class="stem">
                              <path d="M4598 1893 L4598 2522" stroke="currentColor" stroke-width="18" />
                           </g>
                           <g id="a14o542u" class="accid" />
                        </g>
                        <g id="m-a555b21f-37aa-4fb4-8790-1b8e29767d13" class="note">
                           <g class="notehead">
                              <use xlink:href="#E0A4-5xdpii" x="4905" y="1955" height="720px" width="720px" />
                           </g>
                           <g id="s52z4s0" class="stem">
                              <path d="M4914 1983 L4914 2567" stroke="currentColor" stroke-width="18" />
                           </g>
                        </g>
                     </g>
                  </g>
               </g>
               <g id="b19r75o" class="barLine">
                  <path d="M5355 1775 L5355 2495" stroke="currentColor" stroke-width="27" />
               </g>
            </g>
            <g id="m-b816baad-ebb1-46c1-88db-32a56ad5af18" class="measure">
               <g id="m-53562f46-8970-4b48-9e49-db9b8f8b9f85" class="staff">
                  <path d="M5368 1775 L9754 1775" stroke="currentColor" stroke-width="13" />
                  <path d="M5368 1955 L9754 1955" stroke="currentColor" stroke-width="13" />
                  <path d="M5368 2135 L9754 2135" stroke="currentColor" stroke-width="13" />
                  <path d="M5368 2315 L9754 2315" stroke="currentColor" stroke-width="13" />
                  <path d="M5368 2495 L9754 2495" stroke="currentColor" stroke-width="13" />
                  <g class="ledgerLines above">
                     <path d="M5548 1595 L5792 1595" stroke="currentColor" stroke-width="22" />
                     <path d="M5738 1595 L5982 1595" stroke="currentColor" stroke-width="22" />
                     <path d="M6024 1595 L6292 1595" stroke="currentColor" stroke-width="22" />
                     <path d="M6456 1595 L6760 1595" stroke="currentColor" stroke-width="22" />
                     <path d="M6906 1595 L7210 1595" stroke="currentColor" stroke-width="22" />
                     <path d="M7522 1595 L7826 1595" stroke="currentColor" stroke-width="22" />
                     <path d="M8161 1595 L8465 1595" stroke="currentColor" stroke-width="22" />
                     <path d="M8793 1595 L9097 1595" stroke="currentColor" stroke-width="22" />
                     <path d="M9243 1595 L9547 1595" stroke="currentColor" stroke-width="22" />
                  </g>
                  <g id="m-e896092d-d065-40c2-b3de-cf6a16455311" class="layer">
                     <g id="m-6b51004b-5b66-4e0f-9814-182584bc5494" class="beam">
                        <polygon points="5738,1055 6262,1055 6262,1145 5738,1145" />
                        <g id="m-7c6d2d20-6ef8-4c67-8463-2098649c9c8f" class="chord">
                           <g id="svd0sd3" class="stem">
                              <path d="M5747 1516 L5747 1073" stroke="currentColor" stroke-width="18" />
                           </g>
                           <g id="m-6b6b3e53-6777-4194-aafb-ae5bb9bb57d5" class="note">
                              <g class="notehead">
                                 <use xlink:href="#E0A9-5xdpii" x="5756" y="1505" height="720px" width="720px" />
                              </g>
                              <g id="aeae0pj" class="accid" />
                           </g>
                           <g id="m-e77c50ec-f483-4f15-8b8d-eb10e426d4d4" class="note">
                              <g class="notehead">
                                 <use xlink:href="#E0A9-5xdpii" x="5566" y="1595" height="720px" width="720px" />
                              </g>
                           </g>
                        </g>
                        <g id="m-5de179ba-e9d3-4e61-91b8-2ee900f48591" class="note">
                           <g class="notehead">
                              <use xlink:href="#E0A9-5xdpii" x="6054" y="1505" height="720px" width="720px" />
                           </g>
                           <g id="s61t948" class="stem">
                              <path d="M6253 1426 L6253 1073" stroke="currentColor" stroke-width="18" />
                           </g>
                           <g id="amym70h" class="accid" />
                        </g>
                     </g>
                     <g id="m-d54c1740-a2e6-446e-b845-7b11c8d57ff0" class="beam">
                        <polygon points="6694,1055 7162,1055 7162,1145 6694,1145" />
                        <g id="m-7ee964d2-ed0b-41c4-a22a-d9b9ea35ea22" class="note">
                           <g class="notehead">
                              <use xlink:href="#E0A9-5xdpii" x="6504" y="1505" height="720px" width="720px" />
                           </g>
                           <g id="s1611atq" class="stem">
                              <path d="M6703 1426 L6703 1073" stroke="currentColor" stroke-width="18" />
                           </g>
                           <g id="a16t4msx" class="accid" />
                        </g>
                        <g id="m-731b1446-5e8b-4966-b923-663a55ad96af" class="note">
                           <g class="notehead">
                              <use xlink:href="#E0A9-5xdpii" x="6954" y="1505" height="720px" width="720px" />
                           </g>
                           <g id="sjgj8ih" class="stem">
                              <path d="M7153 1426 L7153 1073" stroke="currentColor" stroke-width="18" />
                           </g>
                           <g id="ap5oc3" class="accid" />
                        </g>
                     </g>
                     <g id="m-88bd63d1-5dab-4acd-ae20-17f0cdd20283" class="beam">
                        <polygon points="7760,1055 8417,1055 8417,1145 7760,1145" />
                        <g id="m-3924f2de-87e1-4a26-abeb-9ecc6ff28bb3" class="note">
                           <g class="notehead">
                              <use xlink:href="#E0A9-5xdpii" x="7570" y="1505" height="720px" width="720px" />
                           </g>
                           <g id="s1jvhhqa" class="stem">
                              <path d="M7769 1426 L7769 1073" stroke="currentColor" stroke-width="18" />
                           </g>
                           <g id="a9vodam" class="accid" />
                        </g>
                        <g id="m-d243a2cf-5118-43ba-9eab-d88e8a5a7a50" class="note">
                           <g class="notehead">
                              <use xlink:href="#E0A9-5xdpii" x="8209" y="1505" height="720px" width="720px" />
                           </g>
                           <g id="s1j6z2we" class="stem">
                              <path d="M8408 1426 L8408 1073" stroke="currentColor" stroke-width="18" />
                           </g>
                           <g id="a1lt1en0" class="accid" />
                        </g>
                     </g>
                     <g id="m-729b656e-701c-4de4-a776-b22c26dfe194" class="beam">
                        <polygon points="9031,1055 9499,1055 9499,1145 9031,1145" />
                        <g id="m-0c758c81-f051-4860-ba3e-85f8068528fc" class="note">
                           <g class="notehead">
                              <use xlink:href="#E0A9-5xdpii" x="8841" y="1505" height="720px" width="720px" />
                           </g>
                           <g id="s151gn55" class="stem">
                              <path d="M9040 1426 L9040 1073" stroke="currentColor" stroke-width="18" />
                           </g>
                           <g id="a1j649b4" class="accid" />
                        </g>
                        <g id="m-29b6b7db-af7f-4a9e-8940-89e7e43e9eab" class="note">
                           <g class="notehead">
                              <use xlink:href="#E0A9-5xdpii" x="9291" y="1505" height="720px" width="720px" />
                           </g>
                           <g id="s1bc3ha8" class="stem">
                              <path d="M9490 1426 L9490 1073" stroke="currentColor" stroke-width="18" />
                           </g>
                           <g id="au9ei4p" class="accid" />
                        </g>
                     </g>
                  </g>
                  <g id="m-9382aad6-cfd6-427f-9d6e-e8914414ddb8" class="layer">
                     <g id="m-52bc28c2-93b1-46b1-8e0c-2bd36990dca1" class="note">
                        <g class="notehead">
                           <use xlink:href="#E0A4-5xdpii" x="5548" y="2585" height="720px" width="720px" />
                        </g>
                        <g id="s1hqt1cl" class="stem">
                           <path d="M5557 2613 L5557 3035" stroke="currentColor" stroke-width="18" />
                        </g>
                     </g>
                     <g id="m-de2213f9-647b-4795-b015-4e8be29ad9a1" class="beam">
                        <polygon points="6504,2720 7272,2720 7272,2630 6504,2630" />
                        <polygon points="7046,2585 7272,2585 7272,2495 7046,2495" />
                        <g id="m-f5099850-a17d-408f-a288-ed70d91f4b57" class="note">
                           <g class="notehead">
                              <use xlink:href="#E0A4-5xdpii" x="6504" y="2135" height="720px" width="720px" />
                           </g>
                           <g id="d1dhwabe" class="dots">
                              <ellipse cx="6820" cy="2225" rx="36" ry="36" />
                           </g>
                           <g id="s1gw3bfg" class="stem">
                              <path d="M6513 2163 L6513 2702" stroke="currentColor" stroke-width="18" />
                           </g>
                           <g id="avws7um" class="accid" />
                        </g>
                        <g id="m-edfa1efc-7ba8-4c4c-8012-06d975440907" class="note">
                           <g class="notehead">
                              <use xlink:href="#E0A4-5xdpii" x="7254" y="2135" height="720px" width="720px" />
                           </g>
                           <g id="s1u2ir9b" class="stem">
                              <path d="M7263 2163 L7263 2702" stroke="currentColor" stroke-width="18" />
                           </g>
                           <g id="ado7f2z" class="accid" />
                        </g>
                     </g>
                     <g id="m-5abcf425-ef2c-4b7b-80b0-fc9e91386407" class="rest">
                        <use xlink:href="#E4E7-5xdpii" x="7570" y="2315" height="720px" width="720px" />
                     </g>
                     <g id="m-60480f70-7b19-45d6-b514-1c7bfb5d8016" class="beam">
                        <polygon points="7893,3170 8543,3170 8543,3080 7893,3080" />
                        <polygon points="7893,3035 8218,3035 8218,2945 7893,2945" />
                        <polygon points="8218,3035 8543,3035 8543,2945 8218,2945" />
                        <g id="m-8c872890-a7e9-4964-9ef4-17c44bf02622" class="note">
                           <g class="notehead">
                              <use xlink:href="#E0A4-5xdpii" x="7893" y="2135" height="720px" width="720px" />
                           </g>
                           <g id="s1mun0cb" class="stem">
                              <path d="M7902 2163 L7902 3152" stroke="currentColor" stroke-width="18" />
                           </g>
                           <g id="a3spm6b" class="accid" />
                        </g>
                        <g id="m-7da2c168-029d-4edd-b3de-7548f26a7cec" class="note">
                           <g class="notehead">
                              <use xlink:href="#E0A4-5xdpii" x="8209" y="2585" height="720px" width="720px" />
                           </g>
                           <g id="s1s0ae46" class="stem">
                              <path d="M8218 2613 L8218 3152" stroke="currentColor" stroke-width="18" />
                           </g>
                        </g>
                        <g id="m-c516b3e9-5c6d-4dd6-b6b2-4b7be9524657" class="note">
                           <g class="notehead">
                              <use xlink:href="#E0A4-5xdpii" x="8525" y="2585" height="720px" width="720px" />
                           </g>
                           <g id="senx3qt" class="stem">
                              <path d="M8534 2613 L8534 3152" stroke="currentColor" stroke-width="18" />
                           </g>
                        </g>
                     </g>
                     <g id="m-d63d1081-c386-491a-a657-5dc851bb72a2" class="note">
                        <g class="notehead">
                           <use xlink:href="#E0A4-5xdpii" x="8841" y="2135" height="720px" width="720px" />
                        </g>
                        <g id="s1628w0b" class="stem">
                           <path d="M8850 2163 L8850 2735" stroke="currentColor" stroke-width="18" />
                        </g>
                        <g id="affiid7" class="accid" />
                     </g>
                  </g>
               </g>
               <g id="b781lxs" class="barLine">
                  <path d="M9741 1775 L9741 2495" stroke="currentColor" stroke-width="27" />
               </g>
            </g>
            <g id="m-31f5fec6-25bc-4f93-b5a0-fb1c683d8b69" class="measure">
               <g id="m-ebb36141-53c0-4e2d-acf5-4283f581e65d" class="staff">
                  <path d="M9754 1775 L14084 1775" stroke="currentColor" stroke-width="13" />
                  <path d="M9754 1955 L14084 1955" stroke="currentColor" stroke-width="13" />
                  <path d="M9754 2135 L14084 2135" stroke="currentColor" stroke-width="13" />
                  <path d="M9754 2315 L14084 2315" stroke="currentColor" stroke-width="13" />
                  <path d="M9754 2495 L14084 2495" stroke="currentColor" stroke-width="13" />
                  <g class="ledgerLines above">
                     <path d="M9886 1595 L10190 1595" stroke="currentColor" stroke-width="22" />
                     <path d="M10336 1595 L10640 1595" stroke="currentColor" stroke-width="22" />
                     <path d="M10786 1595 L11090 1595" stroke="currentColor" stroke-width="22" />
                     <path d="M11236 1595 L11540 1595" stroke="currentColor" stroke-width="22" />
                     <path d="M11852 1595 L12156 1595" stroke="currentColor" stroke-width="22" />
                     <path d="M12491 1595 L12795 1595" stroke="currentColor" stroke-width="22" />
                     <path d="M13123 1595 L13427 1595" stroke="currentColor" stroke-width="22" />
                     <path d="M13573 1595 L13877 1595" stroke="currentColor" stroke-width="22" />
                  </g>
                  <g id="m-2a1952b0-6f0b-475e-b0f2-10bce09f57b9" class="layer">
                     <g id="m-0e0aafad-4b43-4894-a10f-02dc05877766" class="beam">
                        <polygon points="10124,1055 10592,1055 10592,1145 10124,1145" />
                        <g id="m-627b03d2-31b4-4f61-b090-a93f50164c9e" class="note">
                           <g class="notehead">
                              <use xlink:href="#E0A9-5xdpii" x="9934" y="1505" height="720px" width="720px" />
                           </g>
                           <g id="s1xxt0cq" class="stem">
                              <path d="M10133 1426 L10133 1073" stroke="currentColor" stroke-width="18" />
                           </g>
                           <g id="alb3vp" class="accid" />
                        </g>
                        <g id="m-9421d997-a4e8-40ef-be9b-a88b3d7a3b98" class="note">
                           <g class="notehead">
                              <use xlink:href="#E0A9-5xdpii" x="10384" y="1505" height="720px" width="720px" />
                           </g>
                           <g id="sqfzb6q" class="stem">
                              <path d="M10583 1426 L10583 1073" stroke="currentColor" stroke-width="18" />
                           </g>
                           <g id="axmb67b" class="accid" />
                        </g>
                     </g>
                     <g id="m-72554852-ac71-468a-8d9f-0850b3bbc50a" class="beam">
                        <polygon points="11024,1055 11492,1055 11492,1145 11024,1145" />
                        <g id="m-7f8097d9-0561-4e48-aa5c-a534d4478cc5" class="note">
                           <g class="notehead">
                              <use xlink:href="#E0A9-5xdpii" x="10834" y="1505" height="720px" width="720px" />
                           </g>
                           <g id="s1o7i1mj" class="stem">
                              <path d="M11033 1426 L11033 1073" stroke="currentColor" stroke-width="18" />
                           </g>
                           <g id="a1q2xh9x" class="accid" />
                        </g>
                        <g id="m-a3a964f1-f795-4979-9f2d-64268ca6dc6e" class="note">
                           <g class="notehead">
                              <use xlink:href="#E0A9-5xdpii" x="11284" y="1505" height="720px" width="720px" />
                           </g>
                           <g id="sbj5ip9" class="stem">
                              <path d="M11483 1426 L11483 1073" stroke="currentColor" stroke-width="18" />
                           </g>
                           <g id="a18yz06i" class="accid" />
                        </g>
                     </g>
                     <g id="m-9ef785fb-4c0f-4935-9136-e80b7d6183fc" class="beam">
                        <polygon points="12090,1055 12747,1055 12747,1145 12090,1145" />
                        <g id="m-b118d9a4-fc5d-46c6-9406-83f3a4fe8063" class="note">
                           <g class="notehead">
                              <use xlink:href="#E0A9-5xdpii" x="11900" y="1505" height="720px" width="720px" />
                           </g>
                           <g id="s7qquv7" class="stem">
                              <path d="M12099 1426 L12099 1073" stroke="currentColor" stroke-width="18" />
                           </g>
                           <g id="a1mr3qtl" class="accid" />
                        </g>
                        <g id="m-7125e22a-fb3d-4315-abea-673a33b04822" class="note">
                           <g class="notehead">
                              <use xlink:href="#E0A9-5xdpii" x="12539" y="1505" height="720px" width="720px" />
                           </g>
                           <g id="s1p7qtl8" class="stem">
                              <path d="M12738 1426 L12738 1073" stroke="currentColor" stroke-width="18" />
                           </g>
                           <g id="a1vnsos5" class="accid" />
                        </g>
                     </g>
                     <g id="m-ea86e5d8-61d2-4580-9266-ec71099c919c" class="beam">
                        <polygon points="13361,1055 13829,1055 13829,1145 13361,1145" />
                        <g id="m-f694a7d1-9afb-4866-b743-27ba4eef464e" class="note">
                           <g class="notehead">
                              <use xlink:href="#E0A9-5xdpii" x="13171" y="1505" height="720px" width="720px" />
                           </g>
                           <g id="s1sga1vt" class="stem">
                              <path d="M13370 1426 L13370 1073" stroke="currentColor" stroke-width="18" />
                           </g>
                           <g id="a4lf39e" class="accid" />
                        </g>
                        <g id="m-8db2a4f3-ade5-4829-bb6e-b536e95f14af" class="note">
                           <g class="notehead">
                              <use xlink:href="#E0A9-5xdpii" x="13621" y="1505" height="720px" width="720px" />
                           </g>
                           <g id="s1v5ih16" class="stem">
                              <path d="M13820 1426 L13820 1073" stroke="currentColor" stroke-width="18" />
                           </g>
                           <g id="a1gaaark" class="accid" />
                        </g>
                     </g>
                  </g>
                  <g id="m-74964d3c-c2e2-40d5-98e7-8679ca0c63d7" class="layer">
                     <g id="m-971ad315-a907-4aeb-b7ee-ec99b91086f5" class="note">
                        <g class="notehead">
                           <use xlink:href="#E0A4-5xdpii" x="9934" y="2585" height="720px" width="720px" />
                        </g>
                        <g id="s1xhgvyk" class="stem">
                           <path d="M9943 2613 L9943 3035" stroke="currentColor" stroke-width="18" />
                        </g>
                     </g>
                     <g id="m-419d075e-9dc3-4ec2-b473-86555d8820bc" class="beam">
                        <polygon points="10834,2720 11602,2720 11602,2630 10834,2630" />
                        <polygon points="11376,2585 11602,2585 11602,2495 11376,2495" />
                        <g id="m-0ae04521-d5ac-4252-a547-240ba624ed81" class="note">
                           <g class="notehead">
                              <use xlink:href="#E0A4-5xdpii" x="10834" y="2135" height="720px" width="720px" />
                           </g>
                           <g id="d1tecgun" class="dots">
                              <ellipse cx="11150" cy="2225" rx="36" ry="36" />
                           </g>
                           <g id="ses47dw" class="stem">
                              <path d="M10843 2163 L10843 2702" stroke="currentColor" stroke-width="18" />
                           </g>
                           <g id="a11x8m7w" class="accid" />
                        </g>
                        <g id="m-dc933f38-0370-43ae-8e51-dd5071d167a3" class="note">
                           <g class="notehead">
                              <use xlink:href="#E0A4-5xdpii" x="11584" y="2135" height="720px" width="720px" />
                           </g>
                           <g id="so6p6g8" class="stem">
                              <path d="M11593 2163 L11593 2702" stroke="currentColor" stroke-width="18" />
                           </g>
                           <g id="a2skevb" class="accid" />
                        </g>
                     </g>
                     <g id="m-0279810c-e8e9-4440-af4e-1666214f1c77" class="rest">
                        <use xlink:href="#E4E7-5xdpii" x="11900" y="2315" height="720px" width="720px" />
                     </g>
                     <g id="m-be3e24f9-4f8e-42ba-8155-c5a974fb774c" class="beam">
                        <polygon points="12223,3170 12873,3170 12873,3080 12223,3080" />
                        <polygon points="12223,3035 12548,3035 12548,2945 12223,2945" />
                        <polygon points="12548,3035 12873,3035 12873,2945 12548,2945" />
                        <g id="m-f4c5a6d4-4da5-4bcc-9956-5d3c34c06d30" class="note">
                           <g class="notehead">
                              <use xlink:href="#E0A4-5xdpii" x="12223" y="2135" height="720px" width="720px" />
                           </g>
                           <g id="sd24wqq" class="stem">
                              <path d="M12232 2163 L12232 3152" stroke="currentColor" stroke-width="18" />
                           </g>
                           <g id="ahdsoq3" class="accid" />
                        </g>
                        <g id="m-7fc875c2-c327-4405-8728-7c9be959eab2" class="note">
                           <g class="notehead">
                              <use xlink:href="#E0A4-5xdpii" x="12539" y="2585" height="720px" width="720px" />
                           </g>
                           <g id="s14uzsbr" class="stem">
                              <path d="M12548 2613 L12548 3152" stroke="currentColor" stroke-width="18" />
                           </g>
                        </g>
                        <g id="m-e5fa7738-6da9-4d09-af1f-b8bd0468a631" class="note">
                           <g class="notehead">
                              <use xlink:href="#E0A4-5xdpii" x="12855" y="2585" height="720px" width="720px" />
                           </g>
                           <g id="s1w0x6tl" class="stem">
                              <path d="M12864 2613 L12864 3152" stroke="currentColor" stroke-width="18" />
                           </g>
                        </g>
                     </g>
                     <g id="m-36c90c33-c872-4048-abc7-cc69585c82e8" class="note">
                        <g class="notehead">
                           <use xlink:href="#E0A4-5xdpii" x="13171" y="2135" height="720px" width="720px" />
                        </g>
                        <g id="simrjmr" class="stem">
                           <path d="M13180 2163 L13180 2735" stroke="currentColor" stroke-width="18" />
                        </g>
                        <g id="a1j450fk" class="accid" />
                     </g>
                  </g>
               </g>
               <g id="b127xwgx" class="barLine">
                  <path d="M14071 1775 L14071 2495" stroke="currentColor" stroke-width="27" />
               </g>
            </g>
            <g id="sqwff5j" class="systemMilestoneEnd m-d08cc979-eb65-4a42-be0d-078f0cbe2b08" />
         </g>
         <g id="p130usq1" class="pageMilestoneEnd m-fcc72447-2204-4d39-9fe9-65bd92edcdc4" />
         <g id="pbn4lbz" class="pageMilestoneEnd m-ca1914b4-2fd0-4f4d-851e-23859e1f1460" />
         <g id="p1gad41i" class="pgHead autogenerated">
            <text font-size="0px">
               <tspan id="r19yoxhg" class="rend" x="10000" y="415" text-anchor="middle">
                  <title class="labelAttr">title</title>
                  <tspan id="r1d54ftr" class="rend">
                     <tspan id="t16is458" class="text">
                        <tspan font-size="607px">12_rock_100_beat_4-4</tspan>
                     </tspan>
                  </tspan>
                  <tspan id="l1qowbrx" class="lb" />
                  <tspan id="r8wvtms" class="rend">
                     <tspan id="t1bkedmo" class="text" x="10000" y="805">
                        <tspan font-size="324px">12_rock_100_beat_4-4</tspan>
                     </tspan>
                  </tspan>
               </tspan>
            </text>
         </g>
         <g id="ptx6hoq" class="pgFoot autogenerated">
            <g id="f11wlgtq" class="fig">
               <g class="svg" transform="translate(7750, 28099) scale(10.000000, 10.000000)">
                  <g>
                     <path fill="#00000" d="M 17.11278,49.26451 V 10.367554 h 12.696511 c 3.288815,7.336676 6.71267,14.610456 10.127281,21.888976 3.419998,-7.484684 6.255515,-14.204887 9.58887,-21.909915 2.436207,0.103726 4.316952,0.08453 6.484294,-0.05808 V 49.264423 H 50.274275 C 50.145222,38.35639 50.016136,27.448368 49.887066,16.540329 45.003488,27.315459 39.967448,38.433564 35.083854,49.208695 34.678996,49.343717 34.426583,49.135619 34.021726,49.270644 29.46588,39.330716 24.910049,29.390805 20.354201,19.450876 20.224341,29.388756 20.09461,39.326619 19.964815,49.264497 H 17.11278 Z M 36.754144,39.324695 C 32.721221,30.512695 28.6883,21.700679 24.655394,12.888662 22.530527,12.750737 22.656775,12.71031 20.714356,12.813974 v 0.966497 c 4.612938,9.99784 9.609439,20.748709 13.87298,30.081745 0.722248,-1.512523 1.444528,-3.025014 2.166808,-4.537521 z m 25.738417,9.939815 c 0,-12.965651 0,-25.931305 0,-38.896956 10.084388,0 20.168791,0 30.253178,0 0,0.960416 0,1.920849 0,2.881265 -6.482825,0 -12.965652,0 -19.448478,0 0,4.802097 0,9.604178 0,14.406277 5.52241,0 11.044819,0 16.567229,0 0,0.960415 0,1.920832 0,2.881248 -5.52241,0 -11.044819,0 -16.567229,0 0,5.282306 0,10.564611 0,15.846917 6.963035,0 13.926068,0 20.889103,0 0,0.960416 0,1.920832 0,2.881249 -10.564597,0 -21.129207,0 -31.693803,0 z m 4.321874,-2.160937 c 0,-11.765131 0,-23.530263 0,-35.295394 -0.720312,0 -1.440625,0 -2.160937,0 0,11.765131 0,23.530263 0,35.295394 0.720312,0 1.440625,0 2.160937,0 z m 32.41413,2.160937 c 0,-12.965651 0,-25.931305 0,-38.896956 2.401045,0 4.802095,0 7.203135,0 0,12.965651 0,25.931305 0,38.896956 -2.40104,0 -4.80209,0 -7.203135,0 z m 2.881265,-2.160937 c 0,-11.765131 0,-23.530263 0,-35.295394 -0.72031,0 -1.44064,0 -2.160953,0 0,11.765131 0,23.530263 0,35.295394 0.720313,0 1.440643,0 2.160953,0 z" />
                     <path fill="#00000" d="m 346.3,6.7 c -3.1,0.5 -4.9,4.4 -2.7,6.8 1.2,1.4 2.7,2.4 4.1,3.5 -2.4,5.3 -7.7,8.3 -11.9,12.1 -3.7,2.8 -7,6.2 -9.7,9.9 -2.2,-0.8 -0.3,-6.8 -0.6,-9.5 0.1,-3.1 0.7,-6.4 2.9,-8.7 1.3,-1.9 3,-3.5 4.5,-5.2 1.2,-3.4 -3.2,-4.9 -5.8,-4.6 -7.3,-0.5 -14.6,2 -20,6.8 -5,4.6 -10,10.1 -11.5,17 -0.9,3.5 -0.2,7.5 2.8,9.9 2.5,2.8 7.4,2.9 9.8,-0.2 1.7,-2.3 3.2,-4.8 3.8,-7.6 -0.1,-2.6 -4.4,-2.3 -4.3,0.2 1.2,2.4 -0.9,4.7 -2.7,6.2 -1.7,0.9 -4.7,0.7 -4.8,-1.7 -1,-5.8 2.1,-11.3 5.2,-16.1 4,-5.8 9.8,-11.2 17.2,-11.8 1.6,0 8.1,-1.2 6.8,1.4 -2.8,2.8 -5.6,6.1 -6,10.3 -1.6,7.7 0.1,15.7 -2.3,23.2 -1.1,3.9 2,2.6 2.5,0.2 3.3,-7.4 8.9,-13.4 15.1,-18.5 4.2,-3.9 9.5,-7.1 11.9,-12.6 1.3,-3.6 1.2,-9 -2.7,-10.9 -0.6,-0.2 -1.2,-0.3 -1.8,-0.3 z m 66,14.5 c -2,0.8 -1.8,4.9 0.8,4.4 3.4,0.4 2.9,-6.2 -0.8,-4.4 z m 0.6,7.3 c -1.3,0.5 -7.6,0.5 -5.4,2.2 4,-0.3 0.7,4.5 0.6,6.7 -0.4,2.9 -2.4,5.9 -1.2,8.8 2.7,1.7 5.6,-0.8 6.8,-3.2 1.6,-1.4 -0.5,-3 -1.2,-0.9 -0.4,0.8 -2.4,3.5 -2.6,1.8 1.1,-5 2.7,-9.9 3.9,-14.9 l -0.1,-0.5 h -0.9 z m -65.1,0.2 c -6.5,1.6 -10.5,9.5 -8.2,15.7 2.1,3.4 7.4,2.9 10.1,0.4 2,-0.2 3.6,-5.3 1,-3.4 -1.4,2 -4,4.2 -6.5,2.8 -2.2,-1.9 -1.9,-5.7 1.7,-5.3 3.1,-0.9 6.9,-2.1 8.1,-5.5 0.9,-2.7 -1.6,-5.2 -4.3,-4.8 h -1.1 -0.7 z m 13.6,0 c -2.2,0 -8.5,1.8 -2.9,2.3 0.9,1.9 -1,4.9 -1.1,7.2 -0.5,2.9 -1.4,5.7 -1.7,8.7 3.7,0.7 3.8,-2.6 4.4,-5.3 0.9,-3.3 1.6,-7 4.1,-9.5 2.4,1.6 6.8,-0.7 3.7,-3.4 -2.9,-0.5 -4.8,2.4 -6.2,4.3 0,-1.2 2.4,-5 -0.2,-4.3 z m 15.8,0 c -6.4,1.3 -9.6,9.1 -7.7,14.9 1.9,4 7.7,3.9 11,1.7 4.1,-3 6,-8.9 4.4,-13.7 -1.3,-3 -4.8,-3.2 -7.6,-3 z m 17,0 c -2.3,0 -8.8,1.9 -3,2.4 0.4,2.5 -1,5.7 -1.4,8.4 -0.7,2.4 -1.8,7.5 2.1,7.2 3.8,-0.1 6.5,-3.5 8.5,-6.3 2,-3.2 4.5,-7 3.3,-10.9 -3.7,-3 -3.6,2.6 -3.1,5.1 -0.7,3.8 -2.7,7.9 -6.2,9.8 -3.6,0.6 -1,-4.3 -0.8,-6.1 0.6,-3.2 1.6,-6.3 1.9,-9.5 -0.4,0 -0.8,0 -1.1,0 z m 30.6,0 c -6.3,1.2 -9.5,8.9 -7.8,14.7 1.5,4 7.2,4.2 10.5,2.4 4.6,-2.8 6.6,-9.3 4.8,-14.3 -1.4,-2.8 -4.8,-3 -7.5,-2.8 z m -75.4,1.7 c 2.1,1.5 0.2,4.7 -1.6,5.7 -1.1,0.4 -5.5,3.4 -4.6,0.7 0.8,-2.7 2.2,-6.2 5.3,-6.6 l 0.9,0.1 z m 30.8,0 c 2.6,1.5 1.3,5.2 0.8,7.6 -0.8,2.7 -1.9,5.9 -4.7,7.1 -5.1,0.8 -4,-5.8 -2.8,-8.8 1,-2.8 3,-6.8 6.7,-5.8 z m 47.1,-0.1 c 2.9,0.7 2,4.7 1.5,6.8 -0.7,3 -1.8,6.7 -5,8 -4.7,0.8 -4,-5.1 -3,-7.9 0.9,-3 2.7,-7.3 6.5,-6.8 z m -88.1,5.9 c -0.3,1.3 0.9,-0.6 0,0 z m -1.1,2.4 c -0.2,0.5 0.5,-0.1 0,0 z m -1.3,4.5 c -0.3,1.3 0.8,-0.2 0,0 z" />
                     <text y="41" x="201" fill="#00000" style="font-style:italic;font-weight:normal;font-size:30px;line-height:125%;font-family:Times;text-anchor:middle" xml:space="preserve">engraved with</text>
                  </g>
               </g>
            </g>
         </g>
      </g>
   </svg>
</svg>
