<?xml version="1.0" encoding="UTF-8" standalone="no"?>
<svg width="2100px" height="2970px" version="1.1" xmlns="http://www.w3.org/2000/svg" xmlns:xlink="http://www.w3.org/1999/xlink" xmlns:mei="http://www.music-encoding.org/ns/mei" overflow="visible">
   <desc>Engraved by Verovio 4.4.0-66ab39c</desc>
   <defs>
      <symbol id="E4E6-lwyw7b" viewBox="0 0 1000 1000" overflow="inherit">
         <path transform="scale(1,-1)" d="M0 123c7 34 33 56 69 60c29 -3 43 -9 53 -29c4 -8 7 -15 10 -22c0 -21 -1 -25 -11 -35c-5 -8 -18 -14 -40 -20l12 -3l15 -1c44 0 97 26 122 56c10 11 18 26 24 42c7 1 15 2 22 3l-140 -424h-36l111 330c-10 -6 -27 -12 -53 -16l-52 -8h-10l-20 1c-1 0 -8 3 -21 6 c-37 9 -55 28 -55 60z" />
      </symbol>
      <symbol id="E084-lwyw7b" viewBox="0 0 1000 1000" overflow="inherit">
         <path transform="scale(1,-1)" d="M20 -78c84 97 114 180 134 329h170c-13 -32 -82 -132 -99 -151l-84 -97c-33 -36 -59 -63 -80 -81h162v102l127 123v-225h57v-39h-57v-34c0 -43 19 -65 57 -65v-34h-244v36c48 0 60 26 60 70v27h-203v39z" />
      </symbol>
      <symbol id="E0A4-lwyw7b" viewBox="0 0 1000 1000" overflow="inherit">
         <path transform="scale(1,-1)" d="M0 -39c0 68 73 172 200 172c66 0 114 -37 114 -95c0 -84 -106 -171 -218 -171c-64 0 -96 30 -96 94z" />
      </symbol>
      <symbol id="E0A9-lwyw7b" viewBox="0 0 1000 1000" overflow="inherit">
         <path transform="scale(1,-1)" d="M0 -110c0 4 1 8 5 11l119 99l-119 100c-3 3 -5 8 -5 12c0 6 5 13 12 13c3 0 6 -1 8 -2l124 -105l126 105c2 1 5 2 7 2c6 0 13 -6 13 -14c0 -4 -2 -9 -5 -11l-119 -100l119 -99c3 -3 5 -7 5 -12c0 -6 -5 -14 -13 -14c-2 0 -5 1 -7 3l-126 105l-124 -105c-2 -2 -4 -3 -7 -3 c-8 0 -13 7 -13 15z" />
      </symbol>
      <symbol id="E0B6-lwyw7b" viewBox="0 0 1000 1000" overflow="inherit">
         <path transform="scale(1,-1)" d="M0 -36c0 68 73 174 200 174c66 0 114 -39 114 -97c0 -84 -106 -173 -218 -173c-64 0 -96 32 -96 96zM52 -92c6 -2 15 -3 26 -3c29 5 70 23 107 47l-41 31zM208 -31c40 29 70 64 70 95c0 9 -3 16 -7 23l-105 -87zM246 102c-3 1 -7 1 -11 1c-12 0 -26 -3 -41 -10 c-30 -15 -60 -32 -86 -49l36 -26zM85 27c-33 -27 -56 -57 -56 -90c1 -4 2 -7 3 -11l92 74z" />
      </symbol>
      <symbol id="E069-lwyw7b" viewBox="0 0 1000 1000" overflow="inherit">
         <path transform="scale(1,-1)" d="M200 250h125v-500h-125v500zM0 250h125v-500h-125v500z" />
      </symbol>
   </defs>
   <style type="text/css">g.page-margin{font-family:Times,serif;} g.ending, g.fing, g.reh, g.tempo{font-weight:bold;} g.dir, g.dynam, g.mNum{font-style:italic;} g.label{font-weight:normal;}</style>
   <svg class="definition-scale" color="black" viewBox="0 0 21000 29700">
      <g class="page-margin" transform="translate(500, 500)">
         <g id="m-8eaee9a3-7509-42b5-9643-fe2ce50773ba" class="mdiv pageMilestone" />
         <g id="m-373db87f-e847-40f3-ae76-180dcc9b7f00" class="score pageMilestone" />
         <g id="sqrxlmw" class="system">
            <g id="m-36c4efc7-8773-4cab-a8b8-8f74690d049d" class="section systemMilestone" />
            <g id="m-ca6d8bdb-efcb-4acf-a301-7f39d9b62aff" class="measure">
               <g id="m-f5f78e3b-df3e-4a55-a694-a8d3a2f82ad6" class="staff">
                  <path d="M0 1730 L4215 1730" stroke="currentColor" stroke-width="13" />
                  <path d="M0 1910 L4215 1910" stroke="currentColor" stroke-width="13" />
                  <path d="M0 2090 L4215 2090" stroke="currentColor" stroke-width="13" />
                  <path d="M0 2270 L4215 2270" stroke="currentColor" stroke-width="13" />
                  <path d="M0 2450 L4215 2450" stroke="currentColor" stroke-width="13" />
                  <g id="cindwr2" class="clef">
                     <use xlink:href="#E069-lwyw7b" x="90" y="2090" height="720px" width="720px" />
                  </g>
                  <g id="kpiozz4" class="keySig" />
                  <g id="m196s1my" class="meterSig">
                     <use xlink:href="#E084-lwyw7b" x="490" y="1910" height="720px" width="720px" />
                     <use xlink:href="#E084-lwyw7b" x="490" y="2270" height="720px" width="720px" />
                  </g>
                  <g id="m-d57a1c54-5ef6-4b7e-85d3-828dad3877c8" class="layer">
                     <g id="m-17f8653f-8f2e-48d7-8c45-6aea5318296d" class="beam">
                        <polygon points="1242,1055 2010,1055 2010,1145 1242,1145" />
                        <polygon points="1701,1190 2010,1190 2010,1280 1701,1280" />
                        <g id="m-01e2fda1-c1e2-4815-88fc-bf0a315b3754" class="note">
                           <g class="notehead">
                              <use xlink:href="#E0A9-lwyw7b" x="1052" y="1640" height="720px" width="720px" />
                           </g>
                           <g id="s1verm1q" class="stem">
                              <path d="M1251 1561 L1251 1073" stroke="currentColor" stroke-width="18" />
                           </g>
                        </g>
                        <g id="m-a9622f95-b7da-4982-b2d8-8baf24c16b12" class="note">
                           <g class="notehead">
                              <use xlink:href="#E0A9-lwyw7b" x="1502" y="1640" height="720px" width="720px" />
                           </g>
                           <g id="szfg0iy" class="stem">
                              <path d="M1701 1561 L1701 1073" stroke="currentColor" stroke-width="18" />
                           </g>
                        </g>
                        <g id="m-410e338f-672b-43a2-acab-e25f40409085" class="note">
                           <g class="notehead">
                              <use xlink:href="#E0A9-lwyw7b" x="1802" y="1640" height="720px" width="720px" />
                           </g>
                           <g id="s150tdxh" class="stem">
                              <path d="M2001 1561 L2001 1073" stroke="currentColor" stroke-width="18" />
                           </g>
                        </g>
                     </g>
                     <g id="m-b7df8d1f-a37b-48d6-a0c2-fe30d15ea6f1" class="rest">
                        <use xlink:href="#E4E6-lwyw7b" x="2102" y="1550" height="720px" width="720px" />
                     </g>
                     <g id="m-87db6d81-e72e-4fd1-84a3-48caaf66d7bb" class="beam">
                        <polygon points="2742,1055 3060,1055 3060,1145 2742,1145" />
                        <polygon points="2742,1190 3060,1190 3060,1280 2742,1280" />
                        <g id="m-41cf011f-7bc7-49fa-b0f8-d9f0dae4e9d3" class="note">
                           <g class="notehead">
                              <use xlink:href="#E0A9-lwyw7b" x="2552" y="1640" height="720px" width="720px" />
                           </g>
                           <g id="sq7bloz" class="stem">
                              <path d="M2751 1561 L2751 1073" stroke="currentColor" stroke-width="18" />
                           </g>
                        </g>
                        <g id="m-86047638-0022-47ca-9cc2-95848c264464" class="note">
                           <g class="notehead">
                              <use xlink:href="#E0A9-lwyw7b" x="2852" y="1640" height="720px" width="720px" />
                           </g>
                           <g id="s43tp82" class="stem">
                              <path d="M3051 1561 L3051 1073" stroke="currentColor" stroke-width="18" />
                           </g>
                        </g>
                     </g>
                     <g id="m-c8b31be4-bcd3-424d-aaae-e38f90c10ee4" class="note">
                        <g class="notehead">
                           <use xlink:href="#E0B6-lwyw7b" x="3152" y="1640" height="720px" width="720px" />
                        </g>
                        <g id="s1g1comn" class="stem">
                           <path d="M3369 1612 L3369 1190" stroke="currentColor" stroke-width="18" />
                        </g>
                     </g>
                  </g>
                  <g id="m-a5c6f37c-30e4-4304-9c3b-ec3aaf71ab6e" class="layer">
                     <g id="m-1a71737b-089a-4f28-bdd1-4a293f1a840c" class="note">
                        <g class="notehead">
                           <use xlink:href="#E0A4-lwyw7b" x="1052" y="2540" height="720px" width="720px" />
                        </g>
                        <g id="s1m1fezg" class="stem">
                           <path d="M1061 2568 L1061 2990" stroke="currentColor" stroke-width="18" />
                        </g>
                     </g>
                     <g id="m-df6df3a7-f46e-4678-9081-b7429f0a9a21" class="chord">
                        <g id="s1a50owr" class="stem">
                           <path d="M2111 2118 L2111 2990" stroke="currentColor" stroke-width="18" />
                        </g>
                        <g id="m-c0d28a75-6431-48e3-80cc-5d84bea3eb99" class="note">
                           <g class="notehead">
                              <use xlink:href="#E0A4-lwyw7b" x="2102" y="2540" height="720px" width="720px" />
                           </g>
                        </g>
                        <g id="m-c6364a14-526d-4340-b495-091125b42908" class="note">
                           <g class="notehead">
                              <use xlink:href="#E0A4-lwyw7b" x="2102" y="2090" height="720px" width="720px" />
                           </g>
                           <g id="a1p4kg8x" class="accid" />
                        </g>
                     </g>
                     <g id="m-ecef3884-9cd1-49b7-8336-f2425cece3c4" class="note">
                        <g class="notehead">
                           <use xlink:href="#E0A4-lwyw7b" x="3152" y="2540" height="720px" width="720px" />
                        </g>
                        <g id="s198thtw" class="stem">
                           <path d="M3161 2568 L3161 2990" stroke="currentColor" stroke-width="18" />
                        </g>
                     </g>
                  </g>
               </g>
               <g id="b78ijzl" class="barLine">
                  <path d="M4202 1730 L4202 2450" stroke="currentColor" stroke-width="27" />
               </g>
            </g>
            <g id="swrq9mm" class="systemMilestoneEnd m-36c4efc7-8773-4cab-a8b8-8f74690d049d" />
         </g>
         <g id="p12oc3hg" class="pageMilestoneEnd m-373db87f-e847-40f3-ae76-180dcc9b7f00" />
         <g id="p1l6jvv0" class="pageMilestoneEnd m-8eaee9a3-7509-42b5-9643-fe2ce50773ba" />
         <g id="p2qvrqh" class="pgHead autogenerated">
            <text font-size="0px">
               <tspan id="rffdq16" class="rend" x="10000" y="415" text-anchor="middle">
                  <title class="labelAttr">title</title>
                  <tspan id="r4nd9ej" class="rend">
                     <tspan id="t14ns4pi" class="text">
                        <tspan font-size="607px">19_rock_100_beat_4-4</tspan>
                     </tspan>
                  </tspan>
                  <tspan id="l11zrkcc" class="lb" />
                  <tspan id="r1c15hrg" class="rend">
                     <tspan id="tstfm4z" class="text" x="10000" y="805">
                        <tspan font-size="324px">19_rock_100_beat_4-4</tspan>
                     </tspan>
                  </tspan>
               </tspan>
            </text>
         </g>
         <g id="pt26n8b" class="pgFoot autogenerated">
            <g id="f18mh0fw" class="fig">
               <g class="svg" transform="translate(7750, 28099) scale(10.000000, 10.000000)">
                  <g>
                     <path fill="#00000" d="M 17.11278,49.26451 V 10.367554 h 12.696511 c 3.288815,7.336676 6.71267,14.610456 10.127281,21.888976 3.419998,-7.484684 6.255515,-14.204887 9.58887,-21.909915 2.436207,0.103726 4.316952,0.08453 6.484294,-0.05808 V 49.264423 H 50.274275 C 50.145222,38.35639 50.016136,27.448368 49.887066,16.540329 45.003488,27.315459 39.967448,38.433564 35.083854,49.208695 34.678996,49.343717 34.426583,49.135619 34.021726,49.270644 29.46588,39.330716 24.910049,29.390805 20.354201,19.450876 20.224341,29.388756 20.09461,39.326619 19.964815,49.264497 H 17.11278 Z M 36.754144,39.324695 C 32.721221,30.512695 28.6883,21.700679 24.655394,12.888662 22.530527,12.750737 22.656775,12.71031 20.714356,12.813974 v 0.966497 c 4.612938,9.99784 9.609439,20.748709 13.87298,30.081745 0.722248,-1.512523 1.444528,-3.025014 2.166808,-4.537521 z m 25.738417,9.939815 c 0,-12.965651 0,-25.931305 0,-38.896956 10.084388,0 20.168791,0 30.253178,0 0,0.960416 0,1.920849 0,2.881265 -6.482825,0 -12.965652,0 -19.448478,0 0,4.802097 0,9.604178 0,14.406277 5.52241,0 11.044819,0 16.567229,0 0,0.960415 0,1.920832 0,2.881248 -5.52241,0 -11.044819,0 -16.567229,0 0,5.282306 0,10.564611 0,15.846917 6.963035,0 13.926068,0 20.889103,0 0,0.960416 0,1.920832 0,2.881249 -10.564597,0 -21.129207,0 -31.693803,0 z m 4.321874,-2.160937 c 0,-11.765131 0,-23.530263 0,-35.295394 -0.720312,0 -1.440625,0 -2.160937,0 0,11.765131 0,23.530263 0,35.295394 0.720312,0 1.440625,0 2.160937,0 z m 32.41413,2.160937 c 0,-12.965651 0,-25.931305 0,-38.896956 2.401045,0 4.802095,0 7.203135,0 0,12.965651 0,25.931305 0,38.896956 -2.40104,0 -4.80209,0 -7.203135,0 z m 2.881265,-2.160937 c 0,-11.765131 0,-23.530263 0,-35.295394 -0.72031,0 -1.44064,0 -2.160953,0 0,11.765131 0,23.530263 0,35.295394 0.720313,0 1.440643,0 2.160953,0 z" />
                     <path fill="#00000" d="m 346.3,6.7 c -3.1,0.5 -4.9,4.4 -2.7,6.8 1.2,1.4 2.7,2.4 4.1,3.5 -2.4,5.3 -7.7,8.3 -11.9,12.1 -3.7,2.8 -7,6.2 -9.7,9.9 -2.2,-0.8 -0.3,-6.8 -0.6,-9.5 0.1,-3.1 0.7,-6.4 2.9,-8.7 1.3,-1.9 3,-3.5 4.5,-5.2 1.2,-3.4 -3.2,-4.9 -5.8,-4.6 -7.3,-0.5 -14.6,2 -20,6.8 -5,4.6 -10,10.1 -11.5,17 -0.9,3.5 -0.2,7.5 2.8,9.9 2.5,2.8 7.4,2.9 9.8,-0.2 1.7,-2.3 3.2,-4.8 3.8,-7.6 -0.1,-2.6 -4.4,-2.3 -4.3,0.2 1.2,2.4 -0.9,4.7 -2.7,6.2 -1.7,0.9 -4.7,0.7 -4.8,-1.7 -1,-5.8 2.1,-11.3 5.2,-16.1 4,-5.8 9.8,-11.2 17.2,-11.8 1.6,0 8.1,-1.2 6.8,1.4 -2.8,2.8 -5.6,6.1 -6,10.3 -1.6,7.7 0.1,15.7 -2.3,23.2 -1.1,3.9 2,2.6 2.5,0.2 3.3,-7.4 8.9,-13.4 15.1,-18.5 4.2,-3.9 9.5,-7.1 11.9,-12.6 1.3,-3.6 1.2,-9 -2.7,-10.9 -0.6,-0.2 -1.2,-0.3 -1.8,-0.3 z m 66,14.5 c -2,0.8 -1.8,4.9 0.8,4.4 3.4,0.4 2.9,-6.2 -0.8,-4.4 z m 0.6,7.3 c -1.3,0.5 -7.6,0.5 -5.4,2.2 4,-0.3 0.7,4.5 0.6,6.7 -0.4,2.9 -2.4,5.9 -1.2,8.8 2.7,1.7 5.6,-0.8 6.8,-3.2 1.6,-1.4 -0.5,-3 -1.2,-0.9 -0.4,0.8 -2.4,3.5 -2.6,1.8 1.1,-5 2.7,-9.9 3.9,-14.9 l -0.1,-0.5 h -0.9 z m -65.1,0.2 c -6.5,1.6 -10.5,9.5 -8.2,15.7 2.1,3.4 7.4,2.9 10.1,0.4 2,-0.2 3.6,-5.3 1,-3.4 -1.4,2 -4,4.2 -6.5,2.8 -2.2,-1.9 -1.9,-5.7 1.7,-5.3 3.1,-0.9 6.9,-2.1 8.1,-5.5 0.9,-2.7 -1.6,-5.2 -4.3,-4.8 h -1.1 -0.7 z m 13.6,0 c -2.2,0 -8.5,1.8 -2.9,2.3 0.9,1.9 -1,4.9 -1.1,7.2 -0.5,2.9 -1.4,5.7 -1.7,8.7 3.7,0.7 3.8,-2.6 4.4,-5.3 0.9,-3.3 1.6,-7 4.1,-9.5 2.4,1.6 6.8,-0.7 3.7,-3.4 -2.9,-0.5 -4.8,2.4 -6.2,4.3 0,-1.2 2.4,-5 -0.2,-4.3 z m 15.8,0 c -6.4,1.3 -9.6,9.1 -7.7,14.9 1.9,4 7.7,3.9 11,1.7 4.1,-3 6,-8.9 4.4,-13.7 -1.3,-3 -4.8,-3.2 -7.6,-3 z m 17,0 c -2.3,0 -8.8,1.9 -3,2.4 0.4,2.5 -1,5.7 -1.4,8.4 -0.7,2.4 -1.8,7.5 2.1,7.2 3.8,-0.1 6.5,-3.5 8.5,-6.3 2,-3.2 4.5,-7 3.3,-10.9 -3.7,-3 -3.6,2.6 -3.1,5.1 -0.7,3.8 -2.7,7.9 -6.2,9.8 -3.6,0.6 -1,-4.3 -0.8,-6.1 0.6,-3.2 1.6,-6.3 1.9,-9.5 -0.4,0 -0.8,0 -1.1,0 z m 30.6,0 c -6.3,1.2 -9.5,8.9 -7.8,14.7 1.5,4 7.2,4.2 10.5,2.4 4.6,-2.8 6.6,-9.3 4.8,-14.3 -1.4,-2.8 -4.8,-3 -7.5,-2.8 z m -75.4,1.7 c 2.1,1.5 0.2,4.7 -1.6,5.7 -1.1,0.4 -5.5,3.4 -4.6,0.7 0.8,-2.7 2.2,-6.2 5.3,-6.6 l 0.9,0.1 z m 30.8,0 c 2.6,1.5 1.3,5.2 0.8,7.6 -0.8,2.7 -1.9,5.9 -4.7,7.1 -5.1,0.8 -4,-5.8 -2.8,-8.8 1,-2.8 3,-6.8 6.7,-5.8 z m 47.1,-0.1 c 2.9,0.7 2,4.7 1.5,6.8 -0.7,3 -1.8,6.7 -5,8 -4.7,0.8 -4,-5.1 -3,-7.9 0.9,-3 2.7,-7.3 6.5,-6.8 z m -88.1,5.9 c -0.3,1.3 0.9,-0.6 0,0 z m -1.1,2.4 c -0.2,0.5 0.5,-0.1 0,0 z m -1.3,4.5 c -0.3,1.3 0.8,-0.2 0,0 z" />
                     <text y="41" x="201" fill="#00000" style="font-style:italic;font-weight:normal;font-size:30px;line-height:125%;font-family:Times;text-anchor:middle" xml:space="preserve">engraved with</text>
                  </g>
               </g>
            </g>
         </g>
      </g>
   </svg>
</svg>
