<?xml version="1.0" encoding="UTF-8" standalone="no"?>
<svg width="2100px" height="2970px" version="1.1" xmlns="http://www.w3.org/2000/svg" xmlns:xlink="http://www.w3.org/1999/xlink" xmlns:mei="http://www.music-encoding.org/ns/mei" overflow="visible">
   <desc>Engraved by Verovio 4.4.0-66ab39c</desc>
   <defs>
      <symbol id="E084-1u13k6p" viewBox="0 0 1000 1000" overflow="inherit">
         <path transform="scale(1,-1)" d="M20 -78c84 97 114 180 134 329h170c-13 -32 -82 -132 -99 -151l-84 -97c-33 -36 -59 -63 -80 -81h162v102l127 123v-225h57v-39h-57v-34c0 -43 19 -65 57 -65v-34h-244v36c48 0 60 26 60 70v27h-203v39z" />
      </symbol>
      <symbol id="E0A4-1u13k6p" viewBox="0 0 1000 1000" overflow="inherit">
         <path transform="scale(1,-1)" d="M0 -39c0 68 73 172 200 172c66 0 114 -37 114 -95c0 -84 -106 -171 -218 -171c-64 0 -96 30 -96 94z" />
      </symbol>
      <symbol id="E240-1u13k6p" viewBox="0 0 1000 1000" overflow="inherit">
         <path transform="scale(1,-1)" d="M179 -646c15 29 29 55 46 102c18 49 30 108 30 138c0 105 -80 173 -168 200c-18 5 -47 9 -87 16v190h22c8 0 33 -61 71 -95c4 -3 -2 3 61 -56c62 -58 122 -137 122 -241c0 -38 -13 -106 -35 -163c-20 -51 -43 -99 -66 -132c-6 -5 -10 -7 -13 -7s-5 2 -5 5l4 10 c1 3 14 25 18 33z" />
      </symbol>
      <symbol id="E4E5-1u13k6p" viewBox="0 0 1000 1000" overflow="inherit">
         <path transform="scale(1,-1)" d="M107 292c-13 24 -30 49 -52 71c-1 1 0 2 0 3l-2 2c3 3 4 4 6 4c12 0 26 -7 40 -20s44 -40 89 -81c26 -24 28 -29 46 -47c4 -4 8 -9 10 -14c6 -8 8 -16 8 -27c0 -19 -12 -40 -36 -61c-28 -23 -49 -38 -61 -73c-4 -11 -7 -27 -10 -50c13 -43 34 -83 59 -121 c31 -47 59 -79 101 -129c-8 0 -26 7 -54 20l-62 29l-21 6l-23 1c-25 0 -45 -10 -60 -30l-4 -14l-1 -12c0 -33 20 -56 39 -78c8 -9 17 -18 26 -26c17 -15 27 -24 28 -30l-3 -3c-11 5 -19 10 -25 15c-9 3 -37 21 -45 26c-24 14 -45 32 -63 51c-19 21 -37 44 -37 71 c0 63 27 95 80 95c41 0 86 -18 136 -52c-19 26 -37 48 -55 66c-23 23 -48 44 -73 65c-28 23 -47 40 -58 53s-17 26 -18 39c75 64 113 125 113 183c0 27 -7 48 -18 68z" />
      </symbol>
      <symbol id="E4E7-1u13k6p" viewBox="0 0 1000 1000" overflow="inherit">
         <path transform="scale(1,-1)" d="M133 -111c0 -33 -21 -50 -52 -55c10 -3 18 -4 25 -4c40 0 69 24 90 47l66 197c-36 -18 -64 -25 -112 -25c-23 0 -38 3 -45 8c-37 7 -55 27 -55 59c8 35 30 54 68 58c45 -6 49 -13 64 -48c0 -3 1 -5 1 -7c0 -27 -25 -46 -52 -49c6 -4 15 -6 26 -6c32 2 62 14 88 29 c32 19 44 36 59 71l7 1l10 2h4c-72 -220 -143 -439 -215 -659h-37l108 324c-20 -13 -51 -20 -82 -20c-21 0 -35 4 -43 10c-37 6 -55 26 -55 58c8 35 31 56 68 60c43 -8 48 -13 64 -51z" />
      </symbol>
      <symbol id="E069-1u13k6p" viewBox="0 0 1000 1000" overflow="inherit">
         <path transform="scale(1,-1)" d="M200 250h125v-500h-125v500zM0 250h125v-500h-125v500z" />
      </symbol>
      <symbol id="E0A9-1u13k6p" viewBox="0 0 1000 1000" overflow="inherit">
         <path transform="scale(1,-1)" d="M0 -110c0 4 1 8 5 11l119 99l-119 100c-3 3 -5 8 -5 12c0 6 5 13 12 13c3 0 6 -1 8 -2l124 -105l126 105c2 1 5 2 7 2c6 0 13 -6 13 -14c0 -4 -2 -9 -5 -11l-119 -100l119 -99c3 -3 5 -7 5 -12c0 -6 -5 -14 -13 -14c-2 0 -5 1 -7 3l-126 105l-124 -105c-2 -2 -4 -3 -7 -3 c-8 0 -13 7 -13 15z" />
      </symbol>
   </defs>
   <style type="text/css">g.page-margin{font-family:Times,serif;} g.ending, g.fing, g.reh, g.tempo{font-weight:bold;} g.dir, g.dynam, g.mNum{font-style:italic;} g.label{font-weight:normal;}</style>
   <svg class="definition-scale" color="black" viewBox="0 0 21000 29700">
      <g class="page-margin" transform="translate(500, 500)">
         <g id="m-a853d644-fdf2-402d-b914-966a5c24ca0c" class="mdiv pageMilestone" />
         <g id="m-39c54678-ed75-48b9-8025-a940a188e625" class="score pageMilestone" />
         <g id="s1n7vjhn" class="system">
            <g id="m-413c2749-c460-40d6-ba3f-d3d511d08fa2" class="section systemMilestone" />
            <g id="m-cb983da2-bb99-460e-afbf-bd09c0d77aec" class="measure">
               <g id="m-9350835e-36b3-4406-a658-7c62dc494b99" class="staff">
                  <path d="M0 1730 L5300 1730" stroke="currentColor" stroke-width="13" />
                  <path d="M0 1910 L5300 1910" stroke="currentColor" stroke-width="13" />
                  <path d="M0 2090 L5300 2090" stroke="currentColor" stroke-width="13" />
                  <path d="M0 2270 L5300 2270" stroke="currentColor" stroke-width="13" />
                  <path d="M0 2450 L5300 2450" stroke="currentColor" stroke-width="13" />
                  <g id="czqjy3e" class="clef">
                     <use xlink:href="#E069-1u13k6p" x="90" y="2090" height="720px" width="720px" />
                  </g>
                  <g id="kpj9gqx" class="keySig" />
                  <g id="mdvuf6r" class="meterSig">
                     <use xlink:href="#E084-1u13k6p" x="490" y="1910" height="720px" width="720px" />
                     <use xlink:href="#E084-1u13k6p" x="490" y="2270" height="720px" width="720px" />
                  </g>
                  <g class="ledgerLines below">
                     <path d="M1454 2630 L1758 2630" stroke="currentColor" stroke-width="22" />
                  </g>
                  <g id="m-3a07288d-a1a6-47ad-8392-7655a8042619" class="layer">
                     <g id="m-74e78b69-53fc-4021-bd91-556292ec43e3" class="note">
                        <g class="notehead">
                           <use xlink:href="#E0A9-1u13k6p" x="1052" y="1640" height="720px" width="720px" />
                        </g>
                        <g id="s22q1lb" class="stem">
                           <path d="M1251 1561 L1251 1190" stroke="currentColor" stroke-width="18" />
                        </g>
                     </g>
                     <g id="m-507412a4-8e8b-4261-883c-4f60c3e0fa35" class="beam">
                        <polygon points="2142,1190 2610,1190 2610,1280 2142,1280" />
                        <g id="m-822336fb-fe5a-462b-9f71-c1534886f04e" class="note">
                           <g class="notehead">
                              <use xlink:href="#E0A9-1u13k6p" x="1952" y="1640" height="720px" width="720px" />
                           </g>
                           <g id="stadcto" class="stem">
                              <path d="M2151 1561 L2151 1208" stroke="currentColor" stroke-width="18" />
                           </g>
                        </g>
                        <g id="m-dad30e2c-3b54-4f87-b703-83f9ff7876f8" class="note">
                           <g class="notehead">
                              <use xlink:href="#E0A9-1u13k6p" x="2402" y="1640" height="720px" width="720px" />
                           </g>
                           <g id="s1lnnoie" class="stem">
                              <path d="M2601 1561 L2601 1208" stroke="currentColor" stroke-width="18" />
                           </g>
                        </g>
                     </g>
                     <g id="m-0a101015-b1bc-4eb5-954b-90740659cae4" class="beam">
                        <polygon points="3042,1055 3960,1055 3960,1145 3042,1145" />
                        <polygon points="3042,1190 3351,1190 3351,1280 3042,1280" />
                        <polygon points="3351,1190 3651,1190 3651,1280 3351,1280" />
                        <polygon points="3651,1190 3960,1190 3960,1280 3651,1280" />
                        <g id="m-ee300062-f7c9-4fb9-b18c-08c81b6abf30" class="note">
                           <g class="notehead">
                              <use xlink:href="#E0A9-1u13k6p" x="2852" y="1640" height="720px" width="720px" />
                           </g>
                           <g id="s1ytzzo4" class="stem">
                              <path d="M3051 1561 L3051 1073" stroke="currentColor" stroke-width="18" />
                           </g>
                        </g>
                        <g id="m-8894bdb1-b7c1-4c4e-9bf9-b52148824d3a" class="note">
                           <g class="notehead">
                              <use xlink:href="#E0A9-1u13k6p" x="3152" y="1640" height="720px" width="720px" />
                           </g>
                           <g id="sum3ftq" class="stem">
                              <path d="M3351 1561 L3351 1073" stroke="currentColor" stroke-width="18" />
                           </g>
                        </g>
                        <g id="m-b506a438-ceed-4e7b-aaec-f64cd27a5109" class="note">
                           <g class="notehead">
                              <use xlink:href="#E0A9-1u13k6p" x="3452" y="1640" height="720px" width="720px" />
                           </g>
                           <g id="s1438mcg" class="stem">
                              <path d="M3651 1561 L3651 1073" stroke="currentColor" stroke-width="18" />
                           </g>
                        </g>
                        <g id="m-cebf860e-1c51-48ee-bfac-0674f48a02a5" class="note">
                           <g class="notehead">
                              <use xlink:href="#E0A9-1u13k6p" x="3752" y="1640" height="720px" width="720px" />
                           </g>
                           <g id="s7w5xfa" class="stem">
                              <path d="M3951 1561 L3951 1073" stroke="currentColor" stroke-width="18" />
                           </g>
                        </g>
                     </g>
                     <g id="m-8d2a325d-7c56-42ca-97c6-5d186f6063e3" class="rest">
                        <use xlink:href="#E4E7-1u13k6p" x="4052" y="1370" height="720px" width="720px" />
                     </g>
                     <g id="m-0f963073-d3aa-4680-9b02-933f4630d16a" class="beam">
                        <polygon points="4565,1055 5183,1055 5183,1145 4565,1145" />
                        <polygon points="4565,1190 4874,1190 4874,1280 4565,1280" />
                        <polygon points="4874,1190 5183,1190 5183,1280 4874,1280" />
                        <g id="m-fe55efaf-717d-495c-b56f-374b392940f4" class="note">
                           <g class="notehead">
                              <use xlink:href="#E0A9-1u13k6p" x="4375" y="1640" height="720px" width="720px" />
                           </g>
                           <g id="s15x1o1k" class="stem">
                              <path d="M4574 1561 L4574 1073" stroke="currentColor" stroke-width="18" />
                           </g>
                        </g>
                        <g id="m-91136df6-c5ad-40d0-bbf2-3c11d99c2cc3" class="note">
                           <g class="notehead">
                              <use xlink:href="#E0A9-1u13k6p" x="4675" y="1640" height="720px" width="720px" />
                           </g>
                           <g id="s9r6tf" class="stem">
                              <path d="M4874 1561 L4874 1073" stroke="currentColor" stroke-width="18" />
                           </g>
                        </g>
                        <g id="m-88250b94-f12c-4885-882b-9b91fdac3075" class="note">
                           <g class="notehead">
                              <use xlink:href="#E0A9-1u13k6p" x="4975" y="1640" height="720px" width="720px" />
                           </g>
                           <g id="s1y7x27u" class="stem">
                              <path d="M5174 1561 L5174 1073" stroke="currentColor" stroke-width="18" />
                           </g>
                        </g>
                     </g>
                  </g>
                  <g id="m-3ecda578-f42b-453d-9288-7b21e13148d9" class="layer">
                     <g id="m-0c06ab72-9d46-4d2a-b30e-0e13a2e197fa" class="beam">
                        <polygon points="1052,3170 1520,3215 1520,3125 1052,3080" />
                        <g id="m-af782be5-bb1a-4b4c-883e-e0d7856d12a3" class="note">
                           <g class="notehead">
                              <use xlink:href="#E0A4-1u13k6p" x="1052" y="2540" height="720px" width="720px" />
                           </g>
                           <g id="sa8c1sr" class="stem">
                              <path d="M1061 2568 L1061 3152" stroke="currentColor" stroke-width="18" />
                           </g>
                        </g>
                        <g id="m-9d78f9df-da8c-40d4-b0e5-6a1f12d1bd55" class="note">
                           <g class="notehead">
                              <use xlink:href="#E0A9-1u13k6p" x="1502" y="2720" height="720px" width="720px" />
                           </g>
                           <g id="s1mxh2lz" class="stem">
                              <path d="M1511 2799 L1511 3197" stroke="currentColor" stroke-width="18" />
                           </g>
                           <g id="a1kmfl53" class="accid" />
                        </g>
                     </g>
                     <g id="m-b5375a23-e076-4087-8f63-c33a605733b5" class="note">
                        <g class="notehead">
                           <use xlink:href="#E0A4-1u13k6p" x="1952" y="2090" height="720px" width="720px" />
                        </g>
                        <g id="s1u04hl9" class="stem">
                           <path d="M1961 2118 L1961 2690" stroke="currentColor" stroke-width="18" />
                        </g>
                        <g id="asp1wfa" class="accid" />
                     </g>
                     <g id="m-dc4200f1-ae0e-47e5-b44c-2d657881b485" class="rest">
                        <use xlink:href="#E4E5-1u13k6p" x="2852" y="2270" height="720px" width="720px" />
                     </g>
                     <g id="m-901bea46-3493-4d54-a3fd-1c8c2b04f844" class="note">
                        <g class="notehead">
                           <use xlink:href="#E0A4-1u13k6p" x="4052" y="2090" height="720px" width="720px" />
                        </g>
                        <g id="s1vetu9b" class="stem">
                           <path d="M4061 2118 L4061 2690" stroke="currentColor" stroke-width="18" />
                        </g>
                        <g id="aqm425" class="accid" />
                     </g>
                  </g>
               </g>
               <g id="b1hkg4kr" class="barLine">
                  <path d="M5287 1730 L5287 2450" stroke="currentColor" stroke-width="27" />
               </g>
            </g>
            <g id="m-d031a690-5b52-4a51-bee1-b505780153a3" class="measure">
               <g id="m-1daad23c-ecf2-4dfb-91c2-4e5679bb3748" class="staff">
                  <path d="M5300 1730 L9412 1730" stroke="currentColor" stroke-width="13" />
                  <path d="M5300 1910 L9412 1910" stroke="currentColor" stroke-width="13" />
                  <path d="M5300 2090 L9412 2090" stroke="currentColor" stroke-width="13" />
                  <path d="M5300 2270 L9412 2270" stroke="currentColor" stroke-width="13" />
                  <path d="M5300 2450 L9412 2450" stroke="currentColor" stroke-width="13" />
                  <g class="ledgerLines below">
                     <path d="M5882 2630 L6186 2630" stroke="currentColor" stroke-width="22" />
                  </g>
                  <g id="m-7a6e0534-15f3-439c-82f6-aead53104a8a" class="layer">
                     <g id="m-d8d20c90-e328-46cd-839f-1856d4834656" class="beam">
                        <polygon points="5670,1190 6138,1190 6138,1280 5670,1280" />
                        <g id="m-d64f7ae8-d16c-4205-9b84-a7ba933e9318" class="note">
                           <g class="notehead">
                              <use xlink:href="#E0A9-1u13k6p" x="5480" y="1640" height="720px" width="720px" />
                           </g>
                           <g id="s1dmbnso" class="stem">
                              <path d="M5679 1561 L5679 1208" stroke="currentColor" stroke-width="18" />
                           </g>
                        </g>
                        <g id="m-cd21c344-caae-47c2-8bd6-448a1600866d" class="note">
                           <g class="notehead">
                              <use xlink:href="#E0A9-1u13k6p" x="5930" y="1640" height="720px" width="720px" />
                           </g>
                           <g id="s12sll6j" class="stem">
                              <path d="M6129 1561 L6129 1208" stroke="currentColor" stroke-width="18" />
                           </g>
                        </g>
                     </g>
                     <g id="m-8be118c7-4aea-4a65-8910-7b1feda8f751" class="beam">
                        <polygon points="6570,1190 7038,1190 7038,1280 6570,1280" />
                        <g id="m-87dcbdcc-3f94-4c70-99b6-c1ed941da568" class="note">
                           <g class="notehead">
                              <use xlink:href="#E0A9-1u13k6p" x="6380" y="1640" height="720px" width="720px" />
                           </g>
                           <g id="suj0j2s" class="stem">
                              <path d="M6579 1561 L6579 1208" stroke="currentColor" stroke-width="18" />
                           </g>
                        </g>
                        <g id="m-bedfa232-da83-4db3-9d4a-50ea1ae4e1ee" class="note">
                           <g class="notehead">
                              <use xlink:href="#E0A9-1u13k6p" x="6830" y="1640" height="720px" width="720px" />
                           </g>
                           <g id="sv1uuj1" class="stem">
                              <path d="M7029 1561 L7029 1208" stroke="currentColor" stroke-width="18" />
                           </g>
                        </g>
                     </g>
                     <g id="m-66062acf-3b17-4ea2-9223-59cb02272e5a" class="beam">
                        <polygon points="7470,1055 8388,1055 8388,1145 7470,1145" />
                        <polygon points="7470,1190 7779,1190 7779,1280 7470,1280" />
                        <polygon points="7779,1190 8079,1190 8079,1280 7779,1280" />
                        <polygon points="8079,1190 8388,1190 8388,1280 8079,1280" />
                        <g id="m-03790e0f-ac14-4d22-95f3-f0ff4d46bd8c" class="note">
                           <g class="notehead">
                              <use xlink:href="#E0A9-1u13k6p" x="7280" y="1640" height="720px" width="720px" />
                           </g>
                           <g id="szxrhll" class="stem">
                              <path d="M7479 1561 L7479 1073" stroke="currentColor" stroke-width="18" />
                           </g>
                        </g>
                        <g id="m-b8a05c0f-8c48-49fe-8f9c-f28b32998ae9" class="note">
                           <g class="notehead">
                              <use xlink:href="#E0A9-1u13k6p" x="7580" y="1640" height="720px" width="720px" />
                           </g>
                           <g id="sqc8wf9" class="stem">
                              <path d="M7779 1561 L7779 1073" stroke="currentColor" stroke-width="18" />
                           </g>
                        </g>
                        <g id="m-41d13cec-d496-4a0f-a597-567fc2199e38" class="note">
                           <g class="notehead">
                              <use xlink:href="#E0A9-1u13k6p" x="7880" y="1640" height="720px" width="720px" />
                           </g>
                           <g id="s8c87tz" class="stem">
                              <path d="M8079 1561 L8079 1073" stroke="currentColor" stroke-width="18" />
                           </g>
                        </g>
                        <g id="m-a0b7a6b7-8ae6-4811-b972-b2ca886c6ab6" class="note">
                           <g class="notehead">
                              <use xlink:href="#E0A9-1u13k6p" x="8180" y="1640" height="720px" width="720px" />
                           </g>
                           <g id="sju604x" class="stem">
                              <path d="M8379 1561 L8379 1073" stroke="currentColor" stroke-width="18" />
                           </g>
                        </g>
                     </g>
                     <g id="m-e10eec13-a38c-4388-b9c2-742f6bbeadfb" class="rest">
                        <use xlink:href="#E4E7-1u13k6p" x="8480" y="1370" height="720px" width="720px" />
                     </g>
                     <g id="m-9e31934f-f9dd-4325-9d92-9202b1c515fd" class="note">
                        <g class="notehead">
                           <use xlink:href="#E0A9-1u13k6p" x="8803" y="1640" height="720px" width="720px" />
                        </g>
                        <g id="d1pop73f" class="dots">
                           <ellipse cx="9259" cy="1640" rx="36" ry="36" />
                        </g>
                        <g id="s19hcxj1" class="stem">
                           <path d="M9002 1561 L9002 1130" stroke="currentColor" stroke-width="18" />
                           <g id="f1iw9ao6" class="flag">
                              <use xlink:href="#E240-1u13k6p" x="8993" y="1130" height="720px" width="720px" />
                           </g>
                        </g>
                     </g>
                  </g>
                  <g id="m-587856cc-b83f-4eab-b5cf-6b94f5d7e5f6" class="layer">
                     <g id="m-c3f31db5-3e86-4157-bfd7-d2f6127c53d3" class="beam">
                        <polygon points="5480,3170 5948,3215 5948,3125 5480,3080" />
                        <g id="m-6976e7e9-3b83-462a-a595-01bb5111d682" class="note">
                           <g class="notehead">
                              <use xlink:href="#E0A4-1u13k6p" x="5480" y="2540" height="720px" width="720px" />
                           </g>
                           <g id="sdal74i" class="stem">
                              <path d="M5489 2568 L5489 3152" stroke="currentColor" stroke-width="18" />
                           </g>
                        </g>
                        <g id="m-54599f37-64a8-42da-9aa9-523ea1ff3daa" class="chord">
                           <g id="s1gcus6y" class="stem">
                              <path d="M5939 2568 L5939 3197" stroke="currentColor" stroke-width="18" />
                           </g>
                           <g id="m-c40eefb8-a42e-4a96-a606-41663744e5a9" class="note">
                              <g class="notehead">
                                 <use xlink:href="#E0A9-1u13k6p" x="5930" y="2720" height="720px" width="720px" />
                              </g>
                              <g id="anp4b5o" class="accid" />
                           </g>
                           <g id="m-b36e943c-ea26-4ace-a96c-f99eb7953b13" class="note">
                              <g class="notehead">
                                 <use xlink:href="#E0A4-1u13k6p" x="5930" y="2540" height="720px" width="720px" />
                              </g>
                           </g>
                        </g>
                     </g>
                     <g id="m-6b2fd01f-aad8-4fa3-b01b-99310c01e677" class="note">
                        <g class="notehead">
                           <use xlink:href="#E0A4-1u13k6p" x="6380" y="2090" height="720px" width="720px" />
                        </g>
                        <g id="s1ynojnp" class="stem">
                           <path d="M6389 2118 L6389 2690" stroke="currentColor" stroke-width="18" />
                        </g>
                        <g id="a1kj9lwc" class="accid" />
                     </g>
                     <g id="m-fe755c7f-2fd7-492d-a42f-f421fda6db28" class="rest">
                        <use xlink:href="#E4E5-1u13k6p" x="7280" y="2270" height="720px" width="720px" />
                     </g>
                     <g id="m-a47dd47b-5f8d-4de5-aed5-094a8bebd0f0" class="note">
                        <g class="notehead">
                           <use xlink:href="#E0A4-1u13k6p" x="8480" y="2090" height="720px" width="720px" />
                        </g>
                        <g id="s1h6l06u" class="stem">
                           <path d="M8489 2118 L8489 2690" stroke="currentColor" stroke-width="18" />
                        </g>
                        <g id="a2s0txy" class="accid" />
                     </g>
                  </g>
               </g>
               <g id="b18xoccx" class="barLine">
                  <path d="M9399 1730 L9399 2450" stroke="currentColor" stroke-width="27" />
               </g>
            </g>
            <g id="s1l75mkd" class="systemMilestoneEnd m-413c2749-c460-40d6-ba3f-d3d511d08fa2" />
         </g>
         <g id="pq0j142" class="pageMilestoneEnd m-39c54678-ed75-48b9-8025-a940a188e625" />
         <g id="p1ccved" class="pageMilestoneEnd m-a853d644-fdf2-402d-b914-966a5c24ca0c" />
         <g id="p7zizg0" class="pgHead autogenerated">
            <text font-size="0px">
               <tspan id="r12zy7nw" class="rend" x="10000" y="415" text-anchor="middle">
                  <title class="labelAttr">title</title>
                  <tspan id="rqxsqs8" class="rend">
                     <tspan id="t1bo4iue" class="text">
                        <tspan font-size="607px">33_hiphop_92_beat_4-4</tspan>
                     </tspan>
                  </tspan>
                  <tspan id="ll4j7jw" class="lb" />
                  <tspan id="r1u396lt" class="rend">
                     <tspan id="t192tanf" class="text" x="10000" y="805">
                        <tspan font-size="324px">33_hiphop_92_beat_4-4</tspan>
                     </tspan>
                  </tspan>
               </tspan>
            </text>
         </g>
         <g id="pktnf15" class="pgFoot autogenerated">
            <g id="f1r7n1vz" class="fig">
               <g class="svg" transform="translate(7750, 28099) scale(10.000000, 10.000000)">
                  <g>
                     <path fill="#00000" d="M 17.11278,49.26451 V 10.367554 h 12.696511 c 3.288815,7.336676 6.71267,14.610456 10.127281,21.888976 3.419998,-7.484684 6.255515,-14.204887 9.58887,-21.909915 2.436207,0.103726 4.316952,0.08453 6.484294,-0.05808 V 49.264423 H 50.274275 C 50.145222,38.35639 50.016136,27.448368 49.887066,16.540329 45.003488,27.315459 39.967448,38.433564 35.083854,49.208695 34.678996,49.343717 34.426583,49.135619 34.021726,49.270644 29.46588,39.330716 24.910049,29.390805 20.354201,19.450876 20.224341,29.388756 20.09461,39.326619 19.964815,49.264497 H 17.11278 Z M 36.754144,39.324695 C 32.721221,30.512695 28.6883,21.700679 24.655394,12.888662 22.530527,12.750737 22.656775,12.71031 20.714356,12.813974 v 0.966497 c 4.612938,9.99784 9.609439,20.748709 13.87298,30.081745 0.722248,-1.512523 1.444528,-3.025014 2.166808,-4.537521 z m 25.738417,9.939815 c 0,-12.965651 0,-25.931305 0,-38.896956 10.084388,0 20.168791,0 30.253178,0 0,0.960416 0,1.920849 0,2.881265 -6.482825,0 -12.965652,0 -19.448478,0 0,4.802097 0,9.604178 0,14.406277 5.52241,0 11.044819,0 16.567229,0 0,0.960415 0,1.920832 0,2.881248 -5.52241,0 -11.044819,0 -16.567229,0 0,5.282306 0,10.564611 0,15.846917 6.963035,0 13.926068,0 20.889103,0 0,0.960416 0,1.920832 0,2.881249 -10.564597,0 -21.129207,0 -31.693803,0 z m 4.321874,-2.160937 c 0,-11.765131 0,-23.530263 0,-35.295394 -0.720312,0 -1.440625,0 -2.160937,0 0,11.765131 0,23.530263 0,35.295394 0.720312,0 1.440625,0 2.160937,0 z m 32.41413,2.160937 c 0,-12.965651 0,-25.931305 0,-38.896956 2.401045,0 4.802095,0 7.203135,0 0,12.965651 0,25.931305 0,38.896956 -2.40104,0 -4.80209,0 -7.203135,0 z m 2.881265,-2.160937 c 0,-11.765131 0,-23.530263 0,-35.295394 -0.72031,0 -1.44064,0 -2.160953,0 0,11.765131 0,23.530263 0,35.295394 0.720313,0 1.440643,0 2.160953,0 z" />
                     <path fill="#00000" d="m 346.3,6.7 c -3.1,0.5 -4.9,4.4 -2.7,6.8 1.2,1.4 2.7,2.4 4.1,3.5 -2.4,5.3 -7.7,8.3 -11.9,12.1 -3.7,2.8 -7,6.2 -9.7,9.9 -2.2,-0.8 -0.3,-6.8 -0.6,-9.5 0.1,-3.1 0.7,-6.4 2.9,-8.7 1.3,-1.9 3,-3.5 4.5,-5.2 1.2,-3.4 -3.2,-4.9 -5.8,-4.6 -7.3,-0.5 -14.6,2 -20,6.8 -5,4.6 -10,10.1 -11.5,17 -0.9,3.5 -0.2,7.5 2.8,9.9 2.5,2.8 7.4,2.9 9.8,-0.2 1.7,-2.3 3.2,-4.8 3.8,-7.6 -0.1,-2.6 -4.4,-2.3 -4.3,0.2 1.2,2.4 -0.9,4.7 -2.7,6.2 -1.7,0.9 -4.7,0.7 -4.8,-1.7 -1,-5.8 2.1,-11.3 5.2,-16.1 4,-5.8 9.8,-11.2 17.2,-11.8 1.6,0 8.1,-1.2 6.8,1.4 -2.8,2.8 -5.6,6.1 -6,10.3 -1.6,7.7 0.1,15.7 -2.3,23.2 -1.1,3.9 2,2.6 2.5,0.2 3.3,-7.4 8.9,-13.4 15.1,-18.5 4.2,-3.9 9.5,-7.1 11.9,-12.6 1.3,-3.6 1.2,-9 -2.7,-10.9 -0.6,-0.2 -1.2,-0.3 -1.8,-0.3 z m 66,14.5 c -2,0.8 -1.8,4.9 0.8,4.4 3.4,0.4 2.9,-6.2 -0.8,-4.4 z m 0.6,7.3 c -1.3,0.5 -7.6,0.5 -5.4,2.2 4,-0.3 0.7,4.5 0.6,6.7 -0.4,2.9 -2.4,5.9 -1.2,8.8 2.7,1.7 5.6,-0.8 6.8,-3.2 1.6,-1.4 -0.5,-3 -1.2,-0.9 -0.4,0.8 -2.4,3.5 -2.6,1.8 1.1,-5 2.7,-9.9 3.9,-14.9 l -0.1,-0.5 h -0.9 z m -65.1,0.2 c -6.5,1.6 -10.5,9.5 -8.2,15.7 2.1,3.4 7.4,2.9 10.1,0.4 2,-0.2 3.6,-5.3 1,-3.4 -1.4,2 -4,4.2 -6.5,2.8 -2.2,-1.9 -1.9,-5.7 1.7,-5.3 3.1,-0.9 6.9,-2.1 8.1,-5.5 0.9,-2.7 -1.6,-5.2 -4.3,-4.8 h -1.1 -0.7 z m 13.6,0 c -2.2,0 -8.5,1.8 -2.9,2.3 0.9,1.9 -1,4.9 -1.1,7.2 -0.5,2.9 -1.4,5.7 -1.7,8.7 3.7,0.7 3.8,-2.6 4.4,-5.3 0.9,-3.3 1.6,-7 4.1,-9.5 2.4,1.6 6.8,-0.7 3.7,-3.4 -2.9,-0.5 -4.8,2.4 -6.2,4.3 0,-1.2 2.4,-5 -0.2,-4.3 z m 15.8,0 c -6.4,1.3 -9.6,9.1 -7.7,14.9 1.9,4 7.7,3.9 11,1.7 4.1,-3 6,-8.9 4.4,-13.7 -1.3,-3 -4.8,-3.2 -7.6,-3 z m 17,0 c -2.3,0 -8.8,1.9 -3,2.4 0.4,2.5 -1,5.7 -1.4,8.4 -0.7,2.4 -1.8,7.5 2.1,7.2 3.8,-0.1 6.5,-3.5 8.5,-6.3 2,-3.2 4.5,-7 3.3,-10.9 -3.7,-3 -3.6,2.6 -3.1,5.1 -0.7,3.8 -2.7,7.9 -6.2,9.8 -3.6,0.6 -1,-4.3 -0.8,-6.1 0.6,-3.2 1.6,-6.3 1.9,-9.5 -0.4,0 -0.8,0 -1.1,0 z m 30.6,0 c -6.3,1.2 -9.5,8.9 -7.8,14.7 1.5,4 7.2,4.2 10.5,2.4 4.6,-2.8 6.6,-9.3 4.8,-14.3 -1.4,-2.8 -4.8,-3 -7.5,-2.8 z m -75.4,1.7 c 2.1,1.5 0.2,4.7 -1.6,5.7 -1.1,0.4 -5.5,3.4 -4.6,0.7 0.8,-2.7 2.2,-6.2 5.3,-6.6 l 0.9,0.1 z m 30.8,0 c 2.6,1.5 1.3,5.2 0.8,7.6 -0.8,2.7 -1.9,5.9 -4.7,7.1 -5.1,0.8 -4,-5.8 -2.8,-8.8 1,-2.8 3,-6.8 6.7,-5.8 z m 47.1,-0.1 c 2.9,0.7 2,4.7 1.5,6.8 -0.7,3 -1.8,6.7 -5,8 -4.7,0.8 -4,-5.1 -3,-7.9 0.9,-3 2.7,-7.3 6.5,-6.8 z m -88.1,5.9 c -0.3,1.3 0.9,-0.6 0,0 z m -1.1,2.4 c -0.2,0.5 0.5,-0.1 0,0 z m -1.3,4.5 c -0.3,1.3 0.8,-0.2 0,0 z" />
                     <text y="41" x="201" fill="#00000" style="font-style:italic;font-weight:normal;font-size:30px;line-height:125%;font-family:Times;text-anchor:middle" xml:space="preserve">engraved with</text>
                  </g>
               </g>
            </g>
         </g>
      </g>
   </svg>
</svg>
