<?xml version="1.0" encoding="UTF-8" standalone="no"?>
<svg width="2100px" height="2970px" version="1.1" xmlns="http://www.w3.org/2000/svg" xmlns:xlink="http://www.w3.org/1999/xlink" xmlns:mei="http://www.music-encoding.org/ns/mei" overflow="visible">
   <desc>Engraved by Verovio 4.4.0-66ab39c</desc>
   <defs>
      <symbol id="E084-2hfqr9" viewBox="0 0 1000 1000" overflow="inherit">
         <path transform="scale(1,-1)" d="M20 -78c84 97 114 180 134 329h170c-13 -32 -82 -132 -99 -151l-84 -97c-33 -36 -59 -63 -80 -81h162v102l127 123v-225h57v-39h-57v-34c0 -43 19 -65 57 -65v-34h-244v36c48 0 60 26 60 70v27h-203v39z" />
      </symbol>
      <symbol id="E0A4-2hfqr9" viewBox="0 0 1000 1000" overflow="inherit">
         <path transform="scale(1,-1)" d="M0 -39c0 68 73 172 200 172c66 0 114 -37 114 -95c0 -84 -106 -171 -218 -171c-64 0 -96 30 -96 94z" />
      </symbol>
      <symbol id="E0A9-2hfqr9" viewBox="0 0 1000 1000" overflow="inherit">
         <path transform="scale(1,-1)" d="M0 -110c0 4 1 8 5 11l119 99l-119 100c-3 3 -5 8 -5 12c0 6 5 13 12 13c3 0 6 -1 8 -2l124 -105l126 105c2 1 5 2 7 2c6 0 13 -6 13 -14c0 -4 -2 -9 -5 -11l-119 -100l119 -99c3 -3 5 -7 5 -12c0 -6 -5 -14 -13 -14c-2 0 -5 1 -7 3l-126 105l-124 -105c-2 -2 -4 -3 -7 -3 c-8 0 -13 7 -13 15z" />
      </symbol>
      <symbol id="E069-2hfqr9" viewBox="0 0 1000 1000" overflow="inherit">
         <path transform="scale(1,-1)" d="M200 250h125v-500h-125v500zM0 250h125v-500h-125v500z" />
      </symbol>
   </defs>
   <style type="text/css">g.page-margin{font-family:Times,serif;} g.ending, g.fing, g.reh, g.tempo{font-weight:bold;} g.dir, g.dynam, g.mNum{font-style:italic;} g.label{font-weight:normal;}</style>
   <svg class="definition-scale" color="black" viewBox="0 0 21000 29700">
      <g class="page-margin" transform="translate(500, 500)">
         <g id="m-e2dcc031-08e7-498e-9c97-6bfaa03eef76" class="mdiv pageMilestone" />
         <g id="m-0d9a4079-2f9b-4f8f-bc46-47da1b532aea" class="score pageMilestone" />
         <g id="s7j9nyw" class="system">
            <g id="m-06e87275-3672-49a1-ab26-9414107ab40f" class="section systemMilestone" />
            <g id="m-9b2ef18a-8a41-4906-8910-ec20948d1747" class="measure">
               <g id="m-1c1f8843-acbe-405c-9f8e-c7dc38094755" class="staff">
                  <path d="M0 1911 L4981 1911" stroke="currentColor" stroke-width="13" />
                  <path d="M0 2091 L4981 2091" stroke="currentColor" stroke-width="13" />
                  <path d="M0 2271 L4981 2271" stroke="currentColor" stroke-width="13" />
                  <path d="M0 2451 L4981 2451" stroke="currentColor" stroke-width="13" />
                  <path d="M0 2631 L4981 2631" stroke="currentColor" stroke-width="13" />
                  <g id="ccq6qfh" class="clef">
                     <use xlink:href="#E069-2hfqr9" x="90" y="2271" height="720px" width="720px" />
                  </g>
                  <g id="kx1jqte" class="keySig" />
                  <g id="m55nr3k" class="meterSig">
                     <use xlink:href="#E084-2hfqr9" x="490" y="2091" height="720px" width="720px" />
                     <use xlink:href="#E084-2hfqr9" x="490" y="2451" height="720px" width="720px" />
                  </g>
                  <g class="ledgerLines above">
                     <path d="M1004 1731 L1308 1731" stroke="currentColor" stroke-width="22" />
                     <path d="M1454 1731 L1758 1731" stroke="currentColor" stroke-width="22" />
                     <path d="M1904 1731 L2208 1731" stroke="currentColor" stroke-width="22" />
                     <path d="M2354 1731 L2658 1731" stroke="currentColor" stroke-width="22" />
                     <path d="M2816 1731 L3096 1731" stroke="currentColor" stroke-width="22" />
                     <path d="M3138 1731 L3406 1731" stroke="currentColor" stroke-width="22" />
                     <path d="M3438 1731 L3706 1731" stroke="currentColor" stroke-width="22" />
                     <path d="M3738 1731 L4006 1731" stroke="currentColor" stroke-width="22" />
                     <path d="M4038 1731 L4306 1731" stroke="currentColor" stroke-width="22" />
                     <path d="M4470 1731 L4774 1731" stroke="currentColor" stroke-width="22" />
                  </g>
                  <g class="ledgerLines below">
                     <path d="M3420 2811 L3724 2811" stroke="currentColor" stroke-width="22" />
                  </g>
                  <g id="m-82dc3d22-f4e2-4f7f-85bb-1540c0d32837" class="layer">
                     <g id="m-e5eb47df-5df8-4593-8370-de9dc80ff910" class="beam">
                        <polygon points="1242,1191 1710,1191 1710,1281 1242,1281" />
                        <g id="m-18846f4d-063a-4652-b2c3-a304294b8142" class="note">
                           <g class="notehead">
                              <use xlink:href="#E0A9-2hfqr9" x="1052" y="1641" height="720px" width="720px" />
                           </g>
                           <g id="s116psz2" class="stem">
                              <path d="M1251 1562 L1251 1209" stroke="currentColor" stroke-width="18" />
                           </g>
                           <g id="aw24n1k" class="accid" />
                        </g>
                        <g id="m-c32bf4d8-69c9-46da-8129-12666f73b46a" class="note">
                           <g class="notehead">
                              <use xlink:href="#E0A9-2hfqr9" x="1502" y="1641" height="720px" width="720px" />
                           </g>
                           <g id="sa2y9vm" class="stem">
                              <path d="M1701 1562 L1701 1209" stroke="currentColor" stroke-width="18" />
                           </g>
                           <g id="a994qb8" class="accid" />
                        </g>
                     </g>
                     <g id="m-b861efe1-5e10-4b5b-ace2-ea7c07405e12" class="beam">
                        <polygon points="2142,1191 2610,1191 2610,1281 2142,1281" />
                        <g id="m-9c4887be-0fb4-4b88-9b88-6015e6ac3b79" class="note">
                           <g class="notehead">
                              <use xlink:href="#E0A9-2hfqr9" x="1952" y="1641" height="720px" width="720px" />
                           </g>
                           <g id="s1j98xo4" class="stem">
                              <path d="M2151 1562 L2151 1209" stroke="currentColor" stroke-width="18" />
                           </g>
                           <g id="a19l35zo" class="accid" />
                        </g>
                        <g id="m-415222c9-3064-457b-a3fa-8f08920a838c" class="note">
                           <g class="notehead">
                              <use xlink:href="#E0A9-2hfqr9" x="2402" y="1641" height="720px" width="720px" />
                           </g>
                           <g id="sbu9n4p" class="stem">
                              <path d="M2601 1562 L2601 1209" stroke="currentColor" stroke-width="18" />
                           </g>
                           <g id="a7096x5" class="accid" />
                        </g>
                     </g>
                     <g id="m-3edbc571-bb7d-4a39-8947-ce8744a9df42" class="beam">
                        <polygon points="3042,1056 3976,1056 3976,1146 3042,1146" />
                        <polygon points="3042,1191 3367,1191 3367,1281 3042,1281" />
                        <polygon points="3367,1191 3667,1191 3667,1281 3367,1281" />
                        <polygon points="3667,1191 3976,1191 3976,1281 3667,1281" />
                        <g id="m-ba4fd5ea-2fc7-485d-ae3d-c56b495fa9be" class="note">
                           <g class="notehead">
                              <use xlink:href="#E0A9-2hfqr9" x="2852" y="1641" height="720px" width="720px" />
                           </g>
                           <g id="s12ftn9h" class="stem">
                              <path d="M3051 1562 L3051 1074" stroke="currentColor" stroke-width="18" />
                           </g>
                           <g id="ajt7dsm" class="accid" />
                        </g>
                        <g id="m-576c8519-9842-45f3-b4ff-190eccc5f0ff" class="note">
                           <g class="notehead">
                              <use xlink:href="#E0A9-2hfqr9" x="3168" y="1641" height="720px" width="720px" />
                           </g>
                           <g id="s1lei6h4" class="stem">
                              <path d="M3367 1562 L3367 1074" stroke="currentColor" stroke-width="18" />
                           </g>
                           <g id="a1wqrtau" class="accid" />
                        </g>
                        <g id="m-b210f994-ee92-4d60-8a4b-35052221ec8f" class="note">
                           <g class="notehead">
                              <use xlink:href="#E0A9-2hfqr9" x="3468" y="1641" height="720px" width="720px" />
                           </g>
                           <g id="sf63eb4" class="stem">
                              <path d="M3667 1562 L3667 1074" stroke="currentColor" stroke-width="18" />
                           </g>
                           <g id="a18ws1iq" class="accid" />
                        </g>
                        <g id="m-86884347-d3ee-4940-b47b-e7a2a9fb310d" class="note">
                           <g class="notehead">
                              <use xlink:href="#E0A9-2hfqr9" x="3768" y="1641" height="720px" width="720px" />
                           </g>
                           <g id="s46pvqh" class="stem">
                              <path d="M3967 1562 L3967 1074" stroke="currentColor" stroke-width="18" />
                           </g>
                           <g id="a1gvfme7" class="accid" />
                        </g>
                     </g>
                     <g id="m-cf6a4b8f-dfed-41d4-8b08-981d46e94f2d" class="beam">
                        <polygon points="4258,1191 4726,1191 4726,1281 4258,1281" />
                        <g id="m-ed2a48ff-37ce-4eef-8b96-827889017e38" class="note">
                           <g class="notehead">
                              <use xlink:href="#E0A9-2hfqr9" x="4068" y="1641" height="720px" width="720px" />
                           </g>
                           <g id="safbgfw" class="stem">
                              <path d="M4267 1562 L4267 1209" stroke="currentColor" stroke-width="18" />
                           </g>
                           <g id="a1vjg4nc" class="accid" />
                        </g>
                        <g id="m-ee09e7b8-3083-490d-8b9f-8f9b17b13243" class="note">
                           <g class="notehead">
                              <use xlink:href="#E0A9-2hfqr9" x="4518" y="1641" height="720px" width="720px" />
                           </g>
                           <g id="s1r2k2hi" class="stem">
                              <path d="M4717 1562 L4717 1209" stroke="currentColor" stroke-width="18" />
                           </g>
                           <g id="anez4x" class="accid" />
                        </g>
                     </g>
                  </g>
                  <g id="m-246f49c9-bbd1-4234-9356-55dbf8371612" class="layer">
                     <g id="m-ef96c0a9-3bee-4b09-a914-f9b8a79c256e" class="note">
                        <g class="notehead">
                           <use xlink:href="#E0A4-2hfqr9" x="1052" y="2721" height="720px" width="720px" />
                        </g>
                        <g id="s1jtsz2k" class="stem">
                           <path d="M1061 2749 L1061 3171" stroke="currentColor" stroke-width="18" />
                        </g>
                     </g>
                     <g id="m-ed2de78f-24f5-4cae-84cd-d3bac22757bc" class="note">
                        <g class="notehead">
                           <use xlink:href="#E0A4-2hfqr9" x="1952" y="2271" height="720px" width="720px" />
                        </g>
                        <g id="s7d6s22" class="stem">
                           <path d="M1961 2299 L1961 2871" stroke="currentColor" stroke-width="18" />
                        </g>
                        <g id="a14o9wds" class="accid" />
                     </g>
                     <g id="m-ca8b7b3d-658c-4926-b16e-d9169d5028d8" class="beam">
                        <polygon points="2852,3171 3486,3351 3486,3261 2852,3081" />
                        <g id="m-7ba0b068-37d0-4ee1-9de3-495881beacad" class="note">
                           <g class="notehead">
                              <use xlink:href="#E0A4-2hfqr9" x="2852" y="2721" height="720px" width="720px" />
                           </g>
                           <g id="s146ixwb" class="stem">
                              <path d="M2861 2749 L2861 3153" stroke="currentColor" stroke-width="18" />
                           </g>
                        </g>
                        <g id="m-c5f012ca-64a9-4162-bf1e-6adccaa20a21" class="note">
                           <g class="notehead">
                              <use xlink:href="#E0A9-2hfqr9" x="3468" y="2901" height="720px" width="720px" />
                           </g>
                           <g id="siph4or" class="stem">
                              <path d="M3477 2980 L3477 3333" stroke="currentColor" stroke-width="18" />
                           </g>
                           <g id="avq7nj" class="accid" />
                        </g>
                     </g>
                     <g id="m-593c9f2b-74c6-4651-981d-dca2711c8b2c" class="beam">
                        <polygon points="4068,3171 4536,3216 4536,3126 4068,3081" />
                        <g id="m-0b8d9c01-675b-49d8-b36f-b6e05fc07a04" class="note">
                           <g class="notehead">
                              <use xlink:href="#E0A4-2hfqr9" x="4068" y="2271" height="720px" width="720px" />
                           </g>
                           <g id="so450mb" class="stem">
                              <path d="M4077 2299 L4077 3153" stroke="currentColor" stroke-width="18" />
                           </g>
                           <g id="a5yj11h" class="accid" />
                        </g>
                        <g id="m-851fb3e2-dbd6-4054-93b3-e20363cb6b9f" class="note">
                           <g class="notehead">
                              <use xlink:href="#E0A4-2hfqr9" x="4518" y="2721" height="720px" width="720px" />
                           </g>
                           <g id="s10pgt6b" class="stem">
                              <path d="M4527 2749 L4527 3198" stroke="currentColor" stroke-width="18" />
                           </g>
                        </g>
                     </g>
                  </g>
               </g>
               <g id="b1ef083c" class="barLine">
                  <path d="M4968 1911 L4968 2631" stroke="currentColor" stroke-width="27" />
               </g>
            </g>
            <g id="m-9b2c17c4-d5fe-458b-821d-9b92a273ba4f" class="measure">
               <g id="m-06f818a0-01cd-411b-bd82-60669ab91ba2" class="staff">
                  <path d="M4981 1911 L9438 1911" stroke="currentColor" stroke-width="13" />
                  <path d="M4981 2091 L9438 2091" stroke="currentColor" stroke-width="13" />
                  <path d="M4981 2271 L9438 2271" stroke="currentColor" stroke-width="13" />
                  <path d="M4981 2451 L9438 2451" stroke="currentColor" stroke-width="13" />
                  <path d="M4981 2631 L9438 2631" stroke="currentColor" stroke-width="13" />
                  <g class="ledgerLines above">
                     <path d="M5125 1731 L5405 1731" stroke="currentColor" stroke-width="22" />
                     <path d="M5447 1731 L5715 1731" stroke="currentColor" stroke-width="22" />
                     <path d="M5747 1731 L6015 1731" stroke="currentColor" stroke-width="22" />
                     <path d="M6191 1731 L6471 1731" stroke="currentColor" stroke-width="22" />
                     <path d="M6513 1731 L6781 1731" stroke="currentColor" stroke-width="22" />
                     <path d="M6813 1731 L7081 1731" stroke="currentColor" stroke-width="22" />
                     <path d="M7257 1731 L7537 1731" stroke="currentColor" stroke-width="22" />
                     <path d="M7579 1731 L7847 1731" stroke="currentColor" stroke-width="22" />
                     <path d="M7879 1731 L8147 1731" stroke="currentColor" stroke-width="22" />
                     <path d="M8323 1731 L8603 1731" stroke="currentColor" stroke-width="22" />
                     <path d="M8645 1731 L8913 1731" stroke="currentColor" stroke-width="22" />
                     <path d="M8945 1731 L9213 1731" stroke="currentColor" stroke-width="22" />
                  </g>
                  <g class="ledgerLines below">
                     <path d="M5729 2811 L6033 2811" stroke="currentColor" stroke-width="22" />
                     <path d="M6179 2811 L6483 2811" stroke="currentColor" stroke-width="22" />
                     <path d="M6795 2811 L7099 2811" stroke="currentColor" stroke-width="22" />
                     <path d="M7861 2811 L8165 2811" stroke="currentColor" stroke-width="22" />
                     <path d="M8311 2811 L8615 2811" stroke="currentColor" stroke-width="22" />
                     <path d="M8927 2811 L9231 2811" stroke="currentColor" stroke-width="22" />
                  </g>
                  <g id="m-ae8e5493-98d5-4231-942c-2103c2f9bd0c" class="layer">
                     <g id="m-ca630c86-795f-42d3-8ce7-db56e52af014" class="beam">
                        <polygon points="5351,1056 5985,1056 5985,1146 5351,1146" />
                        <polygon points="5351,1191 5676,1191 5676,1281 5351,1281" />
                        <g id="m-017a5e27-6ef5-45fb-ab05-ef53eaded72d" class="note">
                           <g class="notehead">
                              <use xlink:href="#E0A9-2hfqr9" x="5161" y="1641" height="720px" width="720px" />
                           </g>
                           <g id="s16046l4" class="stem">
                              <path d="M5360 1562 L5360 1074" stroke="currentColor" stroke-width="18" />
                           </g>
                           <g id="accw6n3" class="accid" />
                        </g>
                        <g id="m-54a3ac7e-9bde-4db5-ac7e-3897ceee423b" class="note">
                           <g class="notehead">
                              <use xlink:href="#E0A9-2hfqr9" x="5477" y="1641" height="720px" width="720px" />
                           </g>
                           <g id="s1tkstna" class="stem">
                              <path d="M5676 1562 L5676 1074" stroke="currentColor" stroke-width="18" />
                           </g>
                           <g id="a1w2858m" class="accid" />
                        </g>
                        <g id="m-fb0e4374-e384-42fa-a071-cba27006dbba" class="note">
                           <g class="notehead">
                              <use xlink:href="#E0A9-2hfqr9" x="5777" y="1641" height="720px" width="720px" />
                           </g>
                           <g id="s1fucbuk" class="stem">
                              <path d="M5976 1562 L5976 1074" stroke="currentColor" stroke-width="18" />
                           </g>
                           <g id="a18acun6" class="accid" />
                        </g>
                     </g>
                     <g id="m-370df4b0-c4fa-4432-9a91-a1505a60d624" class="beam">
                        <polygon points="6417,1056 7051,1056 7051,1146 6417,1146" />
                        <polygon points="6417,1191 6742,1191 6742,1281 6417,1281" />
                        <g id="m-bd202c08-ada7-4177-b689-350e5669ccd9" class="note">
                           <g class="notehead">
                              <use xlink:href="#E0A9-2hfqr9" x="6227" y="1641" height="720px" width="720px" />
                           </g>
                           <g id="s1cbz1ne" class="stem">
                              <path d="M6426 1562 L6426 1074" stroke="currentColor" stroke-width="18" />
                           </g>
                           <g id="a14td9l3" class="accid" />
                        </g>
                        <g id="m-2e45f541-7f54-4936-ae2c-c825297a8709" class="note">
                           <g class="notehead">
                              <use xlink:href="#E0A9-2hfqr9" x="6543" y="1641" height="720px" width="720px" />
                           </g>
                           <g id="s1k4qf5z" class="stem">
                              <path d="M6742 1562 L6742 1074" stroke="currentColor" stroke-width="18" />
                           </g>
                           <g id="a1nc3z0t" class="accid" />
                        </g>
                        <g id="m-e86dde6e-f415-4ffe-b855-21ee215341c4" class="note">
                           <g class="notehead">
                              <use xlink:href="#E0A9-2hfqr9" x="6843" y="1641" height="720px" width="720px" />
                           </g>
                           <g id="sctehbh" class="stem">
                              <path d="M7042 1562 L7042 1074" stroke="currentColor" stroke-width="18" />
                           </g>
                           <g id="a1dn4ka4" class="accid" />
                        </g>
                     </g>
                     <g id="m-d095d519-9ceb-44b3-88b8-d33e60de427c" class="beam">
                        <polygon points="7483,1056 8117,1056 8117,1146 7483,1146" />
                        <polygon points="7483,1191 7808,1191 7808,1281 7483,1281" />
                        <g id="m-55c2385b-1f0a-4655-8e78-cd12776ef81b" class="note">
                           <g class="notehead">
                              <use xlink:href="#E0A9-2hfqr9" x="7293" y="1641" height="720px" width="720px" />
                           </g>
                           <g id="snrysg4" class="stem">
                              <path d="M7492 1562 L7492 1074" stroke="currentColor" stroke-width="18" />
                           </g>
                           <g id="a1t41p5x" class="accid" />
                        </g>
                        <g id="m-6f5a542c-07e1-45c3-a439-58a77d36c330" class="note">
                           <g class="notehead">
                              <use xlink:href="#E0A9-2hfqr9" x="7609" y="1641" height="720px" width="720px" />
                           </g>
                           <g id="suhyyp5" class="stem">
                              <path d="M7808 1562 L7808 1074" stroke="currentColor" stroke-width="18" />
                           </g>
                           <g id="a151dxb0" class="accid" />
                        </g>
                        <g id="m-0e84ed3b-927f-43d2-a947-5242434305ac" class="note">
                           <g class="notehead">
                              <use xlink:href="#E0A9-2hfqr9" x="7909" y="1641" height="720px" width="720px" />
                           </g>
                           <g id="s79ujia" class="stem">
                              <path d="M8108 1562 L8108 1074" stroke="currentColor" stroke-width="18" />
                           </g>
                           <g id="a1drlblc" class="accid" />
                        </g>
                     </g>
                     <g id="m-8c987f81-d8c2-4e92-ba9c-43e8f92df194" class="beam">
                        <polygon points="8549,1056 9183,1056 9183,1146 8549,1146" />
                        <polygon points="8549,1191 8874,1191 8874,1281 8549,1281" />
                        <g id="m-6cf98529-a91e-461d-aee9-d4c000942f73" class="note">
                           <g class="notehead">
                              <use xlink:href="#E0A9-2hfqr9" x="8359" y="1641" height="720px" width="720px" />
                           </g>
                           <g id="s1qeuzl7" class="stem">
                              <path d="M8558 1562 L8558 1074" stroke="currentColor" stroke-width="18" />
                           </g>
                           <g id="a19ep2ic" class="accid" />
                        </g>
                        <g id="m-c6aa0d43-b9fe-4caf-91fc-99fa6311f2e9" class="note">
                           <g class="notehead">
                              <use xlink:href="#E0A9-2hfqr9" x="8675" y="1641" height="720px" width="720px" />
                           </g>
                           <g id="s4ttdst" class="stem">
                              <path d="M8874 1562 L8874 1074" stroke="currentColor" stroke-width="18" />
                           </g>
                           <g id="a1j09rka" class="accid" />
                        </g>
                        <g id="m-e6504f99-fb8e-42ba-8461-a9009c0a082e" class="note">
                           <g class="notehead">
                              <use xlink:href="#E0A9-2hfqr9" x="8975" y="1641" height="720px" width="720px" />
                           </g>
                           <g id="seqnahf" class="stem">
                              <path d="M9174 1562 L9174 1074" stroke="currentColor" stroke-width="18" />
                           </g>
                           <g id="atld15p" class="accid" />
                        </g>
                     </g>
                  </g>
                  <g id="m-e951090d-4138-444a-b0e7-a46a851840d3" class="layer">
                     <g id="m-e7da72a7-2d70-4546-8377-9fbcebba1ac3" class="beam">
                        <polygon points="5161,3171 5795,3351 5795,3261 5161,3081" />
                        <g id="m-1b5f9630-58fa-44f8-b163-a48c9f190bf4" class="note">
                           <g class="notehead">
                              <use xlink:href="#E0A4-2hfqr9" x="5161" y="2721" height="720px" width="720px" />
                           </g>
                           <g id="st5ujnn" class="stem">
                              <path d="M5170 2749 L5170 3153" stroke="currentColor" stroke-width="18" />
                           </g>
                        </g>
                        <g id="m-291591ec-15fd-42d2-8338-80741387f243" class="note">
                           <g class="notehead">
                              <use xlink:href="#E0A9-2hfqr9" x="5777" y="2901" height="720px" width="720px" />
                           </g>
                           <g id="s1n9ke75" class="stem">
                              <path d="M5786 2980 L5786 3333" stroke="currentColor" stroke-width="18" />
                           </g>
                           <g id="a1bigbbw" class="accid" />
                        </g>
                     </g>
                     <g id="m-df800a03-159d-47fa-b537-552a6d9a7e25" class="beam">
                        <polygon points="6227,3351 6861,3351 6861,3261 6227,3261" />
                        <g id="m-d1ae9071-99c7-4105-b174-3ea10cec65a6" class="chord">
                           <g id="sb61abn" class="stem">
                              <path d="M6236 2299 L6236 3333" stroke="currentColor" stroke-width="18" />
                           </g>
                           <g id="m-06caa8af-3c39-432d-8d74-98035b2a2977" class="note">
                              <g class="notehead">
                                 <use xlink:href="#E0A9-2hfqr9" x="6227" y="2901" height="720px" width="720px" />
                              </g>
                              <g id="aertq9t" class="accid" />
                           </g>
                           <g id="m-0504c4c6-ec61-4634-a8c5-287396511c76" class="note">
                              <g class="notehead">
                                 <use xlink:href="#E0A4-2hfqr9" x="6227" y="2271" height="720px" width="720px" />
                              </g>
                              <g id="aamhimi" class="accid" />
                           </g>
                        </g>
                        <g id="m-7a69beed-f5e6-4380-83f7-6d3123c5a217" class="note">
                           <g class="notehead">
                              <use xlink:href="#E0A9-2hfqr9" x="6843" y="2901" height="720px" width="720px" />
                           </g>
                           <g id="sd2n3rs" class="stem">
                              <path d="M6852 2980 L6852 3333" stroke="currentColor" stroke-width="18" />
                           </g>
                           <g id="a1w1a5hu" class="accid" />
                        </g>
                     </g>
                     <g id="m-c25a70c8-dd26-4906-8bf0-16e24933ef60" class="beam">
                        <polygon points="7293,3171 7927,3351 7927,3261 7293,3081" />
                        <g id="m-2789e56b-7cd5-4d13-91c0-26b13dc73988" class="note">
                           <g class="notehead">
                              <use xlink:href="#E0A4-2hfqr9" x="7293" y="2721" height="720px" width="720px" />
                           </g>
                           <g id="s142rhsf" class="stem">
                              <path d="M7302 2749 L7302 3153" stroke="currentColor" stroke-width="18" />
                           </g>
                        </g>
                        <g id="m-c9748e43-f352-4514-ac69-18a7a3fca0d1" class="note">
                           <g class="notehead">
                              <use xlink:href="#E0A9-2hfqr9" x="7909" y="2901" height="720px" width="720px" />
                           </g>
                           <g id="sotvuhp" class="stem">
                              <path d="M7918 2980 L7918 3333" stroke="currentColor" stroke-width="18" />
                           </g>
                           <g id="a1sygjbc" class="accid" />
                        </g>
                     </g>
                     <g id="m-c0cff58c-50dd-4ed3-9ef0-18a031ffc48e" class="beam">
                        <polygon points="8359,3351 8993,3351 8993,3261 8359,3261" />
                        <g id="m-b9c2d4fa-5694-41cc-8e20-a82deb03189f" class="chord">
                           <g id="s1agfkt4" class="stem">
                              <path d="M8368 2299 L8368 3333" stroke="currentColor" stroke-width="18" />
                           </g>
                           <g id="m-7b0e0a9e-80e8-469a-b454-fb665de20458" class="note">
                              <g class="notehead">
                                 <use xlink:href="#E0A9-2hfqr9" x="8359" y="2901" height="720px" width="720px" />
                              </g>
                              <g id="a1hz9l3c" class="accid" />
                           </g>
                           <g id="m-f434b691-8921-40c0-a0a4-b366e345b32e" class="note">
                              <g class="notehead">
                                 <use xlink:href="#E0A4-2hfqr9" x="8359" y="2271" height="720px" width="720px" />
                              </g>
                              <g id="a1u2xt65" class="accid" />
                           </g>
                        </g>
                        <g id="m-0f3080bb-e2f4-43f7-b2c8-84706476c9d0" class="note">
                           <g class="notehead">
                              <use xlink:href="#E0A9-2hfqr9" x="8975" y="2901" height="720px" width="720px" />
                           </g>
                           <g id="s1qha5zr" class="stem">
                              <path d="M8984 2980 L8984 3333" stroke="currentColor" stroke-width="18" />
                           </g>
                           <g id="a9w5j0" class="accid" />
                        </g>
                     </g>
                  </g>
               </g>
               <g id="b1ectd74" class="barLine">
                  <path d="M9425 1911 L9425 2631" stroke="currentColor" stroke-width="27" />
               </g>
            </g>
            <g id="syzoom2" class="systemMilestoneEnd m-06e87275-3672-49a1-ab26-9414107ab40f" />
         </g>
         <g id="p14u0fx1" class="pageMilestoneEnd m-0d9a4079-2f9b-4f8f-bc46-47da1b532aea" />
         <g id="p8m8d1p" class="pageMilestoneEnd m-e2dcc031-08e7-498e-9c97-6bfaa03eef76" />
         <g id="psx3lpw" class="pgHead autogenerated">
            <text font-size="0px">
               <tspan id="r1ioj28f" class="rend" x="10000" y="416" text-anchor="middle">
                  <title class="labelAttr">title</title>
                  <tspan id="rm82rvw" class="rend">
                     <tspan id="tjjxika" class="text">
                        <tspan font-size="607px">6_rock_100_beat_4-4</tspan>
                     </tspan>
                  </tspan>
                  <tspan id="lp8sht" class="lb" />
                  <tspan id="rdm7dzn" class="rend">
                     <tspan id="tzr0frq" class="text" x="10000" y="806">
                        <tspan font-size="324px">6_rock_100_beat_4-4</tspan>
                     </tspan>
                  </tspan>
               </tspan>
            </text>
         </g>
         <g id="pdl2133" class="pgFoot autogenerated">
            <g id="f1j231ar" class="fig">
               <g class="svg" transform="translate(7750, 28099) scale(10.000000, 10.000000)">
                  <g>
                     <path fill="#00000" d="M 17.11278,49.26451 V 10.367554 h 12.696511 c 3.288815,7.336676 6.71267,14.610456 10.127281,21.888976 3.419998,-7.484684 6.255515,-14.204887 9.58887,-21.909915 2.436207,0.103726 4.316952,0.08453 6.484294,-0.05808 V 49.264423 H 50.274275 C 50.145222,38.35639 50.016136,27.448368 49.887066,16.540329 45.003488,27.315459 39.967448,38.433564 35.083854,49.208695 34.678996,49.343717 34.426583,49.135619 34.021726,49.270644 29.46588,39.330716 24.910049,29.390805 20.354201,19.450876 20.224341,29.388756 20.09461,39.326619 19.964815,49.264497 H 17.11278 Z M 36.754144,39.324695 C 32.721221,30.512695 28.6883,21.700679 24.655394,12.888662 22.530527,12.750737 22.656775,12.71031 20.714356,12.813974 v 0.966497 c 4.612938,9.99784 9.609439,20.748709 13.87298,30.081745 0.722248,-1.512523 1.444528,-3.025014 2.166808,-4.537521 z m 25.738417,9.939815 c 0,-12.965651 0,-25.931305 0,-38.896956 10.084388,0 20.168791,0 30.253178,0 0,0.960416 0,1.920849 0,2.881265 -6.482825,0 -12.965652,0 -19.448478,0 0,4.802097 0,9.604178 0,14.406277 5.52241,0 11.044819,0 16.567229,0 0,0.960415 0,1.920832 0,2.881248 -5.52241,0 -11.044819,0 -16.567229,0 0,5.282306 0,10.564611 0,15.846917 6.963035,0 13.926068,0 20.889103,0 0,0.960416 0,1.920832 0,2.881249 -10.564597,0 -21.129207,0 -31.693803,0 z m 4.321874,-2.160937 c 0,-11.765131 0,-23.530263 0,-35.295394 -0.720312,0 -1.440625,0 -2.160937,0 0,11.765131 0,23.530263 0,35.295394 0.720312,0 1.440625,0 2.160937,0 z m 32.41413,2.160937 c 0,-12.965651 0,-25.931305 0,-38.896956 2.401045,0 4.802095,0 7.203135,0 0,12.965651 0,25.931305 0,38.896956 -2.40104,0 -4.80209,0 -7.203135,0 z m 2.881265,-2.160937 c 0,-11.765131 0,-23.530263 0,-35.295394 -0.72031,0 -1.44064,0 -2.160953,0 0,11.765131 0,23.530263 0,35.295394 0.720313,0 1.440643,0 2.160953,0 z" />
                     <path fill="#00000" d="m 346.3,6.7 c -3.1,0.5 -4.9,4.4 -2.7,6.8 1.2,1.4 2.7,2.4 4.1,3.5 -2.4,5.3 -7.7,8.3 -11.9,12.1 -3.7,2.8 -7,6.2 -9.7,9.9 -2.2,-0.8 -0.3,-6.8 -0.6,-9.5 0.1,-3.1 0.7,-6.4 2.9,-8.7 1.3,-1.9 3,-3.5 4.5,-5.2 1.2,-3.4 -3.2,-4.9 -5.8,-4.6 -7.3,-0.5 -14.6,2 -20,6.8 -5,4.6 -10,10.1 -11.5,17 -0.9,3.5 -0.2,7.5 2.8,9.9 2.5,2.8 7.4,2.9 9.8,-0.2 1.7,-2.3 3.2,-4.8 3.8,-7.6 -0.1,-2.6 -4.4,-2.3 -4.3,0.2 1.2,2.4 -0.9,4.7 -2.7,6.2 -1.7,0.9 -4.7,0.7 -4.8,-1.7 -1,-5.8 2.1,-11.3 5.2,-16.1 4,-5.8 9.8,-11.2 17.2,-11.8 1.6,0 8.1,-1.2 6.8,1.4 -2.8,2.8 -5.6,6.1 -6,10.3 -1.6,7.7 0.1,15.7 -2.3,23.2 -1.1,3.9 2,2.6 2.5,0.2 3.3,-7.4 8.9,-13.4 15.1,-18.5 4.2,-3.9 9.5,-7.1 11.9,-12.6 1.3,-3.6 1.2,-9 -2.7,-10.9 -0.6,-0.2 -1.2,-0.3 -1.8,-0.3 z m 66,14.5 c -2,0.8 -1.8,4.9 0.8,4.4 3.4,0.4 2.9,-6.2 -0.8,-4.4 z m 0.6,7.3 c -1.3,0.5 -7.6,0.5 -5.4,2.2 4,-0.3 0.7,4.5 0.6,6.7 -0.4,2.9 -2.4,5.9 -1.2,8.8 2.7,1.7 5.6,-0.8 6.8,-3.2 1.6,-1.4 -0.5,-3 -1.2,-0.9 -0.4,0.8 -2.4,3.5 -2.6,1.8 1.1,-5 2.7,-9.9 3.9,-14.9 l -0.1,-0.5 h -0.9 z m -65.1,0.2 c -6.5,1.6 -10.5,9.5 -8.2,15.7 2.1,3.4 7.4,2.9 10.1,0.4 2,-0.2 3.6,-5.3 1,-3.4 -1.4,2 -4,4.2 -6.5,2.8 -2.2,-1.9 -1.9,-5.7 1.7,-5.3 3.1,-0.9 6.9,-2.1 8.1,-5.5 0.9,-2.7 -1.6,-5.2 -4.3,-4.8 h -1.1 -0.7 z m 13.6,0 c -2.2,0 -8.5,1.8 -2.9,2.3 0.9,1.9 -1,4.9 -1.1,7.2 -0.5,2.9 -1.4,5.7 -1.7,8.7 3.7,0.7 3.8,-2.6 4.4,-5.3 0.9,-3.3 1.6,-7 4.1,-9.5 2.4,1.6 6.8,-0.7 3.7,-3.4 -2.9,-0.5 -4.8,2.4 -6.2,4.3 0,-1.2 2.4,-5 -0.2,-4.3 z m 15.8,0 c -6.4,1.3 -9.6,9.1 -7.7,14.9 1.9,4 7.7,3.9 11,1.7 4.1,-3 6,-8.9 4.4,-13.7 -1.3,-3 -4.8,-3.2 -7.6,-3 z m 17,0 c -2.3,0 -8.8,1.9 -3,2.4 0.4,2.5 -1,5.7 -1.4,8.4 -0.7,2.4 -1.8,7.5 2.1,7.2 3.8,-0.1 6.5,-3.5 8.5,-6.3 2,-3.2 4.5,-7 3.3,-10.9 -3.7,-3 -3.6,2.6 -3.1,5.1 -0.7,3.8 -2.7,7.9 -6.2,9.8 -3.6,0.6 -1,-4.3 -0.8,-6.1 0.6,-3.2 1.6,-6.3 1.9,-9.5 -0.4,0 -0.8,0 -1.1,0 z m 30.6,0 c -6.3,1.2 -9.5,8.9 -7.8,14.7 1.5,4 7.2,4.2 10.5,2.4 4.6,-2.8 6.6,-9.3 4.8,-14.3 -1.4,-2.8 -4.8,-3 -7.5,-2.8 z m -75.4,1.7 c 2.1,1.5 0.2,4.7 -1.6,5.7 -1.1,0.4 -5.5,3.4 -4.6,0.7 0.8,-2.7 2.2,-6.2 5.3,-6.6 l 0.9,0.1 z m 30.8,0 c 2.6,1.5 1.3,5.2 0.8,7.6 -0.8,2.7 -1.9,5.9 -4.7,7.1 -5.1,0.8 -4,-5.8 -2.8,-8.8 1,-2.8 3,-6.8 6.7,-5.8 z m 47.1,-0.1 c 2.9,0.7 2,4.7 1.5,6.8 -0.7,3 -1.8,6.7 -5,8 -4.7,0.8 -4,-5.1 -3,-7.9 0.9,-3 2.7,-7.3 6.5,-6.8 z m -88.1,5.9 c -0.3,1.3 0.9,-0.6 0,0 z m -1.1,2.4 c -0.2,0.5 0.5,-0.1 0,0 z m -1.3,4.5 c -0.3,1.3 0.8,-0.2 0,0 z" />
                     <text y="41" x="201" fill="#00000" style="font-style:italic;font-weight:normal;font-size:30px;line-height:125%;font-family:Times;text-anchor:middle" xml:space="preserve">engraved with</text>
                  </g>
               </g>
            </g>
         </g>
      </g>
   </svg>
</svg>
