<?xml version="1.0" encoding="UTF-8" standalone="no"?>
<svg width="2100px" height="2970px" version="1.1" xmlns="http://www.w3.org/2000/svg" xmlns:xlink="http://www.w3.org/1999/xlink" xmlns:mei="http://www.music-encoding.org/ns/mei" overflow="visible">
   <desc>Engraved by Verovio 4.4.0-66ab39c</desc>
   <defs>
      <symbol id="E0A9-dzlwfi" viewBox="0 0 1000 1000" overflow="inherit">
         <path transform="scale(1,-1)" d="M0 -110c0 4 1 8 5 11l119 99l-119 100c-3 3 -5 8 -5 12c0 6 5 13 12 13c3 0 6 -1 8 -2l124 -105l126 105c2 1 5 2 7 2c6 0 13 -6 13 -14c0 -4 -2 -9 -5 -11l-119 -100l119 -99c3 -3 5 -7 5 -12c0 -6 -5 -14 -13 -14c-2 0 -5 1 -7 3l-126 105l-124 -105c-2 -2 -4 -3 -7 -3 c-8 0 -13 7 -13 15z" />
      </symbol>
      <symbol id="E069-dzlwfi" viewBox="0 0 1000 1000" overflow="inherit">
         <path transform="scale(1,-1)" d="M200 250h125v-500h-125v500zM0 250h125v-500h-125v500z" />
      </symbol>
      <symbol id="E4E3-dzlwfi" viewBox="0 0 1000 1000" overflow="inherit">
         <path transform="scale(1,-1)" d="M0 -115v105c0 9 1 10 10 10h280c9 0 10 -1 10 -10v-105c0 -9 -1 -10 -10 -10h-280c-9 0 -10 1 -10 10z" />
      </symbol>
      <symbol id="E084-dzlwfi" viewBox="0 0 1000 1000" overflow="inherit">
         <path transform="scale(1,-1)" d="M20 -78c84 97 114 180 134 329h170c-13 -32 -82 -132 -99 -151l-84 -97c-33 -36 -59 -63 -80 -81h162v102l127 123v-225h57v-39h-57v-34c0 -43 19 -65 57 -65v-34h-244v36c48 0 60 26 60 70v27h-203v39z" />
      </symbol>
      <symbol id="E0A2-dzlwfi" viewBox="0 0 1000 1000" overflow="inherit">
         <path transform="scale(1,-1)" d="M198 133c102 0 207 -45 207 -133c0 -92 -118 -133 -227 -133c-101 0 -178 46 -178 133c0 88 93 133 198 133zM293 -21c0 14 -3 29 -8 44c-7 20 -18 38 -33 54c-20 21 -43 31 -68 31l-20 -2c-15 -5 -27 -14 -36 -28c-4 -9 -6 -17 -8 -24s-3 -16 -3 -27c0 -15 3 -34 9 -57 s18 -41 34 -55c15 -15 36 -23 62 -23c4 0 10 1 18 2c19 5 32 15 40 30s13 34 13 55z" />
      </symbol>
      <symbol id="E0A4-dzlwfi" viewBox="0 0 1000 1000" overflow="inherit">
         <path transform="scale(1,-1)" d="M0 -39c0 68 73 172 200 172c66 0 114 -37 114 -95c0 -84 -106 -171 -218 -171c-64 0 -96 30 -96 94z" />
      </symbol>
      <symbol id="E240-dzlwfi" viewBox="0 0 1000 1000" overflow="inherit">
         <path transform="scale(1,-1)" d="M179 -646c15 29 29 55 46 102c18 49 30 108 30 138c0 105 -80 173 -168 200c-18 5 -47 9 -87 16v190h22c8 0 33 -61 71 -95c4 -3 -2 3 61 -56c62 -58 122 -137 122 -241c0 -38 -13 -106 -35 -163c-20 -51 -43 -99 -66 -132c-6 -5 -10 -7 -13 -7s-5 2 -5 5l4 10 c1 3 14 25 18 33z" />
      </symbol>
      <symbol id="E4E6-dzlwfi" viewBox="0 0 1000 1000" overflow="inherit">
         <path transform="scale(1,-1)" d="M0 123c7 34 33 56 69 60c29 -3 43 -9 53 -29c4 -8 7 -15 10 -22c0 -21 -1 -25 -11 -35c-5 -8 -18 -14 -40 -20l12 -3l15 -1c44 0 97 26 122 56c10 11 18 26 24 42c7 1 15 2 22 3l-140 -424h-36l111 330c-10 -6 -27 -12 -53 -16l-52 -8h-10l-20 1c-1 0 -8 3 -21 6 c-37 9 -55 28 -55 60z" />
      </symbol>
      <symbol id="E4E7-dzlwfi" viewBox="0 0 1000 1000" overflow="inherit">
         <path transform="scale(1,-1)" d="M133 -111c0 -33 -21 -50 -52 -55c10 -3 18 -4 25 -4c40 0 69 24 90 47l66 197c-36 -18 -64 -25 -112 -25c-23 0 -38 3 -45 8c-37 7 -55 27 -55 59c8 35 30 54 68 58c45 -6 49 -13 64 -48c0 -3 1 -5 1 -7c0 -27 -25 -46 -52 -49c6 -4 15 -6 26 -6c32 2 62 14 88 29 c32 19 44 36 59 71l7 1l10 2h4c-72 -220 -143 -439 -215 -659h-37l108 324c-20 -13 -51 -20 -82 -20c-21 0 -35 4 -43 10c-37 6 -55 26 -55 58c8 35 31 56 68 60c43 -8 48 -13 64 -51z" />
      </symbol>
   </defs>
   <style type="text/css">g.page-margin{font-family:Times,serif;} g.ending, g.fing, g.reh, g.tempo{font-weight:bold;} g.dir, g.dynam, g.mNum{font-style:italic;} g.label{font-weight:normal;}</style>
   <svg class="definition-scale" color="black" viewBox="0 0 21000 29700">
      <g class="page-margin" transform="translate(500, 500)">
         <g id="m-36e0e126-b51d-46b8-8fb3-326f7d3a28ec" class="mdiv pageMilestone" />
         <g id="m-ab215c1e-3b0e-49a8-a431-fb591daf8c83" class="score pageMilestone" />
         <g id="s1oaau04" class="system">
            <g id="m-cb5aea1a-5591-4656-a83d-cc6bc72f209e" class="section systemMilestone" />
            <g id="m-88aeb93c-ef1a-4bd9-8019-ce7955377ecb" class="measure">
               <g id="m-98ea5b3b-ec16-45c1-b4d0-b19ec1acf4ab" class="staff">
                  <path d="M0 2135 L6557 2135" stroke="currentColor" stroke-width="13" />
                  <path d="M0 2315 L6557 2315" stroke="currentColor" stroke-width="13" />
                  <path d="M0 2495 L6557 2495" stroke="currentColor" stroke-width="13" />
                  <path d="M0 2675 L6557 2675" stroke="currentColor" stroke-width="13" />
                  <path d="M0 2855 L6557 2855" stroke="currentColor" stroke-width="13" />
                  <g id="c7he496" class="clef">
                     <use xlink:href="#E069-dzlwfi" x="90" y="2495" height="720px" width="720px" />
                  </g>
                  <g id="k8etrsk" class="keySig" />
                  <g id="mqf198m" class="meterSig">
                     <use xlink:href="#E084-dzlwfi" x="490" y="2315" height="720px" width="720px" />
                     <use xlink:href="#E084-dzlwfi" x="490" y="2675" height="720px" width="720px" />
                  </g>
                  <g class="ledgerLines above">
                     <path d="M1620 1955 L1924 1955" stroke="currentColor" stroke-width="22" />
                     <path d="M2719 1955 L3023 1955" stroke="currentColor" stroke-width="22" />
                     <path d="M3972 1955 L4276 1955" stroke="currentColor" stroke-width="22" />
                     <path d="M5396 1955 L5700 1955" stroke="currentColor" stroke-width="22" />
                  </g>
                  <g class="ledgerLines below">
                     <path d="M1004 3035 L1308 3035" stroke="currentColor" stroke-width="22" />
                     <path d="M1620 3035 L1924 3035" stroke="currentColor" stroke-width="22" />
                  </g>
                  <g id="m-c31d9d4b-775f-4432-a7ac-bb296ac5893c" class="layer">
                     <g id="m-9cc09c58-9f2a-4561-b0fd-dc8042634294" class="rest">
                        <use xlink:href="#E4E6-dzlwfi" x="1052" y="1775" height="720px" width="720px" />
                     </g>
                     <g id="m-22b2a629-742f-495f-83bf-6793fde4e84a" class="note">
                        <g class="notehead">
                           <use xlink:href="#E0A9-dzlwfi" x="1668" y="1865" height="720px" width="720px" />
                        </g>
                        <g id="s1gpgv7f" class="stem">
                           <path d="M1867 1786 L1867 1355" stroke="currentColor" stroke-width="18" />
                           <g id="f1rs28by" class="flag">
                              <use xlink:href="#E240-dzlwfi" x="1858" y="1355" height="720px" width="720px" />
                           </g>
                        </g>
                        <g id="aflg079" class="accid" />
                     </g>
                     <g id="m-aa16b09e-acf3-47db-8317-14a47ea09f8a" class="rest">
                        <use xlink:href="#E4E7-dzlwfi" x="2146" y="1775" height="720px" width="720px" />
                     </g>
                     <g id="m-143eb883-9cae-449a-8cbb-1b26342ce1e5" class="beam">
                        <polygon points="2659,1235 2975,1055 2975,1145 2659,1325" />
                        <polygon points="2659,1370 2975,1190 2975,1280 2659,1460" />
                        <polygon points="2659,1505 2975,1325 2975,1415 2659,1595" />
                        <g id="m-9788effe-9807-4ab6-92ee-662c690df7cc" class="note">
                           <g class="notehead">
                              <use xlink:href="#E0A9-dzlwfi" x="2469" y="2045" height="720px" width="720px" />
                           </g>
                           <g id="sbunbxm" class="stem">
                              <path d="M2668 1966 L2668 1253" stroke="currentColor" stroke-width="18" />
                           </g>
                        </g>
                        <g id="m-07706f81-678f-4b02-bd36-eadedb1db708" class="note">
                           <g class="notehead">
                              <use xlink:href="#E0A9-dzlwfi" x="2767" y="1865" height="720px" width="720px" />
                           </g>
                           <g id="szsxhu2" class="stem">
                              <path d="M2966 1786 L2966 1073" stroke="currentColor" stroke-width="18" />
                           </g>
                           <g id="a141jnkk" class="accid" />
                        </g>
                     </g>
                     <g id="m-99775aaa-91ca-4422-86fd-9ae2568d054d" class="rest">
                        <use xlink:href="#E4E6-dzlwfi" x="3065" y="1775" height="720px" width="720px" />
                     </g>
                     <g id="m-f65febe0-1545-4d36-8923-9bec8c942809" class="rest">
                        <use xlink:href="#E4E7-dzlwfi" x="3697" y="1775" height="720px" width="720px" />
                     </g>
                     <g id="m-307d3771-dcd4-4b59-bfe1-20b4c9c140f2" class="note">
                        <g class="notehead">
                           <use xlink:href="#E0A9-dzlwfi" x="4020" y="1865" height="720px" width="720px" />
                        </g>
                        <g id="d1e9olt4" class="dots">
                           <ellipse cx="4476" cy="1865" rx="36" ry="36" />
                        </g>
                        <g id="s1ux9ghq" class="stem">
                           <path d="M4219 1786 L4219 1355" stroke="currentColor" stroke-width="18" />
                           <g id="fbcs2e6" class="flag">
                              <use xlink:href="#E240-dzlwfi" x="4210" y="1355" height="720px" width="720px" />
                           </g>
                        </g>
                        <g id="ai9ystz" class="accid" />
                     </g>
                     <g id="m-ab4b14c3-dd78-4cf8-987f-7680bd7d9012" class="beam">
                        <polygon points="5334,1415 5652,1370 5652,1460 5334,1505" />
                        <polygon points="5334,1550 5560,1517 5560,1607 5334,1640" />
                        <g id="m-61a9927d-4473-45bd-88ea-dd339b08ccd3" class="note">
                           <g class="notehead">
                              <use xlink:href="#E0A9-dzlwfi" x="5144" y="2045" height="720px" width="720px" />
                           </g>
                           <g id="s7bdyww" class="stem">
                              <path d="M5343 1966 L5343 1433" stroke="currentColor" stroke-width="18" />
                           </g>
                        </g>
                        <g id="m-c847e195-1c01-4fb5-bef9-e72852645f00" class="note">
                           <g class="notehead">
                              <use xlink:href="#E0A9-dzlwfi" x="5444" y="1865" height="720px" width="720px" />
                           </g>
                           <g id="d18euz3h" class="dots">
                              <ellipse cx="5742" cy="1865" rx="36" ry="36" />
                           </g>
                           <g id="s1m9gxz3" class="stem">
                              <path d="M5643 1786 L5643 1388" stroke="currentColor" stroke-width="18" />
                           </g>
                           <g id="a14xqxf4" class="accid" />
                        </g>
                     </g>
                  </g>
                  <g id="m-6f266171-dfe9-4817-b260-8f58239f8ec2" class="layer">
                     <g id="m-67392ea1-00f2-4338-9dbb-d28968b5c256" class="beam">
                        <polygon points="1052,3710 1686,3710 1686,3620 1052,3620" />
                        <polygon points="1052,3575 1361,3575 1361,3485 1052,3485" />
                        <g id="m-3016c5fb-3ea0-4dfc-b795-b0b86b6b13d3" class="note">
                           <g class="notehead">
                              <use xlink:href="#E0A9-dzlwfi" x="1052" y="3125" height="720px" width="720px" />
                           </g>
                           <g id="s1uteioc" class="stem">
                              <path d="M1061 3204 L1061 3692" stroke="currentColor" stroke-width="18" />
                           </g>
                           <g id="a1quypgf" class="accid" />
                        </g>
                        <g id="m-3747d3ca-d159-4f73-94b0-69acf8aeab1d" class="note">
                           <g class="notehead">
                              <use xlink:href="#E0A4-dzlwfi" x="1352" y="2495" height="720px" width="720px" />
                           </g>
                           <g id="siipaq2" class="stem">
                              <path d="M1361 2523 L1361 3692" stroke="currentColor" stroke-width="18" />
                           </g>
                           <g id="a1vnrj7z" class="accid" />
                        </g>
                        <g id="m-38a734ab-c1c8-4f51-9265-ae2267373ad2" class="note">
                           <g class="notehead">
                              <use xlink:href="#E0A9-dzlwfi" x="1668" y="3125" height="720px" width="720px" />
                           </g>
                           <g id="se4pr5q" class="stem">
                              <path d="M1677 3204 L1677 3692" stroke="currentColor" stroke-width="18" />
                           </g>
                           <g id="a1bhuley" class="accid" />
                        </g>
                     </g>
                     <g id="m-56c1255c-125d-462f-8194-6150061186b0" class="beam">
                        <polygon points="2146,3215 3399,3575 3399,3485 2146,3125" />
                        <polygon points="3074,3348 3399,3440 3399,3350 3074,3258" />
                        <g id="m-c06398f5-370a-4c89-84b8-e9723e325829" class="note">
                           <g class="notehead">
                              <use xlink:href="#E0A4-dzlwfi" x="2146" y="2495" height="720px" width="720px" />
                           </g>
                           <g id="s1d3h0rn" class="stem">
                              <path d="M2155 2523 L2155 3197" stroke="currentColor" stroke-width="18" />
                           </g>
                           <g id="a16b1xxb" class="accid" />
                        </g>
                        <g id="m-a9eaed92-adca-4eb3-bbfa-8ba041f0e2e8" class="note">
                           <g class="notehead">
                              <use xlink:href="#E0A4-dzlwfi" x="3065" y="2495" height="720px" width="720px" />
                           </g>
                           <g id="sirmpw2" class="stem">
                              <path d="M3074 2523 L3074 3465" stroke="currentColor" stroke-width="18" />
                           </g>
                           <g id="alo96e1" class="accid" />
                        </g>
                        <g id="m-567d64c7-0fae-4d06-acc1-b179cc9f8e92" class="note">
                           <g class="notehead">
                              <use xlink:href="#E0A4-dzlwfi" x="3381" y="2945" height="720px" width="720px" />
                           </g>
                           <g id="s10fguyb" class="stem">
                              <path d="M3390 2973 L3390 3557" stroke="currentColor" stroke-width="18" />
                           </g>
                        </g>
                     </g>
                     <g id="m-387c5a6e-5e1f-4909-af67-e0b401313d8b" class="beam">
                        <polygon points="3697,3530 4846,3530 4846,3440 3697,3440" />
                        <polygon points="4521,3395 4846,3395 4846,3305 4521,3305" />
                        <g id="m-47947dfe-c253-4b2c-82f3-626fa74133a5" class="note">
                           <g class="notehead">
                              <use xlink:href="#E0A4-dzlwfi" x="3697" y="2495" height="720px" width="720px" />
                           </g>
                           <g id="s14w30c0" class="stem">
                              <path d="M3706 2523 L3706 3512" stroke="currentColor" stroke-width="18" />
                           </g>
                           <g id="a1qr8jtj" class="accid" />
                        </g>
                        <g id="m-36a59f4b-0d13-4a71-85b7-9d560b4189ba" class="note">
                           <g class="notehead">
                              <use xlink:href="#E0A4-dzlwfi" x="4512" y="2945" height="720px" width="720px" />
                           </g>
                           <g id="s17zs9fn" class="stem">
                              <path d="M4521 2973 L4521 3512" stroke="currentColor" stroke-width="18" />
                           </g>
                        </g>
                        <g id="m-b3a2f876-96bf-46a1-8dba-6342487366ca" class="note">
                           <g class="notehead">
                              <use xlink:href="#E0A4-dzlwfi" x="4828" y="2495" height="720px" width="720px" />
                           </g>
                           <g id="s1yrjl9s" class="stem">
                              <path d="M4837 2523 L4837 3512" stroke="currentColor" stroke-width="18" />
                           </g>
                           <g id="a86geny" class="accid" />
                        </g>
                     </g>
                     <g id="m-c9c21b8d-22e8-43cd-8c28-0e3d2aa13b61" class="rest">
                        <use xlink:href="#E4E7-dzlwfi" x="5144" y="2675" height="720px" width="720px" />
                        <g id="d1genzcg" class="dots">
                           <ellipse cx="5467" cy="2585" rx="36" ry="36" />
                        </g>
                     </g>
                     <g id="m-29dbad75-0e85-4c40-b0c5-1d6f74593aa8" class="beam">
                        <polygon points="5778,3215 6112,3395 6112,3305 5778,3125" />
                        <polygon points="5778,3080 6004,3209 6004,3119 5778,2990" />
                        <polygon points="5778,2945 6004,3074 6004,2984 5778,2855" />
                        <g id="m-355ca869-b2ce-46ea-869f-55f05d25c229" class="note">
                           <g class="notehead">
                              <use xlink:href="#E0A4-dzlwfi" x="5778" y="2495" height="720px" width="720px" />
                           </g>
                           <g id="s1stc4ue" class="stem">
                              <path d="M5787 2523 L5787 3197" stroke="currentColor" stroke-width="18" />
                           </g>
                           <g id="a17la5jn" class="accid" />
                        </g>
                        <g id="m-95d15b9b-8e51-4cfd-a85e-cfeddbaac429" class="note">
                           <g class="notehead">
                              <use xlink:href="#E0A4-dzlwfi" x="6094" y="2945" height="720px" width="720px" />
                           </g>
                           <g id="s9kh2ju" class="stem">
                              <path d="M6103 2973 L6103 3377" stroke="currentColor" stroke-width="18" />
                           </g>
                        </g>
                     </g>
                  </g>
               </g>
               <g id="brtidb" class="barLine">
                  <path d="M6544 2135 L6544 2855" stroke="currentColor" stroke-width="27" />
               </g>
            </g>
            <g id="m-05f60051-d0e2-4bbb-8538-2772434c52b0" class="measure">
               <g id="m-93a2b153-8b39-49e0-93cd-a0e72e6929eb" class="staff">
                  <path d="M6557 2135 L8340 2135" stroke="currentColor" stroke-width="13" />
                  <path d="M6557 2315 L8340 2315" stroke="currentColor" stroke-width="13" />
                  <path d="M6557 2495 L8340 2495" stroke="currentColor" stroke-width="13" />
                  <path d="M6557 2675 L8340 2675" stroke="currentColor" stroke-width="13" />
                  <path d="M6557 2855 L8340 2855" stroke="currentColor" stroke-width="13" />
                  <g id="m-21403ae2-7d83-4f5a-ba19-cdac1c61f41a" class="layer">
                     <g id="m-05cb0fb4-0c6a-4409-ba9a-dad39b90db0f" class="rest">
                        <use xlink:href="#E4E3-dzlwfi" x="6737" y="1955" height="720px" width="720px" />
                        <g class="ledgerLines">
                           <path d="M6689 1955 L7001 1955" stroke="currentColor" stroke-width="22" />
                        </g>
                     </g>
                  </g>
                  <g id="m-6987de3f-0ca4-49dc-8887-bce6035b8df1" class="layer">
                     <g id="m-c589c221-a4ba-4bf4-9fce-8fd022e43eb6" class="note">
                        <g class="notehead">
                           <use xlink:href="#E0A2-dzlwfi" x="6737" y="2495" height="720px" width="720px" />
                        </g>
                        <g id="a1e1f0c3" class="accid" />
                     </g>
                  </g>
               </g>
               <g id="btqf3ls" class="barLine">
                  <path d="M8327 2135 L8327 2855" stroke="currentColor" stroke-width="27" />
               </g>
            </g>
            <g id="snr4l6j" class="systemMilestoneEnd m-cb5aea1a-5591-4656-a83d-cc6bc72f209e" />
         </g>
         <g id="p5jgvke" class="pageMilestoneEnd m-ab215c1e-3b0e-49a8-a431-fb591daf8c83" />
         <g id="pudzl7r" class="pageMilestoneEnd m-36e0e126-b51d-46b8-8fb3-326f7d3a28ec" />
         <g id="p1xktj9y" class="pgHead autogenerated">
            <text font-size="0px">
               <tspan id="r1t39cq8" class="rend" x="10000" y="415" text-anchor="middle">
                  <title class="labelAttr">title</title>
                  <tspan id="r11xn5l0" class="rend">
                     <tspan id="t1r5w6ac" class="text">
                        <tspan font-size="607px">14_rock_130_beat_4-4</tspan>
                     </tspan>
                  </tspan>
                  <tspan id="l8lg7xz" class="lb" />
                  <tspan id="r1k1wf6a" class="rend">
                     <tspan id="tepl1j2" class="text" x="10000" y="805">
                        <tspan font-size="324px">14_rock_130_beat_4-4</tspan>
                     </tspan>
                  </tspan>
               </tspan>
            </text>
         </g>
         <g id="ppv35r2" class="pgFoot autogenerated">
            <g id="flllnbt" class="fig">
               <g class="svg" transform="translate(7750, 28099) scale(10.000000, 10.000000)">
                  <g>
                     <path fill="#00000" d="M 17.11278,49.26451 V 10.367554 h 12.696511 c 3.288815,7.336676 6.71267,14.610456 10.127281,21.888976 3.419998,-7.484684 6.255515,-14.204887 9.58887,-21.909915 2.436207,0.103726 4.316952,0.08453 6.484294,-0.05808 V 49.264423 H 50.274275 C 50.145222,38.35639 50.016136,27.448368 49.887066,16.540329 45.003488,27.315459 39.967448,38.433564 35.083854,49.208695 34.678996,49.343717 34.426583,49.135619 34.021726,49.270644 29.46588,39.330716 24.910049,29.390805 20.354201,19.450876 20.224341,29.388756 20.09461,39.326619 19.964815,49.264497 H 17.11278 Z M 36.754144,39.324695 C 32.721221,30.512695 28.6883,21.700679 24.655394,12.888662 22.530527,12.750737 22.656775,12.71031 20.714356,12.813974 v 0.966497 c 4.612938,9.99784 9.609439,20.748709 13.87298,30.081745 0.722248,-1.512523 1.444528,-3.025014 2.166808,-4.537521 z m 25.738417,9.939815 c 0,-12.965651 0,-25.931305 0,-38.896956 10.084388,0 20.168791,0 30.253178,0 0,0.960416 0,1.920849 0,2.881265 -6.482825,0 -12.965652,0 -19.448478,0 0,4.802097 0,9.604178 0,14.406277 5.52241,0 11.044819,0 16.567229,0 0,0.960415 0,1.920832 0,2.881248 -5.52241,0 -11.044819,0 -16.567229,0 0,5.282306 0,10.564611 0,15.846917 6.963035,0 13.926068,0 20.889103,0 0,0.960416 0,1.920832 0,2.881249 -10.564597,0 -21.129207,0 -31.693803,0 z m 4.321874,-2.160937 c 0,-11.765131 0,-23.530263 0,-35.295394 -0.720312,0 -1.440625,0 -2.160937,0 0,11.765131 0,23.530263 0,35.295394 0.720312,0 1.440625,0 2.160937,0 z m 32.41413,2.160937 c 0,-12.965651 0,-25.931305 0,-38.896956 2.401045,0 4.802095,0 7.203135,0 0,12.965651 0,25.931305 0,38.896956 -2.40104,0 -4.80209,0 -7.203135,0 z m 2.881265,-2.160937 c 0,-11.765131 0,-23.530263 0,-35.295394 -0.72031,0 -1.44064,0 -2.160953,0 0,11.765131 0,23.530263 0,35.295394 0.720313,0 1.440643,0 2.160953,0 z" />
                     <path fill="#00000" d="m 346.3,6.7 c -3.1,0.5 -4.9,4.4 -2.7,6.8 1.2,1.4 2.7,2.4 4.1,3.5 -2.4,5.3 -7.7,8.3 -11.9,12.1 -3.7,2.8 -7,6.2 -9.7,9.9 -2.2,-0.8 -0.3,-6.8 -0.6,-9.5 0.1,-3.1 0.7,-6.4 2.9,-8.7 1.3,-1.9 3,-3.5 4.5,-5.2 1.2,-3.4 -3.2,-4.9 -5.8,-4.6 -7.3,-0.5 -14.6,2 -20,6.8 -5,4.6 -10,10.1 -11.5,17 -0.9,3.5 -0.2,7.5 2.8,9.9 2.5,2.8 7.4,2.9 9.8,-0.2 1.7,-2.3 3.2,-4.8 3.8,-7.6 -0.1,-2.6 -4.4,-2.3 -4.3,0.2 1.2,2.4 -0.9,4.7 -2.7,6.2 -1.7,0.9 -4.7,0.7 -4.8,-1.7 -1,-5.8 2.1,-11.3 5.2,-16.1 4,-5.8 9.8,-11.2 17.2,-11.8 1.6,0 8.1,-1.2 6.8,1.4 -2.8,2.8 -5.6,6.1 -6,10.3 -1.6,7.7 0.1,15.7 -2.3,23.2 -1.1,3.9 2,2.6 2.5,0.2 3.3,-7.4 8.9,-13.4 15.1,-18.5 4.2,-3.9 9.5,-7.1 11.9,-12.6 1.3,-3.6 1.2,-9 -2.7,-10.9 -0.6,-0.2 -1.2,-0.3 -1.8,-0.3 z m 66,14.5 c -2,0.8 -1.8,4.9 0.8,4.4 3.4,0.4 2.9,-6.2 -0.8,-4.4 z m 0.6,7.3 c -1.3,0.5 -7.6,0.5 -5.4,2.2 4,-0.3 0.7,4.5 0.6,6.7 -0.4,2.9 -2.4,5.9 -1.2,8.8 2.7,1.7 5.6,-0.8 6.8,-3.2 1.6,-1.4 -0.5,-3 -1.2,-0.9 -0.4,0.8 -2.4,3.5 -2.6,1.8 1.1,-5 2.7,-9.9 3.9,-14.9 l -0.1,-0.5 h -0.9 z m -65.1,0.2 c -6.5,1.6 -10.5,9.5 -8.2,15.7 2.1,3.4 7.4,2.9 10.1,0.4 2,-0.2 3.6,-5.3 1,-3.4 -1.4,2 -4,4.2 -6.5,2.8 -2.2,-1.9 -1.9,-5.7 1.7,-5.3 3.1,-0.9 6.9,-2.1 8.1,-5.5 0.9,-2.7 -1.6,-5.2 -4.3,-4.8 h -1.1 -0.7 z m 13.6,0 c -2.2,0 -8.5,1.8 -2.9,2.3 0.9,1.9 -1,4.9 -1.1,7.2 -0.5,2.9 -1.4,5.7 -1.7,8.7 3.7,0.7 3.8,-2.6 4.4,-5.3 0.9,-3.3 1.6,-7 4.1,-9.5 2.4,1.6 6.8,-0.7 3.7,-3.4 -2.9,-0.5 -4.8,2.4 -6.2,4.3 0,-1.2 2.4,-5 -0.2,-4.3 z m 15.8,0 c -6.4,1.3 -9.6,9.1 -7.7,14.9 1.9,4 7.7,3.9 11,1.7 4.1,-3 6,-8.9 4.4,-13.7 -1.3,-3 -4.8,-3.2 -7.6,-3 z m 17,0 c -2.3,0 -8.8,1.9 -3,2.4 0.4,2.5 -1,5.7 -1.4,8.4 -0.7,2.4 -1.8,7.5 2.1,7.2 3.8,-0.1 6.5,-3.5 8.5,-6.3 2,-3.2 4.5,-7 3.3,-10.9 -3.7,-3 -3.6,2.6 -3.1,5.1 -0.7,3.8 -2.7,7.9 -6.2,9.8 -3.6,0.6 -1,-4.3 -0.8,-6.1 0.6,-3.2 1.6,-6.3 1.9,-9.5 -0.4,0 -0.8,0 -1.1,0 z m 30.6,0 c -6.3,1.2 -9.5,8.9 -7.8,14.7 1.5,4 7.2,4.2 10.5,2.4 4.6,-2.8 6.6,-9.3 4.8,-14.3 -1.4,-2.8 -4.8,-3 -7.5,-2.8 z m -75.4,1.7 c 2.1,1.5 0.2,4.7 -1.6,5.7 -1.1,0.4 -5.5,3.4 -4.6,0.7 0.8,-2.7 2.2,-6.2 5.3,-6.6 l 0.9,0.1 z m 30.8,0 c 2.6,1.5 1.3,5.2 0.8,7.6 -0.8,2.7 -1.9,5.9 -4.7,7.1 -5.1,0.8 -4,-5.8 -2.8,-8.8 1,-2.8 3,-6.8 6.7,-5.8 z m 47.1,-0.1 c 2.9,0.7 2,4.7 1.5,6.8 -0.7,3 -1.8,6.7 -5,8 -4.7,0.8 -4,-5.1 -3,-7.9 0.9,-3 2.7,-7.3 6.5,-6.8 z m -88.1,5.9 c -0.3,1.3 0.9,-0.6 0,0 z m -1.1,2.4 c -0.2,0.5 0.5,-0.1 0,0 z m -1.3,4.5 c -0.3,1.3 0.8,-0.2 0,0 z" />
                     <text y="41" x="201" fill="#00000" style="font-style:italic;font-weight:normal;font-size:30px;line-height:125%;font-family:Times;text-anchor:middle" xml:space="preserve">engraved with</text>
                  </g>
               </g>
            </g>
         </g>
      </g>
   </svg>
</svg>
