<?xml version="1.0" encoding="UTF-8" standalone="no"?>
<svg width="2100px" height="2970px" version="1.1" xmlns="http://www.w3.org/2000/svg" xmlns:xlink="http://www.w3.org/1999/xlink" xmlns:mei="http://www.music-encoding.org/ns/mei" overflow="visible">
   <desc>Engraved by Verovio 4.4.0-66ab39c</desc>
   <defs>
      <symbol id="E084-19jivyg" viewBox="0 0 1000 1000" overflow="inherit">
         <path transform="scale(1,-1)" d="M20 -78c84 97 114 180 134 329h170c-13 -32 -82 -132 -99 -151l-84 -97c-33 -36 -59 -63 -80 -81h162v102l127 123v-225h57v-39h-57v-34c0 -43 19 -65 57 -65v-34h-244v36c48 0 60 26 60 70v27h-203v39z" />
      </symbol>
      <symbol id="E0A4-19jivyg" viewBox="0 0 1000 1000" overflow="inherit">
         <path transform="scale(1,-1)" d="M0 -39c0 68 73 172 200 172c66 0 114 -37 114 -95c0 -84 -106 -171 -218 -171c-64 0 -96 30 -96 94z" />
      </symbol>
      <symbol id="E0D9-19jivyg" viewBox="0 0 1000 1000" overflow="inherit">
         <path transform="scale(1,-1)" d="M0 0c0 3 1 4 3 6c53 47 102 98 151 153c2 2 5 3 8 3s5 -1 7 -3c49 -55 89 -106 142 -153c2 -2 3 -3 3 -6s-1 -4 -3 -6c-53 -47 -93 -98 -142 -153c-2 -2 -4 -3 -7 -3s-6 1 -8 3c-49 55 -98 106 -151 153c-2 2 -3 3 -3 6zM83 36c-2 -2 -3 -4 -3 -6s1 -4 3 -6l96 -101 c2 -2 4 -3 7 -3s5 1 7 3l40 41c2 2 3 4 3 6s-1 4 -3 6l-96 101c-2 2 -4 3 -7 3s-5 -1 -7 -3z" />
      </symbol>
      <symbol id="E4E3-19jivyg" viewBox="0 0 1000 1000" overflow="inherit">
         <path transform="scale(1,-1)" d="M0 -115v105c0 9 1 10 10 10h280c9 0 10 -1 10 -10v-105c0 -9 -1 -10 -10 -10h-280c-9 0 -10 1 -10 10z" />
      </symbol>
      <symbol id="E069-19jivyg" viewBox="0 0 1000 1000" overflow="inherit">
         <path transform="scale(1,-1)" d="M200 250h125v-500h-125v500zM0 250h125v-500h-125v500z" />
      </symbol>
   </defs>
   <style type="text/css">g.page-margin{font-family:Times,serif;} g.ending, g.fing, g.reh, g.tempo{font-weight:bold;} g.dir, g.dynam, g.mNum{font-style:italic;} g.label{font-weight:normal;}</style>
   <svg class="definition-scale" color="black" viewBox="0 0 21000 29700">
      <g class="page-margin" transform="translate(500, 500)">
         <g id="m-ea5aa845-b60e-4423-b2ed-eaaf28f6f1fd" class="mdiv pageMilestone" />
         <g id="m-6f8d1daa-fd0b-43f5-a525-be508692436f" class="score pageMilestone" />
         <g id="sepjxqz" class="system">
            <g id="m-e4533edc-db63-44dd-88ad-a42def713d5a" class="section systemMilestone" />
            <g id="m-1511169b-e330-47d5-8ee8-8877bc7d1e1f" class="measure">
               <g id="m-6e211ac0-8ee5-486f-8346-710d22797d87" class="staff">
                  <path d="M0 1595 L4343 1595" stroke="currentColor" stroke-width="13" />
                  <path d="M0 1775 L4343 1775" stroke="currentColor" stroke-width="13" />
                  <path d="M0 1955 L4343 1955" stroke="currentColor" stroke-width="13" />
                  <path d="M0 2135 L4343 2135" stroke="currentColor" stroke-width="13" />
                  <path d="M0 2315 L4343 2315" stroke="currentColor" stroke-width="13" />
                  <g id="c1y5cy1b" class="clef">
                     <use xlink:href="#E069-19jivyg" x="90" y="1955" height="720px" width="720px" />
                  </g>
                  <g id="k1iidj8v" class="keySig" />
                  <g id="m1om2u83" class="meterSig">
                     <use xlink:href="#E084-19jivyg" x="490" y="1775" height="720px" width="720px" />
                     <use xlink:href="#E084-19jivyg" x="490" y="2135" height="720px" width="720px" />
                  </g>
                  <g id="m-68628760-cdc5-4755-9c87-2a0f2027cc0c" class="layer">
                     <g id="m-6dad407e-3b84-4c58-a188-d1390ae2a4f1" class="rest">
                        <use xlink:href="#E4E3-19jivyg" x="1052" y="1775" height="720px" width="720px" />
                        <g class="ledgerLines" />
                     </g>
                  </g>
                  <g id="m-709faff1-b6dc-4069-b813-c60c08ea2854" class="layer">
                     <g id="m-a3be8e7a-c4f7-44fd-973b-72eb5f01d93c" class="note">
                        <g class="notehead">
                           <use xlink:href="#E0A4-19jivyg" x="1052" y="1955" height="720px" width="720px" />
                        </g>
                        <g id="sz6oghd" class="stem">
                           <path d="M1061 1983 L1061 2555" stroke="currentColor" stroke-width="18" />
                        </g>
                        <g id="a1fydu1x" class="accid" />
                     </g>
                     <g id="m-3535e9f6-2ffc-405e-82a2-1d1f26e862e9" class="beam">
                        <polygon points="1742,2675 2652,2675 2652,2585 1742,2585" />
                        <polygon points="2201,2540 2652,2540 2652,2450 2201,2450" />
                        <polygon points="2426,2405 2652,2405 2652,2315 2426,2315" />
                        <g id="m-4712d4cb-8763-41a7-b4b9-880482d14677" class="note">
                           <g class="notehead">
                              <use xlink:href="#E0A4-19jivyg" x="1742" y="1955" height="720px" width="720px" />
                           </g>
                           <g id="setidp6" class="stem">
                              <path d="M1751 1983 L1751 2657" stroke="currentColor" stroke-width="18" />
                           </g>
                           <g id="aveh2sy" class="accid" />
                        </g>
                        <g id="m-839df9fe-adb1-4b87-8e61-60d0b49f8929" class="note">
                           <g class="notehead">
                              <use xlink:href="#E0A4-19jivyg" x="2192" y="1955" height="720px" width="720px" />
                           </g>
                           <g id="dnx7iid" class="dots">
                              <ellipse cx="2508" cy="2045" rx="36" ry="36" />
                           </g>
                           <g id="sbvd8s7" class="stem">
                              <path d="M2201 1983 L2201 2657" stroke="currentColor" stroke-width="18" />
                           </g>
                           <g id="a1ko6dla" class="accid" />
                        </g>
                        <g id="m-206eae2f-e48c-4e17-9821-c15003b7aed6" class="note">
                           <g class="notehead">
                              <use xlink:href="#E0A4-19jivyg" x="2634" y="1955" height="720px" width="720px" />
                           </g>
                           <g id="s1tmmrya" class="stem">
                              <path d="M2643 1983 L2643 2657" stroke="currentColor" stroke-width="18" />
                           </g>
                           <g id="awawcp0" class="accid" />
                        </g>
                     </g>
                     <g id="m-09bdefa6-2a97-445e-a146-7002eac6ddbc" class="note">
                        <g class="notehead">
                           <use xlink:href="#E0D9-19jivyg" x="2950" y="1955" height="720px" width="720px" />
                        </g>
                        <g id="s113zr5p" class="stem">
                           <path d="M2959 1955 L2959 2555" stroke="currentColor" stroke-width="18" />
                        </g>
                        <g id="a1cdm3oh" class="accid" />
                     </g>
                     <g id="m-587cc868-112c-4c1f-a56d-c57093d87faf" class="note">
                        <g class="notehead">
                           <use xlink:href="#E0A4-19jivyg" x="3640" y="1955" height="720px" width="720px" />
                        </g>
                        <g id="s1o0203p" class="stem">
                           <path d="M3649 1983 L3649 2555" stroke="currentColor" stroke-width="18" />
                        </g>
                        <g id="aqapeyq" class="accid" />
                     </g>
                  </g>
               </g>
               <g id="b1fybjdd" class="barLine">
                  <path d="M4330 1595 L4330 2315" stroke="currentColor" stroke-width="27" />
               </g>
            </g>
            <g id="s17at64i" class="systemMilestoneEnd m-e4533edc-db63-44dd-88ad-a42def713d5a" />
         </g>
         <g id="p1it9gjz" class="pageMilestoneEnd m-6f8d1daa-fd0b-43f5-a525-be508692436f" />
         <g id="p146s2g4" class="pageMilestoneEnd m-ea5aa845-b60e-4423-b2ed-eaaf28f6f1fd" />
         <g id="po4h9vq" class="pgHead autogenerated">
            <text font-size="0px">
               <tspan id="r8lebkf" class="rend" x="10000" y="415" text-anchor="middle">
                  <title class="labelAttr">title</title>
                  <tspan id="rti66rr" class="rend">
                     <tspan id="tb28a8q" class="text">
                        <tspan font-size="607px">28_rock_120_beat_4-4</tspan>
                     </tspan>
                  </tspan>
                  <tspan id="lfzzucp" class="lb" />
                  <tspan id="r1qgbvuw" class="rend">
                     <tspan id="t1th6fnw" class="text" x="10000" y="805">
                        <tspan font-size="324px">28_rock_120_beat_4-4</tspan>
                     </tspan>
                  </tspan>
               </tspan>
            </text>
         </g>
         <g id="px5rphj" class="pgFoot autogenerated">
            <g id="fo6ubhf" class="fig">
               <g class="svg" transform="translate(7750, 28099) scale(10.000000, 10.000000)">
                  <g>
                     <path fill="#00000" d="M 17.11278,49.26451 V 10.367554 h 12.696511 c 3.288815,7.336676 6.71267,14.610456 10.127281,21.888976 3.419998,-7.484684 6.255515,-14.204887 9.58887,-21.909915 2.436207,0.103726 4.316952,0.08453 6.484294,-0.05808 V 49.264423 H 50.274275 C 50.145222,38.35639 50.016136,27.448368 49.887066,16.540329 45.003488,27.315459 39.967448,38.433564 35.083854,49.208695 34.678996,49.343717 34.426583,49.135619 34.021726,49.270644 29.46588,39.330716 24.910049,29.390805 20.354201,19.450876 20.224341,29.388756 20.09461,39.326619 19.964815,49.264497 H 17.11278 Z M 36.754144,39.324695 C 32.721221,30.512695 28.6883,21.700679 24.655394,12.888662 22.530527,12.750737 22.656775,12.71031 20.714356,12.813974 v 0.966497 c 4.612938,9.99784 9.609439,20.748709 13.87298,30.081745 0.722248,-1.512523 1.444528,-3.025014 2.166808,-4.537521 z m 25.738417,9.939815 c 0,-12.965651 0,-25.931305 0,-38.896956 10.084388,0 20.168791,0 30.253178,0 0,0.960416 0,1.920849 0,2.881265 -6.482825,0 -12.965652,0 -19.448478,0 0,4.802097 0,9.604178 0,14.406277 5.52241,0 11.044819,0 16.567229,0 0,0.960415 0,1.920832 0,2.881248 -5.52241,0 -11.044819,0 -16.567229,0 0,5.282306 0,10.564611 0,15.846917 6.963035,0 13.926068,0 20.889103,0 0,0.960416 0,1.920832 0,2.881249 -10.564597,0 -21.129207,0 -31.693803,0 z m 4.321874,-2.160937 c 0,-11.765131 0,-23.530263 0,-35.295394 -0.720312,0 -1.440625,0 -2.160937,0 0,11.765131 0,23.530263 0,35.295394 0.720312,0 1.440625,0 2.160937,0 z m 32.41413,2.160937 c 0,-12.965651 0,-25.931305 0,-38.896956 2.401045,0 4.802095,0 7.203135,0 0,12.965651 0,25.931305 0,38.896956 -2.40104,0 -4.80209,0 -7.203135,0 z m 2.881265,-2.160937 c 0,-11.765131 0,-23.530263 0,-35.295394 -0.72031,0 -1.44064,0 -2.160953,0 0,11.765131 0,23.530263 0,35.295394 0.720313,0 1.440643,0 2.160953,0 z" />
                     <path fill="#00000" d="m 346.3,6.7 c -3.1,0.5 -4.9,4.4 -2.7,6.8 1.2,1.4 2.7,2.4 4.1,3.5 -2.4,5.3 -7.7,8.3 -11.9,12.1 -3.7,2.8 -7,6.2 -9.7,9.9 -2.2,-0.8 -0.3,-6.8 -0.6,-9.5 0.1,-3.1 0.7,-6.4 2.9,-8.7 1.3,-1.9 3,-3.5 4.5,-5.2 1.2,-3.4 -3.2,-4.9 -5.8,-4.6 -7.3,-0.5 -14.6,2 -20,6.8 -5,4.6 -10,10.1 -11.5,17 -0.9,3.5 -0.2,7.5 2.8,9.9 2.5,2.8 7.4,2.9 9.8,-0.2 1.7,-2.3 3.2,-4.8 3.8,-7.6 -0.1,-2.6 -4.4,-2.3 -4.3,0.2 1.2,2.4 -0.9,4.7 -2.7,6.2 -1.7,0.9 -4.7,0.7 -4.8,-1.7 -1,-5.8 2.1,-11.3 5.2,-16.1 4,-5.8 9.8,-11.2 17.2,-11.8 1.6,0 8.1,-1.2 6.8,1.4 -2.8,2.8 -5.6,6.1 -6,10.3 -1.6,7.7 0.1,15.7 -2.3,23.2 -1.1,3.9 2,2.6 2.5,0.2 3.3,-7.4 8.9,-13.4 15.1,-18.5 4.2,-3.9 9.5,-7.1 11.9,-12.6 1.3,-3.6 1.2,-9 -2.7,-10.9 -0.6,-0.2 -1.2,-0.3 -1.8,-0.3 z m 66,14.5 c -2,0.8 -1.8,4.9 0.8,4.4 3.4,0.4 2.9,-6.2 -0.8,-4.4 z m 0.6,7.3 c -1.3,0.5 -7.6,0.5 -5.4,2.2 4,-0.3 0.7,4.5 0.6,6.7 -0.4,2.9 -2.4,5.9 -1.2,8.8 2.7,1.7 5.6,-0.8 6.8,-3.2 1.6,-1.4 -0.5,-3 -1.2,-0.9 -0.4,0.8 -2.4,3.5 -2.6,1.8 1.1,-5 2.7,-9.9 3.9,-14.9 l -0.1,-0.5 h -0.9 z m -65.1,0.2 c -6.5,1.6 -10.5,9.5 -8.2,15.7 2.1,3.4 7.4,2.9 10.1,0.4 2,-0.2 3.6,-5.3 1,-3.4 -1.4,2 -4,4.2 -6.5,2.8 -2.2,-1.9 -1.9,-5.7 1.7,-5.3 3.1,-0.9 6.9,-2.1 8.1,-5.5 0.9,-2.7 -1.6,-5.2 -4.3,-4.8 h -1.1 -0.7 z m 13.6,0 c -2.2,0 -8.5,1.8 -2.9,2.3 0.9,1.9 -1,4.9 -1.1,7.2 -0.5,2.9 -1.4,5.7 -1.7,8.7 3.7,0.7 3.8,-2.6 4.4,-5.3 0.9,-3.3 1.6,-7 4.1,-9.5 2.4,1.6 6.8,-0.7 3.7,-3.4 -2.9,-0.5 -4.8,2.4 -6.2,4.3 0,-1.2 2.4,-5 -0.2,-4.3 z m 15.8,0 c -6.4,1.3 -9.6,9.1 -7.7,14.9 1.9,4 7.7,3.9 11,1.7 4.1,-3 6,-8.9 4.4,-13.7 -1.3,-3 -4.8,-3.2 -7.6,-3 z m 17,0 c -2.3,0 -8.8,1.9 -3,2.4 0.4,2.5 -1,5.7 -1.4,8.4 -0.7,2.4 -1.8,7.5 2.1,7.2 3.8,-0.1 6.5,-3.5 8.5,-6.3 2,-3.2 4.5,-7 3.3,-10.9 -3.7,-3 -3.6,2.6 -3.1,5.1 -0.7,3.8 -2.7,7.9 -6.2,9.8 -3.6,0.6 -1,-4.3 -0.8,-6.1 0.6,-3.2 1.6,-6.3 1.9,-9.5 -0.4,0 -0.8,0 -1.1,0 z m 30.6,0 c -6.3,1.2 -9.5,8.9 -7.8,14.7 1.5,4 7.2,4.2 10.5,2.4 4.6,-2.8 6.6,-9.3 4.8,-14.3 -1.4,-2.8 -4.8,-3 -7.5,-2.8 z m -75.4,1.7 c 2.1,1.5 0.2,4.7 -1.6,5.7 -1.1,0.4 -5.5,3.4 -4.6,0.7 0.8,-2.7 2.2,-6.2 5.3,-6.6 l 0.9,0.1 z m 30.8,0 c 2.6,1.5 1.3,5.2 0.8,7.6 -0.8,2.7 -1.9,5.9 -4.7,7.1 -5.1,0.8 -4,-5.8 -2.8,-8.8 1,-2.8 3,-6.8 6.7,-5.8 z m 47.1,-0.1 c 2.9,0.7 2,4.7 1.5,6.8 -0.7,3 -1.8,6.7 -5,8 -4.7,0.8 -4,-5.1 -3,-7.9 0.9,-3 2.7,-7.3 6.5,-6.8 z m -88.1,5.9 c -0.3,1.3 0.9,-0.6 0,0 z m -1.1,2.4 c -0.2,0.5 0.5,-0.1 0,0 z m -1.3,4.5 c -0.3,1.3 0.8,-0.2 0,0 z" />
                     <text y="41" x="201" fill="#00000" style="font-style:italic;font-weight:normal;font-size:30px;line-height:125%;font-family:Times;text-anchor:middle" xml:space="preserve">engraved with</text>
                  </g>
               </g>
            </g>
         </g>
      </g>
   </svg>
</svg>
