<?xml version="1.0" encoding="UTF-8" standalone="no"?>
<svg width="2100px" height="2970px" version="1.1" xmlns="http://www.w3.org/2000/svg" xmlns:xlink="http://www.w3.org/1999/xlink" xmlns:mei="http://www.music-encoding.org/ns/mei" overflow="visible">
   <desc>Engraved by Verovio 4.4.0-66ab39c</desc>
   <defs>
      <symbol id="E084-wkl7u4" viewBox="0 0 1000 1000" overflow="inherit">
         <path transform="scale(1,-1)" d="M20 -78c84 97 114 180 134 329h170c-13 -32 -82 -132 -99 -151l-84 -97c-33 -36 -59 -63 -80 -81h162v102l127 123v-225h57v-39h-57v-34c0 -43 19 -65 57 -65v-34h-244v36c48 0 60 26 60 70v27h-203v39z" />
      </symbol>
      <symbol id="E0A4-wkl7u4" viewBox="0 0 1000 1000" overflow="inherit">
         <path transform="scale(1,-1)" d="M0 -39c0 68 73 172 200 172c66 0 114 -37 114 -95c0 -84 -106 -171 -218 -171c-64 0 -96 30 -96 94z" />
      </symbol>
      <symbol id="E4E7-wkl7u4" viewBox="0 0 1000 1000" overflow="inherit">
         <path transform="scale(1,-1)" d="M133 -111c0 -33 -21 -50 -52 -55c10 -3 18 -4 25 -4c40 0 69 24 90 47l66 197c-36 -18 -64 -25 -112 -25c-23 0 -38 3 -45 8c-37 7 -55 27 -55 59c8 35 30 54 68 58c45 -6 49 -13 64 -48c0 -3 1 -5 1 -7c0 -27 -25 -46 -52 -49c6 -4 15 -6 26 -6c32 2 62 14 88 29 c32 19 44 36 59 71l7 1l10 2h4c-72 -220 -143 -439 -215 -659h-37l108 324c-20 -13 -51 -20 -82 -20c-21 0 -35 4 -43 10c-37 6 -55 26 -55 58c8 35 31 56 68 60c43 -8 48 -13 64 -51z" />
      </symbol>
      <symbol id="E4E4-wkl7u4" viewBox="0 0 1000 1000" overflow="inherit">
         <path transform="scale(1,-1)" d="M0 10v105c0 9 1 10 10 10h280c9 0 10 -1 10 -10v-105c0 -9 -1 -10 -10 -10h-280c-9 0 -10 1 -10 10z" />
      </symbol>
      <symbol id="E069-wkl7u4" viewBox="0 0 1000 1000" overflow="inherit">
         <path transform="scale(1,-1)" d="M200 250h125v-500h-125v500zM0 250h125v-500h-125v500z" />
      </symbol>
      <symbol id="E0A9-wkl7u4" viewBox="0 0 1000 1000" overflow="inherit">
         <path transform="scale(1,-1)" d="M0 -110c0 4 1 8 5 11l119 99l-119 100c-3 3 -5 8 -5 12c0 6 5 13 12 13c3 0 6 -1 8 -2l124 -105l126 105c2 1 5 2 7 2c6 0 13 -6 13 -14c0 -4 -2 -9 -5 -11l-119 -100l119 -99c3 -3 5 -7 5 -12c0 -6 -5 -14 -13 -14c-2 0 -5 1 -7 3l-126 105l-124 -105c-2 -2 -4 -3 -7 -3 c-8 0 -13 7 -13 15z" />
      </symbol>
   </defs>
   <style type="text/css">g.page-margin{font-family:Times,serif;} g.ending, g.fing, g.reh, g.tempo{font-weight:bold;} g.dir, g.dynam, g.mNum{font-style:italic;} g.label{font-weight:normal;}</style>
   <svg class="definition-scale" color="black" viewBox="0 0 21000 29700">
      <g class="page-margin" transform="translate(500, 500)">
         <g id="m-a21719e2-b175-4bae-8d61-22aecedd6a2c" class="mdiv pageMilestone" />
         <g id="m-5bd5fe10-99cc-4b1d-bd76-c13a589e72f8" class="score pageMilestone" />
         <g id="slhap5y" class="system">
            <g id="m-f52971c9-e258-472a-8b9e-98525ddf0b1e" class="section systemMilestone" />
            <g id="m-a3d09d69-960f-493a-a05b-0979906094a6" class="measure">
               <g id="m-83e95ab2-8a82-459a-bbfa-a6ce9f4cf477" class="staff">
                  <path d="M0 1785 L5029 1785" stroke="currentColor" stroke-width="13" />
                  <path d="M0 1965 L5029 1965" stroke="currentColor" stroke-width="13" />
                  <path d="M0 2145 L5029 2145" stroke="currentColor" stroke-width="13" />
                  <path d="M0 2325 L5029 2325" stroke="currentColor" stroke-width="13" />
                  <path d="M0 2505 L5029 2505" stroke="currentColor" stroke-width="13" />
                  <g id="cx0ityp" class="clef">
                     <use xlink:href="#E069-wkl7u4" x="90" y="2145" height="720px" width="720px" />
                  </g>
                  <g id="k527ych" class="keySig" />
                  <g id="mrymhti" class="meterSig">
                     <use xlink:href="#E084-wkl7u4" x="490" y="1965" height="720px" width="720px" />
                     <use xlink:href="#E084-wkl7u4" x="490" y="2325" height="720px" width="720px" />
                  </g>
                  <g class="ledgerLines above">
                     <path d="M1004 1605 L1308 1605" stroke="currentColor" stroke-width="22" />
                     <path d="M1454 1605 L1758 1605" stroke="currentColor" stroke-width="22" />
                     <path d="M2086 1605 L2390 1605" stroke="currentColor" stroke-width="22" />
                     <path d="M2536 1605 L2840 1605" stroke="currentColor" stroke-width="22" />
                     <path d="M2986 1605 L3290 1605" stroke="currentColor" stroke-width="22" />
                     <path d="M3436 1605 L3740 1605" stroke="currentColor" stroke-width="22" />
                     <path d="M4068 1605 L4372 1605" stroke="currentColor" stroke-width="22" />
                     <path d="M4518 1605 L4822 1605" stroke="currentColor" stroke-width="22" />
                  </g>
                  <g id="m-e1589915-0ef7-46e9-8cf2-00f2ec29f911" class="layer">
                     <g id="m-b990abe1-d763-43a8-84bc-714f2c2cf014" class="beam">
                        <polygon points="1242,1065 1710,1065 1710,1155 1242,1155" />
                        <g id="m-3bd822d2-9c64-4d43-91f2-22491ee9b011" class="note">
                           <g class="notehead">
                              <use xlink:href="#E0A9-wkl7u4" x="1052" y="1515" height="720px" width="720px" />
                           </g>
                           <g id="slrfq98" class="stem">
                              <path d="M1251 1436 L1251 1083" stroke="currentColor" stroke-width="18" />
                           </g>
                           <g id="a7a3rxh" class="accid" />
                        </g>
                        <g id="m-cf4434b4-6582-4c69-9375-9a96406d5e93" class="note">
                           <g class="notehead">
                              <use xlink:href="#E0A9-wkl7u4" x="1502" y="1515" height="720px" width="720px" />
                           </g>
                           <g id="s1sfhi25" class="stem">
                              <path d="M1701 1436 L1701 1083" stroke="currentColor" stroke-width="18" />
                           </g>
                           <g id="a68ufb" class="accid" />
                        </g>
                     </g>
                     <g id="m-91438c76-64c1-493e-8edc-21bf908b7bd8" class="beam">
                        <polygon points="2324,1065 2792,1065 2792,1155 2324,1155" />
                        <g id="m-33ba1209-acc7-4794-840e-5291e58d1c52" class="note">
                           <g class="notehead">
                              <use xlink:href="#E0A9-wkl7u4" x="2134" y="1515" height="720px" width="720px" />
                           </g>
                           <g id="sry2u3c" class="stem">
                              <path d="M2333 1436 L2333 1083" stroke="currentColor" stroke-width="18" />
                           </g>
                           <g id="abzgwqg" class="accid" />
                        </g>
                        <g id="m-b007cdb2-f848-4f10-b7ff-5a13e95d797d" class="note">
                           <g class="notehead">
                              <use xlink:href="#E0A9-wkl7u4" x="2584" y="1515" height="720px" width="720px" />
                           </g>
                           <g id="sq41qmr" class="stem">
                              <path d="M2783 1436 L2783 1083" stroke="currentColor" stroke-width="18" />
                           </g>
                           <g id="aax5qrw" class="accid" />
                        </g>
                     </g>
                     <g id="m-fcc21316-9c51-4bf9-b1cf-53835d7e48ac" class="beam">
                        <polygon points="3224,1065 3692,1065 3692,1155 3224,1155" />
                        <g id="m-dcc9da33-b6c1-4e70-94e1-7dea28a517f5" class="note">
                           <g class="notehead">
                              <use xlink:href="#E0A9-wkl7u4" x="3034" y="1515" height="720px" width="720px" />
                           </g>
                           <g id="s19x9t7u" class="stem">
                              <path d="M3233 1436 L3233 1083" stroke="currentColor" stroke-width="18" />
                           </g>
                           <g id="a1ce812l" class="accid" />
                        </g>
                        <g id="m-1adf53df-cfdd-474a-b8fc-ff2c082a8d8f" class="note">
                           <g class="notehead">
                              <use xlink:href="#E0A9-wkl7u4" x="3484" y="1515" height="720px" width="720px" />
                           </g>
                           <g id="s1v96k0i" class="stem">
                              <path d="M3683 1436 L3683 1083" stroke="currentColor" stroke-width="18" />
                           </g>
                           <g id="a1oajmhh" class="accid" />
                        </g>
                     </g>
                     <g id="m-7c3f58f1-8307-45ab-b389-90216b41f5d8" class="beam">
                        <polygon points="4306,1065 4774,1065 4774,1155 4306,1155" />
                        <g id="m-54ce96a2-fe8d-4afb-b975-4cb4acdb80a2" class="note">
                           <g class="notehead">
                              <use xlink:href="#E0A9-wkl7u4" x="4116" y="1515" height="720px" width="720px" />
                           </g>
                           <g id="s1nt6fyp" class="stem">
                              <path d="M4315 1436 L4315 1083" stroke="currentColor" stroke-width="18" />
                           </g>
                           <g id="a1tteotk" class="accid" />
                        </g>
                        <g id="m-06d59a7a-7b9c-4f71-8cd1-500a3cdac836" class="note">
                           <g class="notehead">
                              <use xlink:href="#E0A9-wkl7u4" x="4566" y="1515" height="720px" width="720px" />
                           </g>
                           <g id="sjovncv" class="stem">
                              <path d="M4765 1436 L4765 1083" stroke="currentColor" stroke-width="18" />
                           </g>
                           <g id="a1b78bin" class="accid" />
                        </g>
                     </g>
                  </g>
                  <g id="m-99ea450d-3ab5-419a-b9f4-3d54954fe13e" class="layer">
                     <g id="m-d9f04f29-f60d-4ac7-b049-8b93a0766c5c" class="beam">
                        <polygon points="1052,3045 1836,2865 1836,2775 1052,2955" />
                        <polygon points="1511,2805 1836,2730 1836,2640 1511,2715" />
                        <g id="m-c0f5fcab-6739-4175-a5e3-6a9a795c686f" class="note">
                           <g class="notehead">
                              <use xlink:href="#E0A4-wkl7u4" x="1052" y="2595" height="720px" width="720px" />
                           </g>
                           <g id="skf2k58" class="stem">
                              <path d="M1061 2623 L1061 3027" stroke="currentColor" stroke-width="18" />
                           </g>
                        </g>
                        <g id="m-45b3423e-4057-4874-a1ec-b6ea3bd368d6" class="note">
                           <g class="notehead">
                              <use xlink:href="#E0A4-wkl7u4" x="1502" y="2145" height="720px" width="720px" />
                           </g>
                           <g id="scl0bf1" class="stem">
                              <path d="M1511 2173 L1511 2922" stroke="currentColor" stroke-width="18" />
                           </g>
                           <g id="aszzpdu" class="accid" />
                        </g>
                        <g id="m-aefbd278-9ce9-41dd-b8f2-dafcc5720d3b" class="note">
                           <g class="notehead">
                              <use xlink:href="#E0A4-wkl7u4" x="1818" y="2145" height="720px" width="720px" />
                           </g>
                           <g id="sh8k479" class="stem">
                              <path d="M1827 2173 L1827 2847" stroke="currentColor" stroke-width="18" />
                           </g>
                           <g id="a1j9r2q2" class="accid" />
                        </g>
                     </g>
                     <g id="m-3d8631a9-a6e3-4261-9851-56a7e27fdcaf" class="beam">
                        <polygon points="2134,3090 2602,3045 2602,2955 2134,3000" />
                        <g id="m-54bebdac-dcf7-433f-ba3a-75db1d111e18" class="note">
                           <g class="notehead">
                              <use xlink:href="#E0A4-wkl7u4" x="2134" y="2595" height="720px" width="720px" />
                           </g>
                           <g id="s8hk61x" class="stem">
                              <path d="M2143 2623 L2143 3072" stroke="currentColor" stroke-width="18" />
                           </g>
                        </g>
                        <g id="m-8eda2536-8924-4329-a0e6-95cfdd7aae37" class="note">
                           <g class="notehead">
                              <use xlink:href="#E0A4-wkl7u4" x="2584" y="2145" height="720px" width="720px" />
                           </g>
                           <g id="s7ce9j6" class="stem">
                              <path d="M2593 2173 L2593 3027" stroke="currentColor" stroke-width="18" />
                           </g>
                           <g id="a133vdu1" class="accid" />
                        </g>
                     </g>
                     <g id="m-74279a9e-4484-404c-aa72-4d5be9a10ca6" class="beam">
                        <polygon points="3034,3045 3818,2865 3818,2775 3034,2955" />
                        <polygon points="3493,2805 3818,2730 3818,2640 3493,2715" />
                        <g id="m-ad15c9cb-1c71-444c-912d-65d1ebf9a35f" class="note">
                           <g class="notehead">
                              <use xlink:href="#E0A4-wkl7u4" x="3034" y="2595" height="720px" width="720px" />
                           </g>
                           <g id="sov6pbn" class="stem">
                              <path d="M3043 2623 L3043 3027" stroke="currentColor" stroke-width="18" />
                           </g>
                        </g>
                        <g id="m-45becbfa-e9fc-4d5a-a28d-b5be00d5710c" class="note">
                           <g class="notehead">
                              <use xlink:href="#E0A4-wkl7u4" x="3484" y="2145" height="720px" width="720px" />
                           </g>
                           <g id="sub5wau" class="stem">
                              <path d="M3493 2173 L3493 2922" stroke="currentColor" stroke-width="18" />
                           </g>
                           <g id="a16jh7bi" class="accid" />
                        </g>
                        <g id="m-012deaa5-c980-4811-b048-7c0372ce4f28" class="note">
                           <g class="notehead">
                              <use xlink:href="#E0A4-wkl7u4" x="3800" y="2145" height="720px" width="720px" />
                           </g>
                           <g id="sssc1zb" class="stem">
                              <path d="M3809 2173 L3809 2847" stroke="currentColor" stroke-width="18" />
                           </g>
                           <g id="a11epla1" class="accid" />
                        </g>
                     </g>
                     <g id="m-2008477f-3bfb-489e-bf20-b23267df7970" class="beam">
                        <polygon points="4116,3090 4584,3045 4584,2955 4116,3000" />
                        <g id="m-7105bc4e-d9fb-4d35-9e1c-d889cfde253d" class="note">
                           <g class="notehead">
                              <use xlink:href="#E0A4-wkl7u4" x="4116" y="2595" height="720px" width="720px" />
                           </g>
                           <g id="s1a89wm1" class="stem">
                              <path d="M4125 2623 L4125 3072" stroke="currentColor" stroke-width="18" />
                           </g>
                        </g>
                        <g id="m-c2204f11-21f0-42f0-81de-d669a11b8bde" class="note">
                           <g class="notehead">
                              <use xlink:href="#E0A4-wkl7u4" x="4566" y="2145" height="720px" width="720px" />
                           </g>
                           <g id="s16cigll" class="stem">
                              <path d="M4575 2173 L4575 3027" stroke="currentColor" stroke-width="18" />
                           </g>
                           <g id="afi9th3" class="accid" />
                        </g>
                     </g>
                  </g>
               </g>
               <g id="beykcsa" class="barLine">
                  <path d="M5016 1785 L5016 2505" stroke="currentColor" stroke-width="27" />
               </g>
            </g>
            <g id="m-695932eb-ca83-44d4-ad11-760e79a10173" class="measure">
               <g id="m-f6045f73-a07a-420f-be4f-e0383c91e9bc" class="staff">
                  <path d="M5029 1785 L10117 1785" stroke="currentColor" stroke-width="13" />
                  <path d="M5029 1965 L10117 1965" stroke="currentColor" stroke-width="13" />
                  <path d="M5029 2145 L10117 2145" stroke="currentColor" stroke-width="13" />
                  <path d="M5029 2325 L10117 2325" stroke="currentColor" stroke-width="13" />
                  <path d="M5029 2505 L10117 2505" stroke="currentColor" stroke-width="13" />
                  <g class="ledgerLines above">
                     <path d="M5161 1605 L5465 1605" stroke="currentColor" stroke-width="22" />
                     <path d="M5611 1605 L5915 1605" stroke="currentColor" stroke-width="22" />
                     <path d="M6243 1605 L6547 1605" stroke="currentColor" stroke-width="22" />
                  </g>
                  <g id="m-5ebd6559-d1d6-404f-9433-4141af3ce74e" class="layer">
                     <g id="m-e0435c52-913b-4d2f-9249-070d0337b1b6" class="beam">
                        <polygon points="5399,1065 5867,1065 5867,1155 5399,1155" />
                        <g id="m-78867e77-c69f-4281-a4e1-5eae0c64df2b" class="note">
                           <g class="notehead">
                              <use xlink:href="#E0A9-wkl7u4" x="5209" y="1515" height="720px" width="720px" />
                           </g>
                           <g id="s1kuil7j" class="stem">
                              <path d="M5408 1436 L5408 1083" stroke="currentColor" stroke-width="18" />
                           </g>
                           <g id="aoaw2ja" class="accid" />
                        </g>
                        <g id="m-00f0b31c-4ec2-4f88-b421-f53fb146b34a" class="note">
                           <g class="notehead">
                              <use xlink:href="#E0A9-wkl7u4" x="5659" y="1515" height="720px" width="720px" />
                           </g>
                           <g id="sr0q9oo" class="stem">
                              <path d="M5858 1436 L5858 1083" stroke="currentColor" stroke-width="18" />
                           </g>
                           <g id="a1vdggfn" class="accid" />
                        </g>
                     </g>
                     <g id="m-73580810-8272-4d06-a4a2-e7283fbf9dbd" class="note">
                        <g class="notehead">
                           <use xlink:href="#E0A9-wkl7u4" x="6291" y="1515" height="720px" width="720px" />
                        </g>
                        <g id="st1oouc" class="stem">
                           <path d="M6490 1436 L6490 1065" stroke="currentColor" stroke-width="18" />
                        </g>
                        <g id="at29kwj" class="accid" />
                     </g>
                     <g id="m-e0e99429-5835-4914-878e-b104013d907a" class="rest">
                        <use xlink:href="#E4E4-wkl7u4" x="7562" y="1605" height="720px" width="720px" />
                        <g class="ledgerLines">
                           <path d="M7514 1605 L7826 1605" stroke="currentColor" stroke-width="22" />
                        </g>
                     </g>
                  </g>
                  <g id="m-26c045dd-4968-4b8e-bc86-f59c83f2e156" class="layer">
                     <g id="m-b72a8078-af2d-41a0-8ce2-af89a3bcfa71" class="beam">
                        <polygon points="5209,3045 5993,2865 5993,2775 5209,2955" />
                        <polygon points="5668,2805 5993,2730 5993,2640 5668,2715" />
                        <g id="m-2f61aef4-29fd-47c2-afab-0fd84f589ede" class="note">
                           <g class="notehead">
                              <use xlink:href="#E0A4-wkl7u4" x="5209" y="2595" height="720px" width="720px" />
                           </g>
                           <g id="s1n4e740" class="stem">
                              <path d="M5218 2623 L5218 3027" stroke="currentColor" stroke-width="18" />
                           </g>
                        </g>
                        <g id="m-9e90da3f-7a3d-4ebc-af77-0fa0d0cc61f0" class="note">
                           <g class="notehead">
                              <use xlink:href="#E0A4-wkl7u4" x="5659" y="2145" height="720px" width="720px" />
                           </g>
                           <g id="s1neb6jy" class="stem">
                              <path d="M5668 2173 L5668 2922" stroke="currentColor" stroke-width="18" />
                           </g>
                           <g id="a102tqwe" class="accid" />
                        </g>
                        <g id="m-40967f83-e6e1-48c1-aaaf-2867766e6f03" class="note">
                           <g class="notehead">
                              <use xlink:href="#E0A4-wkl7u4" x="5975" y="2145" height="720px" width="720px" />
                           </g>
                           <g id="s1e88k59" class="stem">
                              <path d="M5984 2173 L5984 2847" stroke="currentColor" stroke-width="18" />
                           </g>
                           <g id="a1fch4fi" class="accid" />
                        </g>
                     </g>
                     <g id="m-661ab56a-b6e7-4041-b303-5993990ddd24" class="rest">
                        <use xlink:href="#E4E7-wkl7u4" x="6291" y="2325" height="720px" width="720px" />
                     </g>
                     <g id="m-fe6ef0bb-0955-4eb8-9f0e-8189bf3781e3" class="beam">
                        <polygon points="6614,2730 7264,2730 7264,2640 6614,2640" />
                        <polygon points="6614,2595 6939,2595 6939,2505 6614,2505" />
                        <polygon points="6939,2595 7264,2595 7264,2505 6939,2505" />
                        <g id="m-591387d1-1b84-4fb7-a23d-3925f2460be7" class="note">
                           <g class="notehead">
                              <use xlink:href="#E0A4-wkl7u4" x="6614" y="2145" height="720px" width="720px" />
                           </g>
                           <g id="s1a9jkzn" class="stem">
                              <path d="M6623 2173 L6623 2712" stroke="currentColor" stroke-width="18" />
                           </g>
                           <g id="ate78nu" class="accid" />
                        </g>
                        <g id="m-4d141409-6f26-421d-b69d-0ce1f07e757a" class="note">
                           <g class="notehead">
                              <use xlink:href="#E0A4-wkl7u4" x="6930" y="2145" height="720px" width="720px" />
                           </g>
                           <g id="s8humd7" class="stem">
                              <path d="M6939 2173 L6939 2712" stroke="currentColor" stroke-width="18" />
                           </g>
                           <g id="azyfxmq" class="accid" />
                        </g>
                        <g id="m-a8df0177-c41e-4873-84fd-4dd218322d8e" class="note">
                           <g class="notehead">
                              <use xlink:href="#E0A4-wkl7u4" x="7246" y="2145" height="720px" width="720px" />
                           </g>
                           <g id="serhg6m" class="stem">
                              <path d="M7255 2173 L7255 2712" stroke="currentColor" stroke-width="18" />
                           </g>
                           <g id="a1ss1f94" class="accid" />
                        </g>
                     </g>
                     <g id="m-8fba7207-5fc7-4199-a878-523373bde033" class="beam">
                        <polygon points="7562,2775 8528,2775 8528,2685 7562,2685" />
                        <polygon points="7562,2640 7887,2640 7887,2550 7562,2550" />
                        <polygon points="7887,2640 8203,2640 8203,2550 7887,2550" />
                        <polygon points="8203,2640 8528,2640 8528,2550 8203,2550" />
                        <g id="m-0a2f7603-53de-419a-b48c-54fbac18cc45" class="note">
                           <g class="notehead">
                              <use xlink:href="#E0A4-wkl7u4" x="7562" y="2145" height="720px" width="720px" />
                           </g>
                           <g id="se0dapm" class="stem">
                              <path d="M7571 2173 L7571 2757" stroke="currentColor" stroke-width="18" />
                           </g>
                           <g id="awgelym" class="accid" />
                        </g>
                        <g id="m-9f2ad6a1-264e-44a0-9490-9fbdd2859d57" class="note">
                           <g class="notehead">
                              <use xlink:href="#E0A4-wkl7u4" x="7878" y="2145" height="720px" width="720px" />
                           </g>
                           <g id="slf2qyl" class="stem">
                              <path d="M7887 2173 L7887 2757" stroke="currentColor" stroke-width="18" />
                           </g>
                           <g id="a1bkxaz3" class="accid" />
                        </g>
                        <g id="m-ef6c30cf-7a65-4969-94f0-8fa0026b7409" class="note">
                           <g class="notehead">
                              <use xlink:href="#E0A4-wkl7u4" x="8194" y="1875" height="720px" width="720px" />
                           </g>
                           <g id="s1w8sn67" class="stem">
                              <path d="M8203 1903 L8203 2757" stroke="currentColor" stroke-width="18" />
                           </g>
                           <g id="a1osfqn7" class="accid" />
                        </g>
                        <g id="m-af328b29-a86a-4db4-bfca-395e9442e020" class="note">
                           <g class="notehead">
                              <use xlink:href="#E0A4-wkl7u4" x="8510" y="1875" height="720px" width="720px" />
                           </g>
                           <g id="s2u5amo" class="stem">
                              <path d="M8519 1903 L8519 2757" stroke="currentColor" stroke-width="18" />
                           </g>
                           <g id="af66047" class="accid" />
                        </g>
                     </g>
                     <g id="m-d919cc36-08cb-4f26-b2dc-33b7b704f180" class="beam">
                        <polygon points="8826,3045 9792,3045 9792,2955 8826,2955" />
                        <polygon points="8826,2910 9151,2910 9151,2820 8826,2820" />
                        <polygon points="9151,2910 9467,2910 9467,2820 9151,2820" />
                        <polygon points="9467,2910 9792,2910 9792,2820 9467,2820" />
                        <g id="m-20bcecbd-812e-4ef4-a492-f6d2cd2ecd68" class="note">
                           <g class="notehead">
                              <use xlink:href="#E0A4-wkl7u4" x="8826" y="1965" height="720px" width="720px" />
                           </g>
                           <g id="s1x3zx3x" class="stem">
                              <path d="M8835 1993 L8835 3027" stroke="currentColor" stroke-width="18" />
                           </g>
                        </g>
                        <g id="m-9c45e01c-d51c-422a-a8ee-40e22e90106c" class="note">
                           <g class="notehead">
                              <use xlink:href="#E0A4-wkl7u4" x="9142" y="1965" height="720px" width="720px" />
                           </g>
                           <g id="skez382" class="stem">
                              <path d="M9151 1993 L9151 3027" stroke="currentColor" stroke-width="18" />
                           </g>
                        </g>
                        <g id="m-44a03c90-b48f-4564-9c9d-415a20ed8c8a" class="note">
                           <g class="notehead">
                              <use xlink:href="#E0A4-wkl7u4" x="9458" y="2415" height="720px" width="720px" />
                           </g>
                           <g id="s1yueuh4" class="stem">
                              <path d="M9467 2443 L9467 3027" stroke="currentColor" stroke-width="18" />
                           </g>
                        </g>
                        <g id="m-6fac2d5d-3d8e-4d47-a368-118cd1037fd9" class="note">
                           <g class="notehead">
                              <use xlink:href="#E0A4-wkl7u4" x="9774" y="2415" height="720px" width="720px" />
                           </g>
                           <g id="svc1ine" class="stem">
                              <path d="M9783 2443 L9783 3027" stroke="currentColor" stroke-width="18" />
                           </g>
                        </g>
                     </g>
                  </g>
               </g>
               <g id="blsraw8" class="barLine">
                  <path d="M10104 1785 L10104 2505" stroke="currentColor" stroke-width="27" />
               </g>
            </g>
            <g id="s1083a78" class="systemMilestoneEnd m-f52971c9-e258-472a-8b9e-98525ddf0b1e" />
         </g>
         <g id="pax22rv" class="pageMilestoneEnd m-5bd5fe10-99cc-4b1d-bd76-c13a589e72f8" />
         <g id="p1msa8ka" class="pageMilestoneEnd m-a21719e2-b175-4bae-8d61-22aecedd6a2c" />
         <g id="pc7i5nj" class="pgHead autogenerated">
            <text font-size="0px">
               <tspan id="r1d8kjl2" class="rend" x="10000" y="416" text-anchor="middle">
                  <title class="labelAttr">title</title>
                  <tspan id="r1v6jmpx" class="rend">
                     <tspan id="tmbb17d" class="text">
                        <tspan font-size="607px">36_rock_92_beat_4-4</tspan>
                     </tspan>
                  </tspan>
                  <tspan id="l1esxx7" class="lb" />
                  <tspan id="r1jo22sb" class="rend">
                     <tspan id="t1fis3q8" class="text" x="10000" y="806">
                        <tspan font-size="324px">36_rock_92_beat_4-4</tspan>
                     </tspan>
                  </tspan>
               </tspan>
            </text>
         </g>
         <g id="p1z0lq9q" class="pgFoot autogenerated">
            <g id="f1bb8o4n" class="fig">
               <g class="svg" transform="translate(7750, 28099) scale(10.000000, 10.000000)">
                  <g>
                     <path fill="#00000" d="M 17.11278,49.26451 V 10.367554 h 12.696511 c 3.288815,7.336676 6.71267,14.610456 10.127281,21.888976 3.419998,-7.484684 6.255515,-14.204887 9.58887,-21.909915 2.436207,0.103726 4.316952,0.08453 6.484294,-0.05808 V 49.264423 H 50.274275 C 50.145222,38.35639 50.016136,27.448368 49.887066,16.540329 45.003488,27.315459 39.967448,38.433564 35.083854,49.208695 34.678996,49.343717 34.426583,49.135619 34.021726,49.270644 29.46588,39.330716 24.910049,29.390805 20.354201,19.450876 20.224341,29.388756 20.09461,39.326619 19.964815,49.264497 H 17.11278 Z M 36.754144,39.324695 C 32.721221,30.512695 28.6883,21.700679 24.655394,12.888662 22.530527,12.750737 22.656775,12.71031 20.714356,12.813974 v 0.966497 c 4.612938,9.99784 9.609439,20.748709 13.87298,30.081745 0.722248,-1.512523 1.444528,-3.025014 2.166808,-4.537521 z m 25.738417,9.939815 c 0,-12.965651 0,-25.931305 0,-38.896956 10.084388,0 20.168791,0 30.253178,0 0,0.960416 0,1.920849 0,2.881265 -6.482825,0 -12.965652,0 -19.448478,0 0,4.802097 0,9.604178 0,14.406277 5.52241,0 11.044819,0 16.567229,0 0,0.960415 0,1.920832 0,2.881248 -5.52241,0 -11.044819,0 -16.567229,0 0,5.282306 0,10.564611 0,15.846917 6.963035,0 13.926068,0 20.889103,0 0,0.960416 0,1.920832 0,2.881249 -10.564597,0 -21.129207,0 -31.693803,0 z m 4.321874,-2.160937 c 0,-11.765131 0,-23.530263 0,-35.295394 -0.720312,0 -1.440625,0 -2.160937,0 0,11.765131 0,23.530263 0,35.295394 0.720312,0 1.440625,0 2.160937,0 z m 32.41413,2.160937 c 0,-12.965651 0,-25.931305 0,-38.896956 2.401045,0 4.802095,0 7.203135,0 0,12.965651 0,25.931305 0,38.896956 -2.40104,0 -4.80209,0 -7.203135,0 z m 2.881265,-2.160937 c 0,-11.765131 0,-23.530263 0,-35.295394 -0.72031,0 -1.44064,0 -2.160953,0 0,11.765131 0,23.530263 0,35.295394 0.720313,0 1.440643,0 2.160953,0 z" />
                     <path fill="#00000" d="m 346.3,6.7 c -3.1,0.5 -4.9,4.4 -2.7,6.8 1.2,1.4 2.7,2.4 4.1,3.5 -2.4,5.3 -7.7,8.3 -11.9,12.1 -3.7,2.8 -7,6.2 -9.7,9.9 -2.2,-0.8 -0.3,-6.8 -0.6,-9.5 0.1,-3.1 0.7,-6.4 2.9,-8.7 1.3,-1.9 3,-3.5 4.5,-5.2 1.2,-3.4 -3.2,-4.9 -5.8,-4.6 -7.3,-0.5 -14.6,2 -20,6.8 -5,4.6 -10,10.1 -11.5,17 -0.9,3.5 -0.2,7.5 2.8,9.9 2.5,2.8 7.4,2.9 9.8,-0.2 1.7,-2.3 3.2,-4.8 3.8,-7.6 -0.1,-2.6 -4.4,-2.3 -4.3,0.2 1.2,2.4 -0.9,4.7 -2.7,6.2 -1.7,0.9 -4.7,0.7 -4.8,-1.7 -1,-5.8 2.1,-11.3 5.2,-16.1 4,-5.8 9.8,-11.2 17.2,-11.8 1.6,0 8.1,-1.2 6.8,1.4 -2.8,2.8 -5.6,6.1 -6,10.3 -1.6,7.7 0.1,15.7 -2.3,23.2 -1.1,3.9 2,2.6 2.5,0.2 3.3,-7.4 8.9,-13.4 15.1,-18.5 4.2,-3.9 9.5,-7.1 11.9,-12.6 1.3,-3.6 1.2,-9 -2.7,-10.9 -0.6,-0.2 -1.2,-0.3 -1.8,-0.3 z m 66,14.5 c -2,0.8 -1.8,4.9 0.8,4.4 3.4,0.4 2.9,-6.2 -0.8,-4.4 z m 0.6,7.3 c -1.3,0.5 -7.6,0.5 -5.4,2.2 4,-0.3 0.7,4.5 0.6,6.7 -0.4,2.9 -2.4,5.9 -1.2,8.8 2.7,1.7 5.6,-0.8 6.8,-3.2 1.6,-1.4 -0.5,-3 -1.2,-0.9 -0.4,0.8 -2.4,3.5 -2.6,1.8 1.1,-5 2.7,-9.9 3.9,-14.9 l -0.1,-0.5 h -0.9 z m -65.1,0.2 c -6.5,1.6 -10.5,9.5 -8.2,15.7 2.1,3.4 7.4,2.9 10.1,0.4 2,-0.2 3.6,-5.3 1,-3.4 -1.4,2 -4,4.2 -6.5,2.8 -2.2,-1.9 -1.9,-5.7 1.7,-5.3 3.1,-0.9 6.9,-2.1 8.1,-5.5 0.9,-2.7 -1.6,-5.2 -4.3,-4.8 h -1.1 -0.7 z m 13.6,0 c -2.2,0 -8.5,1.8 -2.9,2.3 0.9,1.9 -1,4.9 -1.1,7.2 -0.5,2.9 -1.4,5.7 -1.7,8.7 3.7,0.7 3.8,-2.6 4.4,-5.3 0.9,-3.3 1.6,-7 4.1,-9.5 2.4,1.6 6.8,-0.7 3.7,-3.4 -2.9,-0.5 -4.8,2.4 -6.2,4.3 0,-1.2 2.4,-5 -0.2,-4.3 z m 15.8,0 c -6.4,1.3 -9.6,9.1 -7.7,14.9 1.9,4 7.7,3.9 11,1.7 4.1,-3 6,-8.9 4.4,-13.7 -1.3,-3 -4.8,-3.2 -7.6,-3 z m 17,0 c -2.3,0 -8.8,1.9 -3,2.4 0.4,2.5 -1,5.7 -1.4,8.4 -0.7,2.4 -1.8,7.5 2.1,7.2 3.8,-0.1 6.5,-3.5 8.5,-6.3 2,-3.2 4.5,-7 3.3,-10.9 -3.7,-3 -3.6,2.6 -3.1,5.1 -0.7,3.8 -2.7,7.9 -6.2,9.8 -3.6,0.6 -1,-4.3 -0.8,-6.1 0.6,-3.2 1.6,-6.3 1.9,-9.5 -0.4,0 -0.8,0 -1.1,0 z m 30.6,0 c -6.3,1.2 -9.5,8.9 -7.8,14.7 1.5,4 7.2,4.2 10.5,2.4 4.6,-2.8 6.6,-9.3 4.8,-14.3 -1.4,-2.8 -4.8,-3 -7.5,-2.8 z m -75.4,1.7 c 2.1,1.5 0.2,4.7 -1.6,5.7 -1.1,0.4 -5.5,3.4 -4.6,0.7 0.8,-2.7 2.2,-6.2 5.3,-6.6 l 0.9,0.1 z m 30.8,0 c 2.6,1.5 1.3,5.2 0.8,7.6 -0.8,2.7 -1.9,5.9 -4.7,7.1 -5.1,0.8 -4,-5.8 -2.8,-8.8 1,-2.8 3,-6.8 6.7,-5.8 z m 47.1,-0.1 c 2.9,0.7 2,4.7 1.5,6.8 -0.7,3 -1.8,6.7 -5,8 -4.7,0.8 -4,-5.1 -3,-7.9 0.9,-3 2.7,-7.3 6.5,-6.8 z m -88.1,5.9 c -0.3,1.3 0.9,-0.6 0,0 z m -1.1,2.4 c -0.2,0.5 0.5,-0.1 0,0 z m -1.3,4.5 c -0.3,1.3 0.8,-0.2 0,0 z" />
                     <text y="41" x="201" fill="#00000" style="font-style:italic;font-weight:normal;font-size:30px;line-height:125%;font-family:Times;text-anchor:middle" xml:space="preserve">engraved with</text>
                  </g>
               </g>
            </g>
         </g>
      </g>
   </svg>
</svg>
