<?xml version="1.0" encoding="UTF-8" standalone="no"?>
<svg width="2100px" height="2970px" version="1.1" xmlns="http://www.w3.org/2000/svg" xmlns:xlink="http://www.w3.org/1999/xlink" xmlns:mei="http://www.music-encoding.org/ns/mei" overflow="visible">
   <desc>Engraved by Verovio 4.4.0-66ab39c</desc>
   <defs>
      <symbol id="E241-1dfpwvo" viewBox="0 0 1000 1000" overflow="inherit">
         <path transform="scale(1,-1)" d="M179 646c-4 8 -17 30 -18 33l-4 10c0 3 2 5 5 5s7 -2 13 -7c23 -33 46 -81 66 -132c22 -57 35 -125 35 -163c0 -104 -60 -183 -122 -241c-63 -59 -57 -53 -61 -56c-38 -34 -63 -95 -71 -95h-22v190c40 7 69 11 87 16c88 27 168 95 168 200c0 30 -12 89 -30 138 c-17 47 -31 73 -46 102z" />
      </symbol>
      <symbol id="E4E8-1dfpwvo" viewBox="0 0 1000 1000" overflow="inherit">
         <path transform="scale(1,-1)" d="M69 -54c44 -9 49 -10 63 -50c0 -14 -1 -24 -4 -29c-7 -11 -23 -20 -47 -26c6 -3 15 -4 25 -4c18 0 39 7 61 22c18 12 30 26 30 26l61 187c-22 -12 -48 -21 -81 -21c-18 0 -34 3 -46 9c-36 9 -54 29 -54 61c8 34 31 58 68 58c34 0 63 -24 63 -57c0 -11 -4 -21 -10 -30 c-4 -5 -16 -12 -39 -18c8 -3 16 -5 24 -5c35 0 71 25 88 45l66 198c-12 -11 -33 -12 -55 -17c-18 -4 -29 -8 -35 -8h-15l-28 2c-10 1 -17 3 -23 6c-37 7 -56 26 -56 59c9 33 33 59 72 59c33 0 53 -21 61 -49c0 -37 -17 -47 -51 -55c5 -4 13 -6 24 -6c14 0 29 3 45 8 c47 15 89 43 101 92l18 2l4 -1l-288 -889h-37l106 318c-17 -10 -43 -15 -72 -15c-22 0 -40 3 -52 9c-35 8 -55 23 -55 61c8 35 31 54 68 58z" />
      </symbol>
      <symbol id="E084-1dfpwvo" viewBox="0 0 1000 1000" overflow="inherit">
         <path transform="scale(1,-1)" d="M20 -78c84 97 114 180 134 329h170c-13 -32 -82 -132 -99 -151l-84 -97c-33 -36 -59 -63 -80 -81h162v102l127 123v-225h57v-39h-57v-34c0 -43 19 -65 57 -65v-34h-244v36c48 0 60 26 60 70v27h-203v39z" />
      </symbol>
      <symbol id="E0A2-1dfpwvo" viewBox="0 0 1000 1000" overflow="inherit">
         <path transform="scale(1,-1)" d="M198 133c102 0 207 -45 207 -133c0 -92 -118 -133 -227 -133c-101 0 -178 46 -178 133c0 88 93 133 198 133zM293 -21c0 14 -3 29 -8 44c-7 20 -18 38 -33 54c-20 21 -43 31 -68 31l-20 -2c-15 -5 -27 -14 -36 -28c-4 -9 -6 -17 -8 -24s-3 -16 -3 -27c0 -15 3 -34 9 -57 s18 -41 34 -55c15 -15 36 -23 62 -23c4 0 10 1 18 2c19 5 32 15 40 30s13 34 13 55z" />
      </symbol>
      <symbol id="E0A4-1dfpwvo" viewBox="0 0 1000 1000" overflow="inherit">
         <path transform="scale(1,-1)" d="M0 -39c0 68 73 172 200 172c66 0 114 -37 114 -95c0 -84 -106 -171 -218 -171c-64 0 -96 30 -96 94z" />
      </symbol>
      <symbol id="E0A9-1dfpwvo" viewBox="0 0 1000 1000" overflow="inherit">
         <path transform="scale(1,-1)" d="M0 -110c0 4 1 8 5 11l119 99l-119 100c-3 3 -5 8 -5 12c0 6 5 13 12 13c3 0 6 -1 8 -2l124 -105l126 105c2 1 5 2 7 2c6 0 13 -6 13 -14c0 -4 -2 -9 -5 -11l-119 -100l119 -99c3 -3 5 -7 5 -12c0 -6 -5 -14 -13 -14c-2 0 -5 1 -7 3l-126 105l-124 -105c-2 -2 -4 -3 -7 -3 c-8 0 -13 7 -13 15z" />
      </symbol>
      <symbol id="E0B5-1dfpwvo" viewBox="0 0 1000 1000" overflow="inherit">
         <path transform="scale(1,-1)" d="M293 -21c0 14 -3 29 -8 44c-3 8 -6 15 -10 22l-55 -45l68 -55c3 11 5 22 5 34zM198 133c102 0 207 -45 207 -133c0 -92 -98 -133 -207 -133c-101 0 -198 46 -198 133c0 88 93 133 198 133zM141 -64c5 -8 12 -15 19 -21c15 -15 36 -23 62 -23c4 0 10 1 18 2 c17 4 29 13 37 25l-79 64zM260 68c-2 3 -5 6 -8 9c-20 21 -43 31 -68 31l-20 -2c-15 -5 -27 -14 -36 -28c0 -1 -1 -1 -1 -2l71 -58zM119 48c-1 -6 -2 -13 -2 -21c0 -15 3 -34 9 -57l3 -9l49 39z" />
      </symbol>
      <symbol id="E069-1dfpwvo" viewBox="0 0 1000 1000" overflow="inherit">
         <path transform="scale(1,-1)" d="M200 250h125v-500h-125v500zM0 250h125v-500h-125v500z" />
      </symbol>
   </defs>
   <style type="text/css">g.page-margin{font-family:Times,serif;} g.ending, g.fing, g.reh, g.tempo{font-weight:bold;} g.dir, g.dynam, g.mNum{font-style:italic;} g.label{font-weight:normal;}</style>
   <svg class="definition-scale" color="black" viewBox="0 0 21000 29700">
      <g class="page-margin" transform="translate(500, 500)">
         <g id="m-9836b6a4-da77-46b1-abc1-36e6490e02cb" class="mdiv pageMilestone" />
         <g id="m-0217e95f-68dc-4dca-ac67-b134f93b31e0" class="score pageMilestone" />
         <g id="sa0nas7" class="system">
            <g id="m-c1f60fe2-ef23-4ab7-a1dc-177de12e7cbd" class="section systemMilestone" />
            <g id="m-818dd212-7b6b-4eee-a2c1-6606f4a6f5ad" class="measure">
               <g id="m-f4d0ef7e-7f69-419a-9073-c732b7dfe9d9" class="staff">
                  <path d="M0 1604 L4994 1604" stroke="currentColor" stroke-width="13" />
                  <path d="M0 1784 L4994 1784" stroke="currentColor" stroke-width="13" />
                  <path d="M0 1964 L4994 1964" stroke="currentColor" stroke-width="13" />
                  <path d="M0 2144 L4994 2144" stroke="currentColor" stroke-width="13" />
                  <path d="M0 2324 L4994 2324" stroke="currentColor" stroke-width="13" />
                  <g id="cyr7uz7" class="clef">
                     <use xlink:href="#E069-1dfpwvo" x="90" y="1964" height="720px" width="720px" />
                  </g>
                  <g id="kby5x2u" class="keySig" />
                  <g id="m19f93ia" class="meterSig">
                     <use xlink:href="#E084-1dfpwvo" x="490" y="1784" height="720px" width="720px" />
                     <use xlink:href="#E084-1dfpwvo" x="490" y="2144" height="720px" width="720px" />
                  </g>
                  <g id="m-af5ef785-abc0-4fe9-a604-dc80b2ddb816" class="layer">
                     <g id="m-a36c15c8-dce9-43f1-bd85-4d834f163fbe" class="note">
                        <g class="notehead">
                           <use xlink:href="#E0A9-1dfpwvo" x="1068" y="1514" height="720px" width="720px" />
                        </g>
                        <g id="s139xs3o" class="stem">
                           <path d="M1267 1435 L1267 1064" stroke="currentColor" stroke-width="18" />
                        </g>
                     </g>
                     <g id="m-244af728-e81c-4003-822b-15c0028eaa92" class="note">
                        <g class="notehead">
                           <use xlink:href="#E0A9-1dfpwvo" x="2046" y="1514" height="720px" width="720px" />
                        </g>
                        <g id="sbiuxe9" class="stem">
                           <path d="M2245 1435 L2245 1064" stroke="currentColor" stroke-width="18" />
                        </g>
                     </g>
                     <g id="m-5e87a4b8-c3a6-47cb-a7dd-b1f1c9b6e046" class="note">
                        <g class="notehead">
                           <use xlink:href="#E0A9-1dfpwvo" x="3025" y="1514" height="720px" width="720px" />
                        </g>
                        <g id="s1jlchr6" class="stem">
                           <path d="M3224 1435 L3224 1064" stroke="currentColor" stroke-width="18" />
                        </g>
                     </g>
                     <g id="m-e50dd5f2-3a34-416c-9a5a-d3e0e4b467c0" class="note">
                        <g class="notehead">
                           <use xlink:href="#E0A9-1dfpwvo" x="4003" y="1514" height="720px" width="720px" />
                        </g>
                        <g id="s1hygcp6" class="stem">
                           <path d="M4202 1435 L4202 1064" stroke="currentColor" stroke-width="18" />
                        </g>
                     </g>
                  </g>
                  <g id="m-bf436b3b-542d-40d0-9bee-fca08ed4753b" class="layer">
                     <g id="m-45dca794-0e27-4e4d-a6c4-f305d0f02757" class="beam">
                        <polygon points="1068,2909 1575,2864 1575,2774 1068,2819" />
                        <g id="m-b1edf774-2c5e-48d1-8491-9acccf7cbf70" class="note">
                           <g class="notehead">
                              <use xlink:href="#E0A4-1dfpwvo" x="1068" y="2414" height="720px" width="720px" />
                           </g>
                           <g id="s1fz6onz" class="stem">
                              <path d="M1077 2442 L1077 2891" stroke="currentColor" stroke-width="18" />
                           </g>
                        </g>
                        <g id="m-e8bad14b-0acf-41cd-889e-f0b3aec52954" class="note">
                           <g class="notehead">
                              <use xlink:href="#E0A4-1dfpwvo" x="1557" y="1964" height="720px" width="720px" />
                           </g>
                           <g id="stg4dpv" class="stem">
                              <path d="M1566 1992 L1566 2846" stroke="currentColor" stroke-width="18" />
                           </g>
                           <g id="ae7m0lq" class="accid" />
                        </g>
                     </g>
                     <g id="m-10802925-a4f0-465f-aebe-40a4605babc3" class="beam">
                        <polygon points="2046,2909 2554,2864 2554,2774 2046,2819" />
                        <g id="m-e448246e-80d2-4ba7-9027-ba70786023f8" class="note">
                           <g class="notehead">
                              <use xlink:href="#E0A4-1dfpwvo" x="2046" y="2414" height="720px" width="720px" />
                           </g>
                           <g id="soux7er" class="stem">
                              <path d="M2055 2442 L2055 2891" stroke="currentColor" stroke-width="18" />
                           </g>
                        </g>
                        <g id="m-e729f2f8-aaf7-469d-b2ce-028083f139a6" class="note">
                           <g class="notehead">
                              <use xlink:href="#E0A4-1dfpwvo" x="2536" y="1964" height="720px" width="720px" />
                           </g>
                           <g id="s1xexmg1" class="stem">
                              <path d="M2545 1992 L2545 2846" stroke="currentColor" stroke-width="18" />
                           </g>
                           <g id="a3amd98" class="accid" />
                        </g>
                     </g>
                     <g id="m-b11c87a1-9819-49cb-9c66-fbc83a4b5dcc" class="beam">
                        <polygon points="3025,2909 3532,2864 3532,2774 3025,2819" />
                        <g id="m-9a46fd67-56d5-4de6-b329-ec3462fce13a" class="note">
                           <g class="notehead">
                              <use xlink:href="#E0A4-1dfpwvo" x="3025" y="2414" height="720px" width="720px" />
                           </g>
                           <g id="sscgfzn" class="stem">
                              <path d="M3034 2442 L3034 2891" stroke="currentColor" stroke-width="18" />
                           </g>
                        </g>
                        <g id="m-36936954-0047-4b49-b4a6-b33aa92a175b" class="note">
                           <g class="notehead">
                              <use xlink:href="#E0A4-1dfpwvo" x="3514" y="1964" height="720px" width="720px" />
                           </g>
                           <g id="s1l3k8kl" class="stem">
                              <path d="M3523 1992 L3523 2846" stroke="currentColor" stroke-width="18" />
                           </g>
                           <g id="a1bhiyc6" class="accid" />
                        </g>
                     </g>
                     <g id="m-ca1132b1-926c-49c5-bfa7-7361fd6aef8d" class="beam">
                        <polygon points="4003,2909 4510,2864 4510,2774 4003,2819" />
                        <g id="m-dff4e34e-8282-4ef9-8c4b-73ea7e5147ff" class="note">
                           <g class="notehead">
                              <use xlink:href="#E0A4-1dfpwvo" x="4003" y="2414" height="720px" width="720px" />
                           </g>
                           <g id="s1aucoqw" class="stem">
                              <path d="M4012 2442 L4012 2891" stroke="currentColor" stroke-width="18" />
                           </g>
                        </g>
                        <g id="m-964c731b-b2af-4a88-a7d4-0b6967c90cbe" class="note">
                           <g class="notehead">
                              <use xlink:href="#E0A4-1dfpwvo" x="4492" y="1964" height="720px" width="720px" />
                           </g>
                           <g id="sal79ci" class="stem">
                              <path d="M4501 1992 L4501 2846" stroke="currentColor" stroke-width="18" />
                           </g>
                           <g id="alfritu" class="accid" />
                        </g>
                     </g>
                  </g>
               </g>
               <g id="b3md23u" class="barLine">
                  <path d="M4981 1604 L4981 2324" stroke="currentColor" stroke-width="27" />
               </g>
            </g>
            <g id="m-d3bc4f0a-54f7-4b54-95d5-96f96a6541d3" class="measure">
               <g id="m-6778e56f-2ca2-4292-8458-6704973933e3" class="staff">
                  <path d="M4994 1604 L6931 1604" stroke="currentColor" stroke-width="13" />
                  <path d="M4994 1784 L6931 1784" stroke="currentColor" stroke-width="13" />
                  <path d="M4994 1964 L6931 1964" stroke="currentColor" stroke-width="13" />
                  <path d="M4994 2144 L6931 2144" stroke="currentColor" stroke-width="13" />
                  <path d="M4994 2324 L6931 2324" stroke="currentColor" stroke-width="13" />
                  <g id="m-c721a416-cd0c-40e3-b859-7528acb23b6e" class="layer">
                     <g id="m-bfcfb206-7e0c-481a-b905-1985c5b6371b" class="note">
                        <g class="notehead">
                           <use xlink:href="#E0B5-1dfpwvo" x="5190" y="1514" height="720px" width="720px" />
                        </g>
                     </g>
                  </g>
                  <g id="m-09f559fe-d862-4a8d-bb25-3e9c36fb9681" class="layer">
                     <g id="m-b68f04f0-b9a8-4fc9-9588-acc43301eef4" class="note">
                        <g class="notehead">
                           <use xlink:href="#E0A2-1dfpwvo" x="5190" y="2414" height="720px" width="720px" />
                        </g>
                     </g>
                  </g>
               </g>
               <g id="bw7xoa4" class="barLine">
                  <path d="M6918 1604 L6918 2324" stroke="currentColor" stroke-width="27" />
               </g>
            </g>
            <g id="m-c518baa5-2024-478c-97cf-3575e05ce474" class="measure">
               <g id="m-2f30ebef-4497-44b2-b515-36f9b7c54dda" class="staff">
                  <path d="M6931 1604 L11064 1604" stroke="currentColor" stroke-width="13" />
                  <path d="M6931 1784 L11064 1784" stroke="currentColor" stroke-width="13" />
                  <path d="M6931 1964 L11064 1964" stroke="currentColor" stroke-width="13" />
                  <path d="M6931 2144 L11064 2144" stroke="currentColor" stroke-width="13" />
                  <path d="M6931 2324 L11064 2324" stroke="currentColor" stroke-width="13" />
                  <g id="m-de723903-5ac4-406a-8665-4338e754c36f" class="layer">
                     <g id="m-b95d6075-8d38-4735-a2dd-9c1334cd687a" class="note">
                        <g class="notehead">
                           <use xlink:href="#E0A9-1dfpwvo" x="7127" y="1514" height="720px" width="720px" />
                        </g>
                        <g id="s18y4cyv" class="stem">
                           <path d="M7326 1435 L7326 1064" stroke="currentColor" stroke-width="18" />
                        </g>
                     </g>
                     <g id="m-5847e63a-e10b-42bf-beac-29196c7f2ae7" class="note">
                        <g class="notehead">
                           <use xlink:href="#E0A9-1dfpwvo" x="8105" y="1514" height="720px" width="720px" />
                        </g>
                        <g id="s18tstiz" class="stem">
                           <path d="M8304 1435 L8304 1064" stroke="currentColor" stroke-width="18" />
                        </g>
                     </g>
                     <g id="m-0a61f370-2fc6-4eac-9e4d-e3d6e364c8e2" class="note">
                        <g class="notehead">
                           <use xlink:href="#E0A9-1dfpwvo" x="9084" y="1514" height="720px" width="720px" />
                        </g>
                        <g id="s9uh3uf" class="stem">
                           <path d="M9283 1435 L9283 1064" stroke="currentColor" stroke-width="18" />
                        </g>
                     </g>
                     <g id="m-4ae54dc3-6b8d-49ad-ad84-d572a9b1355b" class="note">
                        <g class="notehead">
                           <use xlink:href="#E0A9-1dfpwvo" x="10062" y="1514" height="720px" width="720px" />
                        </g>
                        <g id="sv1ckuv" class="stem">
                           <path d="M10261 1435 L10261 1064" stroke="currentColor" stroke-width="18" />
                        </g>
                     </g>
                  </g>
                  <g id="m-3933768e-820b-4aa9-92fb-334b66ea4fbf" class="layer">
                     <g id="m-719342f4-40aa-4592-814e-b51a87f5d51a" class="beam">
                        <polygon points="7127,2909 7634,2864 7634,2774 7127,2819" />
                        <g id="m-2acebbcb-c438-43f2-80cc-19b8d12f943b" class="note">
                           <g class="notehead">
                              <use xlink:href="#E0A4-1dfpwvo" x="7127" y="2414" height="720px" width="720px" />
                           </g>
                           <g id="s1f78nbo" class="stem">
                              <path d="M7136 2442 L7136 2891" stroke="currentColor" stroke-width="18" />
                           </g>
                        </g>
                        <g id="m-d7ef8b8e-a65c-4763-b242-19563a258f4c" class="note">
                           <g class="notehead">
                              <use xlink:href="#E0A4-1dfpwvo" x="7616" y="1964" height="720px" width="720px" />
                           </g>
                           <g id="s1aj66ri" class="stem">
                              <path d="M7625 1992 L7625 2846" stroke="currentColor" stroke-width="18" />
                           </g>
                           <g id="a9sloti" class="accid" />
                        </g>
                     </g>
                     <g id="m-524e8b8a-aa6d-400b-88e4-5b7fb250ba1d" class="beam">
                        <polygon points="8105,2909 8613,2864 8613,2774 8105,2819" />
                        <g id="m-d7d4333f-155c-48be-8ef1-71d4db8b41ff" class="note">
                           <g class="notehead">
                              <use xlink:href="#E0A4-1dfpwvo" x="8105" y="2414" height="720px" width="720px" />
                           </g>
                           <g id="s1v9lvhu" class="stem">
                              <path d="M8114 2442 L8114 2891" stroke="currentColor" stroke-width="18" />
                           </g>
                        </g>
                        <g id="m-1a59fb9c-dc2a-4b94-ab03-7f98a3c54c60" class="note">
                           <g class="notehead">
                              <use xlink:href="#E0A4-1dfpwvo" x="8595" y="1964" height="720px" width="720px" />
                           </g>
                           <g id="s8834sg" class="stem">
                              <path d="M8604 1992 L8604 2846" stroke="currentColor" stroke-width="18" />
                           </g>
                           <g id="aha93kv" class="accid" />
                        </g>
                     </g>
                     <g id="m-b0bf0f32-7ce0-4e27-b203-aab3e91fcd0c" class="beam">
                        <polygon points="9084,2909 9591,2864 9591,2774 9084,2819" />
                        <g id="m-01edb01d-83e7-41b2-a92d-6be72c33d234" class="note">
                           <g class="notehead">
                              <use xlink:href="#E0A4-1dfpwvo" x="9084" y="2414" height="720px" width="720px" />
                           </g>
                           <g id="sdewdkq" class="stem">
                              <path d="M9093 2442 L9093 2891" stroke="currentColor" stroke-width="18" />
                           </g>
                        </g>
                        <g id="m-8fa9c9ca-a4f1-4974-b236-9d7928cb6c21" class="note">
                           <g class="notehead">
                              <use xlink:href="#E0A4-1dfpwvo" x="9573" y="1964" height="720px" width="720px" />
                           </g>
                           <g id="s1bukmg8" class="stem">
                              <path d="M9582 1992 L9582 2846" stroke="currentColor" stroke-width="18" />
                           </g>
                           <g id="a1lw1uyg" class="accid" />
                        </g>
                     </g>
                     <g id="m-19b9bf29-624e-465d-a5f1-b665244c4e95" class="beam">
                        <polygon points="10062,2864 10710,2684 10710,2594 10062,2774" />
                        <polygon points="10484,2609 10710,2549 10710,2459 10484,2519" />
                        <g id="m-785faa25-4b0c-4dde-820e-e7c98a565584" class="note">
                           <g class="notehead">
                              <use xlink:href="#E0A4-1dfpwvo" x="10062" y="2414" height="720px" width="720px" />
                           </g>
                           <g id="d19h8xza" class="dots">
                              <ellipse cx="10378" cy="2414" rx="36" ry="36" />
                           </g>
                           <g id="scdxa2r" class="stem">
                              <path d="M10071 2442 L10071 2846" stroke="currentColor" stroke-width="18" />
                           </g>
                        </g>
                        <g id="m-dd5c21e1-349b-411c-9923-a1c525935c73" class="note">
                           <g class="notehead">
                              <use xlink:href="#E0A4-1dfpwvo" x="10692" y="1964" height="720px" width="720px" />
                           </g>
                           <g id="spv560h" class="stem">
                              <path d="M10701 1992 L10701 2666" stroke="currentColor" stroke-width="18" />
                           </g>
                           <g id="a12ko6uj" class="accid" />
                        </g>
                     </g>
                  </g>
               </g>
               <g id="boxp6u8" class="barLine">
                  <path d="M11051 1604 L11051 2324" stroke="currentColor" stroke-width="27" />
               </g>
            </g>
            <g id="m-20f02595-ba91-4bac-9eff-68f70a024a10" class="measure">
               <g id="m-d03f4131-1706-44f7-baab-7126b53ccb47" class="staff">
                  <path d="M11064 1604 L13001 1604" stroke="currentColor" stroke-width="13" />
                  <path d="M11064 1784 L13001 1784" stroke="currentColor" stroke-width="13" />
                  <path d="M11064 1964 L13001 1964" stroke="currentColor" stroke-width="13" />
                  <path d="M11064 2144 L13001 2144" stroke="currentColor" stroke-width="13" />
                  <path d="M11064 2324 L13001 2324" stroke="currentColor" stroke-width="13" />
                  <g id="m-66d27f74-8406-4270-a7cb-1a53584ce9b9" class="layer">
                     <g id="m-cd068e93-0000-47fa-b2f0-fd30910201b3" class="note">
                        <g class="notehead">
                           <use xlink:href="#E0B5-1dfpwvo" x="11260" y="1514" height="720px" width="720px" />
                        </g>
                     </g>
                  </g>
                  <g id="m-dec38b17-b80c-4eb1-a33e-0e73a2621381" class="layer">
                     <g id="m-c126d8d1-4c1d-4487-9002-b042f1bad079" class="note">
                        <g class="notehead">
                           <use xlink:href="#E0A2-1dfpwvo" x="11260" y="2414" height="720px" width="720px" />
                        </g>
                     </g>
                  </g>
               </g>
               <g id="b1q4wtii" class="barLine">
                  <path d="M12988 1604 L12988 2324" stroke="currentColor" stroke-width="27" />
               </g>
            </g>
            <g id="m-b70909b5-07e6-48f4-b185-d03043963355" class="measure">
               <g id="m-bf7e95cb-853a-4fd3-8b96-3b31c9582e8a" class="staff">
                  <path d="M13001 1604 L18064 1604" stroke="currentColor" stroke-width="13" />
                  <path d="M13001 1784 L18064 1784" stroke="currentColor" stroke-width="13" />
                  <path d="M13001 1964 L18064 1964" stroke="currentColor" stroke-width="13" />
                  <path d="M13001 2144 L18064 2144" stroke="currentColor" stroke-width="13" />
                  <path d="M13001 2324 L18064 2324" stroke="currentColor" stroke-width="13" />
                  <g id="m-38889bd8-afa2-4a2b-8831-b9415d550b1d" class="layer">
                     <g id="m-3a87cdbb-c2fa-416e-b6fb-811899a329b8" class="note">
                        <g class="notehead">
                           <use xlink:href="#E0A9-1dfpwvo" x="13197" y="1514" height="720px" width="720px" />
                        </g>
                        <g id="s9lrdli" class="stem">
                           <path d="M13396 1435 L13396 1064" stroke="currentColor" stroke-width="18" />
                        </g>
                     </g>
                     <g id="m-49604541-b9f4-4057-b808-25b7acce95dd" class="note">
                        <g class="notehead">
                           <use xlink:href="#E0A9-1dfpwvo" x="14782" y="1514" height="720px" width="720px" />
                        </g>
                        <g id="s3mor62" class="stem">
                           <path d="M14981 1435 L14981 1064" stroke="currentColor" stroke-width="18" />
                        </g>
                     </g>
                     <g id="m-5c984fd1-c862-468a-b5ef-c41fb3bcbbb1" class="note">
                        <g class="notehead">
                           <use xlink:href="#E0A9-1dfpwvo" x="15760" y="1514" height="720px" width="720px" />
                        </g>
                        <g id="s1bphmoz" class="stem">
                           <path d="M15959 1435 L15959 1064" stroke="currentColor" stroke-width="18" />
                        </g>
                     </g>
                     <g id="m-87f215c8-e000-4bc0-ad5c-6d7aced686bf" class="note">
                        <g class="notehead">
                           <use xlink:href="#E0A9-1dfpwvo" x="16738" y="1514" height="720px" width="720px" />
                        </g>
                        <g id="s1unt5ew" class="stem">
                           <path d="M16937 1435 L16937 1064" stroke="currentColor" stroke-width="18" />
                        </g>
                     </g>
                  </g>
                  <g id="m-65f67f7d-1580-4ded-bf5f-a4e4c07f54a0" class="layer">
                     <g id="m-dc40cea8-4e32-422d-a267-62a8dcb2fecb" class="note">
                        <g class="notehead">
                           <use xlink:href="#E0A4-1dfpwvo" x="13197" y="2414" height="720px" width="720px" />
                        </g>
                        <g id="s1rchxoz" class="stem">
                           <path d="M13206 2442 L13206 2954" stroke="currentColor" stroke-width="18" />
                           <g id="fp1aau8" class="flag">
                              <use xlink:href="#E241-1dfpwvo" x="13197" y="2954" height="720px" width="720px" />
                           </g>
                        </g>
                     </g>
                     <g id="m-c0b2e84d-bf52-4027-a3bd-4780e5ba4c9e" class="rest">
                        <use xlink:href="#E4E8-1dfpwvo" x="13686" y="2684" height="720px" width="720px" />
                     </g>
                     <g id="m-a7feb4a1-a0d5-45cc-8cd6-4a263a2b0edb" class="beam">
                        <polygon points="14095,3134 14456,3134 14456,3044 14095,3044" />
                        <polygon points="14095,2999 14456,2999 14456,2909 14095,2909" />
                        <polygon points="14230,2864 14456,2864 14456,2774 14230,2774" />
                        <g id="m-5e51763e-8579-4036-aa4e-e5e8e99617a7" class="note">
                           <g class="notehead">
                              <use xlink:href="#E0A4-1dfpwvo" x="14095" y="2414" height="720px" width="720px" />
                           </g>
                           <g id="s1xojwbn" class="stem">
                              <path d="M14104 2442 L14104 3116" stroke="currentColor" stroke-width="18" />
                           </g>
                        </g>
                        <g id="m-c38951a0-fab9-4875-863f-bb31a917a90f" class="note">
                           <g class="notehead">
                              <use xlink:href="#E0A4-1dfpwvo" x="14438" y="2414" height="720px" width="720px" />
                           </g>
                           <g id="s1h9xb8t" class="stem">
                              <path d="M14447 2442 L14447 3116" stroke="currentColor" stroke-width="18" />
                           </g>
                        </g>
                     </g>
                     <g id="m-6f57e7d5-1cec-4d0b-a4e0-9732becaa432" class="beam">
                        <polygon points="14782,2864 15289,2864 15289,2774 14782,2774" />
                        <g id="m-f9276610-2416-41f7-a0fb-32a8c7afda1b" class="chord">
                           <g id="s188kbzl" class="stem">
                              <path d="M14791 1992 L14791 2846" stroke="currentColor" stroke-width="18" />
                           </g>
                           <g id="m-e1db9336-52fa-4a84-bf7d-0bd4dc8d7ede" class="note">
                              <g class="notehead">
                                 <use xlink:href="#E0A4-1dfpwvo" x="14782" y="1964" height="720px" width="720px" />
                              </g>
                              <g id="a16ye65s" class="accid" />
                           </g>
                           <g id="m-7623afdf-c1c5-447c-9805-e2a105e81ff2" class="note">
                              <g class="notehead">
                                 <use xlink:href="#E0A4-1dfpwvo" x="14782" y="2414" height="720px" width="720px" />
                              </g>
                           </g>
                        </g>
                        <g id="m-13abf37f-812a-4c5c-9023-4bd2c1653501" class="note">
                           <g class="notehead">
                              <use xlink:href="#E0A4-1dfpwvo" x="15271" y="2414" height="720px" width="720px" />
                           </g>
                           <g id="sx4nw0u" class="stem">
                              <path d="M15280 2442 L15280 2846" stroke="currentColor" stroke-width="18" />
                           </g>
                        </g>
                     </g>
                     <g id="m-c9f5c2e0-470e-4b7d-ac00-716600c4923c" class="beam">
                        <polygon points="15760,2864 16267,2864 16267,2774 15760,2774" />
                        <g id="m-34ad2c70-f0cc-4d6d-a8c0-353ea61bca84" class="note">
                           <g class="notehead">
                              <use xlink:href="#E0A4-1dfpwvo" x="15760" y="2414" height="720px" width="720px" />
                           </g>
                           <g id="srn0a8l" class="stem">
                              <path d="M15769 2442 L15769 2846" stroke="currentColor" stroke-width="18" />
                           </g>
                        </g>
                        <g id="m-5d8e798c-426b-46a2-8b03-18df0557a121" class="note">
                           <g class="notehead">
                              <use xlink:href="#E0A4-1dfpwvo" x="16249" y="2414" height="720px" width="720px" />
                           </g>
                           <g id="svzkitk" class="stem">
                              <path d="M16258 2442 L16258 2846" stroke="currentColor" stroke-width="18" />
                           </g>
                        </g>
                     </g>
                     <g id="m-8649205d-d4cc-47b9-a312-b78874e7744b" class="beam">
                        <polygon points="16738,3134 17580,3134 17580,3044 16738,3044" />
                        <polygon points="16738,2999 17091,2999 17091,2909 16738,2909" />
                        <polygon points="16738,2864 16964,2864 16964,2774 16738,2774" />
                        <g id="m-db5b9379-aee9-4378-a84c-0ac338858adf" class="chord">
                           <g id="s1udqbgu" class="stem">
                              <path d="M16747 1992 L16747 3116" stroke="currentColor" stroke-width="18" />
                           </g>
                           <g id="m-f9fb957d-8358-435f-8fb2-9fe38628409d" class="note">
                              <g class="notehead">
                                 <use xlink:href="#E0A4-1dfpwvo" x="16738" y="2414" height="720px" width="720px" />
                              </g>
                           </g>
                           <g id="m-64e80e70-5827-4209-9a49-bde7dfad2590" class="note">
                              <g class="notehead">
                                 <use xlink:href="#E0A4-1dfpwvo" x="16738" y="1964" height="720px" width="720px" />
                              </g>
                              <g id="a1wlp1hh" class="accid" />
                           </g>
                        </g>
                        <g id="m-9d0508b0-d5a5-4487-8028-0c0c08461642" class="note">
                           <g class="notehead">
                              <use xlink:href="#E0A4-1dfpwvo" x="17082" y="2414" height="720px" width="720px" />
                           </g>
                           <g id="d1jdrsqt" class="dots">
                              <ellipse cx="17398" cy="2414" rx="36" ry="36" />
                           </g>
                           <g id="s1uks1xh" class="stem">
                              <path d="M17091 2442 L17091 3116" stroke="currentColor" stroke-width="18" />
                           </g>
                        </g>
                        <g id="m-6c362ef8-7a22-416f-898d-5bb3926918fa" class="note">
                           <g class="notehead">
                              <use xlink:href="#E0A4-1dfpwvo" x="17562" y="2414" height="720px" width="720px" />
                           </g>
                           <g id="s1ro07el" class="stem">
                              <path d="M17571 2442 L17571 3116" stroke="currentColor" stroke-width="18" />
                           </g>
                        </g>
                     </g>
                  </g>
               </g>
               <g id="b152km4s" class="barLine">
                  <path d="M18051 1604 L18051 2324" stroke="currentColor" stroke-width="27" />
               </g>
            </g>
            <g id="m-1b3823af-aca4-44cf-a028-7022a031d690" class="measure">
               <g id="m-f71d0d5d-686f-4587-93f3-a623f6011945" class="staff">
                  <path d="M18064 1604 L20001 1604" stroke="currentColor" stroke-width="13" />
                  <path d="M18064 1784 L20001 1784" stroke="currentColor" stroke-width="13" />
                  <path d="M18064 1964 L20001 1964" stroke="currentColor" stroke-width="13" />
                  <path d="M18064 2144 L20001 2144" stroke="currentColor" stroke-width="13" />
                  <path d="M18064 2324 L20001 2324" stroke="currentColor" stroke-width="13" />
                  <g id="m-9fd36559-9a53-4ec6-a813-d398b679325f" class="layer">
                     <g id="m-df957df0-ab94-4cd9-9952-1fc0336227dc" class="note">
                        <g class="notehead">
                           <use xlink:href="#E0B5-1dfpwvo" x="18260" y="1514" height="720px" width="720px" />
                        </g>
                     </g>
                  </g>
                  <g id="m-5afd716b-e1b2-4239-a0df-de7b6fb80657" class="layer">
                     <g id="m-1c300af7-797a-4b24-9041-88d7f026e5b6" class="note">
                        <g class="notehead">
                           <use xlink:href="#E0A2-1dfpwvo" x="18260" y="2414" height="720px" width="720px" />
                        </g>
                     </g>
                  </g>
               </g>
               <g id="bxenrnp" class="barLine">
                  <path d="M19988 1604 L19988 2324" stroke="currentColor" stroke-width="27" />
               </g>
            </g>
            <g id="s1yx94am" class="systemMilestoneEnd m-c1f60fe2-ef23-4ab7-a1dc-177de12e7cbd" />
         </g>
         <g id="p173yyqb" class="pageMilestoneEnd m-0217e95f-68dc-4dca-ac67-b134f93b31e0" />
         <g id="p122f4g8" class="pageMilestoneEnd m-9836b6a4-da77-46b1-abc1-36e6490e02cb" />
         <g id="p18nq7dh" class="pgHead autogenerated">
            <text font-size="0px">
               <tspan id="rx5ysg9" class="rend" x="10000" y="415" text-anchor="middle">
                  <title class="labelAttr">title</title>
                  <tspan id="r1vkejt9" class="rend">
                     <tspan id="t3ewmtq" class="text">
                        <tspan font-size="607px">20_rock_120_beat_4-4</tspan>
                     </tspan>
                  </tspan>
                  <tspan id="lwce2fk" class="lb" />
                  <tspan id="rga2isj" class="rend">
                     <tspan id="t18fkskj" class="text" x="10000" y="805">
                        <tspan font-size="324px">20_rock_120_beat_4-4</tspan>
                     </tspan>
                  </tspan>
               </tspan>
            </text>
         </g>
         <g id="p1udpuio" class="pgFoot autogenerated">
            <g id="f19u6xxc" class="fig">
               <g class="svg" transform="translate(7750, 28099) scale(10.000000, 10.000000)">
                  <g>
                     <path fill="#00000" d="M 17.11278,49.26451 V 10.367554 h 12.696511 c 3.288815,7.336676 6.71267,14.610456 10.127281,21.888976 3.419998,-7.484684 6.255515,-14.204887 9.58887,-21.909915 2.436207,0.103726 4.316952,0.08453 6.484294,-0.05808 V 49.264423 H 50.274275 C 50.145222,38.35639 50.016136,27.448368 49.887066,16.540329 45.003488,27.315459 39.967448,38.433564 35.083854,49.208695 34.678996,49.343717 34.426583,49.135619 34.021726,49.270644 29.46588,39.330716 24.910049,29.390805 20.354201,19.450876 20.224341,29.388756 20.09461,39.326619 19.964815,49.264497 H 17.11278 Z M 36.754144,39.324695 C 32.721221,30.512695 28.6883,21.700679 24.655394,12.888662 22.530527,12.750737 22.656775,12.71031 20.714356,12.813974 v 0.966497 c 4.612938,9.99784 9.609439,20.748709 13.87298,30.081745 0.722248,-1.512523 1.444528,-3.025014 2.166808,-4.537521 z m 25.738417,9.939815 c 0,-12.965651 0,-25.931305 0,-38.896956 10.084388,0 20.168791,0 30.253178,0 0,0.960416 0,1.920849 0,2.881265 -6.482825,0 -12.965652,0 -19.448478,0 0,4.802097 0,9.604178 0,14.406277 5.52241,0 11.044819,0 16.567229,0 0,0.960415 0,1.920832 0,2.881248 -5.52241,0 -11.044819,0 -16.567229,0 0,5.282306 0,10.564611 0,15.846917 6.963035,0 13.926068,0 20.889103,0 0,0.960416 0,1.920832 0,2.881249 -10.564597,0 -21.129207,0 -31.693803,0 z m 4.321874,-2.160937 c 0,-11.765131 0,-23.530263 0,-35.295394 -0.720312,0 -1.440625,0 -2.160937,0 0,11.765131 0,23.530263 0,35.295394 0.720312,0 1.440625,0 2.160937,0 z m 32.41413,2.160937 c 0,-12.965651 0,-25.931305 0,-38.896956 2.401045,0 4.802095,0 7.203135,0 0,12.965651 0,25.931305 0,38.896956 -2.40104,0 -4.80209,0 -7.203135,0 z m 2.881265,-2.160937 c 0,-11.765131 0,-23.530263 0,-35.295394 -0.72031,0 -1.44064,0 -2.160953,0 0,11.765131 0,23.530263 0,35.295394 0.720313,0 1.440643,0 2.160953,0 z" />
                     <path fill="#00000" d="m 346.3,6.7 c -3.1,0.5 -4.9,4.4 -2.7,6.8 1.2,1.4 2.7,2.4 4.1,3.5 -2.4,5.3 -7.7,8.3 -11.9,12.1 -3.7,2.8 -7,6.2 -9.7,9.9 -2.2,-0.8 -0.3,-6.8 -0.6,-9.5 0.1,-3.1 0.7,-6.4 2.9,-8.7 1.3,-1.9 3,-3.5 4.5,-5.2 1.2,-3.4 -3.2,-4.9 -5.8,-4.6 -7.3,-0.5 -14.6,2 -20,6.8 -5,4.6 -10,10.1 -11.5,17 -0.9,3.5 -0.2,7.5 2.8,9.9 2.5,2.8 7.4,2.9 9.8,-0.2 1.7,-2.3 3.2,-4.8 3.8,-7.6 -0.1,-2.6 -4.4,-2.3 -4.3,0.2 1.2,2.4 -0.9,4.7 -2.7,6.2 -1.7,0.9 -4.7,0.7 -4.8,-1.7 -1,-5.8 2.1,-11.3 5.2,-16.1 4,-5.8 9.8,-11.2 17.2,-11.8 1.6,0 8.1,-1.2 6.8,1.4 -2.8,2.8 -5.6,6.1 -6,10.3 -1.6,7.7 0.1,15.7 -2.3,23.2 -1.1,3.9 2,2.6 2.5,0.2 3.3,-7.4 8.9,-13.4 15.1,-18.5 4.2,-3.9 9.5,-7.1 11.9,-12.6 1.3,-3.6 1.2,-9 -2.7,-10.9 -0.6,-0.2 -1.2,-0.3 -1.8,-0.3 z m 66,14.5 c -2,0.8 -1.8,4.9 0.8,4.4 3.4,0.4 2.9,-6.2 -0.8,-4.4 z m 0.6,7.3 c -1.3,0.5 -7.6,0.5 -5.4,2.2 4,-0.3 0.7,4.5 0.6,6.7 -0.4,2.9 -2.4,5.9 -1.2,8.8 2.7,1.7 5.6,-0.8 6.8,-3.2 1.6,-1.4 -0.5,-3 -1.2,-0.9 -0.4,0.8 -2.4,3.5 -2.6,1.8 1.1,-5 2.7,-9.9 3.9,-14.9 l -0.1,-0.5 h -0.9 z m -65.1,0.2 c -6.5,1.6 -10.5,9.5 -8.2,15.7 2.1,3.4 7.4,2.9 10.1,0.4 2,-0.2 3.6,-5.3 1,-3.4 -1.4,2 -4,4.2 -6.5,2.8 -2.2,-1.9 -1.9,-5.7 1.7,-5.3 3.1,-0.9 6.9,-2.1 8.1,-5.5 0.9,-2.7 -1.6,-5.2 -4.3,-4.8 h -1.1 -0.7 z m 13.6,0 c -2.2,0 -8.5,1.8 -2.9,2.3 0.9,1.9 -1,4.9 -1.1,7.2 -0.5,2.9 -1.4,5.7 -1.7,8.7 3.7,0.7 3.8,-2.6 4.4,-5.3 0.9,-3.3 1.6,-7 4.1,-9.5 2.4,1.6 6.8,-0.7 3.7,-3.4 -2.9,-0.5 -4.8,2.4 -6.2,4.3 0,-1.2 2.4,-5 -0.2,-4.3 z m 15.8,0 c -6.4,1.3 -9.6,9.1 -7.7,14.9 1.9,4 7.7,3.9 11,1.7 4.1,-3 6,-8.9 4.4,-13.7 -1.3,-3 -4.8,-3.2 -7.6,-3 z m 17,0 c -2.3,0 -8.8,1.9 -3,2.4 0.4,2.5 -1,5.7 -1.4,8.4 -0.7,2.4 -1.8,7.5 2.1,7.2 3.8,-0.1 6.5,-3.5 8.5,-6.3 2,-3.2 4.5,-7 3.3,-10.9 -3.7,-3 -3.6,2.6 -3.1,5.1 -0.7,3.8 -2.7,7.9 -6.2,9.8 -3.6,0.6 -1,-4.3 -0.8,-6.1 0.6,-3.2 1.6,-6.3 1.9,-9.5 -0.4,0 -0.8,0 -1.1,0 z m 30.6,0 c -6.3,1.2 -9.5,8.9 -7.8,14.7 1.5,4 7.2,4.2 10.5,2.4 4.6,-2.8 6.6,-9.3 4.8,-14.3 -1.4,-2.8 -4.8,-3 -7.5,-2.8 z m -75.4,1.7 c 2.1,1.5 0.2,4.7 -1.6,5.7 -1.1,0.4 -5.5,3.4 -4.6,0.7 0.8,-2.7 2.2,-6.2 5.3,-6.6 l 0.9,0.1 z m 30.8,0 c 2.6,1.5 1.3,5.2 0.8,7.6 -0.8,2.7 -1.9,5.9 -4.7,7.1 -5.1,0.8 -4,-5.8 -2.8,-8.8 1,-2.8 3,-6.8 6.7,-5.8 z m 47.1,-0.1 c 2.9,0.7 2,4.7 1.5,6.8 -0.7,3 -1.8,6.7 -5,8 -4.7,0.8 -4,-5.1 -3,-7.9 0.9,-3 2.7,-7.3 6.5,-6.8 z m -88.1,5.9 c -0.3,1.3 0.9,-0.6 0,0 z m -1.1,2.4 c -0.2,0.5 0.5,-0.1 0,0 z m -1.3,4.5 c -0.3,1.3 0.8,-0.2 0,0 z" />
                     <text y="41" x="201" fill="#00000" style="font-style:italic;font-weight:normal;font-size:30px;line-height:125%;font-family:Times;text-anchor:middle" xml:space="preserve">engraved with</text>
                  </g>
               </g>
            </g>
         </g>
      </g>
   </svg>
</svg>
