<?xml version="1.0" encoding="UTF-8" standalone="no"?>
<svg width="2100px" height="2970px" version="1.1" xmlns="http://www.w3.org/2000/svg" xmlns:xlink="http://www.w3.org/1999/xlink" xmlns:mei="http://www.music-encoding.org/ns/mei" overflow="visible">
   <desc>Engraved by Verovio 4.4.0-66ab39c</desc>
   <defs>
      <symbol id="E4E7-1e31vbc" viewBox="0 0 1000 1000" overflow="inherit">
         <path transform="scale(1,-1)" d="M133 -111c0 -33 -21 -50 -52 -55c10 -3 18 -4 25 -4c40 0 69 24 90 47l66 197c-36 -18 -64 -25 -112 -25c-23 0 -38 3 -45 8c-37 7 -55 27 -55 59c8 35 30 54 68 58c45 -6 49 -13 64 -48c0 -3 1 -5 1 -7c0 -27 -25 -46 -52 -49c6 -4 15 -6 26 -6c32 2 62 14 88 29 c32 19 44 36 59 71l7 1l10 2h4c-72 -220 -143 -439 -215 -659h-37l108 324c-20 -13 -51 -20 -82 -20c-21 0 -35 4 -43 10c-37 6 -55 26 -55 58c8 35 31 56 68 60c43 -8 48 -13 64 -51z" />
      </symbol>
      <symbol id="E084-1e31vbc" viewBox="0 0 1000 1000" overflow="inherit">
         <path transform="scale(1,-1)" d="M20 -78c84 97 114 180 134 329h170c-13 -32 -82 -132 -99 -151l-84 -97c-33 -36 -59 -63 -80 -81h162v102l127 123v-225h57v-39h-57v-34c0 -43 19 -65 57 -65v-34h-244v36c48 0 60 26 60 70v27h-203v39z" />
      </symbol>
      <symbol id="E0A4-1e31vbc" viewBox="0 0 1000 1000" overflow="inherit">
         <path transform="scale(1,-1)" d="M0 -39c0 68 73 172 200 172c66 0 114 -37 114 -95c0 -84 -106 -171 -218 -171c-64 0 -96 30 -96 94z" />
      </symbol>
      <symbol id="E0A9-1e31vbc" viewBox="0 0 1000 1000" overflow="inherit">
         <path transform="scale(1,-1)" d="M0 -110c0 4 1 8 5 11l119 99l-119 100c-3 3 -5 8 -5 12c0 6 5 13 12 13c3 0 6 -1 8 -2l124 -105l126 105c2 1 5 2 7 2c6 0 13 -6 13 -14c0 -4 -2 -9 -5 -11l-119 -100l119 -99c3 -3 5 -7 5 -12c0 -6 -5 -14 -13 -14c-2 0 -5 1 -7 3l-126 105l-124 -105c-2 -2 -4 -3 -7 -3 c-8 0 -13 7 -13 15z" />
      </symbol>
      <symbol id="E0B6-1e31vbc" viewBox="0 0 1000 1000" overflow="inherit">
         <path transform="scale(1,-1)" d="M0 -36c0 68 73 174 200 174c66 0 114 -39 114 -97c0 -84 -106 -173 -218 -173c-64 0 -96 32 -96 96zM52 -92c6 -2 15 -3 26 -3c29 5 70 23 107 47l-41 31zM208 -31c40 29 70 64 70 95c0 9 -3 16 -7 23l-105 -87zM246 102c-3 1 -7 1 -11 1c-12 0 -26 -3 -41 -10 c-30 -15 -60 -32 -86 -49l36 -26zM85 27c-33 -27 -56 -57 -56 -90c1 -4 2 -7 3 -11l92 74z" />
      </symbol>
      <symbol id="E4E4-1e31vbc" viewBox="0 0 1000 1000" overflow="inherit">
         <path transform="scale(1,-1)" d="M0 10v105c0 9 1 10 10 10h280c9 0 10 -1 10 -10v-105c0 -9 -1 -10 -10 -10h-280c-9 0 -10 1 -10 10z" />
      </symbol>
      <symbol id="E069-1e31vbc" viewBox="0 0 1000 1000" overflow="inherit">
         <path transform="scale(1,-1)" d="M200 250h125v-500h-125v500zM0 250h125v-500h-125v500z" />
      </symbol>
   </defs>
   <style type="text/css">g.page-margin{font-family:Times,serif;} g.ending, g.fing, g.reh, g.tempo{font-weight:bold;} g.dir, g.dynam, g.mNum{font-style:italic;} g.label{font-weight:normal;}</style>
   <svg class="definition-scale" color="black" viewBox="0 0 21000 29700">
      <g class="page-margin" transform="translate(500, 500)">
         <g id="m-5a2e06a5-2cd5-42c7-be72-bfb983cef391" class="mdiv pageMilestone" />
         <g id="m-e0af8611-b39c-4018-acc4-57957abf2fb9" class="score pageMilestone" />
         <g id="s1c20gi6" class="system">
            <g id="m-87992fa7-d06a-454a-914e-84f28fd76e2c" class="section systemMilestone" />
            <g id="m-4271d251-6895-4a48-b5f5-eeff42644c35" class="measure">
               <g id="m-c8963866-910e-46fe-b711-d4cbc1faa6e6" class="staff">
                  <path d="M0 1784 L5202 1784" stroke="currentColor" stroke-width="13" />
                  <path d="M0 1964 L5202 1964" stroke="currentColor" stroke-width="13" />
                  <path d="M0 2144 L5202 2144" stroke="currentColor" stroke-width="13" />
                  <path d="M0 2324 L5202 2324" stroke="currentColor" stroke-width="13" />
                  <path d="M0 2504 L5202 2504" stroke="currentColor" stroke-width="13" />
                  <g id="cvjb6w6" class="clef">
                     <use xlink:href="#E069-1e31vbc" x="90" y="2144" height="720px" width="720px" />
                  </g>
                  <g id="kmvqd5f" class="keySig" />
                  <g id="mp41uui" class="meterSig">
                     <use xlink:href="#E084-1e31vbc" x="490" y="1964" height="720px" width="720px" />
                     <use xlink:href="#E084-1e31vbc" x="490" y="2324" height="720px" width="720px" />
                  </g>
                  <g class="ledgerLines above">
                     <path d="M1004 1604 L1308 1604" stroke="currentColor" stroke-width="22" />
                     <path d="M1454 1604 L1758 1604" stroke="currentColor" stroke-width="22" />
                     <path d="M1904 1604 L2208 1604" stroke="currentColor" stroke-width="22" />
                     <path d="M2354 1604 L2658 1604" stroke="currentColor" stroke-width="22" />
                     <path d="M2970 1604 L3274 1604" stroke="currentColor" stroke-width="22" />
                     <path d="M3609 1604 L3913 1604" stroke="currentColor" stroke-width="22" />
                     <path d="M4241 1604 L4545 1604" stroke="currentColor" stroke-width="22" />
                     <path d="M4691 1604 L4995 1604" stroke="currentColor" stroke-width="22" />
                  </g>
                  <g id="m-a2ec80cc-44f2-4467-befb-7d98767c18cd" class="layer">
                     <g id="m-ce778c34-ab77-4553-ad8d-c65d350be209" class="beam">
                        <polygon points="1242,1064 1710,1064 1710,1154 1242,1154" />
                        <g id="m-ebb04983-48cf-4f3b-9a87-8711fd615535" class="note">
                           <g class="notehead">
                              <use xlink:href="#E0A9-1e31vbc" x="1052" y="1514" height="720px" width="720px" />
                           </g>
                           <g id="sy8mf1o" class="stem">
                              <path d="M1251 1435 L1251 1082" stroke="currentColor" stroke-width="18" />
                           </g>
                           <g id="aike79d" class="accid" />
                        </g>
                        <g id="m-e9340145-cce7-4a90-8df1-b25d9ce6fdd4" class="note">
                           <g class="notehead">
                              <use xlink:href="#E0A9-1e31vbc" x="1502" y="1514" height="720px" width="720px" />
                           </g>
                           <g id="syimduy" class="stem">
                              <path d="M1701 1435 L1701 1082" stroke="currentColor" stroke-width="18" />
                           </g>
                           <g id="a1phgqrq" class="accid" />
                        </g>
                     </g>
                     <g id="m-97632b15-9360-4567-bdb9-2125e2b5c794" class="beam">
                        <polygon points="2142,1064 2610,1064 2610,1154 2142,1154" />
                        <g id="m-e05be5cd-3793-472e-a17f-ee65539a055e" class="note">
                           <g class="notehead">
                              <use xlink:href="#E0A9-1e31vbc" x="1952" y="1514" height="720px" width="720px" />
                           </g>
                           <g id="sggfe9m" class="stem">
                              <path d="M2151 1435 L2151 1082" stroke="currentColor" stroke-width="18" />
                           </g>
                           <g id="a48229b" class="accid" />
                        </g>
                        <g id="m-00ea529c-7c15-4a99-9aec-744b8ab6ce20" class="note">
                           <g class="notehead">
                              <use xlink:href="#E0A9-1e31vbc" x="2402" y="1514" height="720px" width="720px" />
                           </g>
                           <g id="s1gvdd73" class="stem">
                              <path d="M2601 1435 L2601 1082" stroke="currentColor" stroke-width="18" />
                           </g>
                           <g id="a1e2fnw" class="accid" />
                        </g>
                     </g>
                     <g id="m-ff0db2a4-a779-4a0c-b026-9f8cd2625826" class="beam">
                        <polygon points="3208,1064 3865,1064 3865,1154 3208,1154" />
                        <g id="m-c98ded21-b272-4cb8-8eaa-a51fd3449558" class="note">
                           <g class="notehead">
                              <use xlink:href="#E0A9-1e31vbc" x="3018" y="1514" height="720px" width="720px" />
                           </g>
                           <g id="s19dl0ji" class="stem">
                              <path d="M3217 1435 L3217 1082" stroke="currentColor" stroke-width="18" />
                           </g>
                           <g id="a171wetj" class="accid" />
                        </g>
                        <g id="m-e788071e-b2e7-4f7d-9419-0b1be2c11d36" class="note">
                           <g class="notehead">
                              <use xlink:href="#E0A9-1e31vbc" x="3657" y="1514" height="720px" width="720px" />
                           </g>
                           <g id="s1azyygo" class="stem">
                              <path d="M3856 1435 L3856 1082" stroke="currentColor" stroke-width="18" />
                           </g>
                           <g id="a12c5wyv" class="accid" />
                        </g>
                     </g>
                     <g id="m-1b0d1c29-ffda-4347-90d0-686821d492dc" class="beam">
                        <polygon points="4479,1064 4947,1064 4947,1154 4479,1154" />
                        <g id="m-6182d1f2-4f5c-4962-a827-206e08f3f41e" class="note">
                           <g class="notehead">
                              <use xlink:href="#E0A9-1e31vbc" x="4289" y="1514" height="720px" width="720px" />
                           </g>
                           <g id="s1m6nfr9" class="stem">
                              <path d="M4488 1435 L4488 1082" stroke="currentColor" stroke-width="18" />
                           </g>
                           <g id="ade3uej" class="accid" />
                        </g>
                        <g id="m-9128f894-b6b7-48a9-8feb-fd7d9350135a" class="note">
                           <g class="notehead">
                              <use xlink:href="#E0A9-1e31vbc" x="4739" y="1514" height="720px" width="720px" />
                           </g>
                           <g id="s5ri79m" class="stem">
                              <path d="M4938 1435 L4938 1082" stroke="currentColor" stroke-width="18" />
                           </g>
                           <g id="ad5vkc1" class="accid" />
                        </g>
                     </g>
                  </g>
                  <g id="m-82d8b0fb-39f9-49c5-97f8-dd008efc7b98" class="layer">
                     <g id="m-a611de67-0274-410b-94e2-01fcb7a332dc" class="note">
                        <g class="notehead">
                           <use xlink:href="#E0A4-1e31vbc" x="1052" y="2594" height="720px" width="720px" />
                        </g>
                        <g id="s1xrzoyq" class="stem">
                           <path d="M1061 2622 L1061 3044" stroke="currentColor" stroke-width="18" />
                        </g>
                     </g>
                     <g id="m-e28236eb-371c-414b-8671-2020b0f18aed" class="beam">
                        <polygon points="1952,2729 2720,2729 2720,2639 1952,2639" />
                        <polygon points="2494,2594 2720,2594 2720,2504 2494,2504" />
                        <g id="m-c12060d4-86e0-468d-be91-bbfd37421dce" class="note">
                           <g class="notehead">
                              <use xlink:href="#E0A4-1e31vbc" x="1952" y="2144" height="720px" width="720px" />
                           </g>
                           <g id="dkgje4g" class="dots">
                              <ellipse cx="2268" cy="2234" rx="36" ry="36" />
                           </g>
                           <g id="s1p4u54b" class="stem">
                              <path d="M1961 2172 L1961 2711" stroke="currentColor" stroke-width="18" />
                           </g>
                           <g id="a1ee81nu" class="accid" />
                        </g>
                        <g id="m-048570cc-8c6b-48ed-a113-be5067c9d4a6" class="note">
                           <g class="notehead">
                              <use xlink:href="#E0A4-1e31vbc" x="2702" y="2144" height="720px" width="720px" />
                           </g>
                           <g id="s12et92c" class="stem">
                              <path d="M2711 2172 L2711 2711" stroke="currentColor" stroke-width="18" />
                           </g>
                           <g id="a1tha1tq" class="accid" />
                        </g>
                     </g>
                     <g id="m-9b847a03-0a52-4142-82d9-1f8c29a696ba" class="rest">
                        <use xlink:href="#E4E7-1e31vbc" x="3018" y="2324" height="720px" width="720px" />
                     </g>
                     <g id="m-3f5d189f-8609-4d11-b3fd-c458f62abf7d" class="beam">
                        <polygon points="3341,3179 3991,3179 3991,3089 3341,3089" />
                        <polygon points="3341,3044 3666,3044 3666,2954 3341,2954" />
                        <polygon points="3666,3044 3991,3044 3991,2954 3666,2954" />
                        <g id="m-46de2133-c658-49a6-9686-d1336373edd2" class="note">
                           <g class="notehead">
                              <use xlink:href="#E0A4-1e31vbc" x="3341" y="2144" height="720px" width="720px" />
                           </g>
                           <g id="s16choxg" class="stem">
                              <path d="M3350 2172 L3350 3161" stroke="currentColor" stroke-width="18" />
                           </g>
                           <g id="a1oi8hzz" class="accid" />
                        </g>
                        <g id="m-4ca1af4d-80a3-4bdc-964f-c4fd41a462d7" class="note">
                           <g class="notehead">
                              <use xlink:href="#E0A4-1e31vbc" x="3657" y="2594" height="720px" width="720px" />
                           </g>
                           <g id="s1q1ezgs" class="stem">
                              <path d="M3666 2622 L3666 3161" stroke="currentColor" stroke-width="18" />
                           </g>
                        </g>
                        <g id="m-74ff4bf2-8ab9-4b9a-8b65-22f7bf0d6ab2" class="note">
                           <g class="notehead">
                              <use xlink:href="#E0A4-1e31vbc" x="3973" y="2594" height="720px" width="720px" />
                           </g>
                           <g id="s6qnm4m" class="stem">
                              <path d="M3982 2622 L3982 3161" stroke="currentColor" stroke-width="18" />
                           </g>
                        </g>
                     </g>
                     <g id="m-f622245d-ea15-4b03-948c-5dfa9cca5a4c" class="note">
                        <g class="notehead">
                           <use xlink:href="#E0A4-1e31vbc" x="4289" y="2144" height="720px" width="720px" />
                        </g>
                        <g id="s1cobcew" class="stem">
                           <path d="M4298 2172 L4298 2744" stroke="currentColor" stroke-width="18" />
                        </g>
                        <g id="a83vs3z" class="accid" />
                     </g>
                  </g>
               </g>
               <g id="bww47vr" class="barLine">
                  <path d="M5189 1784 L5189 2504" stroke="currentColor" stroke-width="27" />
               </g>
            </g>
            <g id="m-11399213-f399-4513-b69d-ee35f05abf87" class="measure">
               <g id="m-049066c7-a703-4ff6-9ae5-2d5e0fd5ffe4" class="staff">
                  <path d="M5202 1784 L8411 1784" stroke="currentColor" stroke-width="13" />
                  <path d="M5202 1964 L8411 1964" stroke="currentColor" stroke-width="13" />
                  <path d="M5202 2144 L8411 2144" stroke="currentColor" stroke-width="13" />
                  <path d="M5202 2324 L8411 2324" stroke="currentColor" stroke-width="13" />
                  <path d="M5202 2504 L8411 2504" stroke="currentColor" stroke-width="13" />
                  <g class="ledgerLines above">
                     <path d="M5334 1604 L5638 1604" stroke="currentColor" stroke-width="22" />
                     <path d="M5784 1604 L6088 1604" stroke="currentColor" stroke-width="22" />
                     <path d="M6234 1604 L6538 1604" stroke="currentColor" stroke-width="22" />
                     <path d="M6684 1604 L6988 1604" stroke="currentColor" stroke-width="22" />
                     <path d="M7300 1604 L7622 1604" stroke="currentColor" stroke-width="22" />
                  </g>
                  <g id="m-91ebbf31-86a6-426e-837b-24fa2fde9539" class="layer">
                     <g id="m-27d54e1c-7efc-4995-a959-cb9d9a9198da" class="beam">
                        <polygon points="5572,1064 6040,1064 6040,1154 5572,1154" />
                        <g id="m-32fb63d0-65f1-4fb5-947f-6ae4d23906a3" class="note">
                           <g class="notehead">
                              <use xlink:href="#E0A9-1e31vbc" x="5382" y="1514" height="720px" width="720px" />
                           </g>
                           <g id="s1suv5zg" class="stem">
                              <path d="M5581 1435 L5581 1082" stroke="currentColor" stroke-width="18" />
                           </g>
                           <g id="aif7k8m" class="accid" />
                        </g>
                        <g id="m-a9587541-c295-4f92-bbf1-9c1b215b4682" class="note">
                           <g class="notehead">
                              <use xlink:href="#E0A9-1e31vbc" x="5832" y="1514" height="720px" width="720px" />
                           </g>
                           <g id="s1mna4h2" class="stem">
                              <path d="M6031 1435 L6031 1082" stroke="currentColor" stroke-width="18" />
                           </g>
                           <g id="a1co25eq" class="accid" />
                        </g>
                     </g>
                     <g id="m-b2b5df24-e288-48cc-a937-a0e39378578c" class="beam">
                        <polygon points="6472,1064 6940,1064 6940,1154 6472,1154" />
                        <g id="m-237044cd-8fab-484d-acfe-b1e7369881b0" class="note">
                           <g class="notehead">
                              <use xlink:href="#E0A9-1e31vbc" x="6282" y="1514" height="720px" width="720px" />
                           </g>
                           <g id="s18brc7u" class="stem">
                              <path d="M6481 1435 L6481 1082" stroke="currentColor" stroke-width="18" />
                           </g>
                           <g id="aimig4i" class="accid" />
                        </g>
                        <g id="m-d83ad3b6-2c6a-48b7-b10e-72a07dfc58c7" class="note">
                           <g class="notehead">
                              <use xlink:href="#E0A9-1e31vbc" x="6732" y="1514" height="720px" width="720px" />
                           </g>
                           <g id="s1w26ikv" class="stem">
                              <path d="M6931 1435 L6931 1082" stroke="currentColor" stroke-width="18" />
                           </g>
                           <g id="ajw2qq4" class="accid" />
                        </g>
                     </g>
                     <g id="m-180df0ff-366a-4a58-ba0d-15ccabaf0a9c" class="note">
                        <g class="notehead">
                           <use xlink:href="#E0B6-1e31vbc" x="7348" y="1514" height="720px" width="720px" />
                        </g>
                        <g id="sxgts8g" class="stem">
                           <path d="M7565 1486 L7565 1064" stroke="currentColor" stroke-width="18" />
                        </g>
                        <g id="apk7f5q" class="accid" />
                     </g>
                  </g>
                  <g id="m-0ab8d95b-6e5d-473c-bef5-e27f17b680bc" class="layer">
                     <g id="m-b4fdcec2-78e6-4d44-a8b4-3e279dec2d58" class="note">
                        <g class="notehead">
                           <use xlink:href="#E0A4-1e31vbc" x="5382" y="2594" height="720px" width="720px" />
                        </g>
                        <g id="sm1sfou" class="stem">
                           <path d="M5391 2622 L5391 3044" stroke="currentColor" stroke-width="18" />
                        </g>
                     </g>
                     <g id="m-5182d2c8-c275-4f35-a9d0-c10084c0a02b" class="beam">
                        <polygon points="6282,2729 7050,2729 7050,2639 6282,2639" />
                        <polygon points="6824,2594 7050,2594 7050,2504 6824,2504" />
                        <g id="m-7df19a5d-d2f0-4692-8b64-9da16ca233aa" class="note">
                           <g class="notehead">
                              <use xlink:href="#E0A4-1e31vbc" x="6282" y="2144" height="720px" width="720px" />
                           </g>
                           <g id="dz9s40p" class="dots">
                              <ellipse cx="6598" cy="2234" rx="36" ry="36" />
                           </g>
                           <g id="sww3u67" class="stem">
                              <path d="M6291 2172 L6291 2711" stroke="currentColor" stroke-width="18" />
                           </g>
                           <g id="a16gpevd" class="accid" />
                        </g>
                        <g id="m-6ff16c61-d432-4efe-aa5f-b114da9fe316" class="note">
                           <g class="notehead">
                              <use xlink:href="#E0A4-1e31vbc" x="7032" y="2144" height="720px" width="720px" />
                           </g>
                           <g id="sy4xhfn" class="stem">
                              <path d="M7041 2172 L7041 2711" stroke="currentColor" stroke-width="18" />
                           </g>
                           <g id="ani668b" class="accid" />
                        </g>
                     </g>
                     <g id="m-546dbdff-386c-4b75-b6a8-d8f5ada01abd" class="rest">
                        <use xlink:href="#E4E4-1e31vbc" x="7348" y="2324" height="720px" width="720px" />
                        <g class="ledgerLines" />
                     </g>
                  </g>
               </g>
               <g id="b51dqss" class="barLine">
                  <path d="M8398 1784 L8398 2504" stroke="currentColor" stroke-width="27" />
               </g>
            </g>
            <g id="s1ryf3gn" class="systemMilestoneEnd m-87992fa7-d06a-454a-914e-84f28fd76e2c" />
         </g>
         <g id="pujzuzk" class="pageMilestoneEnd m-e0af8611-b39c-4018-acc4-57957abf2fb9" />
         <g id="p1vunfca" class="pageMilestoneEnd m-5a2e06a5-2cd5-42c7-be72-bfb983cef391" />
         <g id="pheeo07" class="pgHead autogenerated">
            <text font-size="0px">
               <tspan id="rqicm6" class="rend" x="10000" y="415" text-anchor="middle">
                  <title class="labelAttr">title</title>
                  <tspan id="rao9eu8" class="rend">
                     <tspan id="teijpfz" class="text">
                        <tspan font-size="607px">14_rock_100_beat_4-4</tspan>
                     </tspan>
                  </tspan>
                  <tspan id="l19wrdba" class="lb" />
                  <tspan id="r135ofav" class="rend">
                     <tspan id="t1388ei4" class="text" x="10000" y="805">
                        <tspan font-size="324px">14_rock_100_beat_4-4</tspan>
                     </tspan>
                  </tspan>
               </tspan>
            </text>
         </g>
         <g id="p1clmdkd" class="pgFoot autogenerated">
            <g id="f10ai8j5" class="fig">
               <g class="svg" transform="translate(7750, 28099) scale(10.000000, 10.000000)">
                  <g>
                     <path fill="#00000" d="M 17.11278,49.26451 V 10.367554 h 12.696511 c 3.288815,7.336676 6.71267,14.610456 10.127281,21.888976 3.419998,-7.484684 6.255515,-14.204887 9.58887,-21.909915 2.436207,0.103726 4.316952,0.08453 6.484294,-0.05808 V 49.264423 H 50.274275 C 50.145222,38.35639 50.016136,27.448368 49.887066,16.540329 45.003488,27.315459 39.967448,38.433564 35.083854,49.208695 34.678996,49.343717 34.426583,49.135619 34.021726,49.270644 29.46588,39.330716 24.910049,29.390805 20.354201,19.450876 20.224341,29.388756 20.09461,39.326619 19.964815,49.264497 H 17.11278 Z M 36.754144,39.324695 C 32.721221,30.512695 28.6883,21.700679 24.655394,12.888662 22.530527,12.750737 22.656775,12.71031 20.714356,12.813974 v 0.966497 c 4.612938,9.99784 9.609439,20.748709 13.87298,30.081745 0.722248,-1.512523 1.444528,-3.025014 2.166808,-4.537521 z m 25.738417,9.939815 c 0,-12.965651 0,-25.931305 0,-38.896956 10.084388,0 20.168791,0 30.253178,0 0,0.960416 0,1.920849 0,2.881265 -6.482825,0 -12.965652,0 -19.448478,0 0,4.802097 0,9.604178 0,14.406277 5.52241,0 11.044819,0 16.567229,0 0,0.960415 0,1.920832 0,2.881248 -5.52241,0 -11.044819,0 -16.567229,0 0,5.282306 0,10.564611 0,15.846917 6.963035,0 13.926068,0 20.889103,0 0,0.960416 0,1.920832 0,2.881249 -10.564597,0 -21.129207,0 -31.693803,0 z m 4.321874,-2.160937 c 0,-11.765131 0,-23.530263 0,-35.295394 -0.720312,0 -1.440625,0 -2.160937,0 0,11.765131 0,23.530263 0,35.295394 0.720312,0 1.440625,0 2.160937,0 z m 32.41413,2.160937 c 0,-12.965651 0,-25.931305 0,-38.896956 2.401045,0 4.802095,0 7.203135,0 0,12.965651 0,25.931305 0,38.896956 -2.40104,0 -4.80209,0 -7.203135,0 z m 2.881265,-2.160937 c 0,-11.765131 0,-23.530263 0,-35.295394 -0.72031,0 -1.44064,0 -2.160953,0 0,11.765131 0,23.530263 0,35.295394 0.720313,0 1.440643,0 2.160953,0 z" />
                     <path fill="#00000" d="m 346.3,6.7 c -3.1,0.5 -4.9,4.4 -2.7,6.8 1.2,1.4 2.7,2.4 4.1,3.5 -2.4,5.3 -7.7,8.3 -11.9,12.1 -3.7,2.8 -7,6.2 -9.7,9.9 -2.2,-0.8 -0.3,-6.8 -0.6,-9.5 0.1,-3.1 0.7,-6.4 2.9,-8.7 1.3,-1.9 3,-3.5 4.5,-5.2 1.2,-3.4 -3.2,-4.9 -5.8,-4.6 -7.3,-0.5 -14.6,2 -20,6.8 -5,4.6 -10,10.1 -11.5,17 -0.9,3.5 -0.2,7.5 2.8,9.9 2.5,2.8 7.4,2.9 9.8,-0.2 1.7,-2.3 3.2,-4.8 3.8,-7.6 -0.1,-2.6 -4.4,-2.3 -4.3,0.2 1.2,2.4 -0.9,4.7 -2.7,6.2 -1.7,0.9 -4.7,0.7 -4.8,-1.7 -1,-5.8 2.1,-11.3 5.2,-16.1 4,-5.8 9.8,-11.2 17.2,-11.8 1.6,0 8.1,-1.2 6.8,1.4 -2.8,2.8 -5.6,6.1 -6,10.3 -1.6,7.7 0.1,15.7 -2.3,23.2 -1.1,3.9 2,2.6 2.5,0.2 3.3,-7.4 8.9,-13.4 15.1,-18.5 4.2,-3.9 9.5,-7.1 11.9,-12.6 1.3,-3.6 1.2,-9 -2.7,-10.9 -0.6,-0.2 -1.2,-0.3 -1.8,-0.3 z m 66,14.5 c -2,0.8 -1.8,4.9 0.8,4.4 3.4,0.4 2.9,-6.2 -0.8,-4.4 z m 0.6,7.3 c -1.3,0.5 -7.6,0.5 -5.4,2.2 4,-0.3 0.7,4.5 0.6,6.7 -0.4,2.9 -2.4,5.9 -1.2,8.8 2.7,1.7 5.6,-0.8 6.8,-3.2 1.6,-1.4 -0.5,-3 -1.2,-0.9 -0.4,0.8 -2.4,3.5 -2.6,1.8 1.1,-5 2.7,-9.9 3.9,-14.9 l -0.1,-0.5 h -0.9 z m -65.1,0.2 c -6.5,1.6 -10.5,9.5 -8.2,15.7 2.1,3.4 7.4,2.9 10.1,0.4 2,-0.2 3.6,-5.3 1,-3.4 -1.4,2 -4,4.2 -6.5,2.8 -2.2,-1.9 -1.9,-5.7 1.7,-5.3 3.1,-0.9 6.9,-2.1 8.1,-5.5 0.9,-2.7 -1.6,-5.2 -4.3,-4.8 h -1.1 -0.7 z m 13.6,0 c -2.2,0 -8.5,1.8 -2.9,2.3 0.9,1.9 -1,4.9 -1.1,7.2 -0.5,2.9 -1.4,5.7 -1.7,8.7 3.7,0.7 3.8,-2.6 4.4,-5.3 0.9,-3.3 1.6,-7 4.1,-9.5 2.4,1.6 6.8,-0.7 3.7,-3.4 -2.9,-0.5 -4.8,2.4 -6.2,4.3 0,-1.2 2.4,-5 -0.2,-4.3 z m 15.8,0 c -6.4,1.3 -9.6,9.1 -7.7,14.9 1.9,4 7.7,3.9 11,1.7 4.1,-3 6,-8.9 4.4,-13.7 -1.3,-3 -4.8,-3.2 -7.6,-3 z m 17,0 c -2.3,0 -8.8,1.9 -3,2.4 0.4,2.5 -1,5.7 -1.4,8.4 -0.7,2.4 -1.8,7.5 2.1,7.2 3.8,-0.1 6.5,-3.5 8.5,-6.3 2,-3.2 4.5,-7 3.3,-10.9 -3.7,-3 -3.6,2.6 -3.1,5.1 -0.7,3.8 -2.7,7.9 -6.2,9.8 -3.6,0.6 -1,-4.3 -0.8,-6.1 0.6,-3.2 1.6,-6.3 1.9,-9.5 -0.4,0 -0.8,0 -1.1,0 z m 30.6,0 c -6.3,1.2 -9.5,8.9 -7.8,14.7 1.5,4 7.2,4.2 10.5,2.4 4.6,-2.8 6.6,-9.3 4.8,-14.3 -1.4,-2.8 -4.8,-3 -7.5,-2.8 z m -75.4,1.7 c 2.1,1.5 0.2,4.7 -1.6,5.7 -1.1,0.4 -5.5,3.4 -4.6,0.7 0.8,-2.7 2.2,-6.2 5.3,-6.6 l 0.9,0.1 z m 30.8,0 c 2.6,1.5 1.3,5.2 0.8,7.6 -0.8,2.7 -1.9,5.9 -4.7,7.1 -5.1,0.8 -4,-5.8 -2.8,-8.8 1,-2.8 3,-6.8 6.7,-5.8 z m 47.1,-0.1 c 2.9,0.7 2,4.7 1.5,6.8 -0.7,3 -1.8,6.7 -5,8 -4.7,0.8 -4,-5.1 -3,-7.9 0.9,-3 2.7,-7.3 6.5,-6.8 z m -88.1,5.9 c -0.3,1.3 0.9,-0.6 0,0 z m -1.1,2.4 c -0.2,0.5 0.5,-0.1 0,0 z m -1.3,4.5 c -0.3,1.3 0.8,-0.2 0,0 z" />
                     <text y="41" x="201" fill="#00000" style="font-style:italic;font-weight:normal;font-size:30px;line-height:125%;font-family:Times;text-anchor:middle" xml:space="preserve">engraved with</text>
                  </g>
               </g>
            </g>
         </g>
      </g>
   </svg>
</svg>
