<?xml version="1.0" encoding="UTF-8" standalone="no"?>
<svg width="2100px" height="2970px" version="1.1" xmlns="http://www.w3.org/2000/svg" xmlns:xlink="http://www.w3.org/1999/xlink" xmlns:mei="http://www.music-encoding.org/ns/mei" overflow="visible">
   <desc>Engraved by Verovio 4.4.0-66ab39c</desc>
   <defs>
      <symbol id="E0A9-r7t1ab" viewBox="0 0 1000 1000" overflow="inherit">
         <path transform="scale(1,-1)" d="M0 -110c0 4 1 8 5 11l119 99l-119 100c-3 3 -5 8 -5 12c0 6 5 13 12 13c3 0 6 -1 8 -2l124 -105l126 105c2 1 5 2 7 2c6 0 13 -6 13 -14c0 -4 -2 -9 -5 -11l-119 -100l119 -99c3 -3 5 -7 5 -12c0 -6 -5 -14 -13 -14c-2 0 -5 1 -7 3l-126 105l-124 -105c-2 -2 -4 -3 -7 -3 c-8 0 -13 7 -13 15z" />
      </symbol>
      <symbol id="E069-r7t1ab" viewBox="0 0 1000 1000" overflow="inherit">
         <path transform="scale(1,-1)" d="M200 250h125v-500h-125v500zM0 250h125v-500h-125v500z" />
      </symbol>
      <symbol id="E084-r7t1ab" viewBox="0 0 1000 1000" overflow="inherit">
         <path transform="scale(1,-1)" d="M20 -78c84 97 114 180 134 329h170c-13 -32 -82 -132 -99 -151l-84 -97c-33 -36 -59 -63 -80 -81h162v102l127 123v-225h57v-39h-57v-34c0 -43 19 -65 57 -65v-34h-244v36c48 0 60 26 60 70v27h-203v39z" />
      </symbol>
      <symbol id="E0A4-r7t1ab" viewBox="0 0 1000 1000" overflow="inherit">
         <path transform="scale(1,-1)" d="M0 -39c0 68 73 172 200 172c66 0 114 -37 114 -95c0 -84 -106 -171 -218 -171c-64 0 -96 30 -96 94z" />
      </symbol>
      <symbol id="E240-r7t1ab" viewBox="0 0 1000 1000" overflow="inherit">
         <path transform="scale(1,-1)" d="M179 -646c15 29 29 55 46 102c18 49 30 108 30 138c0 105 -80 173 -168 200c-18 5 -47 9 -87 16v190h22c8 0 33 -61 71 -95c4 -3 -2 3 61 -56c62 -58 122 -137 122 -241c0 -38 -13 -106 -35 -163c-20 -51 -43 -99 -66 -132c-6 -5 -10 -7 -13 -7s-5 2 -5 5l4 10 c1 3 14 25 18 33z" />
      </symbol>
      <symbol id="E4E6-r7t1ab" viewBox="0 0 1000 1000" overflow="inherit">
         <path transform="scale(1,-1)" d="M0 123c7 34 33 56 69 60c29 -3 43 -9 53 -29c4 -8 7 -15 10 -22c0 -21 -1 -25 -11 -35c-5 -8 -18 -14 -40 -20l12 -3l15 -1c44 0 97 26 122 56c10 11 18 26 24 42c7 1 15 2 22 3l-140 -424h-36l111 330c-10 -6 -27 -12 -53 -16l-52 -8h-10l-20 1c-1 0 -8 3 -21 6 c-37 9 -55 28 -55 60z" />
      </symbol>
      <symbol id="E4E7-r7t1ab" viewBox="0 0 1000 1000" overflow="inherit">
         <path transform="scale(1,-1)" d="M133 -111c0 -33 -21 -50 -52 -55c10 -3 18 -4 25 -4c40 0 69 24 90 47l66 197c-36 -18 -64 -25 -112 -25c-23 0 -38 3 -45 8c-37 7 -55 27 -55 59c8 35 30 54 68 58c45 -6 49 -13 64 -48c0 -3 1 -5 1 -7c0 -27 -25 -46 -52 -49c6 -4 15 -6 26 -6c32 2 62 14 88 29 c32 19 44 36 59 71l7 1l10 2h4c-72 -220 -143 -439 -215 -659h-37l108 324c-20 -13 -51 -20 -82 -20c-21 0 -35 4 -43 10c-37 6 -55 26 -55 58c8 35 31 56 68 60c43 -8 48 -13 64 -51z" />
      </symbol>
   </defs>
   <style type="text/css">g.page-margin{font-family:Times,serif;} g.ending, g.fing, g.reh, g.tempo{font-weight:bold;} g.dir, g.dynam, g.mNum{font-style:italic;} g.label{font-weight:normal;}</style>
   <svg class="definition-scale" color="black" viewBox="0 0 21000 29700">
      <g class="page-margin" transform="translate(500, 500)">
         <g id="m-c33c959f-ebe7-4ee2-aced-22203ef2e03c" class="mdiv pageMilestone" />
         <g id="m-bc788bdc-a204-41f2-8062-1b6864077834" class="score pageMilestone" />
         <g id="sk1vdm2" class="system">
            <g id="m-36eef8dd-42bb-4beb-9bf9-59165c95f6d6" class="section systemMilestone" />
            <g id="m-078eb7ce-ec90-43ef-b832-2f8c75d5a8f5" class="measure">
               <g id="m-3e49e5a4-4982-4c10-a502-12eb454c702d" class="staff">
                  <path d="M0 1844 L5970 1844" stroke="currentColor" stroke-width="13" />
                  <path d="M0 2024 L5970 2024" stroke="currentColor" stroke-width="13" />
                  <path d="M0 2204 L5970 2204" stroke="currentColor" stroke-width="13" />
                  <path d="M0 2384 L5970 2384" stroke="currentColor" stroke-width="13" />
                  <path d="M0 2564 L5970 2564" stroke="currentColor" stroke-width="13" />
                  <g id="c4a174x" class="clef">
                     <use xlink:href="#E069-r7t1ab" x="90" y="2204" height="720px" width="720px" />
                  </g>
                  <g id="k1go8rx9" class="keySig" />
                  <g id="m11hnlk9" class="meterSig">
                     <use xlink:href="#E084-r7t1ab" x="490" y="2024" height="720px" width="720px" />
                     <use xlink:href="#E084-r7t1ab" x="490" y="2384" height="720px" width="720px" />
                  </g>
                  <g class="ledgerLines above">
                     <path d="M1620 1664 L1924 1664" stroke="currentColor" stroke-width="22" />
                     <path d="M2931 1664 L3235 1664" stroke="currentColor" stroke-width="22" />
                     <path d="M3997 1664 L4301 1664" stroke="currentColor" stroke-width="22" />
                     <path d="M4929 1664 L5233 1664" stroke="currentColor" stroke-width="22" />
                  </g>
                  <g class="ledgerLines below">
                     <path d="M1004 2744 L1308 2744" stroke="currentColor" stroke-width="22" />
                     <path d="M2008 2744 L2312 2744" stroke="currentColor" stroke-width="22" />
                  </g>
                  <g id="m-3448a88c-4f09-4ab6-a4b6-0573d41c960f" class="layer">
                     <g id="m-927c708d-32ad-45f6-937a-f017784cd398" class="rest">
                        <use xlink:href="#E4E6-r7t1ab" x="1052" y="1484" height="720px" width="720px" />
                     </g>
                     <g id="m-a1fb648b-9353-459f-81cc-4d2eb43169e7" class="note">
                        <g class="notehead">
                           <use xlink:href="#E0A9-r7t1ab" x="1668" y="1574" height="720px" width="720px" />
                        </g>
                        <g id="spwxicd" class="stem">
                           <path d="M1867 1495 L1867 1064" stroke="currentColor" stroke-width="18" />
                           <g id="ftxra6t" class="flag">
                              <use xlink:href="#E240-r7t1ab" x="1858" y="1064" height="720px" width="720px" />
                           </g>
                        </g>
                        <g id="a1lzvip" class="accid" />
                     </g>
                     <g id="m-13e22458-0f64-4116-be96-66eda1b589a5" class="rest">
                        <use xlink:href="#E4E7-r7t1ab" x="2356" y="1484" height="720px" width="720px" />
                     </g>
                     <g id="m-7019a522-ccdf-407a-94ac-c569aebd69c2" class="beam">
                        <polygon points="2869,1124 3187,1079 3187,1169 2869,1214" />
                        <polygon points="2869,1259 3095,1226 3095,1316 2869,1349" />
                        <g id="m-21fc644d-99d6-4397-8809-e5e626534400" class="note">
                           <g class="notehead">
                              <use xlink:href="#E0A9-r7t1ab" x="2679" y="1754" height="720px" width="720px" />
                           </g>
                           <g id="sw0sxuu" class="stem">
                              <path d="M2878 1675 L2878 1142" stroke="currentColor" stroke-width="18" />
                           </g>
                        </g>
                        <g id="m-af237268-d7fe-4e3d-b91a-ae996940a71b" class="note">
                           <g class="notehead">
                              <use xlink:href="#E0A9-r7t1ab" x="2979" y="1574" height="720px" width="720px" />
                           </g>
                           <g id="s1hjibzr" class="stem">
                              <path d="M3178 1495 L3178 1097" stroke="currentColor" stroke-width="18" />
                           </g>
                           <g id="ay3utj6" class="accid" />
                        </g>
                     </g>
                     <g id="m-934dd6d3-c055-448e-a537-5297511771f4" class="rest">
                        <use xlink:href="#E4E6-r7t1ab" x="3595" y="1484" height="720px" width="720px" />
                     </g>
                     <g id="m-6b1d3ea6-991f-42da-94d8-70149fc4c680" class="note">
                        <g class="notehead">
                           <use xlink:href="#E0A9-r7t1ab" x="4045" y="1574" height="720px" width="720px" />
                        </g>
                        <g id="s65msfj" class="stem">
                           <path d="M4244 1495 L4244 1064" stroke="currentColor" stroke-width="18" />
                           <g id="fohjcyl" class="flag">
                              <use xlink:href="#E240-r7t1ab" x="4235" y="1064" height="720px" width="720px" />
                           </g>
                        </g>
                        <g id="a10ayue8" class="accid" />
                     </g>
                     <g id="m-4e54387a-0bd6-48ce-bec9-e72e5fea4f93" class="beam">
                        <polygon points="4867,1124 5185,1079 5185,1169 4867,1214" />
                        <polygon points="4867,1259 5093,1226 5093,1316 4867,1349" />
                        <g id="m-752fe74d-bdff-4a39-af3d-92f59c7e1e9e" class="note">
                           <g class="notehead">
                              <use xlink:href="#E0A9-r7t1ab" x="4677" y="1754" height="720px" width="720px" />
                           </g>
                           <g id="s1h2ygbp" class="stem">
                              <path d="M4876 1675 L4876 1142" stroke="currentColor" stroke-width="18" />
                           </g>
                        </g>
                        <g id="m-c6b10a9d-3724-4cb5-9f3e-ae3a2c19a235" class="note">
                           <g class="notehead">
                              <use xlink:href="#E0A9-r7t1ab" x="4977" y="1574" height="720px" width="720px" />
                           </g>
                           <g id="d1hn099u" class="dots">
                              <ellipse cx="5275" cy="1574" rx="36" ry="36" />
                           </g>
                           <g id="s1wkd5qi" class="stem">
                              <path d="M5176 1495 L5176 1097" stroke="currentColor" stroke-width="18" />
                           </g>
                           <g id="ae2qc1b" class="accid" />
                        </g>
                     </g>
                  </g>
                  <g id="m-1da54fd1-5f45-456b-8674-cadeb86c3e43" class="layer">
                     <g id="m-629833dc-3f93-4a52-852b-efbf091ac029" class="beam">
                        <polygon points="1052,3419 2074,3419 2074,3329 1052,3329" />
                        <polygon points="1052,3284 1278,3284 1278,3194 1052,3194" />
                        <polygon points="1848,3284 2074,3284 2074,3194 1848,3194" />
                        <g id="m-5aa255d6-88c9-4ae6-8f52-d0e3867b3168" class="note">
                           <g class="notehead">
                              <use xlink:href="#E0A9-r7t1ab" x="1052" y="2834" height="720px" width="720px" />
                           </g>
                           <g id="s1hicuvv" class="stem">
                              <path d="M1061 2913 L1061 3401" stroke="currentColor" stroke-width="18" />
                           </g>
                           <g id="a1po1jp" class="accid" />
                        </g>
                        <g id="m-4f172125-ba39-4005-a7f4-0559b0d87f8e" class="note">
                           <g class="notehead">
                              <use xlink:href="#E0A4-r7t1ab" x="1352" y="2204" height="720px" width="720px" />
                           </g>
                           <g id="s1drpcih" class="stem">
                              <path d="M1361 2232 L1361 3401" stroke="currentColor" stroke-width="18" />
                           </g>
                           <g id="a1wxa725" class="accid" />
                        </g>
                        <g id="m-6ece2fc4-ac94-4b70-9530-e4afeabc2b02" class="note">
                           <g class="notehead">
                              <use xlink:href="#E0A9-r7t1ab" x="2056" y="2834" height="720px" width="720px" />
                           </g>
                           <g id="ss66ped" class="stem">
                              <path d="M2065 2913 L2065 3401" stroke="currentColor" stroke-width="18" />
                           </g>
                           <g id="ampl5jn" class="accid" />
                        </g>
                     </g>
                     <g id="m-19700241-15cb-4156-aff0-910b72c81962" class="beam">
                        <polygon points="2356,2789 3297,2789 3297,2699 2356,2699" />
                        <polygon points="3071,2654 3297,2654 3297,2564 3071,2564" />
                        <g id="m-ef507fca-04b9-404b-85c3-3cc5b1839c87" class="note">
                           <g class="notehead">
                              <use xlink:href="#E0A4-r7t1ab" x="2356" y="2204" height="720px" width="720px" />
                           </g>
                           <g id="dkm9nfx" class="dots">
                              <ellipse cx="2672" cy="2294" rx="36" ry="36" />
                           </g>
                           <g id="s99q2ma" class="stem">
                              <path d="M2365 2232 L2365 2771" stroke="currentColor" stroke-width="18" />
                           </g>
                           <g id="atov1yj" class="accid" />
                        </g>
                        <g id="m-7bde1e41-0e0b-47eb-b29b-6bf78f10cc48" class="note">
                           <g class="notehead">
                              <use xlink:href="#E0A4-r7t1ab" x="3279" y="2204" height="720px" width="720px" />
                           </g>
                           <g id="s1xedi4a" class="stem">
                              <path d="M3288 2232 L3288 2771" stroke="currentColor" stroke-width="18" />
                           </g>
                           <g id="all9xdx" class="accid" />
                        </g>
                     </g>
                     <g id="m-4f9a2848-4d25-4290-87b5-f8d0be1e81c4" class="beam">
                        <polygon points="3595,3239 4379,3239 4379,3149 3595,3149" />
                        <polygon points="4054,3104 4379,3104 4379,3014 4054,3014" />
                        <g id="m-9a011b33-95f7-44c4-9e9c-ac957a2f48fd" class="chord">
                           <g id="sgcej48" class="stem">
                              <path d="M3604 2232 L3604 3221" stroke="currentColor" stroke-width="18" />
                           </g>
                           <g id="m-82697d37-fdf8-4f91-b29c-bfa1bc5c8ae4" class="note">
                              <g class="notehead">
                                 <use xlink:href="#E0A4-r7t1ab" x="3595" y="2654" height="720px" width="720px" />
                              </g>
                           </g>
                           <g id="m-9b117fb1-eed8-4632-9741-e17c15307263" class="note">
                              <g class="notehead">
                                 <use xlink:href="#E0A4-r7t1ab" x="3595" y="2204" height="720px" width="720px" />
                              </g>
                              <g id="a1evphfx" class="accid" />
                           </g>
                        </g>
                        <g id="m-0842a4aa-56c9-4183-87a7-9e5e21ae9bc7" class="note">
                           <g class="notehead">
                              <use xlink:href="#E0A4-r7t1ab" x="4045" y="2654" height="720px" width="720px" />
                           </g>
                           <g id="s10bkc91" class="stem">
                              <path d="M4054 2682 L4054 3221" stroke="currentColor" stroke-width="18" />
                           </g>
                        </g>
                        <g id="m-936208a0-7a77-4249-ab8b-b0cbf65c2d08" class="note">
                           <g class="notehead">
                              <use xlink:href="#E0A4-r7t1ab" x="4361" y="2204" height="720px" width="720px" />
                           </g>
                           <g id="s1vx6y4x" class="stem">
                              <path d="M4370 2232 L4370 3221" stroke="currentColor" stroke-width="18" />
                           </g>
                           <g id="a13jbip" class="accid" />
                        </g>
                     </g>
                     <g id="m-43a6a01e-9c0f-48d9-b687-71899ca3a0b8" class="rest">
                        <use xlink:href="#E4E6-r7t1ab" x="4677" y="2384" height="720px" width="720px" />
                     </g>
                     <g id="m-077d72fc-0165-41ac-9ffd-e335c0a5e6bb" class="beam">
                        <polygon points="5311,3284 5645,3329 5645,3239 5311,3194" />
                        <polygon points="5311,3149 5645,3194 5645,3104 5311,3059" />
                        <g id="m-dcca4eb5-ee10-43c5-bd82-ff5a6540023e" class="note">
                           <g class="notehead">
                              <use xlink:href="#E0A4-r7t1ab" x="5311" y="2204" height="720px" width="720px" />
                           </g>
                           <g id="sb6amb" class="stem">
                              <path d="M5320 2232 L5320 3266" stroke="currentColor" stroke-width="18" />
                           </g>
                           <g id="a6libx8" class="accid" />
                        </g>
                        <g id="m-8c6871ed-3c91-49aa-bdab-164aabbe955e" class="note">
                           <g class="notehead">
                              <use xlink:href="#E0A4-r7t1ab" x="5627" y="2654" height="720px" width="720px" />
                           </g>
                           <g id="s10zjcpf" class="stem">
                              <path d="M5636 2682 L5636 3311" stroke="currentColor" stroke-width="18" />
                           </g>
                        </g>
                     </g>
                  </g>
               </g>
               <g id="b3bgesg" class="barLine">
                  <path d="M5957 1844 L5957 2564" stroke="currentColor" stroke-width="27" />
               </g>
            </g>
            <g id="s14wfbxv" class="systemMilestoneEnd m-36eef8dd-42bb-4beb-9bf9-59165c95f6d6" />
         </g>
         <g id="pygmxcj" class="pageMilestoneEnd m-bc788bdc-a204-41f2-8062-1b6864077834" />
         <g id="p633vgq" class="pageMilestoneEnd m-c33c959f-ebe7-4ee2-aced-22203ef2e03c" />
         <g id="p5bwic0" class="pgHead autogenerated">
            <text font-size="0px">
               <tspan id="r84l0u" class="rend" x="10000" y="415" text-anchor="middle">
                  <title class="labelAttr">title</title>
                  <tspan id="r1fmturi" class="rend">
                     <tspan id="t9tx56c" class="text">
                        <tspan font-size="607px">12_rock_130_beat_4-4</tspan>
                     </tspan>
                  </tspan>
                  <tspan id="l1ektrcy" class="lb" />
                  <tspan id="r1ug8a77" class="rend">
                     <tspan id="t1w63m43" class="text" x="10000" y="805">
                        <tspan font-size="324px">12_rock_130_beat_4-4</tspan>
                     </tspan>
                  </tspan>
               </tspan>
            </text>
         </g>
         <g id="pqwf7o1" class="pgFoot autogenerated">
            <g id="fcvagco" class="fig">
               <g class="svg" transform="translate(7750, 28099) scale(10.000000, 10.000000)">
                  <g>
                     <path fill="#00000" d="M 17.11278,49.26451 V 10.367554 h 12.696511 c 3.288815,7.336676 6.71267,14.610456 10.127281,21.888976 3.419998,-7.484684 6.255515,-14.204887 9.58887,-21.909915 2.436207,0.103726 4.316952,0.08453 6.484294,-0.05808 V 49.264423 H 50.274275 C 50.145222,38.35639 50.016136,27.448368 49.887066,16.540329 45.003488,27.315459 39.967448,38.433564 35.083854,49.208695 34.678996,49.343717 34.426583,49.135619 34.021726,49.270644 29.46588,39.330716 24.910049,29.390805 20.354201,19.450876 20.224341,29.388756 20.09461,39.326619 19.964815,49.264497 H 17.11278 Z M 36.754144,39.324695 C 32.721221,30.512695 28.6883,21.700679 24.655394,12.888662 22.530527,12.750737 22.656775,12.71031 20.714356,12.813974 v 0.966497 c 4.612938,9.99784 9.609439,20.748709 13.87298,30.081745 0.722248,-1.512523 1.444528,-3.025014 2.166808,-4.537521 z m 25.738417,9.939815 c 0,-12.965651 0,-25.931305 0,-38.896956 10.084388,0 20.168791,0 30.253178,0 0,0.960416 0,1.920849 0,2.881265 -6.482825,0 -12.965652,0 -19.448478,0 0,4.802097 0,9.604178 0,14.406277 5.52241,0 11.044819,0 16.567229,0 0,0.960415 0,1.920832 0,2.881248 -5.52241,0 -11.044819,0 -16.567229,0 0,5.282306 0,10.564611 0,15.846917 6.963035,0 13.926068,0 20.889103,0 0,0.960416 0,1.920832 0,2.881249 -10.564597,0 -21.129207,0 -31.693803,0 z m 4.321874,-2.160937 c 0,-11.765131 0,-23.530263 0,-35.295394 -0.720312,0 -1.440625,0 -2.160937,0 0,11.765131 0,23.530263 0,35.295394 0.720312,0 1.440625,0 2.160937,0 z m 32.41413,2.160937 c 0,-12.965651 0,-25.931305 0,-38.896956 2.401045,0 4.802095,0 7.203135,0 0,12.965651 0,25.931305 0,38.896956 -2.40104,0 -4.80209,0 -7.203135,0 z m 2.881265,-2.160937 c 0,-11.765131 0,-23.530263 0,-35.295394 -0.72031,0 -1.44064,0 -2.160953,0 0,11.765131 0,23.530263 0,35.295394 0.720313,0 1.440643,0 2.160953,0 z" />
                     <path fill="#00000" d="m 346.3,6.7 c -3.1,0.5 -4.9,4.4 -2.7,6.8 1.2,1.4 2.7,2.4 4.1,3.5 -2.4,5.3 -7.7,8.3 -11.9,12.1 -3.7,2.8 -7,6.2 -9.7,9.9 -2.2,-0.8 -0.3,-6.8 -0.6,-9.5 0.1,-3.1 0.7,-6.4 2.9,-8.7 1.3,-1.9 3,-3.5 4.5,-5.2 1.2,-3.4 -3.2,-4.9 -5.8,-4.6 -7.3,-0.5 -14.6,2 -20,6.8 -5,4.6 -10,10.1 -11.5,17 -0.9,3.5 -0.2,7.5 2.8,9.9 2.5,2.8 7.4,2.9 9.8,-0.2 1.7,-2.3 3.2,-4.8 3.8,-7.6 -0.1,-2.6 -4.4,-2.3 -4.3,0.2 1.2,2.4 -0.9,4.7 -2.7,6.2 -1.7,0.9 -4.7,0.7 -4.8,-1.7 -1,-5.8 2.1,-11.3 5.2,-16.1 4,-5.8 9.8,-11.2 17.2,-11.8 1.6,0 8.1,-1.2 6.8,1.4 -2.8,2.8 -5.6,6.1 -6,10.3 -1.6,7.7 0.1,15.7 -2.3,23.2 -1.1,3.9 2,2.6 2.5,0.2 3.3,-7.4 8.9,-13.4 15.1,-18.5 4.2,-3.9 9.5,-7.1 11.9,-12.6 1.3,-3.6 1.2,-9 -2.7,-10.9 -0.6,-0.2 -1.2,-0.3 -1.8,-0.3 z m 66,14.5 c -2,0.8 -1.8,4.9 0.8,4.4 3.4,0.4 2.9,-6.2 -0.8,-4.4 z m 0.6,7.3 c -1.3,0.5 -7.6,0.5 -5.4,2.2 4,-0.3 0.7,4.5 0.6,6.7 -0.4,2.9 -2.4,5.9 -1.2,8.8 2.7,1.7 5.6,-0.8 6.8,-3.2 1.6,-1.4 -0.5,-3 -1.2,-0.9 -0.4,0.8 -2.4,3.5 -2.6,1.8 1.1,-5 2.7,-9.9 3.9,-14.9 l -0.1,-0.5 h -0.9 z m -65.1,0.2 c -6.5,1.6 -10.5,9.5 -8.2,15.7 2.1,3.4 7.4,2.9 10.1,0.4 2,-0.2 3.6,-5.3 1,-3.4 -1.4,2 -4,4.2 -6.5,2.8 -2.2,-1.9 -1.9,-5.7 1.7,-5.3 3.1,-0.9 6.9,-2.1 8.1,-5.5 0.9,-2.7 -1.6,-5.2 -4.3,-4.8 h -1.1 -0.7 z m 13.6,0 c -2.2,0 -8.5,1.8 -2.9,2.3 0.9,1.9 -1,4.9 -1.1,7.2 -0.5,2.9 -1.4,5.7 -1.7,8.7 3.7,0.7 3.8,-2.6 4.4,-5.3 0.9,-3.3 1.6,-7 4.1,-9.5 2.4,1.6 6.8,-0.7 3.7,-3.4 -2.9,-0.5 -4.8,2.4 -6.2,4.3 0,-1.2 2.4,-5 -0.2,-4.3 z m 15.8,0 c -6.4,1.3 -9.6,9.1 -7.7,14.9 1.9,4 7.7,3.9 11,1.7 4.1,-3 6,-8.9 4.4,-13.7 -1.3,-3 -4.8,-3.2 -7.6,-3 z m 17,0 c -2.3,0 -8.8,1.9 -3,2.4 0.4,2.5 -1,5.7 -1.4,8.4 -0.7,2.4 -1.8,7.5 2.1,7.2 3.8,-0.1 6.5,-3.5 8.5,-6.3 2,-3.2 4.5,-7 3.3,-10.9 -3.7,-3 -3.6,2.6 -3.1,5.1 -0.7,3.8 -2.7,7.9 -6.2,9.8 -3.6,0.6 -1,-4.3 -0.8,-6.1 0.6,-3.2 1.6,-6.3 1.9,-9.5 -0.4,0 -0.8,0 -1.1,0 z m 30.6,0 c -6.3,1.2 -9.5,8.9 -7.8,14.7 1.5,4 7.2,4.2 10.5,2.4 4.6,-2.8 6.6,-9.3 4.8,-14.3 -1.4,-2.8 -4.8,-3 -7.5,-2.8 z m -75.4,1.7 c 2.1,1.5 0.2,4.7 -1.6,5.7 -1.1,0.4 -5.5,3.4 -4.6,0.7 0.8,-2.7 2.2,-6.2 5.3,-6.6 l 0.9,0.1 z m 30.8,0 c 2.6,1.5 1.3,5.2 0.8,7.6 -0.8,2.7 -1.9,5.9 -4.7,7.1 -5.1,0.8 -4,-5.8 -2.8,-8.8 1,-2.8 3,-6.8 6.7,-5.8 z m 47.1,-0.1 c 2.9,0.7 2,4.7 1.5,6.8 -0.7,3 -1.8,6.7 -5,8 -4.7,0.8 -4,-5.1 -3,-7.9 0.9,-3 2.7,-7.3 6.5,-6.8 z m -88.1,5.9 c -0.3,1.3 0.9,-0.6 0,0 z m -1.1,2.4 c -0.2,0.5 0.5,-0.1 0,0 z m -1.3,4.5 c -0.3,1.3 0.8,-0.2 0,0 z" />
                     <text y="41" x="201" fill="#00000" style="font-style:italic;font-weight:normal;font-size:30px;line-height:125%;font-family:Times;text-anchor:middle" xml:space="preserve">engraved with</text>
                  </g>
               </g>
            </g>
         </g>
      </g>
   </svg>
</svg>
