<?xml version="1.0" encoding="UTF-8" standalone="no"?>
<svg width="2100px" height="2970px" version="1.1" xmlns="http://www.w3.org/2000/svg" xmlns:xlink="http://www.w3.org/1999/xlink" xmlns:mei="http://www.music-encoding.org/ns/mei" overflow="visible">
   <desc>Engraved by Verovio 4.4.0-66ab39c</desc>
   <defs>
      <symbol id="E222-w2enix" viewBox="0 0 1000 1000" overflow="inherit">
         <path transform="scale(1,-1)" d="M-163 -200l326 150v-100l-326 -150v100zM-163 150l326 150v-100l-326 -150v100zM-163 -25l326 150v-100l-326 -150v100z" />
      </symbol>
      <symbol id="E084-w2enix" viewBox="0 0 1000 1000" overflow="inherit">
         <path transform="scale(1,-1)" d="M20 -78c84 97 114 180 134 329h170c-13 -32 -82 -132 -99 -151l-84 -97c-33 -36 -59 -63 -80 -81h162v102l127 123v-225h57v-39h-57v-34c0 -43 19 -65 57 -65v-34h-244v36c48 0 60 26 60 70v27h-203v39z" />
      </symbol>
      <symbol id="E0A4-w2enix" viewBox="0 0 1000 1000" overflow="inherit">
         <path transform="scale(1,-1)" d="M0 -39c0 68 73 172 200 172c66 0 114 -37 114 -95c0 -84 -106 -171 -218 -171c-64 0 -96 30 -96 94z" />
      </symbol>
      <symbol id="E4E3-w2enix" viewBox="0 0 1000 1000" overflow="inherit">
         <path transform="scale(1,-1)" d="M0 -115v105c0 9 1 10 10 10h280c9 0 10 -1 10 -10v-105c0 -9 -1 -10 -10 -10h-280c-9 0 -10 1 -10 10z" />
      </symbol>
      <symbol id="E069-w2enix" viewBox="0 0 1000 1000" overflow="inherit">
         <path transform="scale(1,-1)" d="M200 250h125v-500h-125v500zM0 250h125v-500h-125v500z" />
      </symbol>
   </defs>
   <style type="text/css">g.page-margin{font-family:Times,serif;} g.ending, g.fing, g.reh, g.tempo{font-weight:bold;} g.dir, g.dynam, g.mNum{font-style:italic;} g.label{font-weight:normal;}</style>
   <svg class="definition-scale" color="black" viewBox="0 0 21000 29700">
      <g class="page-margin" transform="translate(500, 500)">
         <g id="m-459bb33e-5a7a-4513-b959-161eba0a39ea" class="mdiv pageMilestone" />
         <g id="m-6cb27afc-327e-4e69-b9c4-2c039c88a7b6" class="score pageMilestone" />
         <g id="s1m7mhq" class="system">
            <g id="m-f33bd17a-fe30-4dca-8eae-f6d1ef7f42ae" class="section systemMilestone" />
            <g id="m-80d37b0f-6ce7-40a1-af4a-88fb9321f343" class="measure">
               <g id="m-b72f494e-f47b-4add-b249-8e6a77ee3342" class="staff">
                  <path d="M0 1595 L5291 1595" stroke="currentColor" stroke-width="13" />
                  <path d="M0 1775 L5291 1775" stroke="currentColor" stroke-width="13" />
                  <path d="M0 1955 L5291 1955" stroke="currentColor" stroke-width="13" />
                  <path d="M0 2135 L5291 2135" stroke="currentColor" stroke-width="13" />
                  <path d="M0 2315 L5291 2315" stroke="currentColor" stroke-width="13" />
                  <g id="c6fjrc3" class="clef">
                     <use xlink:href="#E069-w2enix" x="90" y="1955" height="720px" width="720px" />
                  </g>
                  <g id="ko4viqw" class="keySig" />
                  <g id="muy0xlh" class="meterSig">
                     <use xlink:href="#E084-w2enix" x="490" y="1775" height="720px" width="720px" />
                     <use xlink:href="#E084-w2enix" x="490" y="2135" height="720px" width="720px" />
                  </g>
                  <g id="m-6ce25416-9959-4287-b003-14628eb9b2dd" class="layer">
                     <g id="m-d49898d6-5f4c-4683-8c24-3f296094dd1f" class="rest">
                        <use xlink:href="#E4E3-w2enix" x="1052" y="1415" height="720px" width="720px" />
                        <g class="ledgerLines">
                           <path d="M1004 1415 L1316 1415" stroke="currentColor" stroke-width="22" />
                        </g>
                     </g>
                  </g>
                  <g id="m-52fd6056-9e36-4c52-b8de-5ea380b39b65" class="layer">
                     <g id="m-3bc51d16-9608-40f6-a9c5-7a3b4ae54994" class="beam">
                        <polygon points="1052,2810 1810,2810 1810,2720 1052,2720" />
                        <polygon points="1052,2675 1377,2675 1377,2585 1052,2585" />
                        <g id="m-0bcb08fe-6721-4fa2-9bcc-6dd00771253f" class="note">
                           <g class="notehead">
                              <use xlink:href="#E0A4-w2enix" x="1052" y="1955" height="720px" width="720px" />
                           </g>
                           <g id="s1cya03" class="stem">
                              <path d="M1061 1983 L1061 2792" stroke="currentColor" stroke-width="18" />
                           </g>
                           <g id="acyhv41" class="accid" />
                        </g>
                        <g id="m-3e28ac56-3f36-4185-9dc3-c8a0e87c3ac0" class="note">
                           <g class="notehead">
                              <use xlink:href="#E0A4-w2enix" x="1368" y="1955" height="720px" width="720px" />
                           </g>
                           <g id="s1x692ss" class="stem">
                              <path d="M1377 1983 L1377 2792" stroke="currentColor" stroke-width="18" />
                           </g>
                           <g id="a16e6zsx" class="accid" />
                        </g>
                        <g id="m-3caef380-b51a-4b22-a359-16539b1a3194" class="note">
                           <g class="notehead">
                              <use xlink:href="#E0A4-w2enix" x="1792" y="1955" height="720px" width="720px" />
                           </g>
                           <g id="s4vnwhe" class="stem">
                              <path d="M1801 1983 L1801 2792" stroke="currentColor" stroke-width="18" />
                              <use xlink:href="#E222-w2enix" x="1801" y="2441" height="720px" width="720px" />
                           </g>
                           <g id="a14pyl0e" class="accid" />
                        </g>
                     </g>
                     <g id="m-8fb5e507-c7fc-4973-8902-de876a56a480" class="beam">
                        <polygon points="2242,2315 3208,2315 3208,2225 2242,2225" />
                        <polygon points="2242,2180 2567,2180 2567,2090 2242,2090" />
                        <polygon points="2567,2180 2883,2180 2883,2090 2567,2090" />
                        <polygon points="2883,2180 3208,2180 3208,2090 2883,2090" />
                        <g id="m-b638183f-e1bf-4a9f-89ab-230fda0a4a55" class="note">
                           <g class="notehead">
                              <use xlink:href="#E0A4-w2enix" x="2242" y="1685" height="720px" width="720px" />
                           </g>
                           <g id="s4rl8e6" class="stem">
                              <path d="M2251 1713 L2251 2297" stroke="currentColor" stroke-width="18" />
                           </g>
                           <g id="a1k9nikn" class="accid" />
                        </g>
                        <g id="m-eeecdec6-c327-4929-8464-ab8e04ff2809" class="note">
                           <g class="notehead">
                              <use xlink:href="#E0A4-w2enix" x="2558" y="1685" height="720px" width="720px" />
                           </g>
                           <g id="s1yhrt03" class="stem">
                              <path d="M2567 1713 L2567 2297" stroke="currentColor" stroke-width="18" />
                           </g>
                           <g id="akbdswz" class="accid" />
                        </g>
                        <g id="m-74ad9b6e-2c87-4f99-b669-234e1eb67ff2" class="note">
                           <g class="notehead">
                              <use xlink:href="#E0A4-w2enix" x="2874" y="1685" height="720px" width="720px" />
                           </g>
                           <g id="sk2fwxb" class="stem">
                              <path d="M2883 1713 L2883 2297" stroke="currentColor" stroke-width="18" />
                           </g>
                           <g id="a8oao75" class="accid" />
                        </g>
                        <g id="m-56328f39-294d-4cc7-9647-317108507b28" class="note">
                           <g class="notehead">
                              <use xlink:href="#E0A4-w2enix" x="3190" y="1685" height="720px" width="720px" />
                           </g>
                           <g id="s18pgoxt" class="stem">
                              <path d="M3199 1713 L3199 2297" stroke="currentColor" stroke-width="18" />
                           </g>
                           <g id="ad7bag9" class="accid" />
                        </g>
                     </g>
                     <g id="m-dfe713bb-248e-4319-b7d7-9f2ab6232d3d" class="beam">
                        <polygon points="3506,2360 4156,2360 4156,2270 3506,2270" />
                        <polygon points="3506,2225 3831,2225 3831,2135 3506,2135" />
                        <g id="m-814902b4-9009-4a76-81a1-05d5a4c0d0dc" class="note">
                           <g class="notehead">
                              <use xlink:href="#E0A4-w2enix" x="3506" y="1775" height="720px" width="720px" />
                           </g>
                           <g id="sec6wng" class="stem">
                              <path d="M3515 1803 L3515 2342" stroke="currentColor" stroke-width="18" />
                           </g>
                        </g>
                        <g id="m-04526e36-924b-47d0-9840-d937a386eba6" class="note">
                           <g class="notehead">
                              <use xlink:href="#E0A4-w2enix" x="3822" y="1775" height="720px" width="720px" />
                           </g>
                           <g id="sjhvvlk" class="stem">
                              <path d="M3831 1803 L3831 2342" stroke="currentColor" stroke-width="18" />
                           </g>
                        </g>
                        <g id="m-c26b874d-c33e-4cdd-b607-c24c6d56bc7c" class="note">
                           <g class="notehead">
                              <use xlink:href="#E0A4-w2enix" x="4138" y="1775" height="720px" width="720px" />
                           </g>
                           <g id="s17o83qd" class="stem">
                              <path d="M4147 1803 L4147 2342" stroke="currentColor" stroke-width="18" />
                           </g>
                        </g>
                     </g>
                     <g id="m-44eee935-2f9a-429a-b08b-1c84fa47bdf8" class="note">
                        <g class="notehead">
                           <use xlink:href="#E0A4-w2enix" x="4588" y="2225" height="720px" width="720px" />
                        </g>
                        <g id="s150x7pk" class="stem">
                           <path d="M4597 2253 L4597 2735" stroke="currentColor" stroke-width="18" />
                        </g>
                     </g>
                  </g>
               </g>
               <g id="b667jev" class="barLine">
                  <path d="M5278 1595 L5278 2315" stroke="currentColor" stroke-width="27" />
               </g>
            </g>
            <g id="saiqt5k" class="systemMilestoneEnd m-f33bd17a-fe30-4dca-8eae-f6d1ef7f42ae" />
         </g>
         <g id="pei6646" class="pageMilestoneEnd m-6cb27afc-327e-4e69-b9c4-2c039c88a7b6" />
         <g id="p1wqo9fs" class="pageMilestoneEnd m-459bb33e-5a7a-4513-b959-161eba0a39ea" />
         <g id="plflxu" class="pgHead autogenerated">
            <text font-size="0px">
               <tspan id="r14tizy" class="rend" x="10000" y="415" text-anchor="middle">
                  <title class="labelAttr">title</title>
                  <tspan id="rvxg7xt" class="rend">
                     <tspan id="t6fza64" class="text">
                        <tspan font-size="607px">40_rock_120_beat_4-4</tspan>
                     </tspan>
                  </tspan>
                  <tspan id="l8rqtvq" class="lb" />
                  <tspan id="rnku57r" class="rend">
                     <tspan id="t1x47bem" class="text" x="10000" y="805">
                        <tspan font-size="324px">40_rock_120_beat_4-4</tspan>
                     </tspan>
                  </tspan>
               </tspan>
            </text>
         </g>
         <g id="pix14xs" class="pgFoot autogenerated">
            <g id="fqj447a" class="fig">
               <g class="svg" transform="translate(7750, 28099) scale(10.000000, 10.000000)">
                  <g>
                     <path fill="#00000" d="M 17.11278,49.26451 V 10.367554 h 12.696511 c 3.288815,7.336676 6.71267,14.610456 10.127281,21.888976 3.419998,-7.484684 6.255515,-14.204887 9.58887,-21.909915 2.436207,0.103726 4.316952,0.08453 6.484294,-0.05808 V 49.264423 H 50.274275 C 50.145222,38.35639 50.016136,27.448368 49.887066,16.540329 45.003488,27.315459 39.967448,38.433564 35.083854,49.208695 34.678996,49.343717 34.426583,49.135619 34.021726,49.270644 29.46588,39.330716 24.910049,29.390805 20.354201,19.450876 20.224341,29.388756 20.09461,39.326619 19.964815,49.264497 H 17.11278 Z M 36.754144,39.324695 C 32.721221,30.512695 28.6883,21.700679 24.655394,12.888662 22.530527,12.750737 22.656775,12.71031 20.714356,12.813974 v 0.966497 c 4.612938,9.99784 9.609439,20.748709 13.87298,30.081745 0.722248,-1.512523 1.444528,-3.025014 2.166808,-4.537521 z m 25.738417,9.939815 c 0,-12.965651 0,-25.931305 0,-38.896956 10.084388,0 20.168791,0 30.253178,0 0,0.960416 0,1.920849 0,2.881265 -6.482825,0 -12.965652,0 -19.448478,0 0,4.802097 0,9.604178 0,14.406277 5.52241,0 11.044819,0 16.567229,0 0,0.960415 0,1.920832 0,2.881248 -5.52241,0 -11.044819,0 -16.567229,0 0,5.282306 0,10.564611 0,15.846917 6.963035,0 13.926068,0 20.889103,0 0,0.960416 0,1.920832 0,2.881249 -10.564597,0 -21.129207,0 -31.693803,0 z m 4.321874,-2.160937 c 0,-11.765131 0,-23.530263 0,-35.295394 -0.720312,0 -1.440625,0 -2.160937,0 0,11.765131 0,23.530263 0,35.295394 0.720312,0 1.440625,0 2.160937,0 z m 32.41413,2.160937 c 0,-12.965651 0,-25.931305 0,-38.896956 2.401045,0 4.802095,0 7.203135,0 0,12.965651 0,25.931305 0,38.896956 -2.40104,0 -4.80209,0 -7.203135,0 z m 2.881265,-2.160937 c 0,-11.765131 0,-23.530263 0,-35.295394 -0.72031,0 -1.44064,0 -2.160953,0 0,11.765131 0,23.530263 0,35.295394 0.720313,0 1.440643,0 2.160953,0 z" />
                     <path fill="#00000" d="m 346.3,6.7 c -3.1,0.5 -4.9,4.4 -2.7,6.8 1.2,1.4 2.7,2.4 4.1,3.5 -2.4,5.3 -7.7,8.3 -11.9,12.1 -3.7,2.8 -7,6.2 -9.7,9.9 -2.2,-0.8 -0.3,-6.8 -0.6,-9.5 0.1,-3.1 0.7,-6.4 2.9,-8.7 1.3,-1.9 3,-3.5 4.5,-5.2 1.2,-3.4 -3.2,-4.9 -5.8,-4.6 -7.3,-0.5 -14.6,2 -20,6.8 -5,4.6 -10,10.1 -11.5,17 -0.9,3.5 -0.2,7.5 2.8,9.9 2.5,2.8 7.4,2.9 9.8,-0.2 1.7,-2.3 3.2,-4.8 3.8,-7.6 -0.1,-2.6 -4.4,-2.3 -4.3,0.2 1.2,2.4 -0.9,4.7 -2.7,6.2 -1.7,0.9 -4.7,0.7 -4.8,-1.7 -1,-5.8 2.1,-11.3 5.2,-16.1 4,-5.8 9.8,-11.2 17.2,-11.8 1.6,0 8.1,-1.2 6.8,1.4 -2.8,2.8 -5.6,6.1 -6,10.3 -1.6,7.7 0.1,15.7 -2.3,23.2 -1.1,3.9 2,2.6 2.5,0.2 3.3,-7.4 8.9,-13.4 15.1,-18.5 4.2,-3.9 9.5,-7.1 11.9,-12.6 1.3,-3.6 1.2,-9 -2.7,-10.9 -0.6,-0.2 -1.2,-0.3 -1.8,-0.3 z m 66,14.5 c -2,0.8 -1.8,4.9 0.8,4.4 3.4,0.4 2.9,-6.2 -0.8,-4.4 z m 0.6,7.3 c -1.3,0.5 -7.6,0.5 -5.4,2.2 4,-0.3 0.7,4.5 0.6,6.7 -0.4,2.9 -2.4,5.9 -1.2,8.8 2.7,1.7 5.6,-0.8 6.8,-3.2 1.6,-1.4 -0.5,-3 -1.2,-0.9 -0.4,0.8 -2.4,3.5 -2.6,1.8 1.1,-5 2.7,-9.9 3.9,-14.9 l -0.1,-0.5 h -0.9 z m -65.1,0.2 c -6.5,1.6 -10.5,9.5 -8.2,15.7 2.1,3.4 7.4,2.9 10.1,0.4 2,-0.2 3.6,-5.3 1,-3.4 -1.4,2 -4,4.2 -6.5,2.8 -2.2,-1.9 -1.9,-5.7 1.7,-5.3 3.1,-0.9 6.9,-2.1 8.1,-5.5 0.9,-2.7 -1.6,-5.2 -4.3,-4.8 h -1.1 -0.7 z m 13.6,0 c -2.2,0 -8.5,1.8 -2.9,2.3 0.9,1.9 -1,4.9 -1.1,7.2 -0.5,2.9 -1.4,5.7 -1.7,8.7 3.7,0.7 3.8,-2.6 4.4,-5.3 0.9,-3.3 1.6,-7 4.1,-9.5 2.4,1.6 6.8,-0.7 3.7,-3.4 -2.9,-0.5 -4.8,2.4 -6.2,4.3 0,-1.2 2.4,-5 -0.2,-4.3 z m 15.8,0 c -6.4,1.3 -9.6,9.1 -7.7,14.9 1.9,4 7.7,3.9 11,1.7 4.1,-3 6,-8.9 4.4,-13.7 -1.3,-3 -4.8,-3.2 -7.6,-3 z m 17,0 c -2.3,0 -8.8,1.9 -3,2.4 0.4,2.5 -1,5.7 -1.4,8.4 -0.7,2.4 -1.8,7.5 2.1,7.2 3.8,-0.1 6.5,-3.5 8.5,-6.3 2,-3.2 4.5,-7 3.3,-10.9 -3.7,-3 -3.6,2.6 -3.1,5.1 -0.7,3.8 -2.7,7.9 -6.2,9.8 -3.6,0.6 -1,-4.3 -0.8,-6.1 0.6,-3.2 1.6,-6.3 1.9,-9.5 -0.4,0 -0.8,0 -1.1,0 z m 30.6,0 c -6.3,1.2 -9.5,8.9 -7.8,14.7 1.5,4 7.2,4.2 10.5,2.4 4.6,-2.8 6.6,-9.3 4.8,-14.3 -1.4,-2.8 -4.8,-3 -7.5,-2.8 z m -75.4,1.7 c 2.1,1.5 0.2,4.7 -1.6,5.7 -1.1,0.4 -5.5,3.4 -4.6,0.7 0.8,-2.7 2.2,-6.2 5.3,-6.6 l 0.9,0.1 z m 30.8,0 c 2.6,1.5 1.3,5.2 0.8,7.6 -0.8,2.7 -1.9,5.9 -4.7,7.1 -5.1,0.8 -4,-5.8 -2.8,-8.8 1,-2.8 3,-6.8 6.7,-5.8 z m 47.1,-0.1 c 2.9,0.7 2,4.7 1.5,6.8 -0.7,3 -1.8,6.7 -5,8 -4.7,0.8 -4,-5.1 -3,-7.9 0.9,-3 2.7,-7.3 6.5,-6.8 z m -88.1,5.9 c -0.3,1.3 0.9,-0.6 0,0 z m -1.1,2.4 c -0.2,0.5 0.5,-0.1 0,0 z m -1.3,4.5 c -0.3,1.3 0.8,-0.2 0,0 z" />
                     <text y="41" x="201" fill="#00000" style="font-style:italic;font-weight:normal;font-size:30px;line-height:125%;font-family:Times;text-anchor:middle" xml:space="preserve">engraved with</text>
                  </g>
               </g>
            </g>
         </g>
      </g>
   </svg>
</svg>
