<?xml version="1.0" encoding="UTF-8" standalone="no"?>
<svg width="2100px" height="2970px" version="1.1" xmlns="http://www.w3.org/2000/svg" xmlns:xlink="http://www.w3.org/1999/xlink" xmlns:mei="http://www.music-encoding.org/ns/mei" overflow="visible">
   <desc>Engraved by Verovio 4.4.0-66ab39c</desc>
   <defs>
      <symbol id="E084-1sv7h91" viewBox="0 0 1000 1000" overflow="inherit">
         <path transform="scale(1,-1)" d="M20 -78c84 97 114 180 134 329h170c-13 -32 -82 -132 -99 -151l-84 -97c-33 -36 -59 -63 -80 -81h162v102l127 123v-225h57v-39h-57v-34c0 -43 19 -65 57 -65v-34h-244v36c48 0 60 26 60 70v27h-203v39z" />
      </symbol>
      <symbol id="E0A4-1sv7h91" viewBox="0 0 1000 1000" overflow="inherit">
         <path transform="scale(1,-1)" d="M0 -39c0 68 73 172 200 172c66 0 114 -37 114 -95c0 -84 -106 -171 -218 -171c-64 0 -96 30 -96 94z" />
      </symbol>
      <symbol id="E240-1sv7h91" viewBox="0 0 1000 1000" overflow="inherit">
         <path transform="scale(1,-1)" d="M179 -646c15 29 29 55 46 102c18 49 30 108 30 138c0 105 -80 173 -168 200c-18 5 -47 9 -87 16v190h22c8 0 33 -61 71 -95c4 -3 -2 3 61 -56c62 -58 122 -137 122 -241c0 -38 -13 -106 -35 -163c-20 -51 -43 -99 -66 -132c-6 -5 -10 -7 -13 -7s-5 2 -5 5l4 10 c1 3 14 25 18 33z" />
      </symbol>
      <symbol id="E4E6-1sv7h91" viewBox="0 0 1000 1000" overflow="inherit">
         <path transform="scale(1,-1)" d="M0 123c7 34 33 56 69 60c29 -3 43 -9 53 -29c4 -8 7 -15 10 -22c0 -21 -1 -25 -11 -35c-5 -8 -18 -14 -40 -20l12 -3l15 -1c44 0 97 26 122 56c10 11 18 26 24 42c7 1 15 2 22 3l-140 -424h-36l111 330c-10 -6 -27 -12 -53 -16l-52 -8h-10l-20 1c-1 0 -8 3 -21 6 c-37 9 -55 28 -55 60z" />
      </symbol>
      <symbol id="E069-1sv7h91" viewBox="0 0 1000 1000" overflow="inherit">
         <path transform="scale(1,-1)" d="M200 250h125v-500h-125v500zM0 250h125v-500h-125v500z" />
      </symbol>
      <symbol id="E0A9-1sv7h91" viewBox="0 0 1000 1000" overflow="inherit">
         <path transform="scale(1,-1)" d="M0 -110c0 4 1 8 5 11l119 99l-119 100c-3 3 -5 8 -5 12c0 6 5 13 12 13c3 0 6 -1 8 -2l124 -105l126 105c2 1 5 2 7 2c6 0 13 -6 13 -14c0 -4 -2 -9 -5 -11l-119 -100l119 -99c3 -3 5 -7 5 -12c0 -6 -5 -14 -13 -14c-2 0 -5 1 -7 3l-126 105l-124 -105c-2 -2 -4 -3 -7 -3 c-8 0 -13 7 -13 15z" />
      </symbol>
   </defs>
   <style type="text/css">g.page-margin{font-family:Times,serif;} g.ending, g.fing, g.reh, g.tempo{font-weight:bold;} g.dir, g.dynam, g.mNum{font-style:italic;} g.label{font-weight:normal;}</style>
   <svg class="definition-scale" color="black" viewBox="0 0 21000 29700">
      <g class="page-margin" transform="translate(500, 500)">
         <g id="m-ce84b2c6-05fa-4f0d-88b3-2b2d4a04774c" class="mdiv pageMilestone" />
         <g id="m-942af9a8-611a-4996-b2b1-be14107bd4c6" class="score pageMilestone" />
         <g id="s11mzg8y" class="system">
            <g id="m-debc5039-4229-4eaa-91c9-c7a3c49ea6d6" class="section systemMilestone" />
            <g id="m-f0ed3f2a-2df9-4a39-8f22-171bbe3b6975" class="measure">
               <g id="m-7b416a08-e051-47a2-8c4d-cdaa8f842047" class="staff">
                  <path d="M0 1865 L5840 1865" stroke="currentColor" stroke-width="13" />
                  <path d="M0 2045 L5840 2045" stroke="currentColor" stroke-width="13" />
                  <path d="M0 2225 L5840 2225" stroke="currentColor" stroke-width="13" />
                  <path d="M0 2405 L5840 2405" stroke="currentColor" stroke-width="13" />
                  <path d="M0 2585 L5840 2585" stroke="currentColor" stroke-width="13" />
                  <g id="czpkuon" class="clef">
                     <use xlink:href="#E069-1sv7h91" x="90" y="2225" height="720px" width="720px" />
                  </g>
                  <g id="km2njl8" class="keySig" />
                  <g id="m169if6f" class="meterSig">
                     <use xlink:href="#E084-1sv7h91" x="490" y="2045" height="720px" width="720px" />
                     <use xlink:href="#E084-1sv7h91" x="490" y="2405" height="720px" width="720px" />
                  </g>
                  <g class="ledgerLines below">
                     <path d="M4722 2765 L5026 2765" stroke="currentColor" stroke-width="22" />
                  </g>
                  <g id="m-e9b7dc35-b245-41b8-a950-cba131181713" class="layer">
                     <g id="m-6e6b3922-031c-4f8b-8832-490780d19a0c" class="beam">
                        <polygon points="1274,1055 2140,1055 2140,1145 1274,1145" />
                        <polygon points="1274,1190 1781,1190 1781,1280 1274,1280" />
                        <polygon points="1555,1325 1781,1325 1781,1415 1555,1415" />
                        <g id="m-31c4b74f-0645-48c2-8e04-910fe04509b1" class="note">
                           <g class="notehead">
                              <use xlink:href="#E0A9-1sv7h91" x="1084" y="1775" height="720px" width="720px" />
                           </g>
                           <g id="d1puz55o" class="dots">
                              <ellipse cx="1382" cy="1775" rx="36" ry="36" />
                           </g>
                           <g id="sqg26xt" class="stem">
                              <path d="M1283 1696 L1283 1073" stroke="currentColor" stroke-width="18" />
                           </g>
                        </g>
                        <g id="m-5e5a3a70-5d48-4e5f-ba3f-cf1600f89378" class="note">
                           <g class="notehead">
                              <use xlink:href="#E0A9-1sv7h91" x="1582" y="1775" height="720px" width="720px" />
                           </g>
                           <g id="s2nve27" class="stem">
                              <path d="M1781 1696 L1781 1073" stroke="currentColor" stroke-width="18" />
                           </g>
                        </g>
                        <g id="m-e2e7f31e-3d56-4285-9f29-92185aea0836" class="note">
                           <g class="notehead">
                              <use xlink:href="#E0A9-1sv7h91" x="1932" y="1775" height="720px" width="720px" />
                           </g>
                           <g id="s1gq19ud" class="stem">
                              <path d="M2131 1696 L2131 1073" stroke="currentColor" stroke-width="18" />
                           </g>
                        </g>
                     </g>
                     <g id="m-07b43276-53b3-4d67-bb4a-83dfa261b5f0" class="beam">
                        <polygon points="2846,1325 3392,1325 3392,1415 2846,1415" />
                        <g id="m-fb65feb4-967a-4718-afad-b2e00db8a331" class="note">
                           <g class="notehead">
                              <use xlink:href="#E0A9-1sv7h91" x="2656" y="1775" height="720px" width="720px" />
                           </g>
                           <g id="s1hegx9x" class="stem">
                              <path d="M2855 1696 L2855 1343" stroke="currentColor" stroke-width="18" />
                           </g>
                        </g>
                        <g id="m-c8714119-32b2-4f18-9aa3-f8527fd697d7" class="note">
                           <g class="notehead">
                              <use xlink:href="#E0A9-1sv7h91" x="3184" y="1775" height="720px" width="720px" />
                           </g>
                           <g id="s1i0z44o" class="stem">
                              <path d="M3383 1696 L3383 1343" stroke="currentColor" stroke-width="18" />
                           </g>
                        </g>
                     </g>
                     <g id="m-c5eb2304-34a0-42b9-be6d-405ae72cebd0" class="beam">
                        <polygon points="3903,1325 4449,1325 4449,1415 3903,1415" />
                        <g id="m-00c32dc3-664b-48a0-9849-437c75b41118" class="note">
                           <g class="notehead">
                              <use xlink:href="#E0A9-1sv7h91" x="3713" y="1775" height="720px" width="720px" />
                           </g>
                           <g id="s1f4ds6r" class="stem">
                              <path d="M3912 1696 L3912 1343" stroke="currentColor" stroke-width="18" />
                           </g>
                        </g>
                        <g id="m-e47b2c2b-838b-4930-a083-99c3134e96d6" class="note">
                           <g class="notehead">
                              <use xlink:href="#E0A9-1sv7h91" x="4241" y="1775" height="720px" width="720px" />
                           </g>
                           <g id="s1tug5ui" class="stem">
                              <path d="M4440 1696 L4440 1343" stroke="currentColor" stroke-width="18" />
                           </g>
                        </g>
                     </g>
                     <g id="m-fb47d604-3d59-46c5-bdfc-9c29243649df" class="beam">
                        <polygon points="4960,1325 5507,1325 5507,1415 4960,1415" />
                        <g id="m-791240d0-f536-4c57-bc54-b5bde3f4e3a9" class="note">
                           <g class="notehead">
                              <use xlink:href="#E0A9-1sv7h91" x="4770" y="1775" height="720px" width="720px" />
                           </g>
                           <g id="s1w5ordj" class="stem">
                              <path d="M4969 1696 L4969 1343" stroke="currentColor" stroke-width="18" />
                           </g>
                        </g>
                        <g id="m-4450abdd-a667-4f1c-9dd1-41c29bc5e268" class="note">
                           <g class="notehead">
                              <use xlink:href="#E0A9-1sv7h91" x="5299" y="1775" height="720px" width="720px" />
                           </g>
                           <g id="s1df4e89" class="stem">
                              <path d="M5498 1696 L5498 1343" stroke="currentColor" stroke-width="18" />
                           </g>
                        </g>
                     </g>
                  </g>
                  <g id="m-80260aa8-b8cd-4671-92ac-7f6144bf2348" class="layer">
                     <g id="m-a07fa2fb-3145-49a1-b63e-4433d1adad43" class="beam">
                        <polygon points="1084,3260 2302,3260 2302,3170 1084,3170" />
                        <polygon points="2076,3125 2302,3125 2302,3035 2076,3035" />
                        <g id="m-0e969e86-a091-4624-97d0-8712337cbc22" class="note">
                           <g class="notehead">
                              <use xlink:href="#E0A4-1sv7h91" x="1084" y="2675" height="720px" width="720px" />
                           </g>
                           <g id="d1573i8e" class="dots">
                              <ellipse cx="1400" cy="2675" rx="36" ry="36" />
                           </g>
                           <g id="s4xnzze" class="stem">
                              <path d="M1093 2703 L1093 3242" stroke="currentColor" stroke-width="18" />
                           </g>
                        </g>
                        <g id="m-54477daf-a1e1-45c0-b201-d7f5ecb4516c" class="note">
                           <g class="notehead">
                              <use xlink:href="#E0A4-1sv7h91" x="2284" y="2675" height="720px" width="720px" />
                           </g>
                           <g id="s1cocnvm" class="stem">
                              <path d="M2293 2703 L2293 3242" stroke="currentColor" stroke-width="18" />
                           </g>
                        </g>
                     </g>
                     <g id="m-43395692-56a4-4777-b63f-acdc3bd9460c" class="note">
                        <g class="notehead">
                           <use xlink:href="#E0A4-1sv7h91" x="2656" y="2225" height="720px" width="720px" />
                        </g>
                        <g id="s12lcuft" class="stem">
                           <path d="M2665 2253 L2665 2825" stroke="currentColor" stroke-width="18" />
                        </g>
                        <g id="aut78mh" class="accid" />
                     </g>
                     <g id="m-1e8ea37e-9470-4e2b-a0fa-4c2812ac67ea" class="beam">
                        <polygon points="3713,3125 4259,3125 4259,3035 3713,3035" />
                        <g id="m-3596e98d-edfb-4b93-8d42-1e9a651d8877" class="note">
                           <g class="notehead">
                              <use xlink:href="#E0A4-1sv7h91" x="3713" y="2675" height="720px" width="720px" />
                           </g>
                           <g id="s1g24lmx" class="stem">
                              <path d="M3722 2703 L3722 3107" stroke="currentColor" stroke-width="18" />
                           </g>
                        </g>
                        <g id="m-03bc699e-8559-42d3-b683-53f9c20f30dd" class="note">
                           <g class="notehead">
                              <use xlink:href="#E0A4-1sv7h91" x="4241" y="2675" height="720px" width="720px" />
                           </g>
                           <g id="sviuu98" class="stem">
                              <path d="M4250 2703 L4250 3107" stroke="currentColor" stroke-width="18" />
                           </g>
                        </g>
                     </g>
                     <g id="m-dd1b3beb-97ee-42f2-835c-21e47155846b" class="chord">
                        <g id="sn5jqa" class="stem">
                           <path d="M4779 2253 L4779 3305" stroke="currentColor" stroke-width="18" />
                        </g>
                        <g id="m-35bd0f0c-7ce6-4e62-ac57-5daa393dee3e" class="note">
                           <g class="notehead">
                              <use xlink:href="#E0A9-1sv7h91" x="4770" y="2855" height="720px" width="720px" />
                           </g>
                           <g id="a1h9rc6w" class="accid" />
                        </g>
                        <g id="m-2d627b98-1864-4fa0-9236-7f6cdafc308a" class="note">
                           <g class="notehead">
                              <use xlink:href="#E0A4-1sv7h91" x="4770" y="2225" height="720px" width="720px" />
                           </g>
                           <g id="a1e4vcsf" class="accid" />
                        </g>
                     </g>
                  </g>
               </g>
               <g id="b11djzj7" class="barLine">
                  <path d="M5827 1865 L5827 2585" stroke="currentColor" stroke-width="27" />
               </g>
            </g>
            <g id="m-b49226d3-bc81-4309-9b7e-8d9c7742d4d3" class="measure">
               <g id="m-b6cbe704-2ff0-4458-b8b8-2ec912038dd6" class="staff">
                  <path d="M5840 1865 L10479 1865" stroke="currentColor" stroke-width="13" />
                  <path d="M5840 2045 L10479 2045" stroke="currentColor" stroke-width="13" />
                  <path d="M5840 2225 L10479 2225" stroke="currentColor" stroke-width="13" />
                  <path d="M5840 2405 L10479 2405" stroke="currentColor" stroke-width="13" />
                  <path d="M5840 2585 L10479 2585" stroke="currentColor" stroke-width="13" />
                  <g id="m-c8d3d780-7821-4e32-aa5b-58f36dad5648" class="layer">
                     <g id="m-c9de75de-00c3-44b1-94d2-ccc60f281a2f" class="beam">
                        <polygon points="6242,1190 7397,1190 7397,1280 6242,1280" />
                        <polygon points="7036,1325 7397,1325 7397,1415 7036,1415" />
                        <g id="m-4ddd608a-bb1f-4aa7-a190-3dab84b9a3f2" class="note">
                           <g class="notehead">
                              <use xlink:href="#E0A9-1sv7h91" x="6052" y="1775" height="720px" width="720px" />
                           </g>
                           <g id="sqrndud" class="stem">
                              <path d="M6251 1696 L6251 1208" stroke="currentColor" stroke-width="18" />
                           </g>
                        </g>
                        <g id="m-aa93497b-4cf0-4c84-8aa2-75fb22b09898" class="note">
                           <g class="notehead">
                              <use xlink:href="#E0A9-1sv7h91" x="6837" y="1775" height="720px" width="720px" />
                           </g>
                           <g id="s16uui1t" class="stem">
                              <path d="M7036 1696 L7036 1208" stroke="currentColor" stroke-width="18" />
                           </g>
                        </g>
                        <g id="m-a6c8ac7d-c74f-4de5-aad2-f7a3f55af9bd" class="note">
                           <g class="notehead">
                              <use xlink:href="#E0A9-1sv7h91" x="7189" y="1775" height="720px" width="720px" />
                           </g>
                           <g id="sv9y3jv" class="stem">
                              <path d="M7388 1696 L7388 1208" stroke="currentColor" stroke-width="18" />
                           </g>
                        </g>
                     </g>
                     <g id="m-db1fe90e-74a7-48c2-8d28-bb08fd9a1f6c" class="beam">
                        <polygon points="7731,1325 8278,1325 8278,1415 7731,1415" />
                        <g id="m-6376f850-18ef-43e0-8d22-9028645a8f4b" class="note">
                           <g class="notehead">
                              <use xlink:href="#E0A9-1sv7h91" x="7541" y="1775" height="720px" width="720px" />
                           </g>
                           <g id="s1lymntf" class="stem">
                              <path d="M7740 1696 L7740 1343" stroke="currentColor" stroke-width="18" />
                           </g>
                        </g>
                        <g id="m-a458c24b-acfd-4966-a457-2ac610ab75b4" class="note">
                           <g class="notehead">
                              <use xlink:href="#E0A9-1sv7h91" x="8070" y="1775" height="720px" width="720px" />
                           </g>
                           <g id="s15ypb5c" class="stem">
                              <path d="M8269 1696 L8269 1343" stroke="currentColor" stroke-width="18" />
                           </g>
                        </g>
                     </g>
                     <g id="m-d6129189-a564-4f8a-829c-825bbbbf9ed8" class="note">
                        <g class="notehead">
                           <use xlink:href="#E0A9-1sv7h91" x="8599" y="1775" height="720px" width="720px" />
                        </g>
                        <g id="s13bd4fl" class="stem">
                           <path d="M8798 1696 L8798 1325" stroke="currentColor" stroke-width="18" />
                        </g>
                     </g>
                     <g id="m-fcf67993-a149-46e8-9a64-efbcebb961d8" class="beam">
                        <polygon points="9599,1325 10146,1325 10146,1415 9599,1415" />
                        <g id="m-63f575f9-c45e-4890-a1c2-e56d2f30c54b" class="note">
                           <g class="notehead">
                              <use xlink:href="#E0A9-1sv7h91" x="9409" y="1775" height="720px" width="720px" />
                           </g>
                           <g id="shys4ho" class="stem">
                              <path d="M9608 1696 L9608 1343" stroke="currentColor" stroke-width="18" />
                           </g>
                        </g>
                        <g id="m-39ba7c79-cdf7-44ec-b67c-c261b1bbc82d" class="note">
                           <g class="notehead">
                              <use xlink:href="#E0A9-1sv7h91" x="9938" y="1775" height="720px" width="720px" />
                           </g>
                           <g id="s1sppk3j" class="stem">
                              <path d="M10137 1696 L10137 1343" stroke="currentColor" stroke-width="18" />
                           </g>
                        </g>
                     </g>
                  </g>
                  <g id="m-1cb37d60-e8f9-4bdf-b0ce-91777ef52195" class="layer">
                     <g id="m-0e1b8998-b95e-4eb0-bfd8-cbea2f1bff76" class="beam">
                        <polygon points="6052,3260 6441,3260 6441,3170 6052,3170" />
                        <polygon points="6052,3125 6278,3125 6278,3035 6052,3035" />
                        <g id="m-9c0e69e0-ba22-48b0-8187-aa6f115af2ed" class="note">
                           <g class="notehead">
                              <use xlink:href="#E0A4-1sv7h91" x="6052" y="2675" height="720px" width="720px" />
                           </g>
                           <g id="s1io8ueg" class="stem">
                              <path d="M6061 2703 L6061 3242" stroke="currentColor" stroke-width="18" />
                           </g>
                        </g>
                        <g id="m-93a9156a-670b-498d-95a8-ebc5813ad6b8" class="note">
                           <g class="notehead">
                              <use xlink:href="#E0A4-1sv7h91" x="6423" y="2675" height="720px" width="720px" />
                           </g>
                           <g id="d30irrf" class="dots">
                              <ellipse cx="6739" cy="2675" rx="36" ry="36" />
                           </g>
                           <g id="s1ervgcv" class="stem">
                              <path d="M6432 2703 L6432 3242" stroke="currentColor" stroke-width="18" />
                           </g>
                        </g>
                     </g>
                     <g id="m-20f5857e-18cd-4b8f-ab30-d92c8d7cf3d0" class="note">
                        <g class="notehead">
                           <use xlink:href="#E0A4-1sv7h91" x="7541" y="2225" height="720px" width="720px" />
                        </g>
                        <g id="s1cg18pj" class="stem">
                           <path d="M7550 2253 L7550 2825" stroke="currentColor" stroke-width="18" />
                        </g>
                        <g id="a19h0gxy" class="accid" />
                     </g>
                     <g id="m-f3418780-321c-4f80-9d2c-c639facb51b4" class="note">
                        <g class="notehead">
                           <use xlink:href="#E0A4-1sv7h91" x="8599" y="2675" height="720px" width="720px" />
                        </g>
                        <g id="s6t4z26" class="stem">
                           <path d="M8608 2703 L8608 3125" stroke="currentColor" stroke-width="18" />
                        </g>
                     </g>
                     <g id="m-a401cc1c-56a8-4af3-87ad-808e67fa8498" class="note">
                        <g class="notehead">
                           <use xlink:href="#E0A4-1sv7h91" x="9409" y="2225" height="720px" width="720px" />
                        </g>
                        <g id="si3rlcn" class="stem">
                           <path d="M9418 2253 L9418 2825" stroke="currentColor" stroke-width="18" />
                        </g>
                        <g id="a1u1laqi" class="accid" />
                     </g>
                  </g>
               </g>
               <g id="bjsmw73" class="barLine">
                  <path d="M10466 1865 L10466 2585" stroke="currentColor" stroke-width="27" />
               </g>
            </g>
            <g id="m-7fcb85d9-6409-4311-81af-002b17ac28a8" class="measure">
               <g id="m-9121787c-f72b-4bae-933b-a1a6c157147a" class="staff">
                  <path d="M10479 1865 L15128 1865" stroke="currentColor" stroke-width="13" />
                  <path d="M10479 2045 L15128 2045" stroke="currentColor" stroke-width="13" />
                  <path d="M10479 2225 L15128 2225" stroke="currentColor" stroke-width="13" />
                  <path d="M10479 2405 L15128 2405" stroke="currentColor" stroke-width="13" />
                  <path d="M10479 2585 L15128 2585" stroke="currentColor" stroke-width="13" />
                  <g id="m-bcd43d15-686a-489d-89e3-e43b5901de4b" class="layer">
                     <g id="m-b4533aa8-8d19-4ef9-bc35-bed5c78d1968" class="beam">
                        <polygon points="10881,1190 11623,1190 11623,1280 10881,1280" />
                        <polygon points="10881,1325 11261,1325 11261,1415 10881,1415" />
                        <g id="m-db83d0f6-8f81-4c42-87af-3d7d98a1d703" class="note">
                           <g class="notehead">
                              <use xlink:href="#E0A9-1sv7h91" x="10691" y="1775" height="720px" width="720px" />
                           </g>
                           <g id="sp4oun5" class="stem">
                              <path d="M10890 1696 L10890 1208" stroke="currentColor" stroke-width="18" />
                           </g>
                        </g>
                        <g id="m-d4be77c1-c7d8-4ff3-a828-4de8e497960a" class="note">
                           <g class="notehead">
                              <use xlink:href="#E0A9-1sv7h91" x="11062" y="1775" height="720px" width="720px" />
                           </g>
                           <g id="sdb9rqu" class="stem">
                              <path d="M11261 1696 L11261 1208" stroke="currentColor" stroke-width="18" />
                           </g>
                        </g>
                        <g id="m-fda3e0bc-ebe6-434c-824b-d7375e559b3b" class="note">
                           <g class="notehead">
                              <use xlink:href="#E0A9-1sv7h91" x="11415" y="1775" height="720px" width="720px" />
                           </g>
                           <g id="sw40u7l" class="stem">
                              <path d="M11614 1696 L11614 1208" stroke="currentColor" stroke-width="18" />
                           </g>
                        </g>
                     </g>
                     <g id="m-5dfa19d5-a2a7-4191-bcc4-a20bc99baa0a" class="beam">
                        <polygon points="12133,1325 12680,1325 12680,1415 12133,1415" />
                        <g id="m-515dcac0-e720-48f0-8b76-182b084c68c2" class="note">
                           <g class="notehead">
                              <use xlink:href="#E0A9-1sv7h91" x="11943" y="1775" height="720px" width="720px" />
                           </g>
                           <g id="s4qwhim" class="stem">
                              <path d="M12142 1696 L12142 1343" stroke="currentColor" stroke-width="18" />
                           </g>
                        </g>
                        <g id="m-d0e8c8ed-535b-45ec-8357-47d2b062ddc2" class="note">
                           <g class="notehead">
                              <use xlink:href="#E0A9-1sv7h91" x="12472" y="1775" height="720px" width="720px" />
                           </g>
                           <g id="s7sxk4q" class="stem">
                              <path d="M12671 1696 L12671 1343" stroke="currentColor" stroke-width="18" />
                           </g>
                        </g>
                     </g>
                     <g id="m-be3a6a59-dd1d-4441-9e48-1e99bbdf36a4" class="beam">
                        <polygon points="13190,1325 13737,1325 13737,1415 13190,1415" />
                        <g id="m-7ac7a1ec-843f-4d6d-9e8f-dbde1f9cb62a" class="note">
                           <g class="notehead">
                              <use xlink:href="#E0A9-1sv7h91" x="13000" y="1775" height="720px" width="720px" />
                           </g>
                           <g id="sabd92i" class="stem">
                              <path d="M13199 1696 L13199 1343" stroke="currentColor" stroke-width="18" />
                           </g>
                        </g>
                        <g id="m-83964aa5-8515-4374-a718-20b930af13c4" class="note">
                           <g class="notehead">
                              <use xlink:href="#E0A9-1sv7h91" x="13529" y="1775" height="720px" width="720px" />
                           </g>
                           <g id="s2jfv50" class="stem">
                              <path d="M13728 1696 L13728 1343" stroke="currentColor" stroke-width="18" />
                           </g>
                        </g>
                     </g>
                     <g id="m-a2e91ac7-ff4c-4981-a0aa-6279a77aee82" class="beam">
                        <polygon points="14247,1325 14794,1325 14794,1415 14247,1415" />
                        <g id="m-5d328dbe-822d-47fd-98c7-a41c16cf32e0" class="note">
                           <g class="notehead">
                              <use xlink:href="#E0A9-1sv7h91" x="14057" y="1775" height="720px" width="720px" />
                           </g>
                           <g id="suf52tf" class="stem">
                              <path d="M14256 1696 L14256 1343" stroke="currentColor" stroke-width="18" />
                           </g>
                        </g>
                        <g id="m-a6986473-18a8-40e0-ab03-4d30ac4941af" class="note">
                           <g class="notehead">
                              <use xlink:href="#E0A9-1sv7h91" x="14586" y="1775" height="720px" width="720px" />
                           </g>
                           <g id="swwmka6" class="stem">
                              <path d="M14785 1696 L14785 1343" stroke="currentColor" stroke-width="18" />
                           </g>
                        </g>
                     </g>
                  </g>
                  <g id="m-805b1999-cd55-45dd-8342-0ee2cfcde0ca" class="layer">
                     <g id="m-d832e585-4b45-4eca-bac5-ee4348d5cec8" class="note">
                        <g class="notehead">
                           <use xlink:href="#E0A4-1sv7h91" x="10691" y="2675" height="720px" width="720px" />
                        </g>
                        <g id="s4fmbof" class="stem">
                           <path d="M10700 2703 L10700 3125" stroke="currentColor" stroke-width="18" />
                        </g>
                     </g>
                     <g id="m-c2a56916-d59a-4d84-b2a5-299645642cf0" class="note">
                        <g class="notehead">
                           <use xlink:href="#E0A4-1sv7h91" x="11943" y="2225" height="720px" width="720px" />
                        </g>
                        <g id="ss16k8a" class="stem">
                           <path d="M11952 2253 L11952 2825" stroke="currentColor" stroke-width="18" />
                        </g>
                        <g id="acppri2" class="accid" />
                     </g>
                     <g id="m-67f5dc8f-8309-4073-acbd-62c9680da584" class="note">
                        <g class="notehead">
                           <use xlink:href="#E0A4-1sv7h91" x="13000" y="2675" height="720px" width="720px" />
                        </g>
                        <g id="smq3v5p" class="stem">
                           <path d="M13009 2703 L13009 3125" stroke="currentColor" stroke-width="18" />
                        </g>
                     </g>
                     <g id="m-ea8350eb-1b3a-4063-b0b0-c1ef2f7c44d2" class="note">
                        <g class="notehead">
                           <use xlink:href="#E0A4-1sv7h91" x="14057" y="2225" height="720px" width="720px" />
                        </g>
                        <g id="s1qf0wgp" class="stem">
                           <path d="M14066 2253 L14066 2825" stroke="currentColor" stroke-width="18" />
                        </g>
                        <g id="a1nkffj5" class="accid" />
                     </g>
                  </g>
               </g>
               <g id="btl54ge" class="barLine">
                  <path d="M15115 1865 L15115 2585" stroke="currentColor" stroke-width="27" />
               </g>
            </g>
            <g id="m-691fbce5-bddd-429d-8ba0-f9d071022329" class="measure">
               <g id="m-3ba6383c-a1c2-4f3e-b8cf-23a1fe552cfb" class="staff">
                  <path d="M15128 1865 L20002 1865" stroke="currentColor" stroke-width="13" />
                  <path d="M15128 2045 L20002 2045" stroke="currentColor" stroke-width="13" />
                  <path d="M15128 2225 L20002 2225" stroke="currentColor" stroke-width="13" />
                  <path d="M15128 2405 L20002 2405" stroke="currentColor" stroke-width="13" />
                  <path d="M15128 2585 L20002 2585" stroke="currentColor" stroke-width="13" />
                  <g class="ledgerLines below">
                     <path d="M18835 2765 L19139 2765" stroke="currentColor" stroke-width="22" />
                  </g>
                  <g id="m-cf64ae91-6493-4e96-b89f-276026e09d02" class="layer">
                     <g id="m-2923857d-328a-4ae6-af89-832824a790d9" class="beam">
                        <polygon points="15530,1190 16624,1190 16624,1280 15530,1280" />
                        <polygon points="15530,1325 15910,1325 15910,1415 15530,1415" />
                        <polygon points="15910,1325 16263,1325 16263,1415 15910,1415" />
                        <polygon points="16263,1325 16624,1325 16624,1415 16263,1415" />
                        <g id="m-41dcd45f-34d3-43a8-85a0-741bbc388f0f" class="note">
                           <g class="notehead">
                              <use xlink:href="#E0A9-1sv7h91" x="15340" y="1775" height="720px" width="720px" />
                           </g>
                           <g id="sdvklho" class="stem">
                              <path d="M15539 1696 L15539 1208" stroke="currentColor" stroke-width="18" />
                           </g>
                        </g>
                        <g id="m-41a208bb-559d-4a57-bdd1-5b0d0164fe00" class="note">
                           <g class="notehead">
                              <use xlink:href="#E0A9-1sv7h91" x="15711" y="1775" height="720px" width="720px" />
                           </g>
                           <g id="s1a4pzmx" class="stem">
                              <path d="M15910 1696 L15910 1208" stroke="currentColor" stroke-width="18" />
                           </g>
                        </g>
                        <g id="m-a4db645d-3ae7-4e6e-8861-789455903242" class="note">
                           <g class="notehead">
                              <use xlink:href="#E0A9-1sv7h91" x="16064" y="1775" height="720px" width="720px" />
                           </g>
                           <g id="s1xin0ci" class="stem">
                              <path d="M16263 1696 L16263 1208" stroke="currentColor" stroke-width="18" />
                           </g>
                        </g>
                        <g id="m-f158b7f6-9f1c-4ff6-9301-7e76c36ad0d1" class="note">
                           <g class="notehead">
                              <use xlink:href="#E0A9-1sv7h91" x="16416" y="1775" height="720px" width="720px" />
                           </g>
                           <g id="s1lughg" class="stem">
                              <path d="M16615 1696 L16615 1208" stroke="currentColor" stroke-width="18" />
                           </g>
                        </g>
                     </g>
                     <g id="m-9cf6e46f-92f6-4365-9481-67cc336d7248" class="beam">
                        <polygon points="16958,1325 17505,1325 17505,1415 16958,1415" />
                        <g id="m-0e72bfdf-ee51-4354-8a19-b3d78fc737df" class="note">
                           <g class="notehead">
                              <use xlink:href="#E0A9-1sv7h91" x="16768" y="1775" height="720px" width="720px" />
                           </g>
                           <g id="szmkuz5" class="stem">
                              <path d="M16967 1696 L16967 1343" stroke="currentColor" stroke-width="18" />
                           </g>
                        </g>
                        <g id="m-709b430c-44bc-42c3-88ed-1de10ce25a51" class="note">
                           <g class="notehead">
                              <use xlink:href="#E0A9-1sv7h91" x="17297" y="1775" height="720px" width="720px" />
                           </g>
                           <g id="s1bj2nfp" class="stem">
                              <path d="M17496 1696 L17496 1343" stroke="currentColor" stroke-width="18" />
                           </g>
                        </g>
                     </g>
                     <g id="m-7edb464d-606c-49a8-b8f3-a778bfdf6489" class="beam">
                        <polygon points="18015,1325 18562,1325 18562,1415 18015,1415" />
                        <g id="m-d076ac31-b749-4c67-99d7-28e3f5cf68b5" class="note">
                           <g class="notehead">
                              <use xlink:href="#E0A9-1sv7h91" x="17825" y="1775" height="720px" width="720px" />
                           </g>
                           <g id="s10837vt" class="stem">
                              <path d="M18024 1696 L18024 1343" stroke="currentColor" stroke-width="18" />
                           </g>
                        </g>
                        <g id="m-25ec6387-0739-4355-a426-48e1516f8b17" class="note">
                           <g class="notehead">
                              <use xlink:href="#E0A9-1sv7h91" x="18354" y="1775" height="720px" width="720px" />
                           </g>
                           <g id="s1qczops" class="stem">
                              <path d="M18553 1696 L18553 1343" stroke="currentColor" stroke-width="18" />
                           </g>
                        </g>
                     </g>
                     <g id="m-b9ac0386-4149-4700-ad78-c2e5a4b3cba6" class="rest">
                        <use xlink:href="#E4E6-1sv7h91" x="18883" y="1685" height="720px" width="720px" />
                     </g>
                     <g id="m-75938912-9924-45c8-b4af-588da840e8eb" class="note">
                        <g class="notehead">
                           <use xlink:href="#E0A9-1sv7h91" x="19411" y="1775" height="720px" width="720px" />
                        </g>
                        <g id="s1qfjka2" class="stem">
                           <path d="M19610 1696 L19610 1265" stroke="currentColor" stroke-width="18" />
                           <g id="f1utqsea" class="flag">
                              <use xlink:href="#E240-1sv7h91" x="19601" y="1265" height="720px" width="720px" />
                           </g>
                        </g>
                     </g>
                  </g>
                  <g id="m-647ae1be-536d-4d7b-beae-c93b703165d5" class="layer">
                     <g id="m-726deb99-682b-4930-8aa0-b8f206d0b5e0" class="note">
                        <g class="notehead">
                           <use xlink:href="#E0A4-1sv7h91" x="15340" y="2675" height="720px" width="720px" />
                        </g>
                        <g id="s1pbd5n2" class="stem">
                           <path d="M15349 2703 L15349 3125" stroke="currentColor" stroke-width="18" />
                        </g>
                     </g>
                     <g id="m-f0aeecc2-3063-4b69-a431-e649c4ce64c2" class="note">
                        <g class="notehead">
                           <use xlink:href="#E0A4-1sv7h91" x="16768" y="2225" height="720px" width="720px" />
                        </g>
                        <g id="s1m528mn" class="stem">
                           <path d="M16777 2253 L16777 2825" stroke="currentColor" stroke-width="18" />
                        </g>
                        <g id="a1ndoygp" class="accid" />
                     </g>
                     <g id="m-f6467617-df8d-4b5e-b824-0536d8e12efd" class="beam">
                        <polygon points="17825,3170 18372,3125 18372,3035 17825,3080" />
                        <g id="m-0f108e37-0233-446e-97af-43fbc493acf0" class="note">
                           <g class="notehead">
                              <use xlink:href="#E0A4-1sv7h91" x="17825" y="2675" height="720px" width="720px" />
                           </g>
                           <g id="s1ktmvrw" class="stem">
                              <path d="M17834 2703 L17834 3152" stroke="currentColor" stroke-width="18" />
                           </g>
                        </g>
                        <g id="m-0a9f52f6-aa6a-4c95-89a4-052bceb3887b" class="note">
                           <g class="notehead">
                              <use xlink:href="#E0A4-1sv7h91" x="18354" y="2225" height="720px" width="720px" />
                           </g>
                           <g id="szb90ok" class="stem">
                              <path d="M18363 2253 L18363 3107" stroke="currentColor" stroke-width="18" />
                           </g>
                           <g id="agq08bt" class="accid" />
                        </g>
                     </g>
                     <g id="m-f13277e1-5696-417a-b29a-e83b9c50cd86" class="beam">
                        <polygon points="18883,3350 19429,3305 19429,3215 18883,3260" />
                        <g id="m-c472fe21-21ee-415f-93fc-2e0881e68feb" class="note">
                           <g class="notehead">
                              <use xlink:href="#E0A9-1sv7h91" x="18883" y="2855" height="720px" width="720px" />
                           </g>
                           <g id="ss50zc2" class="stem">
                              <path d="M18892 2934 L18892 3332" stroke="currentColor" stroke-width="18" />
                           </g>
                           <g id="azlkegp" class="accid" />
                        </g>
                        <g id="m-ea01930b-44b4-468a-aa7a-5639f715976b" class="note">
                           <g class="notehead">
                              <use xlink:href="#E0A4-1sv7h91" x="19411" y="2225" height="720px" width="720px" />
                           </g>
                           <g id="s1rlc1mm" class="stem">
                              <path d="M19420 2253 L19420 3287" stroke="currentColor" stroke-width="18" />
                           </g>
                           <g id="aow28ta" class="accid" />
                        </g>
                     </g>
                  </g>
               </g>
               <g id="b1fir7af" class="barLine">
                  <path d="M19989 1865 L19989 2585" stroke="currentColor" stroke-width="27" />
               </g>
            </g>
            <g id="s39gsbk" class="systemMilestoneEnd m-debc5039-4229-4eaa-91c9-c7a3c49ea6d6" />
         </g>
         <g id="p7taebn" class="pageMilestoneEnd m-942af9a8-611a-4996-b2b1-be14107bd4c6" />
         <g id="p16tzjfn" class="pageMilestoneEnd m-ce84b2c6-05fa-4f0d-88b3-2b2d4a04774c" />
         <g id="p1jmx9pf" class="pgHead autogenerated">
            <text font-size="0px">
               <tspan id="r25hyc9" class="rend" x="10000" y="415" text-anchor="middle">
                  <title class="labelAttr">title</title>
                  <tspan id="r1vz3vac" class="rend">
                     <tspan id="t3d2xcl" class="text">
                        <tspan font-size="607px">9_rock_100_beat_4-4</tspan>
                     </tspan>
                  </tspan>
                  <tspan id="l1mu9ojp" class="lb" />
                  <tspan id="r1icea9a" class="rend">
                     <tspan id="tkuvbmk" class="text" x="10000" y="805">
                        <tspan font-size="324px">9_rock_100_beat_4-4</tspan>
                     </tspan>
                  </tspan>
               </tspan>
            </text>
         </g>
         <g id="p1jyn5n2" class="pgFoot autogenerated">
            <g id="f6vqjly" class="fig">
               <g class="svg" transform="translate(7750, 28099) scale(10.000000, 10.000000)">
                  <g>
                     <path fill="#00000" d="M 17.11278,49.26451 V 10.367554 h 12.696511 c 3.288815,7.336676 6.71267,14.610456 10.127281,21.888976 3.419998,-7.484684 6.255515,-14.204887 9.58887,-21.909915 2.436207,0.103726 4.316952,0.08453 6.484294,-0.05808 V 49.264423 H 50.274275 C 50.145222,38.35639 50.016136,27.448368 49.887066,16.540329 45.003488,27.315459 39.967448,38.433564 35.083854,49.208695 34.678996,49.343717 34.426583,49.135619 34.021726,49.270644 29.46588,39.330716 24.910049,29.390805 20.354201,19.450876 20.224341,29.388756 20.09461,39.326619 19.964815,49.264497 H 17.11278 Z M 36.754144,39.324695 C 32.721221,30.512695 28.6883,21.700679 24.655394,12.888662 22.530527,12.750737 22.656775,12.71031 20.714356,12.813974 v 0.966497 c 4.612938,9.99784 9.609439,20.748709 13.87298,30.081745 0.722248,-1.512523 1.444528,-3.025014 2.166808,-4.537521 z m 25.738417,9.939815 c 0,-12.965651 0,-25.931305 0,-38.896956 10.084388,0 20.168791,0 30.253178,0 0,0.960416 0,1.920849 0,2.881265 -6.482825,0 -12.965652,0 -19.448478,0 0,4.802097 0,9.604178 0,14.406277 5.52241,0 11.044819,0 16.567229,0 0,0.960415 0,1.920832 0,2.881248 -5.52241,0 -11.044819,0 -16.567229,0 0,5.282306 0,10.564611 0,15.846917 6.963035,0 13.926068,0 20.889103,0 0,0.960416 0,1.920832 0,2.881249 -10.564597,0 -21.129207,0 -31.693803,0 z m 4.321874,-2.160937 c 0,-11.765131 0,-23.530263 0,-35.295394 -0.720312,0 -1.440625,0 -2.160937,0 0,11.765131 0,23.530263 0,35.295394 0.720312,0 1.440625,0 2.160937,0 z m 32.41413,2.160937 c 0,-12.965651 0,-25.931305 0,-38.896956 2.401045,0 4.802095,0 7.203135,0 0,12.965651 0,25.931305 0,38.896956 -2.40104,0 -4.80209,0 -7.203135,0 z m 2.881265,-2.160937 c 0,-11.765131 0,-23.530263 0,-35.295394 -0.72031,0 -1.44064,0 -2.160953,0 0,11.765131 0,23.530263 0,35.295394 0.720313,0 1.440643,0 2.160953,0 z" />
                     <path fill="#00000" d="m 346.3,6.7 c -3.1,0.5 -4.9,4.4 -2.7,6.8 1.2,1.4 2.7,2.4 4.1,3.5 -2.4,5.3 -7.7,8.3 -11.9,12.1 -3.7,2.8 -7,6.2 -9.7,9.9 -2.2,-0.8 -0.3,-6.8 -0.6,-9.5 0.1,-3.1 0.7,-6.4 2.9,-8.7 1.3,-1.9 3,-3.5 4.5,-5.2 1.2,-3.4 -3.2,-4.9 -5.8,-4.6 -7.3,-0.5 -14.6,2 -20,6.8 -5,4.6 -10,10.1 -11.5,17 -0.9,3.5 -0.2,7.5 2.8,9.9 2.5,2.8 7.4,2.9 9.8,-0.2 1.7,-2.3 3.2,-4.8 3.8,-7.6 -0.1,-2.6 -4.4,-2.3 -4.3,0.2 1.2,2.4 -0.9,4.7 -2.7,6.2 -1.7,0.9 -4.7,0.7 -4.8,-1.7 -1,-5.8 2.1,-11.3 5.2,-16.1 4,-5.8 9.8,-11.2 17.2,-11.8 1.6,0 8.1,-1.2 6.8,1.4 -2.8,2.8 -5.6,6.1 -6,10.3 -1.6,7.7 0.1,15.7 -2.3,23.2 -1.1,3.9 2,2.6 2.5,0.2 3.3,-7.4 8.9,-13.4 15.1,-18.5 4.2,-3.9 9.5,-7.1 11.9,-12.6 1.3,-3.6 1.2,-9 -2.7,-10.9 -0.6,-0.2 -1.2,-0.3 -1.8,-0.3 z m 66,14.5 c -2,0.8 -1.8,4.9 0.8,4.4 3.4,0.4 2.9,-6.2 -0.8,-4.4 z m 0.6,7.3 c -1.3,0.5 -7.6,0.5 -5.4,2.2 4,-0.3 0.7,4.5 0.6,6.7 -0.4,2.9 -2.4,5.9 -1.2,8.8 2.7,1.7 5.6,-0.8 6.8,-3.2 1.6,-1.4 -0.5,-3 -1.2,-0.9 -0.4,0.8 -2.4,3.5 -2.6,1.8 1.1,-5 2.7,-9.9 3.9,-14.9 l -0.1,-0.5 h -0.9 z m -65.1,0.2 c -6.5,1.6 -10.5,9.5 -8.2,15.7 2.1,3.4 7.4,2.9 10.1,0.4 2,-0.2 3.6,-5.3 1,-3.4 -1.4,2 -4,4.2 -6.5,2.8 -2.2,-1.9 -1.9,-5.7 1.7,-5.3 3.1,-0.9 6.9,-2.1 8.1,-5.5 0.9,-2.7 -1.6,-5.2 -4.3,-4.8 h -1.1 -0.7 z m 13.6,0 c -2.2,0 -8.5,1.8 -2.9,2.3 0.9,1.9 -1,4.9 -1.1,7.2 -0.5,2.9 -1.4,5.7 -1.7,8.7 3.7,0.7 3.8,-2.6 4.4,-5.3 0.9,-3.3 1.6,-7 4.1,-9.5 2.4,1.6 6.8,-0.7 3.7,-3.4 -2.9,-0.5 -4.8,2.4 -6.2,4.3 0,-1.2 2.4,-5 -0.2,-4.3 z m 15.8,0 c -6.4,1.3 -9.6,9.1 -7.7,14.9 1.9,4 7.7,3.9 11,1.7 4.1,-3 6,-8.9 4.4,-13.7 -1.3,-3 -4.8,-3.2 -7.6,-3 z m 17,0 c -2.3,0 -8.8,1.9 -3,2.4 0.4,2.5 -1,5.7 -1.4,8.4 -0.7,2.4 -1.8,7.5 2.1,7.2 3.8,-0.1 6.5,-3.5 8.5,-6.3 2,-3.2 4.5,-7 3.3,-10.9 -3.7,-3 -3.6,2.6 -3.1,5.1 -0.7,3.8 -2.7,7.9 -6.2,9.8 -3.6,0.6 -1,-4.3 -0.8,-6.1 0.6,-3.2 1.6,-6.3 1.9,-9.5 -0.4,0 -0.8,0 -1.1,0 z m 30.6,0 c -6.3,1.2 -9.5,8.9 -7.8,14.7 1.5,4 7.2,4.2 10.5,2.4 4.6,-2.8 6.6,-9.3 4.8,-14.3 -1.4,-2.8 -4.8,-3 -7.5,-2.8 z m -75.4,1.7 c 2.1,1.5 0.2,4.7 -1.6,5.7 -1.1,0.4 -5.5,3.4 -4.6,0.7 0.8,-2.7 2.2,-6.2 5.3,-6.6 l 0.9,0.1 z m 30.8,0 c 2.6,1.5 1.3,5.2 0.8,7.6 -0.8,2.7 -1.9,5.9 -4.7,7.1 -5.1,0.8 -4,-5.8 -2.8,-8.8 1,-2.8 3,-6.8 6.7,-5.8 z m 47.1,-0.1 c 2.9,0.7 2,4.7 1.5,6.8 -0.7,3 -1.8,6.7 -5,8 -4.7,0.8 -4,-5.1 -3,-7.9 0.9,-3 2.7,-7.3 6.5,-6.8 z m -88.1,5.9 c -0.3,1.3 0.9,-0.6 0,0 z m -1.1,2.4 c -0.2,0.5 0.5,-0.1 0,0 z m -1.3,4.5 c -0.3,1.3 0.8,-0.2 0,0 z" />
                     <text y="41" x="201" fill="#00000" style="font-style:italic;font-weight:normal;font-size:30px;line-height:125%;font-family:Times;text-anchor:middle" xml:space="preserve">engraved with</text>
                  </g>
               </g>
            </g>
         </g>
      </g>
   </svg>
</svg>
