<?xml version="1.0" encoding="UTF-8" standalone="no"?>
<svg width="2100px" height="2970px" version="1.1" xmlns="http://www.w3.org/2000/svg" xmlns:xlink="http://www.w3.org/1999/xlink" xmlns:mei="http://www.music-encoding.org/ns/mei" overflow="visible">
   <desc>Engraved by Verovio 4.4.0-66ab39c</desc>
   <defs>
      <symbol id="E242-qnmmcw" viewBox="0 0 1000 1000" overflow="inherit">
         <path transform="scale(1,-1)" d="M206 -748c32 48 49 100 49 149c0 89 -55 168 -168 203c-18 5 -47 9 -87 16v190v190h22c8 0 33 -61 71 -95c4 -3 -2 3 61 -56c62 -58 122 -137 122 -241c0 -32 -7 -65 -17 -96c11 -29 17 -60 17 -94c0 -71 -32 -148 -67 -190c-6 -5 -10 -7 -13 -7s-5 2 -5 5l4 10 c1 3 6 8 11 16zM248 -463c4 18 7 38 7 57c0 105 -80 173 -168 200c-11 3 -27 6 -47 9c9 -17 23 -61 53 -88c4 -3 -2 3 61 -56c36 -33 71 -74 94 -122z" />
      </symbol>
      <symbol id="E0A9-qnmmcw" viewBox="0 0 1000 1000" overflow="inherit">
         <path transform="scale(1,-1)" d="M0 -110c0 4 1 8 5 11l119 99l-119 100c-3 3 -5 8 -5 12c0 6 5 13 12 13c3 0 6 -1 8 -2l124 -105l126 105c2 1 5 2 7 2c6 0 13 -6 13 -14c0 -4 -2 -9 -5 -11l-119 -100l119 -99c3 -3 5 -7 5 -12c0 -6 -5 -14 -13 -14c-2 0 -5 1 -7 3l-126 105l-124 -105c-2 -2 -4 -3 -7 -3 c-8 0 -13 7 -13 15z" />
      </symbol>
      <symbol id="E069-qnmmcw" viewBox="0 0 1000 1000" overflow="inherit">
         <path transform="scale(1,-1)" d="M200 250h125v-500h-125v500zM0 250h125v-500h-125v500z" />
      </symbol>
      <symbol id="E4E3-qnmmcw" viewBox="0 0 1000 1000" overflow="inherit">
         <path transform="scale(1,-1)" d="M0 -115v105c0 9 1 10 10 10h280c9 0 10 -1 10 -10v-105c0 -9 -1 -10 -10 -10h-280c-9 0 -10 1 -10 10z" />
      </symbol>
      <symbol id="E084-qnmmcw" viewBox="0 0 1000 1000" overflow="inherit">
         <path transform="scale(1,-1)" d="M20 -78c84 97 114 180 134 329h170c-13 -32 -82 -132 -99 -151l-84 -97c-33 -36 -59 -63 -80 -81h162v102l127 123v-225h57v-39h-57v-34c0 -43 19 -65 57 -65v-34h-244v36c48 0 60 26 60 70v27h-203v39z" />
      </symbol>
      <symbol id="E0A2-qnmmcw" viewBox="0 0 1000 1000" overflow="inherit">
         <path transform="scale(1,-1)" d="M198 133c102 0 207 -45 207 -133c0 -92 -118 -133 -227 -133c-101 0 -178 46 -178 133c0 88 93 133 198 133zM293 -21c0 14 -3 29 -8 44c-7 20 -18 38 -33 54c-20 21 -43 31 -68 31l-20 -2c-15 -5 -27 -14 -36 -28c-4 -9 -6 -17 -8 -24s-3 -16 -3 -27c0 -15 3 -34 9 -57 s18 -41 34 -55c15 -15 36 -23 62 -23c4 0 10 1 18 2c19 5 32 15 40 30s13 34 13 55z" />
      </symbol>
      <symbol id="E0A4-qnmmcw" viewBox="0 0 1000 1000" overflow="inherit">
         <path transform="scale(1,-1)" d="M0 -39c0 68 73 172 200 172c66 0 114 -37 114 -95c0 -84 -106 -171 -218 -171c-64 0 -96 30 -96 94z" />
      </symbol>
      <symbol id="E240-qnmmcw" viewBox="0 0 1000 1000" overflow="inherit">
         <path transform="scale(1,-1)" d="M179 -646c15 29 29 55 46 102c18 49 30 108 30 138c0 105 -80 173 -168 200c-18 5 -47 9 -87 16v190h22c8 0 33 -61 71 -95c4 -3 -2 3 61 -56c62 -58 122 -137 122 -241c0 -38 -13 -106 -35 -163c-20 -51 -43 -99 -66 -132c-6 -5 -10 -7 -13 -7s-5 2 -5 5l4 10 c1 3 14 25 18 33z" />
      </symbol>
      <symbol id="E4E6-qnmmcw" viewBox="0 0 1000 1000" overflow="inherit">
         <path transform="scale(1,-1)" d="M0 123c7 34 33 56 69 60c29 -3 43 -9 53 -29c4 -8 7 -15 10 -22c0 -21 -1 -25 -11 -35c-5 -8 -18 -14 -40 -20l12 -3l15 -1c44 0 97 26 122 56c10 11 18 26 24 42c7 1 15 2 22 3l-140 -424h-36l111 330c-10 -6 -27 -12 -53 -16l-52 -8h-10l-20 1c-1 0 -8 3 -21 6 c-37 9 -55 28 -55 60z" />
      </symbol>
      <symbol id="E4E7-qnmmcw" viewBox="0 0 1000 1000" overflow="inherit">
         <path transform="scale(1,-1)" d="M133 -111c0 -33 -21 -50 -52 -55c10 -3 18 -4 25 -4c40 0 69 24 90 47l66 197c-36 -18 -64 -25 -112 -25c-23 0 -38 3 -45 8c-37 7 -55 27 -55 59c8 35 30 54 68 58c45 -6 49 -13 64 -48c0 -3 1 -5 1 -7c0 -27 -25 -46 -52 -49c6 -4 15 -6 26 -6c32 2 62 14 88 29 c32 19 44 36 59 71l7 1l10 2h4c-72 -220 -143 -439 -215 -659h-37l108 324c-20 -13 -51 -20 -82 -20c-21 0 -35 4 -43 10c-37 6 -55 26 -55 58c8 35 31 56 68 60c43 -8 48 -13 64 -51z" />
      </symbol>
      <symbol id="E4E8-qnmmcw" viewBox="0 0 1000 1000" overflow="inherit">
         <path transform="scale(1,-1)" d="M69 -54c44 -9 49 -10 63 -50c0 -14 -1 -24 -4 -29c-7 -11 -23 -20 -47 -26c6 -3 15 -4 25 -4c18 0 39 7 61 22c18 12 30 26 30 26l61 187c-22 -12 -48 -21 -81 -21c-18 0 -34 3 -46 9c-36 9 -54 29 -54 61c8 34 31 58 68 58c34 0 63 -24 63 -57c0 -11 -4 -21 -10 -30 c-4 -5 -16 -12 -39 -18c8 -3 16 -5 24 -5c35 0 71 25 88 45l66 198c-12 -11 -33 -12 -55 -17c-18 -4 -29 -8 -35 -8h-15l-28 2c-10 1 -17 3 -23 6c-37 7 -56 26 -56 59c9 33 33 59 72 59c33 0 53 -21 61 -49c0 -37 -17 -47 -51 -55c5 -4 13 -6 24 -6c14 0 29 3 45 8 c47 15 89 43 101 92l18 2l4 -1l-288 -889h-37l106 318c-17 -10 -43 -15 -72 -15c-22 0 -40 3 -52 9c-35 8 -55 23 -55 61c8 35 31 54 68 58z" />
      </symbol>
   </defs>
   <style type="text/css">g.page-margin{font-family:Times,serif;} g.ending, g.fing, g.reh, g.tempo{font-weight:bold;} g.dir, g.dynam, g.mNum{font-style:italic;} g.label{font-weight:normal;}</style>
   <svg class="definition-scale" color="black" viewBox="0 0 21000 29700">
      <g class="page-margin" transform="translate(500, 500)">
         <g id="m-11dda1ec-0e46-42ce-a405-de400d5801c0" class="mdiv pageMilestone" />
         <g id="m-7a38d1a4-4564-45be-be00-65ef85d5bbe9" class="score pageMilestone" />
         <g id="skrx9bh" class="system">
            <g id="m-cf76e757-5c5f-457f-a37a-cfe58092c6f4" class="section systemMilestone" />
            <g id="m-ce2b05b3-9ce8-4e07-93e0-3f46c337679c" class="measure">
               <g id="m-e6ca9136-24b8-4505-a10e-798b42dd1c2c" class="staff">
                  <path d="M0 2138 L6826 2138" stroke="currentColor" stroke-width="13" />
                  <path d="M0 2318 L6826 2318" stroke="currentColor" stroke-width="13" />
                  <path d="M0 2498 L6826 2498" stroke="currentColor" stroke-width="13" />
                  <path d="M0 2678 L6826 2678" stroke="currentColor" stroke-width="13" />
                  <path d="M0 2858 L6826 2858" stroke="currentColor" stroke-width="13" />
                  <g id="cd0knsi" class="clef">
                     <use xlink:href="#E069-qnmmcw" x="90" y="2498" height="720px" width="720px" />
                  </g>
                  <g id="khzk6ib" class="keySig" />
                  <g id="mtq0qyy" class="meterSig">
                     <use xlink:href="#E084-qnmmcw" x="490" y="2318" height="720px" width="720px" />
                     <use xlink:href="#E084-qnmmcw" x="490" y="2678" height="720px" width="720px" />
                  </g>
                  <g class="ledgerLines above">
                     <path d="M1638 1958 L1906 1958" stroke="currentColor" stroke-width="22" />
                     <path d="M1938 1958 L2206 1958" stroke="currentColor" stroke-width="22" />
                     <path d="M2841 1958 L3145 1958" stroke="currentColor" stroke-width="22" />
                     <path d="M4094 1958 L4398 1958" stroke="currentColor" stroke-width="22" />
                     <path d="M5334 1958 L5638 1958" stroke="currentColor" stroke-width="22" />
                  </g>
                  <g class="ledgerLines below">
                     <path d="M1004 3038 L1308 3038" stroke="currentColor" stroke-width="22" />
                     <path d="M1920 3038 L2224 3038" stroke="currentColor" stroke-width="22" />
                  </g>
                  <g id="m-b56631aa-c715-44a2-aeb2-ea4119b8920f" class="layer">
                     <g id="m-23e250b1-da3c-44ce-8f84-237fcadfbddd" class="rest">
                        <use xlink:href="#E4E6-qnmmcw" x="1052" y="1778" height="720px" width="720px" />
                     </g>
                     <g id="m-48c188ae-58f4-4852-8eee-ac18fe1a9e85" class="beam">
                        <polygon points="1858,1283 2176,1283 2176,1373 1858,1373" />
                        <polygon points="1858,1418 2176,1418 2176,1508 1858,1508" />
                        <g id="m-f2b81fef-7280-4c4f-ac21-4789c52af338" class="note">
                           <g class="notehead">
                              <use xlink:href="#E0A9-qnmmcw" x="1668" y="1868" height="720px" width="720px" />
                           </g>
                           <g id="s1ac1mp5" class="stem">
                              <path d="M1867 1789 L1867 1301" stroke="currentColor" stroke-width="18" />
                           </g>
                           <g id="a160y6p3" class="accid" />
                        </g>
                        <g id="m-fcf1d4c7-a526-4b22-9f15-819a04de27fb" class="note">
                           <g class="notehead">
                              <use xlink:href="#E0A9-qnmmcw" x="1968" y="1868" height="720px" width="720px" />
                           </g>
                           <g id="s12dvauq" class="stem">
                              <path d="M2167 1789 L2167 1301" stroke="currentColor" stroke-width="18" />
                           </g>
                           <g id="a1othyyt" class="accid" />
                        </g>
                     </g>
                     <g id="m-4fddf8ec-134b-4a7f-b599-979bee607391" class="rest">
                        <use xlink:href="#E4E7-qnmmcw" x="2268" y="1778" height="720px" width="720px" />
                     </g>
                     <g id="m-b0a6ad9e-0a2a-4e17-9d41-0010f04a78e0" class="beam">
                        <polygon points="2781,1238 3097,1058 3097,1148 2781,1328" />
                        <polygon points="2781,1373 3097,1193 3097,1283 2781,1463" />
                        <polygon points="2781,1508 3097,1328 3097,1418 2781,1598" />
                        <g id="m-dcaed0a5-6607-4d26-a56c-ed759e974ea7" class="note">
                           <g class="notehead">
                              <use xlink:href="#E0A9-qnmmcw" x="2591" y="2048" height="720px" width="720px" />
                           </g>
                           <g id="s1s3fmcs" class="stem">
                              <path d="M2790 1969 L2790 1256" stroke="currentColor" stroke-width="18" />
                           </g>
                        </g>
                        <g id="m-2d62ea07-0c71-4e0a-98f0-7e81dbe9b6e8" class="note">
                           <g class="notehead">
                              <use xlink:href="#E0A9-qnmmcw" x="2889" y="1868" height="720px" width="720px" />
                           </g>
                           <g id="sp1t75y" class="stem">
                              <path d="M3088 1789 L3088 1076" stroke="currentColor" stroke-width="18" />
                           </g>
                           <g id="a1voilda" class="accid" />
                        </g>
                     </g>
                     <g id="m-b1bf4e86-6d21-4ca8-9d90-b40e1f62a97b" class="rest">
                        <use xlink:href="#E4E6-qnmmcw" x="3187" y="1778" height="720px" width="720px" />
                     </g>
                     <g id="m-4885be39-de94-478e-9b4a-ca902828873c" class="rest">
                        <use xlink:href="#E4E7-qnmmcw" x="3819" y="1778" height="720px" width="720px" />
                     </g>
                     <g id="m-53e34c4f-fb46-4df4-86ee-a6388d681658" class="note">
                        <g class="notehead">
                           <use xlink:href="#E0A9-qnmmcw" x="4142" y="1868" height="720px" width="720px" />
                        </g>
                        <g id="d1vx93uq" class="dots">
                           <ellipse cx="4598" cy="1868" rx="36" ry="36" />
                        </g>
                        <g id="s17i5wka" class="stem">
                           <path d="M4341 1789 L4341 1358" stroke="currentColor" stroke-width="18" />
                           <g id="f1gniaa3" class="flag">
                              <use xlink:href="#E240-qnmmcw" x="4332" y="1358" height="720px" width="720px" />
                           </g>
                        </g>
                        <g id="aiy9isc" class="accid" />
                     </g>
                     <g id="m-4a4481a0-eba0-4960-8030-c2a348479e2f" class="beam">
                        <polygon points="5274,1418 5590,1238 5590,1328 5274,1508" />
                        <polygon points="5274,1553 5500,1417 5500,1507 5274,1643" />
                        <polygon points="5274,1688 5500,1552 5500,1642 5274,1778" />
                        <g id="m-83a0c103-d19c-43b2-aac6-8d8f4827f28d" class="note">
                           <g class="notehead">
                              <use xlink:href="#E0A9-qnmmcw" x="5084" y="2048" height="720px" width="720px" />
                           </g>
                           <g id="safurph" class="stem">
                              <path d="M5283 1969 L5283 1436" stroke="currentColor" stroke-width="18" />
                           </g>
                        </g>
                        <g id="m-d86ca6b0-080d-4cc9-af1f-b168480de076" class="note">
                           <g class="notehead">
                              <use xlink:href="#E0A9-qnmmcw" x="5382" y="1868" height="720px" width="720px" />
                           </g>
                           <g id="d1xdpj87" class="dots">
                              <ellipse cx="5680" cy="1868" rx="36" ry="36" />
                              <ellipse cx="5815" cy="1868" rx="36" ry="36" />
                           </g>
                           <g id="s1fy2d0a" class="stem">
                              <path d="M5581 1789 L5581 1256" stroke="currentColor" stroke-width="18" />
                           </g>
                           <g id="apk271g" class="accid" />
                        </g>
                     </g>
                  </g>
                  <g id="m-54fd47d2-ff7c-4af1-a104-28c345a6db0f" class="layer">
                     <g id="m-a581233d-aef1-4f75-9cb4-26bdbb9ecd86" class="beam">
                        <polygon points="1052,3713 1986,3713 1986,3623 1052,3623" />
                        <polygon points="1052,3578 1278,3578 1278,3488 1052,3488" />
                        <polygon points="1760,3578 1986,3578 1986,3488 1760,3488" />
                        <g id="m-42189aef-3e28-4118-83fd-4deb579a41f7" class="note">
                           <g class="notehead">
                              <use xlink:href="#E0A9-qnmmcw" x="1052" y="3128" height="720px" width="720px" />
                           </g>
                           <g id="s1fqkvwr" class="stem">
                              <path d="M1061 3207 L1061 3695" stroke="currentColor" stroke-width="18" />
                           </g>
                           <g id="a3d3mh5" class="accid" />
                        </g>
                        <g id="m-b1169fc7-1013-4d72-a0ba-efde1d250ca5" class="note">
                           <g class="notehead">
                              <use xlink:href="#E0A4-qnmmcw" x="1352" y="2498" height="720px" width="720px" />
                           </g>
                           <g id="sk1o9ek" class="stem">
                              <path d="M1361 2526 L1361 3695" stroke="currentColor" stroke-width="18" />
                           </g>
                           <g id="a18vo56g" class="accid" />
                        </g>
                        <g id="m-1a2b71f4-c6bb-498e-8c98-df6a7b8db120" class="note">
                           <g class="notehead">
                              <use xlink:href="#E0A9-qnmmcw" x="1968" y="3128" height="720px" width="720px" />
                           </g>
                           <g id="s1r71o5q" class="stem">
                              <path d="M1977 3207 L1977 3695" stroke="currentColor" stroke-width="18" />
                           </g>
                           <g id="a1ap31a5" class="accid" />
                        </g>
                     </g>
                     <g id="m-6b879640-beaa-4e1c-9ff6-442d1c5bb883" class="beam">
                        <polygon points="2268,3218 3521,3578 3521,3488 2268,3128" />
                        <polygon points="3196,3351 3521,3443 3521,3353 3196,3261" />
                        <g id="m-4894eafa-e465-4e5b-9463-d8cc35c872f4" class="note">
                           <g class="notehead">
                              <use xlink:href="#E0A4-qnmmcw" x="2268" y="2498" height="720px" width="720px" />
                           </g>
                           <g id="s6pnp85" class="stem">
                              <path d="M2277 2526 L2277 3200" stroke="currentColor" stroke-width="18" />
                           </g>
                           <g id="aathg66" class="accid" />
                        </g>
                        <g id="m-ccf764c4-9d33-4d45-aeb1-30d689201219" class="note">
                           <g class="notehead">
                              <use xlink:href="#E0A4-qnmmcw" x="3187" y="2498" height="720px" width="720px" />
                           </g>
                           <g id="s21vel2" class="stem">
                              <path d="M3196 2526 L3196 3468" stroke="currentColor" stroke-width="18" />
                           </g>
                           <g id="a1pmv8k3" class="accid" />
                        </g>
                        <g id="m-621886b6-fd92-4e65-88aa-a5f7e1965c78" class="note">
                           <g class="notehead">
                              <use xlink:href="#E0A4-qnmmcw" x="3503" y="2948" height="720px" width="720px" />
                           </g>
                           <g id="s1hoc4ul" class="stem">
                              <path d="M3512 2976 L3512 3560" stroke="currentColor" stroke-width="18" />
                           </g>
                        </g>
                     </g>
                     <g id="m-71a9f99d-4c21-460a-a619-931f7e3b07dc" class="beam">
                        <polygon points="3819,3218 4652,3398 4652,3308 3819,3128" />
                        <g id="m-dfb8920a-6dc5-4fd1-a28e-0bcc0e3e0f65" class="note">
                           <g class="notehead">
                              <use xlink:href="#E0A4-qnmmcw" x="3819" y="2498" height="720px" width="720px" />
                           </g>
                           <g id="s60maz" class="stem">
                              <path d="M3828 2526 L3828 3200" stroke="currentColor" stroke-width="18" />
                           </g>
                           <g id="a5lbdkb" class="accid" />
                        </g>
                        <g id="m-17c843f0-3633-48c9-b5a0-05cdd208e6fb" class="chord">
                           <g id="s159zi6r" class="stem">
                              <path d="M4643 2526 L4643 3380" stroke="currentColor" stroke-width="18" />
                           </g>
                           <g id="m-87e00558-9a1a-4625-bcc5-f0baddfc1446" class="note">
                              <g class="notehead">
                                 <use xlink:href="#E0A4-qnmmcw" x="4634" y="2948" height="720px" width="720px" />
                              </g>
                           </g>
                           <g id="m-316c67ea-771e-4107-a8a4-77c963857aed" class="note">
                              <g class="notehead">
                                 <use xlink:href="#E0A4-qnmmcw" x="4634" y="2498" height="720px" width="720px" />
                              </g>
                              <g id="a1kyvz7d" class="accid" />
                           </g>
                        </g>
                     </g>
                     <g id="m-69bf41a6-b3fd-4c8d-ba63-55c07c5808bc" class="rest">
                        <use xlink:href="#E4E7-qnmmcw" x="5084" y="2678" height="720px" width="720px" />
                     </g>
                     <g id="m-9cbb3e24-2fcd-4cfe-b3b0-8831dfba99cd" class="beam">
                        <polygon points="5851,3533 6501,3533 6501,3443 5851,3443" />
                        <polygon points="5851,3398 6176,3398 6176,3308 5851,3308" />
                        <polygon points="6176,3398 6501,3398 6501,3308 6176,3308" />
                        <g id="m-a39b3481-c99a-49cc-96be-b79027059f0e" class="note">
                           <g class="notehead">
                              <use xlink:href="#E0A4-qnmmcw" x="5851" y="2498" height="720px" width="720px" />
                           </g>
                           <g id="s1mtzune" class="stem">
                              <path d="M5860 2526 L5860 3515" stroke="currentColor" stroke-width="18" />
                           </g>
                           <g id="amdkvcd" class="accid" />
                        </g>
                        <g id="m-12d6f403-f0e1-4117-8380-d2d2231c68ff" class="note">
                           <g class="notehead">
                              <use xlink:href="#E0A4-qnmmcw" x="6167" y="2948" height="720px" width="720px" />
                           </g>
                           <g id="s1w4pt08" class="stem">
                              <path d="M6176 2976 L6176 3515" stroke="currentColor" stroke-width="18" />
                           </g>
                        </g>
                        <g id="m-3d5c5355-0c36-4ef0-a0fc-5b94e874fcb8" class="note">
                           <g class="notehead">
                              <use xlink:href="#E0A4-qnmmcw" x="6483" y="2498" height="720px" width="720px" />
                           </g>
                           <g id="sm5jf63" class="stem">
                              <path d="M6492 2526 L6492 3515" stroke="currentColor" stroke-width="18" />
                           </g>
                           <g id="ac7hafe" class="accid" />
                        </g>
                     </g>
                  </g>
               </g>
               <g id="bab7al1" class="barLine">
                  <path d="M6813 2138 L6813 2858" stroke="currentColor" stroke-width="27" />
               </g>
            </g>
            <g id="m-fca3b40a-e973-4a12-8621-d78a1ba708db" class="measure">
               <g id="m-c46ae219-68b1-4076-8903-50950da21117" class="staff">
                  <path d="M6826 2138 L13440 2138" stroke="currentColor" stroke-width="13" />
                  <path d="M6826 2318 L13440 2318" stroke="currentColor" stroke-width="13" />
                  <path d="M6826 2498 L13440 2498" stroke="currentColor" stroke-width="13" />
                  <path d="M6826 2678 L13440 2678" stroke="currentColor" stroke-width="13" />
                  <path d="M6826 2858 L13440 2858" stroke="currentColor" stroke-width="13" />
                  <g class="ledgerLines above">
                     <path d="M6958 1958 L7262 1958" stroke="currentColor" stroke-width="22" />
                     <path d="M7597 1958 L7901 1958" stroke="currentColor" stroke-width="22" />
                     <path d="M8569 1958 L8873 1958" stroke="currentColor" stroke-width="22" />
                     <path d="M10193 1958 L10497 1958" stroke="currentColor" stroke-width="22" />
                     <path d="M11639 1958 L11943 1958" stroke="currentColor" stroke-width="22" />
                     <path d="M12887 1958 L13191 1958" stroke="currentColor" stroke-width="22" />
                  </g>
                  <g id="m-a26db4cf-2072-4993-a0cf-f45acb0466b0" class="layer">
                     <g id="m-54710cf6-b79d-48f4-9c9d-cc7478374ab3" class="beam">
                        <polygon points="7196,1148 7853,1148 7853,1238 7196,1238" />
                        <polygon points="7196,1283 7853,1283 7853,1373 7196,1373" />
                        <polygon points="7627,1418 7853,1418 7853,1508 7627,1508" />
                        <g id="m-0a6ff991-eabd-4785-a8ed-beb1a96d6d1d" class="note">
                           <g class="notehead">
                              <use xlink:href="#E0A9-qnmmcw" x="7006" y="1868" height="720px" width="720px" />
                           </g>
                           <g id="da79n3m" class="dots">
                              <ellipse cx="7304" cy="1868" rx="36" ry="36" />
                           </g>
                           <g id="s1630u9p" class="stem">
                              <path d="M7205 1789 L7205 1166" stroke="currentColor" stroke-width="18" />
                           </g>
                           <g id="a1mjkbvg" class="accid" />
                        </g>
                        <g id="m-e363d674-f153-4170-b3db-16af06f2c963" class="note">
                           <g class="notehead">
                              <use xlink:href="#E0A9-qnmmcw" x="7645" y="1868" height="720px" width="720px" />
                           </g>
                           <g id="srgivcl" class="stem">
                              <path d="M7844 1789 L7844 1166" stroke="currentColor" stroke-width="18" />
                           </g>
                           <g id="a1fq2m3l" class="accid" />
                        </g>
                     </g>
                     <g id="m-57e6b7ec-4694-4c59-8b6a-355598b4734c" class="rest">
                        <use xlink:href="#E4E8-qnmmcw" x="7943" y="1778" height="720px" width="720px" />
                     </g>
                     <g id="m-d007284b-93f8-4cb6-bc1c-45d1a0d74a06" class="beam">
                        <polygon points="8509,1418 8825,1238 8825,1328 8509,1508" />
                        <polygon points="8509,1553 8825,1373 8825,1463 8509,1643" />
                        <polygon points="8509,1688 8735,1552 8735,1642 8509,1778" />
                        <g id="m-ac33e25c-829a-4128-bcda-73b69819a5c0" class="note">
                           <g class="notehead">
                              <use xlink:href="#E0A9-qnmmcw" x="8319" y="2048" height="720px" width="720px" />
                           </g>
                           <g id="s1xwtzo3" class="stem">
                              <path d="M8518 1969 L8518 1436" stroke="currentColor" stroke-width="18" />
                           </g>
                        </g>
                        <g id="m-1392b3fd-27a5-417b-b115-e21c181d8129" class="note">
                           <g class="notehead">
                              <use xlink:href="#E0A9-qnmmcw" x="8617" y="1868" height="720px" width="720px" />
                           </g>
                           <g id="s1n0r4bf" class="stem">
                              <path d="M8816 1789 L8816 1256" stroke="currentColor" stroke-width="18" />
                           </g>
                           <g id="a1n2xsif" class="accid" />
                        </g>
                     </g>
                     <g id="m-550019ad-93a1-4783-9648-4a03c66a1ac5" class="rest">
                        <use xlink:href="#E4E6-qnmmcw" x="8917" y="1778" height="720px" width="720px" />
                        <g id="d1ooed70" class="dots">
                           <ellipse cx="9205" cy="1688" rx="36" ry="36" />
                        </g>
                     </g>
                     <g id="m-320b6ff4-0906-4cff-8041-cf96a2d820cf" class="note">
                        <g class="notehead">
                           <use xlink:href="#E0A9-qnmmcw" x="10241" y="1868" height="720px" width="720px" />
                        </g>
                        <g id="s1l0bopu" class="stem">
                           <path d="M10440 1789 L10440 1358" stroke="currentColor" stroke-width="18" />
                           <g id="f16zyl4m" class="flag">
                              <use xlink:href="#E242-qnmmcw" x="10431" y="1358" height="720px" width="720px" />
                           </g>
                        </g>
                        <g id="a1pgmfn7" class="accid" />
                     </g>
                     <g id="m-07d55e2f-b0b6-42b3-91d1-c05ce91da6fc" class="rest">
                        <use xlink:href="#E4E6-qnmmcw" x="10719" y="1778" height="720px" width="720px" />
                     </g>
                     <g id="m-d8456b20-4de3-473b-a43f-226ce8ce0060" class="beam">
                        <polygon points="11577,1238 11895,1193 11895,1283 11577,1328" />
                        <polygon points="11577,1373 11895,1328 11895,1418 11577,1463" />
                        <g id="m-3546a5e8-131e-494e-bb2d-f929760522e6" class="note">
                           <g class="notehead">
                              <use xlink:href="#E0A9-qnmmcw" x="11387" y="2048" height="720px" width="720px" />
                           </g>
                           <g id="sv6b331" class="stem">
                              <path d="M11586 1969 L11586 1256" stroke="currentColor" stroke-width="18" />
                           </g>
                        </g>
                        <g id="m-13c9e93f-98ff-4404-86e4-d4d4537632d7" class="note">
                           <g class="notehead">
                              <use xlink:href="#E0A9-qnmmcw" x="11687" y="1868" height="720px" width="720px" />
                           </g>
                           <g id="s11021mi" class="stem">
                              <path d="M11886 1789 L11886 1211" stroke="currentColor" stroke-width="18" />
                           </g>
                           <g id="akmoktp" class="accid" />
                        </g>
                     </g>
                     <g id="m-2eec168c-5a6b-4d24-8a0d-76ed892c78d9" class="rest">
                        <use xlink:href="#E4E6-qnmmcw" x="11987" y="1778" height="720px" width="720px" />
                     </g>
                     <g id="m-c9ad5185-57d9-44e7-94b9-ac3248d8afb7" class="note">
                        <g class="notehead">
                           <use xlink:href="#E0A9-qnmmcw" x="12935" y="1868" height="720px" width="720px" />
                        </g>
                        <g id="sou96hm" class="stem">
                           <path d="M13134 1789 L13134 1358" stroke="currentColor" stroke-width="18" />
                           <g id="fdpxewx" class="flag">
                              <use xlink:href="#E240-qnmmcw" x="13125" y="1358" height="720px" width="720px" />
                           </g>
                        </g>
                        <g id="abc5ck5" class="accid" />
                     </g>
                  </g>
                  <g id="m-448b2440-357f-41dd-a87c-ed6c99b6cb07" class="layer">
                     <g id="m-3c46708b-6ebe-4fdf-a2ad-b0cc39dce398" class="rest">
                        <use xlink:href="#E4E7-qnmmcw" x="7006" y="2858" height="720px" width="720px" />
                     </g>
                     <g id="m-3d71f15e-7e0a-481f-9cbb-bfd5b7d63500" class="beam">
                        <polygon points="7329,3758 7663,3578 7663,3488 7329,3668" />
                        <polygon points="7329,3623 7663,3443 7663,3353 7329,3533" />
                        <polygon points="7329,3488 7663,3308 7663,3218 7329,3398" />
                        <g id="m-f1c93b4a-4cc7-42ce-aaed-1f663dbf0fe0" class="note">
                           <g class="notehead">
                              <use xlink:href="#E0A4-qnmmcw" x="7329" y="2948" height="720px" width="720px" />
                           </g>
                           <g id="s138eqbr" class="stem">
                              <path d="M7338 2976 L7338 3740" stroke="currentColor" stroke-width="18" />
                           </g>
                        </g>
                        <g id="m-5121b305-b75c-499f-8f9d-401e01bbd664" class="note">
                           <g class="notehead">
                              <use xlink:href="#E0A4-qnmmcw" x="7645" y="2498" height="720px" width="720px" />
                           </g>
                           <g id="s9s4ukm" class="stem">
                              <path d="M7654 2526 L7654 3560" stroke="currentColor" stroke-width="18" />
                           </g>
                           <g id="a1prz4oj" class="accid" />
                        </g>
                     </g>
                     <g id="m-b0c715ca-fe2a-4ea3-8d82-51eec6c58e56" class="rest">
                        <use xlink:href="#E4E6-qnmmcw" x="7943" y="2678" height="720px" width="720px" />
                     </g>
                     <g id="m-38f94c9e-f431-48e0-b6f8-209dfbb5fd3b" class="rest">
                        <use xlink:href="#E4E8-qnmmcw" x="8917" y="2858" height="720px" width="720px" />
                     </g>
                     <g id="m-1d051486-9930-43c3-be40-f6022a2d5a90" class="beam">
                        <polygon points="9293,3533 9943,3533 9943,3443 9293,3443" />
                        <polygon points="9293,3398 9618,3398 9618,3308 9293,3308" />
                        <polygon points="9293,3263 9519,3263 9519,3173 9293,3173" />
                        <g id="m-7ad9ecc1-de99-4645-9271-426df20ad2ac" class="note">
                           <g class="notehead">
                              <use xlink:href="#E0A4-qnmmcw" x="9293" y="2498" height="720px" width="720px" />
                           </g>
                           <g id="shsaxvr" class="stem">
                              <path d="M9302 2526 L9302 3515" stroke="currentColor" stroke-width="18" />
                           </g>
                           <g id="a10nx4m4" class="accid" />
                        </g>
                        <g id="m-5ec4dcd6-cb7f-4629-8abb-8252af8eb0ef" class="note">
                           <g class="notehead">
                              <use xlink:href="#E0A4-qnmmcw" x="9609" y="2948" height="720px" width="720px" />
                           </g>
                           <g id="s1y4ozo4" class="stem">
                              <path d="M9618 2976 L9618 3515" stroke="currentColor" stroke-width="18" />
                           </g>
                        </g>
                        <g id="m-a3d43e55-6cc6-4ed8-a315-ede9494ec973" class="note">
                           <g class="notehead">
                              <use xlink:href="#E0A4-qnmmcw" x="9925" y="2498" height="720px" width="720px" />
                           </g>
                           <g id="s3q0k21" class="stem">
                              <path d="M9934 2526 L9934 3515" stroke="currentColor" stroke-width="18" />
                           </g>
                           <g id="a1du7qep" class="accid" />
                        </g>
                     </g>
                     <g id="m-d81159be-b642-41db-b563-d393c0065c08" class="beam">
                        <polygon points="10719,3623 11053,3578 11053,3488 10719,3533" />
                        <polygon points="10719,3488 10945,3456 10945,3366 10719,3398" />
                        <g id="m-8902eb59-be8d-471b-bc72-a7b7f8274a11" class="note">
                           <g class="notehead">
                              <use xlink:href="#E0A4-qnmmcw" x="10719" y="2948" height="720px" width="720px" />
                           </g>
                           <g id="s10cj0z8" class="stem">
                              <path d="M10728 2976 L10728 3605" stroke="currentColor" stroke-width="18" />
                           </g>
                        </g>
                        <g id="m-c85df36c-eb36-4ae5-9822-569e2017c7b3" class="note">
                           <g class="notehead">
                              <use xlink:href="#E0A4-qnmmcw" x="11035" y="2498" height="720px" width="720px" />
                           </g>
                           <g id="dw3cf3o" class="dots">
                              <ellipse cx="11351" cy="2588" rx="36" ry="36" />
                           </g>
                           <g id="s4ci5xm" class="stem">
                              <path d="M11044 2526 L11044 3560" stroke="currentColor" stroke-width="18" />
                           </g>
                           <g id="a1fkjsvx" class="accid" />
                        </g>
                     </g>
                     <g id="m-9567884a-636b-4533-b228-0a188462cc45" class="beam">
                        <polygon points="11987,3668 12637,3668 12637,3578 11987,3578" />
                        <polygon points="11987,3533 12312,3533 12312,3443 11987,3443" />
                        <polygon points="12312,3533 12637,3533 12637,3443 12312,3443" />
                        <polygon points="12312,3398 12637,3398 12637,3308 12312,3308" />
                        <g id="m-b75ccc89-8cb3-44a3-a523-999c39afb438" class="note">
                           <g class="notehead">
                              <use xlink:href="#E0A4-qnmmcw" x="11987" y="2498" height="720px" width="720px" />
                           </g>
                           <g id="s1q02bsj" class="stem">
                              <path d="M11996 2526 L11996 3650" stroke="currentColor" stroke-width="18" />
                           </g>
                           <g id="a1u40gj5" class="accid" />
                        </g>
                        <g id="m-3e47aeaa-c2f1-4a1f-8180-cd0366139104" class="note">
                           <g class="notehead">
                              <use xlink:href="#E0A4-qnmmcw" x="12303" y="2948" height="720px" width="720px" />
                           </g>
                           <g id="s1wex7rn" class="stem">
                              <path d="M12312 2976 L12312 3650" stroke="currentColor" stroke-width="18" />
                           </g>
                        </g>
                        <g id="m-38dde7ee-4f87-4e8f-b70b-931fcadccd6e" class="note">
                           <g class="notehead">
                              <use xlink:href="#E0A4-qnmmcw" x="12619" y="2498" height="720px" width="720px" />
                           </g>
                           <g id="sbvqik0" class="stem">
                              <path d="M12628 2526 L12628 3650" stroke="currentColor" stroke-width="18" />
                           </g>
                           <g id="a1sk01jh" class="accid" />
                        </g>
                     </g>
                     <g id="m-68ab8629-9fd8-4887-b8ea-0abce6a55bfd" class="rest">
                        <use xlink:href="#E4E6-qnmmcw" x="12935" y="2678" height="720px" width="720px" />
                     </g>
                  </g>
               </g>
               <g id="b1j9w2d7" class="barLine">
                  <path d="M13427 2138 L13427 2858" stroke="currentColor" stroke-width="27" />
               </g>
            </g>
            <g id="m-57c7a86c-1041-4771-8c4a-eff495b2e162" class="measure">
               <g id="m-3d48717f-3e71-490e-aa6b-564a9ca466d9" class="staff">
                  <path d="M13440 2138 L15223 2138" stroke="currentColor" stroke-width="13" />
                  <path d="M13440 2318 L15223 2318" stroke="currentColor" stroke-width="13" />
                  <path d="M13440 2498 L15223 2498" stroke="currentColor" stroke-width="13" />
                  <path d="M13440 2678 L15223 2678" stroke="currentColor" stroke-width="13" />
                  <path d="M13440 2858 L15223 2858" stroke="currentColor" stroke-width="13" />
                  <g id="m-720c5bcb-9662-45a4-bc8b-51266cfceb63" class="layer">
                     <g id="m-5d480f60-ffe5-4736-a476-20991ddb4c4d" class="rest">
                        <use xlink:href="#E4E3-qnmmcw" x="13620" y="1958" height="720px" width="720px" />
                        <g class="ledgerLines">
                           <path d="M13572 1958 L13884 1958" stroke="currentColor" stroke-width="22" />
                        </g>
                     </g>
                  </g>
                  <g id="m-634b5cd1-2c2f-47be-b916-ccc7454a9c23" class="layer">
                     <g id="m-13bd8805-a9d5-4ba4-a521-8ecc7054a97c" class="note">
                        <g class="notehead">
                           <use xlink:href="#E0A2-qnmmcw" x="13620" y="2498" height="720px" width="720px" />
                        </g>
                        <g id="ap3ttvp" class="accid" />
                     </g>
                  </g>
               </g>
               <g id="b17rm9sf" class="barLine">
                  <path d="M15210 2138 L15210 2858" stroke="currentColor" stroke-width="27" />
               </g>
            </g>
            <g id="se02ej7" class="systemMilestoneEnd m-cf76e757-5c5f-457f-a37a-cfe58092c6f4" />
         </g>
         <g id="pg5acf0" class="pageMilestoneEnd m-7a38d1a4-4564-45be-be00-65ef85d5bbe9" />
         <g id="p15nea2o" class="pageMilestoneEnd m-11dda1ec-0e46-42ce-a405-de400d5801c0" />
         <g id="p1czde7" class="pgHead autogenerated">
            <text font-size="0px">
               <tspan id="r1i3est2" class="rend" x="10000" y="418" text-anchor="middle">
                  <title class="labelAttr">title</title>
                  <tspan id="r1e474ag" class="rend">
                     <tspan id="tt259nd" class="text">
                        <tspan font-size="607px">15_rock_130_beat_4-4</tspan>
                     </tspan>
                  </tspan>
                  <tspan id="l189c08o" class="lb" />
                  <tspan id="ri9xed4" class="rend">
                     <tspan id="t1wltcv1" class="text" x="10000" y="808">
                        <tspan font-size="324px">15_rock_130_beat_4-4</tspan>
                     </tspan>
                  </tspan>
               </tspan>
            </text>
         </g>
         <g id="ppl1fq1" class="pgFoot autogenerated">
            <g id="f1vjhbid" class="fig">
               <g class="svg" transform="translate(7750, 28099) scale(10.000000, 10.000000)">
                  <g>
                     <path fill="#00000" d="M 17.11278,49.26451 V 10.367554 h 12.696511 c 3.288815,7.336676 6.71267,14.610456 10.127281,21.888976 3.419998,-7.484684 6.255515,-14.204887 9.58887,-21.909915 2.436207,0.103726 4.316952,0.08453 6.484294,-0.05808 V 49.264423 H 50.274275 C 50.145222,38.35639 50.016136,27.448368 49.887066,16.540329 45.003488,27.315459 39.967448,38.433564 35.083854,49.208695 34.678996,49.343717 34.426583,49.135619 34.021726,49.270644 29.46588,39.330716 24.910049,29.390805 20.354201,19.450876 20.224341,29.388756 20.09461,39.326619 19.964815,49.264497 H 17.11278 Z M 36.754144,39.324695 C 32.721221,30.512695 28.6883,21.700679 24.655394,12.888662 22.530527,12.750737 22.656775,12.71031 20.714356,12.813974 v 0.966497 c 4.612938,9.99784 9.609439,20.748709 13.87298,30.081745 0.722248,-1.512523 1.444528,-3.025014 2.166808,-4.537521 z m 25.738417,9.939815 c 0,-12.965651 0,-25.931305 0,-38.896956 10.084388,0 20.168791,0 30.253178,0 0,0.960416 0,1.920849 0,2.881265 -6.482825,0 -12.965652,0 -19.448478,0 0,4.802097 0,9.604178 0,14.406277 5.52241,0 11.044819,0 16.567229,0 0,0.960415 0,1.920832 0,2.881248 -5.52241,0 -11.044819,0 -16.567229,0 0,5.282306 0,10.564611 0,15.846917 6.963035,0 13.926068,0 20.889103,0 0,0.960416 0,1.920832 0,2.881249 -10.564597,0 -21.129207,0 -31.693803,0 z m 4.321874,-2.160937 c 0,-11.765131 0,-23.530263 0,-35.295394 -0.720312,0 -1.440625,0 -2.160937,0 0,11.765131 0,23.530263 0,35.295394 0.720312,0 1.440625,0 2.160937,0 z m 32.41413,2.160937 c 0,-12.965651 0,-25.931305 0,-38.896956 2.401045,0 4.802095,0 7.203135,0 0,12.965651 0,25.931305 0,38.896956 -2.40104,0 -4.80209,0 -7.203135,0 z m 2.881265,-2.160937 c 0,-11.765131 0,-23.530263 0,-35.295394 -0.72031,0 -1.44064,0 -2.160953,0 0,11.765131 0,23.530263 0,35.295394 0.720313,0 1.440643,0 2.160953,0 z" />
                     <path fill="#00000" d="m 346.3,6.7 c -3.1,0.5 -4.9,4.4 -2.7,6.8 1.2,1.4 2.7,2.4 4.1,3.5 -2.4,5.3 -7.7,8.3 -11.9,12.1 -3.7,2.8 -7,6.2 -9.7,9.9 -2.2,-0.8 -0.3,-6.8 -0.6,-9.5 0.1,-3.1 0.7,-6.4 2.9,-8.7 1.3,-1.9 3,-3.5 4.5,-5.2 1.2,-3.4 -3.2,-4.9 -5.8,-4.6 -7.3,-0.5 -14.6,2 -20,6.8 -5,4.6 -10,10.1 -11.5,17 -0.9,3.5 -0.2,7.5 2.8,9.9 2.5,2.8 7.4,2.9 9.8,-0.2 1.7,-2.3 3.2,-4.8 3.8,-7.6 -0.1,-2.6 -4.4,-2.3 -4.3,0.2 1.2,2.4 -0.9,4.7 -2.7,6.2 -1.7,0.9 -4.7,0.7 -4.8,-1.7 -1,-5.8 2.1,-11.3 5.2,-16.1 4,-5.8 9.8,-11.2 17.2,-11.8 1.6,0 8.1,-1.2 6.8,1.4 -2.8,2.8 -5.6,6.1 -6,10.3 -1.6,7.7 0.1,15.7 -2.3,23.2 -1.1,3.9 2,2.6 2.5,0.2 3.3,-7.4 8.9,-13.4 15.1,-18.5 4.2,-3.9 9.5,-7.1 11.9,-12.6 1.3,-3.6 1.2,-9 -2.7,-10.9 -0.6,-0.2 -1.2,-0.3 -1.8,-0.3 z m 66,14.5 c -2,0.8 -1.8,4.9 0.8,4.4 3.4,0.4 2.9,-6.2 -0.8,-4.4 z m 0.6,7.3 c -1.3,0.5 -7.6,0.5 -5.4,2.2 4,-0.3 0.7,4.5 0.6,6.7 -0.4,2.9 -2.4,5.9 -1.2,8.8 2.7,1.7 5.6,-0.8 6.8,-3.2 1.6,-1.4 -0.5,-3 -1.2,-0.9 -0.4,0.8 -2.4,3.5 -2.6,1.8 1.1,-5 2.7,-9.9 3.9,-14.9 l -0.1,-0.5 h -0.9 z m -65.1,0.2 c -6.5,1.6 -10.5,9.5 -8.2,15.7 2.1,3.4 7.4,2.9 10.1,0.4 2,-0.2 3.6,-5.3 1,-3.4 -1.4,2 -4,4.2 -6.5,2.8 -2.2,-1.9 -1.9,-5.7 1.7,-5.3 3.1,-0.9 6.9,-2.1 8.1,-5.5 0.9,-2.7 -1.6,-5.2 -4.3,-4.8 h -1.1 -0.7 z m 13.6,0 c -2.2,0 -8.5,1.8 -2.9,2.3 0.9,1.9 -1,4.9 -1.1,7.2 -0.5,2.9 -1.4,5.7 -1.7,8.7 3.7,0.7 3.8,-2.6 4.4,-5.3 0.9,-3.3 1.6,-7 4.1,-9.5 2.4,1.6 6.8,-0.7 3.7,-3.4 -2.9,-0.5 -4.8,2.4 -6.2,4.3 0,-1.2 2.4,-5 -0.2,-4.3 z m 15.8,0 c -6.4,1.3 -9.6,9.1 -7.7,14.9 1.9,4 7.7,3.9 11,1.7 4.1,-3 6,-8.9 4.4,-13.7 -1.3,-3 -4.8,-3.2 -7.6,-3 z m 17,0 c -2.3,0 -8.8,1.9 -3,2.4 0.4,2.5 -1,5.7 -1.4,8.4 -0.7,2.4 -1.8,7.5 2.1,7.2 3.8,-0.1 6.5,-3.5 8.5,-6.3 2,-3.2 4.5,-7 3.3,-10.9 -3.7,-3 -3.6,2.6 -3.1,5.1 -0.7,3.8 -2.7,7.9 -6.2,9.8 -3.6,0.6 -1,-4.3 -0.8,-6.1 0.6,-3.2 1.6,-6.3 1.9,-9.5 -0.4,0 -0.8,0 -1.1,0 z m 30.6,0 c -6.3,1.2 -9.5,8.9 -7.8,14.7 1.5,4 7.2,4.2 10.5,2.4 4.6,-2.8 6.6,-9.3 4.8,-14.3 -1.4,-2.8 -4.8,-3 -7.5,-2.8 z m -75.4,1.7 c 2.1,1.5 0.2,4.7 -1.6,5.7 -1.1,0.4 -5.5,3.4 -4.6,0.7 0.8,-2.7 2.2,-6.2 5.3,-6.6 l 0.9,0.1 z m 30.8,0 c 2.6,1.5 1.3,5.2 0.8,7.6 -0.8,2.7 -1.9,5.9 -4.7,7.1 -5.1,0.8 -4,-5.8 -2.8,-8.8 1,-2.8 3,-6.8 6.7,-5.8 z m 47.1,-0.1 c 2.9,0.7 2,4.7 1.5,6.8 -0.7,3 -1.8,6.7 -5,8 -4.7,0.8 -4,-5.1 -3,-7.9 0.9,-3 2.7,-7.3 6.5,-6.8 z m -88.1,5.9 c -0.3,1.3 0.9,-0.6 0,0 z m -1.1,2.4 c -0.2,0.5 0.5,-0.1 0,0 z m -1.3,4.5 c -0.3,1.3 0.8,-0.2 0,0 z" />
                     <text y="41" x="201" fill="#00000" style="font-style:italic;font-weight:normal;font-size:30px;line-height:125%;font-family:Times;text-anchor:middle" xml:space="preserve">engraved with</text>
                  </g>
               </g>
            </g>
         </g>
      </g>
   </svg>
</svg>
