<?xml version="1.0" encoding="UTF-8" standalone="no"?>
<svg width="2100px" height="2970px" version="1.1" xmlns="http://www.w3.org/2000/svg" xmlns:xlink="http://www.w3.org/1999/xlink" xmlns:mei="http://www.music-encoding.org/ns/mei" overflow="visible">
   <desc>Engraved by Verovio 4.4.0-66ab39c</desc>
   <defs>
      <symbol id="E084-40ky5q" viewBox="0 0 1000 1000" overflow="inherit">
         <path transform="scale(1,-1)" d="M20 -78c84 97 114 180 134 329h170c-13 -32 -82 -132 -99 -151l-84 -97c-33 -36 -59 -63 -80 -81h162v102l127 123v-225h57v-39h-57v-34c0 -43 19 -65 57 -65v-34h-244v36c48 0 60 26 60 70v27h-203v39z" />
      </symbol>
      <symbol id="E0A4-40ky5q" viewBox="0 0 1000 1000" overflow="inherit">
         <path transform="scale(1,-1)" d="M0 -39c0 68 73 172 200 172c66 0 114 -37 114 -95c0 -84 -106 -171 -218 -171c-64 0 -96 30 -96 94z" />
      </symbol>
      <symbol id="E069-40ky5q" viewBox="0 0 1000 1000" overflow="inherit">
         <path transform="scale(1,-1)" d="M200 250h125v-500h-125v500zM0 250h125v-500h-125v500z" />
      </symbol>
      <symbol id="E0A9-40ky5q" viewBox="0 0 1000 1000" overflow="inherit">
         <path transform="scale(1,-1)" d="M0 -110c0 4 1 8 5 11l119 99l-119 100c-3 3 -5 8 -5 12c0 6 5 13 12 13c3 0 6 -1 8 -2l124 -105l126 105c2 1 5 2 7 2c6 0 13 -6 13 -14c0 -4 -2 -9 -5 -11l-119 -100l119 -99c3 -3 5 -7 5 -12c0 -6 -5 -14 -13 -14c-2 0 -5 1 -7 3l-126 105l-124 -105c-2 -2 -4 -3 -7 -3 c-8 0 -13 7 -13 15z" />
      </symbol>
   </defs>
   <style type="text/css">g.page-margin{font-family:Times,serif;} g.ending, g.fing, g.reh, g.tempo{font-weight:bold;} g.dir, g.dynam, g.mNum{font-style:italic;} g.label{font-weight:normal;}</style>
   <svg class="definition-scale" color="black" viewBox="0 0 21000 29700">
      <g class="page-margin" transform="translate(500, 500)">
         <g id="m-860ed121-0c69-4a54-adad-d834eb0e1601" class="mdiv pageMilestone" />
         <g id="m-a4c8b47b-369a-4b5e-9049-984fccba8091" class="score pageMilestone" />
         <g id="s1oc6dc9" class="system">
            <g id="m-287345c8-1993-4729-a0d6-cb30cdf5dded" class="section systemMilestone" />
            <g id="m-315eda08-72c4-47d0-ae13-f0c947bec789" class="measure">
               <g id="m-19b10526-e016-4864-ae10-62397a458e6d" class="staff">
                  <path d="M0 1730 L4665 1730" stroke="currentColor" stroke-width="13" />
                  <path d="M0 1910 L4665 1910" stroke="currentColor" stroke-width="13" />
                  <path d="M0 2090 L4665 2090" stroke="currentColor" stroke-width="13" />
                  <path d="M0 2270 L4665 2270" stroke="currentColor" stroke-width="13" />
                  <path d="M0 2450 L4665 2450" stroke="currentColor" stroke-width="13" />
                  <g id="c190xcjt" class="clef">
                     <use xlink:href="#E069-40ky5q" x="90" y="2090" height="720px" width="720px" />
                  </g>
                  <g id="k1khaq7r" class="keySig" />
                  <g id="m1lvbd1d" class="meterSig">
                     <use xlink:href="#E084-40ky5q" x="490" y="1910" height="720px" width="720px" />
                     <use xlink:href="#E084-40ky5q" x="490" y="2270" height="720px" width="720px" />
                  </g>
                  <g id="m-34f4ce79-3d59-4abb-8500-3a5e603ea19a" class="layer">
                     <g id="m-5023f105-9b07-43f7-a5ba-c256068c7961" class="beam">
                        <polygon points="1242,1190 1710,1190 1710,1280 1242,1280" />
                        <g id="m-6b02a252-6a7b-4ac7-b8d8-30b21c23eb69" class="note">
                           <g class="notehead">
                              <use xlink:href="#E0A9-40ky5q" x="1052" y="1640" height="720px" width="720px" />
                           </g>
                           <g id="s1hstlh6" class="stem">
                              <path d="M1251 1561 L1251 1208" stroke="currentColor" stroke-width="18" />
                           </g>
                        </g>
                        <g id="m-7b65a206-876e-4d98-9e2b-eb4334e6bcdd" class="note">
                           <g class="notehead">
                              <use xlink:href="#E0A9-40ky5q" x="1502" y="1640" height="720px" width="720px" />
                           </g>
                           <g id="sxmrtg5" class="stem">
                              <path d="M1701 1561 L1701 1208" stroke="currentColor" stroke-width="18" />
                           </g>
                        </g>
                     </g>
                     <g id="m-bf8eb88a-6a9c-4b11-8129-08558c38144b" class="beam">
                        <polygon points="2142,1190 2610,1190 2610,1280 2142,1280" />
                        <g id="m-e85b42a9-4154-4b33-941b-721d83961455" class="note">
                           <g class="notehead">
                              <use xlink:href="#E0A9-40ky5q" x="1952" y="1640" height="720px" width="720px" />
                           </g>
                           <g id="s8arsqs" class="stem">
                              <path d="M2151 1561 L2151 1208" stroke="currentColor" stroke-width="18" />
                           </g>
                        </g>
                        <g id="m-5e794bbe-2cc6-4d61-a2b6-85e0d15cb61a" class="note">
                           <g class="notehead">
                              <use xlink:href="#E0A9-40ky5q" x="2402" y="1640" height="720px" width="720px" />
                           </g>
                           <g id="s1wbbz37" class="stem">
                              <path d="M2601 1561 L2601 1208" stroke="currentColor" stroke-width="18" />
                           </g>
                        </g>
                     </g>
                     <g id="m-fa692e41-f1f1-47da-924c-18a9c211e45d" class="beam">
                        <polygon points="3042,1190 3510,1190 3510,1280 3042,1280" />
                        <g id="m-4faf465e-d3db-4709-b409-149a28c6c248" class="note">
                           <g class="notehead">
                              <use xlink:href="#E0A9-40ky5q" x="2852" y="1640" height="720px" width="720px" />
                           </g>
                           <g id="sjd312i" class="stem">
                              <path d="M3051 1561 L3051 1208" stroke="currentColor" stroke-width="18" />
                           </g>
                        </g>
                        <g id="m-7c6625e2-5414-4c9c-b877-b19a38b569d4" class="note">
                           <g class="notehead">
                              <use xlink:href="#E0A9-40ky5q" x="3302" y="1640" height="720px" width="720px" />
                           </g>
                           <g id="s6j3665" class="stem">
                              <path d="M3501 1561 L3501 1208" stroke="currentColor" stroke-width="18" />
                           </g>
                        </g>
                     </g>
                     <g id="m-be733ddb-67a4-44f0-b2d0-10a9b8bc3713" class="beam">
                        <polygon points="3942,1190 4410,1190 4410,1280 3942,1280" />
                        <g id="m-bda0f6b1-fd83-49ec-befb-cfb624112d3d" class="note">
                           <g class="notehead">
                              <use xlink:href="#E0A9-40ky5q" x="3752" y="1640" height="720px" width="720px" />
                           </g>
                           <g id="s8axq1t" class="stem">
                              <path d="M3951 1561 L3951 1208" stroke="currentColor" stroke-width="18" />
                           </g>
                        </g>
                        <g id="m-4e8823ae-baf0-4d44-926b-19fff9f6d56d" class="note">
                           <g class="notehead">
                              <use xlink:href="#E0A9-40ky5q" x="4202" y="1640" height="720px" width="720px" />
                           </g>
                           <g id="snt1k0u" class="stem">
                              <path d="M4401 1561 L4401 1208" stroke="currentColor" stroke-width="18" />
                           </g>
                        </g>
                     </g>
                  </g>
                  <g id="m-7135114d-aea2-4c43-8a96-d9e60f379c19" class="layer">
                     <g id="m-9113f7ba-c31b-4d41-9f7e-289f260bbc1b" class="beam">
                        <polygon points="1052,2990 1520,2990 1520,2900 1052,2900" />
                        <g id="m-e4cc4b09-4245-4283-a77b-e48ebd402515" class="note">
                           <g class="notehead">
                              <use xlink:href="#E0A4-40ky5q" x="1052" y="2540" height="720px" width="720px" />
                           </g>
                           <g id="s1mtp8r7" class="stem">
                              <path d="M1061 2568 L1061 2972" stroke="currentColor" stroke-width="18" />
                           </g>
                        </g>
                        <g id="m-0b650c9f-0e55-4df9-8b1b-7779af7baad7" class="note">
                           <g class="notehead">
                              <use xlink:href="#E0A4-40ky5q" x="1502" y="2540" height="720px" width="720px" />
                           </g>
                           <g id="smetir7" class="stem">
                              <path d="M1511 2568 L1511 2972" stroke="currentColor" stroke-width="18" />
                           </g>
                        </g>
                     </g>
                     <g id="m-5d7e2298-bb60-4d1e-a15a-34fc07fa4a04" class="chord">
                        <g id="slzx5eu" class="stem">
                           <path d="M1961 2118 L1961 2990" stroke="currentColor" stroke-width="18" />
                        </g>
                        <g id="m-6a2d9e14-f057-4d55-9ef7-77e8fe27be70" class="note">
                           <g class="notehead">
                              <use xlink:href="#E0A4-40ky5q" x="1952" y="2540" height="720px" width="720px" />
                           </g>
                        </g>
                        <g id="m-5c3b7b6a-f55f-42fb-a718-9dd2d1c1c9a8" class="note">
                           <g class="notehead">
                              <use xlink:href="#E0A4-40ky5q" x="1952" y="2090" height="720px" width="720px" />
                           </g>
                           <g id="a1588j9k" class="accid" />
                        </g>
                     </g>
                     <g id="m-ca7958c1-e077-4de8-9846-ff453b191636" class="note">
                        <g class="notehead">
                           <use xlink:href="#E0A4-40ky5q" x="2852" y="2540" height="720px" width="720px" />
                        </g>
                        <g id="s1qasug4" class="stem">
                           <path d="M2861 2568 L2861 2990" stroke="currentColor" stroke-width="18" />
                        </g>
                     </g>
                     <g id="m-eda819dd-406b-4fb3-b56d-d66feafeb47f" class="note">
                        <g class="notehead">
                           <use xlink:href="#E0A4-40ky5q" x="3752" y="2090" height="720px" width="720px" />
                        </g>
                        <g id="s18reyxp" class="stem">
                           <path d="M3761 2118 L3761 2690" stroke="currentColor" stroke-width="18" />
                        </g>
                        <g id="a1k8skwr" class="accid" />
                     </g>
                  </g>
               </g>
               <g id="b4l4ava" class="barLine">
                  <path d="M4652 1730 L4652 2450" stroke="currentColor" stroke-width="27" />
               </g>
            </g>
            <g id="m-836d2187-2396-4256-9672-79e2276b5d77" class="measure">
               <g id="m-e520d08f-bbfc-4ad4-a3bc-beb9dfd7c3b7" class="staff">
                  <path d="M4665 1730 L8790 1730" stroke="currentColor" stroke-width="13" />
                  <path d="M4665 1910 L8790 1910" stroke="currentColor" stroke-width="13" />
                  <path d="M4665 2090 L8790 2090" stroke="currentColor" stroke-width="13" />
                  <path d="M4665 2270 L8790 2270" stroke="currentColor" stroke-width="13" />
                  <path d="M4665 2450 L8790 2450" stroke="currentColor" stroke-width="13" />
                  <g id="m-dbf2a546-7753-4efb-8c0d-d418ff3364bb" class="layer">
                     <g id="m-8ae0428e-2657-4346-82bb-34f95ea251f9" class="beam">
                        <polygon points="5035,1055 5669,1055 5669,1145 5035,1145" />
                        <polygon points="5035,1190 5360,1190 5360,1280 5035,1280" />
                        <g id="m-4f0203ff-0ea0-41a9-aa42-8ddafd0770de" class="note">
                           <g class="notehead">
                              <use xlink:href="#E0A9-40ky5q" x="4845" y="1640" height="720px" width="720px" />
                           </g>
                           <g id="sqzo4g5" class="stem">
                              <path d="M5044 1561 L5044 1073" stroke="currentColor" stroke-width="18" />
                           </g>
                        </g>
                        <g id="m-d0b8ca78-56da-4494-bb1a-4fa918f11c26" class="note">
                           <g class="notehead">
                              <use xlink:href="#E0A9-40ky5q" x="5161" y="1640" height="720px" width="720px" />
                           </g>
                           <g id="s1tfuqek" class="stem">
                              <path d="M5360 1561 L5360 1073" stroke="currentColor" stroke-width="18" />
                           </g>
                        </g>
                        <g id="m-0a01bdf5-9bdb-418f-880a-753a3e071784" class="note">
                           <g class="notehead">
                              <use xlink:href="#E0A9-40ky5q" x="5461" y="1640" height="720px" width="720px" />
                           </g>
                           <g id="s1xuby79" class="stem">
                              <path d="M5660 1561 L5660 1073" stroke="currentColor" stroke-width="18" />
                           </g>
                        </g>
                     </g>
                     <g id="m-8f5a2e07-c331-4a93-a8a8-f0034d441e74" class="beam">
                        <polygon points="6267,1190 6735,1190 6735,1280 6267,1280" />
                        <g id="m-1e2ee2d3-4114-431e-a91a-3aa47ca03131" class="note">
                           <g class="notehead">
                              <use xlink:href="#E0A9-40ky5q" x="6077" y="1640" height="720px" width="720px" />
                           </g>
                           <g id="sqxobsp" class="stem">
                              <path d="M6276 1561 L6276 1208" stroke="currentColor" stroke-width="18" />
                           </g>
                        </g>
                        <g id="m-8891d3e5-79fd-4c87-9164-8ffd8737b6f2" class="note">
                           <g class="notehead">
                              <use xlink:href="#E0A9-40ky5q" x="6527" y="1640" height="720px" width="720px" />
                           </g>
                           <g id="s1m0juuy" class="stem">
                              <path d="M6726 1561 L6726 1208" stroke="currentColor" stroke-width="18" />
                           </g>
                        </g>
                     </g>
                     <g id="m-7ccb4477-1341-421e-8325-2477c097891d" class="beam">
                        <polygon points="7167,1190 7635,1190 7635,1280 7167,1280" />
                        <g id="m-5aca118c-3813-4cd0-808a-f612a5532e2a" class="note">
                           <g class="notehead">
                              <use xlink:href="#E0A9-40ky5q" x="6977" y="1640" height="720px" width="720px" />
                           </g>
                           <g id="s1rdwmml" class="stem">
                              <path d="M7176 1561 L7176 1208" stroke="currentColor" stroke-width="18" />
                           </g>
                        </g>
                        <g id="m-2e6c8907-425b-4398-b2f8-943ae8f50933" class="note">
                           <g class="notehead">
                              <use xlink:href="#E0A9-40ky5q" x="7427" y="1640" height="720px" width="720px" />
                           </g>
                           <g id="s1u7o77l" class="stem">
                              <path d="M7626 1561 L7626 1208" stroke="currentColor" stroke-width="18" />
                           </g>
                        </g>
                     </g>
                     <g id="m-5243ecee-61bf-44a3-ad8f-a110861255c3" class="beam">
                        <polygon points="8067,1190 8535,1190 8535,1280 8067,1280" />
                        <g id="m-7f5b0d81-7e2f-42c4-9d48-1d5cd7a1990d" class="note">
                           <g class="notehead">
                              <use xlink:href="#E0A9-40ky5q" x="7877" y="1640" height="720px" width="720px" />
                           </g>
                           <g id="sgxvnf2" class="stem">
                              <path d="M8076 1561 L8076 1208" stroke="currentColor" stroke-width="18" />
                           </g>
                        </g>
                        <g id="m-eb4441fa-7c54-407c-9481-759aab9b9e1e" class="note">
                           <g class="notehead">
                              <use xlink:href="#E0A9-40ky5q" x="8327" y="1640" height="720px" width="720px" />
                           </g>
                           <g id="sey5rw6" class="stem">
                              <path d="M8526 1561 L8526 1208" stroke="currentColor" stroke-width="18" />
                           </g>
                        </g>
                     </g>
                  </g>
                  <g id="m-6cfffce0-49af-4091-9524-1ae4e61e062c" class="layer">
                     <g id="m-2a7e36b1-a389-467c-8056-64a06472a671" class="beam">
                        <polygon points="4845,3125 5779,3125 5779,3035 4845,3035" />
                        <polygon points="5553,2990 5779,2990 5779,2900 5553,2900" />
                        <g id="m-c9519fdd-5f8a-48ec-95b6-06906d11c06e" class="note">
                           <g class="notehead">
                              <use xlink:href="#E0A4-40ky5q" x="4845" y="2540" height="720px" width="720px" />
                           </g>
                           <g id="d1atiqnj" class="dots">
                              <ellipse cx="5161" cy="2540" rx="36" ry="36" />
                           </g>
                           <g id="sk7vmds" class="stem">
                              <path d="M4854 2568 L4854 3107" stroke="currentColor" stroke-width="18" />
                           </g>
                        </g>
                        <g id="m-eb1bead0-5a15-42e0-8467-061116c4ec44" class="note">
                           <g class="notehead">
                              <use xlink:href="#E0A4-40ky5q" x="5761" y="2540" height="720px" width="720px" />
                           </g>
                           <g id="s1pp6bpl" class="stem">
                              <path d="M5770 2568 L5770 3107" stroke="currentColor" stroke-width="18" />
                           </g>
                        </g>
                     </g>
                     <g id="m-aa6acb56-13a6-483a-ab79-107df5faaf6b" class="note">
                        <g class="notehead">
                           <use xlink:href="#E0A4-40ky5q" x="6077" y="2090" height="720px" width="720px" />
                        </g>
                        <g id="smzodic" class="stem">
                           <path d="M6086 2118 L6086 2690" stroke="currentColor" stroke-width="18" />
                        </g>
                        <g id="ad3k3pp" class="accid" />
                     </g>
                     <g id="m-788ca990-1253-45de-a711-afc18dad94ee" class="note">
                        <g class="notehead">
                           <use xlink:href="#E0A4-40ky5q" x="6977" y="2540" height="720px" width="720px" />
                        </g>
                        <g id="s12sc96i" class="stem">
                           <path d="M6986 2568 L6986 2990" stroke="currentColor" stroke-width="18" />
                        </g>
                     </g>
                     <g id="m-8e30a6b8-3a8c-44df-ad03-e6d1399269e4" class="note">
                        <g class="notehead">
                           <use xlink:href="#E0A4-40ky5q" x="7877" y="2090" height="720px" width="720px" />
                        </g>
                        <g id="sguczsu" class="stem">
                           <path d="M7886 2118 L7886 2690" stroke="currentColor" stroke-width="18" />
                        </g>
                        <g id="a9tczv1" class="accid" />
                     </g>
                  </g>
               </g>
               <g id="b1w1tav2" class="barLine">
                  <path d="M8777 1730 L8777 2450" stroke="currentColor" stroke-width="27" />
               </g>
            </g>
            <g id="saxyz69" class="systemMilestoneEnd m-287345c8-1993-4729-a0d6-cb30cdf5dded" />
         </g>
         <g id="p2dtjkf" class="pageMilestoneEnd m-a4c8b47b-369a-4b5e-9049-984fccba8091" />
         <g id="p1b2fx7x" class="pageMilestoneEnd m-860ed121-0c69-4a54-adad-d834eb0e1601" />
         <g id="p1fyabzg" class="pgHead autogenerated">
            <text font-size="0px">
               <tspan id="rk2nnye" class="rend" x="10000" y="415" text-anchor="middle">
                  <title class="labelAttr">title</title>
                  <tspan id="rkusam7" class="rend">
                     <tspan id="tehd8sj" class="text">
                        <tspan font-size="607px">8_rock_100_beat_4-4</tspan>
                     </tspan>
                  </tspan>
                  <tspan id="l5aa0ff" class="lb" />
                  <tspan id="r3eqa5m" class="rend">
                     <tspan id="t1uxrzmy" class="text" x="10000" y="805">
                        <tspan font-size="324px">8_rock_100_beat_4-4</tspan>
                     </tspan>
                  </tspan>
               </tspan>
            </text>
         </g>
         <g id="p1wfba9d" class="pgFoot autogenerated">
            <g id="f1w1nwdg" class="fig">
               <g class="svg" transform="translate(7750, 28099) scale(10.000000, 10.000000)">
                  <g>
                     <path fill="#00000" d="M 17.11278,49.26451 V 10.367554 h 12.696511 c 3.288815,7.336676 6.71267,14.610456 10.127281,21.888976 3.419998,-7.484684 6.255515,-14.204887 9.58887,-21.909915 2.436207,0.103726 4.316952,0.08453 6.484294,-0.05808 V 49.264423 H 50.274275 C 50.145222,38.35639 50.016136,27.448368 49.887066,16.540329 45.003488,27.315459 39.967448,38.433564 35.083854,49.208695 34.678996,49.343717 34.426583,49.135619 34.021726,49.270644 29.46588,39.330716 24.910049,29.390805 20.354201,19.450876 20.224341,29.388756 20.09461,39.326619 19.964815,49.264497 H 17.11278 Z M 36.754144,39.324695 C 32.721221,30.512695 28.6883,21.700679 24.655394,12.888662 22.530527,12.750737 22.656775,12.71031 20.714356,12.813974 v 0.966497 c 4.612938,9.99784 9.609439,20.748709 13.87298,30.081745 0.722248,-1.512523 1.444528,-3.025014 2.166808,-4.537521 z m 25.738417,9.939815 c 0,-12.965651 0,-25.931305 0,-38.896956 10.084388,0 20.168791,0 30.253178,0 0,0.960416 0,1.920849 0,2.881265 -6.482825,0 -12.965652,0 -19.448478,0 0,4.802097 0,9.604178 0,14.406277 5.52241,0 11.044819,0 16.567229,0 0,0.960415 0,1.920832 0,2.881248 -5.52241,0 -11.044819,0 -16.567229,0 0,5.282306 0,10.564611 0,15.846917 6.963035,0 13.926068,0 20.889103,0 0,0.960416 0,1.920832 0,2.881249 -10.564597,0 -21.129207,0 -31.693803,0 z m 4.321874,-2.160937 c 0,-11.765131 0,-23.530263 0,-35.295394 -0.720312,0 -1.440625,0 -2.160937,0 0,11.765131 0,23.530263 0,35.295394 0.720312,0 1.440625,0 2.160937,0 z m 32.41413,2.160937 c 0,-12.965651 0,-25.931305 0,-38.896956 2.401045,0 4.802095,0 7.203135,0 0,12.965651 0,25.931305 0,38.896956 -2.40104,0 -4.80209,0 -7.203135,0 z m 2.881265,-2.160937 c 0,-11.765131 0,-23.530263 0,-35.295394 -0.72031,0 -1.44064,0 -2.160953,0 0,11.765131 0,23.530263 0,35.295394 0.720313,0 1.440643,0 2.160953,0 z" />
                     <path fill="#00000" d="m 346.3,6.7 c -3.1,0.5 -4.9,4.4 -2.7,6.8 1.2,1.4 2.7,2.4 4.1,3.5 -2.4,5.3 -7.7,8.3 -11.9,12.1 -3.7,2.8 -7,6.2 -9.7,9.9 -2.2,-0.8 -0.3,-6.8 -0.6,-9.5 0.1,-3.1 0.7,-6.4 2.9,-8.7 1.3,-1.9 3,-3.5 4.5,-5.2 1.2,-3.4 -3.2,-4.9 -5.8,-4.6 -7.3,-0.5 -14.6,2 -20,6.8 -5,4.6 -10,10.1 -11.5,17 -0.9,3.5 -0.2,7.5 2.8,9.9 2.5,2.8 7.4,2.9 9.8,-0.2 1.7,-2.3 3.2,-4.8 3.8,-7.6 -0.1,-2.6 -4.4,-2.3 -4.3,0.2 1.2,2.4 -0.9,4.7 -2.7,6.2 -1.7,0.9 -4.7,0.7 -4.8,-1.7 -1,-5.8 2.1,-11.3 5.2,-16.1 4,-5.8 9.8,-11.2 17.2,-11.8 1.6,0 8.1,-1.2 6.8,1.4 -2.8,2.8 -5.6,6.1 -6,10.3 -1.6,7.7 0.1,15.7 -2.3,23.2 -1.1,3.9 2,2.6 2.5,0.2 3.3,-7.4 8.9,-13.4 15.1,-18.5 4.2,-3.9 9.5,-7.1 11.9,-12.6 1.3,-3.6 1.2,-9 -2.7,-10.9 -0.6,-0.2 -1.2,-0.3 -1.8,-0.3 z m 66,14.5 c -2,0.8 -1.8,4.9 0.8,4.4 3.4,0.4 2.9,-6.2 -0.8,-4.4 z m 0.6,7.3 c -1.3,0.5 -7.6,0.5 -5.4,2.2 4,-0.3 0.7,4.5 0.6,6.7 -0.4,2.9 -2.4,5.9 -1.2,8.8 2.7,1.7 5.6,-0.8 6.8,-3.2 1.6,-1.4 -0.5,-3 -1.2,-0.9 -0.4,0.8 -2.4,3.5 -2.6,1.8 1.1,-5 2.7,-9.9 3.9,-14.9 l -0.1,-0.5 h -0.9 z m -65.1,0.2 c -6.5,1.6 -10.5,9.5 -8.2,15.7 2.1,3.4 7.4,2.9 10.1,0.4 2,-0.2 3.6,-5.3 1,-3.4 -1.4,2 -4,4.2 -6.5,2.8 -2.2,-1.9 -1.9,-5.7 1.7,-5.3 3.1,-0.9 6.9,-2.1 8.1,-5.5 0.9,-2.7 -1.6,-5.2 -4.3,-4.8 h -1.1 -0.7 z m 13.6,0 c -2.2,0 -8.5,1.8 -2.9,2.3 0.9,1.9 -1,4.9 -1.1,7.2 -0.5,2.9 -1.4,5.7 -1.7,8.7 3.7,0.7 3.8,-2.6 4.4,-5.3 0.9,-3.3 1.6,-7 4.1,-9.5 2.4,1.6 6.8,-0.7 3.7,-3.4 -2.9,-0.5 -4.8,2.4 -6.2,4.3 0,-1.2 2.4,-5 -0.2,-4.3 z m 15.8,0 c -6.4,1.3 -9.6,9.1 -7.7,14.9 1.9,4 7.7,3.9 11,1.7 4.1,-3 6,-8.9 4.4,-13.7 -1.3,-3 -4.8,-3.2 -7.6,-3 z m 17,0 c -2.3,0 -8.8,1.9 -3,2.4 0.4,2.5 -1,5.7 -1.4,8.4 -0.7,2.4 -1.8,7.5 2.1,7.2 3.8,-0.1 6.5,-3.5 8.5,-6.3 2,-3.2 4.5,-7 3.3,-10.9 -3.7,-3 -3.6,2.6 -3.1,5.1 -0.7,3.8 -2.7,7.9 -6.2,9.8 -3.6,0.6 -1,-4.3 -0.8,-6.1 0.6,-3.2 1.6,-6.3 1.9,-9.5 -0.4,0 -0.8,0 -1.1,0 z m 30.6,0 c -6.3,1.2 -9.5,8.9 -7.8,14.7 1.5,4 7.2,4.2 10.5,2.4 4.6,-2.8 6.6,-9.3 4.8,-14.3 -1.4,-2.8 -4.8,-3 -7.5,-2.8 z m -75.4,1.7 c 2.1,1.5 0.2,4.7 -1.6,5.7 -1.1,0.4 -5.5,3.4 -4.6,0.7 0.8,-2.7 2.2,-6.2 5.3,-6.6 l 0.9,0.1 z m 30.8,0 c 2.6,1.5 1.3,5.2 0.8,7.6 -0.8,2.7 -1.9,5.9 -4.7,7.1 -5.1,0.8 -4,-5.8 -2.8,-8.8 1,-2.8 3,-6.8 6.7,-5.8 z m 47.1,-0.1 c 2.9,0.7 2,4.7 1.5,6.8 -0.7,3 -1.8,6.7 -5,8 -4.7,0.8 -4,-5.1 -3,-7.9 0.9,-3 2.7,-7.3 6.5,-6.8 z m -88.1,5.9 c -0.3,1.3 0.9,-0.6 0,0 z m -1.1,2.4 c -0.2,0.5 0.5,-0.1 0,0 z m -1.3,4.5 c -0.3,1.3 0.8,-0.2 0,0 z" />
                     <text y="41" x="201" fill="#00000" style="font-style:italic;font-weight:normal;font-size:30px;line-height:125%;font-family:Times;text-anchor:middle" xml:space="preserve">engraved with</text>
                  </g>
               </g>
            </g>
         </g>
      </g>
   </svg>
</svg>
