<?xml version="1.0" encoding="UTF-8" standalone="no"?>
<svg width="2100px" height="2970px" version="1.1" xmlns="http://www.w3.org/2000/svg" xmlns:xlink="http://www.w3.org/1999/xlink" xmlns:mei="http://www.music-encoding.org/ns/mei" overflow="visible">
   <desc>Engraved by Verovio 4.4.0-66ab39c</desc>
   <defs>
      <symbol id="E084-i3lkev" viewBox="0 0 1000 1000" overflow="inherit">
         <path transform="scale(1,-1)" d="M20 -78c84 97 114 180 134 329h170c-13 -32 -82 -132 -99 -151l-84 -97c-33 -36 -59 -63 -80 -81h162v102l127 123v-225h57v-39h-57v-34c0 -43 19 -65 57 -65v-34h-244v36c48 0 60 26 60 70v27h-203v39z" />
      </symbol>
      <symbol id="E0A4-i3lkev" viewBox="0 0 1000 1000" overflow="inherit">
         <path transform="scale(1,-1)" d="M0 -39c0 68 73 172 200 172c66 0 114 -37 114 -95c0 -84 -106 -171 -218 -171c-64 0 -96 30 -96 94z" />
      </symbol>
      <symbol id="E0A9-i3lkev" viewBox="0 0 1000 1000" overflow="inherit">
         <path transform="scale(1,-1)" d="M0 -110c0 4 1 8 5 11l119 99l-119 100c-3 3 -5 8 -5 12c0 6 5 13 12 13c3 0 6 -1 8 -2l124 -105l126 105c2 1 5 2 7 2c6 0 13 -6 13 -14c0 -4 -2 -9 -5 -11l-119 -100l119 -99c3 -3 5 -7 5 -12c0 -6 -5 -14 -13 -14c-2 0 -5 1 -7 3l-126 105l-124 -105c-2 -2 -4 -3 -7 -3 c-8 0 -13 7 -13 15z" />
      </symbol>
      <symbol id="E069-i3lkev" viewBox="0 0 1000 1000" overflow="inherit">
         <path transform="scale(1,-1)" d="M200 250h125v-500h-125v500zM0 250h125v-500h-125v500z" />
      </symbol>
   </defs>
   <style type="text/css">g.page-margin{font-family:Times,serif;} g.ending, g.fing, g.reh, g.tempo{font-weight:bold;} g.dir, g.dynam, g.mNum{font-style:italic;} g.label{font-weight:normal;}</style>
   <svg class="definition-scale" color="black" viewBox="0 0 21000 29700">
      <g class="page-margin" transform="translate(500, 500)">
         <g id="m-c109d6a0-63d9-41c9-9a59-fc670182ed5e" class="mdiv pageMilestone" />
         <g id="m-14389c61-af56-4089-8bc3-06ae57fe9378" class="score pageMilestone" />
         <g id="sd75nrh" class="system">
            <g id="m-527405b1-3119-45a5-984c-7008a0cfe5c3" class="section systemMilestone" />
            <g id="m-caf2034f-f6a1-4d6b-b312-55b6955a307a" class="measure">
               <g id="m-565d816a-aa32-4f8d-ab34-7419b835d364" class="staff">
                  <path d="M0 2045 L5269 2045" stroke="currentColor" stroke-width="13" />
                  <path d="M0 2225 L5269 2225" stroke="currentColor" stroke-width="13" />
                  <path d="M0 2405 L5269 2405" stroke="currentColor" stroke-width="13" />
                  <path d="M0 2585 L5269 2585" stroke="currentColor" stroke-width="13" />
                  <path d="M0 2765 L5269 2765" stroke="currentColor" stroke-width="13" />
                  <g id="c18jf840" class="clef">
                     <use xlink:href="#E069-i3lkev" x="90" y="2405" height="720px" width="720px" />
                  </g>
                  <g id="kgriirt" class="keySig" />
                  <g id="mhehesy" class="meterSig">
                     <use xlink:href="#E084-i3lkev" x="490" y="2225" height="720px" width="720px" />
                     <use xlink:href="#E084-i3lkev" x="490" y="2585" height="720px" width="720px" />
                  </g>
                  <g class="ledgerLines above">
                     <path d="M1004 1865 L1308 1865" stroke="currentColor" stroke-width="22" />
                     <path d="M1446 1865 L1714 1865" stroke="currentColor" stroke-width="22" />
                     <path d="M1744 1865 L2012 1865" stroke="currentColor" stroke-width="22" />
                     <path d="M2176 1865 L2480 1865" stroke="currentColor" stroke-width="22" />
                     <path d="M2644 1865 L2912 1865" stroke="currentColor" stroke-width="22" />
                     <path d="M2944 1865 L3212 1865" stroke="currentColor" stroke-width="22" />
                     <path d="M3254 1865 L3534 1865" stroke="currentColor" stroke-width="22" />
                     <path d="M3710 1865 L3978 1865" stroke="currentColor" stroke-width="22" />
                     <path d="M4010 1865 L4278 1865" stroke="currentColor" stroke-width="22" />
                     <path d="M4320 1865 L4600 1865" stroke="currentColor" stroke-width="22" />
                     <path d="M4758 1865 L5062 1865" stroke="currentColor" stroke-width="22" />
                  </g>
                  <g id="m-d420b602-aa9f-43a1-a8cb-4956eb53010d" class="layer">
                     <g id="m-c4a75ba0-f2b3-4e3d-9ae0-24a5b10ebd3c" class="beam">
                        <polygon points="1242,1055 1982,1055 1982,1145 1242,1145" />
                        <polygon points="1242,1190 1675,1190 1675,1280 1242,1280" />
                        <polygon points="1449,1325 1675,1325 1675,1415 1449,1415" />
                        <g id="m-74217391-b8d6-4116-9b4a-3e2fc9a45020" class="note">
                           <g class="notehead">
                              <use xlink:href="#E0A9-i3lkev" x="1052" y="1775" height="720px" width="720px" />
                           </g>
                           <g id="d1mlxdo9" class="dots">
                              <ellipse cx="1350" cy="1775" rx="36" ry="36" />
                           </g>
                           <g id="sh5u79e" class="stem">
                              <path d="M1251 1696 L1251 1073" stroke="currentColor" stroke-width="18" />
                           </g>
                           <g id="a1ps12py" class="accid" />
                        </g>
                        <g id="m-b37d4355-56b6-42ea-bbb3-45105ff81515" class="note">
                           <g class="notehead">
                              <use xlink:href="#E0A9-i3lkev" x="1476" y="1775" height="720px" width="720px" />
                           </g>
                           <g id="sefsgeb" class="stem">
                              <path d="M1675 1696 L1675 1073" stroke="currentColor" stroke-width="18" />
                           </g>
                           <g id="azeyxng" class="accid" />
                        </g>
                        <g id="m-d2cf1514-4eb1-4600-907f-6d4fa03166ce" class="note">
                           <g class="notehead">
                              <use xlink:href="#E0A9-i3lkev" x="1774" y="1775" height="720px" width="720px" />
                           </g>
                           <g id="ssunp2u" class="stem">
                              <path d="M1973 1696 L1973 1073" stroke="currentColor" stroke-width="18" />
                           </g>
                           <g id="a18io9kl" class="accid" />
                        </g>
                     </g>
                     <g id="m-9810f83d-07f3-4173-abeb-706174560f9c" class="beam">
                        <polygon points="2414,1190 3182,1190 3182,1280 2414,1280" />
                        <polygon points="2873,1325 3182,1325 3182,1415 2873,1415" />
                        <g id="m-b84cdc3c-dd3c-4500-b489-e2ea1372fe76" class="note">
                           <g class="notehead">
                              <use xlink:href="#E0A9-i3lkev" x="2224" y="1775" height="720px" width="720px" />
                           </g>
                           <g id="sdx1p12" class="stem">
                              <path d="M2423 1696 L2423 1208" stroke="currentColor" stroke-width="18" />
                           </g>
                           <g id="an82yt8" class="accid" />
                        </g>
                        <g id="m-97b17201-801c-4cd9-8fbc-9808ca306d20" class="note">
                           <g class="notehead">
                              <use xlink:href="#E0A9-i3lkev" x="2674" y="1775" height="720px" width="720px" />
                           </g>
                           <g id="s6cbnzf" class="stem">
                              <path d="M2873 1696 L2873 1208" stroke="currentColor" stroke-width="18" />
                           </g>
                           <g id="aytm91s" class="accid" />
                        </g>
                        <g id="m-598aec5a-6012-40cf-a358-6782374fbed2" class="note">
                           <g class="notehead">
                              <use xlink:href="#E0A9-i3lkev" x="2974" y="1775" height="720px" width="720px" />
                           </g>
                           <g id="ss1zv" class="stem">
                              <path d="M3173 1696 L3173 1208" stroke="currentColor" stroke-width="18" />
                           </g>
                           <g id="a177o4qv" class="accid" />
                        </g>
                     </g>
                     <g id="m-7cb6b7d9-b7f4-44a3-bf0b-1523927286a3" class="beam">
                        <polygon points="3480,1190 4248,1190 4248,1280 3480,1280" />
                        <polygon points="3939,1325 4248,1325 4248,1415 3939,1415" />
                        <g id="m-256e7d9e-7e4e-4c16-acfc-fea520269829" class="note">
                           <g class="notehead">
                              <use xlink:href="#E0A9-i3lkev" x="3290" y="1775" height="720px" width="720px" />
                           </g>
                           <g id="s6ai5ui" class="stem">
                              <path d="M3489 1696 L3489 1208" stroke="currentColor" stroke-width="18" />
                           </g>
                           <g id="ay6apmr" class="accid" />
                        </g>
                        <g id="m-987efdb9-9742-4f1e-b463-960568d7215a" class="note">
                           <g class="notehead">
                              <use xlink:href="#E0A9-i3lkev" x="3740" y="1775" height="720px" width="720px" />
                           </g>
                           <g id="s929d6g" class="stem">
                              <path d="M3939 1696 L3939 1208" stroke="currentColor" stroke-width="18" />
                           </g>
                           <g id="aa9wvzr" class="accid" />
                        </g>
                        <g id="m-0eac4f50-a640-4a78-bc96-e3cbb77d1e8c" class="note">
                           <g class="notehead">
                              <use xlink:href="#E0A9-i3lkev" x="4040" y="1775" height="720px" width="720px" />
                           </g>
                           <g id="sol9uyh" class="stem">
                              <path d="M4239 1696 L4239 1208" stroke="currentColor" stroke-width="18" />
                           </g>
                           <g id="ah6ur1a" class="accid" />
                        </g>
                     </g>
                     <g id="m-cb7a2502-8ae1-40ec-9486-0d64c1cce2bf" class="beam">
                        <polygon points="4546,1325 5014,1325 5014,1415 4546,1415" />
                        <g id="m-b4c54122-4383-4b80-93cf-2652a1b3380f" class="note">
                           <g class="notehead">
                              <use xlink:href="#E0A9-i3lkev" x="4356" y="1775" height="720px" width="720px" />
                           </g>
                           <g id="soj6cbx" class="stem">
                              <path d="M4555 1696 L4555 1343" stroke="currentColor" stroke-width="18" />
                           </g>
                           <g id="atuklfj" class="accid" />
                        </g>
                        <g id="m-a7673e41-7c18-47e7-931f-d3e1737e3e34" class="note">
                           <g class="notehead">
                              <use xlink:href="#E0A9-i3lkev" x="4806" y="1775" height="720px" width="720px" />
                           </g>
                           <g id="s1ann4mf" class="stem">
                              <path d="M5005 1696 L5005 1343" stroke="currentColor" stroke-width="18" />
                           </g>
                           <g id="a1bvbmmn" class="accid" />
                        </g>
                     </g>
                  </g>
                  <g id="m-10f02fb5-7cab-4767-a453-da01675cb1bc" class="layer">
                     <g id="m-199ac3b7-111e-461d-ab40-682056a19806" class="beam">
                        <polygon points="1052,3305 1792,3305 1792,3215 1052,3215" />
                        <g id="m-cd11b769-3a9a-45d0-802b-c7262e6ed178" class="note">
                           <g class="notehead">
                              <use xlink:href="#E0A4-i3lkev" x="1052" y="2855" height="720px" width="720px" />
                           </g>
                           <g id="spi51xu" class="stem">
                              <path d="M1061 2883 L1061 3287" stroke="currentColor" stroke-width="18" />
                           </g>
                        </g>
                        <g id="m-0ecb43ee-4321-4426-99ee-f2824c59e575" class="note">
                           <g class="notehead">
                              <use xlink:href="#E0A4-i3lkev" x="1774" y="2855" height="720px" width="720px" />
                           </g>
                           <g id="s1hyfkih" class="stem">
                              <path d="M1783 2883 L1783 3287" stroke="currentColor" stroke-width="18" />
                           </g>
                        </g>
                     </g>
                     <g id="m-10232045-b475-4c13-947c-3fa7cce51d73" class="beam">
                        <polygon points="2224,3305 2992,3485 2992,3395 2224,3215" />
                        <polygon points="2766,3301 2992,3350 2992,3260 2766,3211" />
                        <g id="m-255b0a41-3f0e-4e19-a9da-bdc0042915b7" class="note">
                           <g class="notehead">
                              <use xlink:href="#E0A4-i3lkev" x="2224" y="2405" height="720px" width="720px" />
                           </g>
                           <g id="d1urnyu1" class="dots">
                              <ellipse cx="2540" cy="2495" rx="36" ry="36" />
                           </g>
                           <g id="s1a33z10" class="stem">
                              <path d="M2233 2433 L2233 3287" stroke="currentColor" stroke-width="18" />
                           </g>
                           <g id="aszrruk" class="accid" />
                        </g>
                        <g id="m-a9c10cc9-4985-48fb-972c-727dac46fa0b" class="note">
                           <g class="notehead">
                              <use xlink:href="#E0A4-i3lkev" x="2974" y="2855" height="720px" width="720px" />
                           </g>
                           <g id="s1hydgme" class="stem">
                              <path d="M2983 2883 L2983 3467" stroke="currentColor" stroke-width="18" />
                           </g>
                        </g>
                     </g>
                     <g id="m-01ef1112-1b69-4d40-a7fb-d19e5e736780" class="beam">
                        <polygon points="3290,3440 4058,3440 4058,3350 3290,3350" />
                        <polygon points="3832,3305 4058,3305 4058,3215 3832,3215" />
                        <g id="m-2647c441-f152-4907-93bf-9a9d9d00a772" class="note">
                           <g class="notehead">
                              <use xlink:href="#E0A4-i3lkev" x="3290" y="2855" height="720px" width="720px" />
                           </g>
                           <g id="d1nvmobh" class="dots">
                              <ellipse cx="3606" cy="2855" rx="36" ry="36" />
                           </g>
                           <g id="s1ml10s4" class="stem">
                              <path d="M3299 2883 L3299 3422" stroke="currentColor" stroke-width="18" />
                           </g>
                        </g>
                        <g id="m-d8d08c73-e9ee-43d4-aa08-ea6b2726ab41" class="note">
                           <g class="notehead">
                              <use xlink:href="#E0A4-i3lkev" x="4040" y="2855" height="720px" width="720px" />
                           </g>
                           <g id="swdobzh" class="stem">
                              <path d="M4049 2883 L4049 3422" stroke="currentColor" stroke-width="18" />
                           </g>
                        </g>
                     </g>
                     <g id="m-15719c33-c1d8-4ae9-b1a5-9236ce0888f4" class="beam">
                        <polygon points="4356,3305 4824,3350 4824,3260 4356,3215" />
                        <g id="m-271e568d-e324-4495-a27a-115e1b254dd9" class="note">
                           <g class="notehead">
                              <use xlink:href="#E0A4-i3lkev" x="4356" y="2405" height="720px" width="720px" />
                           </g>
                           <g id="s1a9qgoj" class="stem">
                              <path d="M4365 2433 L4365 3287" stroke="currentColor" stroke-width="18" />
                           </g>
                           <g id="a1yerpbu" class="accid" />
                        </g>
                        <g id="m-0cb3829b-15ad-4181-b0d2-dfd5d378498d" class="note">
                           <g class="notehead">
                              <use xlink:href="#E0A4-i3lkev" x="4806" y="2855" height="720px" width="720px" />
                           </g>
                           <g id="s1ikjz83" class="stem">
                              <path d="M4815 2883 L4815 3332" stroke="currentColor" stroke-width="18" />
                           </g>
                        </g>
                     </g>
                  </g>
               </g>
               <g id="b1oqmwfy" class="barLine">
                  <path d="M5256 2045 L5256 2765" stroke="currentColor" stroke-width="27" />
               </g>
            </g>
            <g id="m-b5679338-c2c0-47c0-ab22-ce5a14382069" class="measure">
               <g id="m-d6eee1b2-1359-4d5c-a568-087208e4de21" class="staff">
                  <path d="M5269 2045 L9832 2045" stroke="currentColor" stroke-width="13" />
                  <path d="M5269 2225 L9832 2225" stroke="currentColor" stroke-width="13" />
                  <path d="M5269 2405 L9832 2405" stroke="currentColor" stroke-width="13" />
                  <path d="M5269 2585 L9832 2585" stroke="currentColor" stroke-width="13" />
                  <path d="M5269 2765 L9832 2765" stroke="currentColor" stroke-width="13" />
                  <g class="ledgerLines above">
                     <path d="M5401 1865 L5705 1865" stroke="currentColor" stroke-width="22" />
                     <path d="M5869 1865 L6137 1865" stroke="currentColor" stroke-width="22" />
                     <path d="M6169 1865 L6437 1865" stroke="currentColor" stroke-width="22" />
                     <path d="M6479 1865 L6759 1865" stroke="currentColor" stroke-width="22" />
                     <path d="M6909 1865 L7177 1865" stroke="currentColor" stroke-width="22" />
                     <path d="M7207 1865 L7475 1865" stroke="currentColor" stroke-width="22" />
                     <path d="M7651 1865 L7931 1865" stroke="currentColor" stroke-width="22" />
                     <path d="M7973 1865 L8241 1865" stroke="currentColor" stroke-width="22" />
                     <path d="M8273 1865 L8541 1865" stroke="currentColor" stroke-width="22" />
                     <path d="M8717 1865 L8997 1865" stroke="currentColor" stroke-width="22" />
                     <path d="M9039 1865 L9307 1865" stroke="currentColor" stroke-width="22" />
                     <path d="M9339 1865 L9607 1865" stroke="currentColor" stroke-width="22" />
                  </g>
                  <g id="m-8b0b5e37-e8c3-43a6-ae9e-fc05865f0d7c" class="layer">
                     <g id="m-fd4a0740-d1a1-4729-901e-f8addefb2b94" class="beam">
                        <polygon points="5639,1190 6407,1190 6407,1280 5639,1280" />
                        <polygon points="6098,1325 6407,1325 6407,1415 6098,1415" />
                        <g id="m-e97a79a5-cb1f-4d7c-9dd2-d6ac60b57dbe" class="note">
                           <g class="notehead">
                              <use xlink:href="#E0A9-i3lkev" x="5449" y="1775" height="720px" width="720px" />
                           </g>
                           <g id="s17zv352" class="stem">
                              <path d="M5648 1696 L5648 1208" stroke="currentColor" stroke-width="18" />
                           </g>
                           <g id="a8xy409" class="accid" />
                        </g>
                        <g id="m-e90de72d-f85d-4c23-860a-ba5cca7d550f" class="note">
                           <g class="notehead">
                              <use xlink:href="#E0A9-i3lkev" x="5899" y="1775" height="720px" width="720px" />
                           </g>
                           <g id="sg3df2p" class="stem">
                              <path d="M6098 1696 L6098 1208" stroke="currentColor" stroke-width="18" />
                           </g>
                           <g id="a1909gmw" class="accid" />
                        </g>
                        <g id="m-c33b270b-5a16-411b-a151-3ec645e849ca" class="note">
                           <g class="notehead">
                              <use xlink:href="#E0A9-i3lkev" x="6199" y="1775" height="720px" width="720px" />
                           </g>
                           <g id="s13jcvy4" class="stem">
                              <path d="M6398 1696 L6398 1208" stroke="currentColor" stroke-width="18" />
                           </g>
                           <g id="ahhaarg" class="accid" />
                        </g>
                     </g>
                     <g id="m-72dc5167-e1a2-4b9e-b13a-e53c7a08c783" class="beam">
                        <polygon points="6705,1055 7445,1055 7445,1145 6705,1145" />
                        <polygon points="6705,1190 7138,1190 7138,1280 6705,1280" />
                        <polygon points="6912,1325 7138,1325 7138,1415 6912,1415" />
                        <g id="m-189b3467-12ad-4481-bc0f-f97a7a768937" class="note">
                           <g class="notehead">
                              <use xlink:href="#E0A9-i3lkev" x="6515" y="1775" height="720px" width="720px" />
                           </g>
                           <g id="d1qi4thc" class="dots">
                              <ellipse cx="6813" cy="1775" rx="36" ry="36" />
                           </g>
                           <g id="s12ynnhn" class="stem">
                              <path d="M6714 1696 L6714 1073" stroke="currentColor" stroke-width="18" />
                           </g>
                           <g id="ak6rju4" class="accid" />
                        </g>
                        <g id="m-d8f94aba-8d81-4357-95b8-d5efa269c867" class="note">
                           <g class="notehead">
                              <use xlink:href="#E0A9-i3lkev" x="6939" y="1775" height="720px" width="720px" />
                           </g>
                           <g id="s7ck5ce" class="stem">
                              <path d="M7138 1696 L7138 1073" stroke="currentColor" stroke-width="18" />
                           </g>
                           <g id="a1hl17ag" class="accid" />
                        </g>
                        <g id="m-093704b3-2dcd-47f1-a6e4-5a7f2a25a16c" class="note">
                           <g class="notehead">
                              <use xlink:href="#E0A9-i3lkev" x="7237" y="1775" height="720px" width="720px" />
                           </g>
                           <g id="soyurue" class="stem">
                              <path d="M7436 1696 L7436 1073" stroke="currentColor" stroke-width="18" />
                           </g>
                           <g id="amjnudu" class="accid" />
                        </g>
                     </g>
                     <g id="m-025c7059-d62c-4fa6-a8f4-0fb229b7a2af" class="beam">
                        <polygon points="7877,1190 8511,1190 8511,1280 7877,1280" />
                        <polygon points="7877,1325 8202,1325 8202,1415 7877,1415" />
                        <g id="m-abb1a843-a7e8-40e2-9035-580e01240e09" class="note">
                           <g class="notehead">
                              <use xlink:href="#E0A9-i3lkev" x="7687" y="1775" height="720px" width="720px" />
                           </g>
                           <g id="sftcppu" class="stem">
                              <path d="M7886 1696 L7886 1208" stroke="currentColor" stroke-width="18" />
                           </g>
                           <g id="adn04s2" class="accid" />
                        </g>
                        <g id="m-7372a88f-cbce-4d46-96ba-4da617f80553" class="note">
                           <g class="notehead">
                              <use xlink:href="#E0A9-i3lkev" x="8003" y="1775" height="720px" width="720px" />
                           </g>
                           <g id="s1i3kfwp" class="stem">
                              <path d="M8202 1696 L8202 1208" stroke="currentColor" stroke-width="18" />
                           </g>
                           <g id="abqiwf8" class="accid" />
                        </g>
                        <g id="m-24a196b2-4a45-46ed-83c9-c0b12cf9bda6" class="note">
                           <g class="notehead">
                              <use xlink:href="#E0A9-i3lkev" x="8303" y="1775" height="720px" width="720px" />
                           </g>
                           <g id="swncik6" class="stem">
                              <path d="M8502 1696 L8502 1208" stroke="currentColor" stroke-width="18" />
                           </g>
                           <g id="agv3ie0" class="accid" />
                        </g>
                     </g>
                     <g id="m-f633b06a-3f92-4b0d-82ee-1817f8d5bd3d" class="beam">
                        <polygon points="8943,1190 9577,1190 9577,1280 8943,1280" />
                        <polygon points="8943,1325 9268,1325 9268,1415 8943,1415" />
                        <g id="m-5ce170a1-7322-46d1-9c7d-854bdc7634bb" class="note">
                           <g class="notehead">
                              <use xlink:href="#E0A9-i3lkev" x="8753" y="1775" height="720px" width="720px" />
                           </g>
                           <g id="s1uw6fdu" class="stem">
                              <path d="M8952 1696 L8952 1208" stroke="currentColor" stroke-width="18" />
                           </g>
                           <g id="ae6sfn0" class="accid" />
                        </g>
                        <g id="m-17a9ada0-89e0-41ee-914a-a4417ff59c51" class="note">
                           <g class="notehead">
                              <use xlink:href="#E0A9-i3lkev" x="9069" y="1775" height="720px" width="720px" />
                           </g>
                           <g id="sg6s4d2" class="stem">
                              <path d="M9268 1696 L9268 1208" stroke="currentColor" stroke-width="18" />
                           </g>
                           <g id="adhsmc2" class="accid" />
                        </g>
                        <g id="m-dda9781b-ab15-4412-837a-30fd5f6781bd" class="note">
                           <g class="notehead">
                              <use xlink:href="#E0A9-i3lkev" x="9369" y="1775" height="720px" width="720px" />
                           </g>
                           <g id="s1ofd25" class="stem">
                              <path d="M9568 1696 L9568 1208" stroke="currentColor" stroke-width="18" />
                           </g>
                           <g id="a1och9b" class="accid" />
                        </g>
                     </g>
                  </g>
                  <g id="m-6a93acf3-4bfc-45e8-a737-92fff3aeeac7" class="layer">
                     <g id="m-b6745fe5-58d3-4995-b7ca-cec502248a16" class="beam">
                        <polygon points="5449,3440 6217,3440 6217,3350 5449,3350" />
                        <polygon points="5991,3305 6217,3305 6217,3215 5991,3215" />
                        <g id="m-ad502c72-1629-4d19-9823-cdc35134f7e0" class="note">
                           <g class="notehead">
                              <use xlink:href="#E0A4-i3lkev" x="5449" y="2855" height="720px" width="720px" />
                           </g>
                           <g id="dp7gkmy" class="dots">
                              <ellipse cx="5765" cy="2855" rx="36" ry="36" />
                           </g>
                           <g id="sk2kexz" class="stem">
                              <path d="M5458 2883 L5458 3422" stroke="currentColor" stroke-width="18" />
                           </g>
                        </g>
                        <g id="m-829f5158-3cf8-4f81-b842-e751c9b63ea7" class="note">
                           <g class="notehead">
                              <use xlink:href="#E0A4-i3lkev" x="6199" y="2855" height="720px" width="720px" />
                           </g>
                           <g id="shovfd2" class="stem">
                              <path d="M6208 2883 L6208 3422" stroke="currentColor" stroke-width="18" />
                           </g>
                        </g>
                     </g>
                     <g id="m-c8fdc5b0-e042-4842-97c7-b460ec37fb10" class="beam">
                        <polygon points="6515,3125 7255,3305 7255,3215 6515,3035" />
                        <g id="m-8ae54238-dd51-4798-85e2-b049470265eb" class="note">
                           <g class="notehead">
                              <use xlink:href="#E0A4-i3lkev" x="6515" y="2405" height="720px" width="720px" />
                           </g>
                           <g id="sbmi76h" class="stem">
                              <path d="M6524 2433 L6524 3107" stroke="currentColor" stroke-width="18" />
                           </g>
                           <g id="a1yj614y" class="accid" />
                        </g>
                        <g id="m-86dde67e-6725-4893-aa24-b69be85d71b4" class="note">
                           <g class="notehead">
                              <use xlink:href="#E0A4-i3lkev" x="7237" y="2855" height="720px" width="720px" />
                           </g>
                           <g id="s1jxxn31" class="stem">
                              <path d="M7246 2883 L7246 3287" stroke="currentColor" stroke-width="18" />
                           </g>
                        </g>
                     </g>
                     <g id="m-e4bc9a75-4303-444f-aebf-bf72e728087d" class="beam">
                        <polygon points="7687,3305 8321,3305 8321,3215 7687,3215" />
                        <g id="m-4c2fe2bb-c938-4336-9245-6dd6681d8a66" class="note">
                           <g class="notehead">
                              <use xlink:href="#E0A4-i3lkev" x="7687" y="2855" height="720px" width="720px" />
                           </g>
                           <g id="s7wijc6" class="stem">
                              <path d="M7696 2883 L7696 3287" stroke="currentColor" stroke-width="18" />
                           </g>
                        </g>
                        <g id="m-e37b5f71-1bd1-4eb1-8cb2-a3736a6858a1" class="note">
                           <g class="notehead">
                              <use xlink:href="#E0A4-i3lkev" x="8303" y="2855" height="720px" width="720px" />
                           </g>
                           <g id="s1te97dm" class="stem">
                              <path d="M8312 2883 L8312 3287" stroke="currentColor" stroke-width="18" />
                           </g>
                        </g>
                     </g>
                     <g id="m-2d2facac-5218-4654-8f93-a07c32439b34" class="beam">
                        <polygon points="8753,3125 9387,3305 9387,3215 8753,3035" />
                        <g id="m-3c6fa5e0-9721-46c7-9ff6-97bd518816db" class="note">
                           <g class="notehead">
                              <use xlink:href="#E0A4-i3lkev" x="8753" y="2405" height="720px" width="720px" />
                           </g>
                           <g id="sr78pbe" class="stem">
                              <path d="M8762 2433 L8762 3107" stroke="currentColor" stroke-width="18" />
                           </g>
                           <g id="ao2yq21" class="accid" />
                        </g>
                        <g id="m-92597ee7-c4e7-4497-a178-b4066e12269f" class="note">
                           <g class="notehead">
                              <use xlink:href="#E0A4-i3lkev" x="9369" y="2855" height="720px" width="720px" />
                           </g>
                           <g id="s1b6u24" class="stem">
                              <path d="M9378 2883 L9378 3287" stroke="currentColor" stroke-width="18" />
                           </g>
                        </g>
                     </g>
                  </g>
               </g>
               <g id="b1khgpwd" class="barLine">
                  <path d="M9819 2045 L9819 2765" stroke="currentColor" stroke-width="27" />
               </g>
            </g>
            <g id="ski4t6h" class="systemMilestoneEnd m-527405b1-3119-45a5-984c-7008a0cfe5c3" />
         </g>
         <g id="p1btts44" class="pageMilestoneEnd m-14389c61-af56-4089-8bc3-06ae57fe9378" />
         <g id="p9ixopq" class="pageMilestoneEnd m-c109d6a0-63d9-41c9-9a59-fc670182ed5e" />
         <g id="p1gg1fal" class="pgHead autogenerated">
            <text font-size="0px">
               <tspan id="r1dvt0eu" class="rend" x="10000" y="415" text-anchor="middle">
                  <title class="labelAttr">title</title>
                  <tspan id="r6u44c5" class="rend">
                     <tspan id="t19fdfjw" class="text">
                        <tspan font-size="607px">23_rock_92_beat_4-4</tspan>
                     </tspan>
                  </tspan>
                  <tspan id="l1le2c6l" class="lb" />
                  <tspan id="r1it31tw" class="rend">
                     <tspan id="tgw7yax" class="text" x="10000" y="805">
                        <tspan font-size="324px">23_rock_92_beat_4-4</tspan>
                     </tspan>
                  </tspan>
               </tspan>
            </text>
         </g>
         <g id="p1wjogjy" class="pgFoot autogenerated">
            <g id="f1bi3g5q" class="fig">
               <g class="svg" transform="translate(7750, 28099) scale(10.000000, 10.000000)">
                  <g>
                     <path fill="#00000" d="M 17.11278,49.26451 V 10.367554 h 12.696511 c 3.288815,7.336676 6.71267,14.610456 10.127281,21.888976 3.419998,-7.484684 6.255515,-14.204887 9.58887,-21.909915 2.436207,0.103726 4.316952,0.08453 6.484294,-0.05808 V 49.264423 H 50.274275 C 50.145222,38.35639 50.016136,27.448368 49.887066,16.540329 45.003488,27.315459 39.967448,38.433564 35.083854,49.208695 34.678996,49.343717 34.426583,49.135619 34.021726,49.270644 29.46588,39.330716 24.910049,29.390805 20.354201,19.450876 20.224341,29.388756 20.09461,39.326619 19.964815,49.264497 H 17.11278 Z M 36.754144,39.324695 C 32.721221,30.512695 28.6883,21.700679 24.655394,12.888662 22.530527,12.750737 22.656775,12.71031 20.714356,12.813974 v 0.966497 c 4.612938,9.99784 9.609439,20.748709 13.87298,30.081745 0.722248,-1.512523 1.444528,-3.025014 2.166808,-4.537521 z m 25.738417,9.939815 c 0,-12.965651 0,-25.931305 0,-38.896956 10.084388,0 20.168791,0 30.253178,0 0,0.960416 0,1.920849 0,2.881265 -6.482825,0 -12.965652,0 -19.448478,0 0,4.802097 0,9.604178 0,14.406277 5.52241,0 11.044819,0 16.567229,0 0,0.960415 0,1.920832 0,2.881248 -5.52241,0 -11.044819,0 -16.567229,0 0,5.282306 0,10.564611 0,15.846917 6.963035,0 13.926068,0 20.889103,0 0,0.960416 0,1.920832 0,2.881249 -10.564597,0 -21.129207,0 -31.693803,0 z m 4.321874,-2.160937 c 0,-11.765131 0,-23.530263 0,-35.295394 -0.720312,0 -1.440625,0 -2.160937,0 0,11.765131 0,23.530263 0,35.295394 0.720312,0 1.440625,0 2.160937,0 z m 32.41413,2.160937 c 0,-12.965651 0,-25.931305 0,-38.896956 2.401045,0 4.802095,0 7.203135,0 0,12.965651 0,25.931305 0,38.896956 -2.40104,0 -4.80209,0 -7.203135,0 z m 2.881265,-2.160937 c 0,-11.765131 0,-23.530263 0,-35.295394 -0.72031,0 -1.44064,0 -2.160953,0 0,11.765131 0,23.530263 0,35.295394 0.720313,0 1.440643,0 2.160953,0 z" />
                     <path fill="#00000" d="m 346.3,6.7 c -3.1,0.5 -4.9,4.4 -2.7,6.8 1.2,1.4 2.7,2.4 4.1,3.5 -2.4,5.3 -7.7,8.3 -11.9,12.1 -3.7,2.8 -7,6.2 -9.7,9.9 -2.2,-0.8 -0.3,-6.8 -0.6,-9.5 0.1,-3.1 0.7,-6.4 2.9,-8.7 1.3,-1.9 3,-3.5 4.5,-5.2 1.2,-3.4 -3.2,-4.9 -5.8,-4.6 -7.3,-0.5 -14.6,2 -20,6.8 -5,4.6 -10,10.1 -11.5,17 -0.9,3.5 -0.2,7.5 2.8,9.9 2.5,2.8 7.4,2.9 9.8,-0.2 1.7,-2.3 3.2,-4.8 3.8,-7.6 -0.1,-2.6 -4.4,-2.3 -4.3,0.2 1.2,2.4 -0.9,4.7 -2.7,6.2 -1.7,0.9 -4.7,0.7 -4.8,-1.7 -1,-5.8 2.1,-11.3 5.2,-16.1 4,-5.8 9.8,-11.2 17.2,-11.8 1.6,0 8.1,-1.2 6.8,1.4 -2.8,2.8 -5.6,6.1 -6,10.3 -1.6,7.7 0.1,15.7 -2.3,23.2 -1.1,3.9 2,2.6 2.5,0.2 3.3,-7.4 8.9,-13.4 15.1,-18.5 4.2,-3.9 9.5,-7.1 11.9,-12.6 1.3,-3.6 1.2,-9 -2.7,-10.9 -0.6,-0.2 -1.2,-0.3 -1.8,-0.3 z m 66,14.5 c -2,0.8 -1.8,4.9 0.8,4.4 3.4,0.4 2.9,-6.2 -0.8,-4.4 z m 0.6,7.3 c -1.3,0.5 -7.6,0.5 -5.4,2.2 4,-0.3 0.7,4.5 0.6,6.7 -0.4,2.9 -2.4,5.9 -1.2,8.8 2.7,1.7 5.6,-0.8 6.8,-3.2 1.6,-1.4 -0.5,-3 -1.2,-0.9 -0.4,0.8 -2.4,3.5 -2.6,1.8 1.1,-5 2.7,-9.9 3.9,-14.9 l -0.1,-0.5 h -0.9 z m -65.1,0.2 c -6.5,1.6 -10.5,9.5 -8.2,15.7 2.1,3.4 7.4,2.9 10.1,0.4 2,-0.2 3.6,-5.3 1,-3.4 -1.4,2 -4,4.2 -6.5,2.8 -2.2,-1.9 -1.9,-5.7 1.7,-5.3 3.1,-0.9 6.9,-2.1 8.1,-5.5 0.9,-2.7 -1.6,-5.2 -4.3,-4.8 h -1.1 -0.7 z m 13.6,0 c -2.2,0 -8.5,1.8 -2.9,2.3 0.9,1.9 -1,4.9 -1.1,7.2 -0.5,2.9 -1.4,5.7 -1.7,8.7 3.7,0.7 3.8,-2.6 4.4,-5.3 0.9,-3.3 1.6,-7 4.1,-9.5 2.4,1.6 6.8,-0.7 3.7,-3.4 -2.9,-0.5 -4.8,2.4 -6.2,4.3 0,-1.2 2.4,-5 -0.2,-4.3 z m 15.8,0 c -6.4,1.3 -9.6,9.1 -7.7,14.9 1.9,4 7.7,3.9 11,1.7 4.1,-3 6,-8.9 4.4,-13.7 -1.3,-3 -4.8,-3.2 -7.6,-3 z m 17,0 c -2.3,0 -8.8,1.9 -3,2.4 0.4,2.5 -1,5.7 -1.4,8.4 -0.7,2.4 -1.8,7.5 2.1,7.2 3.8,-0.1 6.5,-3.5 8.5,-6.3 2,-3.2 4.5,-7 3.3,-10.9 -3.7,-3 -3.6,2.6 -3.1,5.1 -0.7,3.8 -2.7,7.9 -6.2,9.8 -3.6,0.6 -1,-4.3 -0.8,-6.1 0.6,-3.2 1.6,-6.3 1.9,-9.5 -0.4,0 -0.8,0 -1.1,0 z m 30.6,0 c -6.3,1.2 -9.5,8.9 -7.8,14.7 1.5,4 7.2,4.2 10.5,2.4 4.6,-2.8 6.6,-9.3 4.8,-14.3 -1.4,-2.8 -4.8,-3 -7.5,-2.8 z m -75.4,1.7 c 2.1,1.5 0.2,4.7 -1.6,5.7 -1.1,0.4 -5.5,3.4 -4.6,0.7 0.8,-2.7 2.2,-6.2 5.3,-6.6 l 0.9,0.1 z m 30.8,0 c 2.6,1.5 1.3,5.2 0.8,7.6 -0.8,2.7 -1.9,5.9 -4.7,7.1 -5.1,0.8 -4,-5.8 -2.8,-8.8 1,-2.8 3,-6.8 6.7,-5.8 z m 47.1,-0.1 c 2.9,0.7 2,4.7 1.5,6.8 -0.7,3 -1.8,6.7 -5,8 -4.7,0.8 -4,-5.1 -3,-7.9 0.9,-3 2.7,-7.3 6.5,-6.8 z m -88.1,5.9 c -0.3,1.3 0.9,-0.6 0,0 z m -1.1,2.4 c -0.2,0.5 0.5,-0.1 0,0 z m -1.3,4.5 c -0.3,1.3 0.8,-0.2 0,0 z" />
                     <text y="41" x="201" fill="#00000" style="font-style:italic;font-weight:normal;font-size:30px;line-height:125%;font-family:Times;text-anchor:middle" xml:space="preserve">engraved with</text>
                  </g>
               </g>
            </g>
         </g>
      </g>
   </svg>
</svg>
