<?xml version="1.0" encoding="UTF-8" standalone="no"?>
<svg width="2100px" height="2970px" version="1.1" xmlns="http://www.w3.org/2000/svg" xmlns:xlink="http://www.w3.org/1999/xlink" xmlns:mei="http://www.music-encoding.org/ns/mei" overflow="visible">
   <desc>Engraved by Verovio 4.4.0-66ab39c</desc>
   <defs>
      <symbol id="E4E3-1fff2bl" viewBox="0 0 1000 1000" overflow="inherit">
         <path transform="scale(1,-1)" d="M0 -115v105c0 9 1 10 10 10h280c9 0 10 -1 10 -10v-105c0 -9 -1 -10 -10 -10h-280c-9 0 -10 1 -10 10z" />
      </symbol>
      <symbol id="E069-1fff2bl" viewBox="0 0 1000 1000" overflow="inherit">
         <path transform="scale(1,-1)" d="M200 250h125v-500h-125v500zM0 250h125v-500h-125v500z" />
      </symbol>
      <symbol id="E0A4-1fff2bl" viewBox="0 0 1000 1000" overflow="inherit">
         <path transform="scale(1,-1)" d="M0 -39c0 68 73 172 200 172c66 0 114 -37 114 -95c0 -84 -106 -171 -218 -171c-64 0 -96 30 -96 94z" />
      </symbol>
      <symbol id="E240-1fff2bl" viewBox="0 0 1000 1000" overflow="inherit">
         <path transform="scale(1,-1)" d="M179 -646c15 29 29 55 46 102c18 49 30 108 30 138c0 105 -80 173 -168 200c-18 5 -47 9 -87 16v190h22c8 0 33 -61 71 -95c4 -3 -2 3 61 -56c62 -58 122 -137 122 -241c0 -38 -13 -106 -35 -163c-20 -51 -43 -99 -66 -132c-6 -5 -10 -7 -13 -7s-5 2 -5 5l4 10 c1 3 14 25 18 33z" />
      </symbol>
      <symbol id="E4E5-1fff2bl" viewBox="0 0 1000 1000" overflow="inherit">
         <path transform="scale(1,-1)" d="M107 292c-13 24 -30 49 -52 71c-1 1 0 2 0 3l-2 2c3 3 4 4 6 4c12 0 26 -7 40 -20s44 -40 89 -81c26 -24 28 -29 46 -47c4 -4 8 -9 10 -14c6 -8 8 -16 8 -27c0 -19 -12 -40 -36 -61c-28 -23 -49 -38 -61 -73c-4 -11 -7 -27 -10 -50c13 -43 34 -83 59 -121 c31 -47 59 -79 101 -129c-8 0 -26 7 -54 20l-62 29l-21 6l-23 1c-25 0 -45 -10 -60 -30l-4 -14l-1 -12c0 -33 20 -56 39 -78c8 -9 17 -18 26 -26c17 -15 27 -24 28 -30l-3 -3c-11 5 -19 10 -25 15c-9 3 -37 21 -45 26c-24 14 -45 32 -63 51c-19 21 -37 44 -37 71 c0 63 27 95 80 95c41 0 86 -18 136 -52c-19 26 -37 48 -55 66c-23 23 -48 44 -73 65c-28 23 -47 40 -58 53s-17 26 -18 39c75 64 113 125 113 183c0 27 -7 48 -18 68z" />
      </symbol>
      <symbol id="E4E7-1fff2bl" viewBox="0 0 1000 1000" overflow="inherit">
         <path transform="scale(1,-1)" d="M133 -111c0 -33 -21 -50 -52 -55c10 -3 18 -4 25 -4c40 0 69 24 90 47l66 197c-36 -18 -64 -25 -112 -25c-23 0 -38 3 -45 8c-37 7 -55 27 -55 59c8 35 30 54 68 58c45 -6 49 -13 64 -48c0 -3 1 -5 1 -7c0 -27 -25 -46 -52 -49c6 -4 15 -6 26 -6c32 2 62 14 88 29 c32 19 44 36 59 71l7 1l10 2h4c-72 -220 -143 -439 -215 -659h-37l108 324c-20 -13 -51 -20 -82 -20c-21 0 -35 4 -43 10c-37 6 -55 26 -55 58c8 35 31 56 68 60c43 -8 48 -13 64 -51z" />
      </symbol>
      <symbol id="E222-1fff2bl" viewBox="0 0 1000 1000" overflow="inherit">
         <path transform="scale(1,-1)" d="M-163 -200l326 150v-100l-326 -150v100zM-163 150l326 150v-100l-326 -150v100zM-163 -25l326 150v-100l-326 -150v100z" />
      </symbol>
      <symbol id="E084-1fff2bl" viewBox="0 0 1000 1000" overflow="inherit">
         <path transform="scale(1,-1)" d="M20 -78c84 97 114 180 134 329h170c-13 -32 -82 -132 -99 -151l-84 -97c-33 -36 -59 -63 -80 -81h162v102l127 123v-225h57v-39h-57v-34c0 -43 19 -65 57 -65v-34h-244v36c48 0 60 26 60 70v27h-203v39z" />
      </symbol>
   </defs>
   <style type="text/css">g.page-margin{font-family:Times,serif;} g.ending, g.fing, g.reh, g.tempo{font-weight:bold;} g.dir, g.dynam, g.mNum{font-style:italic;} g.label{font-weight:normal;}</style>
   <svg class="definition-scale" color="black" viewBox="0 0 21000 29700">
      <g class="page-margin" transform="translate(500, 500)">
         <g id="m-866bbe08-029d-497b-a3a5-44c0612f4ddb" class="mdiv pageMilestone" />
         <g id="m-4eb7e6b0-0bfe-4ce6-9ac5-60b9749c81d8" class="score pageMilestone" />
         <g id="sfralyn" class="system">
            <g id="m-aaa9c47a-867f-4caa-ba46-2f15472ba6c0" class="section systemMilestone" />
            <g id="m-c4cd3b65-52ba-4dfd-a0d1-c166c53be912" class="measure">
               <g id="m-0ddb2ed9-6d27-4671-a1b6-e70eedf7ceb5" class="staff">
                  <path d="M0 1595 L5884 1595" stroke="currentColor" stroke-width="13" />
                  <path d="M0 1775 L5884 1775" stroke="currentColor" stroke-width="13" />
                  <path d="M0 1955 L5884 1955" stroke="currentColor" stroke-width="13" />
                  <path d="M0 2135 L5884 2135" stroke="currentColor" stroke-width="13" />
                  <path d="M0 2315 L5884 2315" stroke="currentColor" stroke-width="13" />
                  <g id="cbrq62m" class="clef">
                     <use xlink:href="#E069-1fff2bl" x="90" y="1955" height="720px" width="720px" />
                  </g>
                  <g id="k1ignulr" class="keySig" />
                  <g id="m1844cbo" class="meterSig">
                     <use xlink:href="#E084-1fff2bl" x="490" y="1775" height="720px" width="720px" />
                     <use xlink:href="#E084-1fff2bl" x="490" y="2135" height="720px" width="720px" />
                  </g>
                  <g id="m-da5f6327-344a-4cd8-ad2f-6094f38363ef" class="layer">
                     <g id="m-b3ab194d-7118-4f70-96fe-23c99adb8011" class="rest">
                        <use xlink:href="#E4E3-1fff2bl" x="1052" y="1415" height="720px" width="720px" />
                        <g class="ledgerLines">
                           <path d="M1004 1415 L1316 1415" stroke="currentColor" stroke-width="22" />
                        </g>
                     </g>
                  </g>
                  <g id="m-7e36bf78-3bfb-4f29-9871-7fab5ed9f698" class="layer">
                     <g id="m-000696a6-d324-428c-8444-115e24f82935" class="rest">
                        <use xlink:href="#E4E5-1fff2bl" x="1052" y="2315" height="720px" width="720px" />
                     </g>
                     <g id="m-aafd01dd-2e72-42be-9077-6a58125d27ef" class="rest">
                        <use xlink:href="#E4E7-1fff2bl" x="1742" y="2135" height="720px" width="720px" />
                     </g>
                     <g id="m-3f768cb1-3ce8-4136-a6fb-100a2c7a47ce" class="beam">
                        <polygon points="2065,2675 3031,2675 3031,2585 2065,2585" />
                        <polygon points="2065,2540 2390,2540 2390,2450 2065,2450" />
                        <polygon points="2390,2540 2706,2540 2706,2450 2390,2450" />
                        <polygon points="2706,2540 3031,2540 3031,2450 2706,2450" />
                        <polygon points="2065,2405 2390,2405 2390,2315 2065,2315" />
                        <g id="m-57d8fab4-83ec-4205-9700-91507049313b" class="note">
                           <g class="notehead">
                              <use xlink:href="#E0A4-1fff2bl" x="2065" y="1955" height="720px" width="720px" />
                           </g>
                           <g id="s1n85726" class="stem">
                              <path d="M2074 1983 L2074 2657" stroke="currentColor" stroke-width="18" />
                           </g>
                           <g id="a118lsjh" class="accid" />
                        </g>
                        <g id="m-a58a68ea-487f-440f-ac0a-1a15ba5f0da7" class="note">
                           <g class="notehead">
                              <use xlink:href="#E0A4-1fff2bl" x="2381" y="1955" height="720px" width="720px" />
                           </g>
                           <g id="sm7yuv5" class="stem">
                              <path d="M2390 1983 L2390 2657" stroke="currentColor" stroke-width="18" />
                           </g>
                           <g id="afxkzvw" class="accid" />
                        </g>
                        <g id="m-9d91f85c-5d6f-4960-849c-4920860e998e" class="note">
                           <g class="notehead">
                              <use xlink:href="#E0A4-1fff2bl" x="2697" y="1955" height="720px" width="720px" />
                           </g>
                           <g id="s851c9a" class="stem">
                              <path d="M2706 1983 L2706 2657" stroke="currentColor" stroke-width="18" />
                           </g>
                           <g id="a1w13mia" class="accid" />
                        </g>
                        <g id="m-5bbae140-41b0-4289-abc3-780240af89fb" class="note">
                           <g class="notehead">
                              <use xlink:href="#E0A4-1fff2bl" x="3013" y="1955" height="720px" width="720px" />
                           </g>
                           <g id="sudsyxy" class="stem">
                              <path d="M3022 1983 L3022 2657" stroke="currentColor" stroke-width="18" />
                           </g>
                           <g id="a140xymw" class="accid" />
                        </g>
                     </g>
                     <g id="m-e55b4cfb-77a6-4b5b-bc4b-05ff86ccbb94" class="beam">
                        <polygon points="3329,2540 4295,2540 4295,2450 3329,2450" />
                        <polygon points="3329,2405 3654,2405 3654,2315 3329,2315" />
                        <polygon points="3654,2405 3970,2405 3970,2315 3654,2315" />
                        <polygon points="3970,2405 4295,2405 4295,2315 3970,2315" />
                        <g id="m-95a93cff-34aa-49b6-bacb-92dfd5ed77d9" class="note">
                           <g class="notehead">
                              <use xlink:href="#E0A4-1fff2bl" x="3329" y="1955" height="720px" width="720px" />
                           </g>
                           <g id="s1lillqb" class="stem">
                              <path d="M3338 1983 L3338 2522" stroke="currentColor" stroke-width="18" />
                           </g>
                           <g id="azxu867" class="accid" />
                        </g>
                        <g id="m-63e83e7f-a8dc-4d14-8699-74cb5d106241" class="note">
                           <g class="notehead">
                              <use xlink:href="#E0A4-1fff2bl" x="3645" y="1955" height="720px" width="720px" />
                           </g>
                           <g id="shn8gh6" class="stem">
                              <path d="M3654 1983 L3654 2522" stroke="currentColor" stroke-width="18" />
                           </g>
                           <g id="a1mwsx9i" class="accid" />
                        </g>
                        <g id="m-c1b0d64e-83ad-406f-a240-96fba947cfc9" class="note">
                           <g class="notehead">
                              <use xlink:href="#E0A4-1fff2bl" x="3961" y="1685" height="720px" width="720px" />
                           </g>
                           <g id="sp229ln" class="stem">
                              <path d="M3970 1713 L3970 2522" stroke="currentColor" stroke-width="18" />
                           </g>
                           <g id="a110c33x" class="accid" />
                        </g>
                        <g id="m-385c4e5c-3e12-4491-bb22-d7c6c2aa2e90" class="note">
                           <g class="notehead">
                              <use xlink:href="#E0A4-1fff2bl" x="4277" y="1955" height="720px" width="720px" />
                           </g>
                           <g id="so63jpm" class="stem">
                              <path d="M4286 1983 L4286 2522" stroke="currentColor" stroke-width="18" />
                           </g>
                           <g id="a1x2q6up" class="accid" />
                        </g>
                     </g>
                     <g id="m-144be82b-707e-4aec-a4f5-8372bd9e2530" class="beam">
                        <polygon points="4593,2540 5559,2540 5559,2450 4593,2450" />
                        <polygon points="4593,2405 4918,2405 4918,2315 4593,2315" />
                        <polygon points="4918,2405 5234,2405 5234,2315 4918,2315" />
                        <polygon points="5234,2405 5559,2405 5559,2315 5234,2315" />
                        <g id="m-8cd58ece-5975-411e-b178-12dbbf86ddd4" class="note">
                           <g class="notehead">
                              <use xlink:href="#E0A4-1fff2bl" x="4593" y="1955" height="720px" width="720px" />
                           </g>
                           <g id="scjfyiw" class="stem">
                              <path d="M4602 1983 L4602 2522" stroke="currentColor" stroke-width="18" />
                           </g>
                           <g id="a1e0wiwq" class="accid" />
                        </g>
                        <g id="m-672e3de8-931c-44c8-b203-1550ab89e980" class="note">
                           <g class="notehead">
                              <use xlink:href="#E0A4-1fff2bl" x="4909" y="1955" height="720px" width="720px" />
                           </g>
                           <g id="sndmzca" class="stem">
                              <path d="M4918 1983 L4918 2522" stroke="currentColor" stroke-width="18" />
                           </g>
                           <g id="a1hsnvid" class="accid" />
                        </g>
                        <g id="m-9c3c90d3-6aa9-4cb2-b015-4cb253583f57" class="note">
                           <g class="notehead">
                              <use xlink:href="#E0A4-1fff2bl" x="5225" y="1955" height="720px" width="720px" />
                           </g>
                           <g id="s4olmun" class="stem">
                              <path d="M5234 1983 L5234 2522" stroke="currentColor" stroke-width="18" />
                           </g>
                           <g id="alju4zo" class="accid" />
                        </g>
                        <g id="m-d9d260cd-06ed-4bb3-b968-a59bd3be6348" class="note">
                           <g class="notehead">
                              <use xlink:href="#E0A4-1fff2bl" x="5541" y="1685" height="720px" width="720px" />
                           </g>
                           <g id="s1odjvj5" class="stem">
                              <path d="M5550 1713 L5550 2522" stroke="currentColor" stroke-width="18" />
                           </g>
                           <g id="aagwqxv" class="accid" />
                        </g>
                     </g>
                  </g>
               </g>
               <g id="b1vm9xsh" class="barLine">
                  <path d="M5871 1595 L5871 2315" stroke="currentColor" stroke-width="27" />
               </g>
            </g>
            <g id="m-89e61761-a27c-486d-9a8b-133c4a32f68f" class="measure">
               <g id="m-3880f834-e8ba-44ee-9b31-c300dcda9af5" class="staff">
                  <path d="M5884 1595 L11407 1595" stroke="currentColor" stroke-width="13" />
                  <path d="M5884 1775 L11407 1775" stroke="currentColor" stroke-width="13" />
                  <path d="M5884 1955 L11407 1955" stroke="currentColor" stroke-width="13" />
                  <path d="M5884 2135 L11407 2135" stroke="currentColor" stroke-width="13" />
                  <path d="M5884 2315 L11407 2315" stroke="currentColor" stroke-width="13" />
                  <g id="m-0dbb6a6a-0a31-4edd-bf6d-afc6b0f9b53b" class="layer">
                     <g id="m-8e3613c3-ed6d-4ad1-9d8e-45d1e7e5f86f" class="rest">
                        <use xlink:href="#E4E3-1fff2bl" x="6064" y="1415" height="720px" width="720px" />
                        <g class="ledgerLines">
                           <path d="M6016 1415 L6328 1415" stroke="currentColor" stroke-width="22" />
                        </g>
                     </g>
                  </g>
                  <g id="m-89c4af14-4a40-4e56-aa5b-98e2929107c9" class="layer">
                     <g id="m-c87766c0-79f9-4425-8656-f3ab2aee8b2f" class="beam">
                        <polygon points="6064,2990 7030,2990 7030,2900 6064,2900" />
                        <polygon points="6064,2855 6389,2855 6389,2765 6064,2765" />
                        <polygon points="6389,2855 6705,2855 6705,2765 6389,2765" />
                        <polygon points="6705,2855 7030,2855 7030,2765 6705,2765" />
                        <g id="m-2f30689d-651d-4f39-8888-fb528942545d" class="note">
                           <g class="notehead">
                              <use xlink:href="#E0A4-1fff2bl" x="6064" y="1775" height="720px" width="720px" />
                           </g>
                           <g id="s1py6rre" class="stem">
                              <path d="M6073 1803 L6073 2972" stroke="currentColor" stroke-width="18" />
                           </g>
                        </g>
                        <g id="m-28bbed51-1820-4d60-a088-e28cc9a1471a" class="note">
                           <g class="notehead">
                              <use xlink:href="#E0A4-1fff2bl" x="6380" y="1685" height="720px" width="720px" />
                           </g>
                           <g id="s1pr8jx0" class="stem">
                              <path d="M6389 1713 L6389 2972" stroke="currentColor" stroke-width="18" />
                           </g>
                           <g id="a1y9q22e" class="accid" />
                        </g>
                        <g id="m-91601210-bdb0-4abe-a9d2-b3311df97dae" class="note">
                           <g class="notehead">
                              <use xlink:href="#E0A4-1fff2bl" x="6696" y="2405" height="720px" width="720px" />
                           </g>
                           <g id="s1n8polf" class="stem">
                              <path d="M6705 2433 L6705 2972" stroke="currentColor" stroke-width="18" />
                           </g>
                        </g>
                        <g id="m-4c4f4b37-b1b4-4798-8479-ccb63c6b13ac" class="note">
                           <g class="notehead">
                              <use xlink:href="#E0A4-1fff2bl" x="7012" y="2405" height="720px" width="720px" />
                           </g>
                           <g id="sc33x31" class="stem">
                              <path d="M7021 2433 L7021 2972" stroke="currentColor" stroke-width="18" />
                           </g>
                        </g>
                     </g>
                     <g id="m-f9b68eb5-a00d-46ea-81f3-e9b21d7497ac" class="beam">
                        <polygon points="7328,2540 8294,2540 8294,2450 7328,2450" />
                        <polygon points="7328,2405 7653,2405 7653,2315 7328,2315" />
                        <polygon points="7653,2405 7969,2405 7969,2315 7653,2315" />
                        <polygon points="7969,2405 8294,2405 8294,2315 7969,2315" />
                        <g id="m-9728f84e-46f9-4ef8-8c01-d59e0c620d6d" class="note">
                           <g class="notehead">
                              <use xlink:href="#E0A4-1fff2bl" x="7328" y="1955" height="720px" width="720px" />
                           </g>
                           <g id="sefsoqh" class="stem">
                              <path d="M7337 1983 L7337 2522" stroke="currentColor" stroke-width="18" />
                           </g>
                           <g id="a1ipzk89" class="accid" />
                        </g>
                        <g id="m-77509dc3-8d66-4188-878b-d1a4b27f9b4c" class="note">
                           <g class="notehead">
                              <use xlink:href="#E0A4-1fff2bl" x="7644" y="1955" height="720px" width="720px" />
                           </g>
                           <g id="s13tzzxe" class="stem">
                              <path d="M7653 1983 L7653 2522" stroke="currentColor" stroke-width="18" />
                           </g>
                           <g id="aocs5p5" class="accid" />
                        </g>
                        <g id="m-5990f447-6bd8-4579-884a-e06df27f6d02" class="note">
                           <g class="notehead">
                              <use xlink:href="#E0A4-1fff2bl" x="7960" y="1955" height="720px" width="720px" />
                           </g>
                           <g id="s1jzrqm0" class="stem">
                              <path d="M7969 1983 L7969 2522" stroke="currentColor" stroke-width="18" />
                           </g>
                           <g id="a4zi38v" class="accid" />
                        </g>
                        <g id="m-10c1c8f8-d35e-4e63-9eed-b1d324598a01" class="note">
                           <g class="notehead">
                              <use xlink:href="#E0A4-1fff2bl" x="8276" y="1955" height="720px" width="720px" />
                           </g>
                           <g id="s1xclxmo" class="stem">
                              <path d="M8285 1983 L8285 2522" stroke="currentColor" stroke-width="18" />
                           </g>
                           <g id="a1b8bg3l" class="accid" />
                        </g>
                     </g>
                     <g id="m-ec9ffab4-f038-4108-995f-0d94ca6b8d94" class="beam">
                        <polygon points="8592,3080 10039,3080 10039,2990 8592,2990" />
                        <polygon points="8592,2945 8917,2945 8917,2855 8592,2855" />
                        <polygon points="8917,2945 9341,2945 9341,2855 8917,2855" />
                        <polygon points="9341,2945 9714,2945 9714,2855 9341,2855" />
                        <polygon points="9714,2945 10039,2945 10039,2855 9714,2855" />
                        <polygon points="8917,2810 9341,2810 9341,2720 8917,2720" />
                        <g id="m-25841135-238c-44a1-9c38-6632d888b42a" class="note">
                           <g class="notehead">
                              <use xlink:href="#E0A4-1fff2bl" x="8592" y="1685" height="720px" width="720px" />
                           </g>
                           <g id="s1mx2xon" class="stem">
                              <path d="M8601 1713 L8601 3062" stroke="currentColor" stroke-width="18" />
                           </g>
                           <g id="au5tp5t" class="accid" />
                        </g>
                        <g id="m-6e786c7e-d35c-48ac-acad-a5baeed2410a" class="note">
                           <g class="notehead">
                              <use xlink:href="#E0A4-1fff2bl" x="8908" y="1955" height="720px" width="720px" />
                           </g>
                           <g id="sp7t06y" class="stem">
                              <path d="M8917 1983 L8917 3062" stroke="currentColor" stroke-width="18" />
                           </g>
                           <g id="a1xg53pu" class="accid" />
                        </g>
                        <g id="m-3a3ee1b0-72db-4379-bac3-5e38b2bb9da6" class="note">
                           <g class="notehead">
                              <use xlink:href="#E0A4-1fff2bl" x="9332" y="1955" height="720px" width="720px" />
                           </g>
                           <g id="sdaafi5" class="stem">
                              <path d="M9341 1983 L9341 3062" stroke="currentColor" stroke-width="18" />
                              <use xlink:href="#E222-1fff2bl" x="9341" y="2441" height="720px" width="720px" />
                           </g>
                           <g id="a12tkrg1" class="accid" />
                        </g>
                        <g id="m-88f7db27-f620-42be-a2ab-96c81dee8b32" class="note">
                           <g class="notehead">
                              <use xlink:href="#E0A4-1fff2bl" x="9705" y="1955" height="720px" width="720px" />
                           </g>
                           <g id="s1xutplz" class="stem">
                              <path d="M9714 1983 L9714 3062" stroke="currentColor" stroke-width="18" />
                           </g>
                           <g id="a1amckml" class="accid" />
                        </g>
                        <g id="m-85be74a7-ebcb-4ec1-bbb1-65ad04057c06" class="note">
                           <g class="notehead">
                              <use xlink:href="#E0A4-1fff2bl" x="10021" y="1955" height="720px" width="720px" />
                           </g>
                           <g id="s17r5wae" class="stem">
                              <path d="M10030 1983 L10030 3062" stroke="currentColor" stroke-width="18" />
                           </g>
                           <g id="a1a8mtc8" class="accid" />
                        </g>
                     </g>
                     <g id="m-f78fc5a4-e19b-4572-89e5-4e44ff64bb32" class="note">
                        <g class="notehead">
                           <use xlink:href="#E0A4-1fff2bl" x="10337" y="1955" height="540px" width="540px" />
                        </g>
                        <g id="s14cvfk5" class="stem">
                           <path d="M10497 1934 L10497 1505" stroke="currentColor" stroke-width="18" />
                           <g id="f1wbqd40" class="flag">
                              <use xlink:href="#E240-1fff2bl" x="10488" y="1505" height="540px" width="540px" />
                           </g>
                        </g>
                        <g id="amwv3li" class="accid" />
                     </g>
                     <g id="m-5b88ea37-0936-4bf2-b553-b1e0a4eac31a" class="note">
                        <g class="notehead">
                           <use xlink:href="#E0A4-1fff2bl" x="10704" y="1685" height="720px" width="720px" />
                        </g>
                        <g id="s1nnic44" class="stem">
                           <path d="M10713 1713 L10713 2315" stroke="currentColor" stroke-width="18" />
                        </g>
                        <g id="acbyj72" class="accid" />
                     </g>
                  </g>
               </g>
               <g id="b1c7scod" class="barLine">
                  <path d="M11394 1595 L11394 2315" stroke="currentColor" stroke-width="27" />
               </g>
            </g>
            <g id="s1hhpa5s" class="systemMilestoneEnd m-aaa9c47a-867f-4caa-ba46-2f15472ba6c0" />
         </g>
         <g id="paf61li" class="pageMilestoneEnd m-4eb7e6b0-0bfe-4ce6-9ac5-60b9749c81d8" />
         <g id="pl74l3f" class="pageMilestoneEnd m-866bbe08-029d-497b-a3a5-44c0612f4ddb" />
         <g id="pha4pj0" class="pgHead autogenerated">
            <text font-size="0px">
               <tspan id="roxg786" class="rend" x="10000" y="415" text-anchor="middle">
                  <title class="labelAttr">title</title>
                  <tspan id="r7g2o62" class="rend">
                     <tspan id="t1q295y4" class="text">
                        <tspan font-size="607px">3_rock_120_beat_4-4</tspan>
                     </tspan>
                  </tspan>
                  <tspan id="l10zpv47" class="lb" />
                  <tspan id="r1juow0t" class="rend">
                     <tspan id="tgjjgul" class="text" x="10000" y="805">
                        <tspan font-size="324px">3_rock_120_beat_4-4</tspan>
                     </tspan>
                  </tspan>
               </tspan>
            </text>
         </g>
         <g id="p1pr7dlz" class="pgFoot autogenerated">
            <g id="fwxndym" class="fig">
               <g class="svg" transform="translate(7750, 28099) scale(10.000000, 10.000000)">
                  <g>
                     <path fill="#00000" d="M 17.11278,49.26451 V 10.367554 h 12.696511 c 3.288815,7.336676 6.71267,14.610456 10.127281,21.888976 3.419998,-7.484684 6.255515,-14.204887 9.58887,-21.909915 2.436207,0.103726 4.316952,0.08453 6.484294,-0.05808 V 49.264423 H 50.274275 C 50.145222,38.35639 50.016136,27.448368 49.887066,16.540329 45.003488,27.315459 39.967448,38.433564 35.083854,49.208695 34.678996,49.343717 34.426583,49.135619 34.021726,49.270644 29.46588,39.330716 24.910049,29.390805 20.354201,19.450876 20.224341,29.388756 20.09461,39.326619 19.964815,49.264497 H 17.11278 Z M 36.754144,39.324695 C 32.721221,30.512695 28.6883,21.700679 24.655394,12.888662 22.530527,12.750737 22.656775,12.71031 20.714356,12.813974 v 0.966497 c 4.612938,9.99784 9.609439,20.748709 13.87298,30.081745 0.722248,-1.512523 1.444528,-3.025014 2.166808,-4.537521 z m 25.738417,9.939815 c 0,-12.965651 0,-25.931305 0,-38.896956 10.084388,0 20.168791,0 30.253178,0 0,0.960416 0,1.920849 0,2.881265 -6.482825,0 -12.965652,0 -19.448478,0 0,4.802097 0,9.604178 0,14.406277 5.52241,0 11.044819,0 16.567229,0 0,0.960415 0,1.920832 0,2.881248 -5.52241,0 -11.044819,0 -16.567229,0 0,5.282306 0,10.564611 0,15.846917 6.963035,0 13.926068,0 20.889103,0 0,0.960416 0,1.920832 0,2.881249 -10.564597,0 -21.129207,0 -31.693803,0 z m 4.321874,-2.160937 c 0,-11.765131 0,-23.530263 0,-35.295394 -0.720312,0 -1.440625,0 -2.160937,0 0,11.765131 0,23.530263 0,35.295394 0.720312,0 1.440625,0 2.160937,0 z m 32.41413,2.160937 c 0,-12.965651 0,-25.931305 0,-38.896956 2.401045,0 4.802095,0 7.203135,0 0,12.965651 0,25.931305 0,38.896956 -2.40104,0 -4.80209,0 -7.203135,0 z m 2.881265,-2.160937 c 0,-11.765131 0,-23.530263 0,-35.295394 -0.72031,0 -1.44064,0 -2.160953,0 0,11.765131 0,23.530263 0,35.295394 0.720313,0 1.440643,0 2.160953,0 z" />
                     <path fill="#00000" d="m 346.3,6.7 c -3.1,0.5 -4.9,4.4 -2.7,6.8 1.2,1.4 2.7,2.4 4.1,3.5 -2.4,5.3 -7.7,8.3 -11.9,12.1 -3.7,2.8 -7,6.2 -9.7,9.9 -2.2,-0.8 -0.3,-6.8 -0.6,-9.5 0.1,-3.1 0.7,-6.4 2.9,-8.7 1.3,-1.9 3,-3.5 4.5,-5.2 1.2,-3.4 -3.2,-4.9 -5.8,-4.6 -7.3,-0.5 -14.6,2 -20,6.8 -5,4.6 -10,10.1 -11.5,17 -0.9,3.5 -0.2,7.5 2.8,9.9 2.5,2.8 7.4,2.9 9.8,-0.2 1.7,-2.3 3.2,-4.8 3.8,-7.6 -0.1,-2.6 -4.4,-2.3 -4.3,0.2 1.2,2.4 -0.9,4.7 -2.7,6.2 -1.7,0.9 -4.7,0.7 -4.8,-1.7 -1,-5.8 2.1,-11.3 5.2,-16.1 4,-5.8 9.8,-11.2 17.2,-11.8 1.6,0 8.1,-1.2 6.8,1.4 -2.8,2.8 -5.6,6.1 -6,10.3 -1.6,7.7 0.1,15.7 -2.3,23.2 -1.1,3.9 2,2.6 2.5,0.2 3.3,-7.4 8.9,-13.4 15.1,-18.5 4.2,-3.9 9.5,-7.1 11.9,-12.6 1.3,-3.6 1.2,-9 -2.7,-10.9 -0.6,-0.2 -1.2,-0.3 -1.8,-0.3 z m 66,14.5 c -2,0.8 -1.8,4.9 0.8,4.4 3.4,0.4 2.9,-6.2 -0.8,-4.4 z m 0.6,7.3 c -1.3,0.5 -7.6,0.5 -5.4,2.2 4,-0.3 0.7,4.5 0.6,6.7 -0.4,2.9 -2.4,5.9 -1.2,8.8 2.7,1.7 5.6,-0.8 6.8,-3.2 1.6,-1.4 -0.5,-3 -1.2,-0.9 -0.4,0.8 -2.4,3.5 -2.6,1.8 1.1,-5 2.7,-9.9 3.9,-14.9 l -0.1,-0.5 h -0.9 z m -65.1,0.2 c -6.5,1.6 -10.5,9.5 -8.2,15.7 2.1,3.4 7.4,2.9 10.1,0.4 2,-0.2 3.6,-5.3 1,-3.4 -1.4,2 -4,4.2 -6.5,2.8 -2.2,-1.9 -1.9,-5.7 1.7,-5.3 3.1,-0.9 6.9,-2.1 8.1,-5.5 0.9,-2.7 -1.6,-5.2 -4.3,-4.8 h -1.1 -0.7 z m 13.6,0 c -2.2,0 -8.5,1.8 -2.9,2.3 0.9,1.9 -1,4.9 -1.1,7.2 -0.5,2.9 -1.4,5.7 -1.7,8.7 3.7,0.7 3.8,-2.6 4.4,-5.3 0.9,-3.3 1.6,-7 4.1,-9.5 2.4,1.6 6.8,-0.7 3.7,-3.4 -2.9,-0.5 -4.8,2.4 -6.2,4.3 0,-1.2 2.4,-5 -0.2,-4.3 z m 15.8,0 c -6.4,1.3 -9.6,9.1 -7.7,14.9 1.9,4 7.7,3.9 11,1.7 4.1,-3 6,-8.9 4.4,-13.7 -1.3,-3 -4.8,-3.2 -7.6,-3 z m 17,0 c -2.3,0 -8.8,1.9 -3,2.4 0.4,2.5 -1,5.7 -1.4,8.4 -0.7,2.4 -1.8,7.5 2.1,7.2 3.8,-0.1 6.5,-3.5 8.5,-6.3 2,-3.2 4.5,-7 3.3,-10.9 -3.7,-3 -3.6,2.6 -3.1,5.1 -0.7,3.8 -2.7,7.9 -6.2,9.8 -3.6,0.6 -1,-4.3 -0.8,-6.1 0.6,-3.2 1.6,-6.3 1.9,-9.5 -0.4,0 -0.8,0 -1.1,0 z m 30.6,0 c -6.3,1.2 -9.5,8.9 -7.8,14.7 1.5,4 7.2,4.2 10.5,2.4 4.6,-2.8 6.6,-9.3 4.8,-14.3 -1.4,-2.8 -4.8,-3 -7.5,-2.8 z m -75.4,1.7 c 2.1,1.5 0.2,4.7 -1.6,5.7 -1.1,0.4 -5.5,3.4 -4.6,0.7 0.8,-2.7 2.2,-6.2 5.3,-6.6 l 0.9,0.1 z m 30.8,0 c 2.6,1.5 1.3,5.2 0.8,7.6 -0.8,2.7 -1.9,5.9 -4.7,7.1 -5.1,0.8 -4,-5.8 -2.8,-8.8 1,-2.8 3,-6.8 6.7,-5.8 z m 47.1,-0.1 c 2.9,0.7 2,4.7 1.5,6.8 -0.7,3 -1.8,6.7 -5,8 -4.7,0.8 -4,-5.1 -3,-7.9 0.9,-3 2.7,-7.3 6.5,-6.8 z m -88.1,5.9 c -0.3,1.3 0.9,-0.6 0,0 z m -1.1,2.4 c -0.2,0.5 0.5,-0.1 0,0 z m -1.3,4.5 c -0.3,1.3 0.8,-0.2 0,0 z" />
                     <text y="41" x="201" fill="#00000" style="font-style:italic;font-weight:normal;font-size:30px;line-height:125%;font-family:Times;text-anchor:middle" xml:space="preserve">engraved with</text>
                  </g>
               </g>
            </g>
         </g>
      </g>
   </svg>
</svg>
