<?xml version="1.0" encoding="UTF-8" standalone="no"?>
<svg width="2100px" height="2970px" version="1.1" xmlns="http://www.w3.org/2000/svg" xmlns:xlink="http://www.w3.org/1999/xlink" xmlns:mei="http://www.music-encoding.org/ns/mei" overflow="visible">
   <desc>Engraved by Verovio 4.4.0-66ab39c</desc>
   <defs>
      <symbol id="E240-1pgvks6" viewBox="0 0 1000 1000" overflow="inherit">
         <path transform="scale(1,-1)" d="M179 -646c15 29 29 55 46 102c18 49 30 108 30 138c0 105 -80 173 -168 200c-18 5 -47 9 -87 16v190h22c8 0 33 -61 71 -95c4 -3 -2 3 61 -56c62 -58 122 -137 122 -241c0 -38 -13 -106 -35 -163c-20 -51 -43 -99 -66 -132c-6 -5 -10 -7 -13 -7s-5 2 -5 5l4 10 c1 3 14 25 18 33z" />
      </symbol>
      <symbol id="E4E7-1pgvks6" viewBox="0 0 1000 1000" overflow="inherit">
         <path transform="scale(1,-1)" d="M133 -111c0 -33 -21 -50 -52 -55c10 -3 18 -4 25 -4c40 0 69 24 90 47l66 197c-36 -18 -64 -25 -112 -25c-23 0 -38 3 -45 8c-37 7 -55 27 -55 59c8 35 30 54 68 58c45 -6 49 -13 64 -48c0 -3 1 -5 1 -7c0 -27 -25 -46 -52 -49c6 -4 15 -6 26 -6c32 2 62 14 88 29 c32 19 44 36 59 71l7 1l10 2h4c-72 -220 -143 -439 -215 -659h-37l108 324c-20 -13 -51 -20 -82 -20c-21 0 -35 4 -43 10c-37 6 -55 26 -55 58c8 35 31 56 68 60c43 -8 48 -13 64 -51z" />
      </symbol>
      <symbol id="E222-1pgvks6" viewBox="0 0 1000 1000" overflow="inherit">
         <path transform="scale(1,-1)" d="M-163 -200l326 150v-100l-326 -150v100zM-163 150l326 150v-100l-326 -150v100zM-163 -25l326 150v-100l-326 -150v100z" />
      </symbol>
      <symbol id="E084-1pgvks6" viewBox="0 0 1000 1000" overflow="inherit">
         <path transform="scale(1,-1)" d="M20 -78c84 97 114 180 134 329h170c-13 -32 -82 -132 -99 -151l-84 -97c-33 -36 -59 -63 -80 -81h162v102l127 123v-225h57v-39h-57v-34c0 -43 19 -65 57 -65v-34h-244v36c48 0 60 26 60 70v27h-203v39z" />
      </symbol>
      <symbol id="E0A4-1pgvks6" viewBox="0 0 1000 1000" overflow="inherit">
         <path transform="scale(1,-1)" d="M0 -39c0 68 73 172 200 172c66 0 114 -37 114 -95c0 -84 -106 -171 -218 -171c-64 0 -96 30 -96 94z" />
      </symbol>
      <symbol id="E4E3-1pgvks6" viewBox="0 0 1000 1000" overflow="inherit">
         <path transform="scale(1,-1)" d="M0 -115v105c0 9 1 10 10 10h280c9 0 10 -1 10 -10v-105c0 -9 -1 -10 -10 -10h-280c-9 0 -10 1 -10 10z" />
      </symbol>
      <symbol id="E069-1pgvks6" viewBox="0 0 1000 1000" overflow="inherit">
         <path transform="scale(1,-1)" d="M200 250h125v-500h-125v500zM0 250h125v-500h-125v500z" />
      </symbol>
   </defs>
   <style type="text/css">g.page-margin{font-family:Times,serif;} g.ending, g.fing, g.reh, g.tempo{font-weight:bold;} g.dir, g.dynam, g.mNum{font-style:italic;} g.label{font-weight:normal;}</style>
   <svg class="definition-scale" color="black" viewBox="0 0 21000 29700">
      <g class="page-margin" transform="translate(500, 500)">
         <g id="m-8e49b32f-8aa6-480c-aa8d-b5e9c6e446b2" class="mdiv pageMilestone" />
         <g id="m-4ed58ae0-5417-4a6b-8119-77025ffb0cfe" class="score pageMilestone" />
         <g id="s16c9y2o" class="system">
            <g id="m-3fb06129-3aa1-4ceb-ab70-7a9b5b83864d" class="section systemMilestone" />
            <g id="m-2ba86636-a3c2-4086-ad91-c960841c70a0" class="measure">
               <g id="m-b7eae478-219f-49de-b705-6127b6c83458" class="staff">
                  <path d="M0 1595 L5849 1595" stroke="currentColor" stroke-width="13" />
                  <path d="M0 1775 L5849 1775" stroke="currentColor" stroke-width="13" />
                  <path d="M0 1955 L5849 1955" stroke="currentColor" stroke-width="13" />
                  <path d="M0 2135 L5849 2135" stroke="currentColor" stroke-width="13" />
                  <path d="M0 2315 L5849 2315" stroke="currentColor" stroke-width="13" />
                  <g id="c1m5cwsr" class="clef">
                     <use xlink:href="#E069-1pgvks6" x="90" y="1955" height="720px" width="720px" />
                  </g>
                  <g id="k1l7wfdr" class="keySig" />
                  <g id="ml0z0d4" class="meterSig">
                     <use xlink:href="#E084-1pgvks6" x="490" y="1775" height="720px" width="720px" />
                     <use xlink:href="#E084-1pgvks6" x="490" y="2135" height="720px" width="720px" />
                  </g>
                  <g id="m-773c29b0-ba54-4480-a9fd-bd7f8868054c" class="layer">
                     <g id="m-e7a3932c-ad09-44b1-b1d0-38e4ae45e3c7" class="rest">
                        <use xlink:href="#E4E3-1pgvks6" x="1052" y="1415" height="720px" width="720px" />
                        <g class="ledgerLines">
                           <path d="M1004 1415 L1316 1415" stroke="currentColor" stroke-width="22" />
                        </g>
                     </g>
                  </g>
                  <g id="m-06a9909d-a953-4695-bb00-a75e1bac83d7" class="layer">
                     <g id="m-fcc21205-0933-4df4-adb8-4d611e3488e0" class="beam">
                        <polygon points="1052,3035 2018,2855 2018,2765 1052,2945" />
                        <polygon points="1052,2900 1377,2840 1377,2750 1052,2810" />
                        <polygon points="1377,2840 1693,2780 1693,2690 1377,2750" />
                        <polygon points="1693,2780 2018,2720 2018,2630 1693,2690" />
                        <g id="m-b3dd82c9-69bf-4e5e-b5e0-0e91c9b7e916" class="note">
                           <g class="notehead">
                              <use xlink:href="#E0A4-1pgvks6" x="1052" y="2405" height="720px" width="720px" />
                           </g>
                           <g id="s13l0awl" class="stem">
                              <path d="M1061 2433 L1061 3017" stroke="currentColor" stroke-width="18" />
                           </g>
                        </g>
                        <g id="m-b4644e2a-560f-4696-9576-b191fe14cfcf" class="note">
                           <g class="notehead">
                              <use xlink:href="#E0A4-1pgvks6" x="1368" y="1955" height="720px" width="720px" />
                           </g>
                           <g id="sxjgxav" class="stem">
                              <path d="M1377 1983 L1377 2957" stroke="currentColor" stroke-width="18" />
                           </g>
                           <g id="a12xhdbk" class="accid" />
                        </g>
                        <g id="m-b956da65-ddc6-4074-b2dd-26b7131531a9" class="note">
                           <g class="notehead">
                              <use xlink:href="#E0A4-1pgvks6" x="1684" y="1955" height="720px" width="720px" />
                           </g>
                           <g id="s1om4niw" class="stem">
                              <path d="M1693 1983 L1693 2897" stroke="currentColor" stroke-width="18" />
                           </g>
                           <g id="a160esle" class="accid" />
                        </g>
                        <g id="m-871c7a29-efe5-4a9f-884c-159f09329d8d" class="note">
                           <g class="notehead">
                              <use xlink:href="#E0A4-1pgvks6" x="2000" y="1955" height="720px" width="720px" />
                           </g>
                           <g id="slu04xw" class="stem">
                              <path d="M2009 1983 L2009 2837" stroke="currentColor" stroke-width="18" />
                           </g>
                           <g id="a1qm7l3k" class="accid" />
                        </g>
                     </g>
                     <g id="m-c2b33f69-c05b-4c46-8cdd-b8211f0ffecc" class="beam">
                        <polygon points="2424,2810 3125,2810 3125,2720 2424,2720" />
                        <g id="m-a131456b-0aa8-4b91-8f48-833b0a2729d9" class="note">
                           <g class="notehead">
                              <use xlink:href="#E0A4-1pgvks6" x="2424" y="1955" height="720px" width="720px" />
                           </g>
                           <g id="s1yfkbck" class="stem">
                              <path d="M2433 1983 L2433 2792" stroke="currentColor" stroke-width="18" />
                              <use xlink:href="#E222-1pgvks6" x="2433" y="2441" height="720px" width="720px" />
                           </g>
                           <g id="a15za9oo" class="accid" />
                        </g>
                        <g id="m-2f6bfbbb-dbd6-4e9d-a08f-f3149fded679" class="note">
                           <g class="notehead">
                              <use xlink:href="#E0A4-1pgvks6" x="2740" y="1955" height="540px" width="540px" />
                           </g>
                           <g id="s130g86h" class="stem">
                              <path d="M2900 1934 L2900 1505" stroke="currentColor" stroke-width="18" />
                              <g id="flecl6b" class="flag">
                                 <use xlink:href="#E240-1pgvks6" x="2891" y="1505" height="540px" width="540px" />
                              </g>
                           </g>
                           <g id="ag9wbe" class="accid" />
                        </g>
                        <g id="m-a819a68a-74a8-4f1b-ba04-e57b60ac9a2a" class="note">
                           <g class="notehead">
                              <use xlink:href="#E0A4-1pgvks6" x="3107" y="1955" height="720px" width="720px" />
                           </g>
                           <g id="sat3dk2" class="stem">
                              <path d="M3116 1983 L3116 2792" stroke="currentColor" stroke-width="18" />
                           </g>
                           <g id="a11vzigz" class="accid" />
                        </g>
                     </g>
                     <g id="m-84d45fc2-f7be-40ea-801b-013cd8fac0ed" class="rest">
                        <use xlink:href="#E4E7-1pgvks6" x="3557" y="2135" height="720px" width="720px" />
                     </g>
                     <g id="m-7e5fc46c-86e2-465d-b1ec-b92541f58cfa" class="beam">
                        <polygon points="3880,2810 4322,2810 4322,2720 3880,2720" />
                        <polygon points="3880,2675 4106,2675 4106,2585 3880,2585" />
                        <g id="m-32368b8a-b520-4da2-8167-3c69d98db6c3" class="note">
                           <g class="notehead">
                              <use xlink:href="#E0A4-1pgvks6" x="3880" y="1955" height="720px" width="720px" />
                           </g>
                           <g id="s1x3qz7j" class="stem">
                              <path d="M3889 1983 L3889 2792" stroke="currentColor" stroke-width="18" />
                           </g>
                           <g id="a1b0zpue" class="accid" />
                        </g>
                        <g id="m-00cbba51-677c-400a-9c02-65cdb5354173" class="note">
                           <g class="notehead">
                              <use xlink:href="#E0A4-1pgvks6" x="4304" y="1955" height="720px" width="720px" />
                           </g>
                           <g id="s1uhmwoe" class="stem">
                              <path d="M4313 1983 L4313 2792" stroke="currentColor" stroke-width="18" />
                              <use xlink:href="#E222-1pgvks6" x="4313" y="2441" height="720px" width="720px" />
                           </g>
                           <g id="afr3lmc" class="accid" />
                        </g>
                     </g>
                     <g id="m-47e1b761-e75a-4ded-91ac-bc6ef83e704e" class="beam">
                        <polygon points="4754,2585 5404,2405 5404,2315 4754,2495" />
                        <polygon points="4754,2450 5079,2360 5079,2270 4754,2360" />
                        <g id="m-56cfbe74-dd03-40d0-ba9b-ca8ab145ac1f" class="note">
                           <g class="notehead">
                              <use xlink:href="#E0A4-1pgvks6" x="4754" y="1955" height="720px" width="720px" />
                           </g>
                           <g id="s1bp49ux" class="stem">
                              <path d="M4763 1983 L4763 2567" stroke="currentColor" stroke-width="18" />
                           </g>
                           <g id="a12y0bdt" class="accid" />
                        </g>
                        <g id="m-de48dfd6-6bc5-4351-b5a5-8a6a11016b5c" class="note">
                           <g class="notehead">
                              <use xlink:href="#E0A4-1pgvks6" x="5070" y="1685" height="720px" width="720px" />
                           </g>
                           <g id="s17km8ne" class="stem">
                              <path d="M5079 1713 L5079 2477" stroke="currentColor" stroke-width="18" />
                           </g>
                           <g id="a9705d8" class="accid" />
                        </g>
                        <g id="m-e05f7a49-7943-4d13-a0e4-ec49fd1b20b7" class="note">
                           <g class="notehead">
                              <use xlink:href="#E0A4-1pgvks6" x="5386" y="1775" height="720px" width="720px" />
                           </g>
                           <g id="s124tomz" class="stem">
                              <path d="M5395 1803 L5395 2387" stroke="currentColor" stroke-width="18" />
                           </g>
                        </g>
                     </g>
                  </g>
               </g>
               <g id="bmgz55k" class="barLine">
                  <path d="M5836 1595 L5836 2315" stroke="currentColor" stroke-width="27" />
               </g>
            </g>
            <g id="s1yw4aud" class="systemMilestoneEnd m-3fb06129-3aa1-4ceb-ab70-7a9b5b83864d" />
         </g>
         <g id="p1fwrv57" class="pageMilestoneEnd m-4ed58ae0-5417-4a6b-8119-77025ffb0cfe" />
         <g id="px3zcnp" class="pageMilestoneEnd m-8e49b32f-8aa6-480c-aa8d-b5e9c6e446b2" />
         <g id="p11s2vzj" class="pgHead autogenerated">
            <text font-size="0px">
               <tspan id="ru69eyg" class="rend" x="10000" y="415" text-anchor="middle">
                  <title class="labelAttr">title</title>
                  <tspan id="rcahg6n" class="rend">
                     <tspan id="t15035zo" class="text">
                        <tspan font-size="607px">27_rock_120_beat_4-4</tspan>
                     </tspan>
                  </tspan>
                  <tspan id="l1hhyjnh" class="lb" />
                  <tspan id="rtqbziq" class="rend">
                     <tspan id="t1ri6mbu" class="text" x="10000" y="805">
                        <tspan font-size="324px">27_rock_120_beat_4-4</tspan>
                     </tspan>
                  </tspan>
               </tspan>
            </text>
         </g>
         <g id="pfuxotr" class="pgFoot autogenerated">
            <g id="fh2t6pv" class="fig">
               <g class="svg" transform="translate(7750, 28099) scale(10.000000, 10.000000)">
                  <g>
                     <path fill="#00000" d="M 17.11278,49.26451 V 10.367554 h 12.696511 c 3.288815,7.336676 6.71267,14.610456 10.127281,21.888976 3.419998,-7.484684 6.255515,-14.204887 9.58887,-21.909915 2.436207,0.103726 4.316952,0.08453 6.484294,-0.05808 V 49.264423 H 50.274275 C 50.145222,38.35639 50.016136,27.448368 49.887066,16.540329 45.003488,27.315459 39.967448,38.433564 35.083854,49.208695 34.678996,49.343717 34.426583,49.135619 34.021726,49.270644 29.46588,39.330716 24.910049,29.390805 20.354201,19.450876 20.224341,29.388756 20.09461,39.326619 19.964815,49.264497 H 17.11278 Z M 36.754144,39.324695 C 32.721221,30.512695 28.6883,21.700679 24.655394,12.888662 22.530527,12.750737 22.656775,12.71031 20.714356,12.813974 v 0.966497 c 4.612938,9.99784 9.609439,20.748709 13.87298,30.081745 0.722248,-1.512523 1.444528,-3.025014 2.166808,-4.537521 z m 25.738417,9.939815 c 0,-12.965651 0,-25.931305 0,-38.896956 10.084388,0 20.168791,0 30.253178,0 0,0.960416 0,1.920849 0,2.881265 -6.482825,0 -12.965652,0 -19.448478,0 0,4.802097 0,9.604178 0,14.406277 5.52241,0 11.044819,0 16.567229,0 0,0.960415 0,1.920832 0,2.881248 -5.52241,0 -11.044819,0 -16.567229,0 0,5.282306 0,10.564611 0,15.846917 6.963035,0 13.926068,0 20.889103,0 0,0.960416 0,1.920832 0,2.881249 -10.564597,0 -21.129207,0 -31.693803,0 z m 4.321874,-2.160937 c 0,-11.765131 0,-23.530263 0,-35.295394 -0.720312,0 -1.440625,0 -2.160937,0 0,11.765131 0,23.530263 0,35.295394 0.720312,0 1.440625,0 2.160937,0 z m 32.41413,2.160937 c 0,-12.965651 0,-25.931305 0,-38.896956 2.401045,0 4.802095,0 7.203135,0 0,12.965651 0,25.931305 0,38.896956 -2.40104,0 -4.80209,0 -7.203135,0 z m 2.881265,-2.160937 c 0,-11.765131 0,-23.530263 0,-35.295394 -0.72031,0 -1.44064,0 -2.160953,0 0,11.765131 0,23.530263 0,35.295394 0.720313,0 1.440643,0 2.160953,0 z" />
                     <path fill="#00000" d="m 346.3,6.7 c -3.1,0.5 -4.9,4.4 -2.7,6.8 1.2,1.4 2.7,2.4 4.1,3.5 -2.4,5.3 -7.7,8.3 -11.9,12.1 -3.7,2.8 -7,6.2 -9.7,9.9 -2.2,-0.8 -0.3,-6.8 -0.6,-9.5 0.1,-3.1 0.7,-6.4 2.9,-8.7 1.3,-1.9 3,-3.5 4.5,-5.2 1.2,-3.4 -3.2,-4.9 -5.8,-4.6 -7.3,-0.5 -14.6,2 -20,6.8 -5,4.6 -10,10.1 -11.5,17 -0.9,3.5 -0.2,7.5 2.8,9.9 2.5,2.8 7.4,2.9 9.8,-0.2 1.7,-2.3 3.2,-4.8 3.8,-7.6 -0.1,-2.6 -4.4,-2.3 -4.3,0.2 1.2,2.4 -0.9,4.7 -2.7,6.2 -1.7,0.9 -4.7,0.7 -4.8,-1.7 -1,-5.8 2.1,-11.3 5.2,-16.1 4,-5.8 9.8,-11.2 17.2,-11.8 1.6,0 8.1,-1.2 6.8,1.4 -2.8,2.8 -5.6,6.1 -6,10.3 -1.6,7.7 0.1,15.7 -2.3,23.2 -1.1,3.9 2,2.6 2.5,0.2 3.3,-7.4 8.9,-13.4 15.1,-18.5 4.2,-3.9 9.5,-7.1 11.9,-12.6 1.3,-3.6 1.2,-9 -2.7,-10.9 -0.6,-0.2 -1.2,-0.3 -1.8,-0.3 z m 66,14.5 c -2,0.8 -1.8,4.9 0.8,4.4 3.4,0.4 2.9,-6.2 -0.8,-4.4 z m 0.6,7.3 c -1.3,0.5 -7.6,0.5 -5.4,2.2 4,-0.3 0.7,4.5 0.6,6.7 -0.4,2.9 -2.4,5.9 -1.2,8.8 2.7,1.7 5.6,-0.8 6.8,-3.2 1.6,-1.4 -0.5,-3 -1.2,-0.9 -0.4,0.8 -2.4,3.5 -2.6,1.8 1.1,-5 2.7,-9.9 3.9,-14.9 l -0.1,-0.5 h -0.9 z m -65.1,0.2 c -6.5,1.6 -10.5,9.5 -8.2,15.7 2.1,3.4 7.4,2.9 10.1,0.4 2,-0.2 3.6,-5.3 1,-3.4 -1.4,2 -4,4.2 -6.5,2.8 -2.2,-1.9 -1.9,-5.7 1.7,-5.3 3.1,-0.9 6.9,-2.1 8.1,-5.5 0.9,-2.7 -1.6,-5.2 -4.3,-4.8 h -1.1 -0.7 z m 13.6,0 c -2.2,0 -8.5,1.8 -2.9,2.3 0.9,1.9 -1,4.9 -1.1,7.2 -0.5,2.9 -1.4,5.7 -1.7,8.7 3.7,0.7 3.8,-2.6 4.4,-5.3 0.9,-3.3 1.6,-7 4.1,-9.5 2.4,1.6 6.8,-0.7 3.7,-3.4 -2.9,-0.5 -4.8,2.4 -6.2,4.3 0,-1.2 2.4,-5 -0.2,-4.3 z m 15.8,0 c -6.4,1.3 -9.6,9.1 -7.7,14.9 1.9,4 7.7,3.9 11,1.7 4.1,-3 6,-8.9 4.4,-13.7 -1.3,-3 -4.8,-3.2 -7.6,-3 z m 17,0 c -2.3,0 -8.8,1.9 -3,2.4 0.4,2.5 -1,5.7 -1.4,8.4 -0.7,2.4 -1.8,7.5 2.1,7.2 3.8,-0.1 6.5,-3.5 8.5,-6.3 2,-3.2 4.5,-7 3.3,-10.9 -3.7,-3 -3.6,2.6 -3.1,5.1 -0.7,3.8 -2.7,7.9 -6.2,9.8 -3.6,0.6 -1,-4.3 -0.8,-6.1 0.6,-3.2 1.6,-6.3 1.9,-9.5 -0.4,0 -0.8,0 -1.1,0 z m 30.6,0 c -6.3,1.2 -9.5,8.9 -7.8,14.7 1.5,4 7.2,4.2 10.5,2.4 4.6,-2.8 6.6,-9.3 4.8,-14.3 -1.4,-2.8 -4.8,-3 -7.5,-2.8 z m -75.4,1.7 c 2.1,1.5 0.2,4.7 -1.6,5.7 -1.1,0.4 -5.5,3.4 -4.6,0.7 0.8,-2.7 2.2,-6.2 5.3,-6.6 l 0.9,0.1 z m 30.8,0 c 2.6,1.5 1.3,5.2 0.8,7.6 -0.8,2.7 -1.9,5.9 -4.7,7.1 -5.1,0.8 -4,-5.8 -2.8,-8.8 1,-2.8 3,-6.8 6.7,-5.8 z m 47.1,-0.1 c 2.9,0.7 2,4.7 1.5,6.8 -0.7,3 -1.8,6.7 -5,8 -4.7,0.8 -4,-5.1 -3,-7.9 0.9,-3 2.7,-7.3 6.5,-6.8 z m -88.1,5.9 c -0.3,1.3 0.9,-0.6 0,0 z m -1.1,2.4 c -0.2,0.5 0.5,-0.1 0,0 z m -1.3,4.5 c -0.3,1.3 0.8,-0.2 0,0 z" />
                     <text y="41" x="201" fill="#00000" style="font-style:italic;font-weight:normal;font-size:30px;line-height:125%;font-family:Times;text-anchor:middle" xml:space="preserve">engraved with</text>
                  </g>
               </g>
            </g>
         </g>
      </g>
   </svg>
</svg>
