<?xml version="1.0" encoding="UTF-8" standalone="no"?>
<svg width="2100px" height="2970px" version="1.1" xmlns="http://www.w3.org/2000/svg" xmlns:xlink="http://www.w3.org/1999/xlink" xmlns:mei="http://www.music-encoding.org/ns/mei" overflow="visible">
   <desc>Engraved by Verovio 4.4.0-66ab39c</desc>
   <defs>
      <symbol id="E084-c5lgaf" viewBox="0 0 1000 1000" overflow="inherit">
         <path transform="scale(1,-1)" d="M20 -78c84 97 114 180 134 329h170c-13 -32 -82 -132 -99 -151l-84 -97c-33 -36 -59 -63 -80 -81h162v102l127 123v-225h57v-39h-57v-34c0 -43 19 -65 57 -65v-34h-244v36c48 0 60 26 60 70v27h-203v39z" />
      </symbol>
      <symbol id="E0A4-c5lgaf" viewBox="0 0 1000 1000" overflow="inherit">
         <path transform="scale(1,-1)" d="M0 -39c0 68 73 172 200 172c66 0 114 -37 114 -95c0 -84 -106 -171 -218 -171c-64 0 -96 30 -96 94z" />
      </symbol>
      <symbol id="E0A9-c5lgaf" viewBox="0 0 1000 1000" overflow="inherit">
         <path transform="scale(1,-1)" d="M0 -110c0 4 1 8 5 11l119 99l-119 100c-3 3 -5 8 -5 12c0 6 5 13 12 13c3 0 6 -1 8 -2l124 -105l126 105c2 1 5 2 7 2c6 0 13 -6 13 -14c0 -4 -2 -9 -5 -11l-119 -100l119 -99c3 -3 5 -7 5 -12c0 -6 -5 -14 -13 -14c-2 0 -5 1 -7 3l-126 105l-124 -105c-2 -2 -4 -3 -7 -3 c-8 0 -13 7 -13 15z" />
      </symbol>
      <symbol id="E0B5-c5lgaf" viewBox="0 0 1000 1000" overflow="inherit">
         <path transform="scale(1,-1)" d="M293 -21c0 14 -3 29 -8 44c-3 8 -6 15 -10 22l-55 -45l68 -55c3 11 5 22 5 34zM198 133c102 0 207 -45 207 -133c0 -92 -98 -133 -207 -133c-101 0 -198 46 -198 133c0 88 93 133 198 133zM141 -64c5 -8 12 -15 19 -21c15 -15 36 -23 62 -23c4 0 10 1 18 2 c17 4 29 13 37 25l-79 64zM260 68c-2 3 -5 6 -8 9c-20 21 -43 31 -68 31l-20 -2c-15 -5 -27 -14 -36 -28c0 -1 -1 -1 -1 -2l71 -58zM119 48c-1 -6 -2 -13 -2 -21c0 -15 3 -34 9 -57l3 -9l49 39z" />
      </symbol>
      <symbol id="E069-c5lgaf" viewBox="0 0 1000 1000" overflow="inherit">
         <path transform="scale(1,-1)" d="M200 250h125v-500h-125v500zM0 250h125v-500h-125v500z" />
      </symbol>
   </defs>
   <style type="text/css">g.page-margin{font-family:Times,serif;} g.ending, g.fing, g.reh, g.tempo{font-weight:bold;} g.dir, g.dynam, g.mNum{font-style:italic;} g.label{font-weight:normal;}</style>
   <svg class="definition-scale" color="black" viewBox="0 0 21000 29700">
      <g class="page-margin" transform="translate(500, 500)">
         <g id="m-c14f2e63-3062-48b7-887e-3a240b7b4321" class="mdiv pageMilestone" />
         <g id="m-8159b397-6ffb-4ac5-b4db-ab95105d0a30" class="score pageMilestone" />
         <g id="s170yoxu" class="system">
            <g id="m-9c5cac92-d9b7-4900-abad-9e2642395fc3" class="section systemMilestone" />
            <g id="m-09eebf49-765c-4a2d-a848-a84ff1c3fc4b" class="measure">
               <g id="m-580c9f28-3833-42a1-bb69-bcc9f5b2aaae" class="staff">
                  <path d="M0 1607 L4455 1607" stroke="currentColor" stroke-width="13" />
                  <path d="M0 1787 L4455 1787" stroke="currentColor" stroke-width="13" />
                  <path d="M0 1967 L4455 1967" stroke="currentColor" stroke-width="13" />
                  <path d="M0 2147 L4455 2147" stroke="currentColor" stroke-width="13" />
                  <path d="M0 2327 L4455 2327" stroke="currentColor" stroke-width="13" />
                  <g id="csu9er5" class="clef">
                     <use xlink:href="#E069-c5lgaf" x="90" y="1967" height="720px" width="720px" />
                  </g>
                  <g id="k1j15ssn" class="keySig" />
                  <g id="m1eyyqct" class="meterSig">
                     <use xlink:href="#E084-c5lgaf" x="490" y="1787" height="720px" width="720px" />
                     <use xlink:href="#E084-c5lgaf" x="490" y="2147" height="720px" width="720px" />
                  </g>
                  <g id="m-ecc76326-7dcd-4f0a-bbb7-bcd6b84aaf96" class="layer">
                     <g id="m-6e0a00a0-5652-4038-8feb-c13d6be70722" class="note">
                        <g class="notehead">
                           <use xlink:href="#E0A9-c5lgaf" x="1052" y="1517" height="720px" width="720px" />
                        </g>
                        <g id="s19in8k5" class="stem">
                           <path d="M1251 1438 L1251 1067" stroke="currentColor" stroke-width="18" />
                        </g>
                     </g>
                     <g id="m-7f750e65-f4d7-4c1a-bded-f2b6a3db4ddc" class="note">
                        <g class="notehead">
                           <use xlink:href="#E0A9-c5lgaf" x="1952" y="1517" height="720px" width="720px" />
                        </g>
                        <g id="s1x2c7ij" class="stem">
                           <path d="M2151 1438 L2151 1067" stroke="currentColor" stroke-width="18" />
                        </g>
                     </g>
                     <g id="m-4db34aae-3d6b-420b-9dcd-95520640a8b1" class="note">
                        <g class="notehead">
                           <use xlink:href="#E0A9-c5lgaf" x="2852" y="1517" height="720px" width="720px" />
                        </g>
                        <g id="sdasldq" class="stem">
                           <path d="M3051 1438 L3051 1067" stroke="currentColor" stroke-width="18" />
                        </g>
                     </g>
                     <g id="m-653f0ba6-d6d5-49a5-9898-5b874097ecfb" class="note">
                        <g class="notehead">
                           <use xlink:href="#E0A9-c5lgaf" x="3752" y="1517" height="720px" width="720px" />
                        </g>
                        <g id="s1mwecn5" class="stem">
                           <path d="M3951 1438 L3951 1067" stroke="currentColor" stroke-width="18" />
                        </g>
                     </g>
                  </g>
                  <g id="m-70701bfe-9814-4fb6-8837-0e0a542aaf1b" class="layer">
                     <g id="m-5431608b-b2c2-49e1-aa94-7e73991f8b5b" class="beam">
                        <polygon points="1052,2912 1520,2867 1520,2777 1052,2822" />
                        <g id="m-d3a4a1c4-5bd5-42fc-9a0b-d6aa5445a567" class="note">
                           <g class="notehead">
                              <use xlink:href="#E0A4-c5lgaf" x="1052" y="2417" height="720px" width="720px" />
                           </g>
                           <g id="sup1bav" class="stem">
                              <path d="M1061 2445 L1061 2894" stroke="currentColor" stroke-width="18" />
                           </g>
                        </g>
                        <g id="m-eccbcddd-6215-4f8e-a362-07691fcb5469" class="note">
                           <g class="notehead">
                              <use xlink:href="#E0A4-c5lgaf" x="1502" y="1967" height="720px" width="720px" />
                           </g>
                           <g id="sy7bmwd" class="stem">
                              <path d="M1511 1995 L1511 2849" stroke="currentColor" stroke-width="18" />
                           </g>
                           <g id="a1q11bqm" class="accid" />
                        </g>
                     </g>
                     <g id="m-e257a152-c5c6-4f7c-ad32-8ca58328104d" class="beam">
                        <polygon points="1952,2912 2420,2867 2420,2777 1952,2822" />
                        <g id="m-37a9b073-269a-4860-be8d-41b4259f3648" class="note">
                           <g class="notehead">
                              <use xlink:href="#E0A4-c5lgaf" x="1952" y="2417" height="720px" width="720px" />
                           </g>
                           <g id="s66mg2z" class="stem">
                              <path d="M1961 2445 L1961 2894" stroke="currentColor" stroke-width="18" />
                           </g>
                        </g>
                        <g id="m-27e3659f-d6e6-47de-b05b-20cc3d7628e1" class="note">
                           <g class="notehead">
                              <use xlink:href="#E0A4-c5lgaf" x="2402" y="1967" height="720px" width="720px" />
                           </g>
                           <g id="shrql5q" class="stem">
                              <path d="M2411 1995 L2411 2849" stroke="currentColor" stroke-width="18" />
                           </g>
                           <g id="a1x5xdbj" class="accid" />
                        </g>
                     </g>
                     <g id="m-28793523-7301-4635-99e1-f46433cba8dc" class="beam">
                        <polygon points="2852,2912 3320,2867 3320,2777 2852,2822" />
                        <g id="m-9466de71-5985-4658-b1d5-f99462e06a69" class="note">
                           <g class="notehead">
                              <use xlink:href="#E0A4-c5lgaf" x="2852" y="2417" height="720px" width="720px" />
                           </g>
                           <g id="ssoy19l" class="stem">
                              <path d="M2861 2445 L2861 2894" stroke="currentColor" stroke-width="18" />
                           </g>
                        </g>
                        <g id="m-bce7b74d-3cb2-4be0-9e93-37ccc8a08933" class="note">
                           <g class="notehead">
                              <use xlink:href="#E0A4-c5lgaf" x="3302" y="1967" height="720px" width="720px" />
                           </g>
                           <g id="s1b8xaea" class="stem">
                              <path d="M3311 1995 L3311 2849" stroke="currentColor" stroke-width="18" />
                           </g>
                           <g id="a1k48u1k" class="accid" />
                        </g>
                     </g>
                     <g id="m-3c13c80c-36e8-47df-b231-e3f78fa04c0a" class="note">
                        <g class="notehead">
                           <use xlink:href="#E0A4-c5lgaf" x="3752" y="2417" height="720px" width="720px" />
                        </g>
                        <g id="smbi7fb" class="stem">
                           <path d="M3761 2445 L3761 2867" stroke="currentColor" stroke-width="18" />
                        </g>
                     </g>
                  </g>
               </g>
               <g id="bn3k72o" class="barLine">
                  <path d="M4442 1607 L4442 2327" stroke="currentColor" stroke-width="27" />
               </g>
            </g>
            <g id="m-66c9ff83-85de-4891-bb3b-4a73f5385efe" class="measure">
               <g id="m-cf2d1a98-57d2-4077-a39f-d4ae7cef157e" class="staff">
                  <path d="M4455 1607 L8710 1607" stroke="currentColor" stroke-width="13" />
                  <path d="M4455 1787 L8710 1787" stroke="currentColor" stroke-width="13" />
                  <path d="M4455 1967 L8710 1967" stroke="currentColor" stroke-width="13" />
                  <path d="M4455 2147 L8710 2147" stroke="currentColor" stroke-width="13" />
                  <path d="M4455 2327 L8710 2327" stroke="currentColor" stroke-width="13" />
                  <g id="m-1714e6c4-6287-4902-8239-ba6f514d6fa0" class="layer">
                     <g id="m-3c5bd55d-fde4-406e-aea4-1a06adf1147c" class="note">
                        <g class="notehead">
                           <use xlink:href="#E0B5-c5lgaf" x="4635" y="1517" height="720px" width="720px" />
                        </g>
                     </g>
                  </g>
                  <g id="m-47ebe33d-b4a8-43de-ab9b-485c87d79b87" class="layer">
                     <g id="m-c0b3dd4b-a064-4618-a999-9ae918edb79c" class="note">
                        <g class="notehead">
                           <use xlink:href="#E0A4-c5lgaf" x="4635" y="2417" height="720px" width="720px" />
                        </g>
                        <g id="s1s8qhmu" class="stem">
                           <path d="M4644 2445 L4644 2867" stroke="currentColor" stroke-width="18" />
                        </g>
                     </g>
                     <g id="m-e5b32447-8ddd-4126-9df8-6486dbba7e87" class="beam">
                        <polygon points="5325,2687 6101,2687 6101,2597 5325,2597" />
                        <polygon points="5325,2552 5776,2552 5776,2462 5325,2462" />
                        <polygon points="5550,2417 5776,2417 5776,2327 5550,2327" />
                        <g id="m-b1aa0dfb-9b6c-4e51-adaf-535c2f0f387e" class="note">
                           <g class="notehead">
                              <use xlink:href="#E0A4-c5lgaf" x="5325" y="1967" height="720px" width="720px" />
                           </g>
                           <g id="d1sc17uk" class="dots">
                              <ellipse cx="5641" cy="2057" rx="36" ry="36" />
                           </g>
                           <g id="st5vl7e" class="stem">
                              <path d="M5334 1995 L5334 2669" stroke="currentColor" stroke-width="18" />
                           </g>
                           <g id="a122v25g" class="accid" />
                        </g>
                        <g id="m-dd7707ff-0386-44ef-9c33-2d0ba443b450" class="note">
                           <g class="notehead">
                              <use xlink:href="#E0A4-c5lgaf" x="5767" y="1967" height="720px" width="720px" />
                           </g>
                           <g id="su4puhq" class="stem">
                              <path d="M5776 1995 L5776 2669" stroke="currentColor" stroke-width="18" />
                           </g>
                           <g id="a130gw53" class="accid" />
                        </g>
                        <g id="m-b2c4acc9-24d1-4306-8ab9-aeb4f692d00a" class="note">
                           <g class="notehead">
                              <use xlink:href="#E0A4-c5lgaf" x="6083" y="1967" height="720px" width="720px" />
                           </g>
                           <g id="s13yqthy" class="stem">
                              <path d="M6092 1995 L6092 2669" stroke="currentColor" stroke-width="18" />
                           </g>
                           <g id="a1yds11n" class="accid" />
                        </g>
                     </g>
                     <g id="m-6dd316fa-c83d-4e7e-b73f-78ad1ae32eaa" class="beam">
                        <polygon points="6533,2597 7183,2417 7183,2327 6533,2507" />
                        <polygon points="6533,2462 6858,2372 6858,2282 6533,2372" />
                        <g id="m-9f58f2e0-3d22-44b8-aaa9-3aad43467e4a" class="note">
                           <g class="notehead">
                              <use xlink:href="#E0A4-c5lgaf" x="6533" y="1967" height="720px" width="720px" />
                           </g>
                           <g id="sl3r158" class="stem">
                              <path d="M6542 1995 L6542 2579" stroke="currentColor" stroke-width="18" />
                           </g>
                           <g id="askt4ve" class="accid" />
                        </g>
                        <g id="m-1b819ca2-3ab1-40f2-a287-e52bc4af2ab8" class="note">
                           <g class="notehead">
                              <use xlink:href="#E0A4-c5lgaf" x="6849" y="1697" height="720px" width="720px" />
                           </g>
                           <g id="sihs5kd" class="stem">
                              <path d="M6858 1725 L6858 2489" stroke="currentColor" stroke-width="18" />
                           </g>
                           <g id="a1dzwk62" class="accid" />
                        </g>
                        <g id="m-f0fdd6b1-5340-4c96-9e4f-a2bb1ee51c62" class="note">
                           <g class="notehead">
                              <use xlink:href="#E0A4-c5lgaf" x="7165" y="1697" height="720px" width="720px" />
                           </g>
                           <g id="se3hnvm" class="stem">
                              <path d="M7174 1725 L7174 2399" stroke="currentColor" stroke-width="18" />
                           </g>
                           <g id="atwrk3s" class="accid" />
                        </g>
                     </g>
                     <g id="m-80c9d5dd-dc6b-4b25-946b-994ddc4de8a9" class="beam">
                        <polygon points="7615,2552 8265,2732 8265,2642 7615,2462" />
                        <polygon points="7615,2417 7940,2507 7940,2417 7615,2327" />
                        <g id="m-54a27fc8-99c2-4acb-91ff-ca2c63ef2300" class="note">
                           <g class="notehead">
                              <use xlink:href="#E0A4-c5lgaf" x="7615" y="1787" height="720px" width="720px" />
                           </g>
                           <g id="s15gv7vl" class="stem">
                              <path d="M7624 1815 L7624 2534" stroke="currentColor" stroke-width="18" />
                           </g>
                        </g>
                        <g id="m-ebbb2756-b761-4cae-a60a-11b2df55f0e6" class="note">
                           <g class="notehead">
                              <use xlink:href="#E0A4-c5lgaf" x="7931" y="1787" height="720px" width="720px" />
                           </g>
                           <g id="s1s4j8vz" class="stem">
                              <path d="M7940 1815 L7940 2624" stroke="currentColor" stroke-width="18" />
                           </g>
                        </g>
                        <g id="m-13c2cd95-5724-4a73-af1a-3d8b3bed30ee" class="note">
                           <g class="notehead">
                              <use xlink:href="#E0A4-c5lgaf" x="8247" y="2237" height="720px" width="720px" />
                           </g>
                           <g id="s165gfmm" class="stem">
                              <path d="M8256 2265 L8256 2714" stroke="currentColor" stroke-width="18" />
                           </g>
                        </g>
                     </g>
                  </g>
               </g>
               <g id="bqi38y6" class="barLine">
                  <path d="M8697 1607 L8697 2327" stroke="currentColor" stroke-width="27" />
               </g>
            </g>
            <g id="s1cfrb6t" class="systemMilestoneEnd m-9c5cac92-d9b7-4900-abad-9e2642395fc3" />
         </g>
         <g id="p1t07ah2" class="pageMilestoneEnd m-8159b397-6ffb-4ac5-b4db-ab95105d0a30" />
         <g id="p17pumex" class="pageMilestoneEnd m-c14f2e63-3062-48b7-887e-3a240b7b4321" />
         <g id="p1rr7jg" class="pgHead autogenerated">
            <text font-size="0px">
               <tspan id="rlk844v" class="rend" x="10000" y="418" text-anchor="middle">
                  <title class="labelAttr">title</title>
                  <tspan id="r1xzjjot" class="rend">
                     <tspan id="t1bf8u4l" class="text">
                        <tspan font-size="607px">50_rock_120_beat_4-4</tspan>
                     </tspan>
                  </tspan>
                  <tspan id="lvw82ej" class="lb" />
                  <tspan id="r1r8o6vv" class="rend">
                     <tspan id="t1jsem" class="text" x="10000" y="808">
                        <tspan font-size="324px">50_rock_120_beat_4-4</tspan>
                     </tspan>
                  </tspan>
               </tspan>
            </text>
         </g>
         <g id="p1jib8rb" class="pgFoot autogenerated">
            <g id="fmeugsw" class="fig">
               <g class="svg" transform="translate(7750, 28099) scale(10.000000, 10.000000)">
                  <g>
                     <path fill="#00000" d="M 17.11278,49.26451 V 10.367554 h 12.696511 c 3.288815,7.336676 6.71267,14.610456 10.127281,21.888976 3.419998,-7.484684 6.255515,-14.204887 9.58887,-21.909915 2.436207,0.103726 4.316952,0.08453 6.484294,-0.05808 V 49.264423 H 50.274275 C 50.145222,38.35639 50.016136,27.448368 49.887066,16.540329 45.003488,27.315459 39.967448,38.433564 35.083854,49.208695 34.678996,49.343717 34.426583,49.135619 34.021726,49.270644 29.46588,39.330716 24.910049,29.390805 20.354201,19.450876 20.224341,29.388756 20.09461,39.326619 19.964815,49.264497 H 17.11278 Z M 36.754144,39.324695 C 32.721221,30.512695 28.6883,21.700679 24.655394,12.888662 22.530527,12.750737 22.656775,12.71031 20.714356,12.813974 v 0.966497 c 4.612938,9.99784 9.609439,20.748709 13.87298,30.081745 0.722248,-1.512523 1.444528,-3.025014 2.166808,-4.537521 z m 25.738417,9.939815 c 0,-12.965651 0,-25.931305 0,-38.896956 10.084388,0 20.168791,0 30.253178,0 0,0.960416 0,1.920849 0,2.881265 -6.482825,0 -12.965652,0 -19.448478,0 0,4.802097 0,9.604178 0,14.406277 5.52241,0 11.044819,0 16.567229,0 0,0.960415 0,1.920832 0,2.881248 -5.52241,0 -11.044819,0 -16.567229,0 0,5.282306 0,10.564611 0,15.846917 6.963035,0 13.926068,0 20.889103,0 0,0.960416 0,1.920832 0,2.881249 -10.564597,0 -21.129207,0 -31.693803,0 z m 4.321874,-2.160937 c 0,-11.765131 0,-23.530263 0,-35.295394 -0.720312,0 -1.440625,0 -2.160937,0 0,11.765131 0,23.530263 0,35.295394 0.720312,0 1.440625,0 2.160937,0 z m 32.41413,2.160937 c 0,-12.965651 0,-25.931305 0,-38.896956 2.401045,0 4.802095,0 7.203135,0 0,12.965651 0,25.931305 0,38.896956 -2.40104,0 -4.80209,0 -7.203135,0 z m 2.881265,-2.160937 c 0,-11.765131 0,-23.530263 0,-35.295394 -0.72031,0 -1.44064,0 -2.160953,0 0,11.765131 0,23.530263 0,35.295394 0.720313,0 1.440643,0 2.160953,0 z" />
                     <path fill="#00000" d="m 346.3,6.7 c -3.1,0.5 -4.9,4.4 -2.7,6.8 1.2,1.4 2.7,2.4 4.1,3.5 -2.4,5.3 -7.7,8.3 -11.9,12.1 -3.7,2.8 -7,6.2 -9.7,9.9 -2.2,-0.8 -0.3,-6.8 -0.6,-9.5 0.1,-3.1 0.7,-6.4 2.9,-8.7 1.3,-1.9 3,-3.5 4.5,-5.2 1.2,-3.4 -3.2,-4.9 -5.8,-4.6 -7.3,-0.5 -14.6,2 -20,6.8 -5,4.6 -10,10.1 -11.5,17 -0.9,3.5 -0.2,7.5 2.8,9.9 2.5,2.8 7.4,2.9 9.8,-0.2 1.7,-2.3 3.2,-4.8 3.8,-7.6 -0.1,-2.6 -4.4,-2.3 -4.3,0.2 1.2,2.4 -0.9,4.7 -2.7,6.2 -1.7,0.9 -4.7,0.7 -4.8,-1.7 -1,-5.8 2.1,-11.3 5.2,-16.1 4,-5.8 9.8,-11.2 17.2,-11.8 1.6,0 8.1,-1.2 6.8,1.4 -2.8,2.8 -5.6,6.1 -6,10.3 -1.6,7.7 0.1,15.7 -2.3,23.2 -1.1,3.9 2,2.6 2.5,0.2 3.3,-7.4 8.9,-13.4 15.1,-18.5 4.2,-3.9 9.5,-7.1 11.9,-12.6 1.3,-3.6 1.2,-9 -2.7,-10.9 -0.6,-0.2 -1.2,-0.3 -1.8,-0.3 z m 66,14.5 c -2,0.8 -1.8,4.9 0.8,4.4 3.4,0.4 2.9,-6.2 -0.8,-4.4 z m 0.6,7.3 c -1.3,0.5 -7.6,0.5 -5.4,2.2 4,-0.3 0.7,4.5 0.6,6.7 -0.4,2.9 -2.4,5.9 -1.2,8.8 2.7,1.7 5.6,-0.8 6.8,-3.2 1.6,-1.4 -0.5,-3 -1.2,-0.9 -0.4,0.8 -2.4,3.5 -2.6,1.8 1.1,-5 2.7,-9.9 3.9,-14.9 l -0.1,-0.5 h -0.9 z m -65.1,0.2 c -6.5,1.6 -10.5,9.5 -8.2,15.7 2.1,3.4 7.4,2.9 10.1,0.4 2,-0.2 3.6,-5.3 1,-3.4 -1.4,2 -4,4.2 -6.5,2.8 -2.2,-1.9 -1.9,-5.7 1.7,-5.3 3.1,-0.9 6.9,-2.1 8.1,-5.5 0.9,-2.7 -1.6,-5.2 -4.3,-4.8 h -1.1 -0.7 z m 13.6,0 c -2.2,0 -8.5,1.8 -2.9,2.3 0.9,1.9 -1,4.9 -1.1,7.2 -0.5,2.9 -1.4,5.7 -1.7,8.7 3.7,0.7 3.8,-2.6 4.4,-5.3 0.9,-3.3 1.6,-7 4.1,-9.5 2.4,1.6 6.8,-0.7 3.7,-3.4 -2.9,-0.5 -4.8,2.4 -6.2,4.3 0,-1.2 2.4,-5 -0.2,-4.3 z m 15.8,0 c -6.4,1.3 -9.6,9.1 -7.7,14.9 1.9,4 7.7,3.9 11,1.7 4.1,-3 6,-8.9 4.4,-13.7 -1.3,-3 -4.8,-3.2 -7.6,-3 z m 17,0 c -2.3,0 -8.8,1.9 -3,2.4 0.4,2.5 -1,5.7 -1.4,8.4 -0.7,2.4 -1.8,7.5 2.1,7.2 3.8,-0.1 6.5,-3.5 8.5,-6.3 2,-3.2 4.5,-7 3.3,-10.9 -3.7,-3 -3.6,2.6 -3.1,5.1 -0.7,3.8 -2.7,7.9 -6.2,9.8 -3.6,0.6 -1,-4.3 -0.8,-6.1 0.6,-3.2 1.6,-6.3 1.9,-9.5 -0.4,0 -0.8,0 -1.1,0 z m 30.6,0 c -6.3,1.2 -9.5,8.9 -7.8,14.7 1.5,4 7.2,4.2 10.5,2.4 4.6,-2.8 6.6,-9.3 4.8,-14.3 -1.4,-2.8 -4.8,-3 -7.5,-2.8 z m -75.4,1.7 c 2.1,1.5 0.2,4.7 -1.6,5.7 -1.1,0.4 -5.5,3.4 -4.6,0.7 0.8,-2.7 2.2,-6.2 5.3,-6.6 l 0.9,0.1 z m 30.8,0 c 2.6,1.5 1.3,5.2 0.8,7.6 -0.8,2.7 -1.9,5.9 -4.7,7.1 -5.1,0.8 -4,-5.8 -2.8,-8.8 1,-2.8 3,-6.8 6.7,-5.8 z m 47.1,-0.1 c 2.9,0.7 2,4.7 1.5,6.8 -0.7,3 -1.8,6.7 -5,8 -4.7,0.8 -4,-5.1 -3,-7.9 0.9,-3 2.7,-7.3 6.5,-6.8 z m -88.1,5.9 c -0.3,1.3 0.9,-0.6 0,0 z m -1.1,2.4 c -0.2,0.5 0.5,-0.1 0,0 z m -1.3,4.5 c -0.3,1.3 0.8,-0.2 0,0 z" />
                     <text y="41" x="201" fill="#00000" style="font-style:italic;font-weight:normal;font-size:30px;line-height:125%;font-family:Times;text-anchor:middle" xml:space="preserve">engraved with</text>
                  </g>
               </g>
            </g>
         </g>
      </g>
   </svg>
</svg>
