<?xml version="1.0" encoding="UTF-8" standalone="no"?>
<svg width="2100px" height="2970px" version="1.1" xmlns="http://www.w3.org/2000/svg" xmlns:xlink="http://www.w3.org/1999/xlink" xmlns:mei="http://www.music-encoding.org/ns/mei" overflow="visible">
   <desc>Engraved by Verovio 4.4.0-66ab39c</desc>
   <defs>
      <symbol id="E084-ci9lgi" viewBox="0 0 1000 1000" overflow="inherit">
         <path transform="scale(1,-1)" d="M20 -78c84 97 114 180 134 329h170c-13 -32 -82 -132 -99 -151l-84 -97c-33 -36 -59 -63 -80 -81h162v102l127 123v-225h57v-39h-57v-34c0 -43 19 -65 57 -65v-34h-244v36c48 0 60 26 60 70v27h-203v39z" />
      </symbol>
      <symbol id="E0A4-ci9lgi" viewBox="0 0 1000 1000" overflow="inherit">
         <path transform="scale(1,-1)" d="M0 -39c0 68 73 172 200 172c66 0 114 -37 114 -95c0 -84 -106 -171 -218 -171c-64 0 -96 30 -96 94z" />
      </symbol>
      <symbol id="E240-ci9lgi" viewBox="0 0 1000 1000" overflow="inherit">
         <path transform="scale(1,-1)" d="M179 -646c15 29 29 55 46 102c18 49 30 108 30 138c0 105 -80 173 -168 200c-18 5 -47 9 -87 16v190h22c8 0 33 -61 71 -95c4 -3 -2 3 61 -56c62 -58 122 -137 122 -241c0 -38 -13 -106 -35 -163c-20 -51 -43 -99 -66 -132c-6 -5 -10 -7 -13 -7s-5 2 -5 5l4 10 c1 3 14 25 18 33z" />
      </symbol>
      <symbol id="E241-ci9lgi" viewBox="0 0 1000 1000" overflow="inherit">
         <path transform="scale(1,-1)" d="M179 646c-4 8 -17 30 -18 33l-4 10c0 3 2 5 5 5s7 -2 13 -7c23 -33 46 -81 66 -132c22 -57 35 -125 35 -163c0 -104 -60 -183 -122 -241c-63 -59 -57 -53 -61 -56c-38 -34 -63 -95 -71 -95h-22v190c40 7 69 11 87 16c88 27 168 95 168 200c0 30 -12 89 -30 138 c-17 47 -31 73 -46 102z" />
      </symbol>
      <symbol id="E4E6-ci9lgi" viewBox="0 0 1000 1000" overflow="inherit">
         <path transform="scale(1,-1)" d="M0 123c7 34 33 56 69 60c29 -3 43 -9 53 -29c4 -8 7 -15 10 -22c0 -21 -1 -25 -11 -35c-5 -8 -18 -14 -40 -20l12 -3l15 -1c44 0 97 26 122 56c10 11 18 26 24 42c7 1 15 2 22 3l-140 -424h-36l111 330c-10 -6 -27 -12 -53 -16l-52 -8h-10l-20 1c-1 0 -8 3 -21 6 c-37 9 -55 28 -55 60z" />
      </symbol>
      <symbol id="E4E7-ci9lgi" viewBox="0 0 1000 1000" overflow="inherit">
         <path transform="scale(1,-1)" d="M133 -111c0 -33 -21 -50 -52 -55c10 -3 18 -4 25 -4c40 0 69 24 90 47l66 197c-36 -18 -64 -25 -112 -25c-23 0 -38 3 -45 8c-37 7 -55 27 -55 59c8 35 30 54 68 58c45 -6 49 -13 64 -48c0 -3 1 -5 1 -7c0 -27 -25 -46 -52 -49c6 -4 15 -6 26 -6c32 2 62 14 88 29 c32 19 44 36 59 71l7 1l10 2h4c-72 -220 -143 -439 -215 -659h-37l108 324c-20 -13 -51 -20 -82 -20c-21 0 -35 4 -43 10c-37 6 -55 26 -55 58c8 35 31 56 68 60c43 -8 48 -13 64 -51z" />
      </symbol>
      <symbol id="E069-ci9lgi" viewBox="0 0 1000 1000" overflow="inherit">
         <path transform="scale(1,-1)" d="M200 250h125v-500h-125v500zM0 250h125v-500h-125v500z" />
      </symbol>
      <symbol id="E0A9-ci9lgi" viewBox="0 0 1000 1000" overflow="inherit">
         <path transform="scale(1,-1)" d="M0 -110c0 4 1 8 5 11l119 99l-119 100c-3 3 -5 8 -5 12c0 6 5 13 12 13c3 0 6 -1 8 -2l124 -105l126 105c2 1 5 2 7 2c6 0 13 -6 13 -14c0 -4 -2 -9 -5 -11l-119 -100l119 -99c3 -3 5 -7 5 -12c0 -6 -5 -14 -13 -14c-2 0 -5 1 -7 3l-126 105l-124 -105c-2 -2 -4 -3 -7 -3 c-8 0 -13 7 -13 15z" />
      </symbol>
   </defs>
   <style type="text/css">g.page-margin{font-family:Times,serif;} g.ending, g.fing, g.reh, g.tempo{font-weight:bold;} g.dir, g.dynam, g.mNum{font-style:italic;} g.label{font-weight:normal;}</style>
   <svg class="definition-scale" color="black" viewBox="0 0 21000 29700">
      <g class="page-margin" transform="translate(500, 500)">
         <g id="m-256df61f-da1d-40a3-a6b2-5f9013cafcec" class="mdiv pageMilestone" />
         <g id="m-b120ab23-d2b4-418c-9e51-7349e2439e9f" class="score pageMilestone" />
         <g id="s1pnza5o" class="system">
            <g id="m-81174e93-2085-4b64-8771-54e0b4d59d9c" class="section systemMilestone" />
            <g id="m-0ae6d518-77d7-4bd7-88c7-c9018d402315" class="measure">
               <g id="m-7e243e8a-7b4b-4b5b-9ce1-9320b99dcba3" class="staff">
                  <path d="M0 1664 L5587 1664" stroke="currentColor" stroke-width="13" />
                  <path d="M0 1844 L5587 1844" stroke="currentColor" stroke-width="13" />
                  <path d="M0 2024 L5587 2024" stroke="currentColor" stroke-width="13" />
                  <path d="M0 2204 L5587 2204" stroke="currentColor" stroke-width="13" />
                  <path d="M0 2384 L5587 2384" stroke="currentColor" stroke-width="13" />
                  <g id="c1tr8vd0" class="clef">
                     <use xlink:href="#E069-ci9lgi" x="90" y="2024" height="720px" width="720px" />
                  </g>
                  <g id="k128pymj" class="keySig" />
                  <g id="mafljid" class="meterSig">
                     <use xlink:href="#E084-ci9lgi" x="490" y="1844" height="720px" width="720px" />
                     <use xlink:href="#E084-ci9lgi" x="490" y="2204" height="720px" width="720px" />
                  </g>
                  <g id="m-e4449ef4-894c-458e-a5ef-44575473423d" class="layer">
                     <g id="m-db3878e1-7286-43c4-87a5-c6dca4ac4b62" class="rest">
                        <use xlink:href="#E4E6-ci9lgi" x="1052" y="1484" height="720px" width="720px" />
                     </g>
                     <g id="m-0760d4d5-23c0-4568-8c6e-a246ede8a4d0" class="note">
                        <g class="notehead">
                           <use xlink:href="#E0A9-ci9lgi" x="1502" y="1574" height="720px" width="720px" />
                        </g>
                        <g id="sgolmog" class="stem">
                           <path d="M1701 1495 L1701 1064" stroke="currentColor" stroke-width="18" />
                           <g id="fa14r5u" class="flag">
                              <use xlink:href="#E240-ci9lgi" x="1692" y="1064" height="720px" width="720px" />
                           </g>
                        </g>
                     </g>
                     <g id="m-e60fe4da-0e4b-42ce-ab30-cd4789bb8925" class="note">
                        <g class="notehead">
                           <use xlink:href="#E0A9-ci9lgi" x="2134" y="1574" height="720px" width="720px" />
                        </g>
                        <g id="s1doeluf" class="stem">
                           <path d="M2333 1495 L2333 1124" stroke="currentColor" stroke-width="18" />
                        </g>
                     </g>
                     <g id="m-5ccc83e6-bf7d-4029-8f15-6cd4da92c9b7" class="note">
                        <g class="notehead">
                           <use xlink:href="#E0A9-ci9lgi" x="3216" y="1574" height="720px" width="720px" />
                        </g>
                        <g id="svru7x8" class="stem">
                           <path d="M3415 1495 L3415 1124" stroke="currentColor" stroke-width="18" />
                        </g>
                     </g>
                     <g id="m-6158f668-ce7b-491a-95e2-7a4fd7d21f5c" class="beam">
                        <polygon points="4495,1124 5152,1124 5152,1214 4495,1214" />
                        <g id="m-79c3140f-83dd-4825-b455-681693ed363e" class="note">
                           <g class="notehead">
                              <use xlink:href="#E0A9-ci9lgi" x="4305" y="1574" height="720px" width="720px" />
                           </g>
                           <g id="s1m3fl0h" class="stem">
                              <path d="M4504 1495 L4504 1142" stroke="currentColor" stroke-width="18" />
                           </g>
                        </g>
                        <g id="m-eb04c853-72b6-4e7e-a601-f55f19a56a65" class="note">
                           <g class="notehead">
                              <use xlink:href="#E0A9-ci9lgi" x="4944" y="1574" height="720px" width="720px" />
                           </g>
                           <g id="ss2gi93" class="stem">
                              <path d="M5143 1495 L5143 1142" stroke="currentColor" stroke-width="18" />
                           </g>
                        </g>
                     </g>
                  </g>
                  <g id="m-d64225dd-d892-4bf0-aa55-54604306555b" class="layer">
                     <g id="m-93218c3b-f51c-4b07-8b17-33c4a4ebbe0a" class="rest">
                        <use xlink:href="#E4E6-ci9lgi" x="1052" y="2564" height="720px" width="720px" />
                     </g>
                     <g id="m-676c3891-76cd-401a-93a3-ef27289c699b" class="beam">
                        <polygon points="1502,3149 1836,3104 1836,3014 1502,3059" />
                        <polygon points="1502,3014 1836,2969 1836,2879 1502,2924" />
                        <g id="m-225dfb31-1afc-4456-9b06-8ada77d6b307" class="note">
                           <g class="notehead">
                              <use xlink:href="#E0A4-ci9lgi" x="1502" y="2474" height="720px" width="720px" />
                           </g>
                           <g id="sk99r5e" class="stem">
                              <path d="M1511 2502 L1511 3131" stroke="currentColor" stroke-width="18" />
                           </g>
                        </g>
                        <g id="m-90153906-3e20-4ca5-b9ad-db5738373a5d" class="note">
                           <g class="notehead">
                              <use xlink:href="#E0A4-ci9lgi" x="1818" y="2024" height="720px" width="720px" />
                           </g>
                           <g id="svn5e43" class="stem">
                              <path d="M1827 2052 L1827 3086" stroke="currentColor" stroke-width="18" />
                           </g>
                           <g id="a7zy6x1" class="accid" />
                        </g>
                     </g>
                     <g id="m-0902225f-650e-4df3-9108-e963fabb7086" class="rest">
                        <use xlink:href="#E4E6-ci9lgi" x="2134" y="2204" height="720px" width="720px" />
                     </g>
                     <g id="m-568bd2c1-1e5f-423e-bc48-30339957573d" class="beam">
                        <polygon points="2584,2609 2918,2609 2918,2519 2584,2519" />
                        <polygon points="2584,2474 2918,2474 2918,2384 2584,2384" />
                        <g id="m-1469737b-159d-4a27-8c23-7576ab0f4db2" class="note">
                           <g class="notehead">
                              <use xlink:href="#E0A4-ci9lgi" x="2584" y="2024" height="720px" width="720px" />
                           </g>
                           <g id="s1lsuj7q" class="stem">
                              <path d="M2593 2052 L2593 2591" stroke="currentColor" stroke-width="18" />
                           </g>
                           <g id="a1npl6vk" class="accid" />
                        </g>
                        <g id="m-e3e04136-f6a3-4ce3-9949-af7c5f323aba" class="note">
                           <g class="notehead">
                              <use xlink:href="#E0A4-ci9lgi" x="2900" y="2024" height="720px" width="720px" />
                           </g>
                           <g id="svf65w8" class="stem">
                              <path d="M2909 2052 L2909 2591" stroke="currentColor" stroke-width="18" />
                           </g>
                           <g id="a1r909zl" class="accid" />
                        </g>
                     </g>
                     <g id="m-de0febdb-7936-477d-8653-c6db17809f8c" class="rest">
                        <use xlink:href="#E4E7-ci9lgi" x="3216" y="2204" height="720px" width="720px" />
                     </g>
                     <g id="m-f32f0123-888f-4926-92a9-9d24a3b54781" class="beam">
                        <polygon points="3539,3104 4007,3149 4007,3059 3539,3014" />
                        <polygon points="3781,2994 4007,3014 4007,2924 3781,2904" />
                        <g id="m-86a32e63-f03d-4e74-b50f-9b1c03d27d7e" class="note">
                           <g class="notehead">
                              <use xlink:href="#E0A4-ci9lgi" x="3539" y="2024" height="720px" width="720px" />
                           </g>
                           <g id="s11gfrji" class="stem">
                              <path d="M3548 2052 L3548 3086" stroke="currentColor" stroke-width="18" />
                           </g>
                           <g id="annoywf" class="accid" />
                        </g>
                        <g id="m-7ade8e1d-9161-4301-b72f-07ace9cac33a" class="chord">
                           <g id="s1b7z3s8" class="stem">
                              <path d="M3998 2052 L3998 3131" stroke="currentColor" stroke-width="18" />
                           </g>
                           <g id="m-d84d58dd-2a4c-4ebc-babf-33da875b8756" class="note">
                              <g class="notehead">
                                 <use xlink:href="#E0A4-ci9lgi" x="3989" y="2024" height="720px" width="720px" />
                              </g>
                              <g id="a27ra3z" class="accid" />
                           </g>
                           <g id="m-5dda6329-ad13-4086-95b1-ef366f6a5705" class="note">
                              <g class="notehead">
                                 <use xlink:href="#E0A4-ci9lgi" x="3989" y="2474" height="720px" width="720px" />
                              </g>
                           </g>
                        </g>
                     </g>
                     <g id="m-f3777c1a-588c-414b-b7d0-6fc6b417e63b" class="rest">
                        <use xlink:href="#E4E7-ci9lgi" x="4305" y="2204" height="720px" width="720px" />
                     </g>
                     <g id="m-9af0891d-c600-4d59-982c-669e77088c09" class="beam">
                        <polygon points="4628,2924 5262,3104 5262,3014 4628,2834" />
                        <polygon points="5036,2909 5262,2969 5262,2879 5036,2819" />
                        <g id="m-3997cc9b-e948-4233-9c90-2a7b525a6057" class="note">
                           <g class="notehead">
                              <use xlink:href="#E0A4-ci9lgi" x="4628" y="2024" height="720px" width="720px" />
                           </g>
                           <g id="s1mqfo9t" class="stem">
                              <path d="M4637 2052 L4637 2906" stroke="currentColor" stroke-width="18" />
                           </g>
                           <g id="a12am49t" class="accid" />
                        </g>
                        <g id="m-1e7d490c-79ea-48b8-9c7d-cfb54d008912" class="chord">
                           <g id="s77153a" class="stem">
                              <path d="M5253 2052 L5253 3086" stroke="currentColor" stroke-width="18" />
                           </g>
                           <g id="m-dcf3ed8f-52bb-41d8-a3a8-7d4e4d59e76e" class="note">
                              <g class="notehead">
                                 <use xlink:href="#E0A4-ci9lgi" x="5244" y="2474" height="720px" width="720px" />
                              </g>
                           </g>
                           <g id="m-9d5c94b0-a72b-4e5f-8ff9-73b17e01fd2f" class="note">
                              <g class="notehead">
                                 <use xlink:href="#E0A4-ci9lgi" x="5244" y="2024" height="720px" width="720px" />
                              </g>
                              <g id="a18xam0n" class="accid" />
                           </g>
                        </g>
                     </g>
                  </g>
               </g>
               <g id="bmvhi66" class="barLine">
                  <path d="M5574 1664 L5574 2384" stroke="currentColor" stroke-width="27" />
               </g>
            </g>
            <g id="m-e5008de5-dc94-4af6-87ea-15e6289e3a6f" class="measure">
               <g id="m-468ae0b2-870b-48d7-89de-fb00a7d900fc" class="staff">
                  <path d="M5587 1664 L9359 1664" stroke="currentColor" stroke-width="13" />
                  <path d="M5587 1844 L9359 1844" stroke="currentColor" stroke-width="13" />
                  <path d="M5587 2024 L9359 2024" stroke="currentColor" stroke-width="13" />
                  <path d="M5587 2204 L9359 2204" stroke="currentColor" stroke-width="13" />
                  <path d="M5587 2384 L9359 2384" stroke="currentColor" stroke-width="13" />
                  <g id="m-b9416b1b-893d-4011-8958-3b99f6cf107f" class="layer">
                     <g id="m-3c38a725-4d26-4e3a-8a8a-5688aed9e548" class="beam">
                        <polygon points="5957,1124 6614,1124 6614,1214 5957,1214" />
                        <g id="m-22fdae5b-c944-4a5a-abde-927579bab032" class="note">
                           <g class="notehead">
                              <use xlink:href="#E0A9-ci9lgi" x="5767" y="1574" height="720px" width="720px" />
                           </g>
                           <g id="s1dc6xh2" class="stem">
                              <path d="M5966 1495 L5966 1142" stroke="currentColor" stroke-width="18" />
                           </g>
                        </g>
                        <g id="m-20e521fd-7b28-43e3-a000-de14f7e50dd8" class="note">
                           <g class="notehead">
                              <use xlink:href="#E0A9-ci9lgi" x="6406" y="1574" height="720px" width="720px" />
                           </g>
                           <g id="s12o6j4x" class="stem">
                              <path d="M6605 1495 L6605 1142" stroke="currentColor" stroke-width="18" />
                           </g>
                        </g>
                     </g>
                     <g id="m-9fa62410-75e1-4fe8-b185-81805f407b85" class="beam">
                        <polygon points="7046,1124 7514,1124 7514,1214 7046,1214" />
                        <g id="m-e29c76f1-f916-4094-8251-83f2dc5f8dfd" class="note">
                           <g class="notehead">
                              <use xlink:href="#E0A9-ci9lgi" x="6856" y="1574" height="720px" width="720px" />
                           </g>
                           <g id="s36qcaq" class="stem">
                              <path d="M7055 1495 L7055 1142" stroke="currentColor" stroke-width="18" />
                           </g>
                        </g>
                        <g id="m-c7b3182c-b94a-4139-8585-2f20342b34a8" class="note">
                           <g class="notehead">
                              <use xlink:href="#E0A9-ci9lgi" x="7306" y="1574" height="720px" width="720px" />
                           </g>
                           <g id="s1gtr86o" class="stem">
                              <path d="M7505 1495 L7505 1142" stroke="currentColor" stroke-width="18" />
                           </g>
                        </g>
                     </g>
                     <g id="m-499254e8-8e34-4ccc-b44d-38a1a9a3f5fa" class="beam">
                        <polygon points="7946,1124 8414,1124 8414,1214 7946,1214" />
                        <g id="m-69ebafcf-d811-4c32-978b-545132e0e4da" class="note">
                           <g class="notehead">
                              <use xlink:href="#E0A9-ci9lgi" x="7756" y="1574" height="720px" width="720px" />
                           </g>
                           <g id="snv9uqh" class="stem">
                              <path d="M7955 1495 L7955 1142" stroke="currentColor" stroke-width="18" />
                           </g>
                        </g>
                        <g id="m-56763fc9-4a12-48c1-b2f6-67c1b482414c" class="note">
                           <g class="notehead">
                              <use xlink:href="#E0A9-ci9lgi" x="8206" y="1574" height="720px" width="720px" />
                           </g>
                           <g id="s1ejour4" class="stem">
                              <path d="M8405 1495 L8405 1142" stroke="currentColor" stroke-width="18" />
                           </g>
                        </g>
                     </g>
                     <g id="m-639cedc4-77e7-48a1-b545-266e87592795" class="note">
                        <g class="notehead">
                           <use xlink:href="#E0A9-ci9lgi" x="8656" y="1574" height="720px" width="720px" />
                        </g>
                        <g id="sb0urvo" class="stem">
                           <path d="M8855 1495 L8855 1124" stroke="currentColor" stroke-width="18" />
                        </g>
                     </g>
                  </g>
                  <g id="m-09ef24c0-ab23-4dd1-a1e6-926b14f53098" class="layer">
                     <g id="m-57a03365-4677-4551-a055-5c178ae9ab44" class="rest">
                        <use xlink:href="#E4E7-ci9lgi" x="5767" y="2204" height="720px" width="720px" />
                     </g>
                     <g id="m-e7ea1485-67a2-4fd1-9723-a539f1aaba35" class="beam">
                        <polygon points="6090,2924 6424,2969 6424,2879 6090,2834" />
                        <polygon points="6090,2789 6316,2822 6316,2732 6090,2699" />
                        <g id="m-d0b1bab7-ea54-48c3-9a4a-ee29e50868e6" class="note">
                           <g class="notehead">
                              <use xlink:href="#E0A4-ci9lgi" x="6090" y="2024" height="720px" width="720px" />
                           </g>
                           <g id="scy5z3q" class="stem">
                              <path d="M6099 2052 L6099 2906" stroke="currentColor" stroke-width="18" />
                           </g>
                           <g id="a1510zat" class="accid" />
                        </g>
                        <g id="m-30a1bb56-294f-4c95-b104-159fa045121e" class="note">
                           <g class="notehead">
                              <use xlink:href="#E0A4-ci9lgi" x="6406" y="2474" height="720px" width="720px" />
                           </g>
                           <g id="s1lfv07z" class="stem">
                              <path d="M6415 2502 L6415 2951" stroke="currentColor" stroke-width="18" />
                           </g>
                        </g>
                     </g>
                     <g id="m-439f7c27-bbef-4681-beef-0189f8f383f2" class="rest">
                        <use xlink:href="#E4E6-ci9lgi" x="6856" y="2384" height="720px" width="720px" />
                     </g>
                     <g id="m-134ef924-88ae-4f43-9787-ba6bb927031a" class="note">
                        <g class="notehead">
                           <use xlink:href="#E0A4-ci9lgi" x="7306" y="2024" height="720px" width="720px" />
                        </g>
                        <g id="s1lhbpvs" class="stem">
                           <path d="M7315 2052 L7315 2624" stroke="currentColor" stroke-width="18" />
                           <g id="fpoycjg" class="flag">
                              <use xlink:href="#E241-ci9lgi" x="7306" y="2624" height="720px" width="720px" />
                           </g>
                        </g>
                        <g id="a19lvgqy" class="accid" />
                     </g>
                     <g id="m-c51f3d87-52f1-4518-a0fc-b213b457de85" class="beam">
                        <polygon points="7756,2924 8224,2969 8224,2879 7756,2834" />
                        <g id="m-9401d617-59e3-4b67-ae5b-57ce3fb0012b" class="note">
                           <g class="notehead">
                              <use xlink:href="#E0A4-ci9lgi" x="7756" y="2024" height="720px" width="720px" />
                           </g>
                           <g id="sy5bbxx" class="stem">
                              <path d="M7765 2052 L7765 2906" stroke="currentColor" stroke-width="18" />
                           </g>
                           <g id="a1oecmcz" class="accid" />
                        </g>
                        <g id="m-1ef53ba5-bfb3-4a77-845a-44eca1129334" class="note">
                           <g class="notehead">
                              <use xlink:href="#E0A4-ci9lgi" x="8206" y="2474" height="720px" width="720px" />
                           </g>
                           <g id="s1tpvcl4" class="stem">
                              <path d="M8215 2502 L8215 2951" stroke="currentColor" stroke-width="18" />
                           </g>
                        </g>
                     </g>
                     <g id="m-92e60080-d7b3-4a8f-a7ff-27c1dab7ad12" class="chord">
                        <g id="s79hvew" class="stem">
                           <path d="M8665 2052 L8665 2924" stroke="currentColor" stroke-width="18" />
                        </g>
                        <g id="m-fb3486e2-7b1a-41cd-afbb-3ee888533664" class="note">
                           <g class="notehead">
                              <use xlink:href="#E0A4-ci9lgi" x="8656" y="2024" height="720px" width="720px" />
                           </g>
                           <g id="a1buemm2" class="accid" />
                        </g>
                        <g id="m-63761c0a-e00b-4320-a5fb-3061ad2f9a7c" class="note">
                           <g class="notehead">
                              <use xlink:href="#E0A4-ci9lgi" x="8656" y="2474" height="720px" width="720px" />
                           </g>
                        </g>
                     </g>
                  </g>
               </g>
               <g id="b9u5hpj" class="barLine">
                  <path d="M9346 1664 L9346 2384" stroke="currentColor" stroke-width="27" />
               </g>
            </g>
            <g id="sx0awfx" class="systemMilestoneEnd m-81174e93-2085-4b64-8771-54e0b4d59d9c" />
         </g>
         <g id="pyfmru6" class="pageMilestoneEnd m-b120ab23-d2b4-418c-9e51-7349e2439e9f" />
         <g id="pb4bk9b" class="pageMilestoneEnd m-256df61f-da1d-40a3-a6b2-5f9013cafcec" />
         <g id="p3kglpj" class="pgHead autogenerated">
            <text font-size="0px">
               <tspan id="r11dzvv" class="rend" x="10000" y="415" text-anchor="middle">
                  <title class="labelAttr">title</title>
                  <tspan id="r1m5h0vr" class="rend">
                     <tspan id="tfy7km3" class="text">
                        <tspan font-size="607px">78_funk_100_beat_4-4</tspan>
                     </tspan>
                  </tspan>
                  <tspan id="l1h2dhg8" class="lb" />
                  <tspan id="rzojsft" class="rend">
                     <tspan id="t1mk437q" class="text" x="10000" y="805">
                        <tspan font-size="324px">78_funk_100_beat_4-4</tspan>
                     </tspan>
                  </tspan>
               </tspan>
            </text>
         </g>
         <g id="pxjeuvf" class="pgFoot autogenerated">
            <g id="f932wb8" class="fig">
               <g class="svg" transform="translate(7750, 28099) scale(10.000000, 10.000000)">
                  <g>
                     <path fill="#00000" d="M 17.11278,49.26451 V 10.367554 h 12.696511 c 3.288815,7.336676 6.71267,14.610456 10.127281,21.888976 3.419998,-7.484684 6.255515,-14.204887 9.58887,-21.909915 2.436207,0.103726 4.316952,0.08453 6.484294,-0.05808 V 49.264423 H 50.274275 C 50.145222,38.35639 50.016136,27.448368 49.887066,16.540329 45.003488,27.315459 39.967448,38.433564 35.083854,49.208695 34.678996,49.343717 34.426583,49.135619 34.021726,49.270644 29.46588,39.330716 24.910049,29.390805 20.354201,19.450876 20.224341,29.388756 20.09461,39.326619 19.964815,49.264497 H 17.11278 Z M 36.754144,39.324695 C 32.721221,30.512695 28.6883,21.700679 24.655394,12.888662 22.530527,12.750737 22.656775,12.71031 20.714356,12.813974 v 0.966497 c 4.612938,9.99784 9.609439,20.748709 13.87298,30.081745 0.722248,-1.512523 1.444528,-3.025014 2.166808,-4.537521 z m 25.738417,9.939815 c 0,-12.965651 0,-25.931305 0,-38.896956 10.084388,0 20.168791,0 30.253178,0 0,0.960416 0,1.920849 0,2.881265 -6.482825,0 -12.965652,0 -19.448478,0 0,4.802097 0,9.604178 0,14.406277 5.52241,0 11.044819,0 16.567229,0 0,0.960415 0,1.920832 0,2.881248 -5.52241,0 -11.044819,0 -16.567229,0 0,5.282306 0,10.564611 0,15.846917 6.963035,0 13.926068,0 20.889103,0 0,0.960416 0,1.920832 0,2.881249 -10.564597,0 -21.129207,0 -31.693803,0 z m 4.321874,-2.160937 c 0,-11.765131 0,-23.530263 0,-35.295394 -0.720312,0 -1.440625,0 -2.160937,0 0,11.765131 0,23.530263 0,35.295394 0.720312,0 1.440625,0 2.160937,0 z m 32.41413,2.160937 c 0,-12.965651 0,-25.931305 0,-38.896956 2.401045,0 4.802095,0 7.203135,0 0,12.965651 0,25.931305 0,38.896956 -2.40104,0 -4.80209,0 -7.203135,0 z m 2.881265,-2.160937 c 0,-11.765131 0,-23.530263 0,-35.295394 -0.72031,0 -1.44064,0 -2.160953,0 0,11.765131 0,23.530263 0,35.295394 0.720313,0 1.440643,0 2.160953,0 z" />
                     <path fill="#00000" d="m 346.3,6.7 c -3.1,0.5 -4.9,4.4 -2.7,6.8 1.2,1.4 2.7,2.4 4.1,3.5 -2.4,5.3 -7.7,8.3 -11.9,12.1 -3.7,2.8 -7,6.2 -9.7,9.9 -2.2,-0.8 -0.3,-6.8 -0.6,-9.5 0.1,-3.1 0.7,-6.4 2.9,-8.7 1.3,-1.9 3,-3.5 4.5,-5.2 1.2,-3.4 -3.2,-4.9 -5.8,-4.6 -7.3,-0.5 -14.6,2 -20,6.8 -5,4.6 -10,10.1 -11.5,17 -0.9,3.5 -0.2,7.5 2.8,9.9 2.5,2.8 7.4,2.9 9.8,-0.2 1.7,-2.3 3.2,-4.8 3.8,-7.6 -0.1,-2.6 -4.4,-2.3 -4.3,0.2 1.2,2.4 -0.9,4.7 -2.7,6.2 -1.7,0.9 -4.7,0.7 -4.8,-1.7 -1,-5.8 2.1,-11.3 5.2,-16.1 4,-5.8 9.8,-11.2 17.2,-11.8 1.6,0 8.1,-1.2 6.8,1.4 -2.8,2.8 -5.6,6.1 -6,10.3 -1.6,7.7 0.1,15.7 -2.3,23.2 -1.1,3.9 2,2.6 2.5,0.2 3.3,-7.4 8.9,-13.4 15.1,-18.5 4.2,-3.9 9.5,-7.1 11.9,-12.6 1.3,-3.6 1.2,-9 -2.7,-10.9 -0.6,-0.2 -1.2,-0.3 -1.8,-0.3 z m 66,14.5 c -2,0.8 -1.8,4.9 0.8,4.4 3.4,0.4 2.9,-6.2 -0.8,-4.4 z m 0.6,7.3 c -1.3,0.5 -7.6,0.5 -5.4,2.2 4,-0.3 0.7,4.5 0.6,6.7 -0.4,2.9 -2.4,5.9 -1.2,8.8 2.7,1.7 5.6,-0.8 6.8,-3.2 1.6,-1.4 -0.5,-3 -1.2,-0.9 -0.4,0.8 -2.4,3.5 -2.6,1.8 1.1,-5 2.7,-9.9 3.9,-14.9 l -0.1,-0.5 h -0.9 z m -65.1,0.2 c -6.5,1.6 -10.5,9.5 -8.2,15.7 2.1,3.4 7.4,2.9 10.1,0.4 2,-0.2 3.6,-5.3 1,-3.4 -1.4,2 -4,4.2 -6.5,2.8 -2.2,-1.9 -1.9,-5.7 1.7,-5.3 3.1,-0.9 6.9,-2.1 8.1,-5.5 0.9,-2.7 -1.6,-5.2 -4.3,-4.8 h -1.1 -0.7 z m 13.6,0 c -2.2,0 -8.5,1.8 -2.9,2.3 0.9,1.9 -1,4.9 -1.1,7.2 -0.5,2.9 -1.4,5.7 -1.7,8.7 3.7,0.7 3.8,-2.6 4.4,-5.3 0.9,-3.3 1.6,-7 4.1,-9.5 2.4,1.6 6.8,-0.7 3.7,-3.4 -2.9,-0.5 -4.8,2.4 -6.2,4.3 0,-1.2 2.4,-5 -0.2,-4.3 z m 15.8,0 c -6.4,1.3 -9.6,9.1 -7.7,14.9 1.9,4 7.7,3.9 11,1.7 4.1,-3 6,-8.9 4.4,-13.7 -1.3,-3 -4.8,-3.2 -7.6,-3 z m 17,0 c -2.3,0 -8.8,1.9 -3,2.4 0.4,2.5 -1,5.7 -1.4,8.4 -0.7,2.4 -1.8,7.5 2.1,7.2 3.8,-0.1 6.5,-3.5 8.5,-6.3 2,-3.2 4.5,-7 3.3,-10.9 -3.7,-3 -3.6,2.6 -3.1,5.1 -0.7,3.8 -2.7,7.9 -6.2,9.8 -3.6,0.6 -1,-4.3 -0.8,-6.1 0.6,-3.2 1.6,-6.3 1.9,-9.5 -0.4,0 -0.8,0 -1.1,0 z m 30.6,0 c -6.3,1.2 -9.5,8.9 -7.8,14.7 1.5,4 7.2,4.2 10.5,2.4 4.6,-2.8 6.6,-9.3 4.8,-14.3 -1.4,-2.8 -4.8,-3 -7.5,-2.8 z m -75.4,1.7 c 2.1,1.5 0.2,4.7 -1.6,5.7 -1.1,0.4 -5.5,3.4 -4.6,0.7 0.8,-2.7 2.2,-6.2 5.3,-6.6 l 0.9,0.1 z m 30.8,0 c 2.6,1.5 1.3,5.2 0.8,7.6 -0.8,2.7 -1.9,5.9 -4.7,7.1 -5.1,0.8 -4,-5.8 -2.8,-8.8 1,-2.8 3,-6.8 6.7,-5.8 z m 47.1,-0.1 c 2.9,0.7 2,4.7 1.5,6.8 -0.7,3 -1.8,6.7 -5,8 -4.7,0.8 -4,-5.1 -3,-7.9 0.9,-3 2.7,-7.3 6.5,-6.8 z m -88.1,5.9 c -0.3,1.3 0.9,-0.6 0,0 z m -1.1,2.4 c -0.2,0.5 0.5,-0.1 0,0 z m -1.3,4.5 c -0.3,1.3 0.8,-0.2 0,0 z" />
                     <text y="41" x="201" fill="#00000" style="font-style:italic;font-weight:normal;font-size:30px;line-height:125%;font-family:Times;text-anchor:middle" xml:space="preserve">engraved with</text>
                  </g>
               </g>
            </g>
         </g>
      </g>
   </svg>
</svg>
