<?xml version="1.0" encoding="UTF-8" standalone="no"?>
<svg width="2100px" height="2970px" version="1.1" xmlns="http://www.w3.org/2000/svg" xmlns:xlink="http://www.w3.org/1999/xlink" xmlns:mei="http://www.music-encoding.org/ns/mei" overflow="visible">
   <desc>Engraved by Verovio 4.4.0-66ab39c</desc>
   <defs>
      <symbol id="E0A9-1d6vtvn" viewBox="0 0 1000 1000" overflow="inherit">
         <path transform="scale(1,-1)" d="M0 -110c0 4 1 8 5 11l119 99l-119 100c-3 3 -5 8 -5 12c0 6 5 13 12 13c3 0 6 -1 8 -2l124 -105l126 105c2 1 5 2 7 2c6 0 13 -6 13 -14c0 -4 -2 -9 -5 -11l-119 -100l119 -99c3 -3 5 -7 5 -12c0 -6 -5 -14 -13 -14c-2 0 -5 1 -7 3l-126 105l-124 -105c-2 -2 -4 -3 -7 -3 c-8 0 -13 7 -13 15z" />
      </symbol>
      <symbol id="E069-1d6vtvn" viewBox="0 0 1000 1000" overflow="inherit">
         <path transform="scale(1,-1)" d="M200 250h125v-500h-125v500zM0 250h125v-500h-125v500z" />
      </symbol>
      <symbol id="E0A4-1d6vtvn" viewBox="0 0 1000 1000" overflow="inherit">
         <path transform="scale(1,-1)" d="M0 -39c0 68 73 172 200 172c66 0 114 -37 114 -95c0 -84 -106 -171 -218 -171c-64 0 -96 30 -96 94z" />
      </symbol>
      <symbol id="E4E5-1d6vtvn" viewBox="0 0 1000 1000" overflow="inherit">
         <path transform="scale(1,-1)" d="M107 292c-13 24 -30 49 -52 71c-1 1 0 2 0 3l-2 2c3 3 4 4 6 4c12 0 26 -7 40 -20s44 -40 89 -81c26 -24 28 -29 46 -47c4 -4 8 -9 10 -14c6 -8 8 -16 8 -27c0 -19 -12 -40 -36 -61c-28 -23 -49 -38 -61 -73c-4 -11 -7 -27 -10 -50c13 -43 34 -83 59 -121 c31 -47 59 -79 101 -129c-8 0 -26 7 -54 20l-62 29l-21 6l-23 1c-25 0 -45 -10 -60 -30l-4 -14l-1 -12c0 -33 20 -56 39 -78c8 -9 17 -18 26 -26c17 -15 27 -24 28 -30l-3 -3c-11 5 -19 10 -25 15c-9 3 -37 21 -45 26c-24 14 -45 32 -63 51c-19 21 -37 44 -37 71 c0 63 27 95 80 95c41 0 86 -18 136 -52c-19 26 -37 48 -55 66c-23 23 -48 44 -73 65c-28 23 -47 40 -58 53s-17 26 -18 39c75 64 113 125 113 183c0 27 -7 48 -18 68z" />
      </symbol>
      <symbol id="E222-1d6vtvn" viewBox="0 0 1000 1000" overflow="inherit">
         <path transform="scale(1,-1)" d="M-163 -200l326 150v-100l-326 -150v100zM-163 150l326 150v-100l-326 -150v100zM-163 -25l326 150v-100l-326 -150v100z" />
      </symbol>
      <symbol id="E084-1d6vtvn" viewBox="0 0 1000 1000" overflow="inherit">
         <path transform="scale(1,-1)" d="M20 -78c84 97 114 180 134 329h170c-13 -32 -82 -132 -99 -151l-84 -97c-33 -36 -59 -63 -80 -81h162v102l127 123v-225h57v-39h-57v-34c0 -43 19 -65 57 -65v-34h-244v36c48 0 60 26 60 70v27h-203v39z" />
      </symbol>
   </defs>
   <style type="text/css">g.page-margin{font-family:Times,serif;} g.ending, g.fing, g.reh, g.tempo{font-weight:bold;} g.dir, g.dynam, g.mNum{font-style:italic;} g.label{font-weight:normal;}</style>
   <svg class="definition-scale" color="black" viewBox="0 0 21000 29700">
      <g class="page-margin" transform="translate(500, 500)">
         <g id="m-031e75df-40b0-4370-b628-874c7bab4ebd" class="mdiv pageMilestone" />
         <g id="m-8e019b1b-bd9e-4405-88b4-49c1dab3b7b6" class="score pageMilestone" />
         <g id="s1cjfp8f" class="system">
            <g id="m-2384165e-c73e-47cd-8f69-c2a5b70be661" class="section systemMilestone" />
            <g id="m-7f017abf-97c3-4785-a47b-97ee31f87b92" class="measure">
               <g id="m-7d6d28ae-231d-4cbc-a047-23b065325096" class="staff">
                  <path d="M0 1607 L4245 1607" stroke="currentColor" stroke-width="13" />
                  <path d="M0 1787 L4245 1787" stroke="currentColor" stroke-width="13" />
                  <path d="M0 1967 L4245 1967" stroke="currentColor" stroke-width="13" />
                  <path d="M0 2147 L4245 2147" stroke="currentColor" stroke-width="13" />
                  <path d="M0 2327 L4245 2327" stroke="currentColor" stroke-width="13" />
                  <g id="c14n0ani" class="clef">
                     <use xlink:href="#E069-1d6vtvn" x="90" y="1967" height="720px" width="720px" />
                  </g>
                  <g id="kh9yodm" class="keySig" />
                  <g id="mldmdas" class="meterSig">
                     <use xlink:href="#E084-1d6vtvn" x="490" y="1787" height="720px" width="720px" />
                     <use xlink:href="#E084-1d6vtvn" x="490" y="2147" height="720px" width="720px" />
                  </g>
                  <g id="m-d1c16b17-3744-4608-83fa-a3aefe413734" class="layer">
                     <g id="m-7946ed5d-8aff-433e-815a-6eeab1053f38" class="note">
                        <g class="notehead">
                           <use xlink:href="#E0A9-1d6vtvn" x="1052" y="1517" height="720px" width="720px" />
                        </g>
                        <g id="sej4xov" class="stem">
                           <path d="M1251 1438 L1251 1067" stroke="currentColor" stroke-width="18" />
                        </g>
                     </g>
                     <g id="m-bbc87043-faf6-4b4f-8f11-b5e45c63126e" class="note">
                        <g class="notehead">
                           <use xlink:href="#E0A9-1d6vtvn" x="1952" y="1517" height="720px" width="720px" />
                        </g>
                        <g id="srehsoo" class="stem">
                           <path d="M2151 1438 L2151 1067" stroke="currentColor" stroke-width="18" />
                        </g>
                     </g>
                     <g id="m-8460e301-f9d2-4c33-ae8a-fe4f83b82cb8" class="beam">
                        <polygon points="2832,1067 3300,1067 3300,1157 2832,1157" />
                        <g id="m-bb33eb39-41ab-4408-9d1c-d6123c45924a" class="note">
                           <g class="notehead">
                              <use xlink:href="#E0A9-1d6vtvn" x="2642" y="1517" height="720px" width="720px" />
                           </g>
                           <g id="smywjhb" class="stem">
                              <path d="M2841 1438 L2841 1085" stroke="currentColor" stroke-width="18" />
                           </g>
                        </g>
                        <g id="m-910eb96f-bf90-470d-8fa4-403a7b3a250f" class="note">
                           <g class="notehead">
                              <use xlink:href="#E0A9-1d6vtvn" x="3092" y="1517" height="720px" width="720px" />
                           </g>
                           <g id="s3bzxy8" class="stem">
                              <path d="M3291 1438 L3291 1085" stroke="currentColor" stroke-width="18" />
                           </g>
                        </g>
                     </g>
                     <g id="m-6f90bad6-a407-401b-8a3f-8166cec33f7a" class="note">
                        <g class="notehead">
                           <use xlink:href="#E0A9-1d6vtvn" x="3542" y="1517" height="720px" width="720px" />
                        </g>
                        <g id="snu66x9" class="stem">
                           <path d="M3741 1438 L3741 1067" stroke="currentColor" stroke-width="18" />
                        </g>
                     </g>
                  </g>
                  <g id="m-036eb8c2-0ef6-42f4-8e0c-9ba261e32fa0" class="layer">
                     <g id="m-3f34e410-f17b-4e9e-8fb6-70add6810d97" class="beam">
                        <polygon points="1052,2867 1520,2867 1520,2777 1052,2777" />
                        <g id="m-9d60dc2f-f890-449c-9bfa-9e6958526fa7" class="note">
                           <g class="notehead">
                              <use xlink:href="#E0A4-1d6vtvn" x="1052" y="2417" height="720px" width="720px" />
                           </g>
                           <g id="s111h64n" class="stem">
                              <path d="M1061 2445 L1061 2849" stroke="currentColor" stroke-width="18" />
                           </g>
                        </g>
                        <g id="m-ffc9f0a2-2f2b-4e66-83f8-f1f62dd1d7b9" class="note">
                           <g class="notehead">
                              <use xlink:href="#E0A4-1d6vtvn" x="1502" y="2417" height="720px" width="720px" />
                           </g>
                           <g id="sd5o1eh" class="stem">
                              <path d="M1511 2445 L1511 2849" stroke="currentColor" stroke-width="18" />
                           </g>
                        </g>
                     </g>
                     <g id="m-9872ecd0-b1a9-44b5-96ac-b213f3180752" class="rest">
                        <use xlink:href="#E4E5-1d6vtvn" x="1952" y="2507" height="720px" width="720px" />
                     </g>
                     <g id="m-1232e3c4-6111-47fa-8c04-516b63db0be1" class="beam">
                        <polygon points="2642,2867 3110,2867 3110,2777 2642,2777" />
                        <g id="m-b57cb7d5-3645-4fcb-8962-7cc053b1e6db" class="note">
                           <g class="notehead">
                              <use xlink:href="#E0A4-1d6vtvn" x="2642" y="2417" height="720px" width="720px" />
                           </g>
                           <g id="scxu6rr" class="stem">
                              <path d="M2651 2445 L2651 2849" stroke="currentColor" stroke-width="18" />
                           </g>
                        </g>
                        <g id="m-23c1d3f5-d940-48b4-ae5a-9e0022cb191d" class="note">
                           <g class="notehead">
                              <use xlink:href="#E0A4-1d6vtvn" x="3092" y="2417" height="720px" width="720px" />
                           </g>
                           <g id="s56cqu9" class="stem">
                              <path d="M3101 2445 L3101 2849" stroke="currentColor" stroke-width="18" />
                           </g>
                        </g>
                     </g>
                     <g id="m-ba1a575a-077e-41b9-a4d9-30dfe1d8ad0c" class="note">
                        <g class="notehead">
                           <use xlink:href="#E0A4-1d6vtvn" x="3542" y="1967" height="720px" width="720px" />
                        </g>
                        <g id="s18ydkes" class="stem">
                           <path d="M3551 1995 L3551 2702" stroke="currentColor" stroke-width="18" />
                           <use xlink:href="#E222-1d6vtvn" x="3551" y="2453" height="720px" width="720px" />
                        </g>
                        <g id="a1roov51" class="accid" />
                     </g>
                  </g>
               </g>
               <g id="bql8cm3" class="barLine">
                  <path d="M4232 1607 L4232 2327" stroke="currentColor" stroke-width="27" />
               </g>
            </g>
            <g id="sxlnawg" class="systemMilestoneEnd m-2384165e-c73e-47cd-8f69-c2a5b70be661" />
         </g>
         <g id="p1n2mg1u" class="pageMilestoneEnd m-8e019b1b-bd9e-4405-88b4-49c1dab3b7b6" />
         <g id="p1lehx73" class="pageMilestoneEnd m-031e75df-40b0-4370-b628-874c7bab4ebd" />
         <g id="p18d70qo" class="pgHead autogenerated">
            <text font-size="0px">
               <tspan id="rvvwsof" class="rend" x="10000" y="418" text-anchor="middle">
                  <title class="labelAttr">title</title>
                  <tspan id="rmukokw" class="rend">
                     <tspan id="t1oct9h4" class="text">
                        <tspan font-size="607px">5_rock_120_beat_4-4</tspan>
                     </tspan>
                  </tspan>
                  <tspan id="l1k4pyfq" class="lb" />
                  <tspan id="r1su5v5f" class="rend">
                     <tspan id="t1bghvdi" class="text" x="10000" y="808">
                        <tspan font-size="324px">5_rock_120_beat_4-4</tspan>
                     </tspan>
                  </tspan>
               </tspan>
            </text>
         </g>
         <g id="p1650auz" class="pgFoot autogenerated">
            <g id="f133c7yn" class="fig">
               <g class="svg" transform="translate(7750, 28099) scale(10.000000, 10.000000)">
                  <g>
                     <path fill="#00000" d="M 17.11278,49.26451 V 10.367554 h 12.696511 c 3.288815,7.336676 6.71267,14.610456 10.127281,21.888976 3.419998,-7.484684 6.255515,-14.204887 9.58887,-21.909915 2.436207,0.103726 4.316952,0.08453 6.484294,-0.05808 V 49.264423 H 50.274275 C 50.145222,38.35639 50.016136,27.448368 49.887066,16.540329 45.003488,27.315459 39.967448,38.433564 35.083854,49.208695 34.678996,49.343717 34.426583,49.135619 34.021726,49.270644 29.46588,39.330716 24.910049,29.390805 20.354201,19.450876 20.224341,29.388756 20.09461,39.326619 19.964815,49.264497 H 17.11278 Z M 36.754144,39.324695 C 32.721221,30.512695 28.6883,21.700679 24.655394,12.888662 22.530527,12.750737 22.656775,12.71031 20.714356,12.813974 v 0.966497 c 4.612938,9.99784 9.609439,20.748709 13.87298,30.081745 0.722248,-1.512523 1.444528,-3.025014 2.166808,-4.537521 z m 25.738417,9.939815 c 0,-12.965651 0,-25.931305 0,-38.896956 10.084388,0 20.168791,0 30.253178,0 0,0.960416 0,1.920849 0,2.881265 -6.482825,0 -12.965652,0 -19.448478,0 0,4.802097 0,9.604178 0,14.406277 5.52241,0 11.044819,0 16.567229,0 0,0.960415 0,1.920832 0,2.881248 -5.52241,0 -11.044819,0 -16.567229,0 0,5.282306 0,10.564611 0,15.846917 6.963035,0 13.926068,0 20.889103,0 0,0.960416 0,1.920832 0,2.881249 -10.564597,0 -21.129207,0 -31.693803,0 z m 4.321874,-2.160937 c 0,-11.765131 0,-23.530263 0,-35.295394 -0.720312,0 -1.440625,0 -2.160937,0 0,11.765131 0,23.530263 0,35.295394 0.720312,0 1.440625,0 2.160937,0 z m 32.41413,2.160937 c 0,-12.965651 0,-25.931305 0,-38.896956 2.401045,0 4.802095,0 7.203135,0 0,12.965651 0,25.931305 0,38.896956 -2.40104,0 -4.80209,0 -7.203135,0 z m 2.881265,-2.160937 c 0,-11.765131 0,-23.530263 0,-35.295394 -0.72031,0 -1.44064,0 -2.160953,0 0,11.765131 0,23.530263 0,35.295394 0.720313,0 1.440643,0 2.160953,0 z" />
                     <path fill="#00000" d="m 346.3,6.7 c -3.1,0.5 -4.9,4.4 -2.7,6.8 1.2,1.4 2.7,2.4 4.1,3.5 -2.4,5.3 -7.7,8.3 -11.9,12.1 -3.7,2.8 -7,6.2 -9.7,9.9 -2.2,-0.8 -0.3,-6.8 -0.6,-9.5 0.1,-3.1 0.7,-6.4 2.9,-8.7 1.3,-1.9 3,-3.5 4.5,-5.2 1.2,-3.4 -3.2,-4.9 -5.8,-4.6 -7.3,-0.5 -14.6,2 -20,6.8 -5,4.6 -10,10.1 -11.5,17 -0.9,3.5 -0.2,7.5 2.8,9.9 2.5,2.8 7.4,2.9 9.8,-0.2 1.7,-2.3 3.2,-4.8 3.8,-7.6 -0.1,-2.6 -4.4,-2.3 -4.3,0.2 1.2,2.4 -0.9,4.7 -2.7,6.2 -1.7,0.9 -4.7,0.7 -4.8,-1.7 -1,-5.8 2.1,-11.3 5.2,-16.1 4,-5.8 9.8,-11.2 17.2,-11.8 1.6,0 8.1,-1.2 6.8,1.4 -2.8,2.8 -5.6,6.1 -6,10.3 -1.6,7.7 0.1,15.7 -2.3,23.2 -1.1,3.9 2,2.6 2.5,0.2 3.3,-7.4 8.9,-13.4 15.1,-18.5 4.2,-3.9 9.5,-7.1 11.9,-12.6 1.3,-3.6 1.2,-9 -2.7,-10.9 -0.6,-0.2 -1.2,-0.3 -1.8,-0.3 z m 66,14.5 c -2,0.8 -1.8,4.9 0.8,4.4 3.4,0.4 2.9,-6.2 -0.8,-4.4 z m 0.6,7.3 c -1.3,0.5 -7.6,0.5 -5.4,2.2 4,-0.3 0.7,4.5 0.6,6.7 -0.4,2.9 -2.4,5.9 -1.2,8.8 2.7,1.7 5.6,-0.8 6.8,-3.2 1.6,-1.4 -0.5,-3 -1.2,-0.9 -0.4,0.8 -2.4,3.5 -2.6,1.8 1.1,-5 2.7,-9.9 3.9,-14.9 l -0.1,-0.5 h -0.9 z m -65.1,0.2 c -6.5,1.6 -10.5,9.5 -8.2,15.7 2.1,3.4 7.4,2.9 10.1,0.4 2,-0.2 3.6,-5.3 1,-3.4 -1.4,2 -4,4.2 -6.5,2.8 -2.2,-1.9 -1.9,-5.7 1.7,-5.3 3.1,-0.9 6.9,-2.1 8.1,-5.5 0.9,-2.7 -1.6,-5.2 -4.3,-4.8 h -1.1 -0.7 z m 13.6,0 c -2.2,0 -8.5,1.8 -2.9,2.3 0.9,1.9 -1,4.9 -1.1,7.2 -0.5,2.9 -1.4,5.7 -1.7,8.7 3.7,0.7 3.8,-2.6 4.4,-5.3 0.9,-3.3 1.6,-7 4.1,-9.5 2.4,1.6 6.8,-0.7 3.7,-3.4 -2.9,-0.5 -4.8,2.4 -6.2,4.3 0,-1.2 2.4,-5 -0.2,-4.3 z m 15.8,0 c -6.4,1.3 -9.6,9.1 -7.7,14.9 1.9,4 7.7,3.9 11,1.7 4.1,-3 6,-8.9 4.4,-13.7 -1.3,-3 -4.8,-3.2 -7.6,-3 z m 17,0 c -2.3,0 -8.8,1.9 -3,2.4 0.4,2.5 -1,5.7 -1.4,8.4 -0.7,2.4 -1.8,7.5 2.1,7.2 3.8,-0.1 6.5,-3.5 8.5,-6.3 2,-3.2 4.5,-7 3.3,-10.9 -3.7,-3 -3.6,2.6 -3.1,5.1 -0.7,3.8 -2.7,7.9 -6.2,9.8 -3.6,0.6 -1,-4.3 -0.8,-6.1 0.6,-3.2 1.6,-6.3 1.9,-9.5 -0.4,0 -0.8,0 -1.1,0 z m 30.6,0 c -6.3,1.2 -9.5,8.9 -7.8,14.7 1.5,4 7.2,4.2 10.5,2.4 4.6,-2.8 6.6,-9.3 4.8,-14.3 -1.4,-2.8 -4.8,-3 -7.5,-2.8 z m -75.4,1.7 c 2.1,1.5 0.2,4.7 -1.6,5.7 -1.1,0.4 -5.5,3.4 -4.6,0.7 0.8,-2.7 2.2,-6.2 5.3,-6.6 l 0.9,0.1 z m 30.8,0 c 2.6,1.5 1.3,5.2 0.8,7.6 -0.8,2.7 -1.9,5.9 -4.7,7.1 -5.1,0.8 -4,-5.8 -2.8,-8.8 1,-2.8 3,-6.8 6.7,-5.8 z m 47.1,-0.1 c 2.9,0.7 2,4.7 1.5,6.8 -0.7,3 -1.8,6.7 -5,8 -4.7,0.8 -4,-5.1 -3,-7.9 0.9,-3 2.7,-7.3 6.5,-6.8 z m -88.1,5.9 c -0.3,1.3 0.9,-0.6 0,0 z m -1.1,2.4 c -0.2,0.5 0.5,-0.1 0,0 z m -1.3,4.5 c -0.3,1.3 0.8,-0.2 0,0 z" />
                     <text y="41" x="201" fill="#00000" style="font-style:italic;font-weight:normal;font-size:30px;line-height:125%;font-family:Times;text-anchor:middle" xml:space="preserve">engraved with</text>
                  </g>
               </g>
            </g>
         </g>
      </g>
   </svg>
</svg>
