<?xml version="1.0" encoding="UTF-8" standalone="no"?>
<svg width="2100px" height="2970px" version="1.1" xmlns="http://www.w3.org/2000/svg" xmlns:xlink="http://www.w3.org/1999/xlink" xmlns:mei="http://www.music-encoding.org/ns/mei" overflow="visible">
   <desc>Engraved by Verovio 4.4.0-66ab39c</desc>
   <defs>
      <symbol id="E084-1phvqfl" viewBox="0 0 1000 1000" overflow="inherit">
         <path transform="scale(1,-1)" d="M20 -78c84 97 114 180 134 329h170c-13 -32 -82 -132 -99 -151l-84 -97c-33 -36 -59 -63 -80 -81h162v102l127 123v-225h57v-39h-57v-34c0 -43 19 -65 57 -65v-34h-244v36c48 0 60 26 60 70v27h-203v39z" />
      </symbol>
      <symbol id="E0A4-1phvqfl" viewBox="0 0 1000 1000" overflow="inherit">
         <path transform="scale(1,-1)" d="M0 -39c0 68 73 172 200 172c66 0 114 -37 114 -95c0 -84 -106 -171 -218 -171c-64 0 -96 30 -96 94z" />
      </symbol>
      <symbol id="E4E3-1phvqfl" viewBox="0 0 1000 1000" overflow="inherit">
         <path transform="scale(1,-1)" d="M0 -115v105c0 9 1 10 10 10h280c9 0 10 -1 10 -10v-105c0 -9 -1 -10 -10 -10h-280c-9 0 -10 1 -10 10z" />
      </symbol>
      <symbol id="E069-1phvqfl" viewBox="0 0 1000 1000" overflow="inherit">
         <path transform="scale(1,-1)" d="M200 250h125v-500h-125v500zM0 250h125v-500h-125v500z" />
      </symbol>
   </defs>
   <style type="text/css">g.page-margin{font-family:Times,serif;} g.ending, g.fing, g.reh, g.tempo{font-weight:bold;} g.dir, g.dynam, g.mNum{font-style:italic;} g.label{font-weight:normal;}</style>
   <svg class="definition-scale" color="black" viewBox="0 0 21000 29700">
      <g class="page-margin" transform="translate(500, 500)">
         <g id="m-56ec5685-fb45-4c17-a42f-605790d5ac20" class="mdiv pageMilestone" />
         <g id="m-1de74686-cd3e-4819-9482-33c7258f9c44" class="score pageMilestone" />
         <g id="s13z2lrt" class="system">
            <g id="m-633c56d2-c5e6-4f20-a38b-8fa6bedbc425" class="section systemMilestone" />
            <g id="m-2e289f36-002f-4da3-95f0-e3a5e3eaece2" class="measure">
               <g id="m-62e94b79-c569-4bfb-9a0f-fcb2ad5a9ead" class="staff">
                  <path d="M0 1595 L5939 1595" stroke="currentColor" stroke-width="13" />
                  <path d="M0 1775 L5939 1775" stroke="currentColor" stroke-width="13" />
                  <path d="M0 1955 L5939 1955" stroke="currentColor" stroke-width="13" />
                  <path d="M0 2135 L5939 2135" stroke="currentColor" stroke-width="13" />
                  <path d="M0 2315 L5939 2315" stroke="currentColor" stroke-width="13" />
                  <g id="cfdhkxj" class="clef">
                     <use xlink:href="#E069-1phvqfl" x="90" y="1955" height="720px" width="720px" />
                  </g>
                  <g id="k1oh52r1" class="keySig" />
                  <g id="m1ue94us" class="meterSig">
                     <use xlink:href="#E084-1phvqfl" x="490" y="1775" height="720px" width="720px" />
                     <use xlink:href="#E084-1phvqfl" x="490" y="2135" height="720px" width="720px" />
                  </g>
                  <g id="m-8fd7fda8-4644-45ac-979f-fa96f7090625" class="layer">
                     <g id="m-83134f2d-fec5-4f17-b615-3b63ab85a081" class="rest">
                        <use xlink:href="#E4E3-1phvqfl" x="1052" y="1415" height="720px" width="720px" />
                        <g class="ledgerLines">
                           <path d="M1004 1415 L1316 1415" stroke="currentColor" stroke-width="22" />
                        </g>
                     </g>
                  </g>
                  <g id="m-cecc6c39-f7f6-42d1-a2b2-7bb58799ee23" class="layer">
                     <g id="m-e8e1957d-85d5-490d-95ab-06c1ec303ce7" class="beam">
                        <polygon points="1052,2540 2018,2540 2018,2450 1052,2450" />
                        <polygon points="1052,2405 1377,2405 1377,2315 1052,2315" />
                        <polygon points="1377,2405 1693,2405 1693,2315 1377,2315" />
                        <polygon points="1693,2405 2018,2405 2018,2315 1693,2315" />
                        <g id="m-313be9d6-99d6-4e68-b205-a84c1362b070" class="note">
                           <g class="notehead">
                              <use xlink:href="#E0A4-1phvqfl" x="1052" y="1955" height="720px" width="720px" />
                           </g>
                           <g id="s13ffess" class="stem">
                              <path d="M1061 1983 L1061 2522" stroke="currentColor" stroke-width="18" />
                           </g>
                           <g id="a12u30ga" class="accid" />
                        </g>
                        <g id="m-804e3186-b59f-4509-be5d-96f62be9ffdc" class="note">
                           <g class="notehead">
                              <use xlink:href="#E0A4-1phvqfl" x="1368" y="1955" height="720px" width="720px" />
                           </g>
                           <g id="si3hsi8" class="stem">
                              <path d="M1377 1983 L1377 2522" stroke="currentColor" stroke-width="18" />
                           </g>
                           <g id="a1y8ysa4" class="accid" />
                        </g>
                        <g id="m-ce9f5802-8dac-4595-9a68-13b1313120ae" class="note">
                           <g class="notehead">
                              <use xlink:href="#E0A4-1phvqfl" x="1684" y="1955" height="720px" width="720px" />
                           </g>
                           <g id="sipq8hm" class="stem">
                              <path d="M1693 1983 L1693 2522" stroke="currentColor" stroke-width="18" />
                           </g>
                           <g id="aadeetu" class="accid" />
                        </g>
                        <g id="m-1954585c-153f-4784-9d58-b3afb86c9ce1" class="note">
                           <g class="notehead">
                              <use xlink:href="#E0A4-1phvqfl" x="2000" y="1955" height="720px" width="720px" />
                           </g>
                           <g id="svzednf" class="stem">
                              <path d="M2009 1983 L2009 2522" stroke="currentColor" stroke-width="18" />
                           </g>
                           <g id="atqhofr" class="accid" />
                        </g>
                     </g>
                     <g id="m-adab6952-c5e8-4247-bef0-df71e78379ab" class="beam">
                        <polygon points="2316,2315 3282,2315 3282,2225 2316,2225" />
                        <polygon points="2316,2180 2641,2180 2641,2090 2316,2090" />
                        <polygon points="2641,2180 2957,2180 2957,2090 2641,2090" />
                        <polygon points="2957,2180 3282,2180 3282,2090 2957,2090" />
                        <g id="m-d6dee403-1784-4f99-877a-f27a61d3dc24" class="note">
                           <g class="notehead">
                              <use xlink:href="#E0A4-1phvqfl" x="2316" y="1685" height="720px" width="720px" />
                           </g>
                           <g id="sblv7sy" class="stem">
                              <path d="M2325 1713 L2325 2297" stroke="currentColor" stroke-width="18" />
                           </g>
                           <g id="a1n6abiw" class="accid" />
                        </g>
                        <g id="m-ee029563-6159-4bcc-8142-6b78feac9ca1" class="note">
                           <g class="notehead">
                              <use xlink:href="#E0A4-1phvqfl" x="2632" y="1685" height="720px" width="720px" />
                           </g>
                           <g id="sk6msr2" class="stem">
                              <path d="M2641 1713 L2641 2297" stroke="currentColor" stroke-width="18" />
                           </g>
                           <g id="a1epc5se" class="accid" />
                        </g>
                        <g id="m-d0cb272b-a58d-487a-a844-55dbc52edac2" class="note">
                           <g class="notehead">
                              <use xlink:href="#E0A4-1phvqfl" x="2948" y="1685" height="720px" width="720px" />
                           </g>
                           <g id="s10bc24z" class="stem">
                              <path d="M2957 1713 L2957 2297" stroke="currentColor" stroke-width="18" />
                           </g>
                           <g id="a43hcse" class="accid" />
                        </g>
                        <g id="m-693b3a2a-9234-487d-9de6-cfe7d09e2030" class="note">
                           <g class="notehead">
                              <use xlink:href="#E0A4-1phvqfl" x="3264" y="1685" height="720px" width="720px" />
                           </g>
                           <g id="si7ouyp" class="stem">
                              <path d="M3273 1713 L3273 2297" stroke="currentColor" stroke-width="18" />
                           </g>
                           <g id="ao6wzgc" class="accid" />
                        </g>
                     </g>
                     <g id="m-e3bba1c8-1724-4f4d-b46e-1ad07acefb8f" class="beam">
                        <polygon points="3580,2360 4546,2360 4546,2270 3580,2270" />
                        <polygon points="3580,2225 3905,2225 3905,2135 3580,2135" />
                        <polygon points="3905,2225 4221,2225 4221,2135 3905,2135" />
                        <polygon points="4221,2225 4546,2225 4546,2135 4221,2135" />
                        <g id="m-1dad649f-3eea-4bc7-a807-1b298645389d" class="note">
                           <g class="notehead">
                              <use xlink:href="#E0A4-1phvqfl" x="3580" y="1775" height="720px" width="720px" />
                           </g>
                           <g id="s1goxo79" class="stem">
                              <path d="M3589 1803 L3589 2342" stroke="currentColor" stroke-width="18" />
                           </g>
                        </g>
                        <g id="m-06a60bd7-e116-4f3b-b801-782ebed887cd" class="note">
                           <g class="notehead">
                              <use xlink:href="#E0A4-1phvqfl" x="3896" y="1775" height="720px" width="720px" />
                           </g>
                           <g id="sz65xmg" class="stem">
                              <path d="M3905 1803 L3905 2342" stroke="currentColor" stroke-width="18" />
                           </g>
                        </g>
                        <g id="m-641ee6e2-9832-46fd-9de9-fb3ad4352635" class="note">
                           <g class="notehead">
                              <use xlink:href="#E0A4-1phvqfl" x="4212" y="1775" height="720px" width="720px" />
                           </g>
                           <g id="strhwg2" class="stem">
                              <path d="M4221 1803 L4221 2342" stroke="currentColor" stroke-width="18" />
                           </g>
                        </g>
                        <g id="m-02579f52-d80c-481b-9430-63cf6ba6b4a6" class="note">
                           <g class="notehead">
                              <use xlink:href="#E0A4-1phvqfl" x="4528" y="1775" height="720px" width="720px" />
                           </g>
                           <g id="s1m4xvgc" class="stem">
                              <path d="M4537 1803 L4537 2342" stroke="currentColor" stroke-width="18" />
                           </g>
                        </g>
                     </g>
                     <g id="m-4509462a-e01f-428b-bcc0-a7b2620ac8d2" class="beam">
                        <polygon points="4844,2810 5494,2810 5494,2720 4844,2720" />
                        <polygon points="4844,2675 5169,2675 5169,2585 4844,2585" />
                        <g id="m-0bbeeeb1-7a6f-431e-80d3-2232279d0dda" class="note">
                           <g class="notehead">
                              <use xlink:href="#E0A4-1phvqfl" x="4844" y="2225" height="720px" width="720px" />
                           </g>
                           <g id="seiqe6b" class="stem">
                              <path d="M4853 2253 L4853 2792" stroke="currentColor" stroke-width="18" />
                           </g>
                        </g>
                        <g id="m-92ecd34a-24bc-420e-8a2b-448f9b1151aa" class="note">
                           <g class="notehead">
                              <use xlink:href="#E0A4-1phvqfl" x="5160" y="2225" height="720px" width="720px" />
                           </g>
                           <g id="s3rldzu" class="stem">
                              <path d="M5169 2253 L5169 2792" stroke="currentColor" stroke-width="18" />
                           </g>
                        </g>
                        <g id="m-210fe17b-34c8-4418-bd42-5114aed2ae02" class="note">
                           <g class="notehead">
                              <use xlink:href="#E0A4-1phvqfl" x="5476" y="2225" height="720px" width="720px" />
                           </g>
                           <g id="sq1kiet" class="stem">
                              <path d="M5485 2253 L5485 2792" stroke="currentColor" stroke-width="18" />
                           </g>
                        </g>
                     </g>
                  </g>
               </g>
               <g id="b1d0azxb" class="barLine">
                  <path d="M5926 1595 L5926 2315" stroke="currentColor" stroke-width="27" />
               </g>
            </g>
            <g id="s1rqqaai" class="systemMilestoneEnd m-633c56d2-c5e6-4f20-a38b-8fa6bedbc425" />
         </g>
         <g id="p1r7y57f" class="pageMilestoneEnd m-1de74686-cd3e-4819-9482-33c7258f9c44" />
         <g id="pmybzw4" class="pageMilestoneEnd m-56ec5685-fb45-4c17-a42f-605790d5ac20" />
         <g id="p3pmb60" class="pgHead autogenerated">
            <text font-size="0px">
               <tspan id="rgn511g" class="rend" x="10000" y="415" text-anchor="middle">
                  <title class="labelAttr">title</title>
                  <tspan id="rxca1by" class="rend">
                     <tspan id="t14599pc" class="text">
                        <tspan font-size="607px">30_rock_120_beat_4-4</tspan>
                     </tspan>
                  </tspan>
                  <tspan id="l19ktcq5" class="lb" />
                  <tspan id="rqys28h" class="rend">
                     <tspan id="tw3c4ky" class="text" x="10000" y="805">
                        <tspan font-size="324px">30_rock_120_beat_4-4</tspan>
                     </tspan>
                  </tspan>
               </tspan>
            </text>
         </g>
         <g id="piw91ci" class="pgFoot autogenerated">
            <g id="fh3gff6" class="fig">
               <g class="svg" transform="translate(7750, 28099) scale(10.000000, 10.000000)">
                  <g>
                     <path fill="#00000" d="M 17.11278,49.26451 V 10.367554 h 12.696511 c 3.288815,7.336676 6.71267,14.610456 10.127281,21.888976 3.419998,-7.484684 6.255515,-14.204887 9.58887,-21.909915 2.436207,0.103726 4.316952,0.08453 6.484294,-0.05808 V 49.264423 H 50.274275 C 50.145222,38.35639 50.016136,27.448368 49.887066,16.540329 45.003488,27.315459 39.967448,38.433564 35.083854,49.208695 34.678996,49.343717 34.426583,49.135619 34.021726,49.270644 29.46588,39.330716 24.910049,29.390805 20.354201,19.450876 20.224341,29.388756 20.09461,39.326619 19.964815,49.264497 H 17.11278 Z M 36.754144,39.324695 C 32.721221,30.512695 28.6883,21.700679 24.655394,12.888662 22.530527,12.750737 22.656775,12.71031 20.714356,12.813974 v 0.966497 c 4.612938,9.99784 9.609439,20.748709 13.87298,30.081745 0.722248,-1.512523 1.444528,-3.025014 2.166808,-4.537521 z m 25.738417,9.939815 c 0,-12.965651 0,-25.931305 0,-38.896956 10.084388,0 20.168791,0 30.253178,0 0,0.960416 0,1.920849 0,2.881265 -6.482825,0 -12.965652,0 -19.448478,0 0,4.802097 0,9.604178 0,14.406277 5.52241,0 11.044819,0 16.567229,0 0,0.960415 0,1.920832 0,2.881248 -5.52241,0 -11.044819,0 -16.567229,0 0,5.282306 0,10.564611 0,15.846917 6.963035,0 13.926068,0 20.889103,0 0,0.960416 0,1.920832 0,2.881249 -10.564597,0 -21.129207,0 -31.693803,0 z m 4.321874,-2.160937 c 0,-11.765131 0,-23.530263 0,-35.295394 -0.720312,0 -1.440625,0 -2.160937,0 0,11.765131 0,23.530263 0,35.295394 0.720312,0 1.440625,0 2.160937,0 z m 32.41413,2.160937 c 0,-12.965651 0,-25.931305 0,-38.896956 2.401045,0 4.802095,0 7.203135,0 0,12.965651 0,25.931305 0,38.896956 -2.40104,0 -4.80209,0 -7.203135,0 z m 2.881265,-2.160937 c 0,-11.765131 0,-23.530263 0,-35.295394 -0.72031,0 -1.44064,0 -2.160953,0 0,11.765131 0,23.530263 0,35.295394 0.720313,0 1.440643,0 2.160953,0 z" />
                     <path fill="#00000" d="m 346.3,6.7 c -3.1,0.5 -4.9,4.4 -2.7,6.8 1.2,1.4 2.7,2.4 4.1,3.5 -2.4,5.3 -7.7,8.3 -11.9,12.1 -3.7,2.8 -7,6.2 -9.7,9.9 -2.2,-0.8 -0.3,-6.8 -0.6,-9.5 0.1,-3.1 0.7,-6.4 2.9,-8.7 1.3,-1.9 3,-3.5 4.5,-5.2 1.2,-3.4 -3.2,-4.9 -5.8,-4.6 -7.3,-0.5 -14.6,2 -20,6.8 -5,4.6 -10,10.1 -11.5,17 -0.9,3.5 -0.2,7.5 2.8,9.9 2.5,2.8 7.4,2.9 9.8,-0.2 1.7,-2.3 3.2,-4.8 3.8,-7.6 -0.1,-2.6 -4.4,-2.3 -4.3,0.2 1.2,2.4 -0.9,4.7 -2.7,6.2 -1.7,0.9 -4.7,0.7 -4.8,-1.7 -1,-5.8 2.1,-11.3 5.2,-16.1 4,-5.8 9.8,-11.2 17.2,-11.8 1.6,0 8.1,-1.2 6.8,1.4 -2.8,2.8 -5.6,6.1 -6,10.3 -1.6,7.7 0.1,15.7 -2.3,23.2 -1.1,3.9 2,2.6 2.5,0.2 3.3,-7.4 8.9,-13.4 15.1,-18.5 4.2,-3.9 9.5,-7.1 11.9,-12.6 1.3,-3.6 1.2,-9 -2.7,-10.9 -0.6,-0.2 -1.2,-0.3 -1.8,-0.3 z m 66,14.5 c -2,0.8 -1.8,4.9 0.8,4.4 3.4,0.4 2.9,-6.2 -0.8,-4.4 z m 0.6,7.3 c -1.3,0.5 -7.6,0.5 -5.4,2.2 4,-0.3 0.7,4.5 0.6,6.7 -0.4,2.9 -2.4,5.9 -1.2,8.8 2.7,1.7 5.6,-0.8 6.8,-3.2 1.6,-1.4 -0.5,-3 -1.2,-0.9 -0.4,0.8 -2.4,3.5 -2.6,1.8 1.1,-5 2.7,-9.9 3.9,-14.9 l -0.1,-0.5 h -0.9 z m -65.1,0.2 c -6.5,1.6 -10.5,9.5 -8.2,15.7 2.1,3.4 7.4,2.9 10.1,0.4 2,-0.2 3.6,-5.3 1,-3.4 -1.4,2 -4,4.2 -6.5,2.8 -2.2,-1.9 -1.9,-5.7 1.7,-5.3 3.1,-0.9 6.9,-2.1 8.1,-5.5 0.9,-2.7 -1.6,-5.2 -4.3,-4.8 h -1.1 -0.7 z m 13.6,0 c -2.2,0 -8.5,1.8 -2.9,2.3 0.9,1.9 -1,4.9 -1.1,7.2 -0.5,2.9 -1.4,5.7 -1.7,8.7 3.7,0.7 3.8,-2.6 4.4,-5.3 0.9,-3.3 1.6,-7 4.1,-9.5 2.4,1.6 6.8,-0.7 3.7,-3.4 -2.9,-0.5 -4.8,2.4 -6.2,4.3 0,-1.2 2.4,-5 -0.2,-4.3 z m 15.8,0 c -6.4,1.3 -9.6,9.1 -7.7,14.9 1.9,4 7.7,3.9 11,1.7 4.1,-3 6,-8.9 4.4,-13.7 -1.3,-3 -4.8,-3.2 -7.6,-3 z m 17,0 c -2.3,0 -8.8,1.9 -3,2.4 0.4,2.5 -1,5.7 -1.4,8.4 -0.7,2.4 -1.8,7.5 2.1,7.2 3.8,-0.1 6.5,-3.5 8.5,-6.3 2,-3.2 4.5,-7 3.3,-10.9 -3.7,-3 -3.6,2.6 -3.1,5.1 -0.7,3.8 -2.7,7.9 -6.2,9.8 -3.6,0.6 -1,-4.3 -0.8,-6.1 0.6,-3.2 1.6,-6.3 1.9,-9.5 -0.4,0 -0.8,0 -1.1,0 z m 30.6,0 c -6.3,1.2 -9.5,8.9 -7.8,14.7 1.5,4 7.2,4.2 10.5,2.4 4.6,-2.8 6.6,-9.3 4.8,-14.3 -1.4,-2.8 -4.8,-3 -7.5,-2.8 z m -75.4,1.7 c 2.1,1.5 0.2,4.7 -1.6,5.7 -1.1,0.4 -5.5,3.4 -4.6,0.7 0.8,-2.7 2.2,-6.2 5.3,-6.6 l 0.9,0.1 z m 30.8,0 c 2.6,1.5 1.3,5.2 0.8,7.6 -0.8,2.7 -1.9,5.9 -4.7,7.1 -5.1,0.8 -4,-5.8 -2.8,-8.8 1,-2.8 3,-6.8 6.7,-5.8 z m 47.1,-0.1 c 2.9,0.7 2,4.7 1.5,6.8 -0.7,3 -1.8,6.7 -5,8 -4.7,0.8 -4,-5.1 -3,-7.9 0.9,-3 2.7,-7.3 6.5,-6.8 z m -88.1,5.9 c -0.3,1.3 0.9,-0.6 0,0 z m -1.1,2.4 c -0.2,0.5 0.5,-0.1 0,0 z m -1.3,4.5 c -0.3,1.3 0.8,-0.2 0,0 z" />
                     <text y="41" x="201" fill="#00000" style="font-style:italic;font-weight:normal;font-size:30px;line-height:125%;font-family:Times;text-anchor:middle" xml:space="preserve">engraved with</text>
                  </g>
               </g>
            </g>
         </g>
      </g>
   </svg>
</svg>
