<?xml version="1.0" encoding="UTF-8" standalone="no"?>
<svg width="2100px" height="2970px" version="1.1" xmlns="http://www.w3.org/2000/svg" xmlns:xlink="http://www.w3.org/1999/xlink" xmlns:mei="http://www.music-encoding.org/ns/mei" overflow="visible">
   <desc>Engraved by Verovio 4.4.0-66ab39c</desc>
   <defs>
      <symbol id="E240-n6qolc" viewBox="0 0 1000 1000" overflow="inherit">
         <path transform="scale(1,-1)" d="M179 -646c15 29 29 55 46 102c18 49 30 108 30 138c0 105 -80 173 -168 200c-18 5 -47 9 -87 16v190h22c8 0 33 -61 71 -95c4 -3 -2 3 61 -56c62 -58 122 -137 122 -241c0 -38 -13 -106 -35 -163c-20 -51 -43 -99 -66 -132c-6 -5 -10 -7 -13 -7s-5 2 -5 5l4 10 c1 3 14 25 18 33z" />
      </symbol>
      <symbol id="E222-n6qolc" viewBox="0 0 1000 1000" overflow="inherit">
         <path transform="scale(1,-1)" d="M-163 -200l326 150v-100l-326 -150v100zM-163 150l326 150v-100l-326 -150v100zM-163 -25l326 150v-100l-326 -150v100z" />
      </symbol>
      <symbol id="E084-n6qolc" viewBox="0 0 1000 1000" overflow="inherit">
         <path transform="scale(1,-1)" d="M20 -78c84 97 114 180 134 329h170c-13 -32 -82 -132 -99 -151l-84 -97c-33 -36 -59 -63 -80 -81h162v102l127 123v-225h57v-39h-57v-34c0 -43 19 -65 57 -65v-34h-244v36c48 0 60 26 60 70v27h-203v39z" />
      </symbol>
      <symbol id="E0A4-n6qolc" viewBox="0 0 1000 1000" overflow="inherit">
         <path transform="scale(1,-1)" d="M0 -39c0 68 73 172 200 172c66 0 114 -37 114 -95c0 -84 -106 -171 -218 -171c-64 0 -96 30 -96 94z" />
      </symbol>
      <symbol id="E4E3-n6qolc" viewBox="0 0 1000 1000" overflow="inherit">
         <path transform="scale(1,-1)" d="M0 -115v105c0 9 1 10 10 10h280c9 0 10 -1 10 -10v-105c0 -9 -1 -10 -10 -10h-280c-9 0 -10 1 -10 10z" />
      </symbol>
      <symbol id="E069-n6qolc" viewBox="0 0 1000 1000" overflow="inherit">
         <path transform="scale(1,-1)" d="M200 250h125v-500h-125v500zM0 250h125v-500h-125v500z" />
      </symbol>
   </defs>
   <style type="text/css">g.page-margin{font-family:Times,serif;} g.ending, g.fing, g.reh, g.tempo{font-weight:bold;} g.dir, g.dynam, g.mNum{font-style:italic;} g.label{font-weight:normal;}</style>
   <svg class="definition-scale" color="black" viewBox="0 0 21000 29700">
      <g class="page-margin" transform="translate(500, 500)">
         <g id="m-73a0bc61-a7a3-46a9-aaa5-39f6f5de9f1e" class="mdiv pageMilestone" />
         <g id="m-a9de9a9b-d8f8-48f1-9afa-93137c3b6bd5" class="score pageMilestone" />
         <g id="s1kd3b25" class="system">
            <g id="m-0ecba86d-25e5-48c1-aef7-750c096cf611" class="section systemMilestone" />
            <g id="m-211ec17d-9246-41c0-84d8-5486518f0093" class="measure">
               <g id="m-f03c0876-361b-42ef-8623-7c69993550db" class="staff">
                  <path d="M0 1595 L6018 1595" stroke="currentColor" stroke-width="13" />
                  <path d="M0 1775 L6018 1775" stroke="currentColor" stroke-width="13" />
                  <path d="M0 1955 L6018 1955" stroke="currentColor" stroke-width="13" />
                  <path d="M0 2135 L6018 2135" stroke="currentColor" stroke-width="13" />
                  <path d="M0 2315 L6018 2315" stroke="currentColor" stroke-width="13" />
                  <g id="c1y8hvqp" class="clef">
                     <use xlink:href="#E069-n6qolc" x="90" y="1955" height="720px" width="720px" />
                  </g>
                  <g id="k1dp0v3t" class="keySig" />
                  <g id="m31c90e" class="meterSig">
                     <use xlink:href="#E084-n6qolc" x="490" y="1775" height="720px" width="720px" />
                     <use xlink:href="#E084-n6qolc" x="490" y="2135" height="720px" width="720px" />
                  </g>
                  <g id="m-610e71e3-9a9d-425c-8e8d-0be8b0feb352" class="layer">
                     <g id="m-76c14fc0-6578-4e52-b9d2-355b58ca4381" class="rest">
                        <use xlink:href="#E4E3-n6qolc" x="1160" y="1415" height="720px" width="720px" />
                        <g class="ledgerLines">
                           <path d="M1112 1415 L1424 1415" stroke="currentColor" stroke-width="22" />
                        </g>
                     </g>
                  </g>
                  <g id="m-4c1e6f07-8832-45db-a979-ff29ea6dae3b" class="layer">
                     <g id="m-ddd5a9e7-5907-45d0-84f1-b7f84afe639c" class="beam">
                        <polygon points="1160,2810 1944,2810 1944,2720 1160,2720" />
                        <polygon points="1619,2675 1944,2675 1944,2585 1619,2585" />
                        <g id="m-2e254bd1-3267-4b58-bbf9-d537f8c05fc5" class="note">
                           <g class="notehead">
                              <use xlink:href="#E0A4-n6qolc" x="1160" y="1955" height="720px" width="720px" />
                           </g>
                           <g id="se6rnlx" class="stem">
                              <path d="M1169 1983 L1169 2792" stroke="currentColor" stroke-width="18" />
                              <use xlink:href="#E222-n6qolc" x="1169" y="2441" height="720px" width="720px" />
                           </g>
                           <g id="a1gdattb" class="accid" />
                        </g>
                        <g id="m-711a3edf-8a5c-415a-af2e-392b62f2d7fb" class="note">
                           <g class="notehead">
                              <use xlink:href="#E0A4-n6qolc" x="1610" y="1955" height="720px" width="720px" />
                           </g>
                           <g id="s1g7gm4o" class="stem">
                              <path d="M1619 1983 L1619 2792" stroke="currentColor" stroke-width="18" />
                           </g>
                           <g id="a9hl97o" class="accid" />
                        </g>
                        <g id="m-f7cb737f-46e0-4dd5-8c16-6e90236d9e73" class="note">
                           <g class="notehead">
                              <use xlink:href="#E0A4-n6qolc" x="1926" y="1955" height="720px" width="720px" />
                           </g>
                           <g id="s5ptsee" class="stem">
                              <path d="M1935 1983 L1935 2792" stroke="currentColor" stroke-width="18" />
                           </g>
                           <g id="a1yh9pyo" class="accid" />
                        </g>
                     </g>
                     <g id="m-9796a358-c7e0-43cb-8966-30e19052cfef" class="beam">
                        <polygon points="2242,2315 2892,2315 2892,2225 2242,2225" />
                        <polygon points="2242,2180 2567,2180 2567,2090 2242,2090" />
                        <g id="m-094daf73-165b-4eb2-ad8c-d1c75e3a8302" class="note">
                           <g class="notehead">
                              <use xlink:href="#E0A4-n6qolc" x="2242" y="1685" height="720px" width="720px" />
                           </g>
                           <g id="s1o05qqf" class="stem">
                              <path d="M2251 1713 L2251 2297" stroke="currentColor" stroke-width="18" />
                           </g>
                           <g id="a13dqugy" class="accid" />
                        </g>
                        <g id="m-f13b2e8a-20ab-47e2-b256-bde3b6823dbd" class="note">
                           <g class="notehead">
                              <use xlink:href="#E0A4-n6qolc" x="2558" y="1685" height="720px" width="720px" />
                           </g>
                           <g id="s16f62rf" class="stem">
                              <path d="M2567 1713 L2567 2297" stroke="currentColor" stroke-width="18" />
                           </g>
                           <g id="ax9md6h" class="accid" />
                        </g>
                        <g id="m-f72e964b-ffab-4ce5-8488-c1b08e3684b8" class="note">
                           <g class="notehead">
                              <use xlink:href="#E0A4-n6qolc" x="2874" y="1685" height="720px" width="720px" />
                           </g>
                           <g id="s1lxzf6i" class="stem">
                              <path d="M2883 1713 L2883 2297" stroke="currentColor" stroke-width="18" />
                           </g>
                           <g id="a19okkyy" class="accid" />
                        </g>
                     </g>
                     <g id="m-22cd669a-e0d8-4eca-abc2-10ec4a2a5d46" class="note">
                        <g class="notehead">
                           <use xlink:href="#E0A4-n6qolc" x="3190" y="1685" height="540px" width="540px" />
                        </g>
                        <g id="s1n5w8rx" class="stem">
                           <path d="M3350 1664 L3350 1303" stroke="currentColor" stroke-width="18" />
                           <g id="f1da4glo" class="flag">
                              <use xlink:href="#E240-n6qolc" x="3341" y="1303" height="540px" width="540px" />
                           </g>
                        </g>
                        <g id="apo91fq" class="accid" />
                     </g>
                     <g id="m-df22fe23-a56e-4855-88ea-2420f8251cfc" class="beam">
                        <polygon points="3557,2360 4258,2360 4258,2270 3557,2270" />
                        <g id="m-2c8b3fb5-863b-489a-b340-12684464d30d" class="note">
                           <g class="notehead">
                              <use xlink:href="#E0A4-n6qolc" x="3557" y="1775" height="720px" width="720px" />
                           </g>
                           <g id="s1dtsb9u" class="stem">
                              <path d="M3566 1803 L3566 2342" stroke="currentColor" stroke-width="18" />
                           </g>
                        </g>
                        <g id="m-57739538-b37b-43f4-be9b-199ecf20cacb" class="note">
                           <g class="notehead">
                              <use xlink:href="#E0A4-n6qolc" x="3873" y="1775" height="540px" width="540px" />
                           </g>
                           <g id="syknwde" class="stem">
                              <path d="M4033 1754 L4033 1370" stroke="currentColor" stroke-width="18" />
                              <g id="f1eaop65" class="flag">
                                 <use xlink:href="#E240-n6qolc" x="4024" y="1370" height="540px" width="540px" />
                              </g>
                           </g>
                        </g>
                        <g id="m-a0d79295-6845-4b4d-9b45-2a90f3296c9e" class="note">
                           <g class="notehead">
                              <use xlink:href="#E0A4-n6qolc" x="4240" y="1775" height="720px" width="720px" />
                           </g>
                           <g id="s8g7rlm" class="stem">
                              <path d="M4249 1803 L4249 2342" stroke="currentColor" stroke-width="18" />
                           </g>
                        </g>
                     </g>
                     <g id="m-a9d5d9c7-77d0-469e-8bd1-ddf22c312b2e" class="note">
                        <g class="notehead">
                           <use xlink:href="#E0A4-n6qolc" x="4556" y="1775" height="540px" width="540px" />
                        </g>
                        <g id="s1bo6m1c" class="stem">
                           <path d="M4716 1754 L4716 1370" stroke="currentColor" stroke-width="18" />
                           <g id="f1a0351n" class="flag">
                              <use xlink:href="#E240-n6qolc" x="4707" y="1370" height="540px" width="540px" />
                           </g>
                        </g>
                     </g>
                     <g id="m-a914fd77-1f12-4857-9662-7ffce5920ea8" class="beam">
                        <polygon points="4923,2810 5573,2810 5573,2720 4923,2720" />
                        <polygon points="4923,2675 5248,2675 5248,2585 4923,2585" />
                        <g id="m-7bd3bc93-987d-45a3-8fff-dbe79d43d114" class="note">
                           <g class="notehead">
                              <use xlink:href="#E0A4-n6qolc" x="4923" y="2225" height="720px" width="720px" />
                           </g>
                           <g id="s1d4xk8t" class="stem">
                              <path d="M4932 2253 L4932 2792" stroke="currentColor" stroke-width="18" />
                           </g>
                        </g>
                        <g id="m-8f4fc676-523d-40a5-bd31-2f4e13479ac3" class="note">
                           <g class="notehead">
                              <use xlink:href="#E0A4-n6qolc" x="5239" y="2225" height="720px" width="720px" />
                           </g>
                           <g id="smz1ekx" class="stem">
                              <path d="M5248 2253 L5248 2792" stroke="currentColor" stroke-width="18" />
                           </g>
                        </g>
                        <g id="m-0d3d6cbf-f33d-4928-bf13-da94c9b45805" class="note">
                           <g class="notehead">
                              <use xlink:href="#E0A4-n6qolc" x="5555" y="2225" height="720px" width="720px" />
                           </g>
                           <g id="s1f7ydxr" class="stem">
                              <path d="M5564 2253 L5564 2792" stroke="currentColor" stroke-width="18" />
                           </g>
                        </g>
                     </g>
                  </g>
               </g>
               <g id="b140zl47" class="barLine">
                  <path d="M6005 1595 L6005 2315" stroke="currentColor" stroke-width="27" />
               </g>
            </g>
            <g id="scxljjc" class="systemMilestoneEnd m-0ecba86d-25e5-48c1-aef7-750c096cf611" />
         </g>
         <g id="pb2cf0c" class="pageMilestoneEnd m-a9de9a9b-d8f8-48f1-9afa-93137c3b6bd5" />
         <g id="p1gasx7v" class="pageMilestoneEnd m-73a0bc61-a7a3-46a9-aaa5-39f6f5de9f1e" />
         <g id="pan4vyy" class="pgHead autogenerated">
            <text font-size="0px">
               <tspan id="r1m27zrg" class="rend" x="10000" y="415" text-anchor="middle">
                  <title class="labelAttr">title</title>
                  <tspan id="r1qcfdmp" class="rend">
                     <tspan id="t2mjg41" class="text">
                        <tspan font-size="607px">42_rock_120_beat_4-4</tspan>
                     </tspan>
                  </tspan>
                  <tspan id="l17p6crn" class="lb" />
                  <tspan id="r9ecqwl" class="rend">
                     <tspan id="toiui5z" class="text" x="10000" y="805">
                        <tspan font-size="324px">42_rock_120_beat_4-4</tspan>
                     </tspan>
                  </tspan>
               </tspan>
            </text>
         </g>
         <g id="p100turc" class="pgFoot autogenerated">
            <g id="fvallfn" class="fig">
               <g class="svg" transform="translate(7750, 28099) scale(10.000000, 10.000000)">
                  <g>
                     <path fill="#00000" d="M 17.11278,49.26451 V 10.367554 h 12.696511 c 3.288815,7.336676 6.71267,14.610456 10.127281,21.888976 3.419998,-7.484684 6.255515,-14.204887 9.58887,-21.909915 2.436207,0.103726 4.316952,0.08453 6.484294,-0.05808 V 49.264423 H 50.274275 C 50.145222,38.35639 50.016136,27.448368 49.887066,16.540329 45.003488,27.315459 39.967448,38.433564 35.083854,49.208695 34.678996,49.343717 34.426583,49.135619 34.021726,49.270644 29.46588,39.330716 24.910049,29.390805 20.354201,19.450876 20.224341,29.388756 20.09461,39.326619 19.964815,49.264497 H 17.11278 Z M 36.754144,39.324695 C 32.721221,30.512695 28.6883,21.700679 24.655394,12.888662 22.530527,12.750737 22.656775,12.71031 20.714356,12.813974 v 0.966497 c 4.612938,9.99784 9.609439,20.748709 13.87298,30.081745 0.722248,-1.512523 1.444528,-3.025014 2.166808,-4.537521 z m 25.738417,9.939815 c 0,-12.965651 0,-25.931305 0,-38.896956 10.084388,0 20.168791,0 30.253178,0 0,0.960416 0,1.920849 0,2.881265 -6.482825,0 -12.965652,0 -19.448478,0 0,4.802097 0,9.604178 0,14.406277 5.52241,0 11.044819,0 16.567229,0 0,0.960415 0,1.920832 0,2.881248 -5.52241,0 -11.044819,0 -16.567229,0 0,5.282306 0,10.564611 0,15.846917 6.963035,0 13.926068,0 20.889103,0 0,0.960416 0,1.920832 0,2.881249 -10.564597,0 -21.129207,0 -31.693803,0 z m 4.321874,-2.160937 c 0,-11.765131 0,-23.530263 0,-35.295394 -0.720312,0 -1.440625,0 -2.160937,0 0,11.765131 0,23.530263 0,35.295394 0.720312,0 1.440625,0 2.160937,0 z m 32.41413,2.160937 c 0,-12.965651 0,-25.931305 0,-38.896956 2.401045,0 4.802095,0 7.203135,0 0,12.965651 0,25.931305 0,38.896956 -2.40104,0 -4.80209,0 -7.203135,0 z m 2.881265,-2.160937 c 0,-11.765131 0,-23.530263 0,-35.295394 -0.72031,0 -1.44064,0 -2.160953,0 0,11.765131 0,23.530263 0,35.295394 0.720313,0 1.440643,0 2.160953,0 z" />
                     <path fill="#00000" d="m 346.3,6.7 c -3.1,0.5 -4.9,4.4 -2.7,6.8 1.2,1.4 2.7,2.4 4.1,3.5 -2.4,5.3 -7.7,8.3 -11.9,12.1 -3.7,2.8 -7,6.2 -9.7,9.9 -2.2,-0.8 -0.3,-6.8 -0.6,-9.5 0.1,-3.1 0.7,-6.4 2.9,-8.7 1.3,-1.9 3,-3.5 4.5,-5.2 1.2,-3.4 -3.2,-4.9 -5.8,-4.6 -7.3,-0.5 -14.6,2 -20,6.8 -5,4.6 -10,10.1 -11.5,17 -0.9,3.5 -0.2,7.5 2.8,9.9 2.5,2.8 7.4,2.9 9.8,-0.2 1.7,-2.3 3.2,-4.8 3.8,-7.6 -0.1,-2.6 -4.4,-2.3 -4.3,0.2 1.2,2.4 -0.9,4.7 -2.7,6.2 -1.7,0.9 -4.7,0.7 -4.8,-1.7 -1,-5.8 2.1,-11.3 5.2,-16.1 4,-5.8 9.8,-11.2 17.2,-11.8 1.6,0 8.1,-1.2 6.8,1.4 -2.8,2.8 -5.6,6.1 -6,10.3 -1.6,7.7 0.1,15.7 -2.3,23.2 -1.1,3.9 2,2.6 2.5,0.2 3.3,-7.4 8.9,-13.4 15.1,-18.5 4.2,-3.9 9.5,-7.1 11.9,-12.6 1.3,-3.6 1.2,-9 -2.7,-10.9 -0.6,-0.2 -1.2,-0.3 -1.8,-0.3 z m 66,14.5 c -2,0.8 -1.8,4.9 0.8,4.4 3.4,0.4 2.9,-6.2 -0.8,-4.4 z m 0.6,7.3 c -1.3,0.5 -7.6,0.5 -5.4,2.2 4,-0.3 0.7,4.5 0.6,6.7 -0.4,2.9 -2.4,5.9 -1.2,8.8 2.7,1.7 5.6,-0.8 6.8,-3.2 1.6,-1.4 -0.5,-3 -1.2,-0.9 -0.4,0.8 -2.4,3.5 -2.6,1.8 1.1,-5 2.7,-9.9 3.9,-14.9 l -0.1,-0.5 h -0.9 z m -65.1,0.2 c -6.5,1.6 -10.5,9.5 -8.2,15.7 2.1,3.4 7.4,2.9 10.1,0.4 2,-0.2 3.6,-5.3 1,-3.4 -1.4,2 -4,4.2 -6.5,2.8 -2.2,-1.9 -1.9,-5.7 1.7,-5.3 3.1,-0.9 6.9,-2.1 8.1,-5.5 0.9,-2.7 -1.6,-5.2 -4.3,-4.8 h -1.1 -0.7 z m 13.6,0 c -2.2,0 -8.5,1.8 -2.9,2.3 0.9,1.9 -1,4.9 -1.1,7.2 -0.5,2.9 -1.4,5.7 -1.7,8.7 3.7,0.7 3.8,-2.6 4.4,-5.3 0.9,-3.3 1.6,-7 4.1,-9.5 2.4,1.6 6.8,-0.7 3.7,-3.4 -2.9,-0.5 -4.8,2.4 -6.2,4.3 0,-1.2 2.4,-5 -0.2,-4.3 z m 15.8,0 c -6.4,1.3 -9.6,9.1 -7.7,14.9 1.9,4 7.7,3.9 11,1.7 4.1,-3 6,-8.9 4.4,-13.7 -1.3,-3 -4.8,-3.2 -7.6,-3 z m 17,0 c -2.3,0 -8.8,1.9 -3,2.4 0.4,2.5 -1,5.7 -1.4,8.4 -0.7,2.4 -1.8,7.5 2.1,7.2 3.8,-0.1 6.5,-3.5 8.5,-6.3 2,-3.2 4.5,-7 3.3,-10.9 -3.7,-3 -3.6,2.6 -3.1,5.1 -0.7,3.8 -2.7,7.9 -6.2,9.8 -3.6,0.6 -1,-4.3 -0.8,-6.1 0.6,-3.2 1.6,-6.3 1.9,-9.5 -0.4,0 -0.8,0 -1.1,0 z m 30.6,0 c -6.3,1.2 -9.5,8.9 -7.8,14.7 1.5,4 7.2,4.2 10.5,2.4 4.6,-2.8 6.6,-9.3 4.8,-14.3 -1.4,-2.8 -4.8,-3 -7.5,-2.8 z m -75.4,1.7 c 2.1,1.5 0.2,4.7 -1.6,5.7 -1.1,0.4 -5.5,3.4 -4.6,0.7 0.8,-2.7 2.2,-6.2 5.3,-6.6 l 0.9,0.1 z m 30.8,0 c 2.6,1.5 1.3,5.2 0.8,7.6 -0.8,2.7 -1.9,5.9 -4.7,7.1 -5.1,0.8 -4,-5.8 -2.8,-8.8 1,-2.8 3,-6.8 6.7,-5.8 z m 47.1,-0.1 c 2.9,0.7 2,4.7 1.5,6.8 -0.7,3 -1.8,6.7 -5,8 -4.7,0.8 -4,-5.1 -3,-7.9 0.9,-3 2.7,-7.3 6.5,-6.8 z m -88.1,5.9 c -0.3,1.3 0.9,-0.6 0,0 z m -1.1,2.4 c -0.2,0.5 0.5,-0.1 0,0 z m -1.3,4.5 c -0.3,1.3 0.8,-0.2 0,0 z" />
                     <text y="41" x="201" fill="#00000" style="font-style:italic;font-weight:normal;font-size:30px;line-height:125%;font-family:Times;text-anchor:middle" xml:space="preserve">engraved with</text>
                  </g>
               </g>
            </g>
         </g>
      </g>
   </svg>
</svg>
