<?xml version="1.0" encoding="UTF-8" standalone="no"?>
<svg width="2100px" height="2970px" version="1.1" xmlns="http://www.w3.org/2000/svg" xmlns:xlink="http://www.w3.org/1999/xlink" xmlns:mei="http://www.music-encoding.org/ns/mei" overflow="visible">
   <desc>Engraved by Verovio 4.4.0-66ab39c</desc>
   <defs>
      <symbol id="E241-l8ax57" viewBox="0 0 1000 1000" overflow="inherit">
         <path transform="scale(1,-1)" d="M179 646c-4 8 -17 30 -18 33l-4 10c0 3 2 5 5 5s7 -2 13 -7c23 -33 46 -81 66 -132c22 -57 35 -125 35 -163c0 -104 -60 -183 -122 -241c-63 -59 -57 -53 -61 -56c-38 -34 -63 -95 -71 -95h-22v190c40 7 69 11 87 16c88 27 168 95 168 200c0 30 -12 89 -30 138 c-17 47 -31 73 -46 102z" />
      </symbol>
      <symbol id="E222-l8ax57" viewBox="0 0 1000 1000" overflow="inherit">
         <path transform="scale(1,-1)" d="M-163 -200l326 150v-100l-326 -150v100zM-163 150l326 150v-100l-326 -150v100zM-163 -25l326 150v-100l-326 -150v100z" />
      </symbol>
      <symbol id="E084-l8ax57" viewBox="0 0 1000 1000" overflow="inherit">
         <path transform="scale(1,-1)" d="M20 -78c84 97 114 180 134 329h170c-13 -32 -82 -132 -99 -151l-84 -97c-33 -36 -59 -63 -80 -81h162v102l127 123v-225h57v-39h-57v-34c0 -43 19 -65 57 -65v-34h-244v36c48 0 60 26 60 70v27h-203v39z" />
      </symbol>
      <symbol id="E0A4-l8ax57" viewBox="0 0 1000 1000" overflow="inherit">
         <path transform="scale(1,-1)" d="M0 -39c0 68 73 172 200 172c66 0 114 -37 114 -95c0 -84 -106 -171 -218 -171c-64 0 -96 30 -96 94z" />
      </symbol>
      <symbol id="E0A9-l8ax57" viewBox="0 0 1000 1000" overflow="inherit">
         <path transform="scale(1,-1)" d="M0 -110c0 4 1 8 5 11l119 99l-119 100c-3 3 -5 8 -5 12c0 6 5 13 12 13c3 0 6 -1 8 -2l124 -105l126 105c2 1 5 2 7 2c6 0 13 -6 13 -14c0 -4 -2 -9 -5 -11l-119 -100l119 -99c3 -3 5 -7 5 -12c0 -6 -5 -14 -13 -14c-2 0 -5 1 -7 3l-126 105l-124 -105c-2 -2 -4 -3 -7 -3 c-8 0 -13 7 -13 15z" />
      </symbol>
      <symbol id="E0B6-l8ax57" viewBox="0 0 1000 1000" overflow="inherit">
         <path transform="scale(1,-1)" d="M0 -36c0 68 73 174 200 174c66 0 114 -39 114 -97c0 -84 -106 -173 -218 -173c-64 0 -96 32 -96 96zM52 -92c6 -2 15 -3 26 -3c29 5 70 23 107 47l-41 31zM208 -31c40 29 70 64 70 95c0 9 -3 16 -7 23l-105 -87zM246 102c-3 1 -7 1 -11 1c-12 0 -26 -3 -41 -10 c-30 -15 -60 -32 -86 -49l36 -26zM85 27c-33 -27 -56 -57 -56 -90c1 -4 2 -7 3 -11l92 74z" />
      </symbol>
      <symbol id="E4E3-l8ax57" viewBox="0 0 1000 1000" overflow="inherit">
         <path transform="scale(1,-1)" d="M0 -115v105c0 9 1 10 10 10h280c9 0 10 -1 10 -10v-105c0 -9 -1 -10 -10 -10h-280c-9 0 -10 1 -10 10z" />
      </symbol>
      <symbol id="E069-l8ax57" viewBox="0 0 1000 1000" overflow="inherit">
         <path transform="scale(1,-1)" d="M200 250h125v-500h-125v500zM0 250h125v-500h-125v500z" />
      </symbol>
   </defs>
   <style type="text/css">g.page-margin{font-family:Times,serif;} g.ending, g.fing, g.reh, g.tempo{font-weight:bold;} g.dir, g.dynam, g.mNum{font-style:italic;} g.label{font-weight:normal;}</style>
   <svg class="definition-scale" color="black" viewBox="0 0 21000 29700">
      <g class="page-margin" transform="translate(500, 500)">
         <g id="m-c679ac6b-c0c4-402a-8cbe-c66f125fc6be" class="mdiv pageMilestone" />
         <g id="m-9ad1a424-172f-44bf-a4ed-7528493d429c" class="score pageMilestone" />
         <g id="scr01e9" class="system">
            <g id="m-1b87556a-b92f-4f52-bab8-681110331791" class="section systemMilestone" />
            <g id="m-7a1c8624-6e0e-4e4d-820e-fa4ce09247c5" class="measure">
               <g id="m-fa9b4b59-cd1b-475f-b314-76504685e05a" class="staff">
                  <path d="M0 1604 L4195 1604" stroke="currentColor" stroke-width="13" />
                  <path d="M0 1784 L4195 1784" stroke="currentColor" stroke-width="13" />
                  <path d="M0 1964 L4195 1964" stroke="currentColor" stroke-width="13" />
                  <path d="M0 2144 L4195 2144" stroke="currentColor" stroke-width="13" />
                  <path d="M0 2324 L4195 2324" stroke="currentColor" stroke-width="13" />
                  <g id="c1ht12g2" class="clef">
                     <use xlink:href="#E069-l8ax57" x="90" y="1964" height="720px" width="720px" />
                  </g>
                  <g id="k1nfni76" class="keySig" />
                  <g id="mbv1ghs" class="meterSig">
                     <use xlink:href="#E084-l8ax57" x="490" y="1784" height="720px" width="720px" />
                     <use xlink:href="#E084-l8ax57" x="490" y="2144" height="720px" width="720px" />
                  </g>
                  <g id="m-44540f20-762d-4085-8e0f-f531faeec502" class="layer">
                     <g id="m-5539da42-9372-4480-8d9a-bc62ade7f184" class="note">
                        <g class="notehead">
                           <use xlink:href="#E0A9-l8ax57" x="1052" y="1514" height="720px" width="720px" />
                        </g>
                        <g id="s1u3yq53" class="stem">
                           <path d="M1251 1435 L1251 1064" stroke="currentColor" stroke-width="18" />
                        </g>
                     </g>
                     <g id="m-2ba99cfa-5d12-48ac-9a8e-45808f24d528" class="note">
                        <g class="notehead">
                           <use xlink:href="#E0A9-l8ax57" x="1952" y="1514" height="720px" width="720px" />
                        </g>
                        <g id="sumafvt" class="stem">
                           <path d="M2151 1435 L2151 1064" stroke="currentColor" stroke-width="18" />
                        </g>
                     </g>
                     <g id="m-b3146f96-1912-4421-b5b3-bde975febc5a" class="note">
                        <g class="notehead">
                           <use xlink:href="#E0B6-l8ax57" x="2852" y="1514" height="720px" width="720px" />
                        </g>
                        <g id="s1g018mx" class="stem">
                           <path d="M3069 1486 L3069 1064" stroke="currentColor" stroke-width="18" />
                        </g>
                     </g>
                  </g>
                  <g id="m-d80a376f-1671-42fb-aa6b-11cc0a9d7335" class="layer">
                     <g id="m-b229338c-187d-468d-85ff-45b0679c73bc" class="beam">
                        <polygon points="1052,2909 1520,2864 1520,2774 1052,2819" />
                        <g id="m-48500920-fe9f-45e1-af1e-63cbf54f9a0d" class="note">
                           <g class="notehead">
                              <use xlink:href="#E0A4-l8ax57" x="1052" y="2414" height="720px" width="720px" />
                           </g>
                           <g id="sdbdxrm" class="stem">
                              <path d="M1061 2442 L1061 2891" stroke="currentColor" stroke-width="18" />
                           </g>
                        </g>
                        <g id="m-e5c3bef5-8fff-4469-957e-62d3428bf720" class="note">
                           <g class="notehead">
                              <use xlink:href="#E0A4-l8ax57" x="1502" y="1964" height="720px" width="720px" />
                           </g>
                           <g id="sbeclm9" class="stem">
                              <path d="M1511 1992 L1511 2846" stroke="currentColor" stroke-width="18" />
                           </g>
                           <g id="a9b1cc1" class="accid" />
                        </g>
                     </g>
                     <g id="m-2e382fa9-acb3-482b-b3f6-3d4a73f376a7" class="beam">
                        <polygon points="1952,2909 2420,2864 2420,2774 1952,2819" />
                        <g id="m-e895fcda-d250-4044-bf00-9bb3f4ee17da" class="note">
                           <g class="notehead">
                              <use xlink:href="#E0A4-l8ax57" x="1952" y="2414" height="720px" width="720px" />
                           </g>
                           <g id="s15hmq0l" class="stem">
                              <path d="M1961 2442 L1961 2891" stroke="currentColor" stroke-width="18" />
                           </g>
                        </g>
                        <g id="m-895e4369-0cb2-4951-abab-f444b79169e5" class="note">
                           <g class="notehead">
                              <use xlink:href="#E0A4-l8ax57" x="2402" y="1964" height="720px" width="720px" />
                           </g>
                           <g id="st5jqvq" class="stem">
                              <path d="M2411 1992 L2411 2846" stroke="currentColor" stroke-width="18" />
                           </g>
                           <g id="a15wdkmf" class="accid" />
                        </g>
                     </g>
                     <g id="m-3755b13e-184d-414a-a2f4-faa8340818fd" class="note">
                        <g class="notehead">
                           <use xlink:href="#E0A4-l8ax57" x="2852" y="2414" height="720px" width="720px" />
                        </g>
                        <g id="d3tubn3" class="dots">
                           <ellipse cx="3168" cy="2414" rx="36" ry="36" />
                        </g>
                        <g id="s13kdl2i" class="stem">
                           <path d="M2861 2442 L2861 2864" stroke="currentColor" stroke-width="18" />
                        </g>
                     </g>
                     <g id="m-9b9bfdaf-0921-498c-93f0-992d8e9a7aa9" class="note">
                        <g class="notehead">
                           <use xlink:href="#E0A4-l8ax57" x="3732" y="1964" height="720px" width="720px" />
                        </g>
                        <g id="s1i2syyi" class="stem">
                           <path d="M3741 1992 L3741 2879" stroke="currentColor" stroke-width="18" />
                           <use xlink:href="#E222-l8ax57" x="3741" y="2450" height="720px" width="720px" />
                           <g id="f1grlkru" class="flag">
                              <use xlink:href="#E241-l8ax57" x="3732" y="2879" height="720px" width="720px" />
                           </g>
                        </g>
                        <g id="a1npjjkp" class="accid" />
                     </g>
                  </g>
               </g>
               <g id="b6bjhmz" class="barLine">
                  <path d="M4182 1604 L4182 2324" stroke="currentColor" stroke-width="27" />
               </g>
            </g>
            <g id="m-7f9aad1a-e87e-43cd-bfee-74f50134d0e0" class="measure">
               <g id="m-dfb121b2-27c9-4d32-bd15-4b074eda4de1" class="staff">
                  <path d="M4195 1604 L7466 1604" stroke="currentColor" stroke-width="13" />
                  <path d="M4195 1784 L7466 1784" stroke="currentColor" stroke-width="13" />
                  <path d="M4195 1964 L7466 1964" stroke="currentColor" stroke-width="13" />
                  <path d="M4195 2144 L7466 2144" stroke="currentColor" stroke-width="13" />
                  <path d="M4195 2324 L7466 2324" stroke="currentColor" stroke-width="13" />
                  <g id="m-35efea09-b8b2-4239-8412-e5853cc0998d" class="layer">
                     <g id="m-c165e444-a7ca-4194-9684-fbfc1e656f91" class="rest">
                        <use xlink:href="#E4E3-l8ax57" x="4483" y="1424" height="720px" width="720px" />
                        <g class="ledgerLines">
                           <path d="M4435 1424 L4747 1424" stroke="currentColor" stroke-width="22" />
                        </g>
                     </g>
                  </g>
                  <g id="m-20939bbd-dca8-46f7-ba82-153387608f50" class="layer">
                     <g id="m-8bb65005-ce61-4a19-af41-f5ecd0913c5b" class="note">
                        <g class="notehead">
                           <use xlink:href="#E0A4-l8ax57" x="4483" y="1964" height="720px" width="720px" />
                        </g>
                        <g id="smcac1x" class="stem">
                           <path d="M4492 1992 L4492 2699" stroke="currentColor" stroke-width="18" />
                           <use xlink:href="#E222-l8ax57" x="4492" y="2450" height="720px" width="720px" />
                        </g>
                        <g id="a1pvgwd2" class="accid" />
                     </g>
                     <g id="m-c41bc7e0-c028-4080-99b1-5fe0f800d62d" class="beam">
                        <polygon points="5173,2414 5641,2459 5641,2369 5173,2324" />
                        <g id="m-4be10085-c19d-40f8-92a6-3e128e761854" class="note">
                           <g class="notehead">
                              <use xlink:href="#E0A4-l8ax57" x="5173" y="1694" height="720px" width="720px" />
                           </g>
                           <g id="s1a65ttn" class="stem">
                              <path d="M5182 1722 L5182 2396" stroke="currentColor" stroke-width="18" />
                           </g>
                           <g id="ah7qwo0" class="accid" />
                        </g>
                        <g id="m-666de55d-8a38-42fb-8f8a-fedcb0e475c9" class="note">
                           <g class="notehead">
                              <use xlink:href="#E0A4-l8ax57" x="5623" y="1784" height="720px" width="720px" />
                           </g>
                           <g id="si0lgog" class="stem">
                              <path d="M5632 1812 L5632 2441" stroke="currentColor" stroke-width="18" />
                           </g>
                        </g>
                     </g>
                     <g id="m-0d004964-3240-43f3-a99a-dfcd72a5c9eb" class="note">
                        <g class="notehead">
                           <use xlink:href="#E0A4-l8ax57" x="6073" y="2234" height="720px" width="720px" />
                        </g>
                        <g id="s1gpt7yl" class="stem">
                           <path d="M6082 2262 L6082 2744" stroke="currentColor" stroke-width="18" />
                        </g>
                     </g>
                     <g id="m-100bbdc9-6489-4cba-8785-0f9587c395a7" class="note">
                        <g class="notehead">
                           <use xlink:href="#E0A4-l8ax57" x="6763" y="2234" height="720px" width="720px" />
                        </g>
                        <g id="s1xke88s" class="stem">
                           <path d="M6772 2262 L6772 2744" stroke="currentColor" stroke-width="18" />
                        </g>
                     </g>
                  </g>
               </g>
               <g id="b1vslz3v" class="barLine">
                  <path d="M7453 1604 L7453 2324" stroke="currentColor" stroke-width="27" />
               </g>
            </g>
            <g id="s1in82ds" class="systemMilestoneEnd m-1b87556a-b92f-4f52-bab8-681110331791" />
         </g>
         <g id="p1snhaoi" class="pageMilestoneEnd m-9ad1a424-172f-44bf-a4ed-7528493d429c" />
         <g id="pye2b1h" class="pageMilestoneEnd m-c679ac6b-c0c4-402a-8cbe-c66f125fc6be" />
         <g id="p1award6" class="pgHead autogenerated">
            <text font-size="0px">
               <tspan id="ruiro94" class="rend" x="10000" y="415" text-anchor="middle">
                  <title class="labelAttr">title</title>
                  <tspan id="rbhgtk" class="rend">
                     <tspan id="troroej" class="text">
                        <tspan font-size="607px">48_rock_120_beat_4-4</tspan>
                     </tspan>
                  </tspan>
                  <tspan id="ljqo6qr" class="lb" />
                  <tspan id="r38nrdp" class="rend">
                     <tspan id="t1rffufh" class="text" x="10000" y="805">
                        <tspan font-size="324px">48_rock_120_beat_4-4</tspan>
                     </tspan>
                  </tspan>
               </tspan>
            </text>
         </g>
         <g id="p1u9l8vf" class="pgFoot autogenerated">
            <g id="f12tfi1a" class="fig">
               <g class="svg" transform="translate(7750, 28099) scale(10.000000, 10.000000)">
                  <g>
                     <path fill="#00000" d="M 17.11278,49.26451 V 10.367554 h 12.696511 c 3.288815,7.336676 6.71267,14.610456 10.127281,21.888976 3.419998,-7.484684 6.255515,-14.204887 9.58887,-21.909915 2.436207,0.103726 4.316952,0.08453 6.484294,-0.05808 V 49.264423 H 50.274275 C 50.145222,38.35639 50.016136,27.448368 49.887066,16.540329 45.003488,27.315459 39.967448,38.433564 35.083854,49.208695 34.678996,49.343717 34.426583,49.135619 34.021726,49.270644 29.46588,39.330716 24.910049,29.390805 20.354201,19.450876 20.224341,29.388756 20.09461,39.326619 19.964815,49.264497 H 17.11278 Z M 36.754144,39.324695 C 32.721221,30.512695 28.6883,21.700679 24.655394,12.888662 22.530527,12.750737 22.656775,12.71031 20.714356,12.813974 v 0.966497 c 4.612938,9.99784 9.609439,20.748709 13.87298,30.081745 0.722248,-1.512523 1.444528,-3.025014 2.166808,-4.537521 z m 25.738417,9.939815 c 0,-12.965651 0,-25.931305 0,-38.896956 10.084388,0 20.168791,0 30.253178,0 0,0.960416 0,1.920849 0,2.881265 -6.482825,0 -12.965652,0 -19.448478,0 0,4.802097 0,9.604178 0,14.406277 5.52241,0 11.044819,0 16.567229,0 0,0.960415 0,1.920832 0,2.881248 -5.52241,0 -11.044819,0 -16.567229,0 0,5.282306 0,10.564611 0,15.846917 6.963035,0 13.926068,0 20.889103,0 0,0.960416 0,1.920832 0,2.881249 -10.564597,0 -21.129207,0 -31.693803,0 z m 4.321874,-2.160937 c 0,-11.765131 0,-23.530263 0,-35.295394 -0.720312,0 -1.440625,0 -2.160937,0 0,11.765131 0,23.530263 0,35.295394 0.720312,0 1.440625,0 2.160937,0 z m 32.41413,2.160937 c 0,-12.965651 0,-25.931305 0,-38.896956 2.401045,0 4.802095,0 7.203135,0 0,12.965651 0,25.931305 0,38.896956 -2.40104,0 -4.80209,0 -7.203135,0 z m 2.881265,-2.160937 c 0,-11.765131 0,-23.530263 0,-35.295394 -0.72031,0 -1.44064,0 -2.160953,0 0,11.765131 0,23.530263 0,35.295394 0.720313,0 1.440643,0 2.160953,0 z" />
                     <path fill="#00000" d="m 346.3,6.7 c -3.1,0.5 -4.9,4.4 -2.7,6.8 1.2,1.4 2.7,2.4 4.1,3.5 -2.4,5.3 -7.7,8.3 -11.9,12.1 -3.7,2.8 -7,6.2 -9.7,9.9 -2.2,-0.8 -0.3,-6.8 -0.6,-9.5 0.1,-3.1 0.7,-6.4 2.9,-8.7 1.3,-1.9 3,-3.5 4.5,-5.2 1.2,-3.4 -3.2,-4.9 -5.8,-4.6 -7.3,-0.5 -14.6,2 -20,6.8 -5,4.6 -10,10.1 -11.5,17 -0.9,3.5 -0.2,7.5 2.8,9.9 2.5,2.8 7.4,2.9 9.8,-0.2 1.7,-2.3 3.2,-4.8 3.8,-7.6 -0.1,-2.6 -4.4,-2.3 -4.3,0.2 1.2,2.4 -0.9,4.7 -2.7,6.2 -1.7,0.9 -4.7,0.7 -4.8,-1.7 -1,-5.8 2.1,-11.3 5.2,-16.1 4,-5.8 9.8,-11.2 17.2,-11.8 1.6,0 8.1,-1.2 6.8,1.4 -2.8,2.8 -5.6,6.1 -6,10.3 -1.6,7.7 0.1,15.7 -2.3,23.2 -1.1,3.9 2,2.6 2.5,0.2 3.3,-7.4 8.9,-13.4 15.1,-18.5 4.2,-3.9 9.5,-7.1 11.9,-12.6 1.3,-3.6 1.2,-9 -2.7,-10.9 -0.6,-0.2 -1.2,-0.3 -1.8,-0.3 z m 66,14.5 c -2,0.8 -1.8,4.9 0.8,4.4 3.4,0.4 2.9,-6.2 -0.8,-4.4 z m 0.6,7.3 c -1.3,0.5 -7.6,0.5 -5.4,2.2 4,-0.3 0.7,4.5 0.6,6.7 -0.4,2.9 -2.4,5.9 -1.2,8.8 2.7,1.7 5.6,-0.8 6.8,-3.2 1.6,-1.4 -0.5,-3 -1.2,-0.9 -0.4,0.8 -2.4,3.5 -2.6,1.8 1.1,-5 2.7,-9.9 3.9,-14.9 l -0.1,-0.5 h -0.9 z m -65.1,0.2 c -6.5,1.6 -10.5,9.5 -8.2,15.7 2.1,3.4 7.4,2.9 10.1,0.4 2,-0.2 3.6,-5.3 1,-3.4 -1.4,2 -4,4.2 -6.5,2.8 -2.2,-1.9 -1.9,-5.7 1.7,-5.3 3.1,-0.9 6.9,-2.1 8.1,-5.5 0.9,-2.7 -1.6,-5.2 -4.3,-4.8 h -1.1 -0.7 z m 13.6,0 c -2.2,0 -8.5,1.8 -2.9,2.3 0.9,1.9 -1,4.9 -1.1,7.2 -0.5,2.9 -1.4,5.7 -1.7,8.7 3.7,0.7 3.8,-2.6 4.4,-5.3 0.9,-3.3 1.6,-7 4.1,-9.5 2.4,1.6 6.8,-0.7 3.7,-3.4 -2.9,-0.5 -4.8,2.4 -6.2,4.3 0,-1.2 2.4,-5 -0.2,-4.3 z m 15.8,0 c -6.4,1.3 -9.6,9.1 -7.7,14.9 1.9,4 7.7,3.9 11,1.7 4.1,-3 6,-8.9 4.4,-13.7 -1.3,-3 -4.8,-3.2 -7.6,-3 z m 17,0 c -2.3,0 -8.8,1.9 -3,2.4 0.4,2.5 -1,5.7 -1.4,8.4 -0.7,2.4 -1.8,7.5 2.1,7.2 3.8,-0.1 6.5,-3.5 8.5,-6.3 2,-3.2 4.5,-7 3.3,-10.9 -3.7,-3 -3.6,2.6 -3.1,5.1 -0.7,3.8 -2.7,7.9 -6.2,9.8 -3.6,0.6 -1,-4.3 -0.8,-6.1 0.6,-3.2 1.6,-6.3 1.9,-9.5 -0.4,0 -0.8,0 -1.1,0 z m 30.6,0 c -6.3,1.2 -9.5,8.9 -7.8,14.7 1.5,4 7.2,4.2 10.5,2.4 4.6,-2.8 6.6,-9.3 4.8,-14.3 -1.4,-2.8 -4.8,-3 -7.5,-2.8 z m -75.4,1.7 c 2.1,1.5 0.2,4.7 -1.6,5.7 -1.1,0.4 -5.5,3.4 -4.6,0.7 0.8,-2.7 2.2,-6.2 5.3,-6.6 l 0.9,0.1 z m 30.8,0 c 2.6,1.5 1.3,5.2 0.8,7.6 -0.8,2.7 -1.9,5.9 -4.7,7.1 -5.1,0.8 -4,-5.8 -2.8,-8.8 1,-2.8 3,-6.8 6.7,-5.8 z m 47.1,-0.1 c 2.9,0.7 2,4.7 1.5,6.8 -0.7,3 -1.8,6.7 -5,8 -4.7,0.8 -4,-5.1 -3,-7.9 0.9,-3 2.7,-7.3 6.5,-6.8 z m -88.1,5.9 c -0.3,1.3 0.9,-0.6 0,0 z m -1.1,2.4 c -0.2,0.5 0.5,-0.1 0,0 z m -1.3,4.5 c -0.3,1.3 0.8,-0.2 0,0 z" />
                     <text y="41" x="201" fill="#00000" style="font-style:italic;font-weight:normal;font-size:30px;line-height:125%;font-family:Times;text-anchor:middle" xml:space="preserve">engraved with</text>
                  </g>
               </g>
            </g>
         </g>
      </g>
   </svg>
</svg>
