<?xml version="1.0" encoding="UTF-8" standalone="no"?>
<svg width="2100px" height="2970px" version="1.1" xmlns="http://www.w3.org/2000/svg" xmlns:xlink="http://www.w3.org/1999/xlink" xmlns:mei="http://www.music-encoding.org/ns/mei" overflow="visible">
   <desc>Engraved by Verovio 4.4.0-66ab39c</desc>
   <defs>
      <symbol id="E4E7-6ggg3z" viewBox="0 0 1000 1000" overflow="inherit">
         <path transform="scale(1,-1)" d="M133 -111c0 -33 -21 -50 -52 -55c10 -3 18 -4 25 -4c40 0 69 24 90 47l66 197c-36 -18 -64 -25 -112 -25c-23 0 -38 3 -45 8c-37 7 -55 27 -55 59c8 35 30 54 68 58c45 -6 49 -13 64 -48c0 -3 1 -5 1 -7c0 -27 -25 -46 -52 -49c6 -4 15 -6 26 -6c32 2 62 14 88 29 c32 19 44 36 59 71l7 1l10 2h4c-72 -220 -143 -439 -215 -659h-37l108 324c-20 -13 -51 -20 -82 -20c-21 0 -35 4 -43 10c-37 6 -55 26 -55 58c8 35 31 56 68 60c43 -8 48 -13 64 -51z" />
      </symbol>
      <symbol id="E222-6ggg3z" viewBox="0 0 1000 1000" overflow="inherit">
         <path transform="scale(1,-1)" d="M-163 -200l326 150v-100l-326 -150v100zM-163 150l326 150v-100l-326 -150v100zM-163 -25l326 150v-100l-326 -150v100z" />
      </symbol>
      <symbol id="E084-6ggg3z" viewBox="0 0 1000 1000" overflow="inherit">
         <path transform="scale(1,-1)" d="M20 -78c84 97 114 180 134 329h170c-13 -32 -82 -132 -99 -151l-84 -97c-33 -36 -59 -63 -80 -81h162v102l127 123v-225h57v-39h-57v-34c0 -43 19 -65 57 -65v-34h-244v36c48 0 60 26 60 70v27h-203v39z" />
      </symbol>
      <symbol id="E0A2-6ggg3z" viewBox="0 0 1000 1000" overflow="inherit">
         <path transform="scale(1,-1)" d="M198 133c102 0 207 -45 207 -133c0 -92 -118 -133 -227 -133c-101 0 -178 46 -178 133c0 88 93 133 198 133zM293 -21c0 14 -3 29 -8 44c-7 20 -18 38 -33 54c-20 21 -43 31 -68 31l-20 -2c-15 -5 -27 -14 -36 -28c-4 -9 -6 -17 -8 -24s-3 -16 -3 -27c0 -15 3 -34 9 -57 s18 -41 34 -55c15 -15 36 -23 62 -23c4 0 10 1 18 2c19 5 32 15 40 30s13 34 13 55z" />
      </symbol>
      <symbol id="E0A4-6ggg3z" viewBox="0 0 1000 1000" overflow="inherit">
         <path transform="scale(1,-1)" d="M0 -39c0 68 73 172 200 172c66 0 114 -37 114 -95c0 -84 -106 -171 -218 -171c-64 0 -96 30 -96 94z" />
      </symbol>
      <symbol id="E0D9-6ggg3z" viewBox="0 0 1000 1000" overflow="inherit">
         <path transform="scale(1,-1)" d="M0 0c0 3 1 4 3 6c53 47 102 98 151 153c2 2 5 3 8 3s5 -1 7 -3c49 -55 89 -106 142 -153c2 -2 3 -3 3 -6s-1 -4 -3 -6c-53 -47 -93 -98 -142 -153c-2 -2 -4 -3 -7 -3s-6 1 -8 3c-49 55 -98 106 -151 153c-2 2 -3 3 -3 6zM83 36c-2 -2 -3 -4 -3 -6s1 -4 3 -6l96 -101 c2 -2 4 -3 7 -3s5 1 7 3l40 41c2 2 3 4 3 6s-1 4 -3 6l-96 101c-2 2 -4 3 -7 3s-5 -1 -7 -3z" />
      </symbol>
      <symbol id="E4E3-6ggg3z" viewBox="0 0 1000 1000" overflow="inherit">
         <path transform="scale(1,-1)" d="M0 -115v105c0 9 1 10 10 10h280c9 0 10 -1 10 -10v-105c0 -9 -1 -10 -10 -10h-280c-9 0 -10 1 -10 10z" />
      </symbol>
      <symbol id="E069-6ggg3z" viewBox="0 0 1000 1000" overflow="inherit">
         <path transform="scale(1,-1)" d="M200 250h125v-500h-125v500zM0 250h125v-500h-125v500z" />
      </symbol>
   </defs>
   <style type="text/css">g.page-margin{font-family:Times,serif;} g.ending, g.fing, g.reh, g.tempo{font-weight:bold;} g.dir, g.dynam, g.mNum{font-style:italic;} g.label{font-weight:normal;}</style>
   <svg class="definition-scale" color="black" viewBox="0 0 21000 29700">
      <g class="page-margin" transform="translate(500, 500)">
         <g id="m-1924ad7d-24c8-478a-ad9e-8971440a8e0f" class="mdiv pageMilestone" />
         <g id="m-0a3e78ea-2b6d-4af7-bff2-2a337e5063e8" class="score pageMilestone" />
         <g id="s1ndusjo" class="system">
            <g id="m-7f1567ba-752b-4670-bd9c-ee0cd6050282" class="section systemMilestone" />
            <g id="m-bbc0d8b7-72b2-449c-b8a6-ab79c2f4dd36" class="measure">
               <g id="m-eba9d951-8a43-4dee-ae4d-da0223128655" class="staff">
                  <path d="M0 1595 L5688 1595" stroke="currentColor" stroke-width="13" />
                  <path d="M0 1775 L5688 1775" stroke="currentColor" stroke-width="13" />
                  <path d="M0 1955 L5688 1955" stroke="currentColor" stroke-width="13" />
                  <path d="M0 2135 L5688 2135" stroke="currentColor" stroke-width="13" />
                  <path d="M0 2315 L5688 2315" stroke="currentColor" stroke-width="13" />
                  <g id="c15mgjes" class="clef">
                     <use xlink:href="#E069-6ggg3z" x="90" y="1955" height="720px" width="720px" />
                  </g>
                  <g id="koh2k97" class="keySig" />
                  <g id="mzbc0py" class="meterSig">
                     <use xlink:href="#E084-6ggg3z" x="490" y="1775" height="720px" width="720px" />
                     <use xlink:href="#E084-6ggg3z" x="490" y="2135" height="720px" width="720px" />
                  </g>
                  <g id="m-0db23807-5a8c-4167-aa05-7d7ac3d1eb81" class="layer">
                     <g id="m-58a81c49-d29b-4a12-8a02-c41a0bdac505" class="rest">
                        <use xlink:href="#E4E3-6ggg3z" x="1052" y="1775" height="720px" width="720px" />
                        <g class="ledgerLines" />
                     </g>
                  </g>
                  <g id="m-303b243c-df2f-4671-b0b5-94b5ac74ed14" class="layer">
                     <g id="m-fbe94c21-eea4-4700-bac2-b7a6cc7019ee" class="beam">
                        <polygon points="1052,2540 2018,2540 2018,2450 1052,2450" />
                        <polygon points="1052,2405 1377,2405 1377,2315 1052,2315" />
                        <polygon points="1377,2405 1693,2405 1693,2315 1377,2315" />
                        <polygon points="1693,2405 2018,2405 2018,2315 1693,2315" />
                        <g id="m-37c8c13c-0eca-4202-96b5-265c04823cd9" class="note">
                           <g class="notehead">
                              <use xlink:href="#E0A4-6ggg3z" x="1052" y="1955" height="720px" width="720px" />
                           </g>
                           <g id="s1v3vdzo" class="stem">
                              <path d="M1061 1983 L1061 2522" stroke="currentColor" stroke-width="18" />
                           </g>
                           <g id="azub45g" class="accid" />
                        </g>
                        <g id="m-0fa9d1fc-faf8-4e5a-b259-5b15b0bae11f" class="note">
                           <g class="notehead">
                              <use xlink:href="#E0A4-6ggg3z" x="1368" y="1955" height="720px" width="720px" />
                           </g>
                           <g id="saugshc" class="stem">
                              <path d="M1377 1983 L1377 2522" stroke="currentColor" stroke-width="18" />
                           </g>
                           <g id="a20ph2x" class="accid" />
                        </g>
                        <g id="m-f493d4e1-f6bc-4601-b46f-4c9a00dd3907" class="note">
                           <g class="notehead">
                              <use xlink:href="#E0A4-6ggg3z" x="1684" y="1955" height="720px" width="720px" />
                           </g>
                           <g id="sb5ier1" class="stem">
                              <path d="M1693 1983 L1693 2522" stroke="currentColor" stroke-width="18" />
                           </g>
                           <g id="a11udmin" class="accid" />
                        </g>
                        <g id="m-6bb65841-2a97-4050-921d-a37bef2b8012" class="note">
                           <g class="notehead">
                              <use xlink:href="#E0A4-6ggg3z" x="2000" y="1955" height="720px" width="720px" />
                           </g>
                           <g id="s1q7e2cx" class="stem">
                              <path d="M2009 1983 L2009 2522" stroke="currentColor" stroke-width="18" />
                           </g>
                           <g id="at0vt9i" class="accid" />
                        </g>
                     </g>
                     <g id="m-acef3ab8-287b-4d6d-8c78-37375b3e311f" class="rest">
                        <use xlink:href="#E4E7-6ggg3z" x="2300" y="2135" height="720px" width="720px" />
                     </g>
                     <g id="m-bc27f976-4d28-4b59-b66b-229511bbc57c" class="beam">
                        <polygon points="2623,2540 3273,2540 3273,2450 2623,2450" />
                        <polygon points="2623,2405 2948,2405 2948,2315 2623,2315" />
                        <polygon points="2948,2405 3273,2405 3273,2315 2948,2315" />
                        <g id="m-ae272026-5ff1-467f-8f37-3ce6a7644f6f" class="note">
                           <g class="notehead">
                              <use xlink:href="#E0A4-6ggg3z" x="2623" y="1955" height="720px" width="720px" />
                           </g>
                           <g id="s1ox1sd7" class="stem">
                              <path d="M2632 1983 L2632 2522" stroke="currentColor" stroke-width="18" />
                           </g>
                           <g id="a1xndyr2" class="accid" />
                        </g>
                        <g id="m-b10996af-1731-4d14-8e0f-322c63bd0850" class="note">
                           <g class="notehead">
                              <use xlink:href="#E0A4-6ggg3z" x="2939" y="1955" height="720px" width="720px" />
                           </g>
                           <g id="ssxeoe3" class="stem">
                              <path d="M2948 1983 L2948 2522" stroke="currentColor" stroke-width="18" />
                           </g>
                           <g id="a1bv5nz2" class="accid" />
                        </g>
                        <g id="m-1f31fc7a-8b9f-42b9-9374-46955378e5cd" class="note">
                           <g class="notehead">
                              <use xlink:href="#E0A4-6ggg3z" x="3255" y="1955" height="720px" width="720px" />
                           </g>
                           <g id="s1hmw3sm" class="stem">
                              <path d="M3264 1983 L3264 2522" stroke="currentColor" stroke-width="18" />
                           </g>
                           <g id="aterx81" class="accid" />
                        </g>
                     </g>
                     <g id="m-959e91a4-05ca-4a63-9247-31ecfc404af5" class="beam">
                        <polygon points="3679,2810 4147,2810 4147,2720 3679,2720" />
                        <g id="m-08311799-61ec-4ad3-90d5-345d68984386" class="note">
                           <g class="notehead">
                              <use xlink:href="#E0A4-6ggg3z" x="3679" y="1955" height="720px" width="720px" />
                           </g>
                           <g id="s1canlkx" class="stem">
                              <path d="M3688 1983 L3688 2792" stroke="currentColor" stroke-width="18" />
                              <use xlink:href="#E222-6ggg3z" x="3688" y="2441" height="720px" width="720px" />
                           </g>
                           <g id="a1bdbvvm" class="accid" />
                        </g>
                        <g id="m-f515f851-51fc-43b3-80e8-a1ffd6919699" class="note">
                           <g class="notehead">
                              <use xlink:href="#E0A4-6ggg3z" x="4129" y="1955" height="720px" width="720px" />
                           </g>
                           <g id="s1m0af9j" class="stem">
                              <path d="M4138 1983 L4138 2792" stroke="currentColor" stroke-width="18" />
                           </g>
                           <g id="alvskf7" class="accid" />
                        </g>
                     </g>
                     <g id="m-8ec3851f-31fa-40af-a302-8edbf9b24788" class="beam">
                        <polygon points="4579,2540 5363,2540 5363,2450 4579,2450" />
                        <polygon points="5038,2405 5363,2405 5363,2315 5038,2315" />
                        <g id="m-cd944ce5-9cbe-42d2-97b8-791c6e131226" class="note">
                           <g class="notehead">
                              <use xlink:href="#E0A4-6ggg3z" x="4579" y="1955" height="720px" width="720px" />
                           </g>
                           <g id="s1ajnlqp" class="stem">
                              <path d="M4588 1983 L4588 2522" stroke="currentColor" stroke-width="18" />
                           </g>
                           <g id="a15brujd" class="accid" />
                        </g>
                        <g id="m-3fb679f5-b8cd-4c74-a747-d2f183afe4c3" class="note">
                           <g class="notehead">
                              <use xlink:href="#E0A4-6ggg3z" x="5029" y="1955" height="720px" width="720px" />
                           </g>
                           <g id="skt8qmo" class="stem">
                              <path d="M5038 1983 L5038 2522" stroke="currentColor" stroke-width="18" />
                           </g>
                           <g id="a1dcetdv" class="accid" />
                        </g>
                        <g id="m-49d2a60e-1a92-4bdd-8e42-bbb392dffc52" class="note">
                           <g class="notehead">
                              <use xlink:href="#E0A4-6ggg3z" x="5345" y="1955" height="720px" width="720px" />
                           </g>
                           <g id="s19w6kc2" class="stem">
                              <path d="M5354 1983 L5354 2522" stroke="currentColor" stroke-width="18" />
                           </g>
                           <g id="auhszgu" class="accid" />
                        </g>
                     </g>
                  </g>
               </g>
               <g id="bufhtht" class="barLine">
                  <path d="M5675 1595 L5675 2315" stroke="currentColor" stroke-width="27" />
               </g>
            </g>
            <g id="m-31bc0b9e-76e0-4758-86d4-d9b9a1c0f51c" class="measure">
               <g id="m-7a178833-cc26-4b77-ae66-fdb6dabe772e" class="staff">
                  <path d="M5688 1595 L9714 1595" stroke="currentColor" stroke-width="13" />
                  <path d="M5688 1775 L9714 1775" stroke="currentColor" stroke-width="13" />
                  <path d="M5688 1955 L9714 1955" stroke="currentColor" stroke-width="13" />
                  <path d="M5688 2135 L9714 2135" stroke="currentColor" stroke-width="13" />
                  <path d="M5688 2315 L9714 2315" stroke="currentColor" stroke-width="13" />
                  <g id="m-d38fcb24-bfbf-45cd-968d-70478ccc51f5" class="layer">
                     <g id="m-bae934d6-7069-46ab-9b9d-9a66c6e9c7d9" class="rest">
                        <use xlink:href="#E4E3-6ggg3z" x="5868" y="1775" height="720px" width="720px" />
                        <g class="ledgerLines" />
                     </g>
                  </g>
                  <g id="m-e4976ff3-7c57-489b-8bfd-3496b79faa0d" class="layer">
                     <g id="m-7835cff9-85e2-41cd-b755-62beebdd28fe" class="beam">
                        <polygon points="5868,2900 6709,2900 6709,2810 5868,2810" />
                        <polygon points="6327,2765 6709,2765 6709,2675 6327,2675" />
                        <g id="m-95668f30-840e-47fd-90fd-9c1b7aa08dd2" class="note">
                           <g class="notehead">
                              <use xlink:href="#E0A4-6ggg3z" x="5868" y="1955" height="720px" width="720px" />
                           </g>
                           <g id="sduja85" class="stem">
                              <path d="M5877 1983 L5877 2882" stroke="currentColor" stroke-width="18" />
                           </g>
                           <g id="aj2dep5" class="accid" />
                        </g>
                        <g id="m-ee78258c-a3c4-4b98-9b8e-93f983efd9ba" class="note">
                           <g class="notehead">
                              <use xlink:href="#E0A4-6ggg3z" x="6318" y="1955" height="720px" width="720px" />
                           </g>
                           <g id="s8ehixu" class="stem">
                              <path d="M6327 1983 L6327 2882" stroke="currentColor" stroke-width="18" />
                              <use xlink:href="#E222-6ggg3z" x="6327" y="2441" height="720px" width="720px" />
                           </g>
                           <g id="a2xumpc" class="accid" />
                        </g>
                        <g id="m-4eeb689b-1364-434a-9695-42b0c08a86da" class="note">
                           <g class="notehead">
                              <use xlink:href="#E0A4-6ggg3z" x="6691" y="1955" height="720px" width="720px" />
                           </g>
                           <g id="s129jbbj" class="stem">
                              <path d="M6700 1983 L6700 2882" stroke="currentColor" stroke-width="18" />
                           </g>
                           <g id="axmb7zz" class="accid" />
                        </g>
                     </g>
                     <g id="m-70e607bf-235b-4f61-9d77-e9771b4f9ade" class="rest">
                        <use xlink:href="#E4E7-6ggg3z" x="6991" y="2135" height="720px" width="720px" />
                     </g>
                     <g id="m-11f57071-4999-4d7d-ae58-4e28147bd531" class="beam">
                        <polygon points="7314,2540 7648,2540 7648,2450 7314,2450" />
                        <polygon points="7314,2405 7540,2405 7540,2315 7314,2315" />
                        <g id="m-ebba2732-6165-4afa-bdee-bd4b21a21c08" class="note">
                           <g class="notehead">
                              <use xlink:href="#E0A4-6ggg3z" x="7314" y="1955" height="720px" width="720px" />
                           </g>
                           <g id="sg8pjiq" class="stem">
                              <path d="M7323 1983 L7323 2522" stroke="currentColor" stroke-width="18" />
                           </g>
                           <g id="a1yvtb28" class="accid" />
                        </g>
                        <g id="m-496c8e19-5ed4-4dd2-8707-265de4f7128f" class="note">
                           <g class="notehead">
                              <use xlink:href="#E0D9-6ggg3z" x="7630" y="1955" height="720px" width="720px" />
                           </g>
                           <g id="s1h25oi5" class="stem">
                              <path d="M7639 1955 L7639 2522" stroke="currentColor" stroke-width="18" />
                           </g>
                           <g id="a1f2vfrt" class="accid" />
                        </g>
                     </g>
                     <g id="m-03349835-78a6-4b9e-84ca-6707dbc6e602" class="beam">
                        <polygon points="8080,2810 8579,2810 8579,2720 8080,2720" />
                        <g id="m-16703f3f-5930-4769-825b-58769ffd9812" class="note">
                           <g class="notehead">
                              <use xlink:href="#E0A4-6ggg3z" x="8080" y="1955" height="720px" width="720px" />
                           </g>
                           <g id="shukvt9" class="stem">
                              <path d="M8089 1983 L8089 2792" stroke="currentColor" stroke-width="18" />
                              <use xlink:href="#E222-6ggg3z" x="8089" y="2441" height="720px" width="720px" />
                           </g>
                           <g id="a1dq3krt" class="accid" />
                        </g>
                        <g id="m-68064f24-f063-4751-b516-3e461099eaab" class="note">
                           <g class="notehead">
                              <use xlink:href="#E0A4-6ggg3z" x="8561" y="1955" height="720px" width="720px" />
                           </g>
                           <g id="s97osb1" class="stem">
                              <path d="M8570 1983 L8570 2792" stroke="currentColor" stroke-width="18" />
                              <use xlink:href="#E222-6ggg3z" x="8570" y="2441" height="720px" width="720px" />
                           </g>
                           <g id="aix8im1" class="accid" />
                        </g>
                     </g>
                     <g id="m-3f5312e3-cca9-403a-8b8b-0ffec2e72801" class="note">
                        <g class="notehead">
                           <use xlink:href="#E0A4-6ggg3z" x="9011" y="1955" height="720px" width="720px" />
                        </g>
                        <g id="s1ekudes" class="stem">
                           <path d="M9020 1983 L9020 2555" stroke="currentColor" stroke-width="18" />
                        </g>
                        <g id="af3yk68" class="accid" />
                     </g>
                  </g>
               </g>
               <g id="bjigtwz" class="barLine">
                  <path d="M9701 1595 L9701 2315" stroke="currentColor" stroke-width="27" />
               </g>
            </g>
            <g id="m-dc9800ae-cd05-431e-86cb-d2efb781c502" class="measure">
               <g id="m-c0866cf1-e3c6-46b3-9f6e-3c2b3595cc3e" class="staff">
                  <path d="M9714 1595 L11497 1595" stroke="currentColor" stroke-width="13" />
                  <path d="M9714 1775 L11497 1775" stroke="currentColor" stroke-width="13" />
                  <path d="M9714 1955 L11497 1955" stroke="currentColor" stroke-width="13" />
                  <path d="M9714 2135 L11497 2135" stroke="currentColor" stroke-width="13" />
                  <path d="M9714 2315 L11497 2315" stroke="currentColor" stroke-width="13" />
                  <g id="m-23600243-d5b2-4a11-b672-3c3d7d4b57d4" class="layer">
                     <g id="m-914e4bda-52cf-4cfe-9a82-177bbccbccb0" class="rest">
                        <use xlink:href="#E4E3-6ggg3z" x="9894" y="1775" height="720px" width="720px" />
                        <g class="ledgerLines" />
                     </g>
                  </g>
                  <g id="m-1dba0e8a-91ac-41b0-8a37-d888d65dd82e" class="layer">
                     <g id="m-5be773c1-3baf-4493-bc11-a5c18d4b129a" class="note">
                        <g class="notehead">
                           <use xlink:href="#E0A2-6ggg3z" x="9894" y="1955" height="720px" width="720px" />
                        </g>
                        <g id="ajlthd6" class="accid" />
                     </g>
                  </g>
               </g>
               <g id="b15012t2" class="barLine">
                  <path d="M11484 1595 L11484 2315" stroke="currentColor" stroke-width="27" />
               </g>
            </g>
            <g id="s1wmygoj" class="systemMilestoneEnd m-7f1567ba-752b-4670-bd9c-ee0cd6050282" />
         </g>
         <g id="p136el6h" class="pageMilestoneEnd m-0a3e78ea-2b6d-4af7-bff2-2a337e5063e8" />
         <g id="p1r2z1vr" class="pageMilestoneEnd m-1924ad7d-24c8-478a-ad9e-8971440a8e0f" />
         <g id="p2ijk9d" class="pgHead autogenerated">
            <text font-size="0px">
               <tspan id="r1gmld5e" class="rend" x="10000" y="415" text-anchor="middle">
                  <title class="labelAttr">title</title>
                  <tspan id="r910z9u" class="rend">
                     <tspan id="t3jsl3o" class="text">
                        <tspan font-size="607px">31_jazz_120_beat_4-4</tspan>
                     </tspan>
                  </tspan>
                  <tspan id="l1hqn8i6" class="lb" />
                  <tspan id="r13k8smv" class="rend">
                     <tspan id="t1hy1mi9" class="text" x="10000" y="805">
                        <tspan font-size="324px">31_jazz_120_beat_4-4</tspan>
                     </tspan>
                  </tspan>
               </tspan>
            </text>
         </g>
         <g id="pn6qy10" class="pgFoot autogenerated">
            <g id="fwuv5jd" class="fig">
               <g class="svg" transform="translate(7750, 28099) scale(10.000000, 10.000000)">
                  <g>
                     <path fill="#00000" d="M 17.11278,49.26451 V 10.367554 h 12.696511 c 3.288815,7.336676 6.71267,14.610456 10.127281,21.888976 3.419998,-7.484684 6.255515,-14.204887 9.58887,-21.909915 2.436207,0.103726 4.316952,0.08453 6.484294,-0.05808 V 49.264423 H 50.274275 C 50.145222,38.35639 50.016136,27.448368 49.887066,16.540329 45.003488,27.315459 39.967448,38.433564 35.083854,49.208695 34.678996,49.343717 34.426583,49.135619 34.021726,49.270644 29.46588,39.330716 24.910049,29.390805 20.354201,19.450876 20.224341,29.388756 20.09461,39.326619 19.964815,49.264497 H 17.11278 Z M 36.754144,39.324695 C 32.721221,30.512695 28.6883,21.700679 24.655394,12.888662 22.530527,12.750737 22.656775,12.71031 20.714356,12.813974 v 0.966497 c 4.612938,9.99784 9.609439,20.748709 13.87298,30.081745 0.722248,-1.512523 1.444528,-3.025014 2.166808,-4.537521 z m 25.738417,9.939815 c 0,-12.965651 0,-25.931305 0,-38.896956 10.084388,0 20.168791,0 30.253178,0 0,0.960416 0,1.920849 0,2.881265 -6.482825,0 -12.965652,0 -19.448478,0 0,4.802097 0,9.604178 0,14.406277 5.52241,0 11.044819,0 16.567229,0 0,0.960415 0,1.920832 0,2.881248 -5.52241,0 -11.044819,0 -16.567229,0 0,5.282306 0,10.564611 0,15.846917 6.963035,0 13.926068,0 20.889103,0 0,0.960416 0,1.920832 0,2.881249 -10.564597,0 -21.129207,0 -31.693803,0 z m 4.321874,-2.160937 c 0,-11.765131 0,-23.530263 0,-35.295394 -0.720312,0 -1.440625,0 -2.160937,0 0,11.765131 0,23.530263 0,35.295394 0.720312,0 1.440625,0 2.160937,0 z m 32.41413,2.160937 c 0,-12.965651 0,-25.931305 0,-38.896956 2.401045,0 4.802095,0 7.203135,0 0,12.965651 0,25.931305 0,38.896956 -2.40104,0 -4.80209,0 -7.203135,0 z m 2.881265,-2.160937 c 0,-11.765131 0,-23.530263 0,-35.295394 -0.72031,0 -1.44064,0 -2.160953,0 0,11.765131 0,23.530263 0,35.295394 0.720313,0 1.440643,0 2.160953,0 z" />
                     <path fill="#00000" d="m 346.3,6.7 c -3.1,0.5 -4.9,4.4 -2.7,6.8 1.2,1.4 2.7,2.4 4.1,3.5 -2.4,5.3 -7.7,8.3 -11.9,12.1 -3.7,2.8 -7,6.2 -9.7,9.9 -2.2,-0.8 -0.3,-6.8 -0.6,-9.5 0.1,-3.1 0.7,-6.4 2.9,-8.7 1.3,-1.9 3,-3.5 4.5,-5.2 1.2,-3.4 -3.2,-4.9 -5.8,-4.6 -7.3,-0.5 -14.6,2 -20,6.8 -5,4.6 -10,10.1 -11.5,17 -0.9,3.5 -0.2,7.5 2.8,9.9 2.5,2.8 7.4,2.9 9.8,-0.2 1.7,-2.3 3.2,-4.8 3.8,-7.6 -0.1,-2.6 -4.4,-2.3 -4.3,0.2 1.2,2.4 -0.9,4.7 -2.7,6.2 -1.7,0.9 -4.7,0.7 -4.8,-1.7 -1,-5.8 2.1,-11.3 5.2,-16.1 4,-5.8 9.8,-11.2 17.2,-11.8 1.6,0 8.1,-1.2 6.8,1.4 -2.8,2.8 -5.6,6.1 -6,10.3 -1.6,7.7 0.1,15.7 -2.3,23.2 -1.1,3.9 2,2.6 2.5,0.2 3.3,-7.4 8.9,-13.4 15.1,-18.5 4.2,-3.9 9.5,-7.1 11.9,-12.6 1.3,-3.6 1.2,-9 -2.7,-10.9 -0.6,-0.2 -1.2,-0.3 -1.8,-0.3 z m 66,14.5 c -2,0.8 -1.8,4.9 0.8,4.4 3.4,0.4 2.9,-6.2 -0.8,-4.4 z m 0.6,7.3 c -1.3,0.5 -7.6,0.5 -5.4,2.2 4,-0.3 0.7,4.5 0.6,6.7 -0.4,2.9 -2.4,5.9 -1.2,8.8 2.7,1.7 5.6,-0.8 6.8,-3.2 1.6,-1.4 -0.5,-3 -1.2,-0.9 -0.4,0.8 -2.4,3.5 -2.6,1.8 1.1,-5 2.7,-9.9 3.9,-14.9 l -0.1,-0.5 h -0.9 z m -65.1,0.2 c -6.5,1.6 -10.5,9.5 -8.2,15.7 2.1,3.4 7.4,2.9 10.1,0.4 2,-0.2 3.6,-5.3 1,-3.4 -1.4,2 -4,4.2 -6.5,2.8 -2.2,-1.9 -1.9,-5.7 1.7,-5.3 3.1,-0.9 6.9,-2.1 8.1,-5.5 0.9,-2.7 -1.6,-5.2 -4.3,-4.8 h -1.1 -0.7 z m 13.6,0 c -2.2,0 -8.5,1.8 -2.9,2.3 0.9,1.9 -1,4.9 -1.1,7.2 -0.5,2.9 -1.4,5.7 -1.7,8.7 3.7,0.7 3.8,-2.6 4.4,-5.3 0.9,-3.3 1.6,-7 4.1,-9.5 2.4,1.6 6.8,-0.7 3.7,-3.4 -2.9,-0.5 -4.8,2.4 -6.2,4.3 0,-1.2 2.4,-5 -0.2,-4.3 z m 15.8,0 c -6.4,1.3 -9.6,9.1 -7.7,14.9 1.9,4 7.7,3.9 11,1.7 4.1,-3 6,-8.9 4.4,-13.7 -1.3,-3 -4.8,-3.2 -7.6,-3 z m 17,0 c -2.3,0 -8.8,1.9 -3,2.4 0.4,2.5 -1,5.7 -1.4,8.4 -0.7,2.4 -1.8,7.5 2.1,7.2 3.8,-0.1 6.5,-3.5 8.5,-6.3 2,-3.2 4.5,-7 3.3,-10.9 -3.7,-3 -3.6,2.6 -3.1,5.1 -0.7,3.8 -2.7,7.9 -6.2,9.8 -3.6,0.6 -1,-4.3 -0.8,-6.1 0.6,-3.2 1.6,-6.3 1.9,-9.5 -0.4,0 -0.8,0 -1.1,0 z m 30.6,0 c -6.3,1.2 -9.5,8.9 -7.8,14.7 1.5,4 7.2,4.2 10.5,2.4 4.6,-2.8 6.6,-9.3 4.8,-14.3 -1.4,-2.8 -4.8,-3 -7.5,-2.8 z m -75.4,1.7 c 2.1,1.5 0.2,4.7 -1.6,5.7 -1.1,0.4 -5.5,3.4 -4.6,0.7 0.8,-2.7 2.2,-6.2 5.3,-6.6 l 0.9,0.1 z m 30.8,0 c 2.6,1.5 1.3,5.2 0.8,7.6 -0.8,2.7 -1.9,5.9 -4.7,7.1 -5.1,0.8 -4,-5.8 -2.8,-8.8 1,-2.8 3,-6.8 6.7,-5.8 z m 47.1,-0.1 c 2.9,0.7 2,4.7 1.5,6.8 -0.7,3 -1.8,6.7 -5,8 -4.7,0.8 -4,-5.1 -3,-7.9 0.9,-3 2.7,-7.3 6.5,-6.8 z m -88.1,5.9 c -0.3,1.3 0.9,-0.6 0,0 z m -1.1,2.4 c -0.2,0.5 0.5,-0.1 0,0 z m -1.3,4.5 c -0.3,1.3 0.8,-0.2 0,0 z" />
                     <text y="41" x="201" fill="#00000" style="font-style:italic;font-weight:normal;font-size:30px;line-height:125%;font-family:Times;text-anchor:middle" xml:space="preserve">engraved with</text>
                  </g>
               </g>
            </g>
         </g>
      </g>
   </svg>
</svg>
