<?xml version="1.0" encoding="UTF-8" standalone="no"?>
<svg width="2100px" height="2970px" version="1.1" xmlns="http://www.w3.org/2000/svg" xmlns:xlink="http://www.w3.org/1999/xlink" xmlns:mei="http://www.music-encoding.org/ns/mei" overflow="visible">
   <desc>Engraved by Verovio 4.4.0-66ab39c</desc>
   <defs>
      <symbol id="E241-1cprqo5" viewBox="0 0 1000 1000" overflow="inherit">
         <path transform="scale(1,-1)" d="M179 646c-4 8 -17 30 -18 33l-4 10c0 3 2 5 5 5s7 -2 13 -7c23 -33 46 -81 66 -132c22 -57 35 -125 35 -163c0 -104 -60 -183 -122 -241c-63 -59 -57 -53 -61 -56c-38 -34 -63 -95 -71 -95h-22v190c40 7 69 11 87 16c88 27 168 95 168 200c0 30 -12 89 -30 138 c-17 47 -31 73 -46 102z" />
      </symbol>
      <symbol id="E4E6-1cprqo5" viewBox="0 0 1000 1000" overflow="inherit">
         <path transform="scale(1,-1)" d="M0 123c7 34 33 56 69 60c29 -3 43 -9 53 -29c4 -8 7 -15 10 -22c0 -21 -1 -25 -11 -35c-5 -8 -18 -14 -40 -20l12 -3l15 -1c44 0 97 26 122 56c10 11 18 26 24 42c7 1 15 2 22 3l-140 -424h-36l111 330c-10 -6 -27 -12 -53 -16l-52 -8h-10l-20 1c-1 0 -8 3 -21 6 c-37 9 -55 28 -55 60z" />
      </symbol>
      <symbol id="E084-1cprqo5" viewBox="0 0 1000 1000" overflow="inherit">
         <path transform="scale(1,-1)" d="M20 -78c84 97 114 180 134 329h170c-13 -32 -82 -132 -99 -151l-84 -97c-33 -36 -59 -63 -80 -81h162v102l127 123v-225h57v-39h-57v-34c0 -43 19 -65 57 -65v-34h-244v36c48 0 60 26 60 70v27h-203v39z" />
      </symbol>
      <symbol id="E0A4-1cprqo5" viewBox="0 0 1000 1000" overflow="inherit">
         <path transform="scale(1,-1)" d="M0 -39c0 68 73 172 200 172c66 0 114 -37 114 -95c0 -84 -106 -171 -218 -171c-64 0 -96 30 -96 94z" />
      </symbol>
      <symbol id="E0A9-1cprqo5" viewBox="0 0 1000 1000" overflow="inherit">
         <path transform="scale(1,-1)" d="M0 -110c0 4 1 8 5 11l119 99l-119 100c-3 3 -5 8 -5 12c0 6 5 13 12 13c3 0 6 -1 8 -2l124 -105l126 105c2 1 5 2 7 2c6 0 13 -6 13 -14c0 -4 -2 -9 -5 -11l-119 -100l119 -99c3 -3 5 -7 5 -12c0 -6 -5 -14 -13 -14c-2 0 -5 1 -7 3l-126 105l-124 -105c-2 -2 -4 -3 -7 -3 c-8 0 -13 7 -13 15z" />
      </symbol>
      <symbol id="E0D9-1cprqo5" viewBox="0 0 1000 1000" overflow="inherit">
         <path transform="scale(1,-1)" d="M0 0c0 3 1 4 3 6c53 47 102 98 151 153c2 2 5 3 8 3s5 -1 7 -3c49 -55 89 -106 142 -153c2 -2 3 -3 3 -6s-1 -4 -3 -6c-53 -47 -93 -98 -142 -153c-2 -2 -4 -3 -7 -3s-6 1 -8 3c-49 55 -98 106 -151 153c-2 2 -3 3 -3 6zM83 36c-2 -2 -3 -4 -3 -6s1 -4 3 -6l96 -101 c2 -2 4 -3 7 -3s5 1 7 3l40 41c2 2 3 4 3 6s-1 4 -3 6l-96 101c-2 2 -4 3 -7 3s-5 -1 -7 -3z" />
      </symbol>
      <symbol id="E0B6-1cprqo5" viewBox="0 0 1000 1000" overflow="inherit">
         <path transform="scale(1,-1)" d="M0 -36c0 68 73 174 200 174c66 0 114 -39 114 -97c0 -84 -106 -173 -218 -173c-64 0 -96 32 -96 96zM52 -92c6 -2 15 -3 26 -3c29 5 70 23 107 47l-41 31zM208 -31c40 29 70 64 70 95c0 9 -3 16 -7 23l-105 -87zM246 102c-3 1 -7 1 -11 1c-12 0 -26 -3 -41 -10 c-30 -15 -60 -32 -86 -49l36 -26zM85 27c-33 -27 -56 -57 -56 -90c1 -4 2 -7 3 -11l92 74z" />
      </symbol>
      <symbol id="E069-1cprqo5" viewBox="0 0 1000 1000" overflow="inherit">
         <path transform="scale(1,-1)" d="M200 250h125v-500h-125v500zM0 250h125v-500h-125v500z" />
      </symbol>
   </defs>
   <style type="text/css">g.page-margin{font-family:Times,serif;} g.ending, g.fing, g.reh, g.tempo{font-weight:bold;} g.dir, g.dynam, g.mNum{font-style:italic;} g.label{font-weight:normal;}</style>
   <svg class="definition-scale" color="black" viewBox="0 0 21000 29700">
      <g class="page-margin" transform="translate(500, 500)">
         <g id="m-90cb7a8f-bec8-4d9c-ba34-eaf198834ee8" class="mdiv pageMilestone" />
         <g id="m-ca40cd51-0244-4d27-8be3-fd83ec4b4651" class="score pageMilestone" />
         <g id="s1uxs1fr" class="system">
            <g id="m-82ca364c-ac1a-4803-9409-d033be10f39e" class="section systemMilestone" />
            <g id="m-900fa649-e535-46ed-ab87-e6d95dd0bb51" class="measure">
               <g id="m-ac8eb23b-4f7e-43e8-970f-5e7056206abb" class="staff">
                  <path d="M0 1607 L4831 1607" stroke="currentColor" stroke-width="13" />
                  <path d="M0 1787 L4831 1787" stroke="currentColor" stroke-width="13" />
                  <path d="M0 1967 L4831 1967" stroke="currentColor" stroke-width="13" />
                  <path d="M0 2147 L4831 2147" stroke="currentColor" stroke-width="13" />
                  <path d="M0 2327 L4831 2327" stroke="currentColor" stroke-width="13" />
                  <g id="c1glzmwm" class="clef">
                     <use xlink:href="#E069-1cprqo5" x="90" y="1967" height="720px" width="720px" />
                  </g>
                  <g id="k1kh645j" class="keySig" />
                  <g id="m1wftm36" class="meterSig">
                     <use xlink:href="#E084-1cprqo5" x="490" y="1787" height="720px" width="720px" />
                     <use xlink:href="#E084-1cprqo5" x="490" y="2147" height="720px" width="720px" />
                  </g>
                  <g id="m-2b31b070-b974-48e6-89b9-94f14528e4b6" class="layer">
                     <g id="m-6df557c7-e7b1-4fe7-a895-d3da8b6813be" class="beam">
                        <polygon points="1242,1067 1710,1067 1710,1157 1242,1157" />
                        <g id="m-1e6ac0a0-998f-4e36-907a-aa3752744fd1" class="note">
                           <g class="notehead">
                              <use xlink:href="#E0A9-1cprqo5" x="1052" y="1517" height="720px" width="720px" />
                           </g>
                           <g id="s1do06ww" class="stem">
                              <path d="M1251 1438 L1251 1085" stroke="currentColor" stroke-width="18" />
                           </g>
                        </g>
                        <g id="m-6ca26bad-c5ab-4f5d-96ac-d3b70f0e323d" class="note">
                           <g class="notehead">
                              <use xlink:href="#E0A9-1cprqo5" x="1502" y="1517" height="720px" width="720px" />
                           </g>
                           <g id="sfoipw2" class="stem">
                              <path d="M1701 1438 L1701 1085" stroke="currentColor" stroke-width="18" />
                           </g>
                        </g>
                     </g>
                     <g id="m-1950cdd3-23e5-4b00-ab9c-fac2a108736a" class="beam">
                        <polygon points="2308,1067 2776,1067 2776,1157 2308,1157" />
                        <g id="m-8e790734-08c6-4bd4-be9c-ff6bc9413448" class="note">
                           <g class="notehead">
                              <use xlink:href="#E0A9-1cprqo5" x="2118" y="1517" height="720px" width="720px" />
                           </g>
                           <g id="sut4z5a" class="stem">
                              <path d="M2317 1438 L2317 1085" stroke="currentColor" stroke-width="18" />
                           </g>
                        </g>
                        <g id="m-21a4ed55-9e31-4960-a231-6de7a02df995" class="note">
                           <g class="notehead">
                              <use xlink:href="#E0A9-1cprqo5" x="2568" y="1517" height="720px" width="720px" />
                           </g>
                           <g id="swahh7t" class="stem">
                              <path d="M2767 1438 L2767 1085" stroke="currentColor" stroke-width="18" />
                           </g>
                        </g>
                     </g>
                     <g id="m-fef06428-f168-40ba-8354-e7bef85e4d49" class="beam">
                        <polygon points="3208,1067 3676,1067 3676,1157 3208,1157" />
                        <g id="m-f88c6a28-e47b-46ff-a95b-06a3562f9408" class="note">
                           <g class="notehead">
                              <use xlink:href="#E0A9-1cprqo5" x="3018" y="1517" height="720px" width="720px" />
                           </g>
                           <g id="shqrif4" class="stem">
                              <path d="M3217 1438 L3217 1085" stroke="currentColor" stroke-width="18" />
                           </g>
                        </g>
                        <g id="m-501fcfbc-7150-4276-97ab-c7cdac60468b" class="note">
                           <g class="notehead">
                              <use xlink:href="#E0A9-1cprqo5" x="3468" y="1517" height="720px" width="720px" />
                           </g>
                           <g id="s121wqy8" class="stem">
                              <path d="M3667 1438 L3667 1085" stroke="currentColor" stroke-width="18" />
                           </g>
                        </g>
                     </g>
                     <g id="m-126e888a-17c4-4f4c-a657-1e844e45ea06" class="beam">
                        <polygon points="4108,1067 4576,1067 4576,1157 4108,1157" />
                        <g id="m-8bd40955-fa7b-4db9-8b8a-40a2ba22747b" class="note">
                           <g class="notehead">
                              <use xlink:href="#E0A9-1cprqo5" x="3918" y="1517" height="720px" width="720px" />
                           </g>
                           <g id="s1whtsnl" class="stem">
                              <path d="M4117 1438 L4117 1085" stroke="currentColor" stroke-width="18" />
                           </g>
                        </g>
                        <g id="m-2b9bf3d9-6a8d-4561-8c25-a61d18fa2aa4" class="note">
                           <g class="notehead">
                              <use xlink:href="#E0A9-1cprqo5" x="4368" y="1517" height="720px" width="720px" />
                           </g>
                           <g id="s1rqyu2z" class="stem">
                              <path d="M4567 1438 L4567 1085" stroke="currentColor" stroke-width="18" />
                           </g>
                        </g>
                     </g>
                  </g>
                  <g id="m-a3a1e917-f7fc-4d0c-a001-7cd56c6c2fd5" class="layer">
                     <g id="m-a1c6dbc3-67d5-470b-b8ee-30ad1e07c80f" class="beam">
                        <polygon points="1052,3002 1820,3002 1820,2912 1052,2912" />
                        <polygon points="1594,2867 1820,2867 1820,2777 1594,2777" />
                        <g id="m-9334b226-8480-4212-9f63-42c98a2ef0c0" class="note">
                           <g class="notehead">
                              <use xlink:href="#E0A4-1cprqo5" x="1052" y="2417" height="720px" width="720px" />
                           </g>
                           <g id="d3fd7d6" class="dots">
                              <ellipse cx="1368" cy="2417" rx="36" ry="36" />
                           </g>
                           <g id="sv3nfsw" class="stem">
                              <path d="M1061 2445 L1061 2984" stroke="currentColor" stroke-width="18" />
                           </g>
                        </g>
                        <g id="m-7bc994ae-68e9-43b2-a705-975ab6c4c090" class="note">
                           <g class="notehead">
                              <use xlink:href="#E0A4-1cprqo5" x="1802" y="2417" height="720px" width="720px" />
                           </g>
                           <g id="s2dht41" class="stem">
                              <path d="M1811 2445 L1811 2984" stroke="currentColor" stroke-width="18" />
                           </g>
                        </g>
                     </g>
                     <g id="m-9e99670f-5708-496d-81c4-2163885610cb" class="beam">
                        <polygon points="2118,2867 2586,2912 2586,2822 2118,2777" />
                        <g id="m-88f92f24-1e52-46b9-98d9-8cb9446599e6" class="note">
                           <g class="notehead">
                              <use xlink:href="#E0A4-1cprqo5" x="2118" y="1967" height="720px" width="720px" />
                           </g>
                           <g id="sif3zo3" class="stem">
                              <path d="M2127 1995 L2127 2849" stroke="currentColor" stroke-width="18" />
                           </g>
                           <g id="avdge3e" class="accid" />
                        </g>
                        <g id="m-683f5a3e-1574-43ce-8b09-d229d7bd548e" class="note">
                           <g class="notehead">
                              <use xlink:href="#E0A4-1cprqo5" x="2568" y="2417" height="720px" width="720px" />
                           </g>
                           <g id="s5hsra4" class="stem">
                              <path d="M2577 2445 L2577 2894" stroke="currentColor" stroke-width="18" />
                           </g>
                        </g>
                     </g>
                     <g id="m-004a0bb9-d3d5-4a15-800a-1fee5b4e396f" class="rest">
                        <use xlink:href="#E4E6-1cprqo5" x="3018" y="2507" height="720px" width="720px" />
                     </g>
                     <g id="m-7e899d84-e684-45f8-8f4a-1e5b12a09830" class="note">
                        <g class="notehead">
                           <use xlink:href="#E0A4-1cprqo5" x="3468" y="2417" height="720px" width="720px" />
                        </g>
                        <g id="sa4harv" class="stem">
                           <path d="M3477 2445 L3477 2957" stroke="currentColor" stroke-width="18" />
                           <g id="f15dmtc5" class="flag">
                              <use xlink:href="#E241-1cprqo5" x="3468" y="2957" height="720px" width="720px" />
                           </g>
                        </g>
                     </g>
                     <g id="m-5edd6a93-e1be-4653-af24-3445abca5e97" class="beam">
                        <polygon points="3918,2867 4386,2912 4386,2822 3918,2777" />
                        <g id="m-04d6e8bd-2005-4fe3-9e4c-50706ed85098" class="note">
                           <g class="notehead">
                              <use xlink:href="#E0A4-1cprqo5" x="3918" y="1967" height="720px" width="720px" />
                           </g>
                           <g id="s17oqogg" class="stem">
                              <path d="M3927 1995 L3927 2849" stroke="currentColor" stroke-width="18" />
                           </g>
                           <g id="ancjse6" class="accid" />
                        </g>
                        <g id="m-7d065645-32f5-4d2e-b63a-7a6b79bdd262" class="note">
                           <g class="notehead">
                              <use xlink:href="#E0A4-1cprqo5" x="4368" y="2417" height="720px" width="720px" />
                           </g>
                           <g id="sw2jjjz" class="stem">
                              <path d="M4377 2445 L4377 2894" stroke="currentColor" stroke-width="18" />
                           </g>
                        </g>
                     </g>
                  </g>
               </g>
               <g id="bfwjc30" class="barLine">
                  <path d="M4818 1607 L4818 2327" stroke="currentColor" stroke-width="27" />
               </g>
            </g>
            <g id="m-71299aa2-48bd-42fa-915e-712704c1353d" class="measure">
               <g id="m-0e8196e3-f1e0-4edc-9754-ba3d1900e819" class="staff">
                  <path d="M4831 1607 L8972 1607" stroke="currentColor" stroke-width="13" />
                  <path d="M4831 1787 L8972 1787" stroke="currentColor" stroke-width="13" />
                  <path d="M4831 1967 L8972 1967" stroke="currentColor" stroke-width="13" />
                  <path d="M4831 2147 L8972 2147" stroke="currentColor" stroke-width="13" />
                  <path d="M4831 2327 L8972 2327" stroke="currentColor" stroke-width="13" />
                  <g id="m-a678a3e0-ab98-4885-aa5c-0f4ac0493bf4" class="layer">
                     <g id="m-3d664488-b017-48ad-b2dc-2805b3a0a125" class="beam">
                        <polygon points="5201,1067 5851,1067 5851,1157 5201,1157" />
                        <g id="m-b14b8c9f-863b-46a9-9fb8-29ca3de0cf79" class="note">
                           <g class="notehead">
                              <use xlink:href="#E0A9-1cprqo5" x="5011" y="1517" height="720px" width="720px" />
                           </g>
                           <g id="sid9573" class="stem">
                              <path d="M5210 1438 L5210 1085" stroke="currentColor" stroke-width="18" />
                           </g>
                        </g>
                        <g id="m-b39ba095-f505-4a03-8dca-ee0be7bb5dd1" class="note">
                           <g class="notehead">
                              <use xlink:href="#E0A9-1cprqo5" x="5643" y="1517" height="720px" width="720px" />
                           </g>
                           <g id="saa6al6" class="stem">
                              <path d="M5842 1438 L5842 1085" stroke="currentColor" stroke-width="18" />
                           </g>
                        </g>
                     </g>
                     <g id="m-c1ccaff2-2e56-4ed2-8458-55b03dca57fe" class="beam">
                        <polygon points="6449,1067 6917,1067 6917,1157 6449,1157" />
                        <g id="m-f3d4ef87-646d-4b59-aa58-f68a6178d339" class="note">
                           <g class="notehead">
                              <use xlink:href="#E0A9-1cprqo5" x="6259" y="1517" height="720px" width="720px" />
                           </g>
                           <g id="s9kfe21" class="stem">
                              <path d="M6458 1438 L6458 1085" stroke="currentColor" stroke-width="18" />
                           </g>
                        </g>
                        <g id="m-afe0621d-9cb1-431a-aca8-560fb4b35905" class="note">
                           <g class="notehead">
                              <use xlink:href="#E0A9-1cprqo5" x="6709" y="1517" height="720px" width="720px" />
                           </g>
                           <g id="spepwp3" class="stem">
                              <path d="M6908 1438 L6908 1085" stroke="currentColor" stroke-width="18" />
                           </g>
                        </g>
                     </g>
                     <g id="m-a15f92f1-53ea-4ccf-a4f9-ec0ba6985ce0" class="beam">
                        <polygon points="7349,1067 7817,1067 7817,1157 7349,1157" />
                        <g id="m-fabaebd0-8933-4618-a046-affb61163f41" class="note">
                           <g class="notehead">
                              <use xlink:href="#E0A9-1cprqo5" x="7159" y="1517" height="720px" width="720px" />
                           </g>
                           <g id="sgr7ou" class="stem">
                              <path d="M7358 1438 L7358 1085" stroke="currentColor" stroke-width="18" />
                           </g>
                        </g>
                        <g id="m-b1e9c412-c669-49af-9094-9b90c15405fa" class="note">
                           <g class="notehead">
                              <use xlink:href="#E0A9-1cprqo5" x="7609" y="1517" height="720px" width="720px" />
                           </g>
                           <g id="s2ux0ta" class="stem">
                              <path d="M7808 1438 L7808 1085" stroke="currentColor" stroke-width="18" />
                           </g>
                        </g>
                     </g>
                     <g id="m-d1c33989-43ac-43d4-91c7-7292577331bc" class="beam">
                        <polygon points="8249,1067 8717,1067 8717,1157 8249,1157" />
                        <g id="m-5ae61215-db5b-46df-806d-a62e009705dc" class="note">
                           <g class="notehead">
                              <use xlink:href="#E0A9-1cprqo5" x="8059" y="1517" height="720px" width="720px" />
                           </g>
                           <g id="svvstpg" class="stem">
                              <path d="M8258 1438 L8258 1085" stroke="currentColor" stroke-width="18" />
                           </g>
                        </g>
                        <g id="m-f4290b3c-2919-401b-852a-070aee9d9f41" class="note">
                           <g class="notehead">
                              <use xlink:href="#E0A9-1cprqo5" x="8509" y="1517" height="720px" width="720px" />
                           </g>
                           <g id="sdd1izd" class="stem">
                              <path d="M8708 1438 L8708 1085" stroke="currentColor" stroke-width="18" />
                           </g>
                        </g>
                     </g>
                  </g>
                  <g id="m-eddb6eb8-1db2-45d4-a9f4-0c0e61f3ff84" class="layer">
                     <g id="m-b82a0848-8d7d-4047-ab33-752247cc4873" class="beam">
                        <polygon points="5011,3002 5961,3002 5961,2912 5011,2912" />
                        <polygon points="5011,2867 5237,2867 5237,2777 5011,2777" />
                        <polygon points="5735,2867 5961,2867 5961,2777 5735,2777" />
                        <g id="m-6daa2a30-d7da-4c9d-861d-99046140c727" class="note">
                           <g class="notehead">
                              <use xlink:href="#E0A4-1cprqo5" x="5011" y="2417" height="720px" width="720px" />
                           </g>
                           <g id="s7qbvik" class="stem">
                              <path d="M5020 2445 L5020 2984" stroke="currentColor" stroke-width="18" />
                           </g>
                        </g>
                        <g id="m-58ffeaa9-c0d0-43e0-84ff-4cd0d6d26af8" class="note">
                           <g class="notehead">
                              <use xlink:href="#E0A4-1cprqo5" x="5327" y="2417" height="720px" width="720px" />
                           </g>
                           <g id="sf7xrcn" class="stem">
                              <path d="M5336 2445 L5336 2984" stroke="currentColor" stroke-width="18" />
                           </g>
                        </g>
                        <g id="m-5f97e854-df9d-4af4-ae88-ae5daeb64e0f" class="note">
                           <g class="notehead">
                              <use xlink:href="#E0A4-1cprqo5" x="5943" y="2417" height="720px" width="720px" />
                           </g>
                           <g id="sd7yqq0" class="stem">
                              <path d="M5952 2445 L5952 2984" stroke="currentColor" stroke-width="18" />
                           </g>
                        </g>
                     </g>
                     <g id="m-24c46064-fe47-4da9-bc42-b8398576209b" class="chord">
                        <g id="svbc5a7" class="stem">
                           <path d="M6268 1995 L6268 2867" stroke="currentColor" stroke-width="18" />
                        </g>
                        <g id="m-dd9b711b-01c7-47a9-8fdf-0d50d8e1fa88" class="note">
                           <g class="notehead">
                              <use xlink:href="#E0A4-1cprqo5" x="6259" y="2417" height="720px" width="720px" />
                           </g>
                        </g>
                        <g id="m-a8e4d926-e0ed-4d0c-96b6-393cd78ec8dd" class="note">
                           <g class="notehead">
                              <use xlink:href="#E0A4-1cprqo5" x="6259" y="1967" height="720px" width="720px" />
                           </g>
                           <g id="a1wawcld" class="accid" />
                        </g>
                     </g>
                     <g id="m-3e761577-05cc-4da8-8257-55ed12e79a98" class="rest">
                        <use xlink:href="#E4E6-1cprqo5" x="7159" y="2327" height="720px" width="720px" />
                     </g>
                     <g id="m-637dac13-cf21-426d-95d4-918540056862" class="note">
                        <g class="notehead">
                           <use xlink:href="#E0A4-1cprqo5" x="7609" y="2417" height="720px" width="720px" />
                        </g>
                        <g id="sxx6vcl" class="stem">
                           <path d="M7618 2445 L7618 2957" stroke="currentColor" stroke-width="18" />
                           <g id="fpi284a" class="flag">
                              <use xlink:href="#E241-1cprqo5" x="7609" y="2957" height="720px" width="720px" />
                           </g>
                        </g>
                     </g>
                     <g id="m-90c1fc0f-6a1f-448d-b314-dbbc991aad34" class="beam">
                        <polygon points="8059,2867 8527,2912 8527,2822 8059,2777" />
                        <g id="m-708cbfaa-9dee-4dea-be7d-72e1f7787c5d" class="note">
                           <g class="notehead">
                              <use xlink:href="#E0D9-1cprqo5" x="8059" y="1967" height="720px" width="720px" />
                           </g>
                           <g id="s3097qb" class="stem">
                              <path d="M8068 1967 L8068 2849" stroke="currentColor" stroke-width="18" />
                           </g>
                           <g id="aywo3yb" class="accid" />
                        </g>
                        <g id="m-503d7ebc-2dfc-434b-a648-8e8261b7ff92" class="note">
                           <g class="notehead">
                              <use xlink:href="#E0A4-1cprqo5" x="8509" y="2417" height="720px" width="720px" />
                           </g>
                           <g id="syypgf3" class="stem">
                              <path d="M8518 2445 L8518 2894" stroke="currentColor" stroke-width="18" />
                           </g>
                        </g>
                     </g>
                  </g>
               </g>
               <g id="bts94wa" class="barLine">
                  <path d="M8959 1607 L8959 2327" stroke="currentColor" stroke-width="27" />
               </g>
            </g>
            <g id="m-20c4f0ba-f086-49e6-85c2-2ab5077df037" class="measure">
               <g id="m-7c792f07-2b5a-48fd-9aa4-3bb5b12c71cd" class="staff">
                  <path d="M8972 1607 L12931 1607" stroke="currentColor" stroke-width="13" />
                  <path d="M8972 1787 L12931 1787" stroke="currentColor" stroke-width="13" />
                  <path d="M8972 1967 L12931 1967" stroke="currentColor" stroke-width="13" />
                  <path d="M8972 2147 L12931 2147" stroke="currentColor" stroke-width="13" />
                  <path d="M8972 2327 L12931 2327" stroke="currentColor" stroke-width="13" />
                  <g id="m-f8b9fae9-8a0d-4818-a9ed-289f7cc87cbe" class="layer">
                     <g id="m-77deab5e-a973-4c41-a7be-ac29d3897df1" class="beam">
                        <polygon points="9342,1067 9810,1067 9810,1157 9342,1157" />
                        <g id="m-92df13de-1beb-44ba-be4a-dc5341d4171d" class="note">
                           <g class="notehead">
                              <use xlink:href="#E0A9-1cprqo5" x="9152" y="1517" height="720px" width="720px" />
                           </g>
                           <g id="s1q736hv" class="stem">
                              <path d="M9351 1438 L9351 1085" stroke="currentColor" stroke-width="18" />
                           </g>
                        </g>
                        <g id="m-b77226ce-c0d3-4a1d-9bbc-e99f41bc9896" class="note">
                           <g class="notehead">
                              <use xlink:href="#E0A9-1cprqo5" x="9602" y="1517" height="720px" width="720px" />
                           </g>
                           <g id="s1bbjmbs" class="stem">
                              <path d="M9801 1438 L9801 1085" stroke="currentColor" stroke-width="18" />
                           </g>
                        </g>
                     </g>
                     <g id="m-07c7bc16-dd04-48b5-befe-c68197fb3b47" class="beam">
                        <polygon points="10408,1067 10876,1067 10876,1157 10408,1157" />
                        <g id="m-a01e8448-a34a-41bd-ab34-e02a631c7992" class="note">
                           <g class="notehead">
                              <use xlink:href="#E0A9-1cprqo5" x="10218" y="1517" height="720px" width="720px" />
                           </g>
                           <g id="s1oamhkh" class="stem">
                              <path d="M10417 1438 L10417 1085" stroke="currentColor" stroke-width="18" />
                           </g>
                        </g>
                        <g id="m-07056655-223f-416b-a231-e933fdee21fa" class="note">
                           <g class="notehead">
                              <use xlink:href="#E0A9-1cprqo5" x="10668" y="1517" height="720px" width="720px" />
                           </g>
                           <g id="s8l709u" class="stem">
                              <path d="M10867 1438 L10867 1085" stroke="currentColor" stroke-width="18" />
                           </g>
                        </g>
                     </g>
                     <g id="m-11591f45-f046-4004-a989-7961726c893e" class="beam">
                        <polygon points="11308,1067 11776,1067 11776,1157 11308,1157" />
                        <g id="m-2ea251d5-982f-4757-986d-d22f10cd0900" class="note">
                           <g class="notehead">
                              <use xlink:href="#E0A9-1cprqo5" x="11118" y="1517" height="720px" width="720px" />
                           </g>
                           <g id="s5up8rt" class="stem">
                              <path d="M11317 1438 L11317 1085" stroke="currentColor" stroke-width="18" />
                           </g>
                        </g>
                        <g id="m-94de8742-13c7-41eb-82ba-7ae9db9c575d" class="note">
                           <g class="notehead">
                              <use xlink:href="#E0A9-1cprqo5" x="11568" y="1517" height="720px" width="720px" />
                           </g>
                           <g id="s1huwmdp" class="stem">
                              <path d="M11767 1438 L11767 1085" stroke="currentColor" stroke-width="18" />
                           </g>
                        </g>
                     </g>
                     <g id="m-92c664a4-c039-427c-8011-e7283aba6b88" class="beam">
                        <polygon points="12208,1067 12676,1067 12676,1157 12208,1157" />
                        <g id="m-25c89c1d-f800-4d23-9c4b-1db0808c74b8" class="note">
                           <g class="notehead">
                              <use xlink:href="#E0A9-1cprqo5" x="12018" y="1517" height="720px" width="720px" />
                           </g>
                           <g id="s1gawn7y" class="stem">
                              <path d="M12217 1438 L12217 1085" stroke="currentColor" stroke-width="18" />
                           </g>
                        </g>
                        <g id="m-3e3dd5ee-894a-4559-ae04-017d018cd0cf" class="note">
                           <g class="notehead">
                              <use xlink:href="#E0A9-1cprqo5" x="12468" y="1517" height="720px" width="720px" />
                           </g>
                           <g id="s8mwq1f" class="stem">
                              <path d="M12667 1438 L12667 1085" stroke="currentColor" stroke-width="18" />
                           </g>
                        </g>
                     </g>
                  </g>
                  <g id="m-a696154d-86c7-4b62-9511-e79022ad1d51" class="layer">
                     <g id="m-6ad72f72-a394-4a30-aae7-f55a841e1179" class="beam">
                        <polygon points="9152,3002 9920,3002 9920,2912 9152,2912" />
                        <polygon points="9694,2867 9920,2867 9920,2777 9694,2777" />
                        <g id="m-6b80f6a9-45f6-4b1e-a288-9d9e0b127462" class="note">
                           <g class="notehead">
                              <use xlink:href="#E0A4-1cprqo5" x="9152" y="2417" height="720px" width="720px" />
                           </g>
                           <g id="d1711zum" class="dots">
                              <ellipse cx="9468" cy="2417" rx="36" ry="36" />
                           </g>
                           <g id="s1030m9n" class="stem">
                              <path d="M9161 2445 L9161 2984" stroke="currentColor" stroke-width="18" />
                           </g>
                        </g>
                        <g id="m-4b70a9ce-d576-4a73-833a-b21989212135" class="note">
                           <g class="notehead">
                              <use xlink:href="#E0A4-1cprqo5" x="9902" y="2417" height="720px" width="720px" />
                           </g>
                           <g id="sozb7fc" class="stem">
                              <path d="M9911 2445 L9911 2984" stroke="currentColor" stroke-width="18" />
                           </g>
                        </g>
                     </g>
                     <g id="m-cee7f1ec-4e7e-494d-a0ab-93a956c346c7" class="beam">
                        <polygon points="10218,2867 10686,2912 10686,2822 10218,2777" />
                        <g id="m-7102a5f6-f14f-40ea-95a3-820a29384aba" class="note">
                           <g class="notehead">
                              <use xlink:href="#E0A4-1cprqo5" x="10218" y="1967" height="720px" width="720px" />
                           </g>
                           <g id="s1u4svu4" class="stem">
                              <path d="M10227 1995 L10227 2849" stroke="currentColor" stroke-width="18" />
                           </g>
                           <g id="a199lc0l" class="accid" />
                        </g>
                        <g id="m-e9e4d7a9-9aa0-4b75-a3ce-a3c58c69d112" class="note">
                           <g class="notehead">
                              <use xlink:href="#E0A4-1cprqo5" x="10668" y="2417" height="720px" width="720px" />
                           </g>
                           <g id="s1utspu3" class="stem">
                              <path d="M10677 2445 L10677 2894" stroke="currentColor" stroke-width="18" />
                           </g>
                        </g>
                     </g>
                     <g id="m-8d5977d3-1690-4937-b383-c57b3b50acad" class="rest">
                        <use xlink:href="#E4E6-1cprqo5" x="11118" y="2507" height="720px" width="720px" />
                     </g>
                     <g id="m-35c33de4-dc99-4888-b09b-5f48a0b20593" class="note">
                        <g class="notehead">
                           <use xlink:href="#E0A4-1cprqo5" x="11568" y="2417" height="720px" width="720px" />
                        </g>
                        <g id="sfrpb99" class="stem">
                           <path d="M11577 2445 L11577 2957" stroke="currentColor" stroke-width="18" />
                           <g id="f1s4gcnw" class="flag">
                              <use xlink:href="#E241-1cprqo5" x="11568" y="2957" height="720px" width="720px" />
                           </g>
                        </g>
                     </g>
                     <g id="m-be95e0dd-820f-41c5-abb0-fe7d683eb72a" class="beam">
                        <polygon points="12018,2867 12486,2912 12486,2822 12018,2777" />
                        <g id="m-b4dd1fdb-532b-49a6-afe7-c6e167575e5b" class="note">
                           <g class="notehead">
                              <use xlink:href="#E0A4-1cprqo5" x="12018" y="1967" height="720px" width="720px" />
                           </g>
                           <g id="s1di2efi" class="stem">
                              <path d="M12027 1995 L12027 2849" stroke="currentColor" stroke-width="18" />
                           </g>
                           <g id="atpe802" class="accid" />
                        </g>
                        <g id="m-7466f78a-8d5d-48ee-ab10-c216b027dd74" class="note">
                           <g class="notehead">
                              <use xlink:href="#E0A4-1cprqo5" x="12468" y="2417" height="720px" width="720px" />
                           </g>
                           <g id="srr2t6s" class="stem">
                              <path d="M12477 2445 L12477 2894" stroke="currentColor" stroke-width="18" />
                           </g>
                        </g>
                     </g>
                  </g>
               </g>
               <g id="b1s126r" class="barLine">
                  <path d="M12918 1607 L12918 2327" stroke="currentColor" stroke-width="27" />
               </g>
            </g>
            <g id="m-2057a95e-a072-4bee-8b69-9b1b79785548" class="measure">
               <g id="m-a792a5ef-abb6-4a45-b1d0-2b307c8922ce" class="staff">
                  <path d="M12931 1607 L15930 1607" stroke="currentColor" stroke-width="13" />
                  <path d="M12931 1787 L15930 1787" stroke="currentColor" stroke-width="13" />
                  <path d="M12931 1967 L15930 1967" stroke="currentColor" stroke-width="13" />
                  <path d="M12931 2147 L15930 2147" stroke="currentColor" stroke-width="13" />
                  <path d="M12931 2327 L15930 2327" stroke="currentColor" stroke-width="13" />
                  <g id="m-88c057b6-1b20-424f-94da-a96068dc293f" class="layer">
                     <g id="m-4b353276-1db6-4b23-b452-c921b01f9abf" class="beam">
                        <polygon points="13301,1067 13769,1067 13769,1157 13301,1157" />
                        <g id="m-ca693c78-4ca2-43cd-9cd8-5c6039d37f7c" class="note">
                           <g class="notehead">
                              <use xlink:href="#E0A9-1cprqo5" x="13111" y="1517" height="720px" width="720px" />
                           </g>
                           <g id="szzee6m" class="stem">
                              <path d="M13310 1438 L13310 1085" stroke="currentColor" stroke-width="18" />
                           </g>
                        </g>
                        <g id="m-216ff67d-27fb-440e-b658-5418389c05d6" class="note">
                           <g class="notehead">
                              <use xlink:href="#E0A9-1cprqo5" x="13561" y="1517" height="720px" width="720px" />
                           </g>
                           <g id="sc74b6g" class="stem">
                              <path d="M13760 1438 L13760 1085" stroke="currentColor" stroke-width="18" />
                           </g>
                        </g>
                     </g>
                     <g id="m-1635d3b0-117c-4333-a991-7013591dc492" class="note">
                        <g class="notehead">
                           <use xlink:href="#E0A9-1cprqo5" x="14177" y="1517" height="720px" width="720px" />
                        </g>
                        <g id="s13mxxiq" class="stem">
                           <path d="M14376 1438 L14376 1067" stroke="currentColor" stroke-width="18" />
                        </g>
                     </g>
                     <g id="m-a6ac235d-70e5-4e5a-934d-8627135be957" class="note">
                        <g class="notehead">
                           <use xlink:href="#E0B6-1cprqo5" x="14867" y="1517" height="720px" width="720px" />
                        </g>
                        <g id="s1tc0q3c" class="stem">
                           <path d="M15084 1489 L15084 1067" stroke="currentColor" stroke-width="18" />
                        </g>
                     </g>
                  </g>
                  <g id="m-806df8af-a243-4ced-a680-b660263abc3c" class="layer">
                     <g id="m-c213a56b-8026-4027-a6ec-ac8cdab91f23" class="beam">
                        <polygon points="13111,3002 13879,3002 13879,2912 13111,2912" />
                        <polygon points="13653,2867 13879,2867 13879,2777 13653,2777" />
                        <g id="m-45d6840a-f012-4ce8-833d-e079c02a02e8" class="note">
                           <g class="notehead">
                              <use xlink:href="#E0A4-1cprqo5" x="13111" y="2417" height="720px" width="720px" />
                           </g>
                           <g id="d1sbbstn" class="dots">
                              <ellipse cx="13427" cy="2417" rx="36" ry="36" />
                           </g>
                           <g id="s7cundt" class="stem">
                              <path d="M13120 2445 L13120 2984" stroke="currentColor" stroke-width="18" />
                           </g>
                        </g>
                        <g id="m-a942d670-f379-4ee1-993e-8406ba2abfcc" class="note">
                           <g class="notehead">
                              <use xlink:href="#E0A4-1cprqo5" x="13861" y="2417" height="720px" width="720px" />
                           </g>
                           <g id="s1ajesx3" class="stem">
                              <path d="M13870 2445 L13870 2984" stroke="currentColor" stroke-width="18" />
                           </g>
                        </g>
                     </g>
                     <g id="m-a49c6840-5f89-475f-877e-4bd9e364f255" class="note">
                        <g class="notehead">
                           <use xlink:href="#E0A4-1cprqo5" x="14177" y="1967" height="720px" width="720px" />
                        </g>
                        <g id="sys3t1s" class="stem">
                           <path d="M14186 1995 L14186 2567" stroke="currentColor" stroke-width="18" />
                        </g>
                        <g id="a1fcjmdm" class="accid" />
                     </g>
                     <g id="m-c4ef17e6-57a0-493b-90de-eb252483cbae" class="note">
                        <g class="notehead">
                           <use xlink:href="#E0A4-1cprqo5" x="14867" y="2417" height="720px" width="720px" />
                        </g>
                        <g id="sioxzyu" class="stem">
                           <path d="M14876 2445 L14876 2867" stroke="currentColor" stroke-width="18" />
                        </g>
                     </g>
                  </g>
               </g>
               <g id="b1jlvkuy" class="barLine">
                  <path d="M15917 1607 L15917 2327" stroke="currentColor" stroke-width="27" />
               </g>
            </g>
            <g id="s1h5dyjj" class="systemMilestoneEnd m-82ca364c-ac1a-4803-9409-d033be10f39e" />
         </g>
         <g id="pedb2au" class="pageMilestoneEnd m-ca40cd51-0244-4d27-8be3-fd83ec4b4651" />
         <g id="p1u0i2ad" class="pageMilestoneEnd m-90cb7a8f-bec8-4d9c-ba34-eaf198834ee8" />
         <g id="p18r8oal" class="pgHead autogenerated">
            <text font-size="0px">
               <tspan id="ry5yv7x" class="rend" x="10000" y="418" text-anchor="middle">
                  <title class="labelAttr">title</title>
                  <tspan id="rbs2e1u" class="rend">
                     <tspan id="t3somse" class="text">
                        <tspan font-size="607px">2_rock_105_beat_4-4</tspan>
                     </tspan>
                  </tspan>
                  <tspan id="lg9yofr" class="lb" />
                  <tspan id="rw99uvn" class="rend">
                     <tspan id="t18j7dwu" class="text" x="10000" y="808">
                        <tspan font-size="324px">2_rock_105_beat_4-4</tspan>
                     </tspan>
                  </tspan>
               </tspan>
            </text>
         </g>
         <g id="p40ffxi" class="pgFoot autogenerated">
            <g id="fhyduw" class="fig">
               <g class="svg" transform="translate(7750, 28099) scale(10.000000, 10.000000)">
                  <g>
                     <path fill="#00000" d="M 17.11278,49.26451 V 10.367554 h 12.696511 c 3.288815,7.336676 6.71267,14.610456 10.127281,21.888976 3.419998,-7.484684 6.255515,-14.204887 9.58887,-21.909915 2.436207,0.103726 4.316952,0.08453 6.484294,-0.05808 V 49.264423 H 50.274275 C 50.145222,38.35639 50.016136,27.448368 49.887066,16.540329 45.003488,27.315459 39.967448,38.433564 35.083854,49.208695 34.678996,49.343717 34.426583,49.135619 34.021726,49.270644 29.46588,39.330716 24.910049,29.390805 20.354201,19.450876 20.224341,29.388756 20.09461,39.326619 19.964815,49.264497 H 17.11278 Z M 36.754144,39.324695 C 32.721221,30.512695 28.6883,21.700679 24.655394,12.888662 22.530527,12.750737 22.656775,12.71031 20.714356,12.813974 v 0.966497 c 4.612938,9.99784 9.609439,20.748709 13.87298,30.081745 0.722248,-1.512523 1.444528,-3.025014 2.166808,-4.537521 z m 25.738417,9.939815 c 0,-12.965651 0,-25.931305 0,-38.896956 10.084388,0 20.168791,0 30.253178,0 0,0.960416 0,1.920849 0,2.881265 -6.482825,0 -12.965652,0 -19.448478,0 0,4.802097 0,9.604178 0,14.406277 5.52241,0 11.044819,0 16.567229,0 0,0.960415 0,1.920832 0,2.881248 -5.52241,0 -11.044819,0 -16.567229,0 0,5.282306 0,10.564611 0,15.846917 6.963035,0 13.926068,0 20.889103,0 0,0.960416 0,1.920832 0,2.881249 -10.564597,0 -21.129207,0 -31.693803,0 z m 4.321874,-2.160937 c 0,-11.765131 0,-23.530263 0,-35.295394 -0.720312,0 -1.440625,0 -2.160937,0 0,11.765131 0,23.530263 0,35.295394 0.720312,0 1.440625,0 2.160937,0 z m 32.41413,2.160937 c 0,-12.965651 0,-25.931305 0,-38.896956 2.401045,0 4.802095,0 7.203135,0 0,12.965651 0,25.931305 0,38.896956 -2.40104,0 -4.80209,0 -7.203135,0 z m 2.881265,-2.160937 c 0,-11.765131 0,-23.530263 0,-35.295394 -0.72031,0 -1.44064,0 -2.160953,0 0,11.765131 0,23.530263 0,35.295394 0.720313,0 1.440643,0 2.160953,0 z" />
                     <path fill="#00000" d="m 346.3,6.7 c -3.1,0.5 -4.9,4.4 -2.7,6.8 1.2,1.4 2.7,2.4 4.1,3.5 -2.4,5.3 -7.7,8.3 -11.9,12.1 -3.7,2.8 -7,6.2 -9.7,9.9 -2.2,-0.8 -0.3,-6.8 -0.6,-9.5 0.1,-3.1 0.7,-6.4 2.9,-8.7 1.3,-1.9 3,-3.5 4.5,-5.2 1.2,-3.4 -3.2,-4.9 -5.8,-4.6 -7.3,-0.5 -14.6,2 -20,6.8 -5,4.6 -10,10.1 -11.5,17 -0.9,3.5 -0.2,7.5 2.8,9.9 2.5,2.8 7.4,2.9 9.8,-0.2 1.7,-2.3 3.2,-4.8 3.8,-7.6 -0.1,-2.6 -4.4,-2.3 -4.3,0.2 1.2,2.4 -0.9,4.7 -2.7,6.2 -1.7,0.9 -4.7,0.7 -4.8,-1.7 -1,-5.8 2.1,-11.3 5.2,-16.1 4,-5.8 9.8,-11.2 17.2,-11.8 1.6,0 8.1,-1.2 6.8,1.4 -2.8,2.8 -5.6,6.1 -6,10.3 -1.6,7.7 0.1,15.7 -2.3,23.2 -1.1,3.9 2,2.6 2.5,0.2 3.3,-7.4 8.9,-13.4 15.1,-18.5 4.2,-3.9 9.5,-7.1 11.9,-12.6 1.3,-3.6 1.2,-9 -2.7,-10.9 -0.6,-0.2 -1.2,-0.3 -1.8,-0.3 z m 66,14.5 c -2,0.8 -1.8,4.9 0.8,4.4 3.4,0.4 2.9,-6.2 -0.8,-4.4 z m 0.6,7.3 c -1.3,0.5 -7.6,0.5 -5.4,2.2 4,-0.3 0.7,4.5 0.6,6.7 -0.4,2.9 -2.4,5.9 -1.2,8.8 2.7,1.7 5.6,-0.8 6.8,-3.2 1.6,-1.4 -0.5,-3 -1.2,-0.9 -0.4,0.8 -2.4,3.5 -2.6,1.8 1.1,-5 2.7,-9.9 3.9,-14.9 l -0.1,-0.5 h -0.9 z m -65.1,0.2 c -6.5,1.6 -10.5,9.5 -8.2,15.7 2.1,3.4 7.4,2.9 10.1,0.4 2,-0.2 3.6,-5.3 1,-3.4 -1.4,2 -4,4.2 -6.5,2.8 -2.2,-1.9 -1.9,-5.7 1.7,-5.3 3.1,-0.9 6.9,-2.1 8.1,-5.5 0.9,-2.7 -1.6,-5.2 -4.3,-4.8 h -1.1 -0.7 z m 13.6,0 c -2.2,0 -8.5,1.8 -2.9,2.3 0.9,1.9 -1,4.9 -1.1,7.2 -0.5,2.9 -1.4,5.7 -1.7,8.7 3.7,0.7 3.8,-2.6 4.4,-5.3 0.9,-3.3 1.6,-7 4.1,-9.5 2.4,1.6 6.8,-0.7 3.7,-3.4 -2.9,-0.5 -4.8,2.4 -6.2,4.3 0,-1.2 2.4,-5 -0.2,-4.3 z m 15.8,0 c -6.4,1.3 -9.6,9.1 -7.7,14.9 1.9,4 7.7,3.9 11,1.7 4.1,-3 6,-8.9 4.4,-13.7 -1.3,-3 -4.8,-3.2 -7.6,-3 z m 17,0 c -2.3,0 -8.8,1.9 -3,2.4 0.4,2.5 -1,5.7 -1.4,8.4 -0.7,2.4 -1.8,7.5 2.1,7.2 3.8,-0.1 6.5,-3.5 8.5,-6.3 2,-3.2 4.5,-7 3.3,-10.9 -3.7,-3 -3.6,2.6 -3.1,5.1 -0.7,3.8 -2.7,7.9 -6.2,9.8 -3.6,0.6 -1,-4.3 -0.8,-6.1 0.6,-3.2 1.6,-6.3 1.9,-9.5 -0.4,0 -0.8,0 -1.1,0 z m 30.6,0 c -6.3,1.2 -9.5,8.9 -7.8,14.7 1.5,4 7.2,4.2 10.5,2.4 4.6,-2.8 6.6,-9.3 4.8,-14.3 -1.4,-2.8 -4.8,-3 -7.5,-2.8 z m -75.4,1.7 c 2.1,1.5 0.2,4.7 -1.6,5.7 -1.1,0.4 -5.5,3.4 -4.6,0.7 0.8,-2.7 2.2,-6.2 5.3,-6.6 l 0.9,0.1 z m 30.8,0 c 2.6,1.5 1.3,5.2 0.8,7.6 -0.8,2.7 -1.9,5.9 -4.7,7.1 -5.1,0.8 -4,-5.8 -2.8,-8.8 1,-2.8 3,-6.8 6.7,-5.8 z m 47.1,-0.1 c 2.9,0.7 2,4.7 1.5,6.8 -0.7,3 -1.8,6.7 -5,8 -4.7,0.8 -4,-5.1 -3,-7.9 0.9,-3 2.7,-7.3 6.5,-6.8 z m -88.1,5.9 c -0.3,1.3 0.9,-0.6 0,0 z m -1.1,2.4 c -0.2,0.5 0.5,-0.1 0,0 z m -1.3,4.5 c -0.3,1.3 0.8,-0.2 0,0 z" />
                     <text y="41" x="201" fill="#00000" style="font-style:italic;font-weight:normal;font-size:30px;line-height:125%;font-family:Times;text-anchor:middle" xml:space="preserve">engraved with</text>
                  </g>
               </g>
            </g>
         </g>
      </g>
   </svg>
</svg>
