<?xml version="1.0" encoding="UTF-8" standalone="no"?>
<svg width="2100px" height="2970px" version="1.1" xmlns="http://www.w3.org/2000/svg" xmlns:xlink="http://www.w3.org/1999/xlink" xmlns:mei="http://www.music-encoding.org/ns/mei" overflow="visible">
   <desc>Engraved by Verovio 4.4.0-66ab39c</desc>
   <defs>
      <symbol id="E084-1um7eef" viewBox="0 0 1000 1000" overflow="inherit">
         <path transform="scale(1,-1)" d="M20 -78c84 97 114 180 134 329h170c-13 -32 -82 -132 -99 -151l-84 -97c-33 -36 -59 -63 -80 -81h162v102l127 123v-225h57v-39h-57v-34c0 -43 19 -65 57 -65v-34h-244v36c48 0 60 26 60 70v27h-203v39z" />
      </symbol>
      <symbol id="E0A2-1um7eef" viewBox="0 0 1000 1000" overflow="inherit">
         <path transform="scale(1,-1)" d="M198 133c102 0 207 -45 207 -133c0 -92 -118 -133 -227 -133c-101 0 -178 46 -178 133c0 88 93 133 198 133zM293 -21c0 14 -3 29 -8 44c-7 20 -18 38 -33 54c-20 21 -43 31 -68 31l-20 -2c-15 -5 -27 -14 -36 -28c-4 -9 -6 -17 -8 -24s-3 -16 -3 -27c0 -15 3 -34 9 -57 s18 -41 34 -55c15 -15 36 -23 62 -23c4 0 10 1 18 2c19 5 32 15 40 30s13 34 13 55z" />
      </symbol>
      <symbol id="E0A4-1um7eef" viewBox="0 0 1000 1000" overflow="inherit">
         <path transform="scale(1,-1)" d="M0 -39c0 68 73 172 200 172c66 0 114 -37 114 -95c0 -84 -106 -171 -218 -171c-64 0 -96 30 -96 94z" />
      </symbol>
      <symbol id="E0B5-1um7eef" viewBox="0 0 1000 1000" overflow="inherit">
         <path transform="scale(1,-1)" d="M293 -21c0 14 -3 29 -8 44c-3 8 -6 15 -10 22l-55 -45l68 -55c3 11 5 22 5 34zM198 133c102 0 207 -45 207 -133c0 -92 -98 -133 -207 -133c-101 0 -198 46 -198 133c0 88 93 133 198 133zM141 -64c5 -8 12 -15 19 -21c15 -15 36 -23 62 -23c4 0 10 1 18 2 c17 4 29 13 37 25l-79 64zM260 68c-2 3 -5 6 -8 9c-20 21 -43 31 -68 31l-20 -2c-15 -5 -27 -14 -36 -28c0 -1 -1 -1 -1 -2l71 -58zM119 48c-1 -6 -2 -13 -2 -21c0 -15 3 -34 9 -57l3 -9l49 39z" />
      </symbol>
      <symbol id="E4E3-1um7eef" viewBox="0 0 1000 1000" overflow="inherit">
         <path transform="scale(1,-1)" d="M0 -115v105c0 9 1 10 10 10h280c9 0 10 -1 10 -10v-105c0 -9 -1 -10 -10 -10h-280c-9 0 -10 1 -10 10z" />
      </symbol>
      <symbol id="E069-1um7eef" viewBox="0 0 1000 1000" overflow="inherit">
         <path transform="scale(1,-1)" d="M200 250h125v-500h-125v500zM0 250h125v-500h-125v500z" />
      </symbol>
   </defs>
   <style type="text/css">g.page-margin{font-family:Times,serif;} g.ending, g.fing, g.reh, g.tempo{font-weight:bold;} g.dir, g.dynam, g.mNum{font-style:italic;} g.label{font-weight:normal;}</style>
   <svg class="definition-scale" color="black" viewBox="0 0 21000 29700">
      <g class="page-margin" transform="translate(500, 500)">
         <g id="m-66397aea-b455-4270-a10b-5d894d39685e" class="mdiv pageMilestone" />
         <g id="m-e7480375-d2de-4617-a0bf-e719f1808429" class="score pageMilestone" />
         <g id="s1up8m2o" class="system">
            <g id="m-dfbb78a9-9fc9-442b-8794-3a0237282ae9" class="section systemMilestone" />
            <g id="m-5b36af9d-4b52-4647-ac0c-d8c2fdc50fa5" class="measure">
               <g id="m-f3285a7a-e0c6-434c-9a65-aa997149b7fa" class="staff">
                  <path d="M0 1595 L5389 1595" stroke="currentColor" stroke-width="13" />
                  <path d="M0 1775 L5389 1775" stroke="currentColor" stroke-width="13" />
                  <path d="M0 1955 L5389 1955" stroke="currentColor" stroke-width="13" />
                  <path d="M0 2135 L5389 2135" stroke="currentColor" stroke-width="13" />
                  <path d="M0 2315 L5389 2315" stroke="currentColor" stroke-width="13" />
                  <g id="c7hlxo5" class="clef">
                     <use xlink:href="#E069-1um7eef" x="90" y="1955" height="720px" width="720px" />
                  </g>
                  <g id="ks33ses" class="keySig" />
                  <g id="m1hrw4t0" class="meterSig">
                     <use xlink:href="#E084-1um7eef" x="490" y="1775" height="720px" width="720px" />
                     <use xlink:href="#E084-1um7eef" x="490" y="2135" height="720px" width="720px" />
                  </g>
                  <g id="m-0932560e-c397-44cb-ba73-0850a0431940" class="layer">
                     <g id="m-6792b2cb-48b2-459a-94f3-0c2314c655e2" class="rest">
                        <use xlink:href="#E4E3-1um7eef" x="1052" y="1415" height="720px" width="720px" />
                        <g class="ledgerLines">
                           <path d="M1004 1415 L1316 1415" stroke="currentColor" stroke-width="22" />
                        </g>
                     </g>
                  </g>
                  <g id="m-bfadc7f4-b9e0-4a81-8309-2dba562c955c" class="layer">
                     <g id="m-f1738ea0-418d-47b6-8592-cae0e1e88a8c" class="beam">
                        <polygon points="1052,2540 2018,2540 2018,2450 1052,2450" />
                        <polygon points="1052,2405 1377,2405 1377,2315 1052,2315" />
                        <polygon points="1377,2405 1693,2405 1693,2315 1377,2315" />
                        <polygon points="1693,2405 2018,2405 2018,2315 1693,2315" />
                        <g id="m-b22acdb1-53c1-4644-8ea6-0709a78cb644" class="note">
                           <g class="notehead">
                              <use xlink:href="#E0A4-1um7eef" x="1052" y="1955" height="720px" width="720px" />
                           </g>
                           <g id="sv4pwyw" class="stem">
                              <path d="M1061 1983 L1061 2522" stroke="currentColor" stroke-width="18" />
                           </g>
                           <g id="atfvqqa" class="accid" />
                        </g>
                        <g id="m-b8c20d82-de9d-4f55-a599-0d286b5e0de7" class="note">
                           <g class="notehead">
                              <use xlink:href="#E0A4-1um7eef" x="1368" y="1955" height="720px" width="720px" />
                           </g>
                           <g id="s16oo6xm" class="stem">
                              <path d="M1377 1983 L1377 2522" stroke="currentColor" stroke-width="18" />
                           </g>
                           <g id="a1hpw2g7" class="accid" />
                        </g>
                        <g id="m-cdf312e1-1c9a-4673-9d31-48e5cc2b8113" class="note">
                           <g class="notehead">
                              <use xlink:href="#E0A4-1um7eef" x="1684" y="1955" height="720px" width="720px" />
                           </g>
                           <g id="swtwaaf" class="stem">
                              <path d="M1693 1983 L1693 2522" stroke="currentColor" stroke-width="18" />
                           </g>
                           <g id="afm48z8" class="accid" />
                        </g>
                        <g id="m-d969633d-8423-447c-869e-f0daa2ba5a05" class="note">
                           <g class="notehead">
                              <use xlink:href="#E0A4-1um7eef" x="2000" y="1685" height="720px" width="720px" />
                           </g>
                           <g id="s1pjosqr" class="stem">
                              <path d="M2009 1713 L2009 2522" stroke="currentColor" stroke-width="18" />
                           </g>
                           <g id="a3thary" class="accid" />
                        </g>
                     </g>
                     <g id="m-aeb14c86-4739-49c8-aeeb-1b22f31f3e27" class="beam">
                        <polygon points="2316,2315 2914,2315 2914,2225 2316,2225" />
                        <polygon points="2688,2180 2914,2180 2914,2090 2688,2090" />
                        <g id="m-72276391-9a0a-4050-bf8b-3a170fe80b1b" class="note">
                           <g class="notehead">
                              <use xlink:href="#E0A4-1um7eef" x="2316" y="1685" height="720px" width="720px" />
                           </g>
                           <g id="d1en76r9" class="dots">
                              <ellipse cx="2632" cy="1685" rx="36" ry="36" />
                           </g>
                           <g id="s1nb3v9g" class="stem">
                              <path d="M2325 1713 L2325 2297" stroke="currentColor" stroke-width="18" />
                           </g>
                           <g id="a8mszqe" class="accid" />
                        </g>
                        <g id="m-f954433b-346a-485a-bd4a-ea345c336c8b" class="note">
                           <g class="notehead">
                              <use xlink:href="#E0A4-1um7eef" x="2896" y="1685" height="720px" width="720px" />
                           </g>
                           <g id="s1l8x8j1" class="stem">
                              <path d="M2905 1713 L2905 2297" stroke="currentColor" stroke-width="18" />
                           </g>
                           <g id="arq3x5k" class="accid" />
                        </g>
                     </g>
                     <g id="m-44d9b16b-f0db-43d0-b1d8-8cc1a3aaad7d" class="beam">
                        <polygon points="3212,2360 3996,2360 3996,2270 3212,2270" />
                        <polygon points="3671,2225 3996,2225 3996,2135 3671,2135" />
                        <g id="m-081b9545-7cf0-4e88-a21b-09136c96bad0" class="note">
                           <g class="notehead">
                              <use xlink:href="#E0A4-1um7eef" x="3212" y="1775" height="720px" width="720px" />
                           </g>
                           <g id="s1b7bor7" class="stem">
                              <path d="M3221 1803 L3221 2342" stroke="currentColor" stroke-width="18" />
                           </g>
                        </g>
                        <g id="m-37d331ca-867b-419b-a161-6fdb5e42cf7f" class="note">
                           <g class="notehead">
                              <use xlink:href="#E0A4-1um7eef" x="3662" y="1775" height="720px" width="720px" />
                           </g>
                           <g id="stzkied" class="stem">
                              <path d="M3671 1803 L3671 2342" stroke="currentColor" stroke-width="18" />
                           </g>
                        </g>
                        <g id="m-d3a72100-e063-4e0c-b80d-19d40731d6b3" class="note">
                           <g class="notehead">
                              <use xlink:href="#E0A4-1um7eef" x="3978" y="1775" height="720px" width="720px" />
                           </g>
                           <g id="s1sq5lw1" class="stem">
                              <path d="M3987 1803 L3987 2342" stroke="currentColor" stroke-width="18" />
                           </g>
                        </g>
                     </g>
                     <g id="m-84e59668-6350-4c13-9402-29874c18eb78" class="beam">
                        <polygon points="4294,2810 4944,2810 4944,2720 4294,2720" />
                        <polygon points="4294,2675 4619,2675 4619,2585 4294,2585" />
                        <g id="m-de905826-ea4e-4355-82c0-477726c1dac9" class="note">
                           <g class="notehead">
                              <use xlink:href="#E0A4-1um7eef" x="4294" y="2225" height="720px" width="720px" />
                           </g>
                           <g id="swg4rql" class="stem">
                              <path d="M4303 2253 L4303 2792" stroke="currentColor" stroke-width="18" />
                           </g>
                        </g>
                        <g id="m-a1c888d9-854b-4e64-9d2d-0d008241c9d3" class="note">
                           <g class="notehead">
                              <use xlink:href="#E0A4-1um7eef" x="4610" y="2225" height="720px" width="720px" />
                           </g>
                           <g id="s1jphsug" class="stem">
                              <path d="M4619 2253 L4619 2792" stroke="currentColor" stroke-width="18" />
                           </g>
                        </g>
                        <g id="m-5b143623-a512-4145-a04a-f10a385f3b08" class="note">
                           <g class="notehead">
                              <use xlink:href="#E0A4-1um7eef" x="4926" y="2225" height="720px" width="720px" />
                           </g>
                           <g id="s1sfkas4" class="stem">
                              <path d="M4935 2253 L4935 2792" stroke="currentColor" stroke-width="18" />
                           </g>
                        </g>
                     </g>
                  </g>
               </g>
               <g id="b1o1ozok" class="barLine">
                  <path d="M5376 1595 L5376 2315" stroke="currentColor" stroke-width="27" />
               </g>
            </g>
            <g id="m-1a1a0f0f-cb5e-4345-b414-606ea9449edf" class="measure">
               <g id="m-b1f6b032-40eb-4b59-8c4d-b8884a99bb09" class="staff">
                  <path d="M5389 1595 L7172 1595" stroke="currentColor" stroke-width="13" />
                  <path d="M5389 1775 L7172 1775" stroke="currentColor" stroke-width="13" />
                  <path d="M5389 1955 L7172 1955" stroke="currentColor" stroke-width="13" />
                  <path d="M5389 2135 L7172 2135" stroke="currentColor" stroke-width="13" />
                  <path d="M5389 2315 L7172 2315" stroke="currentColor" stroke-width="13" />
                  <g id="m-d5e86423-e769-4b0a-a158-d4fb1500a878" class="layer">
                     <g id="m-1510ea64-5dca-4fd3-8037-c2039f6a0c98" class="note">
                        <g class="notehead">
                           <use xlink:href="#E0B5-1um7eef" x="5569" y="1505" height="720px" width="720px" />
                        </g>
                     </g>
                  </g>
                  <g id="m-3267d36a-7e8c-4786-bda0-f30ba25208c6" class="layer">
                     <g id="m-d8f5a1e0-7f1a-448b-b9cc-3c18c2806628" class="note">
                        <g class="notehead">
                           <use xlink:href="#E0A2-1um7eef" x="5569" y="2405" height="720px" width="720px" />
                        </g>
                     </g>
                  </g>
               </g>
               <g id="brzkyxw" class="barLine">
                  <path d="M7159 1595 L7159 2315" stroke="currentColor" stroke-width="27" />
               </g>
            </g>
            <g id="s1ky2n2y" class="systemMilestoneEnd m-dfbb78a9-9fc9-442b-8794-3a0237282ae9" />
         </g>
         <g id="p1c8mwjq" class="pageMilestoneEnd m-e7480375-d2de-4617-a0bf-e719f1808429" />
         <g id="p1v5q743" class="pageMilestoneEnd m-66397aea-b455-4270-a10b-5d894d39685e" />
         <g id="pnwuv8n" class="pgHead autogenerated">
            <text font-size="0px">
               <tspan id="r19rmdwj" class="rend" x="10000" y="415" text-anchor="middle">
                  <title class="labelAttr">title</title>
                  <tspan id="rq6wyed" class="rend">
                     <tspan id="t1yo9x94" class="text">
                        <tspan font-size="607px">29_rock_120_beat_4-4</tspan>
                     </tspan>
                  </tspan>
                  <tspan id="ly83wdd" class="lb" />
                  <tspan id="r1jjj4i2" class="rend">
                     <tspan id="ty2iqag" class="text" x="10000" y="805">
                        <tspan font-size="324px">29_rock_120_beat_4-4</tspan>
                     </tspan>
                  </tspan>
               </tspan>
            </text>
         </g>
         <g id="p4vwi8p" class="pgFoot autogenerated">
            <g id="f19s2ip8" class="fig">
               <g class="svg" transform="translate(7750, 28099) scale(10.000000, 10.000000)">
                  <g>
                     <path fill="#00000" d="M 17.11278,49.26451 V 10.367554 h 12.696511 c 3.288815,7.336676 6.71267,14.610456 10.127281,21.888976 3.419998,-7.484684 6.255515,-14.204887 9.58887,-21.909915 2.436207,0.103726 4.316952,0.08453 6.484294,-0.05808 V 49.264423 H 50.274275 C 50.145222,38.35639 50.016136,27.448368 49.887066,16.540329 45.003488,27.315459 39.967448,38.433564 35.083854,49.208695 34.678996,49.343717 34.426583,49.135619 34.021726,49.270644 29.46588,39.330716 24.910049,29.390805 20.354201,19.450876 20.224341,29.388756 20.09461,39.326619 19.964815,49.264497 H 17.11278 Z M 36.754144,39.324695 C 32.721221,30.512695 28.6883,21.700679 24.655394,12.888662 22.530527,12.750737 22.656775,12.71031 20.714356,12.813974 v 0.966497 c 4.612938,9.99784 9.609439,20.748709 13.87298,30.081745 0.722248,-1.512523 1.444528,-3.025014 2.166808,-4.537521 z m 25.738417,9.939815 c 0,-12.965651 0,-25.931305 0,-38.896956 10.084388,0 20.168791,0 30.253178,0 0,0.960416 0,1.920849 0,2.881265 -6.482825,0 -12.965652,0 -19.448478,0 0,4.802097 0,9.604178 0,14.406277 5.52241,0 11.044819,0 16.567229,0 0,0.960415 0,1.920832 0,2.881248 -5.52241,0 -11.044819,0 -16.567229,0 0,5.282306 0,10.564611 0,15.846917 6.963035,0 13.926068,0 20.889103,0 0,0.960416 0,1.920832 0,2.881249 -10.564597,0 -21.129207,0 -31.693803,0 z m 4.321874,-2.160937 c 0,-11.765131 0,-23.530263 0,-35.295394 -0.720312,0 -1.440625,0 -2.160937,0 0,11.765131 0,23.530263 0,35.295394 0.720312,0 1.440625,0 2.160937,0 z m 32.41413,2.160937 c 0,-12.965651 0,-25.931305 0,-38.896956 2.401045,0 4.802095,0 7.203135,0 0,12.965651 0,25.931305 0,38.896956 -2.40104,0 -4.80209,0 -7.203135,0 z m 2.881265,-2.160937 c 0,-11.765131 0,-23.530263 0,-35.295394 -0.72031,0 -1.44064,0 -2.160953,0 0,11.765131 0,23.530263 0,35.295394 0.720313,0 1.440643,0 2.160953,0 z" />
                     <path fill="#00000" d="m 346.3,6.7 c -3.1,0.5 -4.9,4.4 -2.7,6.8 1.2,1.4 2.7,2.4 4.1,3.5 -2.4,5.3 -7.7,8.3 -11.9,12.1 -3.7,2.8 -7,6.2 -9.7,9.9 -2.2,-0.8 -0.3,-6.8 -0.6,-9.5 0.1,-3.1 0.7,-6.4 2.9,-8.7 1.3,-1.9 3,-3.5 4.5,-5.2 1.2,-3.4 -3.2,-4.9 -5.8,-4.6 -7.3,-0.5 -14.6,2 -20,6.8 -5,4.6 -10,10.1 -11.5,17 -0.9,3.5 -0.2,7.5 2.8,9.9 2.5,2.8 7.4,2.9 9.8,-0.2 1.7,-2.3 3.2,-4.8 3.8,-7.6 -0.1,-2.6 -4.4,-2.3 -4.3,0.2 1.2,2.4 -0.9,4.7 -2.7,6.2 -1.7,0.9 -4.7,0.7 -4.8,-1.7 -1,-5.8 2.1,-11.3 5.2,-16.1 4,-5.8 9.8,-11.2 17.2,-11.8 1.6,0 8.1,-1.2 6.8,1.4 -2.8,2.8 -5.6,6.1 -6,10.3 -1.6,7.7 0.1,15.7 -2.3,23.2 -1.1,3.9 2,2.6 2.5,0.2 3.3,-7.4 8.9,-13.4 15.1,-18.5 4.2,-3.9 9.5,-7.1 11.9,-12.6 1.3,-3.6 1.2,-9 -2.7,-10.9 -0.6,-0.2 -1.2,-0.3 -1.8,-0.3 z m 66,14.5 c -2,0.8 -1.8,4.9 0.8,4.4 3.4,0.4 2.9,-6.2 -0.8,-4.4 z m 0.6,7.3 c -1.3,0.5 -7.6,0.5 -5.4,2.2 4,-0.3 0.7,4.5 0.6,6.7 -0.4,2.9 -2.4,5.9 -1.2,8.8 2.7,1.7 5.6,-0.8 6.8,-3.2 1.6,-1.4 -0.5,-3 -1.2,-0.9 -0.4,0.8 -2.4,3.5 -2.6,1.8 1.1,-5 2.7,-9.9 3.9,-14.9 l -0.1,-0.5 h -0.9 z m -65.1,0.2 c -6.5,1.6 -10.5,9.5 -8.2,15.7 2.1,3.4 7.4,2.9 10.1,0.4 2,-0.2 3.6,-5.3 1,-3.4 -1.4,2 -4,4.2 -6.5,2.8 -2.2,-1.9 -1.9,-5.7 1.7,-5.3 3.1,-0.9 6.9,-2.1 8.1,-5.5 0.9,-2.7 -1.6,-5.2 -4.3,-4.8 h -1.1 -0.7 z m 13.6,0 c -2.2,0 -8.5,1.8 -2.9,2.3 0.9,1.9 -1,4.9 -1.1,7.2 -0.5,2.9 -1.4,5.7 -1.7,8.7 3.7,0.7 3.8,-2.6 4.4,-5.3 0.9,-3.3 1.6,-7 4.1,-9.5 2.4,1.6 6.8,-0.7 3.7,-3.4 -2.9,-0.5 -4.8,2.4 -6.2,4.3 0,-1.2 2.4,-5 -0.2,-4.3 z m 15.8,0 c -6.4,1.3 -9.6,9.1 -7.7,14.9 1.9,4 7.7,3.9 11,1.7 4.1,-3 6,-8.9 4.4,-13.7 -1.3,-3 -4.8,-3.2 -7.6,-3 z m 17,0 c -2.3,0 -8.8,1.9 -3,2.4 0.4,2.5 -1,5.7 -1.4,8.4 -0.7,2.4 -1.8,7.5 2.1,7.2 3.8,-0.1 6.5,-3.5 8.5,-6.3 2,-3.2 4.5,-7 3.3,-10.9 -3.7,-3 -3.6,2.6 -3.1,5.1 -0.7,3.8 -2.7,7.9 -6.2,9.8 -3.6,0.6 -1,-4.3 -0.8,-6.1 0.6,-3.2 1.6,-6.3 1.9,-9.5 -0.4,0 -0.8,0 -1.1,0 z m 30.6,0 c -6.3,1.2 -9.5,8.9 -7.8,14.7 1.5,4 7.2,4.2 10.5,2.4 4.6,-2.8 6.6,-9.3 4.8,-14.3 -1.4,-2.8 -4.8,-3 -7.5,-2.8 z m -75.4,1.7 c 2.1,1.5 0.2,4.7 -1.6,5.7 -1.1,0.4 -5.5,3.4 -4.6,0.7 0.8,-2.7 2.2,-6.2 5.3,-6.6 l 0.9,0.1 z m 30.8,0 c 2.6,1.5 1.3,5.2 0.8,7.6 -0.8,2.7 -1.9,5.9 -4.7,7.1 -5.1,0.8 -4,-5.8 -2.8,-8.8 1,-2.8 3,-6.8 6.7,-5.8 z m 47.1,-0.1 c 2.9,0.7 2,4.7 1.5,6.8 -0.7,3 -1.8,6.7 -5,8 -4.7,0.8 -4,-5.1 -3,-7.9 0.9,-3 2.7,-7.3 6.5,-6.8 z m -88.1,5.9 c -0.3,1.3 0.9,-0.6 0,0 z m -1.1,2.4 c -0.2,0.5 0.5,-0.1 0,0 z m -1.3,4.5 c -0.3,1.3 0.8,-0.2 0,0 z" />
                     <text y="41" x="201" fill="#00000" style="font-style:italic;font-weight:normal;font-size:30px;line-height:125%;font-family:Times;text-anchor:middle" xml:space="preserve">engraved with</text>
                  </g>
               </g>
            </g>
         </g>
      </g>
   </svg>
</svg>
