<?xml version="1.0" encoding="UTF-8" standalone="no"?>
<svg width="2100px" height="2970px" version="1.1" xmlns="http://www.w3.org/2000/svg" xmlns:xlink="http://www.w3.org/1999/xlink" xmlns:mei="http://www.music-encoding.org/ns/mei" overflow="visible">
   <desc>Engraved by Verovio 4.4.0-66ab39c</desc>
   <defs>
      <symbol id="E084-1juo0ew" viewBox="0 0 1000 1000" overflow="inherit">
         <path transform="scale(1,-1)" d="M20 -78c84 97 114 180 134 329h170c-13 -32 -82 -132 -99 -151l-84 -97c-33 -36 -59 -63 -80 -81h162v102l127 123v-225h57v-39h-57v-34c0 -43 19 -65 57 -65v-34h-244v36c48 0 60 26 60 70v27h-203v39z" />
      </symbol>
      <symbol id="E0A4-1juo0ew" viewBox="0 0 1000 1000" overflow="inherit">
         <path transform="scale(1,-1)" d="M0 -39c0 68 73 172 200 172c66 0 114 -37 114 -95c0 -84 -106 -171 -218 -171c-64 0 -96 30 -96 94z" />
      </symbol>
      <symbol id="E241-1juo0ew" viewBox="0 0 1000 1000" overflow="inherit">
         <path transform="scale(1,-1)" d="M179 646c-4 8 -17 30 -18 33l-4 10c0 3 2 5 5 5s7 -2 13 -7c23 -33 46 -81 66 -132c22 -57 35 -125 35 -163c0 -104 -60 -183 -122 -241c-63 -59 -57 -53 -61 -56c-38 -34 -63 -95 -71 -95h-22v190c40 7 69 11 87 16c88 27 168 95 168 200c0 30 -12 89 -30 138 c-17 47 -31 73 -46 102z" />
      </symbol>
      <symbol id="E4E6-1juo0ew" viewBox="0 0 1000 1000" overflow="inherit">
         <path transform="scale(1,-1)" d="M0 123c7 34 33 56 69 60c29 -3 43 -9 53 -29c4 -8 7 -15 10 -22c0 -21 -1 -25 -11 -35c-5 -8 -18 -14 -40 -20l12 -3l15 -1c44 0 97 26 122 56c10 11 18 26 24 42c7 1 15 2 22 3l-140 -424h-36l111 330c-10 -6 -27 -12 -53 -16l-52 -8h-10l-20 1c-1 0 -8 3 -21 6 c-37 9 -55 28 -55 60z" />
      </symbol>
      <symbol id="E222-1juo0ew" viewBox="0 0 1000 1000" overflow="inherit">
         <path transform="scale(1,-1)" d="M-163 -200l326 150v-100l-326 -150v100zM-163 150l326 150v-100l-326 -150v100zM-163 -25l326 150v-100l-326 -150v100z" />
      </symbol>
      <symbol id="E4E4-1juo0ew" viewBox="0 0 1000 1000" overflow="inherit">
         <path transform="scale(1,-1)" d="M0 10v105c0 9 1 10 10 10h280c9 0 10 -1 10 -10v-105c0 -9 -1 -10 -10 -10h-280c-9 0 -10 1 -10 10z" />
      </symbol>
      <symbol id="E069-1juo0ew" viewBox="0 0 1000 1000" overflow="inherit">
         <path transform="scale(1,-1)" d="M200 250h125v-500h-125v500zM0 250h125v-500h-125v500z" />
      </symbol>
      <symbol id="E0A9-1juo0ew" viewBox="0 0 1000 1000" overflow="inherit">
         <path transform="scale(1,-1)" d="M0 -110c0 4 1 8 5 11l119 99l-119 100c-3 3 -5 8 -5 12c0 6 5 13 12 13c3 0 6 -1 8 -2l124 -105l126 105c2 1 5 2 7 2c6 0 13 -6 13 -14c0 -4 -2 -9 -5 -11l-119 -100l119 -99c3 -3 5 -7 5 -12c0 -6 -5 -14 -13 -14c-2 0 -5 1 -7 3l-126 105l-124 -105c-2 -2 -4 -3 -7 -3 c-8 0 -13 7 -13 15z" />
      </symbol>
   </defs>
   <style type="text/css">g.page-margin{font-family:Times,serif;} g.ending, g.fing, g.reh, g.tempo{font-weight:bold;} g.dir, g.dynam, g.mNum{font-style:italic;} g.label{font-weight:normal;}</style>
   <svg class="definition-scale" color="black" viewBox="0 0 21000 29700">
      <g class="page-margin" transform="translate(500, 500)">
         <g id="m-23d89f79-0824-49be-9431-474085e26113" class="mdiv pageMilestone" />
         <g id="m-0f78cb85-8d29-4962-8b27-5b21e11b7f51" class="score pageMilestone" />
         <g id="s1i0wwmc" class="system">
            <g id="m-ae0d8b2a-74c0-4c76-adae-3da79ede47d8" class="section systemMilestone" />
            <g id="m-b2bd7f3b-3bae-4762-9835-4b404d9d6bbc" class="measure">
               <g id="m-99de125e-e893-4524-9a38-7f1ec5ab4c3b" class="staff">
                  <path d="M0 1820 L4721 1820" stroke="currentColor" stroke-width="13" />
                  <path d="M0 2000 L4721 2000" stroke="currentColor" stroke-width="13" />
                  <path d="M0 2180 L4721 2180" stroke="currentColor" stroke-width="13" />
                  <path d="M0 2360 L4721 2360" stroke="currentColor" stroke-width="13" />
                  <path d="M0 2540 L4721 2540" stroke="currentColor" stroke-width="13" />
                  <g id="c14n6lxx" class="clef">
                     <use xlink:href="#E069-1juo0ew" x="90" y="2180" height="720px" width="720px" />
                  </g>
                  <g id="krauhzn" class="keySig" />
                  <g id="mybphlh" class="meterSig">
                     <use xlink:href="#E084-1juo0ew" x="490" y="2000" height="720px" width="720px" />
                     <use xlink:href="#E084-1juo0ew" x="490" y="2360" height="720px" width="720px" />
                  </g>
                  <g class="ledgerLines above">
                     <path d="M1230 1640 L1498 1640" stroke="currentColor" stroke-width="22" />
                     <path d="M1528 1640 L1796 1640" stroke="currentColor" stroke-width="22" />
                     <path d="M1960 1640 L2264 1640" stroke="currentColor" stroke-width="22" />
                     <path d="M2410 1640 L2714 1640" stroke="currentColor" stroke-width="22" />
                     <path d="M2860 1640 L3164 1640" stroke="currentColor" stroke-width="22" />
                     <path d="M3310 1640 L3614 1640" stroke="currentColor" stroke-width="22" />
                     <path d="M3760 1640 L4064 1640" stroke="currentColor" stroke-width="22" />
                     <path d="M4210 1640 L4514 1640" stroke="currentColor" stroke-width="22" />
                  </g>
                  <g id="m-7a32c74e-eddd-4750-9c50-2f433aa7a04c" class="layer">
                     <g id="m-e245f943-4688-4113-a8f9-d8095caf3649" class="beam">
                        <polygon points="1242,1100 1766,1055 1766,1145 1242,1190" />
                        <g id="m-26a0d24e-eac2-4880-916f-97f105b1b8e7" class="chord">
                           <g id="s1xv1064" class="stem">
                              <path d="M1251 1651 L1251 1118" stroke="currentColor" stroke-width="18" />
                           </g>
                           <g id="m-4286d2c9-e439-4275-ac7c-1b5166eb3d60" class="note">
                              <g class="notehead">
                                 <use xlink:href="#E0A9-1juo0ew" x="1260" y="1640" height="720px" width="720px" />
                              </g>
                           </g>
                           <g id="m-f5fa112c-b312-4e0e-a9d6-dd794d108790" class="note">
                              <g class="notehead">
                                 <use xlink:href="#E0A9-1juo0ew" x="1070" y="1730" height="720px" width="720px" />
                              </g>
                           </g>
                        </g>
                        <g id="m-a8c8d6d9-4d34-4215-ad82-f0d7457d39fc" class="note">
                           <g class="notehead">
                              <use xlink:href="#E0A9-1juo0ew" x="1558" y="1550" height="720px" width="720px" />
                           </g>
                           <g id="s1wqqn6a" class="stem">
                              <path d="M1757 1471 L1757 1073" stroke="currentColor" stroke-width="18" />
                           </g>
                           <g id="aa3l5v9" class="accid" />
                        </g>
                     </g>
                     <g id="m-70e4159d-d420-488e-9a81-1c693df53514" class="beam">
                        <polygon points="2198,1100 2666,1100 2666,1190 2198,1190" />
                        <g id="m-9529c95f-6fc1-4207-b9a1-ffb70af39309" class="note">
                           <g class="notehead">
                              <use xlink:href="#E0A9-1juo0ew" x="2008" y="1550" height="720px" width="720px" />
                           </g>
                           <g id="s1h39tkt" class="stem">
                              <path d="M2207 1471 L2207 1118" stroke="currentColor" stroke-width="18" />
                           </g>
                           <g id="alcdxv2" class="accid" />
                        </g>
                        <g id="m-f9be5d64-40cf-4ff9-a149-cdd380dfcd86" class="note">
                           <g class="notehead">
                              <use xlink:href="#E0A9-1juo0ew" x="2458" y="1550" height="720px" width="720px" />
                           </g>
                           <g id="s1rfwkqw" class="stem">
                              <path d="M2657 1471 L2657 1118" stroke="currentColor" stroke-width="18" />
                           </g>
                           <g id="ax96ijr" class="accid" />
                        </g>
                     </g>
                     <g id="m-a8c34764-e019-47cb-842a-f9678fbd9fa2" class="beam">
                        <polygon points="3098,1100 3566,1100 3566,1190 3098,1190" />
                        <g id="m-50290207-049a-455c-856b-049a8f273256" class="note">
                           <g class="notehead">
                              <use xlink:href="#E0A9-1juo0ew" x="2908" y="1550" height="720px" width="720px" />
                           </g>
                           <g id="s1f84fd1" class="stem">
                              <path d="M3107 1471 L3107 1118" stroke="currentColor" stroke-width="18" />
                           </g>
                           <g id="ajmhbsu" class="accid" />
                        </g>
                        <g id="m-448880d9-5ea6-41f7-b71f-9a00f446b2d9" class="note">
                           <g class="notehead">
                              <use xlink:href="#E0A9-1juo0ew" x="3358" y="1550" height="720px" width="720px" />
                           </g>
                           <g id="ss89k29" class="stem">
                              <path d="M3557 1471 L3557 1118" stroke="currentColor" stroke-width="18" />
                           </g>
                           <g id="aertqzc" class="accid" />
                        </g>
                     </g>
                     <g id="m-b1b0c471-ea6a-4a5c-aa9b-e4dd98bfc6c0" class="beam">
                        <polygon points="3998,1100 4466,1100 4466,1190 3998,1190" />
                        <g id="m-ddb4ec34-0fbc-42f4-8d51-cc249f86d2b7" class="note">
                           <g class="notehead">
                              <use xlink:href="#E0A9-1juo0ew" x="3808" y="1550" height="720px" width="720px" />
                           </g>
                           <g id="s1t1cib6" class="stem">
                              <path d="M4007 1471 L4007 1118" stroke="currentColor" stroke-width="18" />
                           </g>
                           <g id="a1d5i8ky" class="accid" />
                        </g>
                        <g id="m-4a22e94d-3571-44d4-bb32-b0f68ab9eafb" class="note">
                           <g class="notehead">
                              <use xlink:href="#E0A9-1juo0ew" x="4258" y="1550" height="720px" width="720px" />
                           </g>
                           <g id="s1r7iv09" class="stem">
                              <path d="M4457 1471 L4457 1118" stroke="currentColor" stroke-width="18" />
                           </g>
                           <g id="ajpooa" class="accid" />
                        </g>
                     </g>
                  </g>
                  <g id="m-3abcf756-3106-4e63-840c-9d88641d3538" class="layer">
                     <g id="m-cfe5ac91-b793-43b0-93fc-d3756b429588" class="note">
                        <g class="notehead">
                           <use xlink:href="#E0A4-1juo0ew" x="1052" y="2630" height="720px" width="720px" />
                        </g>
                        <g id="st2ta8y" class="stem">
                           <path d="M1061 2658 L1061 3080" stroke="currentColor" stroke-width="18" />
                        </g>
                     </g>
                     <g id="m-9d77d45b-cd4b-456d-b786-1b9929d3143d" class="beam">
                        <polygon points="2008,3080 2476,3125 2476,3035 2008,2990" />
                        <g id="m-e295f210-3c4f-4dba-9828-4b50b3254d63" class="note">
                           <g class="notehead">
                              <use xlink:href="#E0A4-1juo0ew" x="2008" y="2180" height="720px" width="720px" />
                           </g>
                           <g id="suct8im" class="stem">
                              <path d="M2017 2208 L2017 3062" stroke="currentColor" stroke-width="18" />
                           </g>
                           <g id="aymlhg0" class="accid" />
                        </g>
                        <g id="m-e32240f3-22e2-4d97-9ae7-5396048b1a2b" class="note">
                           <g class="notehead">
                              <use xlink:href="#E0A4-1juo0ew" x="2458" y="2630" height="720px" width="720px" />
                           </g>
                           <g id="s1ucok7c" class="stem">
                              <path d="M2467 2658 L2467 3107" stroke="currentColor" stroke-width="18" />
                           </g>
                        </g>
                     </g>
                     <g id="m-93d3d6a1-eedc-46bb-be95-69976511adbe" class="note">
                        <g class="notehead">
                           <use xlink:href="#E0A4-1juo0ew" x="2908" y="2630" height="720px" width="720px" />
                        </g>
                        <g id="szwyn05" class="stem">
                           <path d="M2917 2658 L2917 3080" stroke="currentColor" stroke-width="18" />
                        </g>
                     </g>
                     <g id="m-aa69eb35-c1a7-4635-a5e8-825c21411ccf" class="note">
                        <g class="notehead">
                           <use xlink:href="#E0A4-1juo0ew" x="3808" y="2180" height="720px" width="720px" />
                        </g>
                        <g id="s2spwll" class="stem">
                           <path d="M3817 2208 L3817 2780" stroke="currentColor" stroke-width="18" />
                        </g>
                        <g id="a1gyygzb" class="accid" />
                     </g>
                  </g>
               </g>
               <g id="bjusakt" class="barLine">
                  <path d="M4708 1820 L4708 2540" stroke="currentColor" stroke-width="27" />
               </g>
            </g>
            <g id="m-73c3970e-c5f4-4bf4-9cad-335999be7dcc" class="measure">
               <g id="m-8ba23304-31fc-4f33-9b6c-1bce79edb01a" class="staff">
                  <path d="M4721 1820 L8514 1820" stroke="currentColor" stroke-width="13" />
                  <path d="M4721 2000 L8514 2000" stroke="currentColor" stroke-width="13" />
                  <path d="M4721 2180 L8514 2180" stroke="currentColor" stroke-width="13" />
                  <path d="M4721 2360 L8514 2360" stroke="currentColor" stroke-width="13" />
                  <path d="M4721 2540 L8514 2540" stroke="currentColor" stroke-width="13" />
                  <g class="ledgerLines above">
                     <path d="M4853 1640 L5157 1640" stroke="currentColor" stroke-width="22" />
                     <path d="M5303 1640 L5607 1640" stroke="currentColor" stroke-width="22" />
                     <path d="M5753 1640 L6057 1640" stroke="currentColor" stroke-width="22" />
                     <path d="M6203 1640 L6507 1640" stroke="currentColor" stroke-width="22" />
                     <path d="M6653 1640 L6957 1640" stroke="currentColor" stroke-width="22" />
                     <path d="M7103 1640 L7407 1640" stroke="currentColor" stroke-width="22" />
                     <path d="M7553 1640 L7857 1640" stroke="currentColor" stroke-width="22" />
                     <path d="M8003 1640 L8307 1640" stroke="currentColor" stroke-width="22" />
                  </g>
                  <g id="m-7f5176d0-cd55-4d1b-8ea3-c0921fbc0011" class="layer">
                     <g id="m-895ac3b6-3cda-4e0f-8954-3267fc9c78e9" class="beam">
                        <polygon points="5091,1100 5559,1100 5559,1190 5091,1190" />
                        <g id="m-792e3125-1c5f-4b9e-a95d-fc2e4e9b80ac" class="note">
                           <g class="notehead">
                              <use xlink:href="#E0A9-1juo0ew" x="4901" y="1550" height="720px" width="720px" />
                           </g>
                           <g id="s1g3fuve" class="stem">
                              <path d="M5100 1471 L5100 1118" stroke="currentColor" stroke-width="18" />
                           </g>
                           <g id="a15z59am" class="accid" />
                        </g>
                        <g id="m-3a41316f-158d-437e-a337-080999aaa486" class="note">
                           <g class="notehead">
                              <use xlink:href="#E0A9-1juo0ew" x="5351" y="1550" height="720px" width="720px" />
                           </g>
                           <g id="s9jycj6" class="stem">
                              <path d="M5550 1471 L5550 1118" stroke="currentColor" stroke-width="18" />
                           </g>
                           <g id="a1uxzxph" class="accid" />
                        </g>
                     </g>
                     <g id="m-cdf21a50-a808-48c8-9f4e-4d720097c1bc" class="beam">
                        <polygon points="5991,1100 6459,1100 6459,1190 5991,1190" />
                        <g id="m-9f9ae90b-efe1-430a-b42c-9a574307dbbc" class="note">
                           <g class="notehead">
                              <use xlink:href="#E0A9-1juo0ew" x="5801" y="1550" height="720px" width="720px" />
                           </g>
                           <g id="s19og6gk" class="stem">
                              <path d="M6000 1471 L6000 1118" stroke="currentColor" stroke-width="18" />
                           </g>
                           <g id="af2kr5g" class="accid" />
                        </g>
                        <g id="m-aabdea4f-4701-4d99-ad3e-28d851dd8b5b" class="note">
                           <g class="notehead">
                              <use xlink:href="#E0A9-1juo0ew" x="6251" y="1550" height="720px" width="720px" />
                           </g>
                           <g id="s1u4gyp7" class="stem">
                              <path d="M6450 1471 L6450 1118" stroke="currentColor" stroke-width="18" />
                           </g>
                           <g id="a6er1q9" class="accid" />
                        </g>
                     </g>
                     <g id="m-312c7e40-7408-4e99-9e61-c11817c93cc9" class="beam">
                        <polygon points="6891,1100 7359,1100 7359,1190 6891,1190" />
                        <g id="m-2db5e611-7f38-48ff-98fc-c1d31ef61bc3" class="note">
                           <g class="notehead">
                              <use xlink:href="#E0A9-1juo0ew" x="6701" y="1550" height="720px" width="720px" />
                           </g>
                           <g id="s1m5mu3x" class="stem">
                              <path d="M6900 1471 L6900 1118" stroke="currentColor" stroke-width="18" />
                           </g>
                           <g id="a17q7mkw" class="accid" />
                        </g>
                        <g id="m-a2594f24-3930-4683-95e8-5ffd79d81925" class="note">
                           <g class="notehead">
                              <use xlink:href="#E0A9-1juo0ew" x="7151" y="1550" height="720px" width="720px" />
                           </g>
                           <g id="s1xi784s" class="stem">
                              <path d="M7350 1471 L7350 1118" stroke="currentColor" stroke-width="18" />
                           </g>
                           <g id="a912vyc" class="accid" />
                        </g>
                     </g>
                     <g id="m-7f16cb62-3217-434c-8218-738357d23959" class="beam">
                        <polygon points="7791,1100 8259,1100 8259,1190 7791,1190" />
                        <g id="m-22c1e3d1-2bd7-4a1c-a120-e0f48fbb094a" class="note">
                           <g class="notehead">
                              <use xlink:href="#E0A9-1juo0ew" x="7601" y="1550" height="720px" width="720px" />
                           </g>
                           <g id="s1aijmbj" class="stem">
                              <path d="M7800 1471 L7800 1118" stroke="currentColor" stroke-width="18" />
                           </g>
                           <g id="a1hk5ln3" class="accid" />
                        </g>
                        <g id="m-2c96a61b-a557-449b-b53e-445efd75f6ff" class="note">
                           <g class="notehead">
                              <use xlink:href="#E0A9-1juo0ew" x="8051" y="1550" height="720px" width="720px" />
                           </g>
                           <g id="suy0ohq" class="stem">
                              <path d="M8250 1471 L8250 1118" stroke="currentColor" stroke-width="18" />
                           </g>
                           <g id="aympcwd" class="accid" />
                        </g>
                     </g>
                  </g>
                  <g id="m-7140beb7-913a-4785-9c21-c2c71d4f4fc5" class="layer">
                     <g id="m-06e53c31-a1e8-4bfb-bc08-bf4d1d27f7d9" class="rest">
                        <use xlink:href="#E4E6-1juo0ew" x="4901" y="2540" height="720px" width="720px" />
                     </g>
                     <g id="m-9b66205d-34f2-4b6a-85d4-b12f531785a0" class="note">
                        <g class="notehead">
                           <use xlink:href="#E0A4-1juo0ew" x="5351" y="2630" height="720px" width="720px" />
                        </g>
                        <g id="s16fxucp" class="stem">
                           <path d="M5360 2658 L5360 3170" stroke="currentColor" stroke-width="18" />
                           <g id="f1adjlb6" class="flag">
                              <use xlink:href="#E241-1juo0ew" x="5351" y="3170" height="720px" width="720px" />
                           </g>
                        </g>
                     </g>
                     <g id="m-a509dea3-136c-4114-87c9-1fc7f3db4a01" class="beam">
                        <polygon points="5801,3080 6269,3125 6269,3035 5801,2990" />
                        <g id="m-4876b0ae-19e0-491f-9639-2150c7f68243" class="note">
                           <g class="notehead">
                              <use xlink:href="#E0A4-1juo0ew" x="5801" y="2180" height="720px" width="720px" />
                           </g>
                           <g id="slxmzn5" class="stem">
                              <path d="M5810 2208 L5810 3062" stroke="currentColor" stroke-width="18" />
                           </g>
                           <g id="adotgq8" class="accid" />
                        </g>
                        <g id="m-f16dd0b9-3c53-4a2e-a180-880b71ed0183" class="note">
                           <g class="notehead">
                              <use xlink:href="#E0A4-1juo0ew" x="6251" y="2630" height="720px" width="720px" />
                           </g>
                           <g id="s1xzxgpf" class="stem">
                              <path d="M6260 2658 L6260 3107" stroke="currentColor" stroke-width="18" />
                           </g>
                        </g>
                     </g>
                     <g id="m-c91255c9-74e7-4caf-9948-016e25910d9e" class="note">
                        <g class="notehead">
                           <use xlink:href="#E0A4-1juo0ew" x="6701" y="2630" height="720px" width="720px" />
                        </g>
                        <g id="sddzbsb" class="stem">
                           <path d="M6710 2658 L6710 3080" stroke="currentColor" stroke-width="18" />
                        </g>
                     </g>
                     <g id="m-53ae6318-a762-41fd-a655-645169ea0219" class="note">
                        <g class="notehead">
                           <use xlink:href="#E0A4-1juo0ew" x="7601" y="2180" height="720px" width="720px" />
                        </g>
                        <g id="syx7kax" class="stem">
                           <path d="M7610 2208 L7610 2780" stroke="currentColor" stroke-width="18" />
                        </g>
                        <g id="a10supil" class="accid" />
                     </g>
                  </g>
               </g>
               <g id="b1ynx4ri" class="barLine">
                  <path d="M8501 1820 L8501 2540" stroke="currentColor" stroke-width="27" />
               </g>
            </g>
            <g id="m-f8390668-fcb2-48b0-8b66-e4564e2db058" class="measure">
               <g id="m-dea4b632-d0d3-492e-b0fa-7ec68f00bcfb" class="staff">
                  <path d="M8514 1820 L12307 1820" stroke="currentColor" stroke-width="13" />
                  <path d="M8514 2000 L12307 2000" stroke="currentColor" stroke-width="13" />
                  <path d="M8514 2180 L12307 2180" stroke="currentColor" stroke-width="13" />
                  <path d="M8514 2360 L12307 2360" stroke="currentColor" stroke-width="13" />
                  <path d="M8514 2540 L12307 2540" stroke="currentColor" stroke-width="13" />
                  <g class="ledgerLines above">
                     <path d="M8646 1640 L8950 1640" stroke="currentColor" stroke-width="22" />
                     <path d="M9096 1640 L9400 1640" stroke="currentColor" stroke-width="22" />
                     <path d="M9546 1640 L9850 1640" stroke="currentColor" stroke-width="22" />
                     <path d="M9996 1640 L10300 1640" stroke="currentColor" stroke-width="22" />
                     <path d="M10446 1640 L10750 1640" stroke="currentColor" stroke-width="22" />
                     <path d="M10896 1640 L11200 1640" stroke="currentColor" stroke-width="22" />
                     <path d="M11346 1640 L11650 1640" stroke="currentColor" stroke-width="22" />
                     <path d="M11796 1640 L12100 1640" stroke="currentColor" stroke-width="22" />
                  </g>
                  <g id="m-4e276a57-9815-402b-bd7c-130d65416884" class="layer">
                     <g id="m-4a1a781d-6383-4cbe-b90a-436534e75ef6" class="beam">
                        <polygon points="8884,1100 9352,1100 9352,1190 8884,1190" />
                        <g id="m-b35fffdc-4337-45b7-b19d-a5da66473590" class="note">
                           <g class="notehead">
                              <use xlink:href="#E0A9-1juo0ew" x="8694" y="1550" height="720px" width="720px" />
                           </g>
                           <g id="s1t22dpm" class="stem">
                              <path d="M8893 1471 L8893 1118" stroke="currentColor" stroke-width="18" />
                           </g>
                           <g id="arjh5m" class="accid" />
                        </g>
                        <g id="m-3451e338-a226-48c8-88d5-0bc1053b12ca" class="note">
                           <g class="notehead">
                              <use xlink:href="#E0A9-1juo0ew" x="9144" y="1550" height="720px" width="720px" />
                           </g>
                           <g id="sixty7c" class="stem">
                              <path d="M9343 1471 L9343 1118" stroke="currentColor" stroke-width="18" />
                           </g>
                           <g id="a6gy5rj" class="accid" />
                        </g>
                     </g>
                     <g id="m-47d2dbe8-8486-45ee-a476-4a52eeff40ed" class="beam">
                        <polygon points="9784,1100 10252,1100 10252,1190 9784,1190" />
                        <g id="m-5680c754-e01f-4243-8926-d0c553809fb2" class="note">
                           <g class="notehead">
                              <use xlink:href="#E0A9-1juo0ew" x="9594" y="1550" height="720px" width="720px" />
                           </g>
                           <g id="s1xri9te" class="stem">
                              <path d="M9793 1471 L9793 1118" stroke="currentColor" stroke-width="18" />
                           </g>
                           <g id="aehcr1h" class="accid" />
                        </g>
                        <g id="m-68e0a092-1af7-4c50-a1ac-e6030d888263" class="note">
                           <g class="notehead">
                              <use xlink:href="#E0A9-1juo0ew" x="10044" y="1550" height="720px" width="720px" />
                           </g>
                           <g id="s1n7j2ez" class="stem">
                              <path d="M10243 1471 L10243 1118" stroke="currentColor" stroke-width="18" />
                           </g>
                           <g id="a2yubh7" class="accid" />
                        </g>
                     </g>
                     <g id="m-cc2b3d4b-ba46-4523-aafe-a90a105fc289" class="beam">
                        <polygon points="10684,1100 11152,1100 11152,1190 10684,1190" />
                        <g id="m-7a6da926-d2db-48fa-a91e-3a6ef25741c0" class="note">
                           <g class="notehead">
                              <use xlink:href="#E0A9-1juo0ew" x="10494" y="1550" height="720px" width="720px" />
                           </g>
                           <g id="s12p6szm" class="stem">
                              <path d="M10693 1471 L10693 1118" stroke="currentColor" stroke-width="18" />
                           </g>
                           <g id="aajpcav" class="accid" />
                        </g>
                        <g id="m-273d9380-58e6-4e49-bcb9-e0914ecbf3c0" class="note">
                           <g class="notehead">
                              <use xlink:href="#E0A9-1juo0ew" x="10944" y="1550" height="720px" width="720px" />
                           </g>
                           <g id="scyu0md" class="stem">
                              <path d="M11143 1471 L11143 1118" stroke="currentColor" stroke-width="18" />
                           </g>
                           <g id="a1n2bfj8" class="accid" />
                        </g>
                     </g>
                     <g id="m-4c9b6a75-86dc-4023-b878-0bafaef8dd3f" class="beam">
                        <polygon points="11584,1100 12052,1100 12052,1190 11584,1190" />
                        <g id="m-77024105-fbf3-45d4-b0cb-6367070c6923" class="note">
                           <g class="notehead">
                              <use xlink:href="#E0A9-1juo0ew" x="11394" y="1550" height="720px" width="720px" />
                           </g>
                           <g id="s1pxx8a8" class="stem">
                              <path d="M11593 1471 L11593 1118" stroke="currentColor" stroke-width="18" />
                           </g>
                           <g id="a1wgbk5j" class="accid" />
                        </g>
                        <g id="m-4783bdc1-0e6c-4166-8cac-bf9d1b4033f4" class="note">
                           <g class="notehead">
                              <use xlink:href="#E0A9-1juo0ew" x="11844" y="1550" height="720px" width="720px" />
                           </g>
                           <g id="s1xmgdrf" class="stem">
                              <path d="M12043 1471 L12043 1118" stroke="currentColor" stroke-width="18" />
                           </g>
                           <g id="a1riuqw6" class="accid" />
                        </g>
                     </g>
                  </g>
                  <g id="m-92ac0958-ab4e-4fd0-9938-a83beac43629" class="layer">
                     <g id="m-02a4a985-6127-40b4-a591-19d5db5fd16a" class="note">
                        <g class="notehead">
                           <use xlink:href="#E0A4-1juo0ew" x="8694" y="2630" height="720px" width="720px" />
                        </g>
                        <g id="s1a4enib" class="stem">
                           <path d="M8703 2658 L8703 3080" stroke="currentColor" stroke-width="18" />
                        </g>
                     </g>
                     <g id="m-f03e61ec-9d5d-46e1-be19-44de43458e32" class="beam">
                        <polygon points="9594,3080 10062,3125 10062,3035 9594,2990" />
                        <g id="m-540c4a14-8e66-490a-b02a-f54c39aca8c8" class="note">
                           <g class="notehead">
                              <use xlink:href="#E0A4-1juo0ew" x="9594" y="2180" height="720px" width="720px" />
                           </g>
                           <g id="s1d83xry" class="stem">
                              <path d="M9603 2208 L9603 3062" stroke="currentColor" stroke-width="18" />
                           </g>
                           <g id="aizwivy" class="accid" />
                        </g>
                        <g id="m-d3396adb-c585-432c-ba94-a4f5ab47a542" class="note">
                           <g class="notehead">
                              <use xlink:href="#E0A4-1juo0ew" x="10044" y="2630" height="720px" width="720px" />
                           </g>
                           <g id="s1pzyiw2" class="stem">
                              <path d="M10053 2658 L10053 3107" stroke="currentColor" stroke-width="18" />
                           </g>
                        </g>
                     </g>
                     <g id="m-93483632-8f1f-4b27-ac0e-611c4a89ef5d" class="note">
                        <g class="notehead">
                           <use xlink:href="#E0A4-1juo0ew" x="10494" y="2630" height="720px" width="720px" />
                        </g>
                        <g id="s123xmwx" class="stem">
                           <path d="M10503 2658 L10503 3080" stroke="currentColor" stroke-width="18" />
                        </g>
                     </g>
                     <g id="m-87dd1e85-d0ed-41f0-affe-950091be35f0" class="note">
                        <g class="notehead">
                           <use xlink:href="#E0A4-1juo0ew" x="11394" y="2180" height="720px" width="720px" />
                        </g>
                        <g id="s6uc1k3" class="stem">
                           <path d="M11403 2208 L11403 2780" stroke="currentColor" stroke-width="18" />
                        </g>
                        <g id="a12f0fci" class="accid" />
                     </g>
                  </g>
               </g>
               <g id="buqfwzx" class="barLine">
                  <path d="M12294 1820 L12294 2540" stroke="currentColor" stroke-width="27" />
               </g>
            </g>
            <g id="m-fb971bbb-b0c0-4062-90a8-911747fb9246" class="measure">
               <g id="m-ce68f3ec-1773-419a-b007-f891ae2e7f70" class="staff">
                  <path d="M12307 1820 L15921 1820" stroke="currentColor" stroke-width="13" />
                  <path d="M12307 2000 L15921 2000" stroke="currentColor" stroke-width="13" />
                  <path d="M12307 2180 L15921 2180" stroke="currentColor" stroke-width="13" />
                  <path d="M12307 2360 L15921 2360" stroke="currentColor" stroke-width="13" />
                  <path d="M12307 2540 L15921 2540" stroke="currentColor" stroke-width="13" />
                  <g class="ledgerLines above">
                     <path d="M12439 1640 L12743 1640" stroke="currentColor" stroke-width="22" />
                     <path d="M12889 1640 L13193 1640" stroke="currentColor" stroke-width="22" />
                     <path d="M13339 1640 L13643 1640" stroke="currentColor" stroke-width="22" />
                     <path d="M13789 1640 L14093 1640" stroke="currentColor" stroke-width="22" />
                  </g>
                  <g id="m-77e40071-497f-4679-9996-bb93dfc2e354" class="layer">
                     <g id="m-2d61a855-ee0b-4acd-beb0-09536f673b3e" class="beam">
                        <polygon points="12677,1100 13145,1100 13145,1190 12677,1190" />
                        <g id="m-18f93109-7cb1-4a52-9c72-2bd8fcf9bd06" class="note">
                           <g class="notehead">
                              <use xlink:href="#E0A9-1juo0ew" x="12487" y="1550" height="720px" width="720px" />
                           </g>
                           <g id="s1r25gew" class="stem">
                              <path d="M12686 1471 L12686 1118" stroke="currentColor" stroke-width="18" />
                           </g>
                           <g id="ajr405n" class="accid" />
                        </g>
                        <g id="m-079167ee-899b-4bfe-b5e2-b8cabcee0f2a" class="note">
                           <g class="notehead">
                              <use xlink:href="#E0A9-1juo0ew" x="12937" y="1550" height="720px" width="720px" />
                           </g>
                           <g id="sunbs9s" class="stem">
                              <path d="M13136 1471 L13136 1118" stroke="currentColor" stroke-width="18" />
                           </g>
                           <g id="arwyqex" class="accid" />
                        </g>
                     </g>
                     <g id="m-61345ada-a7bb-4799-9354-c22f79341a7a" class="beam">
                        <polygon points="13577,1100 14045,1100 14045,1190 13577,1190" />
                        <g id="m-37d6e07c-fa3d-4337-9319-8f6a11f4535d" class="note">
                           <g class="notehead">
                              <use xlink:href="#E0A9-1juo0ew" x="13387" y="1550" height="720px" width="720px" />
                           </g>
                           <g id="sfpd79a" class="stem">
                              <path d="M13586 1471 L13586 1118" stroke="currentColor" stroke-width="18" />
                           </g>
                           <g id="an3z2nv" class="accid" />
                        </g>
                        <g id="m-a8489241-bc8c-47a8-b801-4de01f8dbef7" class="note">
                           <g class="notehead">
                              <use xlink:href="#E0A9-1juo0ew" x="13837" y="1550" height="720px" width="720px" />
                           </g>
                           <g id="sos0p0t" class="stem">
                              <path d="M14036 1471 L14036 1118" stroke="currentColor" stroke-width="18" />
                           </g>
                           <g id="aoijtf0" class="accid" />
                        </g>
                     </g>
                     <g id="m-0221f686-4bef-4f0b-8f6c-0dc6b442ccdd" class="rest">
                        <use xlink:href="#E4E4-1juo0ew" x="14287" y="1640" height="720px" width="720px" />
                        <g class="ledgerLines">
                           <path d="M14239 1640 L14551 1640" stroke="currentColor" stroke-width="22" />
                        </g>
                     </g>
                  </g>
                  <g id="m-ed2bab86-4d8b-4f58-9703-ffffb88f907e" class="layer">
                     <g id="m-5dfdbb83-ee5f-4c70-91d1-8cc45c08a247" class="rest">
                        <use xlink:href="#E4E6-1juo0ew" x="12487" y="2360" height="720px" width="720px" />
                     </g>
                     <g id="m-24f27b4c-d6e2-4ca3-8e8e-5fecc3b748d3" class="note">
                        <g class="notehead">
                           <use xlink:href="#E0A4-1juo0ew" x="12937" y="2180" height="720px" width="720px" />
                        </g>
                        <g id="s6j8n6c" class="stem">
                           <path d="M12946 2208 L12946 2780" stroke="currentColor" stroke-width="18" />
                           <g id="fy7rrwv" class="flag">
                              <use xlink:href="#E241-1juo0ew" x="12937" y="2780" height="720px" width="720px" />
                           </g>
                        </g>
                        <g id="a182epqb" class="accid" />
                     </g>
                     <g id="m-c16a3710-efff-4dd6-8d14-cbe4646e5a64" class="beam">
                        <polygon points="13387,2765 13855,2765 13855,2675 13387,2675" />
                        <g id="m-17f56d6d-7202-48f3-a174-c7b0a7781e39" class="note">
                           <g class="notehead">
                              <use xlink:href="#E0A4-1juo0ew" x="13387" y="2180" height="720px" width="720px" />
                           </g>
                           <g id="s1ghd43r" class="stem">
                              <path d="M13396 2208 L13396 2747" stroke="currentColor" stroke-width="18" />
                           </g>
                           <g id="a9uiij2" class="accid" />
                        </g>
                        <g id="m-6ca8f1bc-6700-4600-8d7e-20ad8db6a34e" class="note">
                           <g class="notehead">
                              <use xlink:href="#E0A4-1juo0ew" x="13837" y="2180" height="720px" width="720px" />
                           </g>
                           <g id="s1o7jyzd" class="stem">
                              <path d="M13846 2208 L13846 2747" stroke="currentColor" stroke-width="18" />
                           </g>
                           <g id="a6nkoiw" class="accid" />
                        </g>
                     </g>
                     <g id="m-a4349cb2-d774-4d7c-a8f5-70563da744ae" class="note">
                        <g class="notehead">
                           <use xlink:href="#E0A4-1juo0ew" x="14287" y="2180" height="720px" width="720px" />
                        </g>
                        <g id="s1fmlm3b" class="stem">
                           <path d="M14296 2208 L14296 2915" stroke="currentColor" stroke-width="18" />
                           <use xlink:href="#E222-1juo0ew" x="14296" y="2666" height="720px" width="720px" />
                        </g>
                        <g id="a9fk3vz" class="accid" />
                     </g>
                     <g id="m-d403a3b1-0d5a-4653-82f0-e0214eee0b0b" class="beam">
                        <polygon points="14977,3035 15476,3035 15476,2945 14977,2945" />
                        <g id="m-28a69bc3-21f7-48a4-bc3a-87543054739d" class="note">
                           <g class="notehead">
                              <use xlink:href="#E0A4-1juo0ew" x="14977" y="2180" height="720px" width="720px" />
                           </g>
                           <g id="sz9leve" class="stem">
                              <path d="M14986 2208 L14986 3017" stroke="currentColor" stroke-width="18" />
                              <use xlink:href="#E222-1juo0ew" x="14986" y="2666" height="720px" width="720px" />
                           </g>
                           <g id="ad9z5um" class="accid" />
                        </g>
                        <g id="m-4ca3ebcd-ac73-4424-992a-37cfb72256d2" class="note">
                           <g class="notehead">
                              <use xlink:href="#E0A4-1juo0ew" x="15458" y="2180" height="720px" width="720px" />
                           </g>
                           <g id="s5tdpsu" class="stem">
                              <path d="M15467 2208 L15467 3017" stroke="currentColor" stroke-width="18" />
                              <use xlink:href="#E222-1juo0ew" x="15467" y="2666" height="720px" width="720px" />
                           </g>
                           <g id="a8ojvmx" class="accid" />
                        </g>
                     </g>
                  </g>
               </g>
               <g id="b1mrkp3x" class="barLine">
                  <path d="M15908 1820 L15908 2540" stroke="currentColor" stroke-width="27" />
               </g>
            </g>
            <g id="s17inght" class="systemMilestoneEnd m-ae0d8b2a-74c0-4c76-adae-3da79ede47d8" />
         </g>
         <g id="p16p550t" class="pageMilestoneEnd m-0f78cb85-8d29-4962-8b27-5b21e11b7f51" />
         <g id="p3w21w4" class="pageMilestoneEnd m-23d89f79-0824-49be-9431-474085e26113" />
         <g id="p1bygj7s" class="pgHead autogenerated">
            <text font-size="0px">
               <tspan id="r993300" class="rend" x="10000" y="415" text-anchor="middle">
                  <title class="labelAttr">title</title>
                  <tspan id="rehbo40" class="rend">
                     <tspan id="t6gn81o" class="text">
                        <tspan font-size="607px">47_rock_110_beat_4-4</tspan>
                     </tspan>
                  </tspan>
                  <tspan id="ldy3eyd" class="lb" />
                  <tspan id="ryw08bb" class="rend">
                     <tspan id="t3w66e7" class="text" x="10000" y="805">
                        <tspan font-size="324px">47_rock_110_beat_4-4</tspan>
                     </tspan>
                  </tspan>
               </tspan>
            </text>
         </g>
         <g id="p1r79blz" class="pgFoot autogenerated">
            <g id="f19ws585" class="fig">
               <g class="svg" transform="translate(7750, 28099) scale(10.000000, 10.000000)">
                  <g>
                     <path fill="#00000" d="M 17.11278,49.26451 V 10.367554 h 12.696511 c 3.288815,7.336676 6.71267,14.610456 10.127281,21.888976 3.419998,-7.484684 6.255515,-14.204887 9.58887,-21.909915 2.436207,0.103726 4.316952,0.08453 6.484294,-0.05808 V 49.264423 H 50.274275 C 50.145222,38.35639 50.016136,27.448368 49.887066,16.540329 45.003488,27.315459 39.967448,38.433564 35.083854,49.208695 34.678996,49.343717 34.426583,49.135619 34.021726,49.270644 29.46588,39.330716 24.910049,29.390805 20.354201,19.450876 20.224341,29.388756 20.09461,39.326619 19.964815,49.264497 H 17.11278 Z M 36.754144,39.324695 C 32.721221,30.512695 28.6883,21.700679 24.655394,12.888662 22.530527,12.750737 22.656775,12.71031 20.714356,12.813974 v 0.966497 c 4.612938,9.99784 9.609439,20.748709 13.87298,30.081745 0.722248,-1.512523 1.444528,-3.025014 2.166808,-4.537521 z m 25.738417,9.939815 c 0,-12.965651 0,-25.931305 0,-38.896956 10.084388,0 20.168791,0 30.253178,0 0,0.960416 0,1.920849 0,2.881265 -6.482825,0 -12.965652,0 -19.448478,0 0,4.802097 0,9.604178 0,14.406277 5.52241,0 11.044819,0 16.567229,0 0,0.960415 0,1.920832 0,2.881248 -5.52241,0 -11.044819,0 -16.567229,0 0,5.282306 0,10.564611 0,15.846917 6.963035,0 13.926068,0 20.889103,0 0,0.960416 0,1.920832 0,2.881249 -10.564597,0 -21.129207,0 -31.693803,0 z m 4.321874,-2.160937 c 0,-11.765131 0,-23.530263 0,-35.295394 -0.720312,0 -1.440625,0 -2.160937,0 0,11.765131 0,23.530263 0,35.295394 0.720312,0 1.440625,0 2.160937,0 z m 32.41413,2.160937 c 0,-12.965651 0,-25.931305 0,-38.896956 2.401045,0 4.802095,0 7.203135,0 0,12.965651 0,25.931305 0,38.896956 -2.40104,0 -4.80209,0 -7.203135,0 z m 2.881265,-2.160937 c 0,-11.765131 0,-23.530263 0,-35.295394 -0.72031,0 -1.44064,0 -2.160953,0 0,11.765131 0,23.530263 0,35.295394 0.720313,0 1.440643,0 2.160953,0 z" />
                     <path fill="#00000" d="m 346.3,6.7 c -3.1,0.5 -4.9,4.4 -2.7,6.8 1.2,1.4 2.7,2.4 4.1,3.5 -2.4,5.3 -7.7,8.3 -11.9,12.1 -3.7,2.8 -7,6.2 -9.7,9.9 -2.2,-0.8 -0.3,-6.8 -0.6,-9.5 0.1,-3.1 0.7,-6.4 2.9,-8.7 1.3,-1.9 3,-3.5 4.5,-5.2 1.2,-3.4 -3.2,-4.9 -5.8,-4.6 -7.3,-0.5 -14.6,2 -20,6.8 -5,4.6 -10,10.1 -11.5,17 -0.9,3.5 -0.2,7.5 2.8,9.9 2.5,2.8 7.4,2.9 9.8,-0.2 1.7,-2.3 3.2,-4.8 3.8,-7.6 -0.1,-2.6 -4.4,-2.3 -4.3,0.2 1.2,2.4 -0.9,4.7 -2.7,6.2 -1.7,0.9 -4.7,0.7 -4.8,-1.7 -1,-5.8 2.1,-11.3 5.2,-16.1 4,-5.8 9.8,-11.2 17.2,-11.8 1.6,0 8.1,-1.2 6.8,1.4 -2.8,2.8 -5.6,6.1 -6,10.3 -1.6,7.7 0.1,15.7 -2.3,23.2 -1.1,3.9 2,2.6 2.5,0.2 3.3,-7.4 8.9,-13.4 15.1,-18.5 4.2,-3.9 9.5,-7.1 11.9,-12.6 1.3,-3.6 1.2,-9 -2.7,-10.9 -0.6,-0.2 -1.2,-0.3 -1.8,-0.3 z m 66,14.5 c -2,0.8 -1.8,4.9 0.8,4.4 3.4,0.4 2.9,-6.2 -0.8,-4.4 z m 0.6,7.3 c -1.3,0.5 -7.6,0.5 -5.4,2.2 4,-0.3 0.7,4.5 0.6,6.7 -0.4,2.9 -2.4,5.9 -1.2,8.8 2.7,1.7 5.6,-0.8 6.8,-3.2 1.6,-1.4 -0.5,-3 -1.2,-0.9 -0.4,0.8 -2.4,3.5 -2.6,1.8 1.1,-5 2.7,-9.9 3.9,-14.9 l -0.1,-0.5 h -0.9 z m -65.1,0.2 c -6.5,1.6 -10.5,9.5 -8.2,15.7 2.1,3.4 7.4,2.9 10.1,0.4 2,-0.2 3.6,-5.3 1,-3.4 -1.4,2 -4,4.2 -6.5,2.8 -2.2,-1.9 -1.9,-5.7 1.7,-5.3 3.1,-0.9 6.9,-2.1 8.1,-5.5 0.9,-2.7 -1.6,-5.2 -4.3,-4.8 h -1.1 -0.7 z m 13.6,0 c -2.2,0 -8.5,1.8 -2.9,2.3 0.9,1.9 -1,4.9 -1.1,7.2 -0.5,2.9 -1.4,5.7 -1.7,8.7 3.7,0.7 3.8,-2.6 4.4,-5.3 0.9,-3.3 1.6,-7 4.1,-9.5 2.4,1.6 6.8,-0.7 3.7,-3.4 -2.9,-0.5 -4.8,2.4 -6.2,4.3 0,-1.2 2.4,-5 -0.2,-4.3 z m 15.8,0 c -6.4,1.3 -9.6,9.1 -7.7,14.9 1.9,4 7.7,3.9 11,1.7 4.1,-3 6,-8.9 4.4,-13.7 -1.3,-3 -4.8,-3.2 -7.6,-3 z m 17,0 c -2.3,0 -8.8,1.9 -3,2.4 0.4,2.5 -1,5.7 -1.4,8.4 -0.7,2.4 -1.8,7.5 2.1,7.2 3.8,-0.1 6.5,-3.5 8.5,-6.3 2,-3.2 4.5,-7 3.3,-10.9 -3.7,-3 -3.6,2.6 -3.1,5.1 -0.7,3.8 -2.7,7.9 -6.2,9.8 -3.6,0.6 -1,-4.3 -0.8,-6.1 0.6,-3.2 1.6,-6.3 1.9,-9.5 -0.4,0 -0.8,0 -1.1,0 z m 30.6,0 c -6.3,1.2 -9.5,8.9 -7.8,14.7 1.5,4 7.2,4.2 10.5,2.4 4.6,-2.8 6.6,-9.3 4.8,-14.3 -1.4,-2.8 -4.8,-3 -7.5,-2.8 z m -75.4,1.7 c 2.1,1.5 0.2,4.7 -1.6,5.7 -1.1,0.4 -5.5,3.4 -4.6,0.7 0.8,-2.7 2.2,-6.2 5.3,-6.6 l 0.9,0.1 z m 30.8,0 c 2.6,1.5 1.3,5.2 0.8,7.6 -0.8,2.7 -1.9,5.9 -4.7,7.1 -5.1,0.8 -4,-5.8 -2.8,-8.8 1,-2.8 3,-6.8 6.7,-5.8 z m 47.1,-0.1 c 2.9,0.7 2,4.7 1.5,6.8 -0.7,3 -1.8,6.7 -5,8 -4.7,0.8 -4,-5.1 -3,-7.9 0.9,-3 2.7,-7.3 6.5,-6.8 z m -88.1,5.9 c -0.3,1.3 0.9,-0.6 0,0 z m -1.1,2.4 c -0.2,0.5 0.5,-0.1 0,0 z m -1.3,4.5 c -0.3,1.3 0.8,-0.2 0,0 z" />
                     <text y="41" x="201" fill="#00000" style="font-style:italic;font-weight:normal;font-size:30px;line-height:125%;font-family:Times;text-anchor:middle" xml:space="preserve">engraved with</text>
                  </g>
               </g>
            </g>
         </g>
      </g>
   </svg>
</svg>
