<?xml version="1.0" encoding="UTF-8" standalone="no"?>
<svg width="2100px" height="2970px" version="1.1" xmlns="http://www.w3.org/2000/svg" xmlns:xlink="http://www.w3.org/1999/xlink" xmlns:mei="http://www.music-encoding.org/ns/mei" overflow="visible">
   <desc>Engraved by Verovio 4.4.0-66ab39c</desc>
   <defs>
      <symbol id="E222-1ge0fyy" viewBox="0 0 1000 1000" overflow="inherit">
         <path transform="scale(1,-1)" d="M-163 -200l326 150v-100l-326 -150v100zM-163 150l326 150v-100l-326 -150v100zM-163 -25l326 150v-100l-326 -150v100z" />
      </symbol>
      <symbol id="E084-1ge0fyy" viewBox="0 0 1000 1000" overflow="inherit">
         <path transform="scale(1,-1)" d="M20 -78c84 97 114 180 134 329h170c-13 -32 -82 -132 -99 -151l-84 -97c-33 -36 -59 -63 -80 -81h162v102l127 123v-225h57v-39h-57v-34c0 -43 19 -65 57 -65v-34h-244v36c48 0 60 26 60 70v27h-203v39z" />
      </symbol>
      <symbol id="E0A2-1ge0fyy" viewBox="0 0 1000 1000" overflow="inherit">
         <path transform="scale(1,-1)" d="M198 133c102 0 207 -45 207 -133c0 -92 -118 -133 -227 -133c-101 0 -178 46 -178 133c0 88 93 133 198 133zM293 -21c0 14 -3 29 -8 44c-7 20 -18 38 -33 54c-20 21 -43 31 -68 31l-20 -2c-15 -5 -27 -14 -36 -28c-4 -9 -6 -17 -8 -24s-3 -16 -3 -27c0 -15 3 -34 9 -57 s18 -41 34 -55c15 -15 36 -23 62 -23c4 0 10 1 18 2c19 5 32 15 40 30s13 34 13 55z" />
      </symbol>
      <symbol id="E0A4-1ge0fyy" viewBox="0 0 1000 1000" overflow="inherit">
         <path transform="scale(1,-1)" d="M0 -39c0 68 73 172 200 172c66 0 114 -37 114 -95c0 -84 -106 -171 -218 -171c-64 0 -96 30 -96 94z" />
      </symbol>
      <symbol id="E0B5-1ge0fyy" viewBox="0 0 1000 1000" overflow="inherit">
         <path transform="scale(1,-1)" d="M293 -21c0 14 -3 29 -8 44c-3 8 -6 15 -10 22l-55 -45l68 -55c3 11 5 22 5 34zM198 133c102 0 207 -45 207 -133c0 -92 -98 -133 -207 -133c-101 0 -198 46 -198 133c0 88 93 133 198 133zM141 -64c5 -8 12 -15 19 -21c15 -15 36 -23 62 -23c4 0 10 1 18 2 c17 4 29 13 37 25l-79 64zM260 68c-2 3 -5 6 -8 9c-20 21 -43 31 -68 31l-20 -2c-15 -5 -27 -14 -36 -28c0 -1 -1 -1 -1 -2l71 -58zM119 48c-1 -6 -2 -13 -2 -21c0 -15 3 -34 9 -57l3 -9l49 39z" />
      </symbol>
      <symbol id="E4E3-1ge0fyy" viewBox="0 0 1000 1000" overflow="inherit">
         <path transform="scale(1,-1)" d="M0 -115v105c0 9 1 10 10 10h280c9 0 10 -1 10 -10v-105c0 -9 -1 -10 -10 -10h-280c-9 0 -10 1 -10 10z" />
      </symbol>
      <symbol id="E069-1ge0fyy" viewBox="0 0 1000 1000" overflow="inherit">
         <path transform="scale(1,-1)" d="M200 250h125v-500h-125v500zM0 250h125v-500h-125v500z" />
      </symbol>
   </defs>
   <style type="text/css">g.page-margin{font-family:Times,serif;} g.ending, g.fing, g.reh, g.tempo{font-weight:bold;} g.dir, g.dynam, g.mNum{font-style:italic;} g.label{font-weight:normal;}</style>
   <svg class="definition-scale" color="black" viewBox="0 0 21000 29700">
      <g class="page-margin" transform="translate(500, 500)">
         <g id="m-6c68a1ef-2e2f-4a8d-967b-7366e7123541" class="mdiv pageMilestone" />
         <g id="m-3ba7ab86-37f6-4f96-8307-37861cbf9657" class="score pageMilestone" />
         <g id="s3jpq8b" class="system">
            <g id="m-8d34d61d-d86a-4534-8c09-43e23a93f1b4" class="section systemMilestone" />
            <g id="m-9aff6d4e-5605-461b-a228-b513b0ad0297" class="measure">
               <g id="m-f9a12896-2133-4efa-94d2-c729cf6078b9" class="staff">
                  <path d="M0 1598 L4927 1598" stroke="currentColor" stroke-width="13" />
                  <path d="M0 1778 L4927 1778" stroke="currentColor" stroke-width="13" />
                  <path d="M0 1958 L4927 1958" stroke="currentColor" stroke-width="13" />
                  <path d="M0 2138 L4927 2138" stroke="currentColor" stroke-width="13" />
                  <path d="M0 2318 L4927 2318" stroke="currentColor" stroke-width="13" />
                  <g id="c1p2t653" class="clef">
                     <use xlink:href="#E069-1ge0fyy" x="90" y="1958" height="720px" width="720px" />
                  </g>
                  <g id="k15e78r8" class="keySig" />
                  <g id="mun6xde" class="meterSig">
                     <use xlink:href="#E084-1ge0fyy" x="490" y="1778" height="720px" width="720px" />
                     <use xlink:href="#E084-1ge0fyy" x="490" y="2138" height="720px" width="720px" />
                  </g>
                  <g id="m-014ba54d-f15c-42a3-b2e6-1c91c3e0b626" class="layer">
                     <g id="m-34f0a318-f6c9-479d-8883-859f92bd7a80" class="rest">
                        <use xlink:href="#E4E3-1ge0fyy" x="1160" y="1418" height="720px" width="720px" />
                        <g class="ledgerLines">
                           <path d="M1112 1418 L1424 1418" stroke="currentColor" stroke-width="22" />
                        </g>
                     </g>
                  </g>
                  <g id="m-0f083b92-21ad-48f9-bee6-a119bb65359d" class="layer">
                     <g id="m-bf8ddb1e-3689-4e02-a434-410f8f56dafc" class="note">
                        <g class="notehead">
                           <use xlink:href="#E0A4-1ge0fyy" x="1160" y="1958" height="720px" width="720px" />
                        </g>
                        <g id="sq4lkey" class="stem">
                           <path d="M1169 1986 L1169 2693" stroke="currentColor" stroke-width="18" />
                           <use xlink:href="#E222-1ge0fyy" x="1169" y="2444" height="720px" width="720px" />
                        </g>
                        <g id="a14g1vny" class="accid" />
                     </g>
                     <g id="m-9c96943a-1593-4418-96f1-5c48e90f4066" class="beam">
                        <polygon points="1850,2813 2318,2813 2318,2723 1850,2723" />
                        <g id="m-284821ef-f47c-4c91-b23b-bb93281dc734" class="note">
                           <g class="notehead">
                              <use xlink:href="#E0A4-1ge0fyy" x="1850" y="1958" height="720px" width="720px" />
                           </g>
                           <g id="s1l5v22b" class="stem">
                              <path d="M1859 1986 L1859 2795" stroke="currentColor" stroke-width="18" />
                           </g>
                           <g id="a1rbxfvx" class="accid" />
                        </g>
                        <g id="m-e99325eb-94c0-431a-864d-920441ff5308" class="note">
                           <g class="notehead">
                              <use xlink:href="#E0A4-1ge0fyy" x="2300" y="1958" height="720px" width="720px" />
                           </g>
                           <g id="s19p3ftq" class="stem">
                              <path d="M2309 1986 L2309 2795" stroke="currentColor" stroke-width="18" />
                              <use xlink:href="#E222-1ge0fyy" x="2309" y="2444" height="720px" width="720px" />
                           </g>
                           <g id="a1vwmpch" class="accid" />
                        </g>
                     </g>
                     <g id="m-e3d04199-9549-4f1c-bc7a-30b8d1756ade" class="beam">
                        <polygon points="2750,2543 3534,2543 3534,2453 2750,2453" />
                        <polygon points="2750,2408 2976,2408 2976,2318 2750,2318" />
                        <polygon points="3308,2408 3534,2408 3534,2318 3308,2318" />
                        <g id="m-7b07d655-01df-4db1-a060-7c2d8ed4066e" class="note">
                           <g class="notehead">
                              <use xlink:href="#E0A4-1ge0fyy" x="2750" y="1958" height="720px" width="720px" />
                           </g>
                           <g id="s1j0v393" class="stem">
                              <path d="M2759 1986 L2759 2525" stroke="currentColor" stroke-width="18" />
                           </g>
                           <g id="a5nsinm" class="accid" />
                        </g>
                        <g id="m-6fe1163b-6269-48e6-a5b7-176eabd72e4c" class="note">
                           <g class="notehead">
                              <use xlink:href="#E0A4-1ge0fyy" x="3066" y="1958" height="720px" width="720px" />
                           </g>
                           <g id="skpng43" class="stem">
                              <path d="M3075 1986 L3075 2525" stroke="currentColor" stroke-width="18" />
                           </g>
                           <g id="a1oc3li5" class="accid" />
                        </g>
                        <g id="m-60c63af3-fdc8-4ef5-89db-36950a8a0f56" class="note">
                           <g class="notehead">
                              <use xlink:href="#E0A4-1ge0fyy" x="3516" y="1688" height="720px" width="720px" />
                           </g>
                           <g id="s1ujqobp" class="stem">
                              <path d="M3525 1716 L3525 2525" stroke="currentColor" stroke-width="18" />
                           </g>
                           <g id="a128rfv" class="accid" />
                        </g>
                     </g>
                     <g id="m-d02e412c-04cb-46ee-847a-78b611e87be3" class="beam">
                        <polygon points="3832,2363 4482,2363 4482,2273 3832,2273" />
                        <polygon points="3832,2228 4157,2228 4157,2138 3832,2138" />
                        <g id="m-afb9ed50-5798-4208-bd33-9db5f6f269b2" class="note">
                           <g class="notehead">
                              <use xlink:href="#E0A4-1ge0fyy" x="3832" y="1688" height="720px" width="720px" />
                           </g>
                           <g id="s6xx13p" class="stem">
                              <path d="M3841 1716 L3841 2345" stroke="currentColor" stroke-width="18" />
                           </g>
                           <g id="a15cemoj" class="accid" />
                        </g>
                        <g id="m-8cc59b02-2a13-42b6-b547-ebec1a8c7bf9" class="note">
                           <g class="notehead">
                              <use xlink:href="#E0A4-1ge0fyy" x="4148" y="1778" height="720px" width="720px" />
                           </g>
                           <g id="s1s5ll5b" class="stem">
                              <path d="M4157 1806 L4157 2345" stroke="currentColor" stroke-width="18" />
                           </g>
                        </g>
                        <g id="m-e1625c6d-6b1b-464f-891a-498021db3684" class="note">
                           <g class="notehead">
                              <use xlink:href="#E0A4-1ge0fyy" x="4464" y="1778" height="720px" width="720px" />
                           </g>
                           <g id="s5jruwx" class="stem">
                              <path d="M4473 1806 L4473 2345" stroke="currentColor" stroke-width="18" />
                           </g>
                        </g>
                     </g>
                  </g>
               </g>
               <g id="b1fannqc" class="barLine">
                  <path d="M4914 1598 L4914 2318" stroke="currentColor" stroke-width="27" />
               </g>
            </g>
            <g id="m-13728d77-0bb9-4cce-87fb-ef2b8372e7d7" class="measure">
               <g id="m-3c2cdb50-57e8-4fe1-9e40-399f034295f4" class="staff">
                  <path d="M4927 1598 L6710 1598" stroke="currentColor" stroke-width="13" />
                  <path d="M4927 1778 L6710 1778" stroke="currentColor" stroke-width="13" />
                  <path d="M4927 1958 L6710 1958" stroke="currentColor" stroke-width="13" />
                  <path d="M4927 2138 L6710 2138" stroke="currentColor" stroke-width="13" />
                  <path d="M4927 2318 L6710 2318" stroke="currentColor" stroke-width="13" />
                  <g class="ledgerLines above">
                     <path d="M5060 1418 L5446 1418" stroke="currentColor" stroke-width="22" />
                  </g>
                  <g id="m-d997bdd4-e853-427a-a41f-b1016fc28a80" class="layer">
                     <g id="m-f3d8d78e-f868-4bce-ad87-cbe558a86766" class="chord">
                        <g id="m-83807215-80f3-449c-b41f-a3a176d1a040" class="note">
                           <g class="notehead">
                              <use xlink:href="#E0B5-1ge0fyy" x="5108" y="1328" height="720px" width="720px" />
                           </g>
                           <g id="aivqrqy" class="accid" />
                        </g>
                        <g id="m-9f530f08-1915-4bd2-94c8-805cb5201457" class="note">
                           <g class="notehead">
                              <use xlink:href="#E0B5-1ge0fyy" x="5108" y="1508" height="720px" width="720px" />
                           </g>
                        </g>
                     </g>
                  </g>
                  <g id="m-d7fe14d4-e06b-4db5-9cb1-e5ba41524374" class="layer">
                     <g id="m-b8f6dc55-eddb-4ec7-ad51-c23ed0cb341d" class="note">
                        <g class="notehead">
                           <use xlink:href="#E0A2-1ge0fyy" x="5107" y="2408" height="720px" width="720px" />
                        </g>
                     </g>
                  </g>
               </g>
               <g id="bxnbdr8" class="barLine">
                  <path d="M6697 1598 L6697 2318" stroke="currentColor" stroke-width="27" />
               </g>
            </g>
            <g id="soi10g4" class="systemMilestoneEnd m-8d34d61d-d86a-4534-8c09-43e23a93f1b4" />
         </g>
         <g id="p2u9194" class="pageMilestoneEnd m-3ba7ab86-37f6-4f96-8307-37861cbf9657" />
         <g id="p15vbpyk" class="pageMilestoneEnd m-6c68a1ef-2e2f-4a8d-967b-7366e7123541" />
         <g id="p1f76blp" class="pgHead autogenerated">
            <text font-size="0px">
               <tspan id="rg5a18d" class="rend" x="10000" y="418" text-anchor="middle">
                  <title class="labelAttr">title</title>
                  <tspan id="r1ql83e5" class="rend">
                     <tspan id="t1yz9u15" class="text">
                        <tspan font-size="607px">25_rock_120_beat_4-4</tspan>
                     </tspan>
                  </tspan>
                  <tspan id="lsr22d5" class="lb" />
                  <tspan id="r7jhnzm" class="rend">
                     <tspan id="t1dr42jf" class="text" x="10000" y="808">
                        <tspan font-size="324px">25_rock_120_beat_4-4</tspan>
                     </tspan>
                  </tspan>
               </tspan>
            </text>
         </g>
         <g id="p13ahwvr" class="pgFoot autogenerated">
            <g id="fsltcbp" class="fig">
               <g class="svg" transform="translate(7750, 28099) scale(10.000000, 10.000000)">
                  <g>
                     <path fill="#00000" d="M 17.11278,49.26451 V 10.367554 h 12.696511 c 3.288815,7.336676 6.71267,14.610456 10.127281,21.888976 3.419998,-7.484684 6.255515,-14.204887 9.58887,-21.909915 2.436207,0.103726 4.316952,0.08453 6.484294,-0.05808 V 49.264423 H 50.274275 C 50.145222,38.35639 50.016136,27.448368 49.887066,16.540329 45.003488,27.315459 39.967448,38.433564 35.083854,49.208695 34.678996,49.343717 34.426583,49.135619 34.021726,49.270644 29.46588,39.330716 24.910049,29.390805 20.354201,19.450876 20.224341,29.388756 20.09461,39.326619 19.964815,49.264497 H 17.11278 Z M 36.754144,39.324695 C 32.721221,30.512695 28.6883,21.700679 24.655394,12.888662 22.530527,12.750737 22.656775,12.71031 20.714356,12.813974 v 0.966497 c 4.612938,9.99784 9.609439,20.748709 13.87298,30.081745 0.722248,-1.512523 1.444528,-3.025014 2.166808,-4.537521 z m 25.738417,9.939815 c 0,-12.965651 0,-25.931305 0,-38.896956 10.084388,0 20.168791,0 30.253178,0 0,0.960416 0,1.920849 0,2.881265 -6.482825,0 -12.965652,0 -19.448478,0 0,4.802097 0,9.604178 0,14.406277 5.52241,0 11.044819,0 16.567229,0 0,0.960415 0,1.920832 0,2.881248 -5.52241,0 -11.044819,0 -16.567229,0 0,5.282306 0,10.564611 0,15.846917 6.963035,0 13.926068,0 20.889103,0 0,0.960416 0,1.920832 0,2.881249 -10.564597,0 -21.129207,0 -31.693803,0 z m 4.321874,-2.160937 c 0,-11.765131 0,-23.530263 0,-35.295394 -0.720312,0 -1.440625,0 -2.160937,0 0,11.765131 0,23.530263 0,35.295394 0.720312,0 1.440625,0 2.160937,0 z m 32.41413,2.160937 c 0,-12.965651 0,-25.931305 0,-38.896956 2.401045,0 4.802095,0 7.203135,0 0,12.965651 0,25.931305 0,38.896956 -2.40104,0 -4.80209,0 -7.203135,0 z m 2.881265,-2.160937 c 0,-11.765131 0,-23.530263 0,-35.295394 -0.72031,0 -1.44064,0 -2.160953,0 0,11.765131 0,23.530263 0,35.295394 0.720313,0 1.440643,0 2.160953,0 z" />
                     <path fill="#00000" d="m 346.3,6.7 c -3.1,0.5 -4.9,4.4 -2.7,6.8 1.2,1.4 2.7,2.4 4.1,3.5 -2.4,5.3 -7.7,8.3 -11.9,12.1 -3.7,2.8 -7,6.2 -9.7,9.9 -2.2,-0.8 -0.3,-6.8 -0.6,-9.5 0.1,-3.1 0.7,-6.4 2.9,-8.7 1.3,-1.9 3,-3.5 4.5,-5.2 1.2,-3.4 -3.2,-4.9 -5.8,-4.6 -7.3,-0.5 -14.6,2 -20,6.8 -5,4.6 -10,10.1 -11.5,17 -0.9,3.5 -0.2,7.5 2.8,9.9 2.5,2.8 7.4,2.9 9.8,-0.2 1.7,-2.3 3.2,-4.8 3.8,-7.6 -0.1,-2.6 -4.4,-2.3 -4.3,0.2 1.2,2.4 -0.9,4.7 -2.7,6.2 -1.7,0.9 -4.7,0.7 -4.8,-1.7 -1,-5.8 2.1,-11.3 5.2,-16.1 4,-5.8 9.8,-11.2 17.2,-11.8 1.6,0 8.1,-1.2 6.8,1.4 -2.8,2.8 -5.6,6.1 -6,10.3 -1.6,7.7 0.1,15.7 -2.3,23.2 -1.1,3.9 2,2.6 2.5,0.2 3.3,-7.4 8.9,-13.4 15.1,-18.5 4.2,-3.9 9.5,-7.1 11.9,-12.6 1.3,-3.6 1.2,-9 -2.7,-10.9 -0.6,-0.2 -1.2,-0.3 -1.8,-0.3 z m 66,14.5 c -2,0.8 -1.8,4.9 0.8,4.4 3.4,0.4 2.9,-6.2 -0.8,-4.4 z m 0.6,7.3 c -1.3,0.5 -7.6,0.5 -5.4,2.2 4,-0.3 0.7,4.5 0.6,6.7 -0.4,2.9 -2.4,5.9 -1.2,8.8 2.7,1.7 5.6,-0.8 6.8,-3.2 1.6,-1.4 -0.5,-3 -1.2,-0.9 -0.4,0.8 -2.4,3.5 -2.6,1.8 1.1,-5 2.7,-9.9 3.9,-14.9 l -0.1,-0.5 h -0.9 z m -65.1,0.2 c -6.5,1.6 -10.5,9.5 -8.2,15.7 2.1,3.4 7.4,2.9 10.1,0.4 2,-0.2 3.6,-5.3 1,-3.4 -1.4,2 -4,4.2 -6.5,2.8 -2.2,-1.9 -1.9,-5.7 1.7,-5.3 3.1,-0.9 6.9,-2.1 8.1,-5.5 0.9,-2.7 -1.6,-5.2 -4.3,-4.8 h -1.1 -0.7 z m 13.6,0 c -2.2,0 -8.5,1.8 -2.9,2.3 0.9,1.9 -1,4.9 -1.1,7.2 -0.5,2.9 -1.4,5.7 -1.7,8.7 3.7,0.7 3.8,-2.6 4.4,-5.3 0.9,-3.3 1.6,-7 4.1,-9.5 2.4,1.6 6.8,-0.7 3.7,-3.4 -2.9,-0.5 -4.8,2.4 -6.2,4.3 0,-1.2 2.4,-5 -0.2,-4.3 z m 15.8,0 c -6.4,1.3 -9.6,9.1 -7.7,14.9 1.9,4 7.7,3.9 11,1.7 4.1,-3 6,-8.9 4.4,-13.7 -1.3,-3 -4.8,-3.2 -7.6,-3 z m 17,0 c -2.3,0 -8.8,1.9 -3,2.4 0.4,2.5 -1,5.7 -1.4,8.4 -0.7,2.4 -1.8,7.5 2.1,7.2 3.8,-0.1 6.5,-3.5 8.5,-6.3 2,-3.2 4.5,-7 3.3,-10.9 -3.7,-3 -3.6,2.6 -3.1,5.1 -0.7,3.8 -2.7,7.9 -6.2,9.8 -3.6,0.6 -1,-4.3 -0.8,-6.1 0.6,-3.2 1.6,-6.3 1.9,-9.5 -0.4,0 -0.8,0 -1.1,0 z m 30.6,0 c -6.3,1.2 -9.5,8.9 -7.8,14.7 1.5,4 7.2,4.2 10.5,2.4 4.6,-2.8 6.6,-9.3 4.8,-14.3 -1.4,-2.8 -4.8,-3 -7.5,-2.8 z m -75.4,1.7 c 2.1,1.5 0.2,4.7 -1.6,5.7 -1.1,0.4 -5.5,3.4 -4.6,0.7 0.8,-2.7 2.2,-6.2 5.3,-6.6 l 0.9,0.1 z m 30.8,0 c 2.6,1.5 1.3,5.2 0.8,7.6 -0.8,2.7 -1.9,5.9 -4.7,7.1 -5.1,0.8 -4,-5.8 -2.8,-8.8 1,-2.8 3,-6.8 6.7,-5.8 z m 47.1,-0.1 c 2.9,0.7 2,4.7 1.5,6.8 -0.7,3 -1.8,6.7 -5,8 -4.7,0.8 -4,-5.1 -3,-7.9 0.9,-3 2.7,-7.3 6.5,-6.8 z m -88.1,5.9 c -0.3,1.3 0.9,-0.6 0,0 z m -1.1,2.4 c -0.2,0.5 0.5,-0.1 0,0 z m -1.3,4.5 c -0.3,1.3 0.8,-0.2 0,0 z" />
                     <text y="41" x="201" fill="#00000" style="font-style:italic;font-weight:normal;font-size:30px;line-height:125%;font-family:Times;text-anchor:middle" xml:space="preserve">engraved with</text>
                  </g>
               </g>
            </g>
         </g>
      </g>
   </svg>
</svg>
