<?xml version="1.0" encoding="UTF-8" standalone="no"?>
<svg width="2100px" height="2970px" version="1.1" xmlns="http://www.w3.org/2000/svg" xmlns:xlink="http://www.w3.org/1999/xlink" xmlns:mei="http://www.music-encoding.org/ns/mei" overflow="visible">
   <desc>Engraved by Verovio 4.4.0-66ab39c</desc>
   <defs>
      <symbol id="E4E5-biugba" viewBox="0 0 1000 1000" overflow="inherit">
         <path transform="scale(1,-1)" d="M107 292c-13 24 -30 49 -52 71c-1 1 0 2 0 3l-2 2c3 3 4 4 6 4c12 0 26 -7 40 -20s44 -40 89 -81c26 -24 28 -29 46 -47c4 -4 8 -9 10 -14c6 -8 8 -16 8 -27c0 -19 -12 -40 -36 -61c-28 -23 -49 -38 -61 -73c-4 -11 -7 -27 -10 -50c13 -43 34 -83 59 -121 c31 -47 59 -79 101 -129c-8 0 -26 7 -54 20l-62 29l-21 6l-23 1c-25 0 -45 -10 -60 -30l-4 -14l-1 -12c0 -33 20 -56 39 -78c8 -9 17 -18 26 -26c17 -15 27 -24 28 -30l-3 -3c-11 5 -19 10 -25 15c-9 3 -37 21 -45 26c-24 14 -45 32 -63 51c-19 21 -37 44 -37 71 c0 63 27 95 80 95c41 0 86 -18 136 -52c-19 26 -37 48 -55 66c-23 23 -48 44 -73 65c-28 23 -47 40 -58 53s-17 26 -18 39c75 64 113 125 113 183c0 27 -7 48 -18 68z" />
      </symbol>
      <symbol id="E4E7-biugba" viewBox="0 0 1000 1000" overflow="inherit">
         <path transform="scale(1,-1)" d="M133 -111c0 -33 -21 -50 -52 -55c10 -3 18 -4 25 -4c40 0 69 24 90 47l66 197c-36 -18 -64 -25 -112 -25c-23 0 -38 3 -45 8c-37 7 -55 27 -55 59c8 35 30 54 68 58c45 -6 49 -13 64 -48c0 -3 1 -5 1 -7c0 -27 -25 -46 -52 -49c6 -4 15 -6 26 -6c32 2 62 14 88 29 c32 19 44 36 59 71l7 1l10 2h4c-72 -220 -143 -439 -215 -659h-37l108 324c-20 -13 -51 -20 -82 -20c-21 0 -35 4 -43 10c-37 6 -55 26 -55 58c8 35 31 56 68 60c43 -8 48 -13 64 -51z" />
      </symbol>
      <symbol id="E084-biugba" viewBox="0 0 1000 1000" overflow="inherit">
         <path transform="scale(1,-1)" d="M20 -78c84 97 114 180 134 329h170c-13 -32 -82 -132 -99 -151l-84 -97c-33 -36 -59 -63 -80 -81h162v102l127 123v-225h57v-39h-57v-34c0 -43 19 -65 57 -65v-34h-244v36c48 0 60 26 60 70v27h-203v39z" />
      </symbol>
      <symbol id="E0A4-biugba" viewBox="0 0 1000 1000" overflow="inherit">
         <path transform="scale(1,-1)" d="M0 -39c0 68 73 172 200 172c66 0 114 -37 114 -95c0 -84 -106 -171 -218 -171c-64 0 -96 30 -96 94z" />
      </symbol>
      <symbol id="E0A9-biugba" viewBox="0 0 1000 1000" overflow="inherit">
         <path transform="scale(1,-1)" d="M0 -110c0 4 1 8 5 11l119 99l-119 100c-3 3 -5 8 -5 12c0 6 5 13 12 13c3 0 6 -1 8 -2l124 -105l126 105c2 1 5 2 7 2c6 0 13 -6 13 -14c0 -4 -2 -9 -5 -11l-119 -100l119 -99c3 -3 5 -7 5 -12c0 -6 -5 -14 -13 -14c-2 0 -5 1 -7 3l-126 105l-124 -105c-2 -2 -4 -3 -7 -3 c-8 0 -13 7 -13 15z" />
      </symbol>
      <symbol id="E0D9-biugba" viewBox="0 0 1000 1000" overflow="inherit">
         <path transform="scale(1,-1)" d="M0 0c0 3 1 4 3 6c53 47 102 98 151 153c2 2 5 3 8 3s5 -1 7 -3c49 -55 89 -106 142 -153c2 -2 3 -3 3 -6s-1 -4 -3 -6c-53 -47 -93 -98 -142 -153c-2 -2 -4 -3 -7 -3s-6 1 -8 3c-49 55 -98 106 -151 153c-2 2 -3 3 -3 6zM83 36c-2 -2 -3 -4 -3 -6s1 -4 3 -6l96 -101 c2 -2 4 -3 7 -3s5 1 7 3l40 41c2 2 3 4 3 6s-1 4 -3 6l-96 101c-2 2 -4 3 -7 3s-5 -1 -7 -3z" />
      </symbol>
      <symbol id="E4E4-biugba" viewBox="0 0 1000 1000" overflow="inherit">
         <path transform="scale(1,-1)" d="M0 10v105c0 9 1 10 10 10h280c9 0 10 -1 10 -10v-105c0 -9 -1 -10 -10 -10h-280c-9 0 -10 1 -10 10z" />
      </symbol>
      <symbol id="E069-biugba" viewBox="0 0 1000 1000" overflow="inherit">
         <path transform="scale(1,-1)" d="M200 250h125v-500h-125v500zM0 250h125v-500h-125v500z" />
      </symbol>
   </defs>
   <style type="text/css">g.page-margin{font-family:Times,serif;} g.ending, g.fing, g.reh, g.tempo{font-weight:bold;} g.dir, g.dynam, g.mNum{font-style:italic;} g.label{font-weight:normal;}</style>
   <svg class="definition-scale" color="black" viewBox="0 0 21000 29700">
      <g class="page-margin" transform="translate(500, 500)">
         <g id="m-5a678670-a90b-46bb-8a38-07a00d0928d7" class="mdiv pageMilestone" />
         <g id="m-b3579914-1d14-43a6-aa43-9f24e404db8f" class="score pageMilestone" />
         <g id="sk1kwnu" class="system">
            <g id="m-d531c181-f8d0-4c10-a873-e7df1485a0cb" class="section systemMilestone" />
            <g id="m-86e67fa5-7bf9-478f-8d2e-907df9cda203" class="measure">
               <g id="m-ae9b960f-b55b-4181-b3b2-6694a4cc1455" class="staff">
                  <path d="M0 1784 L5008 1784" stroke="currentColor" stroke-width="13" />
                  <path d="M0 1964 L5008 1964" stroke="currentColor" stroke-width="13" />
                  <path d="M0 2144 L5008 2144" stroke="currentColor" stroke-width="13" />
                  <path d="M0 2324 L5008 2324" stroke="currentColor" stroke-width="13" />
                  <path d="M0 2504 L5008 2504" stroke="currentColor" stroke-width="13" />
                  <g id="c1uujhcr" class="clef">
                     <use xlink:href="#E069-biugba" x="90" y="2144" height="720px" width="720px" />
                  </g>
                  <g id="keua7ml" class="keySig" />
                  <g id="m1gfhfnr" class="meterSig">
                     <use xlink:href="#E084-biugba" x="490" y="1964" height="720px" width="720px" />
                     <use xlink:href="#E084-biugba" x="490" y="2324" height="720px" width="720px" />
                  </g>
                  <g class="ledgerLines above">
                     <path d="M4257 1604 L4561 1604" stroke="currentColor" stroke-width="22" />
                  </g>
                  <g id="m-dedc71bc-d50d-411f-8855-354d93135449" class="layer">
                     <g id="m-d00ef523-b1b4-4ae7-8071-dc595df1bf0a" class="rest">
                        <use xlink:href="#E4E4-biugba" x="1052" y="1604" height="720px" width="720px" />
                        <g class="ledgerLines">
                           <path d="M1004 1604 L1316 1604" stroke="currentColor" stroke-width="22" />
                        </g>
                     </g>
                     <g id="m-4d54d4f8-e6f5-42ff-a6bd-77f42db1652d" class="rest">
                        <use xlink:href="#E4E5-biugba" x="3216" y="1604" height="720px" width="720px" />
                     </g>
                     <g id="m-cefba99e-2288-4c07-8cba-b9009983b45b" class="chord">
                        <g id="sm990xn" class="stem">
                           <path d="M4504 1615 L4504 1064" stroke="currentColor" stroke-width="18" />
                        </g>
                        <g id="m-fa9cc5f0-bd03-4e09-b5a5-1579eaf0f32c" class="note">
                           <g class="notehead">
                              <use xlink:href="#E0A9-biugba" x="4305" y="1514" height="720px" width="720px" />
                           </g>
                           <g id="a1ejmr62" class="accid" />
                        </g>
                        <g id="m-9af0020e-26f8-4e16-be79-d7a2eea948ff" class="note">
                           <g class="notehead">
                              <use xlink:href="#E0A9-biugba" x="4305" y="1694" height="720px" width="720px" />
                           </g>
                        </g>
                     </g>
                  </g>
                  <g id="m-9c4d757c-a9c0-472d-8ed9-b6a00e4f83e3" class="layer">
                     <g id="m-b78dcaea-1264-4ba2-a818-98ac600d1186" class="beam">
                        <polygon points="1052,2729 1836,2729 1836,2639 1052,2639" />
                        <polygon points="1052,2594 1278,2594 1278,2504 1052,2504" />
                        <polygon points="1610,2594 1836,2594 1836,2504 1610,2504" />
                        <g id="m-3ce0da9f-d17a-4f42-b0b7-72a04e55f9a9" class="note">
                           <g class="notehead">
                              <use xlink:href="#E0A4-biugba" x="1052" y="2144" height="720px" width="720px" />
                           </g>
                           <g id="s1e7e03r" class="stem">
                              <path d="M1061 2172 L1061 2711" stroke="currentColor" stroke-width="18" />
                           </g>
                           <g id="asc7b4y" class="accid" />
                        </g>
                        <g id="m-13ffcfc4-0bb4-4921-aa6b-6d9052ceae25" class="note">
                           <g class="notehead">
                              <use xlink:href="#E0A4-biugba" x="1368" y="2144" height="720px" width="720px" />
                           </g>
                           <g id="svrx78e" class="stem">
                              <path d="M1377 2172 L1377 2711" stroke="currentColor" stroke-width="18" />
                           </g>
                           <g id="a3n8krt" class="accid" />
                        </g>
                        <g id="m-b2ced512-c94d-478c-9d63-2b3c627d40d2" class="note">
                           <g class="notehead">
                              <use xlink:href="#E0D9-biugba" x="1818" y="2144" height="720px" width="720px" />
                           </g>
                           <g id="s1y0nvn1" class="stem">
                              <path d="M1827 2144 L1827 2711" stroke="currentColor" stroke-width="18" />
                           </g>
                           <g id="a1ivwk33" class="accid" />
                        </g>
                     </g>
                     <g id="m-c99eb6c8-85ef-4e89-8635-82a5fbf3b7c1" class="beam">
                        <polygon points="2134,2549 2918,2549 2918,2459 2134,2459" />
                        <polygon points="2593,2414 2918,2414 2918,2324 2593,2324" />
                        <g id="m-16b7633d-e486-49fa-a663-703326c81f57" class="note">
                           <g class="notehead">
                              <use xlink:href="#E0A4-biugba" x="2134" y="1874" height="720px" width="720px" />
                           </g>
                           <g id="s14vuly3" class="stem">
                              <path d="M2143 1902 L2143 2531" stroke="currentColor" stroke-width="18" />
                           </g>
                           <g id="a1520vp5" class="accid" />
                        </g>
                        <g id="m-fe4f1327-d497-4d7b-83ac-916cc5070afd" class="note">
                           <g class="notehead">
                              <use xlink:href="#E0A4-biugba" x="2584" y="1964" height="720px" width="720px" />
                           </g>
                           <g id="s1xfs853" class="stem">
                              <path d="M2593 1992 L2593 2531" stroke="currentColor" stroke-width="18" />
                           </g>
                        </g>
                        <g id="m-e1817b33-673b-45a4-a4e2-65089e443b3b" class="note">
                           <g class="notehead">
                              <use xlink:href="#E0A4-biugba" x="2900" y="1964" height="720px" width="720px" />
                           </g>
                           <g id="s1lrp7eh" class="stem">
                              <path d="M2909 1992 L2909 2531" stroke="currentColor" stroke-width="18" />
                           </g>
                        </g>
                     </g>
                     <g id="m-c9fecb41-f0c7-47df-bfc3-ca6f8cc6d24a" class="rest">
                        <use xlink:href="#E4E7-biugba" x="3216" y="2324" height="720px" width="720px" />
                     </g>
                     <g id="m-c44b2aca-f472-4be4-94b8-790cd1251023" class="beam">
                        <polygon points="3539,2999 3873,2999 3873,2909 3539,2909" />
                        <polygon points="3539,2864 3765,2864 3765,2774 3539,2774" />
                        <g id="m-4a922a2a-7cfd-454b-928a-7e7f260d44b0" class="note">
                           <g class="notehead">
                              <use xlink:href="#E0A4-biugba" x="3539" y="2414" height="720px" width="720px" />
                           </g>
                           <g id="s12i4qfj" class="stem">
                              <path d="M3548 2442 L3548 2981" stroke="currentColor" stroke-width="18" />
                           </g>
                        </g>
                        <g id="m-3863b3ed-dc02-4003-85b9-152c3af9666c" class="note">
                           <g class="notehead">
                              <use xlink:href="#E0A4-biugba" x="3855" y="2414" height="720px" width="720px" />
                           </g>
                           <g id="s1mpge7y" class="stem">
                              <path d="M3864 2442 L3864 2981" stroke="currentColor" stroke-width="18" />
                           </g>
                        </g>
                     </g>
                     <g id="m-99218db8-778e-4efe-8518-ea91b5f4175a" class="note">
                        <g class="notehead">
                           <use xlink:href="#E0A4-biugba" x="4305" y="2594" height="720px" width="720px" />
                        </g>
                        <g id="s1g76jq" class="stem">
                           <path d="M4314 2622 L4314 3044" stroke="currentColor" stroke-width="18" />
                        </g>
                     </g>
                  </g>
               </g>
               <g id="b9huses" class="barLine">
                  <path d="M4995 1784 L4995 2504" stroke="currentColor" stroke-width="27" />
               </g>
            </g>
            <g id="sd8xomp" class="systemMilestoneEnd m-d531c181-f8d0-4c10-a873-e7df1485a0cb" />
         </g>
         <g id="p1iz6vvn" class="pageMilestoneEnd m-b3579914-1d14-43a6-aa43-9f24e404db8f" />
         <g id="pyyy41e" class="pageMilestoneEnd m-5a678670-a90b-46bb-8a38-07a00d0928d7" />
         <g id="phqanvk" class="pgHead autogenerated">
            <text font-size="0px">
               <tspan id="rwl2jwk" class="rend" x="10000" y="415" text-anchor="middle">
                  <title class="labelAttr">title</title>
                  <tspan id="r1f4xf2t" class="rend">
                     <tspan id="t1ptyw1j" class="text">
                        <tspan font-size="607px">37_rock_120_beat_4-4</tspan>
                     </tspan>
                  </tspan>
                  <tspan id="l1icv6gj" class="lb" />
                  <tspan id="r1qinz2u" class="rend">
                     <tspan id="tyrq5pn" class="text" x="10000" y="805">
                        <tspan font-size="324px">37_rock_120_beat_4-4</tspan>
                     </tspan>
                  </tspan>
               </tspan>
            </text>
         </g>
         <g id="pboxl5y" class="pgFoot autogenerated">
            <g id="fxsy4v4" class="fig">
               <g class="svg" transform="translate(7750, 28099) scale(10.000000, 10.000000)">
                  <g>
                     <path fill="#00000" d="M 17.11278,49.26451 V 10.367554 h 12.696511 c 3.288815,7.336676 6.71267,14.610456 10.127281,21.888976 3.419998,-7.484684 6.255515,-14.204887 9.58887,-21.909915 2.436207,0.103726 4.316952,0.08453 6.484294,-0.05808 V 49.264423 H 50.274275 C 50.145222,38.35639 50.016136,27.448368 49.887066,16.540329 45.003488,27.315459 39.967448,38.433564 35.083854,49.208695 34.678996,49.343717 34.426583,49.135619 34.021726,49.270644 29.46588,39.330716 24.910049,29.390805 20.354201,19.450876 20.224341,29.388756 20.09461,39.326619 19.964815,49.264497 H 17.11278 Z M 36.754144,39.324695 C 32.721221,30.512695 28.6883,21.700679 24.655394,12.888662 22.530527,12.750737 22.656775,12.71031 20.714356,12.813974 v 0.966497 c 4.612938,9.99784 9.609439,20.748709 13.87298,30.081745 0.722248,-1.512523 1.444528,-3.025014 2.166808,-4.537521 z m 25.738417,9.939815 c 0,-12.965651 0,-25.931305 0,-38.896956 10.084388,0 20.168791,0 30.253178,0 0,0.960416 0,1.920849 0,2.881265 -6.482825,0 -12.965652,0 -19.448478,0 0,4.802097 0,9.604178 0,14.406277 5.52241,0 11.044819,0 16.567229,0 0,0.960415 0,1.920832 0,2.881248 -5.52241,0 -11.044819,0 -16.567229,0 0,5.282306 0,10.564611 0,15.846917 6.963035,0 13.926068,0 20.889103,0 0,0.960416 0,1.920832 0,2.881249 -10.564597,0 -21.129207,0 -31.693803,0 z m 4.321874,-2.160937 c 0,-11.765131 0,-23.530263 0,-35.295394 -0.720312,0 -1.440625,0 -2.160937,0 0,11.765131 0,23.530263 0,35.295394 0.720312,0 1.440625,0 2.160937,0 z m 32.41413,2.160937 c 0,-12.965651 0,-25.931305 0,-38.896956 2.401045,0 4.802095,0 7.203135,0 0,12.965651 0,25.931305 0,38.896956 -2.40104,0 -4.80209,0 -7.203135,0 z m 2.881265,-2.160937 c 0,-11.765131 0,-23.530263 0,-35.295394 -0.72031,0 -1.44064,0 -2.160953,0 0,11.765131 0,23.530263 0,35.295394 0.720313,0 1.440643,0 2.160953,0 z" />
                     <path fill="#00000" d="m 346.3,6.7 c -3.1,0.5 -4.9,4.4 -2.7,6.8 1.2,1.4 2.7,2.4 4.1,3.5 -2.4,5.3 -7.7,8.3 -11.9,12.1 -3.7,2.8 -7,6.2 -9.7,9.9 -2.2,-0.8 -0.3,-6.8 -0.6,-9.5 0.1,-3.1 0.7,-6.4 2.9,-8.7 1.3,-1.9 3,-3.5 4.5,-5.2 1.2,-3.4 -3.2,-4.9 -5.8,-4.6 -7.3,-0.5 -14.6,2 -20,6.8 -5,4.6 -10,10.1 -11.5,17 -0.9,3.5 -0.2,7.5 2.8,9.9 2.5,2.8 7.4,2.9 9.8,-0.2 1.7,-2.3 3.2,-4.8 3.8,-7.6 -0.1,-2.6 -4.4,-2.3 -4.3,0.2 1.2,2.4 -0.9,4.7 -2.7,6.2 -1.7,0.9 -4.7,0.7 -4.8,-1.7 -1,-5.8 2.1,-11.3 5.2,-16.1 4,-5.8 9.8,-11.2 17.2,-11.8 1.6,0 8.1,-1.2 6.8,1.4 -2.8,2.8 -5.6,6.1 -6,10.3 -1.6,7.7 0.1,15.7 -2.3,23.2 -1.1,3.9 2,2.6 2.5,0.2 3.3,-7.4 8.9,-13.4 15.1,-18.5 4.2,-3.9 9.5,-7.1 11.9,-12.6 1.3,-3.6 1.2,-9 -2.7,-10.9 -0.6,-0.2 -1.2,-0.3 -1.8,-0.3 z m 66,14.5 c -2,0.8 -1.8,4.9 0.8,4.4 3.4,0.4 2.9,-6.2 -0.8,-4.4 z m 0.6,7.3 c -1.3,0.5 -7.6,0.5 -5.4,2.2 4,-0.3 0.7,4.5 0.6,6.7 -0.4,2.9 -2.4,5.9 -1.2,8.8 2.7,1.7 5.6,-0.8 6.8,-3.2 1.6,-1.4 -0.5,-3 -1.2,-0.9 -0.4,0.8 -2.4,3.5 -2.6,1.8 1.1,-5 2.7,-9.9 3.9,-14.9 l -0.1,-0.5 h -0.9 z m -65.1,0.2 c -6.5,1.6 -10.5,9.5 -8.2,15.7 2.1,3.4 7.4,2.9 10.1,0.4 2,-0.2 3.6,-5.3 1,-3.4 -1.4,2 -4,4.2 -6.5,2.8 -2.2,-1.9 -1.9,-5.7 1.7,-5.3 3.1,-0.9 6.9,-2.1 8.1,-5.5 0.9,-2.7 -1.6,-5.2 -4.3,-4.8 h -1.1 -0.7 z m 13.6,0 c -2.2,0 -8.5,1.8 -2.9,2.3 0.9,1.9 -1,4.9 -1.1,7.2 -0.5,2.9 -1.4,5.7 -1.7,8.7 3.7,0.7 3.8,-2.6 4.4,-5.3 0.9,-3.3 1.6,-7 4.1,-9.5 2.4,1.6 6.8,-0.7 3.7,-3.4 -2.9,-0.5 -4.8,2.4 -6.2,4.3 0,-1.2 2.4,-5 -0.2,-4.3 z m 15.8,0 c -6.4,1.3 -9.6,9.1 -7.7,14.9 1.9,4 7.7,3.9 11,1.7 4.1,-3 6,-8.9 4.4,-13.7 -1.3,-3 -4.8,-3.2 -7.6,-3 z m 17,0 c -2.3,0 -8.8,1.9 -3,2.4 0.4,2.5 -1,5.7 -1.4,8.4 -0.7,2.4 -1.8,7.5 2.1,7.2 3.8,-0.1 6.5,-3.5 8.5,-6.3 2,-3.2 4.5,-7 3.3,-10.9 -3.7,-3 -3.6,2.6 -3.1,5.1 -0.7,3.8 -2.7,7.9 -6.2,9.8 -3.6,0.6 -1,-4.3 -0.8,-6.1 0.6,-3.2 1.6,-6.3 1.9,-9.5 -0.4,0 -0.8,0 -1.1,0 z m 30.6,0 c -6.3,1.2 -9.5,8.9 -7.8,14.7 1.5,4 7.2,4.2 10.5,2.4 4.6,-2.8 6.6,-9.3 4.8,-14.3 -1.4,-2.8 -4.8,-3 -7.5,-2.8 z m -75.4,1.7 c 2.1,1.5 0.2,4.7 -1.6,5.7 -1.1,0.4 -5.5,3.4 -4.6,0.7 0.8,-2.7 2.2,-6.2 5.3,-6.6 l 0.9,0.1 z m 30.8,0 c 2.6,1.5 1.3,5.2 0.8,7.6 -0.8,2.7 -1.9,5.9 -4.7,7.1 -5.1,0.8 -4,-5.8 -2.8,-8.8 1,-2.8 3,-6.8 6.7,-5.8 z m 47.1,-0.1 c 2.9,0.7 2,4.7 1.5,6.8 -0.7,3 -1.8,6.7 -5,8 -4.7,0.8 -4,-5.1 -3,-7.9 0.9,-3 2.7,-7.3 6.5,-6.8 z m -88.1,5.9 c -0.3,1.3 0.9,-0.6 0,0 z m -1.1,2.4 c -0.2,0.5 0.5,-0.1 0,0 z m -1.3,4.5 c -0.3,1.3 0.8,-0.2 0,0 z" />
                     <text y="41" x="201" fill="#00000" style="font-style:italic;font-weight:normal;font-size:30px;line-height:125%;font-family:Times;text-anchor:middle" xml:space="preserve">engraved with</text>
                  </g>
               </g>
            </g>
         </g>
      </g>
   </svg>
</svg>
