<?xml version="1.0" encoding="UTF-8" standalone="no"?>
<svg width="2100px" height="2970px" version="1.1" xmlns="http://www.w3.org/2000/svg" xmlns:xlink="http://www.w3.org/1999/xlink" xmlns:mei="http://www.music-encoding.org/ns/mei" overflow="visible">
   <desc>Engraved by Verovio 4.4.0-66ab39c</desc>
   <defs>
      <symbol id="E084-1af7l2k" viewBox="0 0 1000 1000" overflow="inherit">
         <path transform="scale(1,-1)" d="M20 -78c84 97 114 180 134 329h170c-13 -32 -82 -132 -99 -151l-84 -97c-33 -36 -59 -63 -80 -81h162v102l127 123v-225h57v-39h-57v-34c0 -43 19 -65 57 -65v-34h-244v36c48 0 60 26 60 70v27h-203v39z" />
      </symbol>
      <symbol id="E0A4-1af7l2k" viewBox="0 0 1000 1000" overflow="inherit">
         <path transform="scale(1,-1)" d="M0 -39c0 68 73 172 200 172c66 0 114 -37 114 -95c0 -84 -106 -171 -218 -171c-64 0 -96 30 -96 94z" />
      </symbol>
      <symbol id="E0A9-1af7l2k" viewBox="0 0 1000 1000" overflow="inherit">
         <path transform="scale(1,-1)" d="M0 -110c0 4 1 8 5 11l119 99l-119 100c-3 3 -5 8 -5 12c0 6 5 13 12 13c3 0 6 -1 8 -2l124 -105l126 105c2 1 5 2 7 2c6 0 13 -6 13 -14c0 -4 -2 -9 -5 -11l-119 -100l119 -99c3 -3 5 -7 5 -12c0 -6 -5 -14 -13 -14c-2 0 -5 1 -7 3l-126 105l-124 -105c-2 -2 -4 -3 -7 -3 c-8 0 -13 7 -13 15z" />
      </symbol>
      <symbol id="E069-1af7l2k" viewBox="0 0 1000 1000" overflow="inherit">
         <path transform="scale(1,-1)" d="M200 250h125v-500h-125v500zM0 250h125v-500h-125v500z" />
      </symbol>
   </defs>
   <style type="text/css">g.page-margin{font-family:Times,serif;} g.ending, g.fing, g.reh, g.tempo{font-weight:bold;} g.dir, g.dynam, g.mNum{font-style:italic;} g.label{font-weight:normal;}</style>
   <svg class="definition-scale" color="black" viewBox="0 0 21000 29700">
      <g class="page-margin" transform="translate(500, 500)">
         <g id="m-208af7a8-6068-4c9c-aaec-2aaf175f2ad7" class="mdiv pageMilestone" />
         <g id="m-f180d9e5-118e-4bf9-8f66-492b636f4737" class="score pageMilestone" />
         <g id="s1nvxa1v" class="system">
            <g id="m-9be1c2e4-0429-44e8-9a28-53af1f60a5a6" class="section systemMilestone" />
            <g id="m-3e93eba1-b583-48b7-b398-5bb7ebaeab7b" class="measure">
               <g id="m-e8a2f6d0-974d-48df-a2e8-853fa18ce0db" class="staff">
                  <path d="M0 1865 L5225 1865" stroke="currentColor" stroke-width="13" />
                  <path d="M0 2045 L5225 2045" stroke="currentColor" stroke-width="13" />
                  <path d="M0 2225 L5225 2225" stroke="currentColor" stroke-width="13" />
                  <path d="M0 2405 L5225 2405" stroke="currentColor" stroke-width="13" />
                  <path d="M0 2585 L5225 2585" stroke="currentColor" stroke-width="13" />
                  <g id="cld9s91" class="clef">
                     <use xlink:href="#E069-1af7l2k" x="90" y="2225" height="720px" width="720px" />
                  </g>
                  <g id="k1ygxibi" class="keySig" />
                  <g id="mzx3pbr" class="meterSig">
                     <use xlink:href="#E084-1af7l2k" x="490" y="2045" height="720px" width="720px" />
                     <use xlink:href="#E084-1af7l2k" x="490" y="2405" height="720px" width="720px" />
                  </g>
                  <g id="m-0cebc839-0710-43b3-8950-76a4bf8f7557" class="layer">
                     <g id="m-305781d6-0fdb-4222-996d-3596f526364d" class="beam">
                        <polygon points="1242,1190 1876,1190 1876,1280 1242,1280" />
                        <polygon points="1242,1325 1567,1325 1567,1415 1242,1415" />
                        <g id="m-f32aaca4-b388-4503-b2ad-499670a25543" class="note">
                           <g class="notehead">
                              <use xlink:href="#E0A9-1af7l2k" x="1052" y="1775" height="720px" width="720px" />
                           </g>
                           <g id="s1xgpcxs" class="stem">
                              <path d="M1251 1696 L1251 1208" stroke="currentColor" stroke-width="18" />
                           </g>
                        </g>
                        <g id="m-ad765ac5-b623-4c5d-9afe-e7d194416c68" class="note">
                           <g class="notehead">
                              <use xlink:href="#E0A9-1af7l2k" x="1368" y="1775" height="720px" width="720px" />
                           </g>
                           <g id="s1icnutg" class="stem">
                              <path d="M1567 1696 L1567 1208" stroke="currentColor" stroke-width="18" />
                           </g>
                        </g>
                        <g id="m-3addf177-64b3-4938-a0d9-df9480a05592" class="note">
                           <g class="notehead">
                              <use xlink:href="#E0A9-1af7l2k" x="1668" y="1775" height="720px" width="720px" />
                           </g>
                           <g id="s1sqoxdh" class="stem">
                              <path d="M1867 1696 L1867 1208" stroke="currentColor" stroke-width="18" />
                           </g>
                        </g>
                     </g>
                     <g id="m-32bcbd44-1b92-4863-8bf3-2474011c6542" class="beam">
                        <polygon points="2308,1190 2942,1190 2942,1280 2308,1280" />
                        <polygon points="2308,1325 2633,1325 2633,1415 2308,1415" />
                        <g id="m-f9c93a49-5b73-4d9b-ad5a-0da6800ccc9f" class="note">
                           <g class="notehead">
                              <use xlink:href="#E0A9-1af7l2k" x="2118" y="1775" height="720px" width="720px" />
                           </g>
                           <g id="s16s007u" class="stem">
                              <path d="M2317 1696 L2317 1208" stroke="currentColor" stroke-width="18" />
                           </g>
                        </g>
                        <g id="m-a109078f-cd68-4982-9678-5563dbdf266b" class="note">
                           <g class="notehead">
                              <use xlink:href="#E0A9-1af7l2k" x="2434" y="1775" height="720px" width="720px" />
                           </g>
                           <g id="se4biq2" class="stem">
                              <path d="M2633 1696 L2633 1208" stroke="currentColor" stroke-width="18" />
                           </g>
                        </g>
                        <g id="m-5022fd48-7e7b-4036-9d05-b4c531a42803" class="note">
                           <g class="notehead">
                              <use xlink:href="#E0A9-1af7l2k" x="2734" y="1775" height="720px" width="720px" />
                           </g>
                           <g id="s1uc0lze" class="stem">
                              <path d="M2933 1696 L2933 1208" stroke="currentColor" stroke-width="18" />
                           </g>
                        </g>
                     </g>
                     <g id="m-995c73d2-9c10-45a0-9405-001ad73113e9" class="beam">
                        <polygon points="3374,1055 4432,1055 4432,1145 3374,1145" />
                        <polygon points="3374,1190 3699,1190 3699,1280 3374,1280" />
                        <polygon points="3699,1190 3999,1190 3999,1280 3699,1280" />
                        <polygon points="3999,1190 4432,1190 4432,1280 3999,1280" />
                        <polygon points="4206,1325 4432,1325 4432,1415 4206,1415" />
                        <g id="m-0169cd97-8a60-4411-9d98-97b695ada4bb" class="note">
                           <g class="notehead">
                              <use xlink:href="#E0A9-1af7l2k" x="3184" y="1775" height="720px" width="720px" />
                           </g>
                           <g id="s14swtyo" class="stem">
                              <path d="M3383 1696 L3383 1073" stroke="currentColor" stroke-width="18" />
                           </g>
                        </g>
                        <g id="m-45f7b471-4568-48c9-9731-43d3eee1698a" class="note">
                           <g class="notehead">
                              <use xlink:href="#E0A9-1af7l2k" x="3500" y="1775" height="720px" width="720px" />
                           </g>
                           <g id="srmf8w2" class="stem">
                              <path d="M3699 1696 L3699 1073" stroke="currentColor" stroke-width="18" />
                           </g>
                        </g>
                        <g id="m-f8b84176-632d-497b-ab89-ff5135d6d020" class="note">
                           <g class="notehead">
                              <use xlink:href="#E0A9-1af7l2k" x="3800" y="1775" height="720px" width="720px" />
                           </g>
                           <g id="d13nzt67" class="dots">
                              <ellipse cx="4098" cy="1775" rx="36" ry="36" />
                           </g>
                           <g id="s1qyls75" class="stem">
                              <path d="M3999 1696 L3999 1073" stroke="currentColor" stroke-width="18" />
                           </g>
                        </g>
                        <g id="m-21c5dc1d-1813-48af-90bc-c17f4ddfca87" class="note">
                           <g class="notehead">
                              <use xlink:href="#E0A9-1af7l2k" x="4224" y="1775" height="720px" width="720px" />
                           </g>
                           <g id="s2p8w7l" class="stem">
                              <path d="M4423 1696 L4423 1073" stroke="currentColor" stroke-width="18" />
                           </g>
                        </g>
                     </g>
                     <g id="m-9cc2ad83-6c4e-4886-bc6d-3cb5399f0d64" class="note">
                        <g class="notehead">
                           <use xlink:href="#E0A9-1af7l2k" x="4522" y="1775" height="720px" width="720px" />
                        </g>
                        <g id="s1cgv0az" class="stem">
                           <path d="M4721 1696 L4721 1325" stroke="currentColor" stroke-width="18" />
                        </g>
                     </g>
                  </g>
                  <g id="m-8a4eebdd-6b80-4f9c-8bbe-51fa1dbfa7c1" class="layer">
                     <g id="m-a70d5180-fd6f-47e8-a834-448a26d6d078" class="note">
                        <g class="notehead">
                           <use xlink:href="#E0A4-1af7l2k" x="1052" y="2675" height="720px" width="720px" />
                        </g>
                        <g id="srk62t2" class="stem">
                           <path d="M1061 2703 L1061 3125" stroke="currentColor" stroke-width="18" />
                        </g>
                     </g>
                     <g id="m-544faa11-7b2e-429f-8885-1744dc2d745a" class="note">
                        <g class="notehead">
                           <use xlink:href="#E0A4-1af7l2k" x="2118" y="2675" height="720px" width="720px" />
                        </g>
                        <g id="s3fxn5j" class="stem">
                           <path d="M2127 2703 L2127 3125" stroke="currentColor" stroke-width="18" />
                        </g>
                     </g>
                     <g id="m-19287624-95b8-43ee-aa42-05985bf2360b" class="note">
                        <g class="notehead">
                           <use xlink:href="#E0A4-1af7l2k" x="3184" y="2675" height="720px" width="720px" />
                        </g>
                        <g id="s10o6ngx" class="stem">
                           <path d="M3193 2703 L3193 3125" stroke="currentColor" stroke-width="18" />
                        </g>
                     </g>
                     <g id="m-4028cff3-4239-4482-9764-cb2e6e6c8a1c" class="note">
                        <g class="notehead">
                           <use xlink:href="#E0A4-1af7l2k" x="4522" y="2675" height="720px" width="720px" />
                        </g>
                        <g id="s11cmg5n" class="stem">
                           <path d="M4531 2703 L4531 3125" stroke="currentColor" stroke-width="18" />
                        </g>
                     </g>
                  </g>
               </g>
               <g id="b1cjvqa1" class="barLine">
                  <path d="M5212 1865 L5212 2585" stroke="currentColor" stroke-width="27" />
               </g>
            </g>
            <g id="shcnwui" class="systemMilestoneEnd m-9be1c2e4-0429-44e8-9a28-53af1f60a5a6" />
         </g>
         <g id="phxjijo" class="pageMilestoneEnd m-f180d9e5-118e-4bf9-8f66-492b636f4737" />
         <g id="pc25p9y" class="pageMilestoneEnd m-208af7a8-6068-4c9c-aaec-2aaf175f2ad7" />
         <g id="p671hex" class="pgHead autogenerated">
            <text font-size="0px">
               <tspan id="r1of3ho4" class="rend" x="10000" y="415" text-anchor="middle">
                  <title class="labelAttr">title</title>
                  <tspan id="r1sro3l8" class="rend">
                     <tspan id="t73rh6h" class="text">
                        <tspan font-size="607px">34_rock_120_beat_4-4</tspan>
                     </tspan>
                  </tspan>
                  <tspan id="l5piwyd" class="lb" />
                  <tspan id="r11v6rhq" class="rend">
                     <tspan id="t1oj14fb" class="text" x="10000" y="805">
                        <tspan font-size="324px">34_rock_120_beat_4-4</tspan>
                     </tspan>
                  </tspan>
               </tspan>
            </text>
         </g>
         <g id="psl9ejv" class="pgFoot autogenerated">
            <g id="fwh6520" class="fig">
               <g class="svg" transform="translate(7750, 28099) scale(10.000000, 10.000000)">
                  <g>
                     <path fill="#00000" d="M 17.11278,49.26451 V 10.367554 h 12.696511 c 3.288815,7.336676 6.71267,14.610456 10.127281,21.888976 3.419998,-7.484684 6.255515,-14.204887 9.58887,-21.909915 2.436207,0.103726 4.316952,0.08453 6.484294,-0.05808 V 49.264423 H 50.274275 C 50.145222,38.35639 50.016136,27.448368 49.887066,16.540329 45.003488,27.315459 39.967448,38.433564 35.083854,49.208695 34.678996,49.343717 34.426583,49.135619 34.021726,49.270644 29.46588,39.330716 24.910049,29.390805 20.354201,19.450876 20.224341,29.388756 20.09461,39.326619 19.964815,49.264497 H 17.11278 Z M 36.754144,39.324695 C 32.721221,30.512695 28.6883,21.700679 24.655394,12.888662 22.530527,12.750737 22.656775,12.71031 20.714356,12.813974 v 0.966497 c 4.612938,9.99784 9.609439,20.748709 13.87298,30.081745 0.722248,-1.512523 1.444528,-3.025014 2.166808,-4.537521 z m 25.738417,9.939815 c 0,-12.965651 0,-25.931305 0,-38.896956 10.084388,0 20.168791,0 30.253178,0 0,0.960416 0,1.920849 0,2.881265 -6.482825,0 -12.965652,0 -19.448478,0 0,4.802097 0,9.604178 0,14.406277 5.52241,0 11.044819,0 16.567229,0 0,0.960415 0,1.920832 0,2.881248 -5.52241,0 -11.044819,0 -16.567229,0 0,5.282306 0,10.564611 0,15.846917 6.963035,0 13.926068,0 20.889103,0 0,0.960416 0,1.920832 0,2.881249 -10.564597,0 -21.129207,0 -31.693803,0 z m 4.321874,-2.160937 c 0,-11.765131 0,-23.530263 0,-35.295394 -0.720312,0 -1.440625,0 -2.160937,0 0,11.765131 0,23.530263 0,35.295394 0.720312,0 1.440625,0 2.160937,0 z m 32.41413,2.160937 c 0,-12.965651 0,-25.931305 0,-38.896956 2.401045,0 4.802095,0 7.203135,0 0,12.965651 0,25.931305 0,38.896956 -2.40104,0 -4.80209,0 -7.203135,0 z m 2.881265,-2.160937 c 0,-11.765131 0,-23.530263 0,-35.295394 -0.72031,0 -1.44064,0 -2.160953,0 0,11.765131 0,23.530263 0,35.295394 0.720313,0 1.440643,0 2.160953,0 z" />
                     <path fill="#00000" d="m 346.3,6.7 c -3.1,0.5 -4.9,4.4 -2.7,6.8 1.2,1.4 2.7,2.4 4.1,3.5 -2.4,5.3 -7.7,8.3 -11.9,12.1 -3.7,2.8 -7,6.2 -9.7,9.9 -2.2,-0.8 -0.3,-6.8 -0.6,-9.5 0.1,-3.1 0.7,-6.4 2.9,-8.7 1.3,-1.9 3,-3.5 4.5,-5.2 1.2,-3.4 -3.2,-4.9 -5.8,-4.6 -7.3,-0.5 -14.6,2 -20,6.8 -5,4.6 -10,10.1 -11.5,17 -0.9,3.5 -0.2,7.5 2.8,9.9 2.5,2.8 7.4,2.9 9.8,-0.2 1.7,-2.3 3.2,-4.8 3.8,-7.6 -0.1,-2.6 -4.4,-2.3 -4.3,0.2 1.2,2.4 -0.9,4.7 -2.7,6.2 -1.7,0.9 -4.7,0.7 -4.8,-1.7 -1,-5.8 2.1,-11.3 5.2,-16.1 4,-5.8 9.8,-11.2 17.2,-11.8 1.6,0 8.1,-1.2 6.8,1.4 -2.8,2.8 -5.6,6.1 -6,10.3 -1.6,7.7 0.1,15.7 -2.3,23.2 -1.1,3.9 2,2.6 2.5,0.2 3.3,-7.4 8.9,-13.4 15.1,-18.5 4.2,-3.9 9.5,-7.1 11.9,-12.6 1.3,-3.6 1.2,-9 -2.7,-10.9 -0.6,-0.2 -1.2,-0.3 -1.8,-0.3 z m 66,14.5 c -2,0.8 -1.8,4.9 0.8,4.4 3.4,0.4 2.9,-6.2 -0.8,-4.4 z m 0.6,7.3 c -1.3,0.5 -7.6,0.5 -5.4,2.2 4,-0.3 0.7,4.5 0.6,6.7 -0.4,2.9 -2.4,5.9 -1.2,8.8 2.7,1.7 5.6,-0.8 6.8,-3.2 1.6,-1.4 -0.5,-3 -1.2,-0.9 -0.4,0.8 -2.4,3.5 -2.6,1.8 1.1,-5 2.7,-9.9 3.9,-14.9 l -0.1,-0.5 h -0.9 z m -65.1,0.2 c -6.5,1.6 -10.5,9.5 -8.2,15.7 2.1,3.4 7.4,2.9 10.1,0.4 2,-0.2 3.6,-5.3 1,-3.4 -1.4,2 -4,4.2 -6.5,2.8 -2.2,-1.9 -1.9,-5.7 1.7,-5.3 3.1,-0.9 6.9,-2.1 8.1,-5.5 0.9,-2.7 -1.6,-5.2 -4.3,-4.8 h -1.1 -0.7 z m 13.6,0 c -2.2,0 -8.5,1.8 -2.9,2.3 0.9,1.9 -1,4.9 -1.1,7.2 -0.5,2.9 -1.4,5.7 -1.7,8.7 3.7,0.7 3.8,-2.6 4.4,-5.3 0.9,-3.3 1.6,-7 4.1,-9.5 2.4,1.6 6.8,-0.7 3.7,-3.4 -2.9,-0.5 -4.8,2.4 -6.2,4.3 0,-1.2 2.4,-5 -0.2,-4.3 z m 15.8,0 c -6.4,1.3 -9.6,9.1 -7.7,14.9 1.9,4 7.7,3.9 11,1.7 4.1,-3 6,-8.9 4.4,-13.7 -1.3,-3 -4.8,-3.2 -7.6,-3 z m 17,0 c -2.3,0 -8.8,1.9 -3,2.4 0.4,2.5 -1,5.7 -1.4,8.4 -0.7,2.4 -1.8,7.5 2.1,7.2 3.8,-0.1 6.5,-3.5 8.5,-6.3 2,-3.2 4.5,-7 3.3,-10.9 -3.7,-3 -3.6,2.6 -3.1,5.1 -0.7,3.8 -2.7,7.9 -6.2,9.8 -3.6,0.6 -1,-4.3 -0.8,-6.1 0.6,-3.2 1.6,-6.3 1.9,-9.5 -0.4,0 -0.8,0 -1.1,0 z m 30.6,0 c -6.3,1.2 -9.5,8.9 -7.8,14.7 1.5,4 7.2,4.2 10.5,2.4 4.6,-2.8 6.6,-9.3 4.8,-14.3 -1.4,-2.8 -4.8,-3 -7.5,-2.8 z m -75.4,1.7 c 2.1,1.5 0.2,4.7 -1.6,5.7 -1.1,0.4 -5.5,3.4 -4.6,0.7 0.8,-2.7 2.2,-6.2 5.3,-6.6 l 0.9,0.1 z m 30.8,0 c 2.6,1.5 1.3,5.2 0.8,7.6 -0.8,2.7 -1.9,5.9 -4.7,7.1 -5.1,0.8 -4,-5.8 -2.8,-8.8 1,-2.8 3,-6.8 6.7,-5.8 z m 47.1,-0.1 c 2.9,0.7 2,4.7 1.5,6.8 -0.7,3 -1.8,6.7 -5,8 -4.7,0.8 -4,-5.1 -3,-7.9 0.9,-3 2.7,-7.3 6.5,-6.8 z m -88.1,5.9 c -0.3,1.3 0.9,-0.6 0,0 z m -1.1,2.4 c -0.2,0.5 0.5,-0.1 0,0 z m -1.3,4.5 c -0.3,1.3 0.8,-0.2 0,0 z" />
                     <text y="41" x="201" fill="#00000" style="font-style:italic;font-weight:normal;font-size:30px;line-height:125%;font-family:Times;text-anchor:middle" xml:space="preserve">engraved with</text>
                  </g>
               </g>
            </g>
         </g>
      </g>
   </svg>
</svg>
