<?xml version="1.0" encoding="UTF-8" standalone="no"?>
<svg width="2100px" height="2970px" version="1.1" xmlns="http://www.w3.org/2000/svg" xmlns:xlink="http://www.w3.org/1999/xlink" xmlns:mei="http://www.music-encoding.org/ns/mei" overflow="visible">
   <desc>Engraved by Verovio 4.4.0-66ab39c</desc>
   <defs>
      <symbol id="E084-1g67ake" viewBox="0 0 1000 1000" overflow="inherit">
         <path transform="scale(1,-1)" d="M20 -78c84 97 114 180 134 329h170c-13 -32 -82 -132 -99 -151l-84 -97c-33 -36 -59 -63 -80 -81h162v102l127 123v-225h57v-39h-57v-34c0 -43 19 -65 57 -65v-34h-244v36c48 0 60 26 60 70v27h-203v39z" />
      </symbol>
      <symbol id="E0A4-1g67ake" viewBox="0 0 1000 1000" overflow="inherit">
         <path transform="scale(1,-1)" d="M0 -39c0 68 73 172 200 172c66 0 114 -37 114 -95c0 -84 -106 -171 -218 -171c-64 0 -96 30 -96 94z" />
      </symbol>
      <symbol id="E241-1g67ake" viewBox="0 0 1000 1000" overflow="inherit">
         <path transform="scale(1,-1)" d="M179 646c-4 8 -17 30 -18 33l-4 10c0 3 2 5 5 5s7 -2 13 -7c23 -33 46 -81 66 -132c22 -57 35 -125 35 -163c0 -104 -60 -183 -122 -241c-63 -59 -57 -53 -61 -56c-38 -34 -63 -95 -71 -95h-22v190c40 7 69 11 87 16c88 27 168 95 168 200c0 30 -12 89 -30 138 c-17 47 -31 73 -46 102z" />
      </symbol>
      <symbol id="E4E6-1g67ake" viewBox="0 0 1000 1000" overflow="inherit">
         <path transform="scale(1,-1)" d="M0 123c7 34 33 56 69 60c29 -3 43 -9 53 -29c4 -8 7 -15 10 -22c0 -21 -1 -25 -11 -35c-5 -8 -18 -14 -40 -20l12 -3l15 -1c44 0 97 26 122 56c10 11 18 26 24 42c7 1 15 2 22 3l-140 -424h-36l111 330c-10 -6 -27 -12 -53 -16l-52 -8h-10l-20 1c-1 0 -8 3 -21 6 c-37 9 -55 28 -55 60z" />
      </symbol>
      <symbol id="E4E7-1g67ake" viewBox="0 0 1000 1000" overflow="inherit">
         <path transform="scale(1,-1)" d="M133 -111c0 -33 -21 -50 -52 -55c10 -3 18 -4 25 -4c40 0 69 24 90 47l66 197c-36 -18 -64 -25 -112 -25c-23 0 -38 3 -45 8c-37 7 -55 27 -55 59c8 35 30 54 68 58c45 -6 49 -13 64 -48c0 -3 1 -5 1 -7c0 -27 -25 -46 -52 -49c6 -4 15 -6 26 -6c32 2 62 14 88 29 c32 19 44 36 59 71l7 1l10 2h4c-72 -220 -143 -439 -215 -659h-37l108 324c-20 -13 -51 -20 -82 -20c-21 0 -35 4 -43 10c-37 6 -55 26 -55 58c8 35 31 56 68 60c43 -8 48 -13 64 -51z" />
      </symbol>
      <symbol id="E222-1g67ake" viewBox="0 0 1000 1000" overflow="inherit">
         <path transform="scale(1,-1)" d="M-163 -200l326 150v-100l-326 -150v100zM-163 150l326 150v-100l-326 -150v100zM-163 -25l326 150v-100l-326 -150v100z" />
      </symbol>
      <symbol id="E069-1g67ake" viewBox="0 0 1000 1000" overflow="inherit">
         <path transform="scale(1,-1)" d="M200 250h125v-500h-125v500zM0 250h125v-500h-125v500z" />
      </symbol>
      <symbol id="E245-1g67ake" viewBox="0 0 1000 1000" overflow="inherit">
         <path transform="scale(1,-1)" d="M248 463c-23 -48 -58 -89 -94 -122c-63 -59 -57 -53 -61 -56c-30 -27 -44 -71 -53 -88c20 3 36 6 47 9c88 27 168 95 168 200c0 19 -3 39 -7 57zM215 729c-5 8 -10 13 -11 16l-4 10c0 3 2 5 5 5s7 -2 13 -7c35 -42 58 -100 58 -171c0 -34 -6 -65 -17 -94 c10 -31 17 -64 17 -96c0 -36 -7 -69 -19 -99c9 -11 18 -32 19 -91v-6c0 -101 -61 -178 -122 -235c-63 -59 -57 -53 -61 -56c-38 -34 -51 -95 -59 -95h-34v190v190v190c40 7 69 11 87 16c116 36 174 110 174 196c0 44 -15 91 -46 137zM247 270c-23 -47 -58 -86 -93 -119 c-63 -59 -57 -53 -61 -56c-30 -27 -44 -71 -53 -88c20 3 36 6 47 9c88 27 168 95 168 200c0 26 -4 43 -8 54z" />
      </symbol>
      <symbol id="E0A9-1g67ake" viewBox="0 0 1000 1000" overflow="inherit">
         <path transform="scale(1,-1)" d="M0 -110c0 4 1 8 5 11l119 99l-119 100c-3 3 -5 8 -5 12c0 6 5 13 12 13c3 0 6 -1 8 -2l124 -105l126 105c2 1 5 2 7 2c6 0 13 -6 13 -14c0 -4 -2 -9 -5 -11l-119 -100l119 -99c3 -3 5 -7 5 -12c0 -6 -5 -14 -13 -14c-2 0 -5 1 -7 3l-126 105l-124 -105c-2 -2 -4 -3 -7 -3 c-8 0 -13 7 -13 15z" />
      </symbol>
   </defs>
   <style type="text/css">g.page-margin{font-family:Times,serif;} g.ending, g.fing, g.reh, g.tempo{font-weight:bold;} g.dir, g.dynam, g.mNum{font-style:italic;} g.label{font-weight:normal;}</style>
   <svg class="definition-scale" color="black" viewBox="0 0 21000 29700">
      <g class="page-margin" transform="translate(500, 500)">
         <g id="m-ce145d7e-521c-495b-b54e-1c3ff9ef97bb" class="mdiv pageMilestone" />
         <g id="m-b3252796-45a7-453a-8003-f6929e741800" class="score pageMilestone" />
         <g id="s1g3r0tf" class="system">
            <g id="m-c49e509e-4f2c-42fa-8882-915d7145feb4" class="section systemMilestone" />
            <g id="m-380f3171-e878-4420-bf63-4922ae375443" class="measure">
               <g id="m-58930f99-98a1-4127-b3f6-5e78f37f7d1c" class="staff">
                  <path d="M0 1731 L5798 1731" stroke="currentColor" stroke-width="13" />
                  <path d="M0 1911 L5798 1911" stroke="currentColor" stroke-width="13" />
                  <path d="M0 2091 L5798 2091" stroke="currentColor" stroke-width="13" />
                  <path d="M0 2271 L5798 2271" stroke="currentColor" stroke-width="13" />
                  <path d="M0 2451 L5798 2451" stroke="currentColor" stroke-width="13" />
                  <g id="cxr9qlx" class="clef">
                     <use xlink:href="#E069-1g67ake" x="90" y="2091" height="720px" width="720px" />
                  </g>
                  <g id="k1e93z2d" class="keySig" />
                  <g id="mle8n8i" class="meterSig">
                     <use xlink:href="#E084-1g67ake" x="490" y="1911" height="720px" width="720px" />
                     <use xlink:href="#E084-1g67ake" x="490" y="2271" height="720px" width="720px" />
                  </g>
                  <g class="ledgerLines below">
                     <path d="M2557 2631 L2861 2631" stroke="currentColor" stroke-width="22" />
                  </g>
                  <g id="m-4806e42e-550d-4855-9288-32e7f6dc7df2" class="layer">
                     <g id="m-e8c8a805-247d-479f-a030-2a19ce93a4e8" class="rest">
                        <use xlink:href="#E4E6-1g67ake" x="1052" y="1551" height="720px" width="720px" />
                     </g>
                     <g id="m-026c8da9-956c-4452-a0f0-83dc8f32f0e4" class="beam">
                        <polygon points="2197,1056 2515,1056 2515,1146 2197,1146" />
                        <polygon points="2197,1191 2515,1191 2515,1281 2197,1281" />
                        <g id="m-e7d7075c-444f-40a8-a4b5-4a79803c6b63" class="note">
                           <g class="notehead">
                              <use xlink:href="#E0A9-1g67ake" x="2007" y="1641" height="720px" width="720px" />
                           </g>
                           <g id="s10g7lz7" class="stem">
                              <path d="M2206 1562 L2206 1074" stroke="currentColor" stroke-width="18" />
                           </g>
                        </g>
                        <g id="m-81ea6757-8174-4242-80d6-da250ed5d836" class="note">
                           <g class="notehead">
                              <use xlink:href="#E0A9-1g67ake" x="2307" y="1641" height="720px" width="720px" />
                           </g>
                           <g id="swwvmqh" class="stem">
                              <path d="M2506 1562 L2506 1074" stroke="currentColor" stroke-width="18" />
                           </g>
                        </g>
                     </g>
                     <g id="m-d9cbb465-ed38-4848-ba31-876f39f27d17" class="beam">
                        <polygon points="3093,1191 3561,1191 3561,1281 3093,1281" />
                        <g id="m-102da77a-1985-453e-8727-45533d41963b" class="note">
                           <g class="notehead">
                              <use xlink:href="#E0A9-1g67ake" x="2903" y="1641" height="720px" width="720px" />
                           </g>
                           <g id="s1uxtlkh" class="stem">
                              <path d="M3102 1562 L3102 1209" stroke="currentColor" stroke-width="18" />
                           </g>
                        </g>
                        <g id="m-dae289e9-7422-44c5-a471-45ac19167b72" class="note">
                           <g class="notehead">
                              <use xlink:href="#E0A9-1g67ake" x="3353" y="1641" height="720px" width="720px" />
                           </g>
                           <g id="spl07ws" class="stem">
                              <path d="M3552 1562 L3552 1209" stroke="currentColor" stroke-width="18" />
                           </g>
                        </g>
                     </g>
                     <g id="m-e088b274-e4fd-4f8c-bc2f-e618408be243" class="beam">
                        <polygon points="3993,1191 4461,1191 4461,1281 3993,1281" />
                        <g id="m-d3919c4c-a89f-4a89-9865-fcc97a91f036" class="note">
                           <g class="notehead">
                              <use xlink:href="#E0A9-1g67ake" x="3803" y="1641" height="720px" width="720px" />
                           </g>
                           <g id="siv4jca" class="stem">
                              <path d="M4002 1562 L4002 1209" stroke="currentColor" stroke-width="18" />
                           </g>
                        </g>
                        <g id="m-430116cb-7535-4dd1-a01c-615ebbed9742" class="note">
                           <g class="notehead">
                              <use xlink:href="#E0A9-1g67ake" x="4253" y="1641" height="720px" width="720px" />
                           </g>
                           <g id="s1v69khr" class="stem">
                              <path d="M4452 1562 L4452 1209" stroke="currentColor" stroke-width="18" />
                           </g>
                        </g>
                     </g>
                     <g id="m-df42ea62-b702-4182-b3df-071295f7a9ed" class="beam">
                        <polygon points="5075,1191 5543,1191 5543,1281 5075,1281" />
                        <g id="m-0bba1d9e-ca24-4462-8e76-7c72b967d180" class="note">
                           <g class="notehead">
                              <use xlink:href="#E0A9-1g67ake" x="4885" y="1641" height="720px" width="720px" />
                           </g>
                           <g id="szbislm" class="stem">
                              <path d="M5084 1562 L5084 1209" stroke="currentColor" stroke-width="18" />
                           </g>
                        </g>
                        <g id="m-b138c9b0-a882-46a7-9341-79a77e92cecd" class="note">
                           <g class="notehead">
                              <use xlink:href="#E0A9-1g67ake" x="5335" y="1641" height="720px" width="720px" />
                           </g>
                           <g id="s1vh5wv7" class="stem">
                              <path d="M5534 1562 L5534 1209" stroke="currentColor" stroke-width="18" />
                           </g>
                        </g>
                     </g>
                  </g>
                  <g id="m-0db0e72d-1501-48ee-a84f-3e7b2f2bf44d" class="layer">
                     <g id="m-892d2e12-5d09-4d95-a093-3f49414a89c3" class="rest">
                        <use xlink:href="#E4E7-1g67ake" x="1052" y="2271" height="720px" width="720px" />
                     </g>
                     <g id="m-dba20b77-b91c-4db2-8717-93d6ba7574a7" class="beam">
                        <polygon points="1375,3171 1709,3351 1709,3261 1375,3081" />
                        <polygon points="1375,3036 1709,3216 1709,3126 1375,2946" />
                        <polygon points="1375,2901 1709,3081 1709,2991 1375,2811" />
                        <g id="m-d6660917-9dba-417d-9c15-a448bd46e55c" class="note">
                           <g class="notehead">
                              <use xlink:href="#E0A4-1g67ake" x="1375" y="2091" height="720px" width="720px" />
                           </g>
                           <g id="s13kpq7p" class="stem">
                              <path d="M1384 2119 L1384 3153" stroke="currentColor" stroke-width="18" />
                           </g>
                           <g id="ane2ogs" class="accid" />
                        </g>
                        <g id="m-f0099876-b001-44a2-ad19-5587ee716ae4" class="note">
                           <g class="notehead">
                              <use xlink:href="#E0A4-1g67ake" x="1691" y="2541" height="720px" width="720px" />
                           </g>
                           <g id="s7hz9us" class="stem">
                              <path d="M1700 2569 L1700 3333" stroke="currentColor" stroke-width="18" />
                           </g>
                        </g>
                     </g>
                     <g id="m-9d9e90ea-94f8-4182-987f-69a19aeb8361" class="rest">
                        <use xlink:href="#E4E7-1g67ake" x="2007" y="2811" height="720px" width="720px" />
                        <g id="d1x96fr2" class="dots">
                           <ellipse cx="2330" cy="2721" rx="36" ry="36" />
                        </g>
                     </g>
                     <g id="m-87c35f80-a327-49eb-b0e8-29feb5b22d48" class="note">
                        <g class="notehead">
                           <use xlink:href="#E0A9-1g67ake" x="2605" y="2721" height="720px" width="720px" />
                        </g>
                        <g id="s1q8w9na" class="stem">
                           <path d="M2614 2800 L2614 3441" stroke="currentColor" stroke-width="18" />
                           <g id="faxbuxq" class="flag">
                              <use xlink:href="#E245-1g67ake" x="2605" y="3441" height="720px" width="720px" />
                           </g>
                        </g>
                        <g id="a1rc0n35" class="accid" />
                     </g>
                     <g id="m-c4b8e894-57d5-4685-94bf-ebb8602fbe05" class="note">
                        <g class="notehead">
                           <use xlink:href="#E0A4-1g67ake" x="2903" y="2091" height="720px" width="720px" />
                        </g>
                        <g id="s17uu0v0" class="stem">
                           <path d="M2912 2119 L2912 2691" stroke="currentColor" stroke-width="18" />
                        </g>
                        <g id="akm502w" class="accid" />
                     </g>
                     <g id="m-f07c83d1-86e4-43d4-a54a-5ae5b8390019" class="beam">
                        <polygon points="3803,3126 4587,3126 4587,3036 3803,3036" />
                        <polygon points="4262,2991 4587,2991 4587,2901 4262,2901" />
                        <g id="m-9614af9c-c996-4247-b91e-1a8317577cc4" class="note">
                           <g class="notehead">
                              <use xlink:href="#E0A4-1g67ake" x="3803" y="2091" height="720px" width="720px" />
                           </g>
                           <g id="s1icmdw" class="stem">
                              <path d="M3812 2119 L3812 3108" stroke="currentColor" stroke-width="18" />
                           </g>
                           <g id="ad0isdu" class="accid" />
                        </g>
                        <g id="m-9f811c7e-4081-4132-a62c-63d5d823ad39" class="note">
                           <g class="notehead">
                              <use xlink:href="#E0A4-1g67ake" x="4253" y="2541" height="720px" width="720px" />
                           </g>
                           <g id="sz4uri4" class="stem">
                              <path d="M4262 2569 L4262 3108" stroke="currentColor" stroke-width="18" />
                           </g>
                        </g>
                        <g id="m-ae1a3e04-c193-4155-bb83-2ecc972d6c88" class="note">
                           <g class="notehead">
                              <use xlink:href="#E0A4-1g67ake" x="4569" y="2091" height="720px" width="720px" />
                           </g>
                           <g id="s1o3yymf" class="stem">
                              <path d="M4578 2119 L4578 3108" stroke="currentColor" stroke-width="18" />
                           </g>
                           <g id="a1g6rm0a" class="accid" />
                        </g>
                     </g>
                     <g id="m-fda7e60c-d42f-4eb1-8a59-9ae30d130656" class="rest">
                        <use xlink:href="#E4E6-1g67ake" x="4885" y="2271" height="720px" width="720px" />
                     </g>
                     <g id="m-c038d7b3-be63-4ed4-8475-5dee84fbc252" class="note">
                        <g class="notehead">
                           <use xlink:href="#E0A4-1g67ake" x="5335" y="2091" height="720px" width="720px" />
                        </g>
                        <g id="sw0lmq7" class="stem">
                           <path d="M5344 2119 L5344 2691" stroke="currentColor" stroke-width="18" />
                           <g id="f1cvyoa3" class="flag">
                              <use xlink:href="#E241-1g67ake" x="5335" y="2691" height="720px" width="720px" />
                           </g>
                        </g>
                        <g id="axkd5qr" class="accid" />
                     </g>
                  </g>
               </g>
               <g id="bk8c7te" class="barLine">
                  <path d="M5785 1731 L5785 2451" stroke="currentColor" stroke-width="27" />
               </g>
            </g>
            <g id="m-24cdcfbe-4ff3-4aed-8fa8-1da78c18cf4c" class="measure">
               <g id="m-febcf9cf-8d94-4bce-a361-501bc5cbc15c" class="staff">
                  <path d="M5798 1731 L10302 1731" stroke="currentColor" stroke-width="13" />
                  <path d="M5798 1911 L10302 1911" stroke="currentColor" stroke-width="13" />
                  <path d="M5798 2091 L10302 2091" stroke="currentColor" stroke-width="13" />
                  <path d="M5798 2271 L10302 2271" stroke="currentColor" stroke-width="13" />
                  <path d="M5798 2451 L10302 2451" stroke="currentColor" stroke-width="13" />
                  <g id="m-537490a8-cfa8-4730-b7f4-752105e3d067" class="layer">
                     <g id="m-3f05edda-9443-40ab-9247-4d94a6a0e1c7" class="beam">
                        <polygon points="6168,1191 6818,1191 6818,1281 6168,1281" />
                        <g id="m-dc17e6fd-3d20-418c-ab2f-b72ab6436cb2" class="note">
                           <g class="notehead">
                              <use xlink:href="#E0A9-1g67ake" x="5978" y="1641" height="720px" width="720px" />
                           </g>
                           <g id="sokkf70" class="stem">
                              <path d="M6177 1562 L6177 1209" stroke="currentColor" stroke-width="18" />
                           </g>
                        </g>
                        <g id="m-16825d7c-88c1-4078-9c29-bba4d2887fec" class="note">
                           <g class="notehead">
                              <use xlink:href="#E0A9-1g67ake" x="6610" y="1641" height="720px" width="720px" />
                           </g>
                           <g id="sylfm8a" class="stem">
                              <path d="M6809 1562 L6809 1209" stroke="currentColor" stroke-width="18" />
                           </g>
                        </g>
                     </g>
                     <g id="m-19e464b6-c1d7-48fd-89b7-fad25d8ed4d8" class="beam">
                        <polygon points="7597,1191 8065,1191 8065,1281 7597,1281" />
                        <g id="m-2b644283-b2b0-43f2-a470-293422dcd94b" class="note">
                           <g class="notehead">
                              <use xlink:href="#E0A9-1g67ake" x="7407" y="1641" height="720px" width="720px" />
                           </g>
                           <g id="s1jlm0g7" class="stem">
                              <path d="M7606 1562 L7606 1209" stroke="currentColor" stroke-width="18" />
                           </g>
                        </g>
                        <g id="m-3c457908-4eb5-4c53-a525-7c4616736aed" class="note">
                           <g class="notehead">
                              <use xlink:href="#E0A9-1g67ake" x="7857" y="1641" height="720px" width="720px" />
                           </g>
                           <g id="s1u2q86v" class="stem">
                              <path d="M8056 1562 L8056 1209" stroke="currentColor" stroke-width="18" />
                           </g>
                        </g>
                     </g>
                     <g id="m-21c67a7d-e4a7-4aa8-bf47-8556966646a9" class="beam">
                        <polygon points="8497,1191 9147,1191 9147,1281 8497,1281" />
                        <g id="m-cb3647e8-bfcd-4fd2-8130-7e2cdcb18d88" class="note">
                           <g class="notehead">
                              <use xlink:href="#E0A9-1g67ake" x="8307" y="1641" height="720px" width="720px" />
                           </g>
                           <g id="srjy94b" class="stem">
                              <path d="M8506 1562 L8506 1209" stroke="currentColor" stroke-width="18" />
                           </g>
                        </g>
                        <g id="m-370ddf4e-04f9-49a8-be41-85912f8dba37" class="note">
                           <g class="notehead">
                              <use xlink:href="#E0A9-1g67ake" x="8939" y="1641" height="720px" width="720px" />
                           </g>
                           <g id="s1nfk2c0" class="stem">
                              <path d="M9138 1562 L9138 1209" stroke="currentColor" stroke-width="18" />
                           </g>
                        </g>
                     </g>
                     <g id="m-7b02a69d-dc57-4fce-8c42-cfec956cbb30" class="beam">
                        <polygon points="9579,1191 10047,1191 10047,1281 9579,1281" />
                        <g id="m-2daac4ef-f4c8-4b3a-a102-7df0f16f5230" class="note">
                           <g class="notehead">
                              <use xlink:href="#E0A9-1g67ake" x="9389" y="1641" height="720px" width="720px" />
                           </g>
                           <g id="s1kobkaq" class="stem">
                              <path d="M9588 1562 L9588 1209" stroke="currentColor" stroke-width="18" />
                           </g>
                        </g>
                        <g id="m-48861486-2bce-412c-a634-4f16d89eabb8" class="note">
                           <g class="notehead">
                              <use xlink:href="#E0A9-1g67ake" x="9839" y="1641" height="720px" width="720px" />
                           </g>
                           <g id="s1y6fvzg" class="stem">
                              <path d="M10038 1562 L10038 1209" stroke="currentColor" stroke-width="18" />
                           </g>
                        </g>
                     </g>
                  </g>
                  <g id="m-aeada7bc-d101-4fac-9376-ccd6f6611043" class="layer">
                     <g id="m-278547e9-1b8f-4aff-b0fb-ac271c91cd9f" class="beam">
                        <polygon points="5978,3126 7052,3126 7052,3036 5978,3036" />
                        <polygon points="5978,2991 6303,2991 6303,2901 5978,2901" />
                        <polygon points="6303,2991 6619,2991 6619,2901 6303,2901" />
                        <polygon points="6619,2991 7052,2991 7052,2901 6619,2901" />
                        <g id="m-e554f3fa-3412-4f5e-ac22-f6654bc90afb" class="note">
                           <g class="notehead">
                              <use xlink:href="#E0A4-1g67ake" x="5978" y="2091" height="720px" width="720px" />
                           </g>
                           <g id="s1mjltb0" class="stem">
                              <path d="M5987 2119 L5987 3108" stroke="currentColor" stroke-width="18" />
                           </g>
                           <g id="a1jzebl" class="accid" />
                        </g>
                        <g id="m-d9f7a85f-5055-4a86-9b5b-6020fa621f42" class="note">
                           <g class="notehead">
                              <use xlink:href="#E0A4-1g67ake" x="6294" y="2091" height="720px" width="720px" />
                           </g>
                           <g id="sekww0g" class="stem">
                              <path d="M6303 2119 L6303 3108" stroke="currentColor" stroke-width="18" />
                           </g>
                           <g id="a1dzhjm5" class="accid" />
                        </g>
                        <g id="m-ed8ec55d-5d53-46ad-81b3-e8ac87d6b61f" class="note">
                           <g class="notehead">
                              <use xlink:href="#E0A4-1g67ake" x="6610" y="2541" height="720px" width="720px" />
                           </g>
                           <g id="s9wkeyb" class="stem">
                              <path d="M6619 2569 L6619 3108" stroke="currentColor" stroke-width="18" />
                           </g>
                        </g>
                        <g id="m-be468a27-005a-4566-b9b6-d67fdf5a1d21" class="note">
                           <g class="notehead">
                              <use xlink:href="#E0A4-1g67ake" x="7034" y="2091" height="720px" width="720px" />
                           </g>
                           <g id="slykloj" class="stem">
                              <path d="M7043 2119 L7043 3108" stroke="currentColor" stroke-width="18" />
                              <use xlink:href="#E222-1g67ake" x="7043" y="2577" height="720px" width="720px" />
                           </g>
                           <g id="a1m95mb9" class="accid" />
                        </g>
                     </g>
                     <g id="m-ee0b9efa-8592-4e4d-99a1-fa3279c03c76" class="beam">
                        <polygon points="7407,3036 7875,2991 7875,2901 7407,2946" />
                        <g id="m-bcd9e860-ec24-45f9-b056-1fb7323557c9" class="note">
                           <g class="notehead">
                              <use xlink:href="#E0A4-1g67ake" x="7407" y="2541" height="720px" width="720px" />
                           </g>
                           <g id="s15z9d9x" class="stem">
                              <path d="M7416 2569 L7416 3018" stroke="currentColor" stroke-width="18" />
                           </g>
                        </g>
                        <g id="m-be6110a6-507f-4c27-a197-a0369efe6e98" class="note">
                           <g class="notehead">
                              <use xlink:href="#E0A4-1g67ake" x="7857" y="2091" height="720px" width="720px" />
                           </g>
                           <g id="sy6lt4i" class="stem">
                              <path d="M7866 2119 L7866 2973" stroke="currentColor" stroke-width="18" />
                           </g>
                           <g id="a1w4bfxl" class="accid" />
                        </g>
                     </g>
                     <g id="m-6fa457ff-982c-4c07-bfb6-8baab6e66154" class="beam">
                        <polygon points="8307,3126 8957,3126 8957,3036 8307,3036" />
                        <polygon points="8307,2991 8632,2991 8632,2901 8307,2901" />
                        <g id="m-598914d5-46dc-4b34-acd2-db750a0664a9" class="note">
                           <g class="notehead">
                              <use xlink:href="#E0A4-1g67ake" x="8307" y="2091" height="720px" width="720px" />
                           </g>
                           <g id="sebdozm" class="stem">
                              <path d="M8316 2119 L8316 3108" stroke="currentColor" stroke-width="18" />
                           </g>
                           <g id="a2vn0xx" class="accid" />
                        </g>
                        <g id="m-29535318-3b15-44c4-8caa-1602a350d065" class="note">
                           <g class="notehead">
                              <use xlink:href="#E0A4-1g67ake" x="8623" y="2541" height="720px" width="720px" />
                           </g>
                           <g id="s1djvl4q" class="stem">
                              <path d="M8632 2569 L8632 3108" stroke="currentColor" stroke-width="18" />
                           </g>
                        </g>
                        <g id="m-540f0e70-d51f-4025-a362-ac31bdff8bff" class="note">
                           <g class="notehead">
                              <use xlink:href="#E0A4-1g67ake" x="8939" y="2091" height="720px" width="720px" />
                           </g>
                           <g id="s1xokhrr" class="stem">
                              <path d="M8948 2119 L8948 3108" stroke="currentColor" stroke-width="18" />
                           </g>
                           <g id="apqkaqh" class="accid" />
                        </g>
                     </g>
                     <g id="m-86d97330-a907-43b1-82db-f6f58a50c87a" class="beam">
                        <polygon points="9389,2991 9857,3036 9857,2946 9389,2901" />
                        <g id="m-feb0dfbc-7518-422a-bf9b-f715c4be00b0" class="note">
                           <g class="notehead">
                              <use xlink:href="#E0A4-1g67ake" x="9389" y="2091" height="720px" width="720px" />
                           </g>
                           <g id="s1drstiq" class="stem">
                              <path d="M9398 2119 L9398 2973" stroke="currentColor" stroke-width="18" />
                           </g>
                           <g id="a1foputd" class="accid" />
                        </g>
                        <g id="m-c8b19461-e427-463a-8240-e1e12a3d902b" class="chord">
                           <g id="sau9sz4" class="stem">
                              <path d="M9848 2119 L9848 3018" stroke="currentColor" stroke-width="18" />
                           </g>
                           <g id="m-8af3fd80-e69d-46e1-84dd-4e9cc9078208" class="note">
                              <g class="notehead">
                                 <use xlink:href="#E0A4-1g67ake" x="9839" y="2541" height="720px" width="720px" />
                              </g>
                           </g>
                           <g id="m-012be31f-e8c1-48d7-bb80-802626a78f19" class="note">
                              <g class="notehead">
                                 <use xlink:href="#E0A4-1g67ake" x="9839" y="2091" height="720px" width="720px" />
                              </g>
                              <g id="a17d1zsh" class="accid" />
                           </g>
                        </g>
                     </g>
                  </g>
               </g>
               <g id="b1xv41nv" class="barLine">
                  <path d="M10289 1731 L10289 2451" stroke="currentColor" stroke-width="27" />
               </g>
            </g>
            <g id="sgepukp" class="systemMilestoneEnd m-c49e509e-4f2c-42fa-8882-915d7145feb4" />
         </g>
         <g id="poe9tts" class="pageMilestoneEnd m-b3252796-45a7-453a-8003-f6929e741800" />
         <g id="p1arwwyz" class="pageMilestoneEnd m-ce145d7e-521c-495b-b54e-1c3ff9ef97bb" />
         <g id="p1eqgkfu" class="pgHead autogenerated">
            <text font-size="0px">
               <tspan id="r375ihr" class="rend" x="10000" y="416" text-anchor="middle">
                  <title class="labelAttr">title</title>
                  <tspan id="r1kft6g6" class="rend">
                     <tspan id="te93sxi" class="text">
                        <tspan font-size="607px">76_funk_100_beat_4-4</tspan>
                     </tspan>
                  </tspan>
                  <tspan id="l1hdbvfs" class="lb" />
                  <tspan id="r1kbq8uv" class="rend">
                     <tspan id="tk3oop6" class="text" x="10000" y="806">
                        <tspan font-size="324px">76_funk_100_beat_4-4</tspan>
                     </tspan>
                  </tspan>
               </tspan>
            </text>
         </g>
         <g id="p609t2u" class="pgFoot autogenerated">
            <g id="fvvtf6u" class="fig">
               <g class="svg" transform="translate(7750, 28099) scale(10.000000, 10.000000)">
                  <g>
                     <path fill="#00000" d="M 17.11278,49.26451 V 10.367554 h 12.696511 c 3.288815,7.336676 6.71267,14.610456 10.127281,21.888976 3.419998,-7.484684 6.255515,-14.204887 9.58887,-21.909915 2.436207,0.103726 4.316952,0.08453 6.484294,-0.05808 V 49.264423 H 50.274275 C 50.145222,38.35639 50.016136,27.448368 49.887066,16.540329 45.003488,27.315459 39.967448,38.433564 35.083854,49.208695 34.678996,49.343717 34.426583,49.135619 34.021726,49.270644 29.46588,39.330716 24.910049,29.390805 20.354201,19.450876 20.224341,29.388756 20.09461,39.326619 19.964815,49.264497 H 17.11278 Z M 36.754144,39.324695 C 32.721221,30.512695 28.6883,21.700679 24.655394,12.888662 22.530527,12.750737 22.656775,12.71031 20.714356,12.813974 v 0.966497 c 4.612938,9.99784 9.609439,20.748709 13.87298,30.081745 0.722248,-1.512523 1.444528,-3.025014 2.166808,-4.537521 z m 25.738417,9.939815 c 0,-12.965651 0,-25.931305 0,-38.896956 10.084388,0 20.168791,0 30.253178,0 0,0.960416 0,1.920849 0,2.881265 -6.482825,0 -12.965652,0 -19.448478,0 0,4.802097 0,9.604178 0,14.406277 5.52241,0 11.044819,0 16.567229,0 0,0.960415 0,1.920832 0,2.881248 -5.52241,0 -11.044819,0 -16.567229,0 0,5.282306 0,10.564611 0,15.846917 6.963035,0 13.926068,0 20.889103,0 0,0.960416 0,1.920832 0,2.881249 -10.564597,0 -21.129207,0 -31.693803,0 z m 4.321874,-2.160937 c 0,-11.765131 0,-23.530263 0,-35.295394 -0.720312,0 -1.440625,0 -2.160937,0 0,11.765131 0,23.530263 0,35.295394 0.720312,0 1.440625,0 2.160937,0 z m 32.41413,2.160937 c 0,-12.965651 0,-25.931305 0,-38.896956 2.401045,0 4.802095,0 7.203135,0 0,12.965651 0,25.931305 0,38.896956 -2.40104,0 -4.80209,0 -7.203135,0 z m 2.881265,-2.160937 c 0,-11.765131 0,-23.530263 0,-35.295394 -0.72031,0 -1.44064,0 -2.160953,0 0,11.765131 0,23.530263 0,35.295394 0.720313,0 1.440643,0 2.160953,0 z" />
                     <path fill="#00000" d="m 346.3,6.7 c -3.1,0.5 -4.9,4.4 -2.7,6.8 1.2,1.4 2.7,2.4 4.1,3.5 -2.4,5.3 -7.7,8.3 -11.9,12.1 -3.7,2.8 -7,6.2 -9.7,9.9 -2.2,-0.8 -0.3,-6.8 -0.6,-9.5 0.1,-3.1 0.7,-6.4 2.9,-8.7 1.3,-1.9 3,-3.5 4.5,-5.2 1.2,-3.4 -3.2,-4.9 -5.8,-4.6 -7.3,-0.5 -14.6,2 -20,6.8 -5,4.6 -10,10.1 -11.5,17 -0.9,3.5 -0.2,7.5 2.8,9.9 2.5,2.8 7.4,2.9 9.8,-0.2 1.7,-2.3 3.2,-4.8 3.8,-7.6 -0.1,-2.6 -4.4,-2.3 -4.3,0.2 1.2,2.4 -0.9,4.7 -2.7,6.2 -1.7,0.9 -4.7,0.7 -4.8,-1.7 -1,-5.8 2.1,-11.3 5.2,-16.1 4,-5.8 9.8,-11.2 17.2,-11.8 1.6,0 8.1,-1.2 6.8,1.4 -2.8,2.8 -5.6,6.1 -6,10.3 -1.6,7.7 0.1,15.7 -2.3,23.2 -1.1,3.9 2,2.6 2.5,0.2 3.3,-7.4 8.9,-13.4 15.1,-18.5 4.2,-3.9 9.5,-7.1 11.9,-12.6 1.3,-3.6 1.2,-9 -2.7,-10.9 -0.6,-0.2 -1.2,-0.3 -1.8,-0.3 z m 66,14.5 c -2,0.8 -1.8,4.9 0.8,4.4 3.4,0.4 2.9,-6.2 -0.8,-4.4 z m 0.6,7.3 c -1.3,0.5 -7.6,0.5 -5.4,2.2 4,-0.3 0.7,4.5 0.6,6.7 -0.4,2.9 -2.4,5.9 -1.2,8.8 2.7,1.7 5.6,-0.8 6.8,-3.2 1.6,-1.4 -0.5,-3 -1.2,-0.9 -0.4,0.8 -2.4,3.5 -2.6,1.8 1.1,-5 2.7,-9.9 3.9,-14.9 l -0.1,-0.5 h -0.9 z m -65.1,0.2 c -6.5,1.6 -10.5,9.5 -8.2,15.7 2.1,3.4 7.4,2.9 10.1,0.4 2,-0.2 3.6,-5.3 1,-3.4 -1.4,2 -4,4.2 -6.5,2.8 -2.2,-1.9 -1.9,-5.7 1.7,-5.3 3.1,-0.9 6.9,-2.1 8.1,-5.5 0.9,-2.7 -1.6,-5.2 -4.3,-4.8 h -1.1 -0.7 z m 13.6,0 c -2.2,0 -8.5,1.8 -2.9,2.3 0.9,1.9 -1,4.9 -1.1,7.2 -0.5,2.9 -1.4,5.7 -1.7,8.7 3.7,0.7 3.8,-2.6 4.4,-5.3 0.9,-3.3 1.6,-7 4.1,-9.5 2.4,1.6 6.8,-0.7 3.7,-3.4 -2.9,-0.5 -4.8,2.4 -6.2,4.3 0,-1.2 2.4,-5 -0.2,-4.3 z m 15.8,0 c -6.4,1.3 -9.6,9.1 -7.7,14.9 1.9,4 7.7,3.9 11,1.7 4.1,-3 6,-8.9 4.4,-13.7 -1.3,-3 -4.8,-3.2 -7.6,-3 z m 17,0 c -2.3,0 -8.8,1.9 -3,2.4 0.4,2.5 -1,5.7 -1.4,8.4 -0.7,2.4 -1.8,7.5 2.1,7.2 3.8,-0.1 6.5,-3.5 8.5,-6.3 2,-3.2 4.5,-7 3.3,-10.9 -3.7,-3 -3.6,2.6 -3.1,5.1 -0.7,3.8 -2.7,7.9 -6.2,9.8 -3.6,0.6 -1,-4.3 -0.8,-6.1 0.6,-3.2 1.6,-6.3 1.9,-9.5 -0.4,0 -0.8,0 -1.1,0 z m 30.6,0 c -6.3,1.2 -9.5,8.9 -7.8,14.7 1.5,4 7.2,4.2 10.5,2.4 4.6,-2.8 6.6,-9.3 4.8,-14.3 -1.4,-2.8 -4.8,-3 -7.5,-2.8 z m -75.4,1.7 c 2.1,1.5 0.2,4.7 -1.6,5.7 -1.1,0.4 -5.5,3.4 -4.6,0.7 0.8,-2.7 2.2,-6.2 5.3,-6.6 l 0.9,0.1 z m 30.8,0 c 2.6,1.5 1.3,5.2 0.8,7.6 -0.8,2.7 -1.9,5.9 -4.7,7.1 -5.1,0.8 -4,-5.8 -2.8,-8.8 1,-2.8 3,-6.8 6.7,-5.8 z m 47.1,-0.1 c 2.9,0.7 2,4.7 1.5,6.8 -0.7,3 -1.8,6.7 -5,8 -4.7,0.8 -4,-5.1 -3,-7.9 0.9,-3 2.7,-7.3 6.5,-6.8 z m -88.1,5.9 c -0.3,1.3 0.9,-0.6 0,0 z m -1.1,2.4 c -0.2,0.5 0.5,-0.1 0,0 z m -1.3,4.5 c -0.3,1.3 0.8,-0.2 0,0 z" />
                     <text y="41" x="201" fill="#00000" style="font-style:italic;font-weight:normal;font-size:30px;line-height:125%;font-family:Times;text-anchor:middle" xml:space="preserve">engraved with</text>
                  </g>
               </g>
            </g>
         </g>
      </g>
   </svg>
</svg>
