<?xml version="1.0" encoding="UTF-8" standalone="no"?>
<svg width="2100px" height="2970px" version="1.1" xmlns="http://www.w3.org/2000/svg" xmlns:xlink="http://www.w3.org/1999/xlink" xmlns:mei="http://www.music-encoding.org/ns/mei" overflow="visible">
   <desc>Engraved by Verovio 4.4.0-66ab39c</desc>
   <defs>
      <symbol id="E242-p0q9o8" viewBox="0 0 1000 1000" overflow="inherit">
         <path transform="scale(1,-1)" d="M206 -748c32 48 49 100 49 149c0 89 -55 168 -168 203c-18 5 -47 9 -87 16v190v190h22c8 0 33 -61 71 -95c4 -3 -2 3 61 -56c62 -58 122 -137 122 -241c0 -32 -7 -65 -17 -96c11 -29 17 -60 17 -94c0 -71 -32 -148 -67 -190c-6 -5 -10 -7 -13 -7s-5 2 -5 5l4 10 c1 3 6 8 11 16zM248 -463c4 18 7 38 7 57c0 105 -80 173 -168 200c-11 3 -27 6 -47 9c9 -17 23 -61 53 -88c4 -3 -2 3 61 -56c36 -33 71 -74 94 -122z" />
      </symbol>
      <symbol id="E244-p0q9o8" viewBox="0 0 1000 1000" overflow="inherit">
         <path transform="scale(1,-1)" d="M248 -463c4 18 7 38 7 57c0 105 -80 173 -168 200c-11 3 -27 6 -47 9c9 -17 23 -61 53 -88c4 -3 -2 3 61 -56c36 -33 71 -74 94 -122zM206 -748c32 48 49 100 49 149c0 89 -55 168 -168 203c-18 5 -47 9 -87 16v190v190v190h22c8 0 33 -61 71 -95c4 -3 -2 3 61 -56 c61 -57 122 -134 122 -235v-6c-1 -59 -10 -80 -19 -91c12 -30 19 -63 19 -99c0 -32 -7 -65 -17 -96c11 -29 17 -60 17 -94c0 -71 -32 -148 -67 -190c-6 -5 -10 -7 -13 -7s-5 2 -5 5l4 10c1 3 6 8 11 16zM247 -270c4 11 8 28 8 54c0 105 -80 173 -168 200c-11 3 -27 6 -47 9 c9 -17 23 -61 53 -88c4 -3 -2 3 61 -56c35 -33 70 -72 93 -119z" />
      </symbol>
      <symbol id="E243-p0q9o8" viewBox="0 0 1000 1000" overflow="inherit">
         <path transform="scale(1,-1)" d="M216 730c-5 8 -10 13 -11 16l-4 10c0 3 2 5 5 5s7 -2 13 -7c35 -42 57 -101 57 -172c0 -34 -6 -65 -17 -94c10 -31 17 -64 17 -96c0 -104 -60 -183 -122 -241c-63 -59 -57 -53 -61 -56c-38 -34 -63 -95 -71 -95h-22v190v190c40 7 69 11 87 16c116 36 175 111 175 197 c0 44 -15 91 -46 137zM248 463c-23 -48 -58 -89 -94 -122c-63 -59 -57 -53 -61 -56c-30 -27 -44 -71 -53 -88c20 3 36 6 47 9c88 27 168 95 168 200c0 19 -3 39 -7 57z" />
      </symbol>
      <symbol id="E0A9-p0q9o8" viewBox="0 0 1000 1000" overflow="inherit">
         <path transform="scale(1,-1)" d="M0 -110c0 4 1 8 5 11l119 99l-119 100c-3 3 -5 8 -5 12c0 6 5 13 12 13c3 0 6 -1 8 -2l124 -105l126 105c2 1 5 2 7 2c6 0 13 -6 13 -14c0 -4 -2 -9 -5 -11l-119 -100l119 -99c3 -3 5 -7 5 -12c0 -6 -5 -14 -13 -14c-2 0 -5 1 -7 3l-126 105l-124 -105c-2 -2 -4 -3 -7 -3 c-8 0 -13 7 -13 15z" />
      </symbol>
      <symbol id="E069-p0q9o8" viewBox="0 0 1000 1000" overflow="inherit">
         <path transform="scale(1,-1)" d="M200 250h125v-500h-125v500zM0 250h125v-500h-125v500z" />
      </symbol>
      <symbol id="E4E3-p0q9o8" viewBox="0 0 1000 1000" overflow="inherit">
         <path transform="scale(1,-1)" d="M0 -115v105c0 9 1 10 10 10h280c9 0 10 -1 10 -10v-105c0 -9 -1 -10 -10 -10h-280c-9 0 -10 1 -10 10z" />
      </symbol>
      <symbol id="E084-p0q9o8" viewBox="0 0 1000 1000" overflow="inherit">
         <path transform="scale(1,-1)" d="M20 -78c84 97 114 180 134 329h170c-13 -32 -82 -132 -99 -151l-84 -97c-33 -36 -59 -63 -80 -81h162v102l127 123v-225h57v-39h-57v-34c0 -43 19 -65 57 -65v-34h-244v36c48 0 60 26 60 70v27h-203v39z" />
      </symbol>
      <symbol id="E0A2-p0q9o8" viewBox="0 0 1000 1000" overflow="inherit">
         <path transform="scale(1,-1)" d="M198 133c102 0 207 -45 207 -133c0 -92 -118 -133 -227 -133c-101 0 -178 46 -178 133c0 88 93 133 198 133zM293 -21c0 14 -3 29 -8 44c-7 20 -18 38 -33 54c-20 21 -43 31 -68 31l-20 -2c-15 -5 -27 -14 -36 -28c-4 -9 -6 -17 -8 -24s-3 -16 -3 -27c0 -15 3 -34 9 -57 s18 -41 34 -55c15 -15 36 -23 62 -23c4 0 10 1 18 2c19 5 32 15 40 30s13 34 13 55z" />
      </symbol>
      <symbol id="E0A4-p0q9o8" viewBox="0 0 1000 1000" overflow="inherit">
         <path transform="scale(1,-1)" d="M0 -39c0 68 73 172 200 172c66 0 114 -37 114 -95c0 -84 -106 -171 -218 -171c-64 0 -96 30 -96 94z" />
      </symbol>
      <symbol id="E240-p0q9o8" viewBox="0 0 1000 1000" overflow="inherit">
         <path transform="scale(1,-1)" d="M179 -646c15 29 29 55 46 102c18 49 30 108 30 138c0 105 -80 173 -168 200c-18 5 -47 9 -87 16v190h22c8 0 33 -61 71 -95c4 -3 -2 3 61 -56c62 -58 122 -137 122 -241c0 -38 -13 -106 -35 -163c-20 -51 -43 -99 -66 -132c-6 -5 -10 -7 -13 -7s-5 2 -5 5l4 10 c1 3 14 25 18 33z" />
      </symbol>
      <symbol id="E4E6-p0q9o8" viewBox="0 0 1000 1000" overflow="inherit">
         <path transform="scale(1,-1)" d="M0 123c7 34 33 56 69 60c29 -3 43 -9 53 -29c4 -8 7 -15 10 -22c0 -21 -1 -25 -11 -35c-5 -8 -18 -14 -40 -20l12 -3l15 -1c44 0 97 26 122 56c10 11 18 26 24 42c7 1 15 2 22 3l-140 -424h-36l111 330c-10 -6 -27 -12 -53 -16l-52 -8h-10l-20 1c-1 0 -8 3 -21 6 c-37 9 -55 28 -55 60z" />
      </symbol>
      <symbol id="E4E7-p0q9o8" viewBox="0 0 1000 1000" overflow="inherit">
         <path transform="scale(1,-1)" d="M133 -111c0 -33 -21 -50 -52 -55c10 -3 18 -4 25 -4c40 0 69 24 90 47l66 197c-36 -18 -64 -25 -112 -25c-23 0 -38 3 -45 8c-37 7 -55 27 -55 59c8 35 30 54 68 58c45 -6 49 -13 64 -48c0 -3 1 -5 1 -7c0 -27 -25 -46 -52 -49c6 -4 15 -6 26 -6c32 2 62 14 88 29 c32 19 44 36 59 71l7 1l10 2h4c-72 -220 -143 -439 -215 -659h-37l108 324c-20 -13 -51 -20 -82 -20c-21 0 -35 4 -43 10c-37 6 -55 26 -55 58c8 35 31 56 68 60c43 -8 48 -13 64 -51z" />
      </symbol>
      <symbol id="E4E8-p0q9o8" viewBox="0 0 1000 1000" overflow="inherit">
         <path transform="scale(1,-1)" d="M69 -54c44 -9 49 -10 63 -50c0 -14 -1 -24 -4 -29c-7 -11 -23 -20 -47 -26c6 -3 15 -4 25 -4c18 0 39 7 61 22c18 12 30 26 30 26l61 187c-22 -12 -48 -21 -81 -21c-18 0 -34 3 -46 9c-36 9 -54 29 -54 61c8 34 31 58 68 58c34 0 63 -24 63 -57c0 -11 -4 -21 -10 -30 c-4 -5 -16 -12 -39 -18c8 -3 16 -5 24 -5c35 0 71 25 88 45l66 198c-12 -11 -33 -12 -55 -17c-18 -4 -29 -8 -35 -8h-15l-28 2c-10 1 -17 3 -23 6c-37 7 -56 26 -56 59c9 33 33 59 72 59c33 0 53 -21 61 -49c0 -37 -17 -47 -51 -55c5 -4 13 -6 24 -6c14 0 29 3 45 8 c47 15 89 43 101 92l18 2l4 -1l-288 -889h-37l106 318c-17 -10 -43 -15 -72 -15c-22 0 -40 3 -52 9c-35 8 -55 23 -55 61c8 35 31 54 68 58z" />
      </symbol>
   </defs>
   <style type="text/css">g.page-margin{font-family:Times,serif;} g.ending, g.fing, g.reh, g.tempo{font-weight:bold;} g.dir, g.dynam, g.mNum{font-style:italic;} g.label{font-weight:normal;}</style>
   <svg class="definition-scale" color="black" viewBox="0 0 21000 29700">
      <g class="page-margin" transform="translate(500, 500)">
         <g id="m-2580ad82-792b-4b37-a4d9-1d975c17b8cf" class="mdiv pageMilestone" />
         <g id="m-d646f4b5-a00b-4d46-9ef8-171d7cc52c9f" class="score pageMilestone" />
         <g id="s1kaq6m1" class="system">
            <g id="m-b58accd3-effc-4fe7-addc-58d07b037dde" class="section systemMilestone" />
            <g id="m-3d3c1901-4848-45b2-a7b7-d8902e382832" class="measure">
               <g id="m-390ceee6-fbd3-44ca-9f9e-9ccd32ba9d7d" class="staff">
                  <path d="M0 1955 L7271 1955" stroke="currentColor" stroke-width="13" />
                  <path d="M0 2135 L7271 2135" stroke="currentColor" stroke-width="13" />
                  <path d="M0 2315 L7271 2315" stroke="currentColor" stroke-width="13" />
                  <path d="M0 2495 L7271 2495" stroke="currentColor" stroke-width="13" />
                  <path d="M0 2675 L7271 2675" stroke="currentColor" stroke-width="13" />
                  <g id="c8tu8gx" class="clef">
                     <use xlink:href="#E069-p0q9o8" x="90" y="2315" height="720px" width="720px" />
                  </g>
                  <g id="k19gilg0" class="keySig" />
                  <g id="m126mxf4" class="meterSig">
                     <use xlink:href="#E084-p0q9o8" x="490" y="2135" height="720px" width="720px" />
                     <use xlink:href="#E084-p0q9o8" x="490" y="2495" height="720px" width="720px" />
                  </g>
                  <g class="ledgerLines above">
                     <path d="M1636 1775 L1940 1775" stroke="currentColor" stroke-width="22" />
                     <path d="M3300 1775 L3604 1775" stroke="currentColor" stroke-width="22" />
                     <path d="M4589 1775 L4893 1775" stroke="currentColor" stroke-width="22" />
                     <path d="M5925 1775 L6229 1775" stroke="currentColor" stroke-width="22" />
                  </g>
                  <g id="m-e6b4483a-af73-4332-a8eb-4b13f02e0d52" class="layer">
                     <g id="m-318f9edf-bcfe-42e0-af86-e1be96053d8a" class="rest">
                        <use xlink:href="#E4E6-p0q9o8" x="1052" y="1595" height="720px" width="720px" />
                     </g>
                     <g id="m-d7842ee8-6f77-4528-b136-ca0c806b6b35" class="note">
                        <g class="notehead">
                           <use xlink:href="#E0A9-p0q9o8" x="1684" y="1685" height="720px" width="720px" />
                        </g>
                        <g id="szh6cv1" class="stem">
                           <path d="M1883 1606 L1883 1175" stroke="currentColor" stroke-width="18" />
                           <g id="fc8dw0h" class="flag">
                              <use xlink:href="#E240-p0q9o8" x="1874" y="1175" height="720px" width="720px" />
                           </g>
                        </g>
                        <g id="a3cq2a4" class="accid" />
                     </g>
                     <g id="m-1b941a5f-d548-47d2-b7ad-1e7cd655e69a" class="rest">
                        <use xlink:href="#E4E8-p0q9o8" x="2674" y="1595" height="720px" width="720px" />
                     </g>
                     <g id="m-66475867-dc23-477d-9ae2-7d6f676c9e04" class="beam">
                        <polygon points="3240,1235 3556,1055 3556,1145 3240,1325" />
                        <polygon points="3240,1370 3466,1234 3466,1324 3240,1460" />
                        <polygon points="3240,1505 3466,1369 3466,1459 3240,1595" />
                        <g id="m-ca5fb6ae-b12f-4ff6-9717-5115e0689dae" class="note">
                           <g class="notehead">
                              <use xlink:href="#E0A9-p0q9o8" x="3050" y="1865" height="720px" width="720px" />
                           </g>
                           <g id="sbg40eq" class="stem">
                              <path d="M3249 1786 L3249 1253" stroke="currentColor" stroke-width="18" />
                           </g>
                        </g>
                        <g id="m-b958bc5b-fc74-4b62-bc38-edf9da50e9d3" class="note">
                           <g class="notehead">
                              <use xlink:href="#E0A9-p0q9o8" x="3348" y="1685" height="720px" width="720px" />
                           </g>
                           <g id="dg7hacq" class="dots">
                              <ellipse cx="3646" cy="1685" rx="36" ry="36" />
                           </g>
                           <g id="s1g55kia" class="stem">
                              <path d="M3547 1606 L3547 1073" stroke="currentColor" stroke-width="18" />
                           </g>
                           <g id="a1mcvxy1" class="accid" />
                        </g>
                     </g>
                     <g id="m-c9266b09-3461-4c8e-bdae-490d228041ea" class="rest">
                        <use xlink:href="#E4E7-p0q9o8" x="4314" y="1595" height="720px" width="720px" />
                     </g>
                     <g id="m-e9a3e045-e659-45e4-829d-5652a769bb04" class="note">
                        <g class="notehead">
                           <use xlink:href="#E0A9-p0q9o8" x="4637" y="1685" height="720px" width="720px" />
                        </g>
                        <g id="s1ngx1x0" class="stem">
                           <path d="M4836 1606 L4836 1175" stroke="currentColor" stroke-width="18" />
                           <g id="f7pkeq7" class="flag">
                              <use xlink:href="#E242-p0q9o8" x="4827" y="1175" height="720px" width="720px" />
                           </g>
                        </g>
                        <g id="a14rq269" class="accid" />
                     </g>
                     <g id="m-961a0b51-cc14-4a20-8c3f-edb06d8bc65a" class="rest">
                        <use xlink:href="#E4E7-p0q9o8" x="5115" y="1595" height="720px" width="720px" />
                        <g id="d822sfd" class="dots">
                           <ellipse cx="5438" cy="1505" rx="36" ry="36" />
                        </g>
                     </g>
                     <g id="m-827155cd-b4e3-4c4d-9115-b60e6a88e7bd" class="note">
                        <g class="notehead">
                           <use xlink:href="#E0A9-p0q9o8" x="5495" y="1865" height="720px" width="720px" />
                        </g>
                        <g id="sz3n6rp" class="stem">
                           <path d="M5694 1786 L5694 1355" stroke="currentColor" stroke-width="18" />
                           <g id="fpg4rjv" class="flag">
                              <use xlink:href="#E244-p0q9o8" x="5685" y="1355" height="720px" width="720px" />
                           </g>
                        </g>
                     </g>
                     <g id="m-926079fb-c8a9-4fec-9a57-b3ea595fac68" class="note">
                        <g class="notehead">
                           <use xlink:href="#E0A9-p0q9o8" x="5973" y="1685" height="720px" width="720px" />
                        </g>
                        <g id="sgf3whz" class="stem">
                           <path d="M6172 1606 L6172 1235" stroke="currentColor" stroke-width="18" />
                        </g>
                        <g id="atc13at" class="accid" />
                     </g>
                  </g>
                  <g id="m-0f84377f-da8c-4345-afa2-110b85815b98" class="layer">
                     <g id="m-af48c68c-6d0b-48c1-805f-81620ff9b30d" class="beam">
                        <polygon points="1052,3485 2406,3485 2406,3395 1052,3395" />
                        <polygon points="1052,3350 1278,3350 1278,3260 1052,3260" />
                        <polygon points="2081,3350 2406,3350 2406,3260 2081,3260" />
                        <polygon points="2081,3215 2406,3215 2406,3125 2081,3125" />
                        <g id="m-7551f378-b599-4c19-a4c9-29aba67a713b" class="note">
                           <g class="notehead">
                              <use xlink:href="#E0A4-p0q9o8" x="1052" y="2765" height="720px" width="720px" />
                           </g>
                           <g id="s801tyv" class="stem">
                              <path d="M1061 2793 L1061 3467" stroke="currentColor" stroke-width="18" />
                           </g>
                        </g>
                        <g id="m-1e39aeb7-46b2-4cb7-8a3c-06635be2c13d" class="note">
                           <g class="notehead">
                              <use xlink:href="#E0A4-p0q9o8" x="1368" y="2315" height="720px" width="720px" />
                           </g>
                           <g id="s153u3m0" class="stem">
                              <path d="M1377 2343 L1377 3467" stroke="currentColor" stroke-width="18" />
                           </g>
                           <g id="a16zhqx4" class="accid" />
                        </g>
                        <g id="m-546f0a94-40ca-44de-b83f-7984a866f3ba" class="note">
                           <g class="notehead">
                              <use xlink:href="#E0A4-p0q9o8" x="2072" y="2765" height="720px" width="720px" />
                           </g>
                           <g id="so0jhkb" class="stem">
                              <path d="M2081 2793 L2081 3467" stroke="currentColor" stroke-width="18" />
                           </g>
                        </g>
                        <g id="m-e655d052-9fe3-4350-929b-207bb784d1ca" class="note">
                           <g class="notehead">
                              <use xlink:href="#E0A4-p0q9o8" x="2388" y="2315" height="720px" width="720px" />
                           </g>
                           <g id="sj93v6q" class="stem">
                              <path d="M2397 2343 L2397 3467" stroke="currentColor" stroke-width="18" />
                           </g>
                           <g id="a1tj9n85" class="accid" />
                        </g>
                     </g>
                     <g id="m-5e6ffdff-9e56-488d-825b-085796981e74" class="rest">
                        <use xlink:href="#E4E6-p0q9o8" x="2674" y="2495" height="720px" width="720px" />
                     </g>
                     <g id="m-5c86309a-8786-413f-9909-4abd34841db3" class="beam">
                        <polygon points="3682,3395 4016,3440 4016,3350 3682,3305" />
                        <polygon points="3682,3260 4016,3305 4016,3215 3682,3170" />
                        <g id="m-fc495992-892b-423a-99ca-2515e8d05a10" class="note">
                           <g class="notehead">
                              <use xlink:href="#E0A4-p0q9o8" x="3682" y="2315" height="720px" width="720px" />
                           </g>
                           <g id="s30ngkc" class="stem">
                              <path d="M3691 2343 L3691 3377" stroke="currentColor" stroke-width="18" />
                           </g>
                           <g id="a1y6f1i6" class="accid" />
                        </g>
                        <g id="m-c1f877ee-bb7f-43e9-b64a-78ede1536d77" class="note">
                           <g class="notehead">
                              <use xlink:href="#E0A4-p0q9o8" x="3998" y="2765" height="720px" width="720px" />
                           </g>
                           <g id="s1w7tx8v" class="stem">
                              <path d="M4007 2793 L4007 3422" stroke="currentColor" stroke-width="18" />
                           </g>
                        </g>
                     </g>
                     <g id="m-2acd481e-f51e-4c33-a8f8-1ab1fd7dea94" class="beam">
                        <polygon points="4314,3035 5133,3215 5133,3125 4314,2945" />
                        <g id="m-580ce342-0a39-485c-8a49-54dafbd555f4" class="note">
                           <g class="notehead">
                              <use xlink:href="#E0A4-p0q9o8" x="4314" y="2315" height="720px" width="720px" />
                           </g>
                           <g id="s2fedvi" class="stem">
                              <path d="M4323 2343 L4323 3017" stroke="currentColor" stroke-width="18" />
                           </g>
                           <g id="a1tgxopm" class="accid" />
                        </g>
                        <g id="m-a6e00724-1c95-406e-b4fb-f02416a31b7b" class="chord">
                           <g id="s4wttua" class="stem">
                              <path d="M5124 2343 L5124 3197" stroke="currentColor" stroke-width="18" />
                           </g>
                           <g id="m-a86e1d5c-b5cb-475d-b8be-1397ced5bc1d" class="note">
                              <g class="notehead">
                                 <use xlink:href="#E0A4-p0q9o8" x="5115" y="2765" height="720px" width="720px" />
                              </g>
                           </g>
                           <g id="m-7285b0db-91e6-4f3d-b674-1e8728f5f7b2" class="note">
                              <g class="notehead">
                                 <use xlink:href="#E0A4-p0q9o8" x="5115" y="2315" height="720px" width="720px" />
                              </g>
                              <g id="abs8cyu" class="accid" />
                           </g>
                        </g>
                     </g>
                     <g id="m-b6bd50d4-7468-470b-9ac8-ce14ab01fb84" class="rest">
                        <use xlink:href="#E4E7-p0q9o8" x="5973" y="2495" height="720px" width="720px" />
                     </g>
                     <g id="m-b47de590-c25b-4c35-9252-4a0897f421f6" class="beam">
                        <polygon points="6296,3350 6946,3350 6946,3260 6296,3260" />
                        <polygon points="6296,3215 6621,3215 6621,3125 6296,3125" />
                        <polygon points="6621,3215 6946,3215 6946,3125 6621,3125" />
                        <g id="m-6c48fa70-f2c3-48aa-bd92-45e9fd1a9f89" class="note">
                           <g class="notehead">
                              <use xlink:href="#E0A4-p0q9o8" x="6296" y="2315" height="720px" width="720px" />
                           </g>
                           <g id="s1c93rsa" class="stem">
                              <path d="M6305 2343 L6305 3332" stroke="currentColor" stroke-width="18" />
                           </g>
                           <g id="a14x1chy" class="accid" />
                        </g>
                        <g id="m-2ea67f42-5b04-47ad-8dc5-cb34337b4d2e" class="note">
                           <g class="notehead">
                              <use xlink:href="#E0A4-p0q9o8" x="6612" y="2765" height="720px" width="720px" />
                           </g>
                           <g id="swht12h" class="stem">
                              <path d="M6621 2793 L6621 3332" stroke="currentColor" stroke-width="18" />
                           </g>
                        </g>
                        <g id="m-7789365e-179f-47de-a797-216ac92283ae" class="note">
                           <g class="notehead">
                              <use xlink:href="#E0A4-p0q9o8" x="6928" y="2315" height="720px" width="720px" />
                           </g>
                           <g id="s1c2thok" class="stem">
                              <path d="M6937 2343 L6937 3332" stroke="currentColor" stroke-width="18" />
                           </g>
                           <g id="a1rut77a" class="accid" />
                        </g>
                     </g>
                  </g>
               </g>
               <g id="b1cgr44r" class="barLine">
                  <path d="M7258 1955 L7258 2675" stroke="currentColor" stroke-width="27" />
               </g>
            </g>
            <g id="m-2233a022-147a-4075-9527-67d7f7f708fa" class="measure">
               <g id="m-0110916e-5811-4e93-9d39-8265c99a2d47" class="staff">
                  <path d="M7271 1955 L13966 1955" stroke="currentColor" stroke-width="13" />
                  <path d="M7271 2135 L13966 2135" stroke="currentColor" stroke-width="13" />
                  <path d="M7271 2315 L13966 2315" stroke="currentColor" stroke-width="13" />
                  <path d="M7271 2495 L13966 2495" stroke="currentColor" stroke-width="13" />
                  <path d="M7271 2675 L13966 2675" stroke="currentColor" stroke-width="13" />
                  <g class="ledgerLines above">
                     <path d="M7403 1775 L7707 1775" stroke="currentColor" stroke-width="22" />
                     <path d="M9055 1775 L9359 1775" stroke="currentColor" stroke-width="22" />
                     <path d="M10303 1775 L10607 1775" stroke="currentColor" stroke-width="22" />
                     <path d="M11157 1775 L11461 1775" stroke="currentColor" stroke-width="22" />
                     <path d="M11939 1775 L12243 1775" stroke="currentColor" stroke-width="22" />
                     <path d="M13187 1775 L13491 1775" stroke="currentColor" stroke-width="22" />
                  </g>
                  <g id="m-a7922056-8e56-4851-a814-5f847bef730b" class="layer">
                     <g id="m-c9df76f7-37d0-4bce-8d68-5ac9f00a7cdd" class="note">
                        <g class="notehead">
                           <use xlink:href="#E0A9-p0q9o8" x="7451" y="1685" height="720px" width="720px" />
                        </g>
                        <g id="swf2ytf" class="stem">
                           <path d="M7650 1606 L7650 1175" stroke="currentColor" stroke-width="18" />
                           <g id="focwvgr" class="flag">
                              <use xlink:href="#E240-p0q9o8" x="7641" y="1175" height="720px" width="720px" />
                           </g>
                        </g>
                        <g id="aezx3st" class="accid" />
                     </g>
                     <g id="m-266c808f-2511-4903-8cbd-78f795add7f4" class="rest">
                        <use xlink:href="#E4E8-p0q9o8" x="8429" y="1595" height="720px" width="720px" />
                     </g>
                     <g id="m-23a5b132-080c-4325-ab08-8fd0f2173ff7" class="beam">
                        <polygon points="8995,1235 9311,1055 9311,1145 8995,1325" />
                        <polygon points="8995,1370 9311,1190 9311,1280 8995,1460" />
                        <polygon points="8995,1505 9221,1369 9221,1459 8995,1595" />
                        <g id="m-133f0e75-ce46-41ea-b507-498aa9fc57e9" class="note">
                           <g class="notehead">
                              <use xlink:href="#E0A9-p0q9o8" x="8805" y="1865" height="720px" width="720px" />
                           </g>
                           <g id="s153m9cu" class="stem">
                              <path d="M9004 1786 L9004 1253" stroke="currentColor" stroke-width="18" />
                           </g>
                        </g>
                        <g id="m-655b0d03-36be-4e44-a11c-751dcec853a2" class="note">
                           <g class="notehead">
                              <use xlink:href="#E0A9-p0q9o8" x="9103" y="1685" height="720px" width="720px" />
                           </g>
                           <g id="spj1293" class="stem">
                              <path d="M9302 1606 L9302 1073" stroke="currentColor" stroke-width="18" />
                           </g>
                           <g id="ahh9n96" class="accid" />
                        </g>
                     </g>
                     <g id="m-4f3156c2-7809-4ea9-8dfb-28ed25e8fdc3" class="rest">
                        <use xlink:href="#E4E6-p0q9o8" x="9403" y="1595" height="720px" width="720px" />
                        <g id="dizjula" class="dots">
                           <ellipse cx="9691" cy="1505" rx="36" ry="36" />
                        </g>
                     </g>
                     <g id="m-7c7fddd3-a51e-4c4e-8514-12a12ece21d0" class="note">
                        <g class="notehead">
                           <use xlink:href="#E0A9-p0q9o8" x="10351" y="1685" height="720px" width="720px" />
                        </g>
                        <g id="s1m8il2c" class="stem">
                           <path d="M10550 1606 L10550 1175" stroke="currentColor" stroke-width="18" />
                           <g id="f1033k3y" class="flag">
                              <use xlink:href="#E242-p0q9o8" x="10541" y="1175" height="720px" width="720px" />
                           </g>
                        </g>
                        <g id="a132y30a" class="accid" />
                     </g>
                     <g id="m-4c70c053-99ed-44a3-a478-4de021d5c2fc" class="rest">
                        <use xlink:href="#E4E8-p0q9o8" x="10829" y="1595" height="720px" width="720px" />
                     </g>
                     <g id="m-4f181932-c2c6-469c-98f8-d3dd791c07a3" class="beam">
                        <polygon points="11395,1100 12195,1100 12195,1190 11395,1190" />
                        <polygon points="11395,1235 11888,1235 11888,1325 11395,1325" />
                        <polygon points="11662,1370 11888,1370 11888,1460 11662,1460" />
                        <g id="m-106187e3-d429-4212-8059-50555830a2d8" class="note">
                           <g class="notehead">
                              <use xlink:href="#E0A9-p0q9o8" x="11205" y="1685" height="720px" width="720px" />
                           </g>
                           <g id="s12vsnbv" class="stem">
                              <path d="M11404 1606 L11404 1118" stroke="currentColor" stroke-width="18" />
                           </g>
                           <g id="afgeght" class="accid" />
                        </g>
                        <g id="m-40fb0458-47f6-48b8-9f7f-5b1349637f14" class="note">
                           <g class="notehead">
                              <use xlink:href="#E0A9-p0q9o8" x="11689" y="1865" height="720px" width="720px" />
                           </g>
                           <g id="ss1ahf8" class="stem">
                              <path d="M11888 1786 L11888 1118" stroke="currentColor" stroke-width="18" />
                           </g>
                        </g>
                        <g id="m-e54c5244-c2eb-4662-a1cf-1998cd965a07" class="note">
                           <g class="notehead">
                              <use xlink:href="#E0A9-p0q9o8" x="11987" y="1685" height="720px" width="720px" />
                           </g>
                           <g id="s16c3n1b" class="stem">
                              <path d="M12186 1606 L12186 1118" stroke="currentColor" stroke-width="18" />
                           </g>
                           <g id="a13nkjk" class="accid" />
                        </g>
                     </g>
                     <g id="m-ee6710bb-ede4-4dee-98f3-3fae23dd8737" class="rest">
                        <use xlink:href="#E4E6-p0q9o8" x="12603" y="1595" height="720px" width="720px" />
                     </g>
                     <g id="m-e182e5d4-8072-4280-af1c-3f8c0acbb6be" class="note">
                        <g class="notehead">
                           <use xlink:href="#E0A9-p0q9o8" x="13235" y="1685" height="720px" width="720px" />
                        </g>
                        <g id="syq228o" class="stem">
                           <path d="M13434 1606 L13434 1175" stroke="currentColor" stroke-width="18" />
                           <g id="f15mp6zd" class="flag">
                              <use xlink:href="#E240-p0q9o8" x="13425" y="1175" height="720px" width="720px" />
                           </g>
                        </g>
                        <g id="a1xxe4oj" class="accid" />
                     </g>
                  </g>
                  <g id="m-fa07508a-531d-402c-8b1f-c564420796c4" class="layer">
                     <g id="m-363a5ac2-073c-4da1-8a6f-342f69607b97" class="rest">
                        <use xlink:href="#E4E8-p0q9o8" x="7451" y="2855" height="720px" width="720px" />
                     </g>
                     <g id="m-4f25565d-a98c-4008-a023-394a5d6512fd" class="beam">
                        <polygon points="7827,3395 8161,3215 8161,3125 7827,3305" />
                        <polygon points="7827,3260 8161,3080 8161,2990 7827,3170" />
                        <polygon points="7935,3064 8161,2945 8161,2855 7935,2974" />
                        <g id="m-8b4f7e1c-aa6b-400c-b256-fd7f053442c6" class="note">
                           <g class="notehead">
                              <use xlink:href="#E0A4-p0q9o8" x="7827" y="2765" height="720px" width="720px" />
                           </g>
                           <g id="scxux0k" class="stem">
                              <path d="M7836 2793 L7836 3377" stroke="currentColor" stroke-width="18" />
                           </g>
                        </g>
                        <g id="m-ba75be65-a9df-470d-aa0c-4edc97353992" class="note">
                           <g class="notehead">
                              <use xlink:href="#E0A4-p0q9o8" x="8143" y="2315" height="720px" width="720px" />
                           </g>
                           <g id="s11eojyx" class="stem">
                              <path d="M8152 2343 L8152 3197" stroke="currentColor" stroke-width="18" />
                           </g>
                           <g id="aohhuve" class="accid" />
                        </g>
                     </g>
                     <g id="m-8a8c6a31-6148-4588-ae2b-72641eb999e6" class="rest">
                        <use xlink:href="#E4E6-p0q9o8" x="8429" y="2495" height="720px" width="720px" />
                     </g>
                     <g id="m-d45de122-03ce-4619-938e-dda0aa1c66e1" class="beam">
                        <polygon points="9403,3350 10053,3350 10053,3260 9403,3260" />
                        <polygon points="9403,3215 9728,3215 9728,3125 9403,3125" />
                        <g id="m-99650dc2-350f-44ff-9a09-26efc22fd8cb" class="note">
                           <g class="notehead">
                              <use xlink:href="#E0A4-p0q9o8" x="9403" y="2315" height="720px" width="720px" />
                           </g>
                           <g id="s29qc2h" class="stem">
                              <path d="M9412 2343 L9412 3332" stroke="currentColor" stroke-width="18" />
                           </g>
                           <g id="an93yga" class="accid" />
                        </g>
                        <g id="m-3f458860-79ee-4305-974d-159f78578961" class="note">
                           <g class="notehead">
                              <use xlink:href="#E0A4-p0q9o8" x="9719" y="2765" height="720px" width="720px" />
                           </g>
                           <g id="s1rm8egt" class="stem">
                              <path d="M9728 2793 L9728 3332" stroke="currentColor" stroke-width="18" />
                           </g>
                        </g>
                        <g id="m-1b420de3-5970-4929-a14e-a3eebc6f0b39" class="note">
                           <g class="notehead">
                              <use xlink:href="#E0A4-p0q9o8" x="10035" y="2315" height="720px" width="720px" />
                           </g>
                           <g id="s2hlhfe" class="stem">
                              <path d="M10044 2343 L10044 3332" stroke="currentColor" stroke-width="18" />
                           </g>
                           <g id="a1938uck" class="accid" />
                        </g>
                     </g>
                     <g id="m-e47adf29-bd81-4193-bfc4-c330b0b1cc2f" class="beam">
                        <polygon points="10829,3575 11223,3395 11223,3305 10829,3485" />
                        <polygon points="10829,3440 11223,3260 11223,3170 10829,3350" />
                        <polygon points="10829,3305 11223,3125 11223,3035 10829,3215" />
                        <g id="m-fac3e283-68eb-4926-b1bf-6576e88fc8f9" class="note">
                           <g class="notehead">
                              <use xlink:href="#E0A4-p0q9o8" x="10829" y="2765" height="720px" width="720px" />
                           </g>
                           <g id="sci5k7z" class="stem">
                              <path d="M10838 2793 L10838 3557" stroke="currentColor" stroke-width="18" />
                           </g>
                        </g>
                        <g id="m-8d572d7c-316d-4e0c-8518-2830281ee1d0" class="note">
                           <g class="notehead">
                              <use xlink:href="#E0A4-p0q9o8" x="11205" y="2315" height="720px" width="720px" />
                           </g>
                           <g id="s9gsbjh" class="stem">
                              <path d="M11214 2343 L11214 3377" stroke="currentColor" stroke-width="18" />
                           </g>
                           <g id="a1fxq3mr" class="accid" />
                        </g>
                     </g>
                     <g id="m-1f23a6d1-3192-41b9-9e83-7a2da7914e77" class="rest">
                        <use xlink:href="#E4E6-p0q9o8" x="11491" y="2495" height="720px" width="720px" />
                     </g>
                     <g id="m-600d5395-edad-466b-8cff-42547586bfd8" class="note">
                        <g class="notehead">
                           <use xlink:href="#E0A4-p0q9o8" x="12287" y="2315" height="720px" width="720px" />
                        </g>
                        <g id="so5omp5" class="stem">
                           <path d="M12296 2343 L12296 2915" stroke="currentColor" stroke-width="18" />
                           <g id="f1y1ty5c" class="flag">
                              <use xlink:href="#E243-p0q9o8" x="12287" y="2915" height="720px" width="720px" />
                           </g>
                        </g>
                        <g id="a1ngh1dj" class="accid" />
                     </g>
                     <g id="m-ffb8e0a0-41a2-4374-a2ec-3591a93af058" class="beam">
                        <polygon points="12603,3395 13641,3215 13641,3125 12603,3305" />
                        <polygon points="12603,3260 12829,3221 12829,3131 12603,3170" />
                        <polygon points="13415,3117 13641,3080 13641,2990 13415,3027" />
                        <g id="m-77e53843-f4a5-45cd-9de3-e27ec1ce227f" class="note">
                           <g class="notehead">
                              <use xlink:href="#E0A4-p0q9o8" x="12603" y="2765" height="720px" width="720px" />
                           </g>
                           <g id="s1rzastb" class="stem">
                              <path d="M12612 2793 L12612 3377" stroke="currentColor" stroke-width="18" />
                           </g>
                        </g>
                        <g id="m-bee68f21-acf0-4046-815b-877ba01eaf57" class="note">
                           <g class="notehead">
                              <use xlink:href="#E0A4-p0q9o8" x="12919" y="2315" height="720px" width="720px" />
                           </g>
                           <g id="s1wa3x3o" class="stem">
                              <path d="M12928 2343 L12928 3322" stroke="currentColor" stroke-width="18" />
                           </g>
                           <g id="abg8d4n" class="accid" />
                        </g>
                        <g id="m-3de9052d-63ea-42f5-b40a-638ee749fccd" class="note">
                           <g class="notehead">
                              <use xlink:href="#E0A4-p0q9o8" x="13623" y="2315" height="720px" width="720px" />
                           </g>
                           <g id="s1nq688n" class="stem">
                              <path d="M13632 2343 L13632 3197" stroke="currentColor" stroke-width="18" />
                           </g>
                           <g id="a36rmrv" class="accid" />
                        </g>
                     </g>
                  </g>
               </g>
               <g id="b1ld28bx" class="barLine">
                  <path d="M13953 1955 L13953 2675" stroke="currentColor" stroke-width="27" />
               </g>
            </g>
            <g id="m-6931f4dc-7328-456b-8f34-62e144d11e69" class="measure">
               <g id="m-082d3760-40a0-428d-b5f2-69be8197928c" class="staff">
                  <path d="M13966 1955 L15749 1955" stroke="currentColor" stroke-width="13" />
                  <path d="M13966 2135 L15749 2135" stroke="currentColor" stroke-width="13" />
                  <path d="M13966 2315 L15749 2315" stroke="currentColor" stroke-width="13" />
                  <path d="M13966 2495 L15749 2495" stroke="currentColor" stroke-width="13" />
                  <path d="M13966 2675 L15749 2675" stroke="currentColor" stroke-width="13" />
                  <g id="m-50688f18-bd68-4088-bd19-50c6fef3401b" class="layer">
                     <g id="m-0d43c35f-4f41-465b-80cf-05b85897a333" class="rest">
                        <use xlink:href="#E4E3-p0q9o8" x="14146" y="1775" height="720px" width="720px" />
                        <g class="ledgerLines">
                           <path d="M14098 1775 L14410 1775" stroke="currentColor" stroke-width="22" />
                        </g>
                     </g>
                  </g>
                  <g id="m-88afc299-b708-4ded-908d-80f1bc7ef68d" class="layer">
                     <g id="m-c0149206-1d9c-422e-8001-fba07b8c3eb7" class="note">
                        <g class="notehead">
                           <use xlink:href="#E0A2-p0q9o8" x="14146" y="2315" height="720px" width="720px" />
                        </g>
                        <g id="a13qp03o" class="accid" />
                     </g>
                  </g>
               </g>
               <g id="bg8qpm9" class="barLine">
                  <path d="M15736 1955 L15736 2675" stroke="currentColor" stroke-width="27" />
               </g>
            </g>
            <g id="s13qesrn" class="systemMilestoneEnd m-b58accd3-effc-4fe7-addc-58d07b037dde" />
         </g>
         <g id="p13rrt2x" class="pageMilestoneEnd m-d646f4b5-a00b-4d46-9ef8-171d7cc52c9f" />
         <g id="p33wqex" class="pageMilestoneEnd m-2580ad82-792b-4b37-a4d9-1d975c17b8cf" />
         <g id="p1om413z" class="pgHead autogenerated">
            <text font-size="0px">
               <tspan id="r1yx4gij" class="rend" x="10000" y="415" text-anchor="middle">
                  <title class="labelAttr">title</title>
                  <tspan id="r1mllns" class="rend">
                     <tspan id="ty7s9w1" class="text">
                        <tspan font-size="607px">9_rock_130_beat_4-4</tspan>
                     </tspan>
                  </tspan>
                  <tspan id="lyodw27" class="lb" />
                  <tspan id="r1hs5vbm" class="rend">
                     <tspan id="t13b0f10" class="text" x="10000" y="805">
                        <tspan font-size="324px">9_rock_130_beat_4-4</tspan>
                     </tspan>
                  </tspan>
               </tspan>
            </text>
         </g>
         <g id="p1tzjlt4" class="pgFoot autogenerated">
            <g id="f6t5tl" class="fig">
               <g class="svg" transform="translate(7750, 28099) scale(10.000000, 10.000000)">
                  <g>
                     <path fill="#00000" d="M 17.11278,49.26451 V 10.367554 h 12.696511 c 3.288815,7.336676 6.71267,14.610456 10.127281,21.888976 3.419998,-7.484684 6.255515,-14.204887 9.58887,-21.909915 2.436207,0.103726 4.316952,0.08453 6.484294,-0.05808 V 49.264423 H 50.274275 C 50.145222,38.35639 50.016136,27.448368 49.887066,16.540329 45.003488,27.315459 39.967448,38.433564 35.083854,49.208695 34.678996,49.343717 34.426583,49.135619 34.021726,49.270644 29.46588,39.330716 24.910049,29.390805 20.354201,19.450876 20.224341,29.388756 20.09461,39.326619 19.964815,49.264497 H 17.11278 Z M 36.754144,39.324695 C 32.721221,30.512695 28.6883,21.700679 24.655394,12.888662 22.530527,12.750737 22.656775,12.71031 20.714356,12.813974 v 0.966497 c 4.612938,9.99784 9.609439,20.748709 13.87298,30.081745 0.722248,-1.512523 1.444528,-3.025014 2.166808,-4.537521 z m 25.738417,9.939815 c 0,-12.965651 0,-25.931305 0,-38.896956 10.084388,0 20.168791,0 30.253178,0 0,0.960416 0,1.920849 0,2.881265 -6.482825,0 -12.965652,0 -19.448478,0 0,4.802097 0,9.604178 0,14.406277 5.52241,0 11.044819,0 16.567229,0 0,0.960415 0,1.920832 0,2.881248 -5.52241,0 -11.044819,0 -16.567229,0 0,5.282306 0,10.564611 0,15.846917 6.963035,0 13.926068,0 20.889103,0 0,0.960416 0,1.920832 0,2.881249 -10.564597,0 -21.129207,0 -31.693803,0 z m 4.321874,-2.160937 c 0,-11.765131 0,-23.530263 0,-35.295394 -0.720312,0 -1.440625,0 -2.160937,0 0,11.765131 0,23.530263 0,35.295394 0.720312,0 1.440625,0 2.160937,0 z m 32.41413,2.160937 c 0,-12.965651 0,-25.931305 0,-38.896956 2.401045,0 4.802095,0 7.203135,0 0,12.965651 0,25.931305 0,38.896956 -2.40104,0 -4.80209,0 -7.203135,0 z m 2.881265,-2.160937 c 0,-11.765131 0,-23.530263 0,-35.295394 -0.72031,0 -1.44064,0 -2.160953,0 0,11.765131 0,23.530263 0,35.295394 0.720313,0 1.440643,0 2.160953,0 z" />
                     <path fill="#00000" d="m 346.3,6.7 c -3.1,0.5 -4.9,4.4 -2.7,6.8 1.2,1.4 2.7,2.4 4.1,3.5 -2.4,5.3 -7.7,8.3 -11.9,12.1 -3.7,2.8 -7,6.2 -9.7,9.9 -2.2,-0.8 -0.3,-6.8 -0.6,-9.5 0.1,-3.1 0.7,-6.4 2.9,-8.7 1.3,-1.9 3,-3.5 4.5,-5.2 1.2,-3.4 -3.2,-4.9 -5.8,-4.6 -7.3,-0.5 -14.6,2 -20,6.8 -5,4.6 -10,10.1 -11.5,17 -0.9,3.5 -0.2,7.5 2.8,9.9 2.5,2.8 7.4,2.9 9.8,-0.2 1.7,-2.3 3.2,-4.8 3.8,-7.6 -0.1,-2.6 -4.4,-2.3 -4.3,0.2 1.2,2.4 -0.9,4.7 -2.7,6.2 -1.7,0.9 -4.7,0.7 -4.8,-1.7 -1,-5.8 2.1,-11.3 5.2,-16.1 4,-5.8 9.8,-11.2 17.2,-11.8 1.6,0 8.1,-1.2 6.8,1.4 -2.8,2.8 -5.6,6.1 -6,10.3 -1.6,7.7 0.1,15.7 -2.3,23.2 -1.1,3.9 2,2.6 2.5,0.2 3.3,-7.4 8.9,-13.4 15.1,-18.5 4.2,-3.9 9.5,-7.1 11.9,-12.6 1.3,-3.6 1.2,-9 -2.7,-10.9 -0.6,-0.2 -1.2,-0.3 -1.8,-0.3 z m 66,14.5 c -2,0.8 -1.8,4.9 0.8,4.4 3.4,0.4 2.9,-6.2 -0.8,-4.4 z m 0.6,7.3 c -1.3,0.5 -7.6,0.5 -5.4,2.2 4,-0.3 0.7,4.5 0.6,6.7 -0.4,2.9 -2.4,5.9 -1.2,8.8 2.7,1.7 5.6,-0.8 6.8,-3.2 1.6,-1.4 -0.5,-3 -1.2,-0.9 -0.4,0.8 -2.4,3.5 -2.6,1.8 1.1,-5 2.7,-9.9 3.9,-14.9 l -0.1,-0.5 h -0.9 z m -65.1,0.2 c -6.5,1.6 -10.5,9.5 -8.2,15.7 2.1,3.4 7.4,2.9 10.1,0.4 2,-0.2 3.6,-5.3 1,-3.4 -1.4,2 -4,4.2 -6.5,2.8 -2.2,-1.9 -1.9,-5.7 1.7,-5.3 3.1,-0.9 6.9,-2.1 8.1,-5.5 0.9,-2.7 -1.6,-5.2 -4.3,-4.8 h -1.1 -0.7 z m 13.6,0 c -2.2,0 -8.5,1.8 -2.9,2.3 0.9,1.9 -1,4.9 -1.1,7.2 -0.5,2.9 -1.4,5.7 -1.7,8.7 3.7,0.7 3.8,-2.6 4.4,-5.3 0.9,-3.3 1.6,-7 4.1,-9.5 2.4,1.6 6.8,-0.7 3.7,-3.4 -2.9,-0.5 -4.8,2.4 -6.2,4.3 0,-1.2 2.4,-5 -0.2,-4.3 z m 15.8,0 c -6.4,1.3 -9.6,9.1 -7.7,14.9 1.9,4 7.7,3.9 11,1.7 4.1,-3 6,-8.9 4.4,-13.7 -1.3,-3 -4.8,-3.2 -7.6,-3 z m 17,0 c -2.3,0 -8.8,1.9 -3,2.4 0.4,2.5 -1,5.7 -1.4,8.4 -0.7,2.4 -1.8,7.5 2.1,7.2 3.8,-0.1 6.5,-3.5 8.5,-6.3 2,-3.2 4.5,-7 3.3,-10.9 -3.7,-3 -3.6,2.6 -3.1,5.1 -0.7,3.8 -2.7,7.9 -6.2,9.8 -3.6,0.6 -1,-4.3 -0.8,-6.1 0.6,-3.2 1.6,-6.3 1.9,-9.5 -0.4,0 -0.8,0 -1.1,0 z m 30.6,0 c -6.3,1.2 -9.5,8.9 -7.8,14.7 1.5,4 7.2,4.2 10.5,2.4 4.6,-2.8 6.6,-9.3 4.8,-14.3 -1.4,-2.8 -4.8,-3 -7.5,-2.8 z m -75.4,1.7 c 2.1,1.5 0.2,4.7 -1.6,5.7 -1.1,0.4 -5.5,3.4 -4.6,0.7 0.8,-2.7 2.2,-6.2 5.3,-6.6 l 0.9,0.1 z m 30.8,0 c 2.6,1.5 1.3,5.2 0.8,7.6 -0.8,2.7 -1.9,5.9 -4.7,7.1 -5.1,0.8 -4,-5.8 -2.8,-8.8 1,-2.8 3,-6.8 6.7,-5.8 z m 47.1,-0.1 c 2.9,0.7 2,4.7 1.5,6.8 -0.7,3 -1.8,6.7 -5,8 -4.7,0.8 -4,-5.1 -3,-7.9 0.9,-3 2.7,-7.3 6.5,-6.8 z m -88.1,5.9 c -0.3,1.3 0.9,-0.6 0,0 z m -1.1,2.4 c -0.2,0.5 0.5,-0.1 0,0 z m -1.3,4.5 c -0.3,1.3 0.8,-0.2 0,0 z" />
                     <text y="41" x="201" fill="#00000" style="font-style:italic;font-weight:normal;font-size:30px;line-height:125%;font-family:Times;text-anchor:middle" xml:space="preserve">engraved with</text>
                  </g>
               </g>
            </g>
         </g>
      </g>
   </svg>
</svg>
