<?xml version="1.0" encoding="UTF-8" standalone="no"?>
<svg width="2100px" height="2970px" version="1.1" xmlns="http://www.w3.org/2000/svg" xmlns:xlink="http://www.w3.org/1999/xlink" xmlns:mei="http://www.music-encoding.org/ns/mei" overflow="visible">
   <desc>Engraved by Verovio 4.4.0-66ab39c</desc>
   <defs>
      <symbol id="E084-uuqxmg" viewBox="0 0 1000 1000" overflow="inherit">
         <path transform="scale(1,-1)" d="M20 -78c84 97 114 180 134 329h170c-13 -32 -82 -132 -99 -151l-84 -97c-33 -36 -59 -63 -80 -81h162v102l127 123v-225h57v-39h-57v-34c0 -43 19 -65 57 -65v-34h-244v36c48 0 60 26 60 70v27h-203v39z" />
      </symbol>
      <symbol id="E0A2-uuqxmg" viewBox="0 0 1000 1000" overflow="inherit">
         <path transform="scale(1,-1)" d="M198 133c102 0 207 -45 207 -133c0 -92 -118 -133 -227 -133c-101 0 -178 46 -178 133c0 88 93 133 198 133zM293 -21c0 14 -3 29 -8 44c-7 20 -18 38 -33 54c-20 21 -43 31 -68 31l-20 -2c-15 -5 -27 -14 -36 -28c-4 -9 -6 -17 -8 -24s-3 -16 -3 -27c0 -15 3 -34 9 -57 s18 -41 34 -55c15 -15 36 -23 62 -23c4 0 10 1 18 2c19 5 32 15 40 30s13 34 13 55z" />
      </symbol>
      <symbol id="E0A4-uuqxmg" viewBox="0 0 1000 1000" overflow="inherit">
         <path transform="scale(1,-1)" d="M0 -39c0 68 73 172 200 172c66 0 114 -37 114 -95c0 -84 -106 -171 -218 -171c-64 0 -96 30 -96 94z" />
      </symbol>
      <symbol id="E241-uuqxmg" viewBox="0 0 1000 1000" overflow="inherit">
         <path transform="scale(1,-1)" d="M179 646c-4 8 -17 30 -18 33l-4 10c0 3 2 5 5 5s7 -2 13 -7c23 -33 46 -81 66 -132c22 -57 35 -125 35 -163c0 -104 -60 -183 -122 -241c-63 -59 -57 -53 -61 -56c-38 -34 -63 -95 -71 -95h-22v190c40 7 69 11 87 16c88 27 168 95 168 200c0 30 -12 89 -30 138 c-17 47 -31 73 -46 102z" />
      </symbol>
      <symbol id="E4E5-uuqxmg" viewBox="0 0 1000 1000" overflow="inherit">
         <path transform="scale(1,-1)" d="M107 292c-13 24 -30 49 -52 71c-1 1 0 2 0 3l-2 2c3 3 4 4 6 4c12 0 26 -7 40 -20s44 -40 89 -81c26 -24 28 -29 46 -47c4 -4 8 -9 10 -14c6 -8 8 -16 8 -27c0 -19 -12 -40 -36 -61c-28 -23 -49 -38 -61 -73c-4 -11 -7 -27 -10 -50c13 -43 34 -83 59 -121 c31 -47 59 -79 101 -129c-8 0 -26 7 -54 20l-62 29l-21 6l-23 1c-25 0 -45 -10 -60 -30l-4 -14l-1 -12c0 -33 20 -56 39 -78c8 -9 17 -18 26 -26c17 -15 27 -24 28 -30l-3 -3c-11 5 -19 10 -25 15c-9 3 -37 21 -45 26c-24 14 -45 32 -63 51c-19 21 -37 44 -37 71 c0 63 27 95 80 95c41 0 86 -18 136 -52c-19 26 -37 48 -55 66c-23 23 -48 44 -73 65c-28 23 -47 40 -58 53s-17 26 -18 39c75 64 113 125 113 183c0 27 -7 48 -18 68z" />
      </symbol>
      <symbol id="E4E6-uuqxmg" viewBox="0 0 1000 1000" overflow="inherit">
         <path transform="scale(1,-1)" d="M0 123c7 34 33 56 69 60c29 -3 43 -9 53 -29c4 -8 7 -15 10 -22c0 -21 -1 -25 -11 -35c-5 -8 -18 -14 -40 -20l12 -3l15 -1c44 0 97 26 122 56c10 11 18 26 24 42c7 1 15 2 22 3l-140 -424h-36l111 330c-10 -6 -27 -12 -53 -16l-52 -8h-10l-20 1c-1 0 -8 3 -21 6 c-37 9 -55 28 -55 60z" />
      </symbol>
      <symbol id="E4E8-uuqxmg" viewBox="0 0 1000 1000" overflow="inherit">
         <path transform="scale(1,-1)" d="M69 -54c44 -9 49 -10 63 -50c0 -14 -1 -24 -4 -29c-7 -11 -23 -20 -47 -26c6 -3 15 -4 25 -4c18 0 39 7 61 22c18 12 30 26 30 26l61 187c-22 -12 -48 -21 -81 -21c-18 0 -34 3 -46 9c-36 9 -54 29 -54 61c8 34 31 58 68 58c34 0 63 -24 63 -57c0 -11 -4 -21 -10 -30 c-4 -5 -16 -12 -39 -18c8 -3 16 -5 24 -5c35 0 71 25 88 45l66 198c-12 -11 -33 -12 -55 -17c-18 -4 -29 -8 -35 -8h-15l-28 2c-10 1 -17 3 -23 6c-37 7 -56 26 -56 59c9 33 33 59 72 59c33 0 53 -21 61 -49c0 -37 -17 -47 -51 -55c5 -4 13 -6 24 -6c14 0 29 3 45 8 c47 15 89 43 101 92l18 2l4 -1l-288 -889h-37l106 318c-17 -10 -43 -15 -72 -15c-22 0 -40 3 -52 9c-35 8 -55 23 -55 61c8 35 31 54 68 58z" />
      </symbol>
      <symbol id="E0A9-uuqxmg" viewBox="0 0 1000 1000" overflow="inherit">
         <path transform="scale(1,-1)" d="M0 -110c0 4 1 8 5 11l119 99l-119 100c-3 3 -5 8 -5 12c0 6 5 13 12 13c3 0 6 -1 8 -2l124 -105l126 105c2 1 5 2 7 2c6 0 13 -6 13 -14c0 -4 -2 -9 -5 -11l-119 -100l119 -99c3 -3 5 -7 5 -12c0 -6 -5 -14 -13 -14c-2 0 -5 1 -7 3l-126 105l-124 -105c-2 -2 -4 -3 -7 -3 c-8 0 -13 7 -13 15z" />
      </symbol>
      <symbol id="E0B5-uuqxmg" viewBox="0 0 1000 1000" overflow="inherit">
         <path transform="scale(1,-1)" d="M293 -21c0 14 -3 29 -8 44c-3 8 -6 15 -10 22l-55 -45l68 -55c3 11 5 22 5 34zM198 133c102 0 207 -45 207 -133c0 -92 -98 -133 -207 -133c-101 0 -198 46 -198 133c0 88 93 133 198 133zM141 -64c5 -8 12 -15 19 -21c15 -15 36 -23 62 -23c4 0 10 1 18 2 c17 4 29 13 37 25l-79 64zM260 68c-2 3 -5 6 -8 9c-20 21 -43 31 -68 31l-20 -2c-15 -5 -27 -14 -36 -28c0 -1 -1 -1 -1 -2l71 -58zM119 48c-1 -6 -2 -13 -2 -21c0 -15 3 -34 9 -57l3 -9l49 39z" />
      </symbol>
      <symbol id="E069-uuqxmg" viewBox="0 0 1000 1000" overflow="inherit">
         <path transform="scale(1,-1)" d="M200 250h125v-500h-125v500zM0 250h125v-500h-125v500z" />
      </symbol>
   </defs>
   <style type="text/css">g.page-margin{font-family:Times,serif;} g.ending, g.fing, g.reh, g.tempo{font-weight:bold;} g.dir, g.dynam, g.mNum{font-style:italic;} g.label{font-weight:normal;}</style>
   <svg class="definition-scale" color="black" viewBox="0 0 21000 29700">
      <g class="page-margin" transform="translate(500, 500)">
         <g id="m-bd1a0009-b461-4c3d-a7a5-8dc6e03f7b67" class="mdiv pageMilestone" />
         <g id="m-1563907d-9b57-4126-aa77-983880b90dd3" class="score pageMilestone" />
         <g id="s12qma8f" class="system">
            <g id="m-1000ee87-b91b-4e03-b47d-f7c0ee9d4cdb" class="section systemMilestone" />
            <g id="m-7bc9c9d4-0732-435f-972d-9a5239521a81" class="measure">
               <g id="m-8aef0e8b-92a0-4233-9ab8-763a0c07506e" class="staff">
                  <path d="M0 1730 L5755 1730" stroke="currentColor" stroke-width="13" />
                  <path d="M0 1910 L5755 1910" stroke="currentColor" stroke-width="13" />
                  <path d="M0 2090 L5755 2090" stroke="currentColor" stroke-width="13" />
                  <path d="M0 2270 L5755 2270" stroke="currentColor" stroke-width="13" />
                  <path d="M0 2450 L5755 2450" stroke="currentColor" stroke-width="13" />
                  <g id="c1otrmw5" class="clef">
                     <use xlink:href="#E069-uuqxmg" x="90" y="2090" height="720px" width="720px" />
                  </g>
                  <g id="k1hqhxb5" class="keySig" />
                  <g id="m1xij01i" class="meterSig">
                     <use xlink:href="#E084-uuqxmg" x="490" y="1910" height="720px" width="720px" />
                     <use xlink:href="#E084-uuqxmg" x="490" y="2270" height="720px" width="720px" />
                  </g>
                  <g id="m-5e0edace-33ab-4261-897b-4282aab44a46" class="layer">
                     <g id="m-e8b4712f-2cfc-49eb-90cf-e94e1f4c580a" class="rest">
                        <use xlink:href="#E4E5-uuqxmg" x="1074" y="1550" height="720px" width="720px" />
                     </g>
                     <g id="m-835eaa52-6fe1-4574-80b0-16c14e8eceab" class="note">
                        <g class="notehead">
                           <use xlink:href="#E0A9-uuqxmg" x="2081" y="1640" height="720px" width="720px" />
                        </g>
                        <g id="s1z0idxb" class="stem">
                           <path d="M2280 1561 L2280 1190" stroke="currentColor" stroke-width="18" />
                        </g>
                     </g>
                     <g id="m-7bd76693-5c85-4d19-bf60-b63dadcee15b" class="note">
                        <g class="notehead">
                           <use xlink:href="#E0A9-uuqxmg" x="3088" y="1640" height="720px" width="720px" />
                        </g>
                        <g id="s1nzl15t" class="stem">
                           <path d="M3287 1561 L3287 1190" stroke="currentColor" stroke-width="18" />
                        </g>
                     </g>
                     <g id="m-2faa30f8-fec9-4c01-8537-ea23257aae61" class="note">
                        <g class="notehead">
                           <use xlink:href="#E0A9-uuqxmg" x="4095" y="1640" height="720px" width="720px" />
                        </g>
                        <g id="sw2r3u3" class="stem">
                           <path d="M4294 1561 L4294 1190" stroke="currentColor" stroke-width="18" />
                        </g>
                     </g>
                  </g>
                  <g id="m-289a9c28-e868-49cb-8e85-17d04eda99b9" class="layer">
                     <g id="m-e5a2bf72-50fd-43b3-be87-3439146e7ab7" class="rest">
                        <use xlink:href="#E4E6-uuqxmg" x="1074" y="2630" height="720px" width="720px" />
                     </g>
                     <g id="m-1ee86a8b-ed0a-4368-9ffd-4f152aca0160" class="note">
                        <g class="notehead">
                           <use xlink:href="#E0A4-uuqxmg" x="1577" y="2540" height="720px" width="720px" />
                        </g>
                        <g id="s1y2nqw0" class="stem">
                           <path d="M1586 2568 L1586 3080" stroke="currentColor" stroke-width="18" />
                           <g id="f13gb57e" class="flag">
                              <use xlink:href="#E241-uuqxmg" x="1577" y="3080" height="720px" width="720px" />
                           </g>
                        </g>
                     </g>
                     <g id="m-2d67fc57-fdcb-4513-8d5b-3515467df74f" class="beam">
                        <polygon points="2081,2990 2602,3035 2602,2945 2081,2900" />
                        <g id="m-0272adcd-b8de-4c4a-8e01-60fd9cb0112d" class="note">
                           <g class="notehead">
                              <use xlink:href="#E0A4-uuqxmg" x="2081" y="2090" height="720px" width="720px" />
                           </g>
                           <g id="s8ofhfv" class="stem">
                              <path d="M2090 2118 L2090 2972" stroke="currentColor" stroke-width="18" />
                           </g>
                           <g id="apk7w72" class="accid" />
                        </g>
                        <g id="m-b19cba15-6848-48b1-a545-ff8d011e8cb5" class="note">
                           <g class="notehead">
                              <use xlink:href="#E0A4-uuqxmg" x="2584" y="2540" height="720px" width="720px" />
                           </g>
                           <g id="s7rb1p1" class="stem">
                              <path d="M2593 2568 L2593 3017" stroke="currentColor" stroke-width="18" />
                           </g>
                        </g>
                     </g>
                     <g id="m-21d48abd-d34d-4250-ae53-0ae137c19490" class="beam">
                        <polygon points="3088,2990 3609,2990 3609,2900 3088,2900" />
                        <g id="m-69aa52cc-62ea-4808-8dfd-bdd43869c57f" class="note">
                           <g class="notehead">
                              <use xlink:href="#E0A4-uuqxmg" x="3088" y="2540" height="720px" width="720px" />
                           </g>
                           <g id="s1u2yshk" class="stem">
                              <path d="M3097 2568 L3097 2972" stroke="currentColor" stroke-width="18" />
                           </g>
                        </g>
                        <g id="m-53760b4b-8eb3-4e64-9c44-63b1a7db671f" class="note">
                           <g class="notehead">
                              <use xlink:href="#E0A4-uuqxmg" x="3591" y="2540" height="720px" width="720px" />
                           </g>
                           <g id="s1ycx6fk" class="stem">
                              <path d="M3600 2568 L3600 2972" stroke="currentColor" stroke-width="18" />
                           </g>
                        </g>
                     </g>
                     <g id="m-6689cb41-abfc-4008-890b-c91636f3fbdc" class="note">
                        <g class="notehead">
                           <use xlink:href="#E0A4-uuqxmg" x="4095" y="2090" height="720px" width="720px" />
                        </g>
                        <g id="s15o8pgc" class="stem">
                           <path d="M4104 2118 L4104 2690" stroke="currentColor" stroke-width="18" />
                           <g id="f1dalrgs" class="flag">
                              <use xlink:href="#E241-uuqxmg" x="4095" y="2690" height="720px" width="720px" />
                           </g>
                        </g>
                        <g id="a1fcpo8a" class="accid" />
                     </g>
                     <g id="m-c4e5caeb-58ed-4666-8433-a70276a66478" class="rest">
                        <use xlink:href="#E4E8-uuqxmg" x="4598" y="2630" height="720px" width="720px" />
                     </g>
                     <g id="m-aceba465-c7da-4d30-a4ce-795805787aa0" class="beam">
                        <polygon points="5019,3260 5390,3260 5390,3170 5019,3170" />
                        <polygon points="5019,3125 5390,3125 5390,3035 5019,3035" />
                        <polygon points="5019,2990 5245,2990 5245,2900 5019,2900" />
                        <g id="m-ded020f1-1eef-4614-963a-6a488b2ef99c" class="note">
                           <g class="notehead">
                              <use xlink:href="#E0A4-uuqxmg" x="5019" y="2540" height="720px" width="720px" />
                           </g>
                           <g id="sfxazdl" class="stem">
                              <path d="M5028 2568 L5028 3242" stroke="currentColor" stroke-width="18" />
                           </g>
                        </g>
                        <g id="m-5b313759-cbc6-4771-a63f-d98b9e61c3ce" class="note">
                           <g class="notehead">
                              <use xlink:href="#E0A4-uuqxmg" x="5372" y="2540" height="720px" width="720px" />
                           </g>
                           <g id="su7myz5" class="stem">
                              <path d="M5381 2568 L5381 3242" stroke="currentColor" stroke-width="18" />
                           </g>
                        </g>
                     </g>
                  </g>
               </g>
               <g id="b1vafdd9" class="barLine">
                  <path d="M5742 1730 L5742 2450" stroke="currentColor" stroke-width="27" />
               </g>
            </g>
            <g id="m-1f226fe5-3df0-498a-a257-1b7383e93bce" class="measure">
               <g id="m-56a9a3ce-9d98-40ae-b47d-efee674bc0cd" class="staff">
                  <path d="M5755 1730 L12314 1730" stroke="currentColor" stroke-width="13" />
                  <path d="M5755 1910 L12314 1910" stroke="currentColor" stroke-width="13" />
                  <path d="M5755 2090 L12314 2090" stroke="currentColor" stroke-width="13" />
                  <path d="M5755 2270 L12314 2270" stroke="currentColor" stroke-width="13" />
                  <path d="M5755 2450 L12314 2450" stroke="currentColor" stroke-width="13" />
                  <g id="m-d04b88e3-8053-479f-a86b-6e24de4af87b" class="layer">
                     <g id="m-eb4fe179-59d3-4d0c-8975-944b41196d4e" class="note">
                        <g class="notehead">
                           <use xlink:href="#E0A9-uuqxmg" x="5957" y="1640" height="720px" width="720px" />
                        </g>
                        <g id="s1ycyypy" class="stem">
                           <path d="M6156 1561 L6156 1190" stroke="currentColor" stroke-width="18" />
                        </g>
                     </g>
                     <g id="m-00c50513-7ab1-403a-a00f-2b7b5a944151" class="note">
                        <g class="notehead">
                           <use xlink:href="#E0A9-uuqxmg" x="7167" y="1640" height="720px" width="720px" />
                        </g>
                        <g id="s1dr46dg" class="stem">
                           <path d="M7366 1561 L7366 1190" stroke="currentColor" stroke-width="18" />
                        </g>
                     </g>
                     <g id="m-96f0b180-3ac5-45a3-ad0e-0b70ac6f713f" class="note">
                        <g class="notehead">
                           <use xlink:href="#E0A9-uuqxmg" x="8799" y="1640" height="720px" width="720px" />
                        </g>
                        <g id="sdmnbqn" class="stem">
                           <path d="M8998 1561 L8998 1190" stroke="currentColor" stroke-width="18" />
                        </g>
                     </g>
                     <g id="m-96aef360-b5b6-4549-b114-5eafe316b536" class="beam">
                        <polygon points="10620,1055 10992,1055 10992,1145 10620,1145" />
                        <polygon points="10620,1190 10846,1190 10846,1280 10620,1280" />
                        <g id="m-50972441-731b-4b8b-9a0b-3313851e32a8" class="note">
                           <g class="notehead">
                              <use xlink:href="#E0A9-uuqxmg" x="10430" y="1640" height="720px" width="720px" />
                           </g>
                           <g id="sz2oflk" class="stem">
                              <path d="M10629 1561 L10629 1073" stroke="currentColor" stroke-width="18" />
                           </g>
                        </g>
                        <g id="m-3743778f-9e93-4d92-b59c-2df008a34982" class="note">
                           <g class="notehead">
                              <use xlink:href="#E0A9-uuqxmg" x="10784" y="1640" height="720px" width="720px" />
                           </g>
                           <g id="d1dj8uwo" class="dots">
                              <ellipse cx="11082" cy="1640" rx="36" ry="36" />
                           </g>
                           <g id="s1h4gxo2" class="stem">
                              <path d="M10983 1561 L10983 1073" stroke="currentColor" stroke-width="18" />
                           </g>
                        </g>
                     </g>
                  </g>
                  <g id="m-e081d553-b97e-4dfc-8eff-e821a4946ca4" class="layer">
                     <g id="m-a5ca7ba9-14ed-4dca-b0f5-da9b6585d7b5" class="beam">
                        <polygon points="5957,3125 6832,3125 6832,3035 5957,3035" />
                        <polygon points="6469,2990 6832,2990 6832,2900 6469,2900" />
                        <g id="m-11bfc305-363e-478c-9ab2-5cea4f7bc2ee" class="note">
                           <g class="notehead">
                              <use xlink:href="#E0A4-uuqxmg" x="5957" y="2090" height="720px" width="720px" />
                           </g>
                           <g id="s1mp9nn7" class="stem">
                              <path d="M5966 2118 L5966 3107" stroke="currentColor" stroke-width="18" />
                           </g>
                           <g id="azh5kw4" class="accid" />
                        </g>
                        <g id="m-2e63b90a-6c99-4dea-a027-ded862e52e0e" class="note">
                           <g class="notehead">
                              <use xlink:href="#E0A4-uuqxmg" x="6460" y="2540" height="720px" width="720px" />
                           </g>
                           <g id="sztjgp1" class="stem">
                              <path d="M6469 2568 L6469 3107" stroke="currentColor" stroke-width="18" />
                           </g>
                        </g>
                        <g id="m-67e27421-ac92-48f4-9746-e3936f6b08d5" class="note">
                           <g class="notehead">
                              <use xlink:href="#E0A4-uuqxmg" x="6814" y="2540" height="720px" width="720px" />
                           </g>
                           <g id="sd3tawa" class="stem">
                              <path d="M6823 2568 L6823 3107" stroke="currentColor" stroke-width="18" />
                           </g>
                        </g>
                     </g>
                     <g id="m-ed9a1448-b160-4be0-a7aa-45ef35264632" class="note">
                        <g class="notehead">
                           <use xlink:href="#E0A4-uuqxmg" x="7167" y="2090" height="720px" width="720px" />
                        </g>
                        <g id="sggdv7b" class="stem">
                           <path d="M7176 2118 L7176 2690" stroke="currentColor" stroke-width="18" />
                           <g id="fat4qqk" class="flag">
                              <use xlink:href="#E241-uuqxmg" x="7167" y="2690" height="720px" width="720px" />
                           </g>
                        </g>
                        <g id="a1ygvmzb" class="accid" />
                     </g>
                     <g id="m-03ae83a8-d978-4d3d-9952-a6dcea05f982" class="rest">
                        <use xlink:href="#E4E8-uuqxmg" x="7671" y="2630" height="720px" width="720px" />
                     </g>
                     <g id="m-d83aea9d-9e34-4418-9750-d6a350b28818" class="beam">
                        <polygon points="8092,3260 8463,3260 8463,3170 8092,3170" />
                        <polygon points="8092,3125 8463,3125 8463,3035 8092,3035" />
                        <polygon points="8092,2990 8318,2990 8318,2900 8092,2900" />
                        <g id="m-9b3b9c63-21da-4634-9115-654648fc1459" class="note">
                           <g class="notehead">
                              <use xlink:href="#E0A4-uuqxmg" x="8092" y="2540" height="720px" width="720px" />
                           </g>
                           <g id="s11vnt1n" class="stem">
                              <path d="M8101 2568 L8101 3242" stroke="currentColor" stroke-width="18" />
                           </g>
                        </g>
                        <g id="m-5ab03661-e707-4b0f-b2ef-059ab6e484ae" class="note">
                           <g class="notehead">
                              <use xlink:href="#E0A4-uuqxmg" x="8445" y="2540" height="720px" width="720px" />
                           </g>
                           <g id="s17wvis3" class="stem">
                              <path d="M8454 2568 L8454 3242" stroke="currentColor" stroke-width="18" />
                           </g>
                        </g>
                     </g>
                     <g id="m-fcf5bcc0-6e30-40c8-8db7-8f47f66fa671" class="note">
                        <g class="notehead">
                           <use xlink:href="#E0A4-uuqxmg" x="8799" y="2090" height="720px" width="720px" />
                        </g>
                        <g id="s1bxhnjp" class="stem">
                           <path d="M8808 2118 L8808 2690" stroke="currentColor" stroke-width="18" />
                           <g id="f3269p1" class="flag">
                              <use xlink:href="#E241-uuqxmg" x="8799" y="2690" height="720px" width="720px" />
                           </g>
                        </g>
                        <g id="a9iip1c" class="accid" />
                     </g>
                     <g id="m-ff2c1acc-7c1a-4490-9315-f983b61b295e" class="rest">
                        <use xlink:href="#E4E8-uuqxmg" x="9302" y="2630" height="720px" width="720px" />
                     </g>
                     <g id="m-f3335ca5-ed5c-4e9a-bb50-3fe8ef119886" class="beam">
                        <polygon points="9723,3260 10094,3260 10094,3170 9723,3170" />
                        <polygon points="9723,3125 10094,3125 10094,3035 9723,3035" />
                        <polygon points="9723,2990 9949,2990 9949,2900 9723,2900" />
                        <g id="m-3f4ccaf7-bbf3-4e87-be7a-b3418df84131" class="note">
                           <g class="notehead">
                              <use xlink:href="#E0A4-uuqxmg" x="9723" y="2540" height="720px" width="720px" />
                           </g>
                           <g id="s1hpn9xc" class="stem">
                              <path d="M9732 2568 L9732 3242" stroke="currentColor" stroke-width="18" />
                           </g>
                        </g>
                        <g id="m-2bea2c83-9da0-40be-bec5-9d538bd3239c" class="note">
                           <g class="notehead">
                              <use xlink:href="#E0A4-uuqxmg" x="10076" y="2540" height="720px" width="720px" />
                           </g>
                           <g id="s1k8yfkk" class="stem">
                              <path d="M10085 2568 L10085 3242" stroke="currentColor" stroke-width="18" />
                           </g>
                        </g>
                     </g>
                     <g id="m-6e89b554-80ec-48b7-b845-bf1a897a5c94" class="note">
                        <g class="notehead">
                           <use xlink:href="#E0A4-uuqxmg" x="10430" y="2090" height="720px" width="720px" />
                        </g>
                        <g id="s1rbm6j6" class="stem">
                           <path d="M10439 2118 L10439 2690" stroke="currentColor" stroke-width="18" />
                           <g id="fn0s36c" class="flag">
                              <use xlink:href="#E241-uuqxmg" x="10430" y="2690" height="720px" width="720px" />
                           </g>
                        </g>
                        <g id="a1omrt73" class="accid" />
                     </g>
                     <g id="m-bdfc5aac-91dc-464c-b91f-d3feb475888d" class="rest">
                        <use xlink:href="#E4E8-uuqxmg" x="11157" y="2630" height="720px" width="720px" />
                     </g>
                     <g id="m-a717fcdb-6bc2-4145-8d91-ae9307a89e96" class="beam">
                        <polygon points="11578,3260 11949,3260 11949,3170 11578,3170" />
                        <polygon points="11578,3125 11949,3125 11949,3035 11578,3035" />
                        <polygon points="11578,2990 11804,2990 11804,2900 11578,2900" />
                        <g id="m-aa4220dc-5944-4785-92b0-c387d914a8a7" class="note">
                           <g class="notehead">
                              <use xlink:href="#E0A4-uuqxmg" x="11578" y="2540" height="720px" width="720px" />
                           </g>
                           <g id="s1hptjwi" class="stem">
                              <path d="M11587 2568 L11587 3242" stroke="currentColor" stroke-width="18" />
                           </g>
                        </g>
                        <g id="m-08dd37f5-6284-47c6-b9c4-44ec6ff4b525" class="note">
                           <g class="notehead">
                              <use xlink:href="#E0A4-uuqxmg" x="11931" y="2540" height="720px" width="720px" />
                           </g>
                           <g id="s19g88oo" class="stem">
                              <path d="M11940 2568 L11940 3242" stroke="currentColor" stroke-width="18" />
                           </g>
                        </g>
                     </g>
                  </g>
               </g>
               <g id="b1xoolge" class="barLine">
                  <path d="M12301 1730 L12301 2450" stroke="currentColor" stroke-width="27" />
               </g>
            </g>
            <g id="m-c8857ee3-1d5e-4d08-946e-95c80e062417" class="measure">
               <g id="m-58c9a3c4-ade0-430b-a008-d80a791bab48" class="staff">
                  <path d="M12314 1730 L18009 1730" stroke="currentColor" stroke-width="13" />
                  <path d="M12314 1910 L18009 1910" stroke="currentColor" stroke-width="13" />
                  <path d="M12314 2090 L18009 2090" stroke="currentColor" stroke-width="13" />
                  <path d="M12314 2270 L18009 2270" stroke="currentColor" stroke-width="13" />
                  <path d="M12314 2450 L18009 2450" stroke="currentColor" stroke-width="13" />
                  <g id="m-b4879d3f-1a5f-4c91-bdef-ffc3e33e844f" class="layer">
                     <g id="m-a5faeed8-fed5-4a23-8574-236d08cc62f3" class="note">
                        <g class="notehead">
                           <use xlink:href="#E0A9-uuqxmg" x="12516" y="1640" height="720px" width="720px" />
                        </g>
                        <g id="sgtngl2" class="stem">
                           <path d="M12715 1561 L12715 1190" stroke="currentColor" stroke-width="18" />
                        </g>
                     </g>
                     <g id="m-b11034dc-7564-458e-9a69-7f6922062184" class="note">
                        <g class="notehead">
                           <use xlink:href="#E0A9-uuqxmg" x="14147" y="1640" height="720px" width="720px" />
                        </g>
                        <g id="sgmmmvr" class="stem">
                           <path d="M14346 1561 L14346 1190" stroke="currentColor" stroke-width="18" />
                        </g>
                     </g>
                     <g id="m-230de959-852e-4c8e-99e8-0cb33e6176fd" class="note">
                        <g class="notehead">
                           <use xlink:href="#E0A9-uuqxmg" x="15778" y="1640" height="720px" width="720px" />
                        </g>
                        <g id="s15udmlj" class="stem">
                           <path d="M15977 1561 L15977 1190" stroke="currentColor" stroke-width="18" />
                        </g>
                     </g>
                     <g id="m-c9270e94-99c8-4b37-a43b-f4cdfd28f5f8" class="note">
                        <g class="notehead">
                           <use xlink:href="#E0A9-uuqxmg" x="16989" y="1640" height="720px" width="720px" />
                        </g>
                        <g id="sv9arwg" class="stem">
                           <path d="M17188 1561 L17188 1190" stroke="currentColor" stroke-width="18" />
                        </g>
                     </g>
                  </g>
                  <g id="m-85fe9a8d-10e2-4332-b45f-e9af20923273" class="layer">
                     <g id="m-2d57dbaa-0f4c-4f82-b41f-cfe422455dbc" class="note">
                        <g class="notehead">
                           <use xlink:href="#E0A4-uuqxmg" x="12516" y="2090" height="720px" width="720px" />
                        </g>
                        <g id="s2ki0t9" class="stem">
                           <path d="M12525 2118 L12525 2690" stroke="currentColor" stroke-width="18" />
                           <g id="f5rfl43" class="flag">
                              <use xlink:href="#E241-uuqxmg" x="12516" y="2690" height="720px" width="720px" />
                           </g>
                        </g>
                        <g id="az1tl61" class="accid" />
                     </g>
                     <g id="m-40cc0a99-1e4a-4e1b-a2f8-350299f4d887" class="rest">
                        <use xlink:href="#E4E8-uuqxmg" x="13019" y="2630" height="720px" width="720px" />
                     </g>
                     <g id="m-03854a6a-e6c3-4386-8d01-0497cf012eef" class="beam">
                        <polygon points="13440,3260 13812,3260 13812,3170 13440,3170" />
                        <polygon points="13440,3125 13812,3125 13812,3035 13440,3035" />
                        <polygon points="13440,2990 13666,2990 13666,2900 13440,2900" />
                        <g id="m-606c399b-9410-400c-977e-b0e2f8b778aa" class="note">
                           <g class="notehead">
                              <use xlink:href="#E0A4-uuqxmg" x="13440" y="2540" height="720px" width="720px" />
                           </g>
                           <g id="s1sw71s2" class="stem">
                              <path d="M13449 2568 L13449 3242" stroke="currentColor" stroke-width="18" />
                           </g>
                        </g>
                        <g id="m-0671ff79-c4b3-45af-82e3-548d2b2e6671" class="note">
                           <g class="notehead">
                              <use xlink:href="#E0A4-uuqxmg" x="13794" y="2540" height="720px" width="720px" />
                           </g>
                           <g id="s8qm5se" class="stem">
                              <path d="M13803 2568 L13803 3242" stroke="currentColor" stroke-width="18" />
                           </g>
                        </g>
                     </g>
                     <g id="m-4c01f51b-8a51-4064-aeb6-fbacd95d2610" class="note">
                        <g class="notehead">
                           <use xlink:href="#E0A4-uuqxmg" x="14147" y="2090" height="720px" width="720px" />
                        </g>
                        <g id="scngay9" class="stem">
                           <path d="M14156 2118 L14156 2690" stroke="currentColor" stroke-width="18" />
                           <g id="f6urtik" class="flag">
                              <use xlink:href="#E241-uuqxmg" x="14147" y="2690" height="720px" width="720px" />
                           </g>
                        </g>
                        <g id="ayxl0ts" class="accid" />
                     </g>
                     <g id="m-fa1e6ed0-8e8c-4a97-9475-a0b973e1451c" class="rest">
                        <use xlink:href="#E4E8-uuqxmg" x="14651" y="2630" height="720px" width="720px" />
                     </g>
                     <g id="m-4fcd2c54-c026-4a68-b02b-415f7b556c4d" class="beam">
                        <polygon points="15071,3260 15443,3260 15443,3170 15071,3170" />
                        <polygon points="15071,3125 15443,3125 15443,3035 15071,3035" />
                        <polygon points="15071,2990 15297,2990 15297,2900 15071,2900" />
                        <g id="m-738abf21-8ee1-4c6a-b884-b9d6b1e771e5" class="note">
                           <g class="notehead">
                              <use xlink:href="#E0A4-uuqxmg" x="15071" y="2540" height="720px" width="720px" />
                           </g>
                           <g id="s9nporc" class="stem">
                              <path d="M15080 2568 L15080 3242" stroke="currentColor" stroke-width="18" />
                           </g>
                        </g>
                        <g id="m-92f619fb-1df8-42bf-bf9e-ff4ee8b8bb57" class="note">
                           <g class="notehead">
                              <use xlink:href="#E0A4-uuqxmg" x="15425" y="2540" height="720px" width="720px" />
                           </g>
                           <g id="s12pe65s" class="stem">
                              <path d="M15434 2568 L15434 3242" stroke="currentColor" stroke-width="18" />
                           </g>
                        </g>
                     </g>
                     <g id="m-c2a89018-8e7f-4160-83ae-3972c6178484" class="beam">
                        <polygon points="15778,3125 16653,3125 16653,3035 15778,3035" />
                        <polygon points="16291,2990 16653,2990 16653,2900 16291,2900" />
                        <g id="m-458cee5e-a60d-4491-a323-fa03cd33bede" class="note">
                           <g class="notehead">
                              <use xlink:href="#E0A4-uuqxmg" x="15778" y="2090" height="720px" width="720px" />
                           </g>
                           <g id="sno9mle" class="stem">
                              <path d="M15787 2118 L15787 3107" stroke="currentColor" stroke-width="18" />
                           </g>
                           <g id="a14vbd" class="accid" />
                        </g>
                        <g id="m-645d2d9c-d7bf-4ec5-a687-bcf61864785c" class="note">
                           <g class="notehead">
                              <use xlink:href="#E0A4-uuqxmg" x="16282" y="2540" height="720px" width="720px" />
                           </g>
                           <g id="s8yhmtv" class="stem">
                              <path d="M16291 2568 L16291 3107" stroke="currentColor" stroke-width="18" />
                           </g>
                        </g>
                        <g id="m-69833b42-d601-43c6-86c2-0706e921dd9e" class="note">
                           <g class="notehead">
                              <use xlink:href="#E0A4-uuqxmg" x="16635" y="2540" height="720px" width="720px" />
                           </g>
                           <g id="sffd9h0" class="stem">
                              <path d="M16644 2568 L16644 3107" stroke="currentColor" stroke-width="18" />
                           </g>
                        </g>
                     </g>
                     <g id="m-a1fbf154-aaf6-43d1-aaa0-de0fcb35ca66" class="beam">
                        <polygon points="16989,2990 17510,3035 17510,2945 16989,2900" />
                        <g id="m-559a57aa-ae59-48a3-986c-9d4b52b521d4" class="note">
                           <g class="notehead">
                              <use xlink:href="#E0A4-uuqxmg" x="16989" y="2090" height="720px" width="720px" />
                           </g>
                           <g id="s1ayszpp" class="stem">
                              <path d="M16998 2118 L16998 2972" stroke="currentColor" stroke-width="18" />
                           </g>
                           <g id="ak9j6t7" class="accid" />
                        </g>
                        <g id="m-98acb8a7-0d76-4651-9564-6382a2b3f260" class="note">
                           <g class="notehead">
                              <use xlink:href="#E0A4-uuqxmg" x="17492" y="2540" height="720px" width="720px" />
                           </g>
                           <g id="sj5snjg" class="stem">
                              <path d="M17501 2568 L17501 3017" stroke="currentColor" stroke-width="18" />
                           </g>
                        </g>
                     </g>
                  </g>
               </g>
               <g id="b187x3m3" class="barLine">
                  <path d="M17996 1730 L17996 2450" stroke="currentColor" stroke-width="27" />
               </g>
            </g>
            <g id="m-4c7e6e65-ecba-410d-a000-13810bf17069" class="measure">
               <g id="m-5060aa40-fc10-49cb-9e63-b86703630cee" class="staff">
                  <path d="M18009 1730 L20003 1730" stroke="currentColor" stroke-width="13" />
                  <path d="M18009 1910 L20003 1910" stroke="currentColor" stroke-width="13" />
                  <path d="M18009 2090 L20003 2090" stroke="currentColor" stroke-width="13" />
                  <path d="M18009 2270 L20003 2270" stroke="currentColor" stroke-width="13" />
                  <path d="M18009 2450 L20003 2450" stroke="currentColor" stroke-width="13" />
                  <g id="m-5b9c3948-7951-4aa1-b617-cddc193efe85" class="layer">
                     <g id="m-3591303d-3f63-432e-ad29-eef56d3a3a15" class="note">
                        <g class="notehead">
                           <use xlink:href="#E0B5-uuqxmg" x="18211" y="1640" height="720px" width="720px" />
                        </g>
                     </g>
                  </g>
                  <g id="m-03203326-cc28-4106-9caa-26e40ad744bc" class="layer">
                     <g id="m-38c3711e-c8a4-4f0b-b2a3-00ef4f9951b7" class="note">
                        <g class="notehead">
                           <use xlink:href="#E0A2-uuqxmg" x="18211" y="2540" height="720px" width="720px" />
                        </g>
                     </g>
                  </g>
               </g>
               <g id="b1x7hhre" class="barLine">
                  <path d="M19990 1730 L19990 2450" stroke="currentColor" stroke-width="27" />
               </g>
            </g>
            <g id="sgapizm" class="systemMilestoneEnd m-1000ee87-b91b-4e03-b47d-f7c0ee9d4cdb" />
         </g>
         <g id="pn9s837" class="pageMilestoneEnd m-1563907d-9b57-4126-aa77-983880b90dd3" />
         <g id="p13sa9pu" class="pageMilestoneEnd m-bd1a0009-b461-4c3d-a7a5-8dc6e03f7b67" />
         <g id="p9nfqke" class="pgHead autogenerated">
            <text font-size="0px">
               <tspan id="rm9exm" class="rend" x="10000" y="415" text-anchor="middle">
                  <title class="labelAttr">title</title>
                  <tspan id="r1g2pbc1" class="rend">
                     <tspan id="t102gare" class="text">
                        <tspan font-size="607px">21_rock_120_beat_4-4</tspan>
                     </tspan>
                  </tspan>
                  <tspan id="lbbg0br" class="lb" />
                  <tspan id="re0550g" class="rend">
                     <tspan id="trdk1xr" class="text" x="10000" y="805">
                        <tspan font-size="324px">21_rock_120_beat_4-4</tspan>
                     </tspan>
                  </tspan>
               </tspan>
            </text>
         </g>
         <g id="pr1duys" class="pgFoot autogenerated">
            <g id="f117jt63" class="fig">
               <g class="svg" transform="translate(7750, 28099) scale(10.000000, 10.000000)">
                  <g>
                     <path fill="#00000" d="M 17.11278,49.26451 V 10.367554 h 12.696511 c 3.288815,7.336676 6.71267,14.610456 10.127281,21.888976 3.419998,-7.484684 6.255515,-14.204887 9.58887,-21.909915 2.436207,0.103726 4.316952,0.08453 6.484294,-0.05808 V 49.264423 H 50.274275 C 50.145222,38.35639 50.016136,27.448368 49.887066,16.540329 45.003488,27.315459 39.967448,38.433564 35.083854,49.208695 34.678996,49.343717 34.426583,49.135619 34.021726,49.270644 29.46588,39.330716 24.910049,29.390805 20.354201,19.450876 20.224341,29.388756 20.09461,39.326619 19.964815,49.264497 H 17.11278 Z M 36.754144,39.324695 C 32.721221,30.512695 28.6883,21.700679 24.655394,12.888662 22.530527,12.750737 22.656775,12.71031 20.714356,12.813974 v 0.966497 c 4.612938,9.99784 9.609439,20.748709 13.87298,30.081745 0.722248,-1.512523 1.444528,-3.025014 2.166808,-4.537521 z m 25.738417,9.939815 c 0,-12.965651 0,-25.931305 0,-38.896956 10.084388,0 20.168791,0 30.253178,0 0,0.960416 0,1.920849 0,2.881265 -6.482825,0 -12.965652,0 -19.448478,0 0,4.802097 0,9.604178 0,14.406277 5.52241,0 11.044819,0 16.567229,0 0,0.960415 0,1.920832 0,2.881248 -5.52241,0 -11.044819,0 -16.567229,0 0,5.282306 0,10.564611 0,15.846917 6.963035,0 13.926068,0 20.889103,0 0,0.960416 0,1.920832 0,2.881249 -10.564597,0 -21.129207,0 -31.693803,0 z m 4.321874,-2.160937 c 0,-11.765131 0,-23.530263 0,-35.295394 -0.720312,0 -1.440625,0 -2.160937,0 0,11.765131 0,23.530263 0,35.295394 0.720312,0 1.440625,0 2.160937,0 z m 32.41413,2.160937 c 0,-12.965651 0,-25.931305 0,-38.896956 2.401045,0 4.802095,0 7.203135,0 0,12.965651 0,25.931305 0,38.896956 -2.40104,0 -4.80209,0 -7.203135,0 z m 2.881265,-2.160937 c 0,-11.765131 0,-23.530263 0,-35.295394 -0.72031,0 -1.44064,0 -2.160953,0 0,11.765131 0,23.530263 0,35.295394 0.720313,0 1.440643,0 2.160953,0 z" />
                     <path fill="#00000" d="m 346.3,6.7 c -3.1,0.5 -4.9,4.4 -2.7,6.8 1.2,1.4 2.7,2.4 4.1,3.5 -2.4,5.3 -7.7,8.3 -11.9,12.1 -3.7,2.8 -7,6.2 -9.7,9.9 -2.2,-0.8 -0.3,-6.8 -0.6,-9.5 0.1,-3.1 0.7,-6.4 2.9,-8.7 1.3,-1.9 3,-3.5 4.5,-5.2 1.2,-3.4 -3.2,-4.9 -5.8,-4.6 -7.3,-0.5 -14.6,2 -20,6.8 -5,4.6 -10,10.1 -11.5,17 -0.9,3.5 -0.2,7.5 2.8,9.9 2.5,2.8 7.4,2.9 9.8,-0.2 1.7,-2.3 3.2,-4.8 3.8,-7.6 -0.1,-2.6 -4.4,-2.3 -4.3,0.2 1.2,2.4 -0.9,4.7 -2.7,6.2 -1.7,0.9 -4.7,0.7 -4.8,-1.7 -1,-5.8 2.1,-11.3 5.2,-16.1 4,-5.8 9.8,-11.2 17.2,-11.8 1.6,0 8.1,-1.2 6.8,1.4 -2.8,2.8 -5.6,6.1 -6,10.3 -1.6,7.7 0.1,15.7 -2.3,23.2 -1.1,3.9 2,2.6 2.5,0.2 3.3,-7.4 8.9,-13.4 15.1,-18.5 4.2,-3.9 9.5,-7.1 11.9,-12.6 1.3,-3.6 1.2,-9 -2.7,-10.9 -0.6,-0.2 -1.2,-0.3 -1.8,-0.3 z m 66,14.5 c -2,0.8 -1.8,4.9 0.8,4.4 3.4,0.4 2.9,-6.2 -0.8,-4.4 z m 0.6,7.3 c -1.3,0.5 -7.6,0.5 -5.4,2.2 4,-0.3 0.7,4.5 0.6,6.7 -0.4,2.9 -2.4,5.9 -1.2,8.8 2.7,1.7 5.6,-0.8 6.8,-3.2 1.6,-1.4 -0.5,-3 -1.2,-0.9 -0.4,0.8 -2.4,3.5 -2.6,1.8 1.1,-5 2.7,-9.9 3.9,-14.9 l -0.1,-0.5 h -0.9 z m -65.1,0.2 c -6.5,1.6 -10.5,9.5 -8.2,15.7 2.1,3.4 7.4,2.9 10.1,0.4 2,-0.2 3.6,-5.3 1,-3.4 -1.4,2 -4,4.2 -6.5,2.8 -2.2,-1.9 -1.9,-5.7 1.7,-5.3 3.1,-0.9 6.9,-2.1 8.1,-5.5 0.9,-2.7 -1.6,-5.2 -4.3,-4.8 h -1.1 -0.7 z m 13.6,0 c -2.2,0 -8.5,1.8 -2.9,2.3 0.9,1.9 -1,4.9 -1.1,7.2 -0.5,2.9 -1.4,5.7 -1.7,8.7 3.7,0.7 3.8,-2.6 4.4,-5.3 0.9,-3.3 1.6,-7 4.1,-9.5 2.4,1.6 6.8,-0.7 3.7,-3.4 -2.9,-0.5 -4.8,2.4 -6.2,4.3 0,-1.2 2.4,-5 -0.2,-4.3 z m 15.8,0 c -6.4,1.3 -9.6,9.1 -7.7,14.9 1.9,4 7.7,3.9 11,1.7 4.1,-3 6,-8.9 4.4,-13.7 -1.3,-3 -4.8,-3.2 -7.6,-3 z m 17,0 c -2.3,0 -8.8,1.9 -3,2.4 0.4,2.5 -1,5.7 -1.4,8.4 -0.7,2.4 -1.8,7.5 2.1,7.2 3.8,-0.1 6.5,-3.5 8.5,-6.3 2,-3.2 4.5,-7 3.3,-10.9 -3.7,-3 -3.6,2.6 -3.1,5.1 -0.7,3.8 -2.7,7.9 -6.2,9.8 -3.6,0.6 -1,-4.3 -0.8,-6.1 0.6,-3.2 1.6,-6.3 1.9,-9.5 -0.4,0 -0.8,0 -1.1,0 z m 30.6,0 c -6.3,1.2 -9.5,8.9 -7.8,14.7 1.5,4 7.2,4.2 10.5,2.4 4.6,-2.8 6.6,-9.3 4.8,-14.3 -1.4,-2.8 -4.8,-3 -7.5,-2.8 z m -75.4,1.7 c 2.1,1.5 0.2,4.7 -1.6,5.7 -1.1,0.4 -5.5,3.4 -4.6,0.7 0.8,-2.7 2.2,-6.2 5.3,-6.6 l 0.9,0.1 z m 30.8,0 c 2.6,1.5 1.3,5.2 0.8,7.6 -0.8,2.7 -1.9,5.9 -4.7,7.1 -5.1,0.8 -4,-5.8 -2.8,-8.8 1,-2.8 3,-6.8 6.7,-5.8 z m 47.1,-0.1 c 2.9,0.7 2,4.7 1.5,6.8 -0.7,3 -1.8,6.7 -5,8 -4.7,0.8 -4,-5.1 -3,-7.9 0.9,-3 2.7,-7.3 6.5,-6.8 z m -88.1,5.9 c -0.3,1.3 0.9,-0.6 0,0 z m -1.1,2.4 c -0.2,0.5 0.5,-0.1 0,0 z m -1.3,4.5 c -0.3,1.3 0.8,-0.2 0,0 z" />
                     <text y="41" x="201" fill="#00000" style="font-style:italic;font-weight:normal;font-size:30px;line-height:125%;font-family:Times;text-anchor:middle" xml:space="preserve">engraved with</text>
                  </g>
               </g>
            </g>
         </g>
      </g>
   </svg>
</svg>
