<?xml version="1.0" encoding="UTF-8" standalone="no"?>
<svg width="2100px" height="2970px" version="1.1" xmlns="http://www.w3.org/2000/svg" xmlns:xlink="http://www.w3.org/1999/xlink" xmlns:mei="http://www.music-encoding.org/ns/mei" overflow="visible">
   <desc>Engraved by Verovio 4.4.0-66ab39c</desc>
   <defs>
      <symbol id="E240-15q51tf" viewBox="0 0 1000 1000" overflow="inherit">
         <path transform="scale(1,-1)" d="M179 -646c15 29 29 55 46 102c18 49 30 108 30 138c0 105 -80 173 -168 200c-18 5 -47 9 -87 16v190h22c8 0 33 -61 71 -95c4 -3 -2 3 61 -56c62 -58 122 -137 122 -241c0 -38 -13 -106 -35 -163c-20 -51 -43 -99 -66 -132c-6 -5 -10 -7 -13 -7s-5 2 -5 5l4 10 c1 3 14 25 18 33z" />
      </symbol>
      <symbol id="E4E7-15q51tf" viewBox="0 0 1000 1000" overflow="inherit">
         <path transform="scale(1,-1)" d="M133 -111c0 -33 -21 -50 -52 -55c10 -3 18 -4 25 -4c40 0 69 24 90 47l66 197c-36 -18 -64 -25 -112 -25c-23 0 -38 3 -45 8c-37 7 -55 27 -55 59c8 35 30 54 68 58c45 -6 49 -13 64 -48c0 -3 1 -5 1 -7c0 -27 -25 -46 -52 -49c6 -4 15 -6 26 -6c32 2 62 14 88 29 c32 19 44 36 59 71l7 1l10 2h4c-72 -220 -143 -439 -215 -659h-37l108 324c-20 -13 -51 -20 -82 -20c-21 0 -35 4 -43 10c-37 6 -55 26 -55 58c8 35 31 56 68 60c43 -8 48 -13 64 -51z" />
      </symbol>
      <symbol id="E084-15q51tf" viewBox="0 0 1000 1000" overflow="inherit">
         <path transform="scale(1,-1)" d="M20 -78c84 97 114 180 134 329h170c-13 -32 -82 -132 -99 -151l-84 -97c-33 -36 -59 -63 -80 -81h162v102l127 123v-225h57v-39h-57v-34c0 -43 19 -65 57 -65v-34h-244v36c48 0 60 26 60 70v27h-203v39z" />
      </symbol>
      <symbol id="E0A2-15q51tf" viewBox="0 0 1000 1000" overflow="inherit">
         <path transform="scale(1,-1)" d="M198 133c102 0 207 -45 207 -133c0 -92 -118 -133 -227 -133c-101 0 -178 46 -178 133c0 88 93 133 198 133zM293 -21c0 14 -3 29 -8 44c-7 20 -18 38 -33 54c-20 21 -43 31 -68 31l-20 -2c-15 -5 -27 -14 -36 -28c-4 -9 -6 -17 -8 -24s-3 -16 -3 -27c0 -15 3 -34 9 -57 s18 -41 34 -55c15 -15 36 -23 62 -23c4 0 10 1 18 2c19 5 32 15 40 30s13 34 13 55z" />
      </symbol>
      <symbol id="E0A4-15q51tf" viewBox="0 0 1000 1000" overflow="inherit">
         <path transform="scale(1,-1)" d="M0 -39c0 68 73 172 200 172c66 0 114 -37 114 -95c0 -84 -106 -171 -218 -171c-64 0 -96 30 -96 94z" />
      </symbol>
      <symbol id="E0A9-15q51tf" viewBox="0 0 1000 1000" overflow="inherit">
         <path transform="scale(1,-1)" d="M0 -110c0 4 1 8 5 11l119 99l-119 100c-3 3 -5 8 -5 12c0 6 5 13 12 13c3 0 6 -1 8 -2l124 -105l126 105c2 1 5 2 7 2c6 0 13 -6 13 -14c0 -4 -2 -9 -5 -11l-119 -100l119 -99c3 -3 5 -7 5 -12c0 -6 -5 -14 -13 -14c-2 0 -5 1 -7 3l-126 105l-124 -105c-2 -2 -4 -3 -7 -3 c-8 0 -13 7 -13 15z" />
      </symbol>
      <symbol id="E4E3-15q51tf" viewBox="0 0 1000 1000" overflow="inherit">
         <path transform="scale(1,-1)" d="M0 -115v105c0 9 1 10 10 10h280c9 0 10 -1 10 -10v-105c0 -9 -1 -10 -10 -10h-280c-9 0 -10 1 -10 10z" />
      </symbol>
      <symbol id="E069-15q51tf" viewBox="0 0 1000 1000" overflow="inherit">
         <path transform="scale(1,-1)" d="M200 250h125v-500h-125v500zM0 250h125v-500h-125v500z" />
      </symbol>
   </defs>
   <style type="text/css">g.page-margin{font-family:Times,serif;} g.ending, g.fing, g.reh, g.tempo{font-weight:bold;} g.dir, g.dynam, g.mNum{font-style:italic;} g.label{font-weight:normal;}</style>
   <svg class="definition-scale" color="black" viewBox="0 0 21000 29700">
      <g class="page-margin" transform="translate(500, 500)">
         <g id="m-0e02df8f-dc1a-4d2b-8319-ca0936cc9a0b" class="mdiv pageMilestone" />
         <g id="m-9cea6b13-8949-4b79-aa8f-77e1a5246f25" class="score pageMilestone" />
         <g id="sass5rv" class="system">
            <g id="m-ceb60761-8337-46b6-853c-9adb604e0c23" class="section systemMilestone" />
            <g id="m-5604109b-2f95-498d-8510-5925ff46f28a" class="measure">
               <g id="m-4fde381c-47fb-4535-9ebc-e9ade94fc7ac" class="staff">
                  <path d="M0 1733 L4849 1733" stroke="currentColor" stroke-width="13" />
                  <path d="M0 1913 L4849 1913" stroke="currentColor" stroke-width="13" />
                  <path d="M0 2093 L4849 2093" stroke="currentColor" stroke-width="13" />
                  <path d="M0 2273 L4849 2273" stroke="currentColor" stroke-width="13" />
                  <path d="M0 2453 L4849 2453" stroke="currentColor" stroke-width="13" />
                  <g id="c1bcu35q" class="clef">
                     <use xlink:href="#E069-15q51tf" x="90" y="2093" height="720px" width="720px" />
                  </g>
                  <g id="kv2riv2" class="keySig" />
                  <g id="m1iwrtai" class="meterSig">
                     <use xlink:href="#E084-15q51tf" x="490" y="1913" height="720px" width="720px" />
                     <use xlink:href="#E084-15q51tf" x="490" y="2273" height="720px" width="720px" />
                  </g>
                  <g id="m-381e1a14-f175-48d7-9e65-b13379950d9d" class="layer">
                     <g id="m-8288116f-7dbb-4839-90c9-e4b6f6fabff7" class="note">
                        <g class="notehead">
                           <use xlink:href="#E0A9-15q51tf" x="1052" y="1643" height="720px" width="720px" />
                        </g>
                        <g id="sxpok79" class="stem">
                           <path d="M1251 1564 L1251 1193" stroke="currentColor" stroke-width="18" />
                        </g>
                     </g>
                     <g id="m-2dda94e3-a43f-431a-8ada-86129feacdb5" class="note">
                        <g class="notehead">
                           <use xlink:href="#E0A9-15q51tf" x="1948" y="1643" height="720px" width="720px" />
                        </g>
                        <g id="s16381xe" class="stem">
                           <path d="M2147 1564 L2147 1193" stroke="currentColor" stroke-width="18" />
                        </g>
                     </g>
                     <g id="m-f89c10ef-12b1-4f12-9c24-0066ef25b2cf" class="note">
                        <g class="notehead">
                           <use xlink:href="#E0A9-15q51tf" x="3030" y="1643" height="720px" width="720px" />
                        </g>
                        <g id="sz1a6rq" class="stem">
                           <path d="M3229 1564 L3229 1193" stroke="currentColor" stroke-width="18" />
                        </g>
                     </g>
                     <g id="m-0eeb8706-de6d-4598-9525-b8db6b7c90f4" class="note">
                        <g class="notehead">
                           <use xlink:href="#E0A9-15q51tf" x="3926" y="1643" height="720px" width="720px" />
                        </g>
                        <g id="sra3obi" class="stem">
                           <path d="M4125 1564 L4125 1193" stroke="currentColor" stroke-width="18" />
                        </g>
                     </g>
                  </g>
                  <g id="m-3052b3ed-0af8-437f-ab6f-8b7b67d0b60e" class="layer">
                     <g id="m-68de0550-f3f2-46b7-a28e-1b6b779a3d6e" class="beam">
                        <polygon points="1052,2993 1650,2813 1650,2723 1052,2903" />
                        <polygon points="1424,2743 1650,2678 1650,2588 1424,2653" />
                        <g id="m-4f236dcf-9442-4706-8c91-418f0ea717ba" class="note">
                           <g class="notehead">
                              <use xlink:href="#E0A4-15q51tf" x="1052" y="2543" height="720px" width="720px" />
                           </g>
                           <g id="d10rp7o5" class="dots">
                              <ellipse cx="1368" cy="2543" rx="36" ry="36" />
                           </g>
                           <g id="shtfcw6" class="stem">
                              <path d="M1061 2571 L1061 2975" stroke="currentColor" stroke-width="18" />
                           </g>
                        </g>
                        <g id="m-761b8625-96e6-4222-824d-24c66c87ef40" class="note">
                           <g class="notehead">
                              <use xlink:href="#E0A4-15q51tf" x="1632" y="2093" height="720px" width="720px" />
                           </g>
                           <g id="s1bd8i6j" class="stem">
                              <path d="M1641 2121 L1641 2795" stroke="currentColor" stroke-width="18" />
                           </g>
                           <g id="amk9d5u" class="accid" />
                        </g>
                     </g>
                     <g id="m-f61647d5-f00c-4b04-b404-b510c2ed79a6" class="beam">
                        <polygon points="1948,3128 2732,3128 2732,3038 1948,3038" />
                        <polygon points="1948,2993 2174,2993 2174,2903 1948,2903" />
                        <polygon points="2506,2993 2732,2993 2732,2903 2506,2903" />
                        <g id="m-cbff3352-7d92-4c6a-8c38-912de6652f2e" class="note">
                           <g class="notehead">
                              <use xlink:href="#E0A4-15q51tf" x="1948" y="2543" height="720px" width="720px" />
                           </g>
                           <g id="s79q16o" class="stem">
                              <path d="M1957 2571 L1957 3110" stroke="currentColor" stroke-width="18" />
                           </g>
                        </g>
                        <g id="m-f30e5977-997e-411d-80d7-8d2a6cf48141" class="note">
                           <g class="notehead">
                              <use xlink:href="#E0A4-15q51tf" x="2264" y="2543" height="720px" width="720px" />
                           </g>
                           <g id="s1fwqhc" class="stem">
                              <path d="M2273 2571 L2273 3110" stroke="currentColor" stroke-width="18" />
                           </g>
                        </g>
                        <g id="m-84da6538-7c83-4c8f-b229-8754d60bd86a" class="note">
                           <g class="notehead">
                              <use xlink:href="#E0A4-15q51tf" x="2714" y="2093" height="720px" width="720px" />
                           </g>
                           <g id="s1lo8xe7" class="stem">
                              <path d="M2723 2121 L2723 3110" stroke="currentColor" stroke-width="18" />
                           </g>
                           <g id="a167ye3o" class="accid" />
                        </g>
                     </g>
                     <g id="m-af71e35b-b52c-406e-8ccb-7b599688451a" class="beam">
                        <polygon points="3030,2993 3628,2813 3628,2723 3030,2903" />
                        <polygon points="3402,2743 3628,2678 3628,2588 3402,2653" />
                        <g id="m-ba04f8d3-7143-4c11-ab8d-1d278ad39583" class="note">
                           <g class="notehead">
                              <use xlink:href="#E0A4-15q51tf" x="3030" y="2543" height="720px" width="720px" />
                           </g>
                           <g id="dxzfjzi" class="dots">
                              <ellipse cx="3346" cy="2543" rx="36" ry="36" />
                           </g>
                           <g id="s14zqq00" class="stem">
                              <path d="M3039 2571 L3039 2975" stroke="currentColor" stroke-width="18" />
                           </g>
                        </g>
                        <g id="m-8eb26931-fa4c-490b-bdf8-4f8a13ec59b1" class="note">
                           <g class="notehead">
                              <use xlink:href="#E0A4-15q51tf" x="3610" y="2093" height="720px" width="720px" />
                           </g>
                           <g id="s1r3rgw2" class="stem">
                              <path d="M3619 2121 L3619 2795" stroke="currentColor" stroke-width="18" />
                           </g>
                           <g id="af3k1kv" class="accid" />
                        </g>
                     </g>
                     <g id="m-d22554de-9521-49d5-aff5-fa453e61315b" class="beam">
                        <polygon points="3926,2993 4524,2813 4524,2723 3926,2903" />
                        <polygon points="4298,2743 4524,2678 4524,2588 4298,2653" />
                        <g id="m-8d8dde23-87b2-4772-8648-0d456dbb6ec2" class="note">
                           <g class="notehead">
                              <use xlink:href="#E0A4-15q51tf" x="3926" y="2543" height="720px" width="720px" />
                           </g>
                           <g id="duhbw54" class="dots">
                              <ellipse cx="4242" cy="2543" rx="36" ry="36" />
                           </g>
                           <g id="sire2u6" class="stem">
                              <path d="M3935 2571 L3935 2975" stroke="currentColor" stroke-width="18" />
                           </g>
                        </g>
                        <g id="m-786cf194-76e4-4a21-aac5-e400c70ddd82" class="note">
                           <g class="notehead">
                              <use xlink:href="#E0A4-15q51tf" x="4506" y="2093" height="720px" width="720px" />
                           </g>
                           <g id="soiiyny" class="stem">
                              <path d="M4515 2121 L4515 2795" stroke="currentColor" stroke-width="18" />
                           </g>
                           <g id="a19gcaoe" class="accid" />
                        </g>
                     </g>
                  </g>
               </g>
               <g id="b13wxrv3" class="barLine">
                  <path d="M4836 1733 L4836 2453" stroke="currentColor" stroke-width="27" />
               </g>
            </g>
            <g id="m-e43bd24e-3c5a-4587-8cb8-363b2a3ab87d" class="measure">
               <g id="m-6973f6c3-e2d6-4416-a3f4-e18db372ad6c" class="staff">
                  <path d="M4849 1733 L8823 1733" stroke="currentColor" stroke-width="13" />
                  <path d="M4849 1913 L8823 1913" stroke="currentColor" stroke-width="13" />
                  <path d="M4849 2093 L8823 2093" stroke="currentColor" stroke-width="13" />
                  <path d="M4849 2273 L8823 2273" stroke="currentColor" stroke-width="13" />
                  <path d="M4849 2453 L8823 2453" stroke="currentColor" stroke-width="13" />
                  <g id="m-46eedfea-c5f6-4745-9046-271c0cb109fe" class="layer">
                     <g id="m-d690a01d-7602-4fab-83f4-cf3ce4061969" class="note">
                        <g class="notehead">
                           <use xlink:href="#E0A9-15q51tf" x="5029" y="1643" height="720px" width="720px" />
                        </g>
                        <g id="s1m17dop" class="stem">
                           <path d="M5228 1564 L5228 1193" stroke="currentColor" stroke-width="18" />
                        </g>
                     </g>
                     <g id="m-7e1555b3-84b9-4450-aaab-4683eab13fc2" class="note">
                        <g class="notehead">
                           <use xlink:href="#E0A9-15q51tf" x="5925" y="1643" height="720px" width="720px" />
                        </g>
                        <g id="sfaa97a" class="stem">
                           <path d="M6124 1564 L6124 1193" stroke="currentColor" stroke-width="18" />
                        </g>
                     </g>
                     <g id="m-3d317403-e7c1-42fd-a2b4-0af1f9078ecb" class="beam">
                        <polygon points="7015,1058 7799,1058 7799,1148 7015,1148" />
                        <polygon points="7573,1193 7799,1193 7799,1283 7573,1283" />
                        <g id="m-7bcc05f3-45a2-4206-9cec-e46d4ed20e25" class="note">
                           <g class="notehead">
                              <use xlink:href="#E0A9-15q51tf" x="6825" y="1643" height="720px" width="720px" />
                           </g>
                           <g id="dq8wsgn" class="dots">
                              <ellipse cx="7123" cy="1643" rx="36" ry="36" />
                           </g>
                           <g id="sq27o9l" class="stem">
                              <path d="M7024 1564 L7024 1076" stroke="currentColor" stroke-width="18" />
                           </g>
                        </g>
                        <g id="m-7960541d-cc06-4725-a34a-f5b88bcc26ef" class="note">
                           <g class="notehead">
                              <use xlink:href="#E0A9-15q51tf" x="7591" y="1643" height="720px" width="720px" />
                           </g>
                           <g id="sk1ciis" class="stem">
                              <path d="M7790 1564 L7790 1076" stroke="currentColor" stroke-width="18" />
                           </g>
                        </g>
                     </g>
                     <g id="m-ba7d42f5-4821-4f67-93c3-2f71ac2c4b79" class="rest">
                        <use xlink:href="#E4E7-15q51tf" x="7891" y="1373" height="720px" width="720px" />
                     </g>
                     <g id="m-e3324770-654a-46d7-9017-f5dd00134ea4" class="note">
                        <g class="notehead">
                           <use xlink:href="#E0A9-15q51tf" x="8214" y="1643" height="720px" width="720px" />
                        </g>
                        <g id="d1on56h1" class="dots">
                           <ellipse cx="8670" cy="1643" rx="36" ry="36" />
                        </g>
                        <g id="s22xsks" class="stem">
                           <path d="M8413 1564 L8413 1133" stroke="currentColor" stroke-width="18" />
                           <g id="f52h0rd" class="flag">
                              <use xlink:href="#E240-15q51tf" x="8404" y="1133" height="720px" width="720px" />
                           </g>
                        </g>
                     </g>
                  </g>
                  <g id="m-28a0e538-d38b-4346-84c7-4c57ab9f18e0" class="layer">
                     <g id="m-e2ce17ed-9ca8-4d17-9baf-ca31b1ada919" class="beam">
                        <polygon points="5029,2993 5627,2813 5627,2723 5029,2903" />
                        <polygon points="5401,2743 5627,2678 5627,2588 5401,2653" />
                        <g id="m-447535aa-9426-45af-8df1-93f11b65f540" class="note">
                           <g class="notehead">
                              <use xlink:href="#E0A4-15q51tf" x="5029" y="2543" height="720px" width="720px" />
                           </g>
                           <g id="d1f39rgg" class="dots">
                              <ellipse cx="5345" cy="2543" rx="36" ry="36" />
                           </g>
                           <g id="s1b3tuqq" class="stem">
                              <path d="M5038 2571 L5038 2975" stroke="currentColor" stroke-width="18" />
                           </g>
                        </g>
                        <g id="m-3920c062-4eb7-4fb0-8c1c-baa09e177238" class="note">
                           <g class="notehead">
                              <use xlink:href="#E0A4-15q51tf" x="5609" y="2093" height="720px" width="720px" />
                           </g>
                           <g id="s1a5ogrc" class="stem">
                              <path d="M5618 2121 L5618 2795" stroke="currentColor" stroke-width="18" />
                           </g>
                           <g id="anfmrcd" class="accid" />
                        </g>
                     </g>
                     <g id="m-e5b7478a-ba5c-4390-96b0-ce513fb86684" class="beam">
                        <polygon points="5925,3038 6393,2993 6393,2903 5925,2948" />
                        <g id="m-7f47460a-639d-4a08-9bfc-558dcfe481a7" class="note">
                           <g class="notehead">
                              <use xlink:href="#E0A4-15q51tf" x="5925" y="2543" height="720px" width="720px" />
                           </g>
                           <g id="s16ew3aj" class="stem">
                              <path d="M5934 2571 L5934 3020" stroke="currentColor" stroke-width="18" />
                           </g>
                        </g>
                        <g id="m-eb430597-072a-4264-8786-09dd2e490110" class="note">
                           <g class="notehead">
                              <use xlink:href="#E0A4-15q51tf" x="6375" y="2093" height="720px" width="720px" />
                           </g>
                           <g id="smu6xgp" class="stem">
                              <path d="M6384 2121 L6384 2975" stroke="currentColor" stroke-width="18" />
                           </g>
                           <g id="a1ug83bc" class="accid" />
                        </g>
                     </g>
                     <g id="m-e3237dac-edc3-43bb-8043-e4886b0aab3e" class="beam">
                        <polygon points="6825,3038 7293,2993 7293,2903 6825,2948" />
                        <g id="m-df27adbd-1f9d-406f-acf4-504abd4e602d" class="note">
                           <g class="notehead">
                              <use xlink:href="#E0A4-15q51tf" x="6825" y="2543" height="720px" width="720px" />
                           </g>
                           <g id="s1tx1s37" class="stem">
                              <path d="M6834 2571 L6834 3020" stroke="currentColor" stroke-width="18" />
                           </g>
                        </g>
                        <g id="m-7bdfc99e-9bd9-4e69-8be7-2d92ae150db8" class="note">
                           <g class="notehead">
                              <use xlink:href="#E0A4-15q51tf" x="7275" y="2093" height="720px" width="720px" />
                           </g>
                           <g id="s1djffey" class="stem">
                              <path d="M7284 2121 L7284 2975" stroke="currentColor" stroke-width="18" />
                           </g>
                           <g id="a1wze8ru" class="accid" />
                        </g>
                     </g>
                     <g id="m-a8a6f2e4-a2cb-4787-a6db-1a1fc917ec21" class="beam">
                        <polygon points="7891,3128 8232,3128 8232,3038 7891,3038" />
                        <polygon points="7891,2993 8117,2993 8117,2903 7891,2903" />
                        <g id="m-d9fbc8d5-60cc-4f10-a5ae-138c63592920" class="chord">
                           <g id="s1yia6cj" class="stem">
                              <path d="M7900 2121 L7900 3110" stroke="currentColor" stroke-width="18" />
                           </g>
                           <g id="m-9cfebd06-28a5-4599-9daa-62d57d69f5be" class="note">
                              <g class="notehead">
                                 <use xlink:href="#E0A4-15q51tf" x="7891" y="2093" height="720px" width="720px" />
                              </g>
                              <g id="a43yqdx" class="accid" />
                           </g>
                           <g id="m-743dc644-eae2-4ea1-b9ae-445b5c18cdb9" class="note">
                              <g class="notehead">
                                 <use xlink:href="#E0A4-15q51tf" x="7891" y="2543" height="720px" width="720px" />
                              </g>
                           </g>
                        </g>
                        <g id="m-18052368-a381-4dbf-8614-e0dd1e2bd3d0" class="note">
                           <g class="notehead">
                              <use xlink:href="#E0A4-15q51tf" x="8214" y="2543" height="720px" width="720px" />
                           </g>
                           <g id="d2bju4i" class="dots">
                              <ellipse cx="8530" cy="2543" rx="36" ry="36" />
                           </g>
                           <g id="s1x2og8a" class="stem">
                              <path d="M8223 2571 L8223 3110" stroke="currentColor" stroke-width="18" />
                           </g>
                        </g>
                     </g>
                  </g>
               </g>
               <g id="b9zs9g1" class="barLine">
                  <path d="M8810 1733 L8810 2453" stroke="currentColor" stroke-width="27" />
               </g>
            </g>
            <g id="m-08429ae1-fcb4-4239-8168-c6cb1807ce8f" class="measure">
               <g id="m-49f19c66-9274-43bf-90df-70a542dca7c8" class="staff">
                  <path d="M8823 1733 L10606 1733" stroke="currentColor" stroke-width="13" />
                  <path d="M8823 1913 L10606 1913" stroke="currentColor" stroke-width="13" />
                  <path d="M8823 2093 L10606 2093" stroke="currentColor" stroke-width="13" />
                  <path d="M8823 2273 L10606 2273" stroke="currentColor" stroke-width="13" />
                  <path d="M8823 2453 L10606 2453" stroke="currentColor" stroke-width="13" />
                  <g id="m-7711ebc6-79ac-49ab-a3c7-49b5a886d594" class="layer">
                     <g id="m-d5be8162-b13e-483f-b8e8-934ae32a2436" class="rest">
                        <use xlink:href="#E4E3-15q51tf" x="9003" y="1733" height="720px" width="720px" />
                        <g class="ledgerLines" />
                     </g>
                  </g>
                  <g id="m-78a91cb6-6f22-4d07-ae22-2415e1eeca75" class="layer">
                     <g id="m-398afa80-9ff3-41e6-bb8b-4dccb329022c" class="note">
                        <g class="notehead">
                           <use xlink:href="#E0A2-15q51tf" x="9003" y="2093" height="720px" width="720px" />
                        </g>
                        <g id="a17cl8cz" class="accid" />
                     </g>
                  </g>
               </g>
               <g id="b12rbwkv" class="barLine">
                  <path d="M10593 1733 L10593 2453" stroke="currentColor" stroke-width="27" />
               </g>
            </g>
            <g id="sy8wkx2" class="systemMilestoneEnd m-ceb60761-8337-46b6-853c-9adb604e0c23" />
         </g>
         <g id="pkaj8tj" class="pageMilestoneEnd m-9cea6b13-8949-4b79-aa8f-77e1a5246f25" />
         <g id="ptk9wjl" class="pageMilestoneEnd m-0e02df8f-dc1a-4d2b-8319-ca0936cc9a0b" />
         <g id="p11wbyvq" class="pgHead autogenerated">
            <text font-size="0px">
               <tspan id="r1w9emaa" class="rend" x="10000" y="418" text-anchor="middle">
                  <title class="labelAttr">title</title>
                  <tspan id="r4cckxs" class="rend">
                     <tspan id="t1x4i4ih" class="text">
                        <tspan font-size="607px">45_rock_120_beat_4-4</tspan>
                     </tspan>
                  </tspan>
                  <tspan id="l1fogjic" class="lb" />
                  <tspan id="rckgrry" class="rend">
                     <tspan id="txey1wj" class="text" x="10000" y="808">
                        <tspan font-size="324px">45_rock_120_beat_4-4</tspan>
                     </tspan>
                  </tspan>
               </tspan>
            </text>
         </g>
         <g id="p1jth130" class="pgFoot autogenerated">
            <g id="fcfgnlo" class="fig">
               <g class="svg" transform="translate(7750, 28099) scale(10.000000, 10.000000)">
                  <g>
                     <path fill="#00000" d="M 17.11278,49.26451 V 10.367554 h 12.696511 c 3.288815,7.336676 6.71267,14.610456 10.127281,21.888976 3.419998,-7.484684 6.255515,-14.204887 9.58887,-21.909915 2.436207,0.103726 4.316952,0.08453 6.484294,-0.05808 V 49.264423 H 50.274275 C 50.145222,38.35639 50.016136,27.448368 49.887066,16.540329 45.003488,27.315459 39.967448,38.433564 35.083854,49.208695 34.678996,49.343717 34.426583,49.135619 34.021726,49.270644 29.46588,39.330716 24.910049,29.390805 20.354201,19.450876 20.224341,29.388756 20.09461,39.326619 19.964815,49.264497 H 17.11278 Z M 36.754144,39.324695 C 32.721221,30.512695 28.6883,21.700679 24.655394,12.888662 22.530527,12.750737 22.656775,12.71031 20.714356,12.813974 v 0.966497 c 4.612938,9.99784 9.609439,20.748709 13.87298,30.081745 0.722248,-1.512523 1.444528,-3.025014 2.166808,-4.537521 z m 25.738417,9.939815 c 0,-12.965651 0,-25.931305 0,-38.896956 10.084388,0 20.168791,0 30.253178,0 0,0.960416 0,1.920849 0,2.881265 -6.482825,0 -12.965652,0 -19.448478,0 0,4.802097 0,9.604178 0,14.406277 5.52241,0 11.044819,0 16.567229,0 0,0.960415 0,1.920832 0,2.881248 -5.52241,0 -11.044819,0 -16.567229,0 0,5.282306 0,10.564611 0,15.846917 6.963035,0 13.926068,0 20.889103,0 0,0.960416 0,1.920832 0,2.881249 -10.564597,0 -21.129207,0 -31.693803,0 z m 4.321874,-2.160937 c 0,-11.765131 0,-23.530263 0,-35.295394 -0.720312,0 -1.440625,0 -2.160937,0 0,11.765131 0,23.530263 0,35.295394 0.720312,0 1.440625,0 2.160937,0 z m 32.41413,2.160937 c 0,-12.965651 0,-25.931305 0,-38.896956 2.401045,0 4.802095,0 7.203135,0 0,12.965651 0,25.931305 0,38.896956 -2.40104,0 -4.80209,0 -7.203135,0 z m 2.881265,-2.160937 c 0,-11.765131 0,-23.530263 0,-35.295394 -0.72031,0 -1.44064,0 -2.160953,0 0,11.765131 0,23.530263 0,35.295394 0.720313,0 1.440643,0 2.160953,0 z" />
                     <path fill="#00000" d="m 346.3,6.7 c -3.1,0.5 -4.9,4.4 -2.7,6.8 1.2,1.4 2.7,2.4 4.1,3.5 -2.4,5.3 -7.7,8.3 -11.9,12.1 -3.7,2.8 -7,6.2 -9.7,9.9 -2.2,-0.8 -0.3,-6.8 -0.6,-9.5 0.1,-3.1 0.7,-6.4 2.9,-8.7 1.3,-1.9 3,-3.5 4.5,-5.2 1.2,-3.4 -3.2,-4.9 -5.8,-4.6 -7.3,-0.5 -14.6,2 -20,6.8 -5,4.6 -10,10.1 -11.5,17 -0.9,3.5 -0.2,7.5 2.8,9.9 2.5,2.8 7.4,2.9 9.8,-0.2 1.7,-2.3 3.2,-4.8 3.8,-7.6 -0.1,-2.6 -4.4,-2.3 -4.3,0.2 1.2,2.4 -0.9,4.7 -2.7,6.2 -1.7,0.9 -4.7,0.7 -4.8,-1.7 -1,-5.8 2.1,-11.3 5.2,-16.1 4,-5.8 9.8,-11.2 17.2,-11.8 1.6,0 8.1,-1.2 6.8,1.4 -2.8,2.8 -5.6,6.1 -6,10.3 -1.6,7.7 0.1,15.7 -2.3,23.2 -1.1,3.9 2,2.6 2.5,0.2 3.3,-7.4 8.9,-13.4 15.1,-18.5 4.2,-3.9 9.5,-7.1 11.9,-12.6 1.3,-3.6 1.2,-9 -2.7,-10.9 -0.6,-0.2 -1.2,-0.3 -1.8,-0.3 z m 66,14.5 c -2,0.8 -1.8,4.9 0.8,4.4 3.4,0.4 2.9,-6.2 -0.8,-4.4 z m 0.6,7.3 c -1.3,0.5 -7.6,0.5 -5.4,2.2 4,-0.3 0.7,4.5 0.6,6.7 -0.4,2.9 -2.4,5.9 -1.2,8.8 2.7,1.7 5.6,-0.8 6.8,-3.2 1.6,-1.4 -0.5,-3 -1.2,-0.9 -0.4,0.8 -2.4,3.5 -2.6,1.8 1.1,-5 2.7,-9.9 3.9,-14.9 l -0.1,-0.5 h -0.9 z m -65.1,0.2 c -6.5,1.6 -10.5,9.5 -8.2,15.7 2.1,3.4 7.4,2.9 10.1,0.4 2,-0.2 3.6,-5.3 1,-3.4 -1.4,2 -4,4.2 -6.5,2.8 -2.2,-1.9 -1.9,-5.7 1.7,-5.3 3.1,-0.9 6.9,-2.1 8.1,-5.5 0.9,-2.7 -1.6,-5.2 -4.3,-4.8 h -1.1 -0.7 z m 13.6,0 c -2.2,0 -8.5,1.8 -2.9,2.3 0.9,1.9 -1,4.9 -1.1,7.2 -0.5,2.9 -1.4,5.7 -1.7,8.7 3.7,0.7 3.8,-2.6 4.4,-5.3 0.9,-3.3 1.6,-7 4.1,-9.5 2.4,1.6 6.8,-0.7 3.7,-3.4 -2.9,-0.5 -4.8,2.4 -6.2,4.3 0,-1.2 2.4,-5 -0.2,-4.3 z m 15.8,0 c -6.4,1.3 -9.6,9.1 -7.7,14.9 1.9,4 7.7,3.9 11,1.7 4.1,-3 6,-8.9 4.4,-13.7 -1.3,-3 -4.8,-3.2 -7.6,-3 z m 17,0 c -2.3,0 -8.8,1.9 -3,2.4 0.4,2.5 -1,5.7 -1.4,8.4 -0.7,2.4 -1.8,7.5 2.1,7.2 3.8,-0.1 6.5,-3.5 8.5,-6.3 2,-3.2 4.5,-7 3.3,-10.9 -3.7,-3 -3.6,2.6 -3.1,5.1 -0.7,3.8 -2.7,7.9 -6.2,9.8 -3.6,0.6 -1,-4.3 -0.8,-6.1 0.6,-3.2 1.6,-6.3 1.9,-9.5 -0.4,0 -0.8,0 -1.1,0 z m 30.6,0 c -6.3,1.2 -9.5,8.9 -7.8,14.7 1.5,4 7.2,4.2 10.5,2.4 4.6,-2.8 6.6,-9.3 4.8,-14.3 -1.4,-2.8 -4.8,-3 -7.5,-2.8 z m -75.4,1.7 c 2.1,1.5 0.2,4.7 -1.6,5.7 -1.1,0.4 -5.5,3.4 -4.6,0.7 0.8,-2.7 2.2,-6.2 5.3,-6.6 l 0.9,0.1 z m 30.8,0 c 2.6,1.5 1.3,5.2 0.8,7.6 -0.8,2.7 -1.9,5.9 -4.7,7.1 -5.1,0.8 -4,-5.8 -2.8,-8.8 1,-2.8 3,-6.8 6.7,-5.8 z m 47.1,-0.1 c 2.9,0.7 2,4.7 1.5,6.8 -0.7,3 -1.8,6.7 -5,8 -4.7,0.8 -4,-5.1 -3,-7.9 0.9,-3 2.7,-7.3 6.5,-6.8 z m -88.1,5.9 c -0.3,1.3 0.9,-0.6 0,0 z m -1.1,2.4 c -0.2,0.5 0.5,-0.1 0,0 z m -1.3,4.5 c -0.3,1.3 0.8,-0.2 0,0 z" />
                     <text y="41" x="201" fill="#00000" style="font-style:italic;font-weight:normal;font-size:30px;line-height:125%;font-family:Times;text-anchor:middle" xml:space="preserve">engraved with</text>
                  </g>
               </g>
            </g>
         </g>
      </g>
   </svg>
</svg>
