<?xml version="1.0" encoding="UTF-8" standalone="no"?>
<svg width="2100px" height="2970px" version="1.1" xmlns="http://www.w3.org/2000/svg" xmlns:xlink="http://www.w3.org/1999/xlink" xmlns:mei="http://www.music-encoding.org/ns/mei" overflow="visible">
   <desc>Engraved by Verovio 4.4.0-66ab39c</desc>
   <defs>
      <symbol id="E240-1xpve0g" viewBox="0 0 1000 1000" overflow="inherit">
         <path transform="scale(1,-1)" d="M179 -646c15 29 29 55 46 102c18 49 30 108 30 138c0 105 -80 173 -168 200c-18 5 -47 9 -87 16v190h22c8 0 33 -61 71 -95c4 -3 -2 3 61 -56c62 -58 122 -137 122 -241c0 -38 -13 -106 -35 -163c-20 -51 -43 -99 -66 -132c-6 -5 -10 -7 -13 -7s-5 2 -5 5l4 10 c1 3 14 25 18 33z" />
      </symbol>
      <symbol id="E4E5-1xpve0g" viewBox="0 0 1000 1000" overflow="inherit">
         <path transform="scale(1,-1)" d="M107 292c-13 24 -30 49 -52 71c-1 1 0 2 0 3l-2 2c3 3 4 4 6 4c12 0 26 -7 40 -20s44 -40 89 -81c26 -24 28 -29 46 -47c4 -4 8 -9 10 -14c6 -8 8 -16 8 -27c0 -19 -12 -40 -36 -61c-28 -23 -49 -38 -61 -73c-4 -11 -7 -27 -10 -50c13 -43 34 -83 59 -121 c31 -47 59 -79 101 -129c-8 0 -26 7 -54 20l-62 29l-21 6l-23 1c-25 0 -45 -10 -60 -30l-4 -14l-1 -12c0 -33 20 -56 39 -78c8 -9 17 -18 26 -26c17 -15 27 -24 28 -30l-3 -3c-11 5 -19 10 -25 15c-9 3 -37 21 -45 26c-24 14 -45 32 -63 51c-19 21 -37 44 -37 71 c0 63 27 95 80 95c41 0 86 -18 136 -52c-19 26 -37 48 -55 66c-23 23 -48 44 -73 65c-28 23 -47 40 -58 53s-17 26 -18 39c75 64 113 125 113 183c0 27 -7 48 -18 68z" />
      </symbol>
      <symbol id="E4E6-1xpve0g" viewBox="0 0 1000 1000" overflow="inherit">
         <path transform="scale(1,-1)" d="M0 123c7 34 33 56 69 60c29 -3 43 -9 53 -29c4 -8 7 -15 10 -22c0 -21 -1 -25 -11 -35c-5 -8 -18 -14 -40 -20l12 -3l15 -1c44 0 97 26 122 56c10 11 18 26 24 42c7 1 15 2 22 3l-140 -424h-36l111 330c-10 -6 -27 -12 -53 -16l-52 -8h-10l-20 1c-1 0 -8 3 -21 6 c-37 9 -55 28 -55 60z" />
      </symbol>
      <symbol id="E4E7-1xpve0g" viewBox="0 0 1000 1000" overflow="inherit">
         <path transform="scale(1,-1)" d="M133 -111c0 -33 -21 -50 -52 -55c10 -3 18 -4 25 -4c40 0 69 24 90 47l66 197c-36 -18 -64 -25 -112 -25c-23 0 -38 3 -45 8c-37 7 -55 27 -55 59c8 35 30 54 68 58c45 -6 49 -13 64 -48c0 -3 1 -5 1 -7c0 -27 -25 -46 -52 -49c6 -4 15 -6 26 -6c32 2 62 14 88 29 c32 19 44 36 59 71l7 1l10 2h4c-72 -220 -143 -439 -215 -659h-37l108 324c-20 -13 -51 -20 -82 -20c-21 0 -35 4 -43 10c-37 6 -55 26 -55 58c8 35 31 56 68 60c43 -8 48 -13 64 -51z" />
      </symbol>
      <symbol id="E084-1xpve0g" viewBox="0 0 1000 1000" overflow="inherit">
         <path transform="scale(1,-1)" d="M20 -78c84 97 114 180 134 329h170c-13 -32 -82 -132 -99 -151l-84 -97c-33 -36 -59 -63 -80 -81h162v102l127 123v-225h57v-39h-57v-34c0 -43 19 -65 57 -65v-34h-244v36c48 0 60 26 60 70v27h-203v39z" />
      </symbol>
      <symbol id="E0A4-1xpve0g" viewBox="0 0 1000 1000" overflow="inherit">
         <path transform="scale(1,-1)" d="M0 -39c0 68 73 172 200 172c66 0 114 -37 114 -95c0 -84 -106 -171 -218 -171c-64 0 -96 30 -96 94z" />
      </symbol>
      <symbol id="E0A9-1xpve0g" viewBox="0 0 1000 1000" overflow="inherit">
         <path transform="scale(1,-1)" d="M0 -110c0 4 1 8 5 11l119 99l-119 100c-3 3 -5 8 -5 12c0 6 5 13 12 13c3 0 6 -1 8 -2l124 -105l126 105c2 1 5 2 7 2c6 0 13 -6 13 -14c0 -4 -2 -9 -5 -11l-119 -100l119 -99c3 -3 5 -7 5 -12c0 -6 -5 -14 -13 -14c-2 0 -5 1 -7 3l-126 105l-124 -105c-2 -2 -4 -3 -7 -3 c-8 0 -13 7 -13 15z" />
      </symbol>
      <symbol id="E0B6-1xpve0g" viewBox="0 0 1000 1000" overflow="inherit">
         <path transform="scale(1,-1)" d="M0 -36c0 68 73 174 200 174c66 0 114 -39 114 -97c0 -84 -106 -173 -218 -173c-64 0 -96 32 -96 96zM52 -92c6 -2 15 -3 26 -3c29 5 70 23 107 47l-41 31zM208 -31c40 29 70 64 70 95c0 9 -3 16 -7 23l-105 -87zM246 102c-3 1 -7 1 -11 1c-12 0 -26 -3 -41 -10 c-30 -15 -60 -32 -86 -49l36 -26zM85 27c-33 -27 -56 -57 -56 -90c1 -4 2 -7 3 -11l92 74z" />
      </symbol>
      <symbol id="E069-1xpve0g" viewBox="0 0 1000 1000" overflow="inherit">
         <path transform="scale(1,-1)" d="M200 250h125v-500h-125v500zM0 250h125v-500h-125v500z" />
      </symbol>
   </defs>
   <style type="text/css">g.page-margin{font-family:Times,serif;} g.ending, g.fing, g.reh, g.tempo{font-weight:bold;} g.dir, g.dynam, g.mNum{font-style:italic;} g.label{font-weight:normal;}</style>
   <svg class="definition-scale" color="black" viewBox="0 0 21000 29700">
      <g class="page-margin" transform="translate(500, 500)">
         <g id="m-76c341ed-8a9b-4aee-aeef-1557ab96a0d8" class="mdiv pageMilestone" />
         <g id="m-5ce48ba8-2754-4702-9a89-40b383dea284" class="score pageMilestone" />
         <g id="s14okauw" class="system">
            <g id="m-c7cd57d4-b65f-48af-8e56-d8138ff51879" class="section systemMilestone" />
            <g id="m-64409223-d7b3-4777-958d-6dc9ec792c02" class="measure">
               <g id="m-071e0996-072a-4e4b-b68e-5af53e4aa151" class="staff">
                  <path d="M0 1730 L3871 1730" stroke="currentColor" stroke-width="13" />
                  <path d="M0 1910 L3871 1910" stroke="currentColor" stroke-width="13" />
                  <path d="M0 2090 L3871 2090" stroke="currentColor" stroke-width="13" />
                  <path d="M0 2270 L3871 2270" stroke="currentColor" stroke-width="13" />
                  <path d="M0 2450 L3871 2450" stroke="currentColor" stroke-width="13" />
                  <g id="c5m55tn" class="clef">
                     <use xlink:href="#E069-1xpve0g" x="90" y="2090" height="720px" width="720px" />
                  </g>
                  <g id="k1nxenjv" class="keySig" />
                  <g id="m2i8wj9" class="meterSig">
                     <use xlink:href="#E084-1xpve0g" x="490" y="1910" height="720px" width="720px" />
                     <use xlink:href="#E084-1xpve0g" x="490" y="2270" height="720px" width="720px" />
                  </g>
                  <g id="m-281dd4cf-799c-4a5e-ad2d-b6b4e2f04ce6" class="layer">
                     <g id="m-12d28b29-bf3c-4298-a254-aab1b9c67526" class="beam">
                        <polygon points="1242,1055 2026,1055 2026,1145 1242,1145" />
                        <polygon points="1800,1190 2026,1190 2026,1280 1800,1280" />
                        <g id="m-f94af8ff-3152-4c7f-ab3f-f8e0e926e2c2" class="note">
                           <g class="notehead">
                              <use xlink:href="#E0A9-1xpve0g" x="1052" y="1640" height="720px" width="720px" />
                           </g>
                           <g id="dejrffi" class="dots">
                              <ellipse cx="1350" cy="1640" rx="36" ry="36" />
                           </g>
                           <g id="s1u2q8jh" class="stem">
                              <path d="M1251 1561 L1251 1073" stroke="currentColor" stroke-width="18" />
                           </g>
                        </g>
                        <g id="m-2b07494b-e123-402f-ab24-345cad22837c" class="note">
                           <g class="notehead">
                              <use xlink:href="#E0A9-1xpve0g" x="1818" y="1640" height="720px" width="720px" />
                           </g>
                           <g id="sha6nah" class="stem">
                              <path d="M2017 1561 L2017 1073" stroke="currentColor" stroke-width="18" />
                           </g>
                        </g>
                     </g>
                     <g id="m-b67653fa-d50b-4ed4-baed-e5821db265fb" class="rest">
                        <use xlink:href="#E4E5-1xpve0g" x="2118" y="1550" height="720px" width="720px" />
                     </g>
                     <g id="m-de6cf193-937e-4ed1-833d-9e89598e7c1e" class="note">
                        <g class="notehead">
                           <use xlink:href="#E0B6-1xpve0g" x="2808" y="1640" height="720px" width="720px" />
                        </g>
                        <g id="s15hs4e5" class="stem">
                           <path d="M3025 1612 L3025 1190" stroke="currentColor" stroke-width="18" />
                        </g>
                     </g>
                  </g>
                  <g id="m-9eb6df7d-0670-498b-b41e-8e211ce3ba05" class="layer">
                     <g id="m-b47ea3d5-eda1-4f0c-af69-d71c3ae88b14" class="beam">
                        <polygon points="1052,3035 1520,2990 1520,2900 1052,2945" />
                        <g id="m-ddf265c8-96eb-4684-8b35-fa899710c3dd" class="note">
                           <g class="notehead">
                              <use xlink:href="#E0A4-1xpve0g" x="1052" y="2540" height="720px" width="720px" />
                           </g>
                           <g id="s1shfgio" class="stem">
                              <path d="M1061 2568 L1061 3017" stroke="currentColor" stroke-width="18" />
                           </g>
                        </g>
                        <g id="m-69118ecf-280b-420c-bd9b-8d1a68cdccd4" class="note">
                           <g class="notehead">
                              <use xlink:href="#E0A4-1xpve0g" x="1502" y="2090" height="720px" width="720px" />
                           </g>
                           <g id="ssbsltc" class="stem">
                              <path d="M1511 2118 L1511 2972" stroke="currentColor" stroke-width="18" />
                           </g>
                           <g id="a1nr9qms" class="accid" />
                        </g>
                     </g>
                     <g id="m-80c5e9a1-a04d-4f52-89fa-cb5441ba377a" class="chord">
                        <g id="s1phcuyv" class="stem">
                           <path d="M2127 2118 L2127 2990" stroke="currentColor" stroke-width="18" />
                        </g>
                        <g id="m-7a38d3ef-4aca-4d8e-ad09-4186fa41c8bf" class="note">
                           <g class="notehead">
                              <use xlink:href="#E0A4-1xpve0g" x="2118" y="2540" height="720px" width="720px" />
                           </g>
                        </g>
                        <g id="m-63d9f275-fadf-413b-90b8-d329d12c7e26" class="note">
                           <g class="notehead">
                              <use xlink:href="#E0A4-1xpve0g" x="2118" y="2090" height="720px" width="720px" />
                           </g>
                           <g id="ayggjf8" class="accid" />
                        </g>
                     </g>
                     <g id="m-e6c18874-8b84-4baf-95ff-56eff91b0727" class="note">
                        <g class="notehead">
                           <use xlink:href="#E0A4-1xpve0g" x="2808" y="2540" height="720px" width="720px" />
                        </g>
                        <g id="s1yy6r9c" class="stem">
                           <path d="M2817 2568 L2817 2990" stroke="currentColor" stroke-width="18" />
                        </g>
                     </g>
                  </g>
               </g>
               <g id="b3fh5zl" class="barLine">
                  <path d="M3858 1730 L3858 2450" stroke="currentColor" stroke-width="27" />
               </g>
            </g>
            <g id="m-a1ab5ce1-ed94-44fd-b852-b0f69229fd9a" class="measure">
               <g id="m-6a0e296f-0efc-4794-9545-e565ad18ada0" class="staff">
                  <path d="M3871 1730 L8390 1730" stroke="currentColor" stroke-width="13" />
                  <path d="M3871 1910 L8390 1910" stroke="currentColor" stroke-width="13" />
                  <path d="M3871 2090 L8390 2090" stroke="currentColor" stroke-width="13" />
                  <path d="M3871 2270 L8390 2270" stroke="currentColor" stroke-width="13" />
                  <path d="M3871 2450 L8390 2450" stroke="currentColor" stroke-width="13" />
                  <g id="m-a2e5448e-1305-40c3-960d-cad1eac7c2dc" class="layer">
                     <g id="m-5b6cde29-b46f-4936-a1ff-e000b4f8c674" class="beam">
                        <polygon points="4241,1055 5025,1055 5025,1145 4241,1145" />
                        <polygon points="4799,1190 5025,1190 5025,1280 4799,1280" />
                        <g id="m-6b6bf0ad-5161-4e56-838d-09da5490e2ae" class="note">
                           <g class="notehead">
                              <use xlink:href="#E0A9-1xpve0g" x="4051" y="1640" height="720px" width="720px" />
                           </g>
                           <g id="d1a8v70m" class="dots">
                              <ellipse cx="4349" cy="1640" rx="36" ry="36" />
                           </g>
                           <g id="s1rhsdxi" class="stem">
                              <path d="M4250 1561 L4250 1073" stroke="currentColor" stroke-width="18" />
                           </g>
                        </g>
                        <g id="m-ec1cd7bf-6849-4146-b442-74f6e2c28aca" class="note">
                           <g class="notehead">
                              <use xlink:href="#E0A9-1xpve0g" x="4817" y="1640" height="720px" width="720px" />
                           </g>
                           <g id="s13ny01v" class="stem">
                              <path d="M5016 1561 L5016 1073" stroke="currentColor" stroke-width="18" />
                           </g>
                        </g>
                     </g>
                     <g id="m-78779786-5f4c-4bed-a809-e982f5648136" class="rest">
                        <use xlink:href="#E4E6-1xpve0g" x="5133" y="1550" height="720px" width="720px" />
                     </g>
                     <g id="m-969bb3ad-c222-49be-bc7d-1a999bd89cff" class="note">
                        <g class="notehead">
                           <use xlink:href="#E0A9-1xpve0g" x="5772" y="1640" height="720px" width="720px" />
                        </g>
                        <g id="s172rdf7" class="stem">
                           <path d="M5971 1561 L5971 1130" stroke="currentColor" stroke-width="18" />
                           <g id="f3l4i77" class="flag">
                              <use xlink:href="#E240-1xpve0g" x="5962" y="1130" height="720px" width="720px" />
                           </g>
                        </g>
                     </g>
                     <g id="m-4393e16c-41ac-472e-b2f7-2e32341a736f" class="rest">
                        <use xlink:href="#E4E6-1xpve0g" x="6530" y="1550" height="720px" width="720px" />
                     </g>
                     <g id="m-c619408a-9b5d-4e3b-91e5-672e916073ce" class="note">
                        <g class="notehead">
                           <use xlink:href="#E0A9-1xpve0g" x="6980" y="1640" height="720px" width="720px" />
                        </g>
                        <g id="se0zaov" class="stem">
                           <path d="M7179 1561 L7179 1130" stroke="currentColor" stroke-width="18" />
                           <g id="fke8pgw" class="flag">
                              <use xlink:href="#E240-1xpve0g" x="7170" y="1130" height="720px" width="720px" />
                           </g>
                        </g>
                     </g>
                     <g id="m-9eb9d839-3900-44c5-95d9-787a5c313069" class="rest">
                        <use xlink:href="#E4E7-1xpve0g" x="7458" y="1370" height="720px" width="720px" />
                     </g>
                     <g id="m-5d1cd375-6ef3-48b8-9acd-24050b6e662c" class="note">
                        <g class="notehead">
                           <use xlink:href="#E0A9-1xpve0g" x="7781" y="1640" height="720px" width="720px" />
                        </g>
                        <g id="dvhc2ia" class="dots">
                           <ellipse cx="8237" cy="1640" rx="36" ry="36" />
                        </g>
                        <g id="s192d6f1" class="stem">
                           <path d="M7980 1561 L7980 1130" stroke="currentColor" stroke-width="18" />
                           <g id="f1hd1gb5" class="flag">
                              <use xlink:href="#E240-1xpve0g" x="7971" y="1130" height="720px" width="720px" />
                           </g>
                        </g>
                     </g>
                  </g>
                  <g id="m-cbfca0c0-ac4b-478b-a214-0b171679666c" class="layer">
                     <g id="m-284ee071-0a78-4192-8d59-2244f3969989" class="beam">
                        <polygon points="4051,3125 4835,3125 4835,3035 4051,3035" />
                        <polygon points="4510,2990 4835,2990 4835,2900 4510,2900" />
                        <g id="m-2284b75c-dd0c-407f-b0b1-436907c579d5" class="note">
                           <g class="notehead">
                              <use xlink:href="#E0A4-1xpve0g" x="4051" y="2540" height="720px" width="720px" />
                           </g>
                           <g id="s13emk5r" class="stem">
                              <path d="M4060 2568 L4060 3107" stroke="currentColor" stroke-width="18" />
                           </g>
                        </g>
                        <g id="m-b261c201-2d02-49c0-aeaf-21b59f2bf9ab" class="note">
                           <g class="notehead">
                              <use xlink:href="#E0A4-1xpve0g" x="4501" y="2090" height="720px" width="720px" />
                           </g>
                           <g id="s1catlag" class="stem">
                              <path d="M4510 2118 L4510 3107" stroke="currentColor" stroke-width="18" />
                           </g>
                           <g id="a1wpzs8y" class="accid" />
                        </g>
                        <g id="m-96c39599-670c-4f1f-8297-116f6b369e64" class="note">
                           <g class="notehead">
                              <use xlink:href="#E0A4-1xpve0g" x="4817" y="2540" height="720px" width="720px" />
                           </g>
                           <g id="s1ol50a1" class="stem">
                              <path d="M4826 2568 L4826 3107" stroke="currentColor" stroke-width="18" />
                           </g>
                        </g>
                     </g>
                     <g id="m-bc32d085-f40c-434e-9642-6abc87bcbf97" class="rest">
                        <use xlink:href="#E4E7-1xpve0g" x="5133" y="2450" height="720px" width="720px" />
                     </g>
                     <g id="m-87ae4d93-4777-4763-8e6a-79edbe7fd69c" class="beam">
                        <polygon points="5456,3260 6106,3260 6106,3170 5456,3170" />
                        <polygon points="5456,3125 5781,3125 5781,3035 5456,3035" />
                        <polygon points="5781,3125 6106,3125 6106,3035 5781,3035" />
                        <polygon points="5555,2990 5781,2990 5781,2900 5555,2900" />
                        <g id="m-b3b68ecf-858f-425a-8918-36c2c8ddf327" class="note">
                           <g class="notehead">
                              <use xlink:href="#E0A4-1xpve0g" x="5456" y="2090" height="720px" width="720px" />
                           </g>
                           <g id="sxziftb" class="stem">
                              <path d="M5465 2118 L5465 3242" stroke="currentColor" stroke-width="18" />
                           </g>
                           <g id="amvdd8o" class="accid" />
                        </g>
                        <g id="m-8e9c740b-1ba3-4f43-9005-d26f037ab312" class="note">
                           <g class="notehead">
                              <use xlink:href="#E0A4-1xpve0g" x="5772" y="2540" height="720px" width="720px" />
                           </g>
                           <g id="sbijhdg" class="stem">
                              <path d="M5781 2568 L5781 3242" stroke="currentColor" stroke-width="18" />
                           </g>
                        </g>
                        <g id="m-0b117cea-69e4-4e36-9958-6a8d394681c8" class="note">
                           <g class="notehead">
                              <use xlink:href="#E0A4-1xpve0g" x="6088" y="2540" height="720px" width="720px" />
                           </g>
                           <g id="d137wv3e" class="dots">
                              <ellipse cx="6404" cy="2540" rx="36" ry="36" />
                           </g>
                           <g id="s1w8yi6y" class="stem">
                              <path d="M6097 2568 L6097 3242" stroke="currentColor" stroke-width="18" />
                           </g>
                        </g>
                     </g>
                     <g id="m-20803aec-d03f-4370-9517-b42d79d4c6ac" class="beam">
                        <polygon points="6530,2990 6998,3035 6998,2945 6530,2900" />
                        <g id="m-65130556-1261-4ae2-a916-16a1a925e858" class="note">
                           <g class="notehead">
                              <use xlink:href="#E0A4-1xpve0g" x="6530" y="2090" height="720px" width="720px" />
                           </g>
                           <g id="sidhclx" class="stem">
                              <path d="M6539 2118 L6539 2972" stroke="currentColor" stroke-width="18" />
                           </g>
                           <g id="a1gr5ajg" class="accid" />
                        </g>
                        <g id="m-3bf9d27b-76a8-4d03-b171-6b52476ce9f6" class="note">
                           <g class="notehead">
                              <use xlink:href="#E0A4-1xpve0g" x="6980" y="2540" height="720px" width="720px" />
                           </g>
                           <g id="s7pt1em" class="stem">
                              <path d="M6989 2568 L6989 3017" stroke="currentColor" stroke-width="18" />
                           </g>
                        </g>
                     </g>
                     <g id="m-7f8e2f81-31e3-4468-ac5c-7c7e980aadf0" class="beam">
                        <polygon points="7458,2990 7799,3035 7799,2945 7458,2900" />
                        <polygon points="7458,2855 7684,2887 7684,2797 7458,2765" />
                        <g id="m-4ae25563-f23d-42e7-bf7d-cef8a140cf27" class="note">
                           <g class="notehead">
                              <use xlink:href="#E0A4-1xpve0g" x="7458" y="2090" height="720px" width="720px" />
                           </g>
                           <g id="s601nyo" class="stem">
                              <path d="M7467 2118 L7467 2972" stroke="currentColor" stroke-width="18" />
                           </g>
                           <g id="a17o6m86" class="accid" />
                        </g>
                        <g id="m-4e488a6f-0bad-4bc0-bdd2-847ef5e22380" class="note">
                           <g class="notehead">
                              <use xlink:href="#E0A4-1xpve0g" x="7781" y="2540" height="720px" width="720px" />
                           </g>
                           <g id="dqr3em0" class="dots">
                              <ellipse cx="8097" cy="2540" rx="36" ry="36" />
                           </g>
                           <g id="s19l177p" class="stem">
                              <path d="M7790 2568 L7790 3017" stroke="currentColor" stroke-width="18" />
                           </g>
                        </g>
                     </g>
                  </g>
               </g>
               <g id="b7rpem5" class="barLine">
                  <path d="M8377 1730 L8377 2450" stroke="currentColor" stroke-width="27" />
               </g>
            </g>
            <g id="s1vwhrhh" class="systemMilestoneEnd m-c7cd57d4-b65f-48af-8e56-d8138ff51879" />
         </g>
         <g id="p1ech225" class="pageMilestoneEnd m-5ce48ba8-2754-4702-9a89-40b383dea284" />
         <g id="pi33z4m" class="pageMilestoneEnd m-76c341ed-8a9b-4aee-aeef-1557ab96a0d8" />
         <g id="p17nmd6j" class="pgHead autogenerated">
            <text font-size="0px">
               <tspan id="r1mv70w2" class="rend" x="10000" y="415" text-anchor="middle">
                  <title class="labelAttr">title</title>
                  <tspan id="r1jjlfj8" class="rend">
                     <tspan id="tf45pnp" class="text">
                        <tspan font-size="607px">44_rock_120_beat_4-4</tspan>
                     </tspan>
                  </tspan>
                  <tspan id="ljakt29" class="lb" />
                  <tspan id="rob8a8h" class="rend">
                     <tspan id="t1qjoc9e" class="text" x="10000" y="805">
                        <tspan font-size="324px">44_rock_120_beat_4-4</tspan>
                     </tspan>
                  </tspan>
               </tspan>
            </text>
         </g>
         <g id="p11kpxwg" class="pgFoot autogenerated">
            <g id="f1o9k2yt" class="fig">
               <g class="svg" transform="translate(7750, 28099) scale(10.000000, 10.000000)">
                  <g>
                     <path fill="#00000" d="M 17.11278,49.26451 V 10.367554 h 12.696511 c 3.288815,7.336676 6.71267,14.610456 10.127281,21.888976 3.419998,-7.484684 6.255515,-14.204887 9.58887,-21.909915 2.436207,0.103726 4.316952,0.08453 6.484294,-0.05808 V 49.264423 H 50.274275 C 50.145222,38.35639 50.016136,27.448368 49.887066,16.540329 45.003488,27.315459 39.967448,38.433564 35.083854,49.208695 34.678996,49.343717 34.426583,49.135619 34.021726,49.270644 29.46588,39.330716 24.910049,29.390805 20.354201,19.450876 20.224341,29.388756 20.09461,39.326619 19.964815,49.264497 H 17.11278 Z M 36.754144,39.324695 C 32.721221,30.512695 28.6883,21.700679 24.655394,12.888662 22.530527,12.750737 22.656775,12.71031 20.714356,12.813974 v 0.966497 c 4.612938,9.99784 9.609439,20.748709 13.87298,30.081745 0.722248,-1.512523 1.444528,-3.025014 2.166808,-4.537521 z m 25.738417,9.939815 c 0,-12.965651 0,-25.931305 0,-38.896956 10.084388,0 20.168791,0 30.253178,0 0,0.960416 0,1.920849 0,2.881265 -6.482825,0 -12.965652,0 -19.448478,0 0,4.802097 0,9.604178 0,14.406277 5.52241,0 11.044819,0 16.567229,0 0,0.960415 0,1.920832 0,2.881248 -5.52241,0 -11.044819,0 -16.567229,0 0,5.282306 0,10.564611 0,15.846917 6.963035,0 13.926068,0 20.889103,0 0,0.960416 0,1.920832 0,2.881249 -10.564597,0 -21.129207,0 -31.693803,0 z m 4.321874,-2.160937 c 0,-11.765131 0,-23.530263 0,-35.295394 -0.720312,0 -1.440625,0 -2.160937,0 0,11.765131 0,23.530263 0,35.295394 0.720312,0 1.440625,0 2.160937,0 z m 32.41413,2.160937 c 0,-12.965651 0,-25.931305 0,-38.896956 2.401045,0 4.802095,0 7.203135,0 0,12.965651 0,25.931305 0,38.896956 -2.40104,0 -4.80209,0 -7.203135,0 z m 2.881265,-2.160937 c 0,-11.765131 0,-23.530263 0,-35.295394 -0.72031,0 -1.44064,0 -2.160953,0 0,11.765131 0,23.530263 0,35.295394 0.720313,0 1.440643,0 2.160953,0 z" />
                     <path fill="#00000" d="m 346.3,6.7 c -3.1,0.5 -4.9,4.4 -2.7,6.8 1.2,1.4 2.7,2.4 4.1,3.5 -2.4,5.3 -7.7,8.3 -11.9,12.1 -3.7,2.8 -7,6.2 -9.7,9.9 -2.2,-0.8 -0.3,-6.8 -0.6,-9.5 0.1,-3.1 0.7,-6.4 2.9,-8.7 1.3,-1.9 3,-3.5 4.5,-5.2 1.2,-3.4 -3.2,-4.9 -5.8,-4.6 -7.3,-0.5 -14.6,2 -20,6.8 -5,4.6 -10,10.1 -11.5,17 -0.9,3.5 -0.2,7.5 2.8,9.9 2.5,2.8 7.4,2.9 9.8,-0.2 1.7,-2.3 3.2,-4.8 3.8,-7.6 -0.1,-2.6 -4.4,-2.3 -4.3,0.2 1.2,2.4 -0.9,4.7 -2.7,6.2 -1.7,0.9 -4.7,0.7 -4.8,-1.7 -1,-5.8 2.1,-11.3 5.2,-16.1 4,-5.8 9.8,-11.2 17.2,-11.8 1.6,0 8.1,-1.2 6.8,1.4 -2.8,2.8 -5.6,6.1 -6,10.3 -1.6,7.7 0.1,15.7 -2.3,23.2 -1.1,3.9 2,2.6 2.5,0.2 3.3,-7.4 8.9,-13.4 15.1,-18.5 4.2,-3.9 9.5,-7.1 11.9,-12.6 1.3,-3.6 1.2,-9 -2.7,-10.9 -0.6,-0.2 -1.2,-0.3 -1.8,-0.3 z m 66,14.5 c -2,0.8 -1.8,4.9 0.8,4.4 3.4,0.4 2.9,-6.2 -0.8,-4.4 z m 0.6,7.3 c -1.3,0.5 -7.6,0.5 -5.4,2.2 4,-0.3 0.7,4.5 0.6,6.7 -0.4,2.9 -2.4,5.9 -1.2,8.8 2.7,1.7 5.6,-0.8 6.8,-3.2 1.6,-1.4 -0.5,-3 -1.2,-0.9 -0.4,0.8 -2.4,3.5 -2.6,1.8 1.1,-5 2.7,-9.9 3.9,-14.9 l -0.1,-0.5 h -0.9 z m -65.1,0.2 c -6.5,1.6 -10.5,9.5 -8.2,15.7 2.1,3.4 7.4,2.9 10.1,0.4 2,-0.2 3.6,-5.3 1,-3.4 -1.4,2 -4,4.2 -6.5,2.8 -2.2,-1.9 -1.9,-5.7 1.7,-5.3 3.1,-0.9 6.9,-2.1 8.1,-5.5 0.9,-2.7 -1.6,-5.2 -4.3,-4.8 h -1.1 -0.7 z m 13.6,0 c -2.2,0 -8.5,1.8 -2.9,2.3 0.9,1.9 -1,4.9 -1.1,7.2 -0.5,2.9 -1.4,5.7 -1.7,8.7 3.7,0.7 3.8,-2.6 4.4,-5.3 0.9,-3.3 1.6,-7 4.1,-9.5 2.4,1.6 6.8,-0.7 3.7,-3.4 -2.9,-0.5 -4.8,2.4 -6.2,4.3 0,-1.2 2.4,-5 -0.2,-4.3 z m 15.8,0 c -6.4,1.3 -9.6,9.1 -7.7,14.9 1.9,4 7.7,3.9 11,1.7 4.1,-3 6,-8.9 4.4,-13.7 -1.3,-3 -4.8,-3.2 -7.6,-3 z m 17,0 c -2.3,0 -8.8,1.9 -3,2.4 0.4,2.5 -1,5.7 -1.4,8.4 -0.7,2.4 -1.8,7.5 2.1,7.2 3.8,-0.1 6.5,-3.5 8.5,-6.3 2,-3.2 4.5,-7 3.3,-10.9 -3.7,-3 -3.6,2.6 -3.1,5.1 -0.7,3.8 -2.7,7.9 -6.2,9.8 -3.6,0.6 -1,-4.3 -0.8,-6.1 0.6,-3.2 1.6,-6.3 1.9,-9.5 -0.4,0 -0.8,0 -1.1,0 z m 30.6,0 c -6.3,1.2 -9.5,8.9 -7.8,14.7 1.5,4 7.2,4.2 10.5,2.4 4.6,-2.8 6.6,-9.3 4.8,-14.3 -1.4,-2.8 -4.8,-3 -7.5,-2.8 z m -75.4,1.7 c 2.1,1.5 0.2,4.7 -1.6,5.7 -1.1,0.4 -5.5,3.4 -4.6,0.7 0.8,-2.7 2.2,-6.2 5.3,-6.6 l 0.9,0.1 z m 30.8,0 c 2.6,1.5 1.3,5.2 0.8,7.6 -0.8,2.7 -1.9,5.9 -4.7,7.1 -5.1,0.8 -4,-5.8 -2.8,-8.8 1,-2.8 3,-6.8 6.7,-5.8 z m 47.1,-0.1 c 2.9,0.7 2,4.7 1.5,6.8 -0.7,3 -1.8,6.7 -5,8 -4.7,0.8 -4,-5.1 -3,-7.9 0.9,-3 2.7,-7.3 6.5,-6.8 z m -88.1,5.9 c -0.3,1.3 0.9,-0.6 0,0 z m -1.1,2.4 c -0.2,0.5 0.5,-0.1 0,0 z m -1.3,4.5 c -0.3,1.3 0.8,-0.2 0,0 z" />
                     <text y="41" x="201" fill="#00000" style="font-style:italic;font-weight:normal;font-size:30px;line-height:125%;font-family:Times;text-anchor:middle" xml:space="preserve">engraved with</text>
                  </g>
               </g>
            </g>
         </g>
      </g>
   </svg>
</svg>
