<?xml version="1.0" encoding="UTF-8" standalone="no"?>
<svg width="2100px" height="2970px" version="1.1" xmlns="http://www.w3.org/2000/svg" xmlns:xlink="http://www.w3.org/1999/xlink" xmlns:mei="http://www.music-encoding.org/ns/mei" overflow="visible">
   <desc>Engraved by Verovio 4.4.0-66ab39c</desc>
   <defs>
      <symbol id="E0A9-94q1jy" viewBox="0 0 1000 1000" overflow="inherit">
         <path transform="scale(1,-1)" d="M0 -110c0 4 1 8 5 11l119 99l-119 100c-3 3 -5 8 -5 12c0 6 5 13 12 13c3 0 6 -1 8 -2l124 -105l126 105c2 1 5 2 7 2c6 0 13 -6 13 -14c0 -4 -2 -9 -5 -11l-119 -100l119 -99c3 -3 5 -7 5 -12c0 -6 -5 -14 -13 -14c-2 0 -5 1 -7 3l-126 105l-124 -105c-2 -2 -4 -3 -7 -3 c-8 0 -13 7 -13 15z" />
      </symbol>
      <symbol id="E069-94q1jy" viewBox="0 0 1000 1000" overflow="inherit">
         <path transform="scale(1,-1)" d="M200 250h125v-500h-125v500zM0 250h125v-500h-125v500z" />
      </symbol>
      <symbol id="E4E3-94q1jy" viewBox="0 0 1000 1000" overflow="inherit">
         <path transform="scale(1,-1)" d="M0 -115v105c0 9 1 10 10 10h280c9 0 10 -1 10 -10v-105c0 -9 -1 -10 -10 -10h-280c-9 0 -10 1 -10 10z" />
      </symbol>
      <symbol id="E084-94q1jy" viewBox="0 0 1000 1000" overflow="inherit">
         <path transform="scale(1,-1)" d="M20 -78c84 97 114 180 134 329h170c-13 -32 -82 -132 -99 -151l-84 -97c-33 -36 -59 -63 -80 -81h162v102l127 123v-225h57v-39h-57v-34c0 -43 19 -65 57 -65v-34h-244v36c48 0 60 26 60 70v27h-203v39z" />
      </symbol>
      <symbol id="E0A2-94q1jy" viewBox="0 0 1000 1000" overflow="inherit">
         <path transform="scale(1,-1)" d="M198 133c102 0 207 -45 207 -133c0 -92 -118 -133 -227 -133c-101 0 -178 46 -178 133c0 88 93 133 198 133zM293 -21c0 14 -3 29 -8 44c-7 20 -18 38 -33 54c-20 21 -43 31 -68 31l-20 -2c-15 -5 -27 -14 -36 -28c-4 -9 -6 -17 -8 -24s-3 -16 -3 -27c0 -15 3 -34 9 -57 s18 -41 34 -55c15 -15 36 -23 62 -23c4 0 10 1 18 2c19 5 32 15 40 30s13 34 13 55z" />
      </symbol>
      <symbol id="E0A4-94q1jy" viewBox="0 0 1000 1000" overflow="inherit">
         <path transform="scale(1,-1)" d="M0 -39c0 68 73 172 200 172c66 0 114 -37 114 -95c0 -84 -106 -171 -218 -171c-64 0 -96 30 -96 94z" />
      </symbol>
      <symbol id="E240-94q1jy" viewBox="0 0 1000 1000" overflow="inherit">
         <path transform="scale(1,-1)" d="M179 -646c15 29 29 55 46 102c18 49 30 108 30 138c0 105 -80 173 -168 200c-18 5 -47 9 -87 16v190h22c8 0 33 -61 71 -95c4 -3 -2 3 61 -56c62 -58 122 -137 122 -241c0 -38 -13 -106 -35 -163c-20 -51 -43 -99 -66 -132c-6 -5 -10 -7 -13 -7s-5 2 -5 5l4 10 c1 3 14 25 18 33z" />
      </symbol>
      <symbol id="E4E6-94q1jy" viewBox="0 0 1000 1000" overflow="inherit">
         <path transform="scale(1,-1)" d="M0 123c7 34 33 56 69 60c29 -3 43 -9 53 -29c4 -8 7 -15 10 -22c0 -21 -1 -25 -11 -35c-5 -8 -18 -14 -40 -20l12 -3l15 -1c44 0 97 26 122 56c10 11 18 26 24 42c7 1 15 2 22 3l-140 -424h-36l111 330c-10 -6 -27 -12 -53 -16l-52 -8h-10l-20 1c-1 0 -8 3 -21 6 c-37 9 -55 28 -55 60z" />
      </symbol>
      <symbol id="E4E7-94q1jy" viewBox="0 0 1000 1000" overflow="inherit">
         <path transform="scale(1,-1)" d="M133 -111c0 -33 -21 -50 -52 -55c10 -3 18 -4 25 -4c40 0 69 24 90 47l66 197c-36 -18 -64 -25 -112 -25c-23 0 -38 3 -45 8c-37 7 -55 27 -55 59c8 35 30 54 68 58c45 -6 49 -13 64 -48c0 -3 1 -5 1 -7c0 -27 -25 -46 -52 -49c6 -4 15 -6 26 -6c32 2 62 14 88 29 c32 19 44 36 59 71l7 1l10 2h4c-72 -220 -143 -439 -215 -659h-37l108 324c-20 -13 -51 -20 -82 -20c-21 0 -35 4 -43 10c-37 6 -55 26 -55 58c8 35 31 56 68 60c43 -8 48 -13 64 -51z" />
      </symbol>
   </defs>
   <style type="text/css">g.page-margin{font-family:Times,serif;} g.ending, g.fing, g.reh, g.tempo{font-weight:bold;} g.dir, g.dynam, g.mNum{font-style:italic;} g.label{font-weight:normal;}</style>
   <svg class="definition-scale" color="black" viewBox="0 0 21000 29700">
      <g class="page-margin" transform="translate(500, 500)">
         <g id="m-6fc22f0d-ed7f-4162-8994-f76749b98567" class="mdiv pageMilestone" />
         <g id="m-ce88b22f-9b0a-4f70-921f-7fa3bb7ea5f2" class="score pageMilestone" />
         <g id="srjwelf" class="system">
            <g id="m-09d98dd0-92bc-41fb-8f7c-23d093d18447" class="section systemMilestone" />
            <g id="m-bbf71c81-3a5f-427a-ad65-80041fcadc87" class="measure">
               <g id="m-a4ec50c8-064d-4725-a4ec-26b5c4ecc8f9" class="staff">
                  <path d="M0 1844 L6335 1844" stroke="currentColor" stroke-width="13" />
                  <path d="M0 2024 L6335 2024" stroke="currentColor" stroke-width="13" />
                  <path d="M0 2204 L6335 2204" stroke="currentColor" stroke-width="13" />
                  <path d="M0 2384 L6335 2384" stroke="currentColor" stroke-width="13" />
                  <path d="M0 2564 L6335 2564" stroke="currentColor" stroke-width="13" />
                  <g id="cbg7rj3" class="clef">
                     <use xlink:href="#E069-94q1jy" x="90" y="2204" height="720px" width="720px" />
                  </g>
                  <g id="kkxba6e" class="keySig" />
                  <g id="m16zsvvh" class="meterSig">
                     <use xlink:href="#E084-94q1jy" x="490" y="2024" height="720px" width="720px" />
                     <use xlink:href="#E084-94q1jy" x="490" y="2384" height="720px" width="720px" />
                  </g>
                  <g class="ledgerLines above">
                     <path d="M1620 1664 L1924 1664" stroke="currentColor" stroke-width="22" />
                     <path d="M2931 1664 L3235 1664" stroke="currentColor" stroke-width="22" />
                     <path d="M3870 1664 L4174 1664" stroke="currentColor" stroke-width="22" />
                     <path d="M5294 1664 L5598 1664" stroke="currentColor" stroke-width="22" />
                  </g>
                  <g class="ledgerLines below">
                     <path d="M1004 2744 L1308 2744" stroke="currentColor" stroke-width="22" />
                     <path d="M2008 2744 L2312 2744" stroke="currentColor" stroke-width="22" />
                  </g>
                  <g id="m-578e26c4-5a9f-45e6-b86f-4498ef092569" class="layer">
                     <g id="m-cba6dae7-4f18-4863-8c6c-c6e4ae49509c" class="rest">
                        <use xlink:href="#E4E6-94q1jy" x="1052" y="1484" height="720px" width="720px" />
                     </g>
                     <g id="m-cb36b908-3d7a-4d15-bf66-eef7f8fb0fea" class="note">
                        <g class="notehead">
                           <use xlink:href="#E0A9-94q1jy" x="1668" y="1574" height="720px" width="720px" />
                        </g>
                        <g id="sqp19px" class="stem">
                           <path d="M1867 1495 L1867 1064" stroke="currentColor" stroke-width="18" />
                           <g id="f1qh40zq" class="flag">
                              <use xlink:href="#E240-94q1jy" x="1858" y="1064" height="720px" width="720px" />
                           </g>
                        </g>
                        <g id="al3eav2" class="accid" />
                     </g>
                     <g id="m-7535eac0-5ffb-4906-a0a7-034d22d9884d" class="rest">
                        <use xlink:href="#E4E7-94q1jy" x="2356" y="1484" height="720px" width="720px" />
                     </g>
                     <g id="m-c7a68462-9ed4-43b2-be57-45ab07d671a5" class="beam">
                        <polygon points="2869,1124 3187,1079 3187,1169 2869,1214" />
                        <polygon points="2869,1259 3095,1226 3095,1316 2869,1349" />
                        <g id="m-ebd1ffe8-1ffb-4914-b663-5ed2fccd6959" class="note">
                           <g class="notehead">
                              <use xlink:href="#E0A9-94q1jy" x="2679" y="1754" height="720px" width="720px" />
                           </g>
                           <g id="s1qg20h7" class="stem">
                              <path d="M2878 1675 L2878 1142" stroke="currentColor" stroke-width="18" />
                           </g>
                        </g>
                        <g id="m-de22e4a5-27b3-44ce-90d3-7b6ab0e54f3f" class="note">
                           <g class="notehead">
                              <use xlink:href="#E0A9-94q1jy" x="2979" y="1574" height="720px" width="720px" />
                           </g>
                           <g id="s878il9" class="stem">
                              <path d="M3178 1495 L3178 1097" stroke="currentColor" stroke-width="18" />
                           </g>
                           <g id="asq7zf" class="accid" />
                        </g>
                     </g>
                     <g id="m-66354edd-e43a-487c-b14a-ec1e21bcc556" class="rest">
                        <use xlink:href="#E4E7-94q1jy" x="3595" y="1484" height="720px" width="720px" />
                     </g>
                     <g id="m-227c29ba-327a-4805-a3b9-7befac455d03" class="note">
                        <g class="notehead">
                           <use xlink:href="#E0A9-94q1jy" x="3918" y="1574" height="720px" width="720px" />
                        </g>
                        <g id="d12uku39" class="dots">
                           <ellipse cx="4374" cy="1574" rx="36" ry="36" />
                        </g>
                        <g id="s156n9m8" class="stem">
                           <path d="M4117 1495 L4117 1064" stroke="currentColor" stroke-width="18" />
                           <g id="fe6d8z3" class="flag">
                              <use xlink:href="#E240-94q1jy" x="4108" y="1064" height="720px" width="720px" />
                           </g>
                        </g>
                        <g id="a1d7hr6k" class="accid" />
                     </g>
                     <g id="m-90414f33-acd4-47d3-8346-e2169d74c8ed" class="beam">
                        <polygon points="5232,1124 5550,1079 5550,1169 5232,1214" />
                        <polygon points="5232,1259 5458,1226 5458,1316 5232,1349" />
                        <g id="m-5c9a019a-43c8-4d25-a437-0dff1bf7b2aa" class="note">
                           <g class="notehead">
                              <use xlink:href="#E0A9-94q1jy" x="5042" y="1754" height="720px" width="720px" />
                           </g>
                           <g id="slzgqwv" class="stem">
                              <path d="M5241 1675 L5241 1142" stroke="currentColor" stroke-width="18" />
                           </g>
                        </g>
                        <g id="m-04653c43-2393-428e-9789-5cc453c39c22" class="note">
                           <g class="notehead">
                              <use xlink:href="#E0A9-94q1jy" x="5342" y="1574" height="720px" width="720px" />
                           </g>
                           <g id="d1wxwrpn" class="dots">
                              <ellipse cx="5640" cy="1574" rx="36" ry="36" />
                           </g>
                           <g id="sjyvgg3" class="stem">
                              <path d="M5541 1495 L5541 1097" stroke="currentColor" stroke-width="18" />
                           </g>
                           <g id="a1m249iv" class="accid" />
                        </g>
                     </g>
                  </g>
                  <g id="m-bc0fb7fb-db28-4e70-bd12-e2810ef7980a" class="layer">
                     <g id="m-52f980a3-4bad-4443-a008-1596b7cc34e2" class="beam">
                        <polygon points="1052,3419 2074,3419 2074,3329 1052,3329" />
                        <polygon points="1052,3284 1278,3284 1278,3194 1052,3194" />
                        <polygon points="1848,3284 2074,3284 2074,3194 1848,3194" />
                        <g id="m-be8f8900-d20e-4b05-8680-6278b29f1bc2" class="note">
                           <g class="notehead">
                              <use xlink:href="#E0A9-94q1jy" x="1052" y="2834" height="720px" width="720px" />
                           </g>
                           <g id="s1qw7pi4" class="stem">
                              <path d="M1061 2913 L1061 3401" stroke="currentColor" stroke-width="18" />
                           </g>
                           <g id="axy92y2" class="accid" />
                        </g>
                        <g id="m-3172c0aa-ba3a-4ecf-ab8c-e1485e1c13c9" class="note">
                           <g class="notehead">
                              <use xlink:href="#E0A4-94q1jy" x="1352" y="2204" height="720px" width="720px" />
                           </g>
                           <g id="s1f9vijh" class="stem">
                              <path d="M1361 2232 L1361 3401" stroke="currentColor" stroke-width="18" />
                           </g>
                           <g id="a7boneq" class="accid" />
                        </g>
                        <g id="m-f179afdb-48e0-490c-9733-88ff5c92a308" class="note">
                           <g class="notehead">
                              <use xlink:href="#E0A9-94q1jy" x="2056" y="2834" height="720px" width="720px" />
                           </g>
                           <g id="s1sogrss" class="stem">
                              <path d="M2065 2913 L2065 3401" stroke="currentColor" stroke-width="18" />
                           </g>
                           <g id="ablythx" class="accid" />
                        </g>
                     </g>
                     <g id="m-9f3506bc-14fd-460d-a22f-10e9b4e1c39f" class="beam">
                        <polygon points="2356,3104 3297,3284 3297,3194 2356,3014" />
                        <polygon points="3071,3109 3297,3149 3297,3059 3071,3019" />
                        <g id="m-6a9ebb57-a921-4544-b45d-3856d2c7ad80" class="note">
                           <g class="notehead">
                              <use xlink:href="#E0A4-94q1jy" x="2356" y="2204" height="720px" width="720px" />
                           </g>
                           <g id="dmvvsvy" class="dots">
                              <ellipse cx="2672" cy="2294" rx="36" ry="36" />
                           </g>
                           <g id="sn0izpx" class="stem">
                              <path d="M2365 2232 L2365 3086" stroke="currentColor" stroke-width="18" />
                           </g>
                           <g id="a69w2ex" class="accid" />
                        </g>
                        <g id="m-41d89ea4-4b30-4367-82f4-807712b79455" class="chord">
                           <g id="sni1ucu" class="stem">
                              <path d="M3288 2232 L3288 3266" stroke="currentColor" stroke-width="18" />
                           </g>
                           <g id="m-810de08d-0616-47a9-8a82-992aa9c23ff2" class="note">
                              <g class="notehead">
                                 <use xlink:href="#E0A4-94q1jy" x="3279" y="2204" height="720px" width="720px" />
                              </g>
                              <g id="ar02rwd" class="accid" />
                           </g>
                           <g id="m-8a93e315-da94-43fe-a00b-10cdea41342f" class="note">
                              <g class="notehead">
                                 <use xlink:href="#E0A4-94q1jy" x="3279" y="2654" height="720px" width="720px" />
                              </g>
                           </g>
                        </g>
                     </g>
                     <g id="m-f1fa0354-717c-44a2-ab63-a72f40cb27b0" class="beam">
                        <polygon points="3595,3239 4744,3239 4744,3149 3595,3149" />
                        <polygon points="4419,3104 4744,3104 4744,3014 4419,3014" />
                        <g id="m-3ec336d6-5966-4351-b7a4-5c43f176adc9" class="note">
                           <g class="notehead">
                              <use xlink:href="#E0A4-94q1jy" x="3595" y="2204" height="720px" width="720px" />
                           </g>
                           <g id="smk0k2q" class="stem">
                              <path d="M3604 2232 L3604 3221" stroke="currentColor" stroke-width="18" />
                           </g>
                           <g id="aibqas3" class="accid" />
                        </g>
                        <g id="m-3d3b89ce-8553-4d7b-b425-5a503f0da8a0" class="note">
                           <g class="notehead">
                              <use xlink:href="#E0A4-94q1jy" x="4410" y="2654" height="720px" width="720px" />
                           </g>
                           <g id="sasuqa4" class="stem">
                              <path d="M4419 2682 L4419 3221" stroke="currentColor" stroke-width="18" />
                           </g>
                        </g>
                        <g id="m-a163ce96-5b7d-427e-b80a-712b43e14363" class="note">
                           <g class="notehead">
                              <use xlink:href="#E0A4-94q1jy" x="4726" y="2204" height="720px" width="720px" />
                           </g>
                           <g id="s13s344x" class="stem">
                              <path d="M4735 2232 L4735 3221" stroke="currentColor" stroke-width="18" />
                           </g>
                           <g id="avcxq5q" class="accid" />
                        </g>
                     </g>
                     <g id="m-43070b13-816b-44b6-a61d-83d480acd262" class="rest">
                        <use xlink:href="#E4E6-94q1jy" x="5042" y="2384" height="720px" width="720px" />
                     </g>
                     <g id="m-a7b71c82-a137-4b26-aeea-56d39c8a7ebd" class="beam">
                        <polygon points="5676,3284 6010,3329 6010,3239 5676,3194" />
                        <polygon points="5676,3149 6010,3194 6010,3104 5676,3059" />
                        <g id="m-2c6f01ad-cf4b-43a8-a155-3beee4d55ee2" class="note">
                           <g class="notehead">
                              <use xlink:href="#E0A4-94q1jy" x="5676" y="2204" height="720px" width="720px" />
                           </g>
                           <g id="slqfkxo" class="stem">
                              <path d="M5685 2232 L5685 3266" stroke="currentColor" stroke-width="18" />
                           </g>
                           <g id="a1n90hdi" class="accid" />
                        </g>
                        <g id="m-3e05c246-fc43-490b-b3f4-f03ee9cce826" class="note">
                           <g class="notehead">
                              <use xlink:href="#E0A4-94q1jy" x="5992" y="2654" height="720px" width="720px" />
                           </g>
                           <g id="sdvleq5" class="stem">
                              <path d="M6001 2682 L6001 3311" stroke="currentColor" stroke-width="18" />
                           </g>
                        </g>
                     </g>
                  </g>
               </g>
               <g id="bg8edm6" class="barLine">
                  <path d="M6322 1844 L6322 2564" stroke="currentColor" stroke-width="27" />
               </g>
            </g>
            <g id="m-42881f30-e8cf-46e0-8575-0de69e4af832" class="measure">
               <g id="m-e5af53bd-cb73-4cba-abd1-92958fb56e14" class="staff">
                  <path d="M6335 1844 L8118 1844" stroke="currentColor" stroke-width="13" />
                  <path d="M6335 2024 L8118 2024" stroke="currentColor" stroke-width="13" />
                  <path d="M6335 2204 L8118 2204" stroke="currentColor" stroke-width="13" />
                  <path d="M6335 2384 L8118 2384" stroke="currentColor" stroke-width="13" />
                  <path d="M6335 2564 L8118 2564" stroke="currentColor" stroke-width="13" />
                  <g id="m-0fca65e7-d7b6-475d-a2ea-d659ce3fbc79" class="layer">
                     <g id="m-01ae974c-ad47-47db-87d0-2dd621349252" class="rest">
                        <use xlink:href="#E4E3-94q1jy" x="6515" y="1664" height="720px" width="720px" />
                        <g class="ledgerLines">
                           <path d="M6467 1664 L6779 1664" stroke="currentColor" stroke-width="22" />
                        </g>
                     </g>
                  </g>
                  <g id="m-92d344cd-8fb3-4a4f-be86-100feab65fa1" class="layer">
                     <g id="m-a937cb9a-08be-4744-9880-e8050a293e95" class="note">
                        <g class="notehead">
                           <use xlink:href="#E0A2-94q1jy" x="6515" y="2204" height="720px" width="720px" />
                        </g>
                        <g id="a45mer0" class="accid" />
                     </g>
                  </g>
               </g>
               <g id="bc1mpiv" class="barLine">
                  <path d="M8105 1844 L8105 2564" stroke="currentColor" stroke-width="27" />
               </g>
            </g>
            <g id="s16r4uz7" class="systemMilestoneEnd m-09d98dd0-92bc-41fb-8f7c-23d093d18447" />
         </g>
         <g id="p1kj2wtj" class="pageMilestoneEnd m-ce88b22f-9b0a-4f70-921f-7fa3bb7ea5f2" />
         <g id="psx6o8z" class="pageMilestoneEnd m-6fc22f0d-ed7f-4162-8994-f76749b98567" />
         <g id="pqag0dc" class="pgHead autogenerated">
            <text font-size="0px">
               <tspan id="r1tcmii9" class="rend" x="10000" y="415" text-anchor="middle">
                  <title class="labelAttr">title</title>
                  <tspan id="r20gw35" class="rend">
                     <tspan id="t1f9i6l4" class="text">
                        <tspan font-size="607px">11_rock_130_beat_4-4</tspan>
                     </tspan>
                  </tspan>
                  <tspan id="l71c3dl" class="lb" />
                  <tspan id="r1igeqz5" class="rend">
                     <tspan id="t1bbc446" class="text" x="10000" y="805">
                        <tspan font-size="324px">11_rock_130_beat_4-4</tspan>
                     </tspan>
                  </tspan>
               </tspan>
            </text>
         </g>
         <g id="puu0wa3" class="pgFoot autogenerated">
            <g id="f1zmmh0" class="fig">
               <g class="svg" transform="translate(7750, 28099) scale(10.000000, 10.000000)">
                  <g>
                     <path fill="#00000" d="M 17.11278,49.26451 V 10.367554 h 12.696511 c 3.288815,7.336676 6.71267,14.610456 10.127281,21.888976 3.419998,-7.484684 6.255515,-14.204887 9.58887,-21.909915 2.436207,0.103726 4.316952,0.08453 6.484294,-0.05808 V 49.264423 H 50.274275 C 50.145222,38.35639 50.016136,27.448368 49.887066,16.540329 45.003488,27.315459 39.967448,38.433564 35.083854,49.208695 34.678996,49.343717 34.426583,49.135619 34.021726,49.270644 29.46588,39.330716 24.910049,29.390805 20.354201,19.450876 20.224341,29.388756 20.09461,39.326619 19.964815,49.264497 H 17.11278 Z M 36.754144,39.324695 C 32.721221,30.512695 28.6883,21.700679 24.655394,12.888662 22.530527,12.750737 22.656775,12.71031 20.714356,12.813974 v 0.966497 c 4.612938,9.99784 9.609439,20.748709 13.87298,30.081745 0.722248,-1.512523 1.444528,-3.025014 2.166808,-4.537521 z m 25.738417,9.939815 c 0,-12.965651 0,-25.931305 0,-38.896956 10.084388,0 20.168791,0 30.253178,0 0,0.960416 0,1.920849 0,2.881265 -6.482825,0 -12.965652,0 -19.448478,0 0,4.802097 0,9.604178 0,14.406277 5.52241,0 11.044819,0 16.567229,0 0,0.960415 0,1.920832 0,2.881248 -5.52241,0 -11.044819,0 -16.567229,0 0,5.282306 0,10.564611 0,15.846917 6.963035,0 13.926068,0 20.889103,0 0,0.960416 0,1.920832 0,2.881249 -10.564597,0 -21.129207,0 -31.693803,0 z m 4.321874,-2.160937 c 0,-11.765131 0,-23.530263 0,-35.295394 -0.720312,0 -1.440625,0 -2.160937,0 0,11.765131 0,23.530263 0,35.295394 0.720312,0 1.440625,0 2.160937,0 z m 32.41413,2.160937 c 0,-12.965651 0,-25.931305 0,-38.896956 2.401045,0 4.802095,0 7.203135,0 0,12.965651 0,25.931305 0,38.896956 -2.40104,0 -4.80209,0 -7.203135,0 z m 2.881265,-2.160937 c 0,-11.765131 0,-23.530263 0,-35.295394 -0.72031,0 -1.44064,0 -2.160953,0 0,11.765131 0,23.530263 0,35.295394 0.720313,0 1.440643,0 2.160953,0 z" />
                     <path fill="#00000" d="m 346.3,6.7 c -3.1,0.5 -4.9,4.4 -2.7,6.8 1.2,1.4 2.7,2.4 4.1,3.5 -2.4,5.3 -7.7,8.3 -11.9,12.1 -3.7,2.8 -7,6.2 -9.7,9.9 -2.2,-0.8 -0.3,-6.8 -0.6,-9.5 0.1,-3.1 0.7,-6.4 2.9,-8.7 1.3,-1.9 3,-3.5 4.5,-5.2 1.2,-3.4 -3.2,-4.9 -5.8,-4.6 -7.3,-0.5 -14.6,2 -20,6.8 -5,4.6 -10,10.1 -11.5,17 -0.9,3.5 -0.2,7.5 2.8,9.9 2.5,2.8 7.4,2.9 9.8,-0.2 1.7,-2.3 3.2,-4.8 3.8,-7.6 -0.1,-2.6 -4.4,-2.3 -4.3,0.2 1.2,2.4 -0.9,4.7 -2.7,6.2 -1.7,0.9 -4.7,0.7 -4.8,-1.7 -1,-5.8 2.1,-11.3 5.2,-16.1 4,-5.8 9.8,-11.2 17.2,-11.8 1.6,0 8.1,-1.2 6.8,1.4 -2.8,2.8 -5.6,6.1 -6,10.3 -1.6,7.7 0.1,15.7 -2.3,23.2 -1.1,3.9 2,2.6 2.5,0.2 3.3,-7.4 8.9,-13.4 15.1,-18.5 4.2,-3.9 9.5,-7.1 11.9,-12.6 1.3,-3.6 1.2,-9 -2.7,-10.9 -0.6,-0.2 -1.2,-0.3 -1.8,-0.3 z m 66,14.5 c -2,0.8 -1.8,4.9 0.8,4.4 3.4,0.4 2.9,-6.2 -0.8,-4.4 z m 0.6,7.3 c -1.3,0.5 -7.6,0.5 -5.4,2.2 4,-0.3 0.7,4.5 0.6,6.7 -0.4,2.9 -2.4,5.9 -1.2,8.8 2.7,1.7 5.6,-0.8 6.8,-3.2 1.6,-1.4 -0.5,-3 -1.2,-0.9 -0.4,0.8 -2.4,3.5 -2.6,1.8 1.1,-5 2.7,-9.9 3.9,-14.9 l -0.1,-0.5 h -0.9 z m -65.1,0.2 c -6.5,1.6 -10.5,9.5 -8.2,15.7 2.1,3.4 7.4,2.9 10.1,0.4 2,-0.2 3.6,-5.3 1,-3.4 -1.4,2 -4,4.2 -6.5,2.8 -2.2,-1.9 -1.9,-5.7 1.7,-5.3 3.1,-0.9 6.9,-2.1 8.1,-5.5 0.9,-2.7 -1.6,-5.2 -4.3,-4.8 h -1.1 -0.7 z m 13.6,0 c -2.2,0 -8.5,1.8 -2.9,2.3 0.9,1.9 -1,4.9 -1.1,7.2 -0.5,2.9 -1.4,5.7 -1.7,8.7 3.7,0.7 3.8,-2.6 4.4,-5.3 0.9,-3.3 1.6,-7 4.1,-9.5 2.4,1.6 6.8,-0.7 3.7,-3.4 -2.9,-0.5 -4.8,2.4 -6.2,4.3 0,-1.2 2.4,-5 -0.2,-4.3 z m 15.8,0 c -6.4,1.3 -9.6,9.1 -7.7,14.9 1.9,4 7.7,3.9 11,1.7 4.1,-3 6,-8.9 4.4,-13.7 -1.3,-3 -4.8,-3.2 -7.6,-3 z m 17,0 c -2.3,0 -8.8,1.9 -3,2.4 0.4,2.5 -1,5.7 -1.4,8.4 -0.7,2.4 -1.8,7.5 2.1,7.2 3.8,-0.1 6.5,-3.5 8.5,-6.3 2,-3.2 4.5,-7 3.3,-10.9 -3.7,-3 -3.6,2.6 -3.1,5.1 -0.7,3.8 -2.7,7.9 -6.2,9.8 -3.6,0.6 -1,-4.3 -0.8,-6.1 0.6,-3.2 1.6,-6.3 1.9,-9.5 -0.4,0 -0.8,0 -1.1,0 z m 30.6,0 c -6.3,1.2 -9.5,8.9 -7.8,14.7 1.5,4 7.2,4.2 10.5,2.4 4.6,-2.8 6.6,-9.3 4.8,-14.3 -1.4,-2.8 -4.8,-3 -7.5,-2.8 z m -75.4,1.7 c 2.1,1.5 0.2,4.7 -1.6,5.7 -1.1,0.4 -5.5,3.4 -4.6,0.7 0.8,-2.7 2.2,-6.2 5.3,-6.6 l 0.9,0.1 z m 30.8,0 c 2.6,1.5 1.3,5.2 0.8,7.6 -0.8,2.7 -1.9,5.9 -4.7,7.1 -5.1,0.8 -4,-5.8 -2.8,-8.8 1,-2.8 3,-6.8 6.7,-5.8 z m 47.1,-0.1 c 2.9,0.7 2,4.7 1.5,6.8 -0.7,3 -1.8,6.7 -5,8 -4.7,0.8 -4,-5.1 -3,-7.9 0.9,-3 2.7,-7.3 6.5,-6.8 z m -88.1,5.9 c -0.3,1.3 0.9,-0.6 0,0 z m -1.1,2.4 c -0.2,0.5 0.5,-0.1 0,0 z m -1.3,4.5 c -0.3,1.3 0.8,-0.2 0,0 z" />
                     <text y="41" x="201" fill="#00000" style="font-style:italic;font-weight:normal;font-size:30px;line-height:125%;font-family:Times;text-anchor:middle" xml:space="preserve">engraved with</text>
                  </g>
               </g>
            </g>
         </g>
      </g>
   </svg>
</svg>
