<?xml version="1.0" encoding="UTF-8" standalone="no"?>
<svg width="2100px" height="2970px" version="1.1" xmlns="http://www.w3.org/2000/svg" xmlns:xlink="http://www.w3.org/1999/xlink" xmlns:mei="http://www.music-encoding.org/ns/mei" overflow="visible">
   <desc>Engraved by Verovio 4.4.0-66ab39c</desc>
   <defs>
      <symbol id="E4E3-jt8x44" viewBox="0 0 1000 1000" overflow="inherit">
         <path transform="scale(1,-1)" d="M0 -115v105c0 9 1 10 10 10h280c9 0 10 -1 10 -10v-105c0 -9 -1 -10 -10 -10h-280c-9 0 -10 1 -10 10z" />
      </symbol>
      <symbol id="E0A9-jt8x44" viewBox="0 0 1000 1000" overflow="inherit">
         <path transform="scale(1,-1)" d="M0 -110c0 4 1 8 5 11l119 99l-119 100c-3 3 -5 8 -5 12c0 6 5 13 12 13c3 0 6 -1 8 -2l124 -105l126 105c2 1 5 2 7 2c6 0 13 -6 13 -14c0 -4 -2 -9 -5 -11l-119 -100l119 -99c3 -3 5 -7 5 -12c0 -6 -5 -14 -13 -14c-2 0 -5 1 -7 3l-126 105l-124 -105c-2 -2 -4 -3 -7 -3 c-8 0 -13 7 -13 15z" />
      </symbol>
      <symbol id="E069-jt8x44" viewBox="0 0 1000 1000" overflow="inherit">
         <path transform="scale(1,-1)" d="M200 250h125v-500h-125v500zM0 250h125v-500h-125v500z" />
      </symbol>
      <symbol id="E0A4-jt8x44" viewBox="0 0 1000 1000" overflow="inherit">
         <path transform="scale(1,-1)" d="M0 -39c0 68 73 172 200 172c66 0 114 -37 114 -95c0 -84 -106 -171 -218 -171c-64 0 -96 30 -96 94z" />
      </symbol>
      <symbol id="E222-jt8x44" viewBox="0 0 1000 1000" overflow="inherit">
         <path transform="scale(1,-1)" d="M-163 -200l326 150v-100l-326 -150v100zM-163 150l326 150v-100l-326 -150v100zM-163 -25l326 150v-100l-326 -150v100z" />
      </symbol>
      <symbol id="E084-jt8x44" viewBox="0 0 1000 1000" overflow="inherit">
         <path transform="scale(1,-1)" d="M20 -78c84 97 114 180 134 329h170c-13 -32 -82 -132 -99 -151l-84 -97c-33 -36 -59 -63 -80 -81h162v102l127 123v-225h57v-39h-57v-34c0 -43 19 -65 57 -65v-34h-244v36c48 0 60 26 60 70v27h-203v39z" />
      </symbol>
   </defs>
   <style type="text/css">g.page-margin{font-family:Times,serif;} g.ending, g.fing, g.reh, g.tempo{font-weight:bold;} g.dir, g.dynam, g.mNum{font-style:italic;} g.label{font-weight:normal;}</style>
   <svg class="definition-scale" color="black" viewBox="0 0 21000 29700">
      <g class="page-margin" transform="translate(500, 500)">
         <g id="m-f73aa592-cf33-4607-afd2-d43b44db134d" class="mdiv pageMilestone" />
         <g id="m-692211d0-856a-47ac-805d-010d61cfa020" class="score pageMilestone" />
         <g id="szf2fi2" class="system">
            <g id="m-442d14db-f780-41cf-a522-5162ea99b17c" class="section systemMilestone" />
            <g id="m-c2f4bc1e-3d59-4098-a67e-983814ee0a67" class="measure">
               <g id="m-fee32c3e-8992-43a5-8fc3-2a28517979ba" class="staff">
                  <path d="M0 1598 L6342 1598" stroke="currentColor" stroke-width="13" />
                  <path d="M0 1778 L6342 1778" stroke="currentColor" stroke-width="13" />
                  <path d="M0 1958 L6342 1958" stroke="currentColor" stroke-width="13" />
                  <path d="M0 2138 L6342 2138" stroke="currentColor" stroke-width="13" />
                  <path d="M0 2318 L6342 2318" stroke="currentColor" stroke-width="13" />
                  <g id="cz4iye3" class="clef">
                     <use xlink:href="#E069-jt8x44" x="90" y="1958" height="720px" width="720px" />
                  </g>
                  <g id="k1axt9rc" class="keySig" />
                  <g id="m1bgmp7x" class="meterSig">
                     <use xlink:href="#E084-jt8x44" x="490" y="1778" height="720px" width="720px" />
                     <use xlink:href="#E084-jt8x44" x="490" y="2138" height="720px" width="720px" />
                  </g>
                  <g class="ledgerLines below">
                     <path d="M2883 2498 L3187 2498" stroke="currentColor" stroke-width="22" />
                  </g>
                  <g id="m-d663db5b-7a72-443a-9634-0058637c5595" class="layer">
                     <g id="m-4484efc0-6312-4109-bd65-4273712d1504" class="rest">
                        <use xlink:href="#E4E3-jt8x44" x="1052" y="1418" height="720px" width="720px" />
                        <g class="ledgerLines">
                           <path d="M1004 1418 L1316 1418" stroke="currentColor" stroke-width="22" />
                        </g>
                     </g>
                  </g>
                  <g id="m-f6972b81-f8d0-49ef-a18f-47cc10f6d61a" class="layer">
                     <g id="m-52c2d4b9-5efa-46a6-8b52-04f40358ca35" class="beam">
                        <polygon points="1052,2903 1944,2903 1944,2813 1052,2813" />
                        <polygon points="1511,2768 1944,2768 1944,2678 1511,2678" />
                        <g id="m-c867c064-13c4-48c4-8c5c-8fdc4679b8c4" class="note">
                           <g class="notehead">
                              <use xlink:href="#E0A4-jt8x44" x="1052" y="1958" height="720px" width="720px" />
                           </g>
                           <g id="s1rf5699" class="stem">
                              <path d="M1061 1986 L1061 2885" stroke="currentColor" stroke-width="18" />
                           </g>
                           <g id="a19pr923" class="accid" />
                        </g>
                        <g id="m-598d38d9-b6bf-4690-9eaa-05972bad3786" class="note">
                           <g class="notehead">
                              <use xlink:href="#E0A4-jt8x44" x="1502" y="1958" height="720px" width="720px" />
                           </g>
                           <g id="s1quxzw4" class="stem">
                              <path d="M1511 1986 L1511 2885" stroke="currentColor" stroke-width="18" />
                           </g>
                           <g id="a17ajebb" class="accid" />
                        </g>
                        <g id="m-4da353d3-de88-4ae5-ae88-f9591be471cd" class="note">
                           <g class="notehead">
                              <use xlink:href="#E0A4-jt8x44" x="1926" y="1958" height="720px" width="720px" />
                           </g>
                           <g id="s5624br" class="stem">
                              <path d="M1935 1986 L1935 2885" stroke="currentColor" stroke-width="18" />
                              <use xlink:href="#E222-jt8x44" x="1935" y="2444" height="720px" width="720px" />
                           </g>
                           <g id="a148ridt" class="accid" />
                        </g>
                     </g>
                     <g id="m-43e722d7-f707-4eb5-b032-8675cff4ad1d" class="beam">
                        <polygon points="2299,3308 3355,3308 3355,3218 2299,3218" />
                        <polygon points="2299,3173 2624,3173 2624,3083 2299,3083" />
                        <polygon points="2624,3173 2940,3173 2940,3083 2624,3083" />
                        <polygon points="2624,3038 2940,3038 2940,2948 2624,2948" />
                        <g id="m-fccbc3a4-35a2-4f22-8698-ac954fd71452" class="note">
                           <g class="notehead">
                              <use xlink:href="#E0A4-jt8x44" x="2299" y="1958" height="720px" width="720px" />
                           </g>
                           <g id="s1pfkwrs" class="stem">
                              <path d="M2308 1986 L2308 3290" stroke="currentColor" stroke-width="18" />
                           </g>
                           <g id="a1cb1or5" class="accid" />
                        </g>
                        <g id="m-b8413017-b3d1-4925-b4ce-1850dfe47df0" class="note">
                           <g class="notehead">
                              <use xlink:href="#E0A4-jt8x44" x="2615" y="1958" height="720px" width="720px" />
                           </g>
                           <g id="sw07ndw" class="stem">
                              <path d="M2624 1986 L2624 3290" stroke="currentColor" stroke-width="18" />
                           </g>
                           <g id="a186rm2c" class="accid" />
                        </g>
                        <g id="m-75c35bae-4f7a-46e5-8461-ee121bd6c8d9" class="note">
                           <g class="notehead">
                              <use xlink:href="#E0A9-jt8x44" x="2931" y="2588" height="720px" width="720px" />
                           </g>
                           <g id="ssn6ljd" class="stem">
                              <path d="M2940 2667 L2940 3290" stroke="currentColor" stroke-width="18" />
                           </g>
                           <g id="a1urw3ab" class="accid" />
                        </g>
                        <g id="m-36ce4b69-b206-4b19-8965-caa52432dc46" class="note">
                           <g class="notehead">
                              <use xlink:href="#E0A4-jt8x44" x="3337" y="1958" height="720px" width="720px" />
                           </g>
                           <g id="se913st" class="stem">
                              <path d="M3346 1986 L3346 3290" stroke="currentColor" stroke-width="18" />
                              <use xlink:href="#E222-jt8x44" x="3346" y="2444" height="720px" width="720px" />
                           </g>
                           <g id="a1v13do2" class="accid" />
                        </g>
                     </g>
                     <g id="m-4f9d6db1-c8c6-4517-8b76-0abf5b377e6e" class="beam">
                        <polygon points="3787,2453 4753,2453 4753,2363 3787,2363" />
                        <polygon points="3787,2318 4112,2318 4112,2228 3787,2228" />
                        <polygon points="4112,2318 4428,2318 4428,2228 4112,2228" />
                        <polygon points="4428,2318 4753,2318 4753,2228 4428,2228" />
                        <g id="m-6c17a3e3-ad6e-48f1-9f45-cfb75743af2b" class="note">
                           <g class="notehead">
                              <use xlink:href="#E0A4-jt8x44" x="3787" y="1688" height="720px" width="720px" />
                           </g>
                           <g id="s1r8xl62" class="stem">
                              <path d="M3796 1716 L3796 2435" stroke="currentColor" stroke-width="18" />
                           </g>
                           <g id="a1k6nmth" class="accid" />
                        </g>
                        <g id="m-3e58a65a-f477-43ca-ab4f-ab3455fe40d7" class="note">
                           <g class="notehead">
                              <use xlink:href="#E0A4-jt8x44" x="4103" y="1688" height="720px" width="720px" />
                           </g>
                           <g id="s13vesng" class="stem">
                              <path d="M4112 1716 L4112 2435" stroke="currentColor" stroke-width="18" />
                           </g>
                           <g id="a1avkbm4" class="accid" />
                        </g>
                        <g id="m-995595b3-940c-4454-8ec7-296b30ca68c7" class="note">
                           <g class="notehead">
                              <use xlink:href="#E0A4-jt8x44" x="4419" y="1778" height="720px" width="720px" />
                           </g>
                           <g id="s1ywmvjm" class="stem">
                              <path d="M4428 1806 L4428 2435" stroke="currentColor" stroke-width="18" />
                           </g>
                        </g>
                        <g id="m-1c8464f1-8bde-48f5-9c79-946eb29991be" class="note">
                           <g class="notehead">
                              <use xlink:href="#E0A4-jt8x44" x="4735" y="1778" height="720px" width="720px" />
                           </g>
                           <g id="sknt7hb" class="stem">
                              <path d="M4744 1806 L4744 2435" stroke="currentColor" stroke-width="18" />
                           </g>
                        </g>
                     </g>
                     <g id="m-6e086fc9-c2b0-4b7c-8d72-6072e56f730e" class="beam">
                        <polygon points="5051,2813 6017,2813 6017,2723 5051,2723" />
                        <polygon points="5051,2678 5376,2678 5376,2588 5051,2588" />
                        <polygon points="5376,2678 5692,2678 5692,2588 5376,2588" />
                        <polygon points="5692,2678 6017,2678 6017,2588 5692,2588" />
                        <g id="m-53d768ff-a34a-43a6-826b-96a11de59679" class="note">
                           <g class="notehead">
                              <use xlink:href="#E0A4-jt8x44" x="5051" y="2228" height="720px" width="720px" />
                           </g>
                           <g id="s14twj9b" class="stem">
                              <path d="M5060 2256 L5060 2795" stroke="currentColor" stroke-width="18" />
                           </g>
                        </g>
                        <g id="m-1e0aaf89-62ea-468d-afe5-dad5d46ffed2" class="note">
                           <g class="notehead">
                              <use xlink:href="#E0A4-jt8x44" x="5367" y="2228" height="720px" width="720px" />
                           </g>
                           <g id="szeayfp" class="stem">
                              <path d="M5376 2256 L5376 2795" stroke="currentColor" stroke-width="18" />
                           </g>
                        </g>
                        <g id="m-c4bd912c-4e92-470d-918c-bc330fd6fd6e" class="note">
                           <g class="notehead">
                              <use xlink:href="#E0A4-jt8x44" x="5683" y="2228" height="720px" width="720px" />
                           </g>
                           <g id="sho9fqa" class="stem">
                              <path d="M5692 2256 L5692 2795" stroke="currentColor" stroke-width="18" />
                           </g>
                        </g>
                        <g id="m-15acace0-49fc-4de7-9218-01987ca9e2a0" class="note">
                           <g class="notehead">
                              <use xlink:href="#E0A4-jt8x44" x="5999" y="2228" height="720px" width="720px" />
                           </g>
                           <g id="s3f1xmj" class="stem">
                              <path d="M6008 2256 L6008 2795" stroke="currentColor" stroke-width="18" />
                           </g>
                        </g>
                     </g>
                  </g>
               </g>
               <g id="bwfv0pg" class="barLine">
                  <path d="M6329 1598 L6329 2318" stroke="currentColor" stroke-width="27" />
               </g>
            </g>
            <g id="s3o5sop" class="systemMilestoneEnd m-442d14db-f780-41cf-a522-5162ea99b17c" />
         </g>
         <g id="p17s3hgd" class="pageMilestoneEnd m-692211d0-856a-47ac-805d-010d61cfa020" />
         <g id="p1ay7dv9" class="pageMilestoneEnd m-f73aa592-cf33-4607-afd2-d43b44db134d" />
         <g id="p9k93sn" class="pgHead autogenerated">
            <text font-size="0px">
               <tspan id="r3qvtra" class="rend" x="10000" y="418" text-anchor="middle">
                  <title class="labelAttr">title</title>
                  <tspan id="rp4fc3" class="rend">
                     <tspan id="tzhruqp" class="text">
                        <tspan font-size="607px">25_hiphop_100_fill_4-4</tspan>
                     </tspan>
                  </tspan>
                  <tspan id="l16h4z0l" class="lb" />
                  <tspan id="r5ab8zu" class="rend">
                     <tspan id="t1h16z4l" class="text" x="10000" y="808">
                        <tspan font-size="324px">25_hiphop_100_fill_4-4</tspan>
                     </tspan>
                  </tspan>
               </tspan>
            </text>
         </g>
         <g id="pceg2ut" class="pgFoot autogenerated">
            <g id="f1fjp7tw" class="fig">
               <g class="svg" transform="translate(7750, 28099) scale(10.000000, 10.000000)">
                  <g>
                     <path fill="#00000" d="M 17.11278,49.26451 V 10.367554 h 12.696511 c 3.288815,7.336676 6.71267,14.610456 10.127281,21.888976 3.419998,-7.484684 6.255515,-14.204887 9.58887,-21.909915 2.436207,0.103726 4.316952,0.08453 6.484294,-0.05808 V 49.264423 H 50.274275 C 50.145222,38.35639 50.016136,27.448368 49.887066,16.540329 45.003488,27.315459 39.967448,38.433564 35.083854,49.208695 34.678996,49.343717 34.426583,49.135619 34.021726,49.270644 29.46588,39.330716 24.910049,29.390805 20.354201,19.450876 20.224341,29.388756 20.09461,39.326619 19.964815,49.264497 H 17.11278 Z M 36.754144,39.324695 C 32.721221,30.512695 28.6883,21.700679 24.655394,12.888662 22.530527,12.750737 22.656775,12.71031 20.714356,12.813974 v 0.966497 c 4.612938,9.99784 9.609439,20.748709 13.87298,30.081745 0.722248,-1.512523 1.444528,-3.025014 2.166808,-4.537521 z m 25.738417,9.939815 c 0,-12.965651 0,-25.931305 0,-38.896956 10.084388,0 20.168791,0 30.253178,0 0,0.960416 0,1.920849 0,2.881265 -6.482825,0 -12.965652,0 -19.448478,0 0,4.802097 0,9.604178 0,14.406277 5.52241,0 11.044819,0 16.567229,0 0,0.960415 0,1.920832 0,2.881248 -5.52241,0 -11.044819,0 -16.567229,0 0,5.282306 0,10.564611 0,15.846917 6.963035,0 13.926068,0 20.889103,0 0,0.960416 0,1.920832 0,2.881249 -10.564597,0 -21.129207,0 -31.693803,0 z m 4.321874,-2.160937 c 0,-11.765131 0,-23.530263 0,-35.295394 -0.720312,0 -1.440625,0 -2.160937,0 0,11.765131 0,23.530263 0,35.295394 0.720312,0 1.440625,0 2.160937,0 z m 32.41413,2.160937 c 0,-12.965651 0,-25.931305 0,-38.896956 2.401045,0 4.802095,0 7.203135,0 0,12.965651 0,25.931305 0,38.896956 -2.40104,0 -4.80209,0 -7.203135,0 z m 2.881265,-2.160937 c 0,-11.765131 0,-23.530263 0,-35.295394 -0.72031,0 -1.44064,0 -2.160953,0 0,11.765131 0,23.530263 0,35.295394 0.720313,0 1.440643,0 2.160953,0 z" />
                     <path fill="#00000" d="m 346.3,6.7 c -3.1,0.5 -4.9,4.4 -2.7,6.8 1.2,1.4 2.7,2.4 4.1,3.5 -2.4,5.3 -7.7,8.3 -11.9,12.1 -3.7,2.8 -7,6.2 -9.7,9.9 -2.2,-0.8 -0.3,-6.8 -0.6,-9.5 0.1,-3.1 0.7,-6.4 2.9,-8.7 1.3,-1.9 3,-3.5 4.5,-5.2 1.2,-3.4 -3.2,-4.9 -5.8,-4.6 -7.3,-0.5 -14.6,2 -20,6.8 -5,4.6 -10,10.1 -11.5,17 -0.9,3.5 -0.2,7.5 2.8,9.9 2.5,2.8 7.4,2.9 9.8,-0.2 1.7,-2.3 3.2,-4.8 3.8,-7.6 -0.1,-2.6 -4.4,-2.3 -4.3,0.2 1.2,2.4 -0.9,4.7 -2.7,6.2 -1.7,0.9 -4.7,0.7 -4.8,-1.7 -1,-5.8 2.1,-11.3 5.2,-16.1 4,-5.8 9.8,-11.2 17.2,-11.8 1.6,0 8.1,-1.2 6.8,1.4 -2.8,2.8 -5.6,6.1 -6,10.3 -1.6,7.7 0.1,15.7 -2.3,23.2 -1.1,3.9 2,2.6 2.5,0.2 3.3,-7.4 8.9,-13.4 15.1,-18.5 4.2,-3.9 9.5,-7.1 11.9,-12.6 1.3,-3.6 1.2,-9 -2.7,-10.9 -0.6,-0.2 -1.2,-0.3 -1.8,-0.3 z m 66,14.5 c -2,0.8 -1.8,4.9 0.8,4.4 3.4,0.4 2.9,-6.2 -0.8,-4.4 z m 0.6,7.3 c -1.3,0.5 -7.6,0.5 -5.4,2.2 4,-0.3 0.7,4.5 0.6,6.7 -0.4,2.9 -2.4,5.9 -1.2,8.8 2.7,1.7 5.6,-0.8 6.8,-3.2 1.6,-1.4 -0.5,-3 -1.2,-0.9 -0.4,0.8 -2.4,3.5 -2.6,1.8 1.1,-5 2.7,-9.9 3.9,-14.9 l -0.1,-0.5 h -0.9 z m -65.1,0.2 c -6.5,1.6 -10.5,9.5 -8.2,15.7 2.1,3.4 7.4,2.9 10.1,0.4 2,-0.2 3.6,-5.3 1,-3.4 -1.4,2 -4,4.2 -6.5,2.8 -2.2,-1.9 -1.9,-5.7 1.7,-5.3 3.1,-0.9 6.9,-2.1 8.1,-5.5 0.9,-2.7 -1.6,-5.2 -4.3,-4.8 h -1.1 -0.7 z m 13.6,0 c -2.2,0 -8.5,1.8 -2.9,2.3 0.9,1.9 -1,4.9 -1.1,7.2 -0.5,2.9 -1.4,5.7 -1.7,8.7 3.7,0.7 3.8,-2.6 4.4,-5.3 0.9,-3.3 1.6,-7 4.1,-9.5 2.4,1.6 6.8,-0.7 3.7,-3.4 -2.9,-0.5 -4.8,2.4 -6.2,4.3 0,-1.2 2.4,-5 -0.2,-4.3 z m 15.8,0 c -6.4,1.3 -9.6,9.1 -7.7,14.9 1.9,4 7.7,3.9 11,1.7 4.1,-3 6,-8.9 4.4,-13.7 -1.3,-3 -4.8,-3.2 -7.6,-3 z m 17,0 c -2.3,0 -8.8,1.9 -3,2.4 0.4,2.5 -1,5.7 -1.4,8.4 -0.7,2.4 -1.8,7.5 2.1,7.2 3.8,-0.1 6.5,-3.5 8.5,-6.3 2,-3.2 4.5,-7 3.3,-10.9 -3.7,-3 -3.6,2.6 -3.1,5.1 -0.7,3.8 -2.7,7.9 -6.2,9.8 -3.6,0.6 -1,-4.3 -0.8,-6.1 0.6,-3.2 1.6,-6.3 1.9,-9.5 -0.4,0 -0.8,0 -1.1,0 z m 30.6,0 c -6.3,1.2 -9.5,8.9 -7.8,14.7 1.5,4 7.2,4.2 10.5,2.4 4.6,-2.8 6.6,-9.3 4.8,-14.3 -1.4,-2.8 -4.8,-3 -7.5,-2.8 z m -75.4,1.7 c 2.1,1.5 0.2,4.7 -1.6,5.7 -1.1,0.4 -5.5,3.4 -4.6,0.7 0.8,-2.7 2.2,-6.2 5.3,-6.6 l 0.9,0.1 z m 30.8,0 c 2.6,1.5 1.3,5.2 0.8,7.6 -0.8,2.7 -1.9,5.9 -4.7,7.1 -5.1,0.8 -4,-5.8 -2.8,-8.8 1,-2.8 3,-6.8 6.7,-5.8 z m 47.1,-0.1 c 2.9,0.7 2,4.7 1.5,6.8 -0.7,3 -1.8,6.7 -5,8 -4.7,0.8 -4,-5.1 -3,-7.9 0.9,-3 2.7,-7.3 6.5,-6.8 z m -88.1,5.9 c -0.3,1.3 0.9,-0.6 0,0 z m -1.1,2.4 c -0.2,0.5 0.5,-0.1 0,0 z m -1.3,4.5 c -0.3,1.3 0.8,-0.2 0,0 z" />
                     <text y="41" x="201" fill="#00000" style="font-style:italic;font-weight:normal;font-size:30px;line-height:125%;font-family:Times;text-anchor:middle" xml:space="preserve">engraved with</text>
                  </g>
               </g>
            </g>
         </g>
      </g>
   </svg>
</svg>
