<?xml version="1.0" encoding="UTF-8" standalone="no"?>
<svg width="2100px" height="2970px" version="1.1" xmlns="http://www.w3.org/2000/svg" xmlns:xlink="http://www.w3.org/1999/xlink" xmlns:mei="http://www.music-encoding.org/ns/mei" overflow="visible">
   <desc>Engraved by Verovio 4.4.0-66ab39c</desc>
   <defs>
      <symbol id="E084-1y0izgb" viewBox="0 0 1000 1000" overflow="inherit">
         <path transform="scale(1,-1)" d="M20 -78c84 97 114 180 134 329h170c-13 -32 -82 -132 -99 -151l-84 -97c-33 -36 -59 -63 -80 -81h162v102l127 123v-225h57v-39h-57v-34c0 -43 19 -65 57 -65v-34h-244v36c48 0 60 26 60 70v27h-203v39z" />
      </symbol>
      <symbol id="E0A4-1y0izgb" viewBox="0 0 1000 1000" overflow="inherit">
         <path transform="scale(1,-1)" d="M0 -39c0 68 73 172 200 172c66 0 114 -37 114 -95c0 -84 -106 -171 -218 -171c-64 0 -96 30 -96 94z" />
      </symbol>
      <symbol id="E4E6-1y0izgb" viewBox="0 0 1000 1000" overflow="inherit">
         <path transform="scale(1,-1)" d="M0 123c7 34 33 56 69 60c29 -3 43 -9 53 -29c4 -8 7 -15 10 -22c0 -21 -1 -25 -11 -35c-5 -8 -18 -14 -40 -20l12 -3l15 -1c44 0 97 26 122 56c10 11 18 26 24 42c7 1 15 2 22 3l-140 -424h-36l111 330c-10 -6 -27 -12 -53 -16l-52 -8h-10l-20 1c-1 0 -8 3 -21 6 c-37 9 -55 28 -55 60z" />
      </symbol>
      <symbol id="E4E7-1y0izgb" viewBox="0 0 1000 1000" overflow="inherit">
         <path transform="scale(1,-1)" d="M133 -111c0 -33 -21 -50 -52 -55c10 -3 18 -4 25 -4c40 0 69 24 90 47l66 197c-36 -18 -64 -25 -112 -25c-23 0 -38 3 -45 8c-37 7 -55 27 -55 59c8 35 30 54 68 58c45 -6 49 -13 64 -48c0 -3 1 -5 1 -7c0 -27 -25 -46 -52 -49c6 -4 15 -6 26 -6c32 2 62 14 88 29 c32 19 44 36 59 71l7 1l10 2h4c-72 -220 -143 -439 -215 -659h-37l108 324c-20 -13 -51 -20 -82 -20c-21 0 -35 4 -43 10c-37 6 -55 26 -55 58c8 35 31 56 68 60c43 -8 48 -13 64 -51z" />
      </symbol>
      <symbol id="E4E8-1y0izgb" viewBox="0 0 1000 1000" overflow="inherit">
         <path transform="scale(1,-1)" d="M69 -54c44 -9 49 -10 63 -50c0 -14 -1 -24 -4 -29c-7 -11 -23 -20 -47 -26c6 -3 15 -4 25 -4c18 0 39 7 61 22c18 12 30 26 30 26l61 187c-22 -12 -48 -21 -81 -21c-18 0 -34 3 -46 9c-36 9 -54 29 -54 61c8 34 31 58 68 58c34 0 63 -24 63 -57c0 -11 -4 -21 -10 -30 c-4 -5 -16 -12 -39 -18c8 -3 16 -5 24 -5c35 0 71 25 88 45l66 198c-12 -11 -33 -12 -55 -17c-18 -4 -29 -8 -35 -8h-15l-28 2c-10 1 -17 3 -23 6c-37 7 -56 26 -56 59c9 33 33 59 72 59c33 0 53 -21 61 -49c0 -37 -17 -47 -51 -55c5 -4 13 -6 24 -6c14 0 29 3 45 8 c47 15 89 43 101 92l18 2l4 -1l-288 -889h-37l106 318c-17 -10 -43 -15 -72 -15c-22 0 -40 3 -52 9c-35 8 -55 23 -55 61c8 35 31 54 68 58z" />
      </symbol>
      <symbol id="E069-1y0izgb" viewBox="0 0 1000 1000" overflow="inherit">
         <path transform="scale(1,-1)" d="M200 250h125v-500h-125v500zM0 250h125v-500h-125v500z" />
      </symbol>
      <symbol id="E243-1y0izgb" viewBox="0 0 1000 1000" overflow="inherit">
         <path transform="scale(1,-1)" d="M216 730c-5 8 -10 13 -11 16l-4 10c0 3 2 5 5 5s7 -2 13 -7c35 -42 57 -101 57 -172c0 -34 -6 -65 -17 -94c10 -31 17 -64 17 -96c0 -104 -60 -183 -122 -241c-63 -59 -57 -53 -61 -56c-38 -34 -63 -95 -71 -95h-22v190v190c40 7 69 11 87 16c116 36 175 111 175 197 c0 44 -15 91 -46 137zM248 463c-23 -48 -58 -89 -94 -122c-63 -59 -57 -53 -61 -56c-30 -27 -44 -71 -53 -88c20 3 36 6 47 9c88 27 168 95 168 200c0 19 -3 39 -7 57z" />
      </symbol>
      <symbol id="E0A9-1y0izgb" viewBox="0 0 1000 1000" overflow="inherit">
         <path transform="scale(1,-1)" d="M0 -110c0 4 1 8 5 11l119 99l-119 100c-3 3 -5 8 -5 12c0 6 5 13 12 13c3 0 6 -1 8 -2l124 -105l126 105c2 1 5 2 7 2c6 0 13 -6 13 -14c0 -4 -2 -9 -5 -11l-119 -100l119 -99c3 -3 5 -7 5 -12c0 -6 -5 -14 -13 -14c-2 0 -5 1 -7 3l-126 105l-124 -105c-2 -2 -4 -3 -7 -3 c-8 0 -13 7 -13 15z" />
      </symbol>
      <symbol id="E0B6-1y0izgb" viewBox="0 0 1000 1000" overflow="inherit">
         <path transform="scale(1,-1)" d="M0 -36c0 68 73 174 200 174c66 0 114 -39 114 -97c0 -84 -106 -173 -218 -173c-64 0 -96 32 -96 96zM52 -92c6 -2 15 -3 26 -3c29 5 70 23 107 47l-41 31zM208 -31c40 29 70 64 70 95c0 9 -3 16 -7 23l-105 -87zM246 102c-3 1 -7 1 -11 1c-12 0 -26 -3 -41 -10 c-30 -15 -60 -32 -86 -49l36 -26zM85 27c-33 -27 -56 -57 -56 -90c1 -4 2 -7 3 -11l92 74z" />
      </symbol>
      <symbol id="E4E4-1y0izgb" viewBox="0 0 1000 1000" overflow="inherit">
         <path transform="scale(1,-1)" d="M0 10v105c0 9 1 10 10 10h280c9 0 10 -1 10 -10v-105c0 -9 -1 -10 -10 -10h-280c-9 0 -10 1 -10 10z" />
      </symbol>
   </defs>
   <style type="text/css">g.page-margin{font-family:Times,serif;} g.ending, g.fing, g.reh, g.tempo{font-weight:bold;} g.dir, g.dynam, g.mNum{font-style:italic;} g.label{font-weight:normal;}</style>
   <svg class="definition-scale" color="black" viewBox="0 0 21000 29700">
      <g class="page-margin" transform="translate(500, 500)">
         <g id="m-21d38519-78dd-4788-8f6e-fc823d0fe7f5" class="mdiv pageMilestone" />
         <g id="m-e4695977-36cd-47dc-bef8-6df7eb942011" class="score pageMilestone" />
         <g id="sf2nwlp" class="system">
            <g id="m-4ad57000-d0ca-433a-844f-417c0ede6556" class="section systemMilestone" />
            <g id="m-15c1060c-36af-4e34-83a2-be9339f3fa1f" class="measure">
               <g id="m-b3eb5b0f-257c-4367-96e5-822634f756a2" class="staff">
                  <path d="M0 1733 L5536 1733" stroke="currentColor" stroke-width="13" />
                  <path d="M0 1913 L5536 1913" stroke="currentColor" stroke-width="13" />
                  <path d="M0 2093 L5536 2093" stroke="currentColor" stroke-width="13" />
                  <path d="M0 2273 L5536 2273" stroke="currentColor" stroke-width="13" />
                  <path d="M0 2453 L5536 2453" stroke="currentColor" stroke-width="13" />
                  <g id="c1xudkkg" class="clef">
                     <use xlink:href="#E069-1y0izgb" x="90" y="2093" height="720px" width="720px" />
                  </g>
                  <g id="k1k8hilm" class="keySig" />
                  <g id="m1ul9k7u" class="meterSig">
                     <use xlink:href="#E084-1y0izgb" x="490" y="1913" height="720px" width="720px" />
                     <use xlink:href="#E084-1y0izgb" x="490" y="2273" height="720px" width="720px" />
                  </g>
                  <g class="ledgerLines above">
                     <path d="M3539 1553 L3843 1553" stroke="currentColor" stroke-width="22" />
                  </g>
                  <g class="ledgerLines below">
                     <path d="M4229 2633 L4533 2633" stroke="currentColor" stroke-width="22" />
                  </g>
                  <g id="m-c420d45a-8ef0-46f7-a86c-a8c5362bb5fe" class="layer">
                     <g id="m-4b593413-3aa4-41e8-a2f0-6881b94d4fc1" class="rest">
                        <use xlink:href="#E4E4-1y0izgb" x="1052" y="1553" height="720px" width="720px" />
                        <g class="ledgerLines">
                           <path d="M1004 1553 L1316 1553" stroke="currentColor" stroke-width="22" />
                        </g>
                     </g>
                     <g id="m-dc0b54a2-26c8-4f95-acd6-96c8e9967414" class="note">
                        <g class="notehead">
                           <use xlink:href="#E0A9-1y0izgb" x="3587" y="1553" height="720px" width="720px" />
                        </g>
                        <g id="s1klytla" class="stem">
                           <path d="M3786 1474 L3786 1103" stroke="currentColor" stroke-width="18" />
                        </g>
                     </g>
                     <g id="m-39799828-d71a-4b7b-bd50-14e1a6a17293" class="beam">
                        <polygon points="4467,1058 5401,1058 5401,1148 4467,1148" />
                        <polygon points="4467,1193 4792,1193 4792,1283 4467,1283" />
                        <polygon points="4792,1193 5092,1193 5092,1283 4792,1283" />
                        <polygon points="5092,1193 5401,1193 5401,1283 5092,1283" />
                        <g id="m-53dd44d3-0221-4acb-b0e2-29d2eb8ce792" class="note">
                           <g class="notehead">
                              <use xlink:href="#E0A9-1y0izgb" x="4277" y="1643" height="720px" width="720px" />
                           </g>
                           <g id="s1r55dk9" class="stem">
                              <path d="M4476 1564 L4476 1076" stroke="currentColor" stroke-width="18" />
                           </g>
                        </g>
                        <g id="m-b31bb2fd-fc97-48fb-8d01-67b48166f056" class="note">
                           <g class="notehead">
                              <use xlink:href="#E0A9-1y0izgb" x="4593" y="1643" height="720px" width="720px" />
                           </g>
                           <g id="s11li407" class="stem">
                              <path d="M4792 1564 L4792 1076" stroke="currentColor" stroke-width="18" />
                           </g>
                        </g>
                        <g id="m-9d223a0b-1ff7-4429-8283-77ae3c95ac89" class="note">
                           <g class="notehead">
                              <use xlink:href="#E0A9-1y0izgb" x="4893" y="1643" height="720px" width="720px" />
                           </g>
                           <g id="s1f9n10g" class="stem">
                              <path d="M5092 1564 L5092 1076" stroke="currentColor" stroke-width="18" />
                           </g>
                        </g>
                        <g id="m-8adbf435-a301-4483-892f-fbbd153f1ee5" class="note">
                           <g class="notehead">
                              <use xlink:href="#E0A9-1y0izgb" x="5193" y="1643" height="720px" width="720px" />
                           </g>
                           <g id="s1b50rom" class="stem">
                              <path d="M5392 1564 L5392 1076" stroke="currentColor" stroke-width="18" />
                           </g>
                        </g>
                     </g>
                  </g>
                  <g id="m-e5217cde-418d-4655-a6d8-4fabf6347a2b" class="layer">
                     <g id="m-26aff02e-0010-43f6-9fea-093ef9d3df53" class="rest">
                        <use xlink:href="#E4E7-1y0izgb" x="1052" y="2273" height="720px" width="720px" />
                     </g>
                     <g id="m-1b3fde01-9c1e-4a82-b43e-111f81506256" class="beam">
                        <polygon points="1375,2678 2025,2678 2025,2588 1375,2588" />
                        <polygon points="1375,2543 1700,2543 1700,2453 1375,2453" />
                        <polygon points="1700,2543 2025,2543 2025,2453 1700,2453" />
                        <g id="m-65e07351-aa2f-4a63-a472-df78b36e3618" class="note">
                           <g class="notehead">
                              <use xlink:href="#E0A4-1y0izgb" x="1375" y="2093" height="720px" width="720px" />
                           </g>
                           <g id="sp36x8r" class="stem">
                              <path d="M1384 2121 L1384 2660" stroke="currentColor" stroke-width="18" />
                           </g>
                           <g id="a1skzvju" class="accid" />
                        </g>
                        <g id="m-ea9a1dcf-7eca-42cd-be64-ea6e8acca7c9" class="note">
                           <g class="notehead">
                              <use xlink:href="#E0A4-1y0izgb" x="1691" y="2093" height="720px" width="720px" />
                           </g>
                           <g id="s1ea6evb" class="stem">
                              <path d="M1700 2121 L1700 2660" stroke="currentColor" stroke-width="18" />
                           </g>
                           <g id="a60rgzh" class="accid" />
                        </g>
                        <g id="m-d9ad4f03-20cf-447e-b3bb-fedce675c6c0" class="note">
                           <g class="notehead">
                              <use xlink:href="#E0A4-1y0izgb" x="2007" y="2093" height="720px" width="720px" />
                           </g>
                           <g id="s104d177" class="stem">
                              <path d="M2016 2121 L2016 2660" stroke="currentColor" stroke-width="18" />
                           </g>
                           <g id="ao87s7" class="accid" />
                        </g>
                     </g>
                     <g id="m-d0d5ed9d-101c-49b7-a45e-752fa2c4fb06" class="beam">
                        <polygon points="2323,2813 3289,3173 3289,3083 2323,2723" />
                        <polygon points="2323,2678 2648,2798 2648,2708 2323,2588" />
                        <polygon points="2648,2798 2964,2918 2964,2828 2648,2708" />
                        <polygon points="2964,2918 3289,3038 3289,2948 2964,2828" />
                        <g id="m-1f0528ed-7319-4569-9108-f8a6fb06694e" class="note">
                           <g class="notehead">
                              <use xlink:href="#E0A4-1y0izgb" x="2323" y="1823" height="720px" width="720px" />
                           </g>
                           <g id="s1bumzdc" class="stem">
                              <path d="M2332 1851 L2332 2795" stroke="currentColor" stroke-width="18" />
                           </g>
                           <g id="a1xgg0zl" class="accid" />
                        </g>
                        <g id="m-c9237767-be99-4f7e-b156-4c5b954de434" class="note">
                           <g class="notehead">
                              <use xlink:href="#E0A4-1y0izgb" x="2639" y="2093" height="720px" width="720px" />
                           </g>
                           <g id="sq9penz" class="stem">
                              <path d="M2648 2121 L2648 2915" stroke="currentColor" stroke-width="18" />
                           </g>
                           <g id="ak9sghs" class="accid" />
                        </g>
                        <g id="m-8f41b489-f9fe-4de3-8451-35f669253429" class="note">
                           <g class="notehead">
                              <use xlink:href="#E0A4-1y0izgb" x="2955" y="2363" height="720px" width="720px" />
                           </g>
                           <g id="s1n3ixly" class="stem">
                              <path d="M2964 2391 L2964 3035" stroke="currentColor" stroke-width="18" />
                           </g>
                        </g>
                        <g id="m-3eabe645-45df-414a-ba4c-6cbe7b2b46b5" class="note">
                           <g class="notehead">
                              <use xlink:href="#E0A4-1y0izgb" x="3271" y="2543" height="720px" width="720px" />
                           </g>
                           <g id="s189wpq" class="stem">
                              <path d="M3280 2571 L3280 3155" stroke="currentColor" stroke-width="18" />
                           </g>
                        </g>
                     </g>
                     <g id="m-212ab1d4-3c8f-4db8-9b40-e3818afdca2c" class="note">
                        <g class="notehead">
                           <use xlink:href="#E0A4-1y0izgb" x="3587" y="2543" height="720px" width="720px" />
                        </g>
                        <g id="s46eeyp" class="stem">
                           <path d="M3596 2571 L3596 2993" stroke="currentColor" stroke-width="18" />
                        </g>
                     </g>
                     <g id="m-706e9809-b3f6-4f39-afd9-fd7846b56946" class="beam">
                        <polygon points="4277,3173 5211,2993 5211,2903 4277,3083" />
                        <polygon points="4985,2899 5211,2858 5211,2768 4985,2809" />
                        <g id="m-472c9d20-ce85-4c71-80f8-c4f3ddacff8e" class="chord">
                           <g id="dh1fccx" class="dots" />
                           <g id="smnzgsf" class="stem">
                              <path d="M4286 2121 L4286 3155" stroke="currentColor" stroke-width="18" />
                           </g>
                           <g id="m-ca0fc005-6e3f-46f1-97e4-bca33130963b" class="note">
                              <g class="notehead">
                                 <use xlink:href="#E0A9-1y0izgb" x="4277" y="2723" height="720px" width="720px" />
                              </g>
                              <g id="d1s9tj04" class="dots">
                                 <ellipse cx="4575" cy="2723" rx="36" ry="36" />
                              </g>
                              <g id="a1ea7leu" class="accid" />
                           </g>
                           <g id="m-deef966d-1f07-4dbd-b464-ad2f740f94b8" class="note">
                              <g class="notehead">
                                 <use xlink:href="#E0A4-1y0izgb" x="4277" y="2093" height="720px" width="720px" />
                              </g>
                              <g id="d1cjywm0" class="dots">
                                 <ellipse cx="4593" cy="2183" rx="36" ry="36" />
                              </g>
                              <g id="a1ws320z" class="accid" />
                           </g>
                        </g>
                        <g id="m-07a9a349-d851-4c2a-89f6-fe7b3a111cf3" class="note">
                           <g class="notehead">
                              <use xlink:href="#E0A4-1y0izgb" x="5193" y="2543" height="720px" width="720px" />
                           </g>
                           <g id="s13tvjn9" class="stem">
                              <path d="M5202 2571 L5202 2975" stroke="currentColor" stroke-width="18" />
                           </g>
                        </g>
                     </g>
                  </g>
               </g>
               <g id="b1rrbwpj" class="barLine">
                  <path d="M5523 1733 L5523 2453" stroke="currentColor" stroke-width="27" />
               </g>
            </g>
            <g id="m-e313f6c7-7e39-4254-9f9e-3b434c4e5057" class="measure">
               <g id="m-5d04cea5-8594-4eee-842e-c484ef710f50" class="staff">
                  <path d="M5536 1733 L10917 1733" stroke="currentColor" stroke-width="13" />
                  <path d="M5536 1913 L10917 1913" stroke="currentColor" stroke-width="13" />
                  <path d="M5536 2093 L10917 2093" stroke="currentColor" stroke-width="13" />
                  <path d="M5536 2273 L10917 2273" stroke="currentColor" stroke-width="13" />
                  <path d="M5536 2453 L10917 2453" stroke="currentColor" stroke-width="13" />
                  <g id="m-792ded37-b353-43cc-a275-ca4b66408050" class="layer">
                     <g id="m-443d8bb3-fd70-4710-8200-bb9c6a3b4299" class="beam">
                        <polygon points="5906,1058 6690,1058 6690,1148 5906,1148" />
                        <polygon points="5906,1193 6132,1193 6132,1283 5906,1283" />
                        <polygon points="6464,1193 6690,1193 6690,1283 6464,1283" />
                        <g id="m-7102f8c6-f395-48c9-be4c-5038448bc9fb" class="note">
                           <g class="notehead">
                              <use xlink:href="#E0A9-1y0izgb" x="5716" y="1643" height="720px" width="720px" />
                           </g>
                           <g id="sbzxi64" class="stem">
                              <path d="M5915 1564 L5915 1076" stroke="currentColor" stroke-width="18" />
                           </g>
                        </g>
                        <g id="m-6f0b5514-6617-42dc-beed-eb48f08d109d" class="note">
                           <g class="notehead">
                              <use xlink:href="#E0A9-1y0izgb" x="6032" y="1643" height="720px" width="720px" />
                           </g>
                           <g id="s1adpju7" class="stem">
                              <path d="M6231 1564 L6231 1076" stroke="currentColor" stroke-width="18" />
                           </g>
                        </g>
                        <g id="m-f9cce800-7dba-4e1f-827b-9a9392bde291" class="note">
                           <g class="notehead">
                              <use xlink:href="#E0A9-1y0izgb" x="6482" y="1643" height="720px" width="720px" />
                           </g>
                           <g id="s11nbdtz" class="stem">
                              <path d="M6681 1564 L6681 1076" stroke="currentColor" stroke-width="18" />
                           </g>
                        </g>
                     </g>
                     <g id="m-fae8ee88-0927-46a6-b5c7-882f250316d0" class="beam">
                        <polygon points="6972,1058 7906,1058 7906,1148 6972,1148" />
                        <polygon points="6972,1193 7297,1193 7297,1283 6972,1283" />
                        <polygon points="7297,1193 7597,1193 7597,1283 7297,1283" />
                        <polygon points="7597,1193 7906,1193 7906,1283 7597,1283" />
                        <g id="m-b5c07e7e-13bf-4b6a-b220-86b79c977821" class="note">
                           <g class="notehead">
                              <use xlink:href="#E0A9-1y0izgb" x="6782" y="1643" height="720px" width="720px" />
                           </g>
                           <g id="s1havx1g" class="stem">
                              <path d="M6981 1564 L6981 1076" stroke="currentColor" stroke-width="18" />
                           </g>
                        </g>
                        <g id="m-ec8796e9-7221-444c-9ff2-b2b3ddba5e9d" class="note">
                           <g class="notehead">
                              <use xlink:href="#E0A9-1y0izgb" x="7098" y="1643" height="720px" width="720px" />
                           </g>
                           <g id="s1jaujs" class="stem">
                              <path d="M7297 1564 L7297 1076" stroke="currentColor" stroke-width="18" />
                           </g>
                        </g>
                        <g id="m-fb8e822b-ddcc-4a60-ae12-88a252db5b03" class="note">
                           <g class="notehead">
                              <use xlink:href="#E0A9-1y0izgb" x="7398" y="1643" height="720px" width="720px" />
                           </g>
                           <g id="sxfwfg9" class="stem">
                              <path d="M7597 1564 L7597 1076" stroke="currentColor" stroke-width="18" />
                           </g>
                        </g>
                        <g id="m-a0019fd6-b050-4145-985d-21acfe601a47" class="note">
                           <g class="notehead">
                              <use xlink:href="#E0A9-1y0izgb" x="7698" y="1643" height="720px" width="720px" />
                           </g>
                           <g id="s1xqh2w7" class="stem">
                              <path d="M7897 1564 L7897 1076" stroke="currentColor" stroke-width="18" />
                           </g>
                        </g>
                     </g>
                     <g id="m-dd9e3b27-4a3e-48aa-82fc-99ae4e9544e6" class="beam">
                        <polygon points="8188,1058 9534,1058 9534,1148 8188,1148" />
                        <polygon points="8188,1193 8497,1193 8497,1283 8188,1283" />
                        <polygon points="8497,1193 8797,1193 8797,1283 8497,1283" />
                        <polygon points="8797,1193 9534,1193 9534,1283 8797,1283" />
                        <g id="m-a1839ac5-ac1a-47ef-bf2e-203ab75571cf" class="note">
                           <g class="notehead">
                              <use xlink:href="#E0A9-1y0izgb" x="7998" y="1643" height="720px" width="720px" />
                           </g>
                           <g id="s1aacmz6" class="stem">
                              <path d="M8197 1564 L8197 1076" stroke="currentColor" stroke-width="18" />
                           </g>
                        </g>
                        <g id="m-6a6870ec-a17f-461d-8953-4069a36f1356" class="note">
                           <g class="notehead">
                              <use xlink:href="#E0A9-1y0izgb" x="8298" y="1643" height="720px" width="720px" />
                           </g>
                           <g id="s17xak98" class="stem">
                              <path d="M8497 1564 L8497 1076" stroke="currentColor" stroke-width="18" />
                           </g>
                        </g>
                        <g id="m-c7421f48-2991-48e7-9fbd-1b72dc13f343" class="note">
                           <g class="notehead">
                              <use xlink:href="#E0A9-1y0izgb" x="8598" y="1643" height="720px" width="720px" />
                           </g>
                           <g id="s4iigxr" class="stem">
                              <path d="M8797 1564 L8797 1076" stroke="currentColor" stroke-width="18" />
                           </g>
                        </g>
                        <g id="m-8dc9d747-9638-4f92-9a0d-cb8f1f30a405" class="note">
                           <g class="notehead">
                              <use xlink:href="#E0A9-1y0izgb" x="9326" y="1643" height="720px" width="720px" />
                           </g>
                           <g id="sypz0ke" class="stem">
                              <path d="M9525 1564 L9525 1076" stroke="currentColor" stroke-width="18" />
                           </g>
                        </g>
                     </g>
                     <g id="m-e702e124-e5af-4d5d-a302-cf5d178e1062" class="beam">
                        <polygon points="9816,1058 10782,1058 10782,1148 9816,1148" />
                        <polygon points="10457,1193 10782,1193 10782,1283 10457,1283" />
                        <g id="m-6320878e-bc93-4303-be98-e3416273b508" class="note">
                           <g class="notehead">
                              <use xlink:href="#E0A9-1y0izgb" x="9626" y="1643" height="720px" width="720px" />
                           </g>
                           <g id="skcrb1i" class="stem">
                              <path d="M9825 1564 L9825 1076" stroke="currentColor" stroke-width="18" />
                           </g>
                        </g>
                        <g id="m-46a87e42-922c-4e1e-bc21-689af3687a84" class="note">
                           <g class="notehead">
                              <use xlink:href="#E0A9-1y0izgb" x="10258" y="1643" height="720px" width="720px" />
                           </g>
                           <g id="sfvb6zc" class="stem">
                              <path d="M10457 1564 L10457 1076" stroke="currentColor" stroke-width="18" />
                           </g>
                        </g>
                        <g id="m-f4d928f1-f550-4266-8fa6-d37d1c45ccd0" class="note">
                           <g class="notehead">
                              <use xlink:href="#E0A9-1y0izgb" x="10574" y="1643" height="720px" width="720px" />
                           </g>
                           <g id="slbkv6i" class="stem">
                              <path d="M10773 1564 L10773 1076" stroke="currentColor" stroke-width="18" />
                           </g>
                        </g>
                     </g>
                  </g>
                  <g id="m-98b755de-ac3d-455e-8657-2ea6b38bdbf0" class="layer">
                     <g id="m-c954eced-fbc0-491e-b093-fc9ac627ac60" class="note">
                        <g class="notehead">
                           <use xlink:href="#E0A4-1y0izgb" x="5716" y="2543" height="720px" width="720px" />
                        </g>
                        <g id="s98ecg3" class="stem">
                           <path d="M5725 2571 L5725 2993" stroke="currentColor" stroke-width="18" />
                        </g>
                     </g>
                     <g id="m-0288303c-cbc4-426c-bfbb-34c2071fd282" class="note">
                        <g class="notehead">
                           <use xlink:href="#E0A4-1y0izgb" x="6782" y="2093" height="720px" width="720px" />
                        </g>
                        <g id="s1p3h8h" class="stem">
                           <path d="M6791 2121 L6791 2693" stroke="currentColor" stroke-width="18" />
                        </g>
                        <g id="apyfy21" class="accid" />
                     </g>
                     <g id="m-1f5afee4-d9fc-4938-90b0-0e9c7cc047f7" class="rest">
                        <use xlink:href="#E4E6-1y0izgb" x="7998" y="2273" height="720px" width="720px" />
                     </g>
                     <g id="m-4882ca86-22db-4d6f-b7f2-37269e4cae1d" class="rest">
                        <use xlink:href="#E4E8-1y0izgb" x="8598" y="2453" height="720px" width="720px" />
                     </g>
                     <g id="m-f191898b-bbde-4db2-8aaf-4da4e416aeae" class="note">
                        <g class="notehead">
                           <use xlink:href="#E0A4-1y0izgb" x="8974" y="2093" height="720px" width="720px" />
                        </g>
                        <g id="d1ppwmcw" class="dots">
                           <ellipse cx="9290" cy="2183" rx="36" ry="36" />
                        </g>
                        <g id="s1gxncbo" class="stem">
                           <path d="M8983 2121 L8983 2693" stroke="currentColor" stroke-width="18" />
                           <g id="f1kso050" class="flag">
                              <use xlink:href="#E243-1y0izgb" x="8974" y="2693" height="720px" width="720px" />
                           </g>
                        </g>
                        <g id="al3plub" class="accid" />
                     </g>
                     <g id="m-a44ec655-974e-4f5e-a9c1-571ca5a4447a" class="beam">
                        <polygon points="9626,2993 10592,3173 10592,3083 9626,2903" />
                        <polygon points="9626,2858 9951,2918 9951,2828 9626,2768" />
                        <polygon points="9951,2918 10267,2978 10267,2888 9951,2828" />
                        <polygon points="10267,2978 10592,3038 10592,2948 10267,2888" />
                        <g id="m-9874b0f2-d985-467b-bbaf-e06b5a2b3a71" class="note">
                           <g class="notehead">
                              <use xlink:href="#E0A4-1y0izgb" x="9626" y="2093" height="720px" width="720px" />
                           </g>
                           <g id="s1vtogad" class="stem">
                              <path d="M9635 2121 L9635 2975" stroke="currentColor" stroke-width="18" />
                           </g>
                           <g id="ar4vsqg" class="accid" />
                        </g>
                        <g id="m-769dd9f6-5ad1-446c-89ee-14795a111566" class="note">
                           <g class="notehead">
                              <use xlink:href="#E0A4-1y0izgb" x="9942" y="2093" height="720px" width="720px" />
                           </g>
                           <g id="s1w47f98" class="stem">
                              <path d="M9951 2121 L9951 3035" stroke="currentColor" stroke-width="18" />
                           </g>
                           <g id="a1tcqhrt" class="accid" />
                        </g>
                        <g id="m-25933c3c-1b78-4414-9f4e-584fd435f1bf" class="note">
                           <g class="notehead">
                              <use xlink:href="#E0A4-1y0izgb" x="10258" y="2093" height="720px" width="720px" />
                           </g>
                           <g id="s1wd0hkw" class="stem">
                              <path d="M10267 2121 L10267 3095" stroke="currentColor" stroke-width="18" />
                           </g>
                           <g id="amfgx00" class="accid" />
                        </g>
                        <g id="m-729228a1-0706-4217-8529-5ec92402c1f2" class="note">
                           <g class="notehead">
                              <use xlink:href="#E0A4-1y0izgb" x="10574" y="2543" height="720px" width="720px" />
                           </g>
                           <g id="s1gl8d8o" class="stem">
                              <path d="M10583 2571 L10583 3155" stroke="currentColor" stroke-width="18" />
                           </g>
                        </g>
                     </g>
                  </g>
               </g>
               <g id="bnkmuk" class="barLine">
                  <path d="M10904 1733 L10904 2453" stroke="currentColor" stroke-width="27" />
               </g>
            </g>
            <g id="m-c3ed28c5-8483-49d0-898d-8863ac13fd02" class="measure">
               <g id="m-3c299d6d-8667-4806-83af-9d579a1d4d3f" class="staff">
                  <path d="M10917 1733 L14442 1733" stroke="currentColor" stroke-width="13" />
                  <path d="M10917 1913 L14442 1913" stroke="currentColor" stroke-width="13" />
                  <path d="M10917 2093 L14442 2093" stroke="currentColor" stroke-width="13" />
                  <path d="M10917 2273 L14442 2273" stroke="currentColor" stroke-width="13" />
                  <path d="M10917 2453 L14442 2453" stroke="currentColor" stroke-width="13" />
                  <g class="ledgerLines below">
                     <path d="M13331 2633 L13653 2633" stroke="currentColor" stroke-width="22" />
                  </g>
                  <g id="m-e2ccd588-df5e-4f2f-aa5b-c409f0939815" class="layer">
                     <g id="m-67c24141-21be-4ae0-abe7-eed9fa872636" class="beam">
                        <polygon points="11287,1058 12221,1058 12221,1148 11287,1148" />
                        <polygon points="11287,1193 11612,1193 11612,1283 11287,1283" />
                        <polygon points="11612,1193 11912,1193 11912,1283 11612,1283" />
                        <polygon points="11912,1193 12221,1193 12221,1283 11912,1283" />
                        <g id="m-6540cf85-d19b-408d-91a6-f5df6b4595fb" class="note">
                           <g class="notehead">
                              <use xlink:href="#E0A9-1y0izgb" x="11097" y="1643" height="720px" width="720px" />
                           </g>
                           <g id="s1i2uo0k" class="stem">
                              <path d="M11296 1564 L11296 1076" stroke="currentColor" stroke-width="18" />
                           </g>
                        </g>
                        <g id="m-73c6a3cb-271a-4a04-93d8-68f855fff2e4" class="note">
                           <g class="notehead">
                              <use xlink:href="#E0A9-1y0izgb" x="11413" y="1643" height="720px" width="720px" />
                           </g>
                           <g id="s11a7de3" class="stem">
                              <path d="M11612 1564 L11612 1076" stroke="currentColor" stroke-width="18" />
                           </g>
                        </g>
                        <g id="m-27867660-514e-432e-910f-afe35d6150f3" class="note">
                           <g class="notehead">
                              <use xlink:href="#E0A9-1y0izgb" x="11713" y="1643" height="720px" width="720px" />
                           </g>
                           <g id="s2d2kjs" class="stem">
                              <path d="M11912 1564 L11912 1076" stroke="currentColor" stroke-width="18" />
                           </g>
                        </g>
                        <g id="m-ac223ca4-5d0c-4fd5-8739-82c16e7aac4a" class="note">
                           <g class="notehead">
                              <use xlink:href="#E0A9-1y0izgb" x="12013" y="1643" height="720px" width="720px" />
                           </g>
                           <g id="s1u7cd1l" class="stem">
                              <path d="M12212 1564 L12212 1076" stroke="currentColor" stroke-width="18" />
                           </g>
                        </g>
                     </g>
                     <g id="m-75a95e25-3242-4a82-8cfd-d2cb6c01fa9e" class="beam">
                        <polygon points="12503,1058 13137,1058 13137,1148 12503,1148" />
                        <polygon points="12503,1193 12828,1193 12828,1283 12503,1283" />
                        <g id="m-4c9a6b85-371a-4476-b832-e14ae8cfa9d8" class="note">
                           <g class="notehead">
                              <use xlink:href="#E0A9-1y0izgb" x="12313" y="1643" height="720px" width="720px" />
                           </g>
                           <g id="s1x9sovu" class="stem">
                              <path d="M12512 1564 L12512 1076" stroke="currentColor" stroke-width="18" />
                           </g>
                        </g>
                        <g id="m-a520fb8f-c1e6-40c0-bd42-3aaf6a459102" class="note">
                           <g class="notehead">
                              <use xlink:href="#E0A9-1y0izgb" x="12629" y="1643" height="720px" width="720px" />
                           </g>
                           <g id="s5fkbd4" class="stem">
                              <path d="M12828 1564 L12828 1076" stroke="currentColor" stroke-width="18" />
                           </g>
                        </g>
                        <g id="m-85c3ef90-4805-4eb3-94ca-7b792361fb64" class="note">
                           <g class="notehead">
                              <use xlink:href="#E0A9-1y0izgb" x="12929" y="1643" height="720px" width="720px" />
                           </g>
                           <g id="s1kqxhwy" class="stem">
                              <path d="M13128 1564 L13128 1076" stroke="currentColor" stroke-width="18" />
                           </g>
                        </g>
                     </g>
                     <g id="m-9d8aee86-2032-43e1-8484-a1f9723a1f59" class="rest">
                        <use xlink:href="#E4E4-1y0izgb" x="13379" y="1553" height="720px" width="720px" />
                        <g class="ledgerLines">
                           <path d="M13331 1553 L13643 1553" stroke="currentColor" stroke-width="22" />
                        </g>
                     </g>
                  </g>
                  <g id="m-cfaa1022-2023-4072-9d4a-69312201c684" class="layer">
                     <g id="m-2ba9d064-a364-4de3-bcda-fb475c0a55a4" class="chord">
                        <g id="s1q1fqs" class="stem">
                           <path d="M11106 2121 L11106 2993" stroke="currentColor" stroke-width="18" />
                        </g>
                        <g id="m-ae7b592b-27dc-4364-a4e4-96d580905b19" class="note">
                           <g class="notehead">
                              <use xlink:href="#E0A4-1y0izgb" x="11097" y="2093" height="720px" width="720px" />
                           </g>
                           <g id="axhul35" class="accid" />
                        </g>
                        <g id="m-5abc9bc3-750c-4420-9dc9-43f91e10cc54" class="note">
                           <g class="notehead">
                              <use xlink:href="#E0A4-1y0izgb" x="11097" y="2543" height="720px" width="720px" />
                           </g>
                        </g>
                     </g>
                     <g id="m-7b059893-3fa7-4291-9fbf-4a9e25ea9b42" class="note">
                        <g class="notehead">
                           <use xlink:href="#E0A4-1y0izgb" x="12313" y="2093" height="720px" width="720px" />
                        </g>
                        <g id="s16p2yhn" class="stem">
                           <path d="M12322 2121 L12322 2693" stroke="currentColor" stroke-width="18" />
                        </g>
                        <g id="a14uyzvf" class="accid" />
                     </g>
                     <g id="m-c75d2d7b-911c-4369-bb28-5922b99e1e60" class="note">
                        <g class="notehead">
                           <use xlink:href="#E0B6-1y0izgb" x="13379" y="2723" height="720px" width="720px" />
                        </g>
                        <g id="s1ajwmbe" class="stem">
                           <path d="M13388 2748 L13388 3173" stroke="currentColor" stroke-width="18" />
                        </g>
                        <g id="af3r7ea" class="accid" />
                     </g>
                  </g>
               </g>
               <g id="bnqpbuu" class="barLine">
                  <path d="M14429 1733 L14429 2453" stroke="currentColor" stroke-width="27" />
               </g>
            </g>
            <g id="slv1q5f" class="systemMilestoneEnd m-4ad57000-d0ca-433a-844f-417c0ede6556" />
         </g>
         <g id="p1wbwmfe" class="pageMilestoneEnd m-e4695977-36cd-47dc-bef8-6df7eb942011" />
         <g id="p15u7nzh" class="pageMilestoneEnd m-21d38519-78dd-4788-8f6e-fc823d0fe7f5" />
         <g id="plf22ca" class="pgHead autogenerated">
            <text font-size="0px">
               <tspan id="r1atrvjj" class="rend" x="10000" y="418" text-anchor="middle">
                  <title class="labelAttr">title</title>
                  <tspan id="rdi1er0" class="rend">
                     <tspan id="t1h20l9n" class="text">
                        <tspan font-size="607px">30_rock_75_beat_4-4</tspan>
                     </tspan>
                  </tspan>
                  <tspan id="l1e1klfl" class="lb" />
                  <tspan id="r1k1igtt" class="rend">
                     <tspan id="tx2tab1" class="text" x="10000" y="808">
                        <tspan font-size="324px">30_rock_75_beat_4-4</tspan>
                     </tspan>
                  </tspan>
               </tspan>
            </text>
         </g>
         <g id="p1m7ohqu" class="pgFoot autogenerated">
            <g id="fh3c8mb" class="fig">
               <g class="svg" transform="translate(7750, 28099) scale(10.000000, 10.000000)">
                  <g>
                     <path fill="#00000" d="M 17.11278,49.26451 V 10.367554 h 12.696511 c 3.288815,7.336676 6.71267,14.610456 10.127281,21.888976 3.419998,-7.484684 6.255515,-14.204887 9.58887,-21.909915 2.436207,0.103726 4.316952,0.08453 6.484294,-0.05808 V 49.264423 H 50.274275 C 50.145222,38.35639 50.016136,27.448368 49.887066,16.540329 45.003488,27.315459 39.967448,38.433564 35.083854,49.208695 34.678996,49.343717 34.426583,49.135619 34.021726,49.270644 29.46588,39.330716 24.910049,29.390805 20.354201,19.450876 20.224341,29.388756 20.09461,39.326619 19.964815,49.264497 H 17.11278 Z M 36.754144,39.324695 C 32.721221,30.512695 28.6883,21.700679 24.655394,12.888662 22.530527,12.750737 22.656775,12.71031 20.714356,12.813974 v 0.966497 c 4.612938,9.99784 9.609439,20.748709 13.87298,30.081745 0.722248,-1.512523 1.444528,-3.025014 2.166808,-4.537521 z m 25.738417,9.939815 c 0,-12.965651 0,-25.931305 0,-38.896956 10.084388,0 20.168791,0 30.253178,0 0,0.960416 0,1.920849 0,2.881265 -6.482825,0 -12.965652,0 -19.448478,0 0,4.802097 0,9.604178 0,14.406277 5.52241,0 11.044819,0 16.567229,0 0,0.960415 0,1.920832 0,2.881248 -5.52241,0 -11.044819,0 -16.567229,0 0,5.282306 0,10.564611 0,15.846917 6.963035,0 13.926068,0 20.889103,0 0,0.960416 0,1.920832 0,2.881249 -10.564597,0 -21.129207,0 -31.693803,0 z m 4.321874,-2.160937 c 0,-11.765131 0,-23.530263 0,-35.295394 -0.720312,0 -1.440625,0 -2.160937,0 0,11.765131 0,23.530263 0,35.295394 0.720312,0 1.440625,0 2.160937,0 z m 32.41413,2.160937 c 0,-12.965651 0,-25.931305 0,-38.896956 2.401045,0 4.802095,0 7.203135,0 0,12.965651 0,25.931305 0,38.896956 -2.40104,0 -4.80209,0 -7.203135,0 z m 2.881265,-2.160937 c 0,-11.765131 0,-23.530263 0,-35.295394 -0.72031,0 -1.44064,0 -2.160953,0 0,11.765131 0,23.530263 0,35.295394 0.720313,0 1.440643,0 2.160953,0 z" />
                     <path fill="#00000" d="m 346.3,6.7 c -3.1,0.5 -4.9,4.4 -2.7,6.8 1.2,1.4 2.7,2.4 4.1,3.5 -2.4,5.3 -7.7,8.3 -11.9,12.1 -3.7,2.8 -7,6.2 -9.7,9.9 -2.2,-0.8 -0.3,-6.8 -0.6,-9.5 0.1,-3.1 0.7,-6.4 2.9,-8.7 1.3,-1.9 3,-3.5 4.5,-5.2 1.2,-3.4 -3.2,-4.9 -5.8,-4.6 -7.3,-0.5 -14.6,2 -20,6.8 -5,4.6 -10,10.1 -11.5,17 -0.9,3.5 -0.2,7.5 2.8,9.9 2.5,2.8 7.4,2.9 9.8,-0.2 1.7,-2.3 3.2,-4.8 3.8,-7.6 -0.1,-2.6 -4.4,-2.3 -4.3,0.2 1.2,2.4 -0.9,4.7 -2.7,6.2 -1.7,0.9 -4.7,0.7 -4.8,-1.7 -1,-5.8 2.1,-11.3 5.2,-16.1 4,-5.8 9.8,-11.2 17.2,-11.8 1.6,0 8.1,-1.2 6.8,1.4 -2.8,2.8 -5.6,6.1 -6,10.3 -1.6,7.7 0.1,15.7 -2.3,23.2 -1.1,3.9 2,2.6 2.5,0.2 3.3,-7.4 8.9,-13.4 15.1,-18.5 4.2,-3.9 9.5,-7.1 11.9,-12.6 1.3,-3.6 1.2,-9 -2.7,-10.9 -0.6,-0.2 -1.2,-0.3 -1.8,-0.3 z m 66,14.5 c -2,0.8 -1.8,4.9 0.8,4.4 3.4,0.4 2.9,-6.2 -0.8,-4.4 z m 0.6,7.3 c -1.3,0.5 -7.6,0.5 -5.4,2.2 4,-0.3 0.7,4.5 0.6,6.7 -0.4,2.9 -2.4,5.9 -1.2,8.8 2.7,1.7 5.6,-0.8 6.8,-3.2 1.6,-1.4 -0.5,-3 -1.2,-0.9 -0.4,0.8 -2.4,3.5 -2.6,1.8 1.1,-5 2.7,-9.9 3.9,-14.9 l -0.1,-0.5 h -0.9 z m -65.1,0.2 c -6.5,1.6 -10.5,9.5 -8.2,15.7 2.1,3.4 7.4,2.9 10.1,0.4 2,-0.2 3.6,-5.3 1,-3.4 -1.4,2 -4,4.2 -6.5,2.8 -2.2,-1.9 -1.9,-5.7 1.7,-5.3 3.1,-0.9 6.9,-2.1 8.1,-5.5 0.9,-2.7 -1.6,-5.2 -4.3,-4.8 h -1.1 -0.7 z m 13.6,0 c -2.2,0 -8.5,1.8 -2.9,2.3 0.9,1.9 -1,4.9 -1.1,7.2 -0.5,2.9 -1.4,5.7 -1.7,8.7 3.7,0.7 3.8,-2.6 4.4,-5.3 0.9,-3.3 1.6,-7 4.1,-9.5 2.4,1.6 6.8,-0.7 3.7,-3.4 -2.9,-0.5 -4.8,2.4 -6.2,4.3 0,-1.2 2.4,-5 -0.2,-4.3 z m 15.8,0 c -6.4,1.3 -9.6,9.1 -7.7,14.9 1.9,4 7.7,3.9 11,1.7 4.1,-3 6,-8.9 4.4,-13.7 -1.3,-3 -4.8,-3.2 -7.6,-3 z m 17,0 c -2.3,0 -8.8,1.9 -3,2.4 0.4,2.5 -1,5.7 -1.4,8.4 -0.7,2.4 -1.8,7.5 2.1,7.2 3.8,-0.1 6.5,-3.5 8.5,-6.3 2,-3.2 4.5,-7 3.3,-10.9 -3.7,-3 -3.6,2.6 -3.1,5.1 -0.7,3.8 -2.7,7.9 -6.2,9.8 -3.6,0.6 -1,-4.3 -0.8,-6.1 0.6,-3.2 1.6,-6.3 1.9,-9.5 -0.4,0 -0.8,0 -1.1,0 z m 30.6,0 c -6.3,1.2 -9.5,8.9 -7.8,14.7 1.5,4 7.2,4.2 10.5,2.4 4.6,-2.8 6.6,-9.3 4.8,-14.3 -1.4,-2.8 -4.8,-3 -7.5,-2.8 z m -75.4,1.7 c 2.1,1.5 0.2,4.7 -1.6,5.7 -1.1,0.4 -5.5,3.4 -4.6,0.7 0.8,-2.7 2.2,-6.2 5.3,-6.6 l 0.9,0.1 z m 30.8,0 c 2.6,1.5 1.3,5.2 0.8,7.6 -0.8,2.7 -1.9,5.9 -4.7,7.1 -5.1,0.8 -4,-5.8 -2.8,-8.8 1,-2.8 3,-6.8 6.7,-5.8 z m 47.1,-0.1 c 2.9,0.7 2,4.7 1.5,6.8 -0.7,3 -1.8,6.7 -5,8 -4.7,0.8 -4,-5.1 -3,-7.9 0.9,-3 2.7,-7.3 6.5,-6.8 z m -88.1,5.9 c -0.3,1.3 0.9,-0.6 0,0 z m -1.1,2.4 c -0.2,0.5 0.5,-0.1 0,0 z m -1.3,4.5 c -0.3,1.3 0.8,-0.2 0,0 z" />
                     <text y="41" x="201" fill="#00000" style="font-style:italic;font-weight:normal;font-size:30px;line-height:125%;font-family:Times;text-anchor:middle" xml:space="preserve">engraved with</text>
                  </g>
               </g>
            </g>
         </g>
      </g>
   </svg>
</svg>
