<?xml version="1.0" encoding="UTF-8" standalone="no"?>
<svg width="2100px" height="2970px" version="1.1" xmlns="http://www.w3.org/2000/svg" xmlns:xlink="http://www.w3.org/1999/xlink" xmlns:mei="http://www.music-encoding.org/ns/mei" overflow="visible">
   <desc>Engraved by Verovio 4.4.0-66ab39c</desc>
   <defs>
      <symbol id="E084-1xexxjz" viewBox="0 0 1000 1000" overflow="inherit">
         <path transform="scale(1,-1)" d="M20 -78c84 97 114 180 134 329h170c-13 -32 -82 -132 -99 -151l-84 -97c-33 -36 -59 -63 -80 -81h162v102l127 123v-225h57v-39h-57v-34c0 -43 19 -65 57 -65v-34h-244v36c48 0 60 26 60 70v27h-203v39z" />
      </symbol>
      <symbol id="E0A4-1xexxjz" viewBox="0 0 1000 1000" overflow="inherit">
         <path transform="scale(1,-1)" d="M0 -39c0 68 73 172 200 172c66 0 114 -37 114 -95c0 -84 -106 -171 -218 -171c-64 0 -96 30 -96 94z" />
      </symbol>
      <symbol id="E4E5-1xexxjz" viewBox="0 0 1000 1000" overflow="inherit">
         <path transform="scale(1,-1)" d="M107 292c-13 24 -30 49 -52 71c-1 1 0 2 0 3l-2 2c3 3 4 4 6 4c12 0 26 -7 40 -20s44 -40 89 -81c26 -24 28 -29 46 -47c4 -4 8 -9 10 -14c6 -8 8 -16 8 -27c0 -19 -12 -40 -36 -61c-28 -23 -49 -38 -61 -73c-4 -11 -7 -27 -10 -50c13 -43 34 -83 59 -121 c31 -47 59 -79 101 -129c-8 0 -26 7 -54 20l-62 29l-21 6l-23 1c-25 0 -45 -10 -60 -30l-4 -14l-1 -12c0 -33 20 -56 39 -78c8 -9 17 -18 26 -26c17 -15 27 -24 28 -30l-3 -3c-11 5 -19 10 -25 15c-9 3 -37 21 -45 26c-24 14 -45 32 -63 51c-19 21 -37 44 -37 71 c0 63 27 95 80 95c41 0 86 -18 136 -52c-19 26 -37 48 -55 66c-23 23 -48 44 -73 65c-28 23 -47 40 -58 53s-17 26 -18 39c75 64 113 125 113 183c0 27 -7 48 -18 68z" />
      </symbol>
      <symbol id="E0A9-1xexxjz" viewBox="0 0 1000 1000" overflow="inherit">
         <path transform="scale(1,-1)" d="M0 -110c0 4 1 8 5 11l119 99l-119 100c-3 3 -5 8 -5 12c0 6 5 13 12 13c3 0 6 -1 8 -2l124 -105l126 105c2 1 5 2 7 2c6 0 13 -6 13 -14c0 -4 -2 -9 -5 -11l-119 -100l119 -99c3 -3 5 -7 5 -12c0 -6 -5 -14 -13 -14c-2 0 -5 1 -7 3l-126 105l-124 -105c-2 -2 -4 -3 -7 -3 c-8 0 -13 7 -13 15z" />
      </symbol>
      <symbol id="E4E4-1xexxjz" viewBox="0 0 1000 1000" overflow="inherit">
         <path transform="scale(1,-1)" d="M0 10v105c0 9 1 10 10 10h280c9 0 10 -1 10 -10v-105c0 -9 -1 -10 -10 -10h-280c-9 0 -10 1 -10 10z" />
      </symbol>
      <symbol id="E4E3-1xexxjz" viewBox="0 0 1000 1000" overflow="inherit">
         <path transform="scale(1,-1)" d="M0 -115v105c0 9 1 10 10 10h280c9 0 10 -1 10 -10v-105c0 -9 -1 -10 -10 -10h-280c-9 0 -10 1 -10 10z" />
      </symbol>
      <symbol id="E069-1xexxjz" viewBox="0 0 1000 1000" overflow="inherit">
         <path transform="scale(1,-1)" d="M200 250h125v-500h-125v500zM0 250h125v-500h-125v500z" />
      </symbol>
   </defs>
   <style type="text/css">g.page-margin{font-family:Times,serif;} g.ending, g.fing, g.reh, g.tempo{font-weight:bold;} g.dir, g.dynam, g.mNum{font-style:italic;} g.label{font-weight:normal;}</style>
   <svg class="definition-scale" color="black" viewBox="0 0 21000 29700">
      <g class="page-margin" transform="translate(500, 500)">
         <g id="m-77b624bb-e822-4a0d-8e53-c33c455e56d3" class="mdiv pageMilestone" />
         <g id="m-30b70f24-d313-490c-8497-f1e93da45b39" class="score pageMilestone" />
         <g id="s1rzi7ue" class="system">
            <g id="m-726d7c97-869a-4976-b0ed-a9c7780f42b6" class="section systemMilestone" />
            <g id="m-48da1cdc-34a6-40c6-b8ad-4ed936a7cde1" class="measure">
               <g id="m-0d3be7e0-3291-4904-8af4-0077c99a52c4" class="staff">
                  <path d="M0 1784 L6135 1784" stroke="currentColor" stroke-width="13" />
                  <path d="M0 1964 L6135 1964" stroke="currentColor" stroke-width="13" />
                  <path d="M0 2144 L6135 2144" stroke="currentColor" stroke-width="13" />
                  <path d="M0 2324 L6135 2324" stroke="currentColor" stroke-width="13" />
                  <path d="M0 2504 L6135 2504" stroke="currentColor" stroke-width="13" />
                  <g id="c1vjji1z" class="clef">
                     <use xlink:href="#E069-1xexxjz" x="90" y="2144" height="720px" width="720px" />
                  </g>
                  <g id="k1kzshl" class="keySig" />
                  <g id="md6ibip" class="meterSig">
                     <use xlink:href="#E084-1xexxjz" x="490" y="1964" height="720px" width="720px" />
                     <use xlink:href="#E084-1xexxjz" x="490" y="2324" height="720px" width="720px" />
                  </g>
                  <g id="m-c5df3973-9ef5-4bb8-a273-58449ba37669" class="layer">
                     <g id="m-2e245537-bcb7-4984-8953-47e310bb1897" class="rest">
                        <use xlink:href="#E4E3-1xexxjz" x="1052" y="1604" height="720px" width="720px" />
                        <g class="ledgerLines">
                           <path d="M1004 1604 L1316 1604" stroke="currentColor" stroke-width="22" />
                        </g>
                     </g>
                  </g>
                  <g id="m-a0815be6-4601-4a8b-891d-fd01cb164796" class="layer">
                     <g id="m-985f4660-10b7-44c0-8d2e-df0ce0044c6f" class="beam">
                        <polygon points="1052,3179 2018,3179 2018,3089 1052,3089" />
                        <polygon points="1052,3044 1377,3044 1377,2954 1052,2954" />
                        <polygon points="1377,3044 1693,3044 1693,2954 1377,2954" />
                        <polygon points="1693,3044 2018,3044 2018,2954 1693,2954" />
                        <g id="m-f2a540bf-01ed-4141-829b-9c2cffb507c7" class="note">
                           <g class="notehead">
                              <use xlink:href="#E0A4-1xexxjz" x="1052" y="1874" height="720px" width="720px" />
                           </g>
                           <g id="s1tamdvn" class="stem">
                              <path d="M1061 1902 L1061 3161" stroke="currentColor" stroke-width="18" />
                           </g>
                           <g id="anrxet9" class="accid" />
                        </g>
                        <g id="m-a2b7ffe4-5975-4fcf-82fb-bdbc741b7e85" class="note">
                           <g class="notehead">
                              <use xlink:href="#E0A4-1xexxjz" x="1368" y="2594" height="720px" width="720px" />
                           </g>
                           <g id="s276v" class="stem">
                              <path d="M1377 2622 L1377 3161" stroke="currentColor" stroke-width="18" />
                           </g>
                        </g>
                        <g id="m-93ae84ea-0030-4d6b-9115-f78aab5df2d2" class="note">
                           <g class="notehead">
                              <use xlink:href="#E0A4-1xexxjz" x="1684" y="1964" height="720px" width="720px" />
                           </g>
                           <g id="s1nsaibb" class="stem">
                              <path d="M1693 1992 L1693 3161" stroke="currentColor" stroke-width="18" />
                           </g>
                        </g>
                        <g id="m-e1e59779-5ad4-476c-90f2-c40be2579f47" class="note">
                           <g class="notehead">
                              <use xlink:href="#E0A4-1xexxjz" x="2000" y="1964" height="720px" width="720px" />
                           </g>
                           <g id="s1dovcvi" class="stem">
                              <path d="M2009 1992 L2009 3161" stroke="currentColor" stroke-width="18" />
                           </g>
                        </g>
                     </g>
                     <g id="m-2c7fc9b2-22b6-4f94-b063-488e6fec6dd5" class="beam">
                        <polygon points="2316,3179 3282,3179 3282,3089 2316,3089" />
                        <polygon points="2316,3044 2641,3044 2641,2954 2316,2954" />
                        <polygon points="2641,3044 2957,3044 2957,2954 2641,2954" />
                        <polygon points="2957,3044 3282,3044 3282,2954 2957,2954" />
                        <g id="m-83311aee-22a8-431d-8a3e-e2262b199350" class="note">
                           <g class="notehead">
                              <use xlink:href="#E0A4-1xexxjz" x="2316" y="2594" height="720px" width="720px" />
                           </g>
                           <g id="suzxuti" class="stem">
                              <path d="M2325 2622 L2325 3161" stroke="currentColor" stroke-width="18" />
                           </g>
                        </g>
                        <g id="m-02c44d12-359a-4f6a-ac55-37219e3eba05" class="note">
                           <g class="notehead">
                              <use xlink:href="#E0A4-1xexxjz" x="2632" y="2414" height="720px" width="720px" />
                           </g>
                           <g id="s15zo0rj" class="stem">
                              <path d="M2641 2442 L2641 3161" stroke="currentColor" stroke-width="18" />
                           </g>
                        </g>
                        <g id="m-9dd54a1b-3651-4ba4-8edf-bb1abfbbe95e" class="note">
                           <g class="notehead">
                              <use xlink:href="#E0A4-1xexxjz" x="2948" y="2414" height="720px" width="720px" />
                           </g>
                           <g id="syg1l34" class="stem">
                              <path d="M2957 2442 L2957 3161" stroke="currentColor" stroke-width="18" />
                           </g>
                        </g>
                        <g id="m-98724cff-a179-4a0d-84f2-0c36c1a41729" class="note">
                           <g class="notehead">
                              <use xlink:href="#E0A4-1xexxjz" x="3264" y="2594" height="720px" width="720px" />
                           </g>
                           <g id="s14yexod" class="stem">
                              <path d="M3273 2622 L3273 3161" stroke="currentColor" stroke-width="18" />
                           </g>
                        </g>
                     </g>
                     <g id="m-257b315c-9e30-445f-8bfd-b87110d6488f" class="beam">
                        <polygon points="3580,3179 4546,3179 4546,3089 3580,3089" />
                        <polygon points="3580,3044 3905,3044 3905,2954 3580,2954" />
                        <polygon points="3905,3044 4221,3044 4221,2954 3905,2954" />
                        <polygon points="4221,3044 4546,3044 4546,2954 4221,2954" />
                        <g id="m-57d92d09-9467-4ad8-8804-cc5b1a044b02" class="note">
                           <g class="notehead">
                              <use xlink:href="#E0A4-1xexxjz" x="3580" y="2144" height="720px" width="720px" />
                           </g>
                           <g id="sn9z20f" class="stem">
                              <path d="M3589 2172 L3589 3161" stroke="currentColor" stroke-width="18" />
                           </g>
                           <g id="ag0xsui" class="accid" />
                        </g>
                        <g id="m-cd6d93af-9230-4d0f-b74f-45a83c0328a2" class="note">
                           <g class="notehead">
                              <use xlink:href="#E0A4-1xexxjz" x="3896" y="2144" height="720px" width="720px" />
                           </g>
                           <g id="sfzvxtc" class="stem">
                              <path d="M3905 2172 L3905 3161" stroke="currentColor" stroke-width="18" />
                           </g>
                           <g id="avem0g1" class="accid" />
                        </g>
                        <g id="m-4b1e6264-600e-415c-9b41-281109ae423d" class="note">
                           <g class="notehead">
                              <use xlink:href="#E0A4-1xexxjz" x="4212" y="2594" height="720px" width="720px" />
                           </g>
                           <g id="s1cw0jbd" class="stem">
                              <path d="M4221 2622 L4221 3161" stroke="currentColor" stroke-width="18" />
                           </g>
                        </g>
                        <g id="m-ede68f9b-7fbf-439c-abcd-d9e34a7c5aa1" class="note">
                           <g class="notehead">
                              <use xlink:href="#E0A4-1xexxjz" x="4528" y="1874" height="720px" width="720px" />
                           </g>
                           <g id="sufqr7z" class="stem">
                              <path d="M4537 1902 L4537 3161" stroke="currentColor" stroke-width="18" />
                           </g>
                           <g id="a1nffmtc" class="accid" />
                        </g>
                     </g>
                     <g id="m-570210bc-3667-415d-a3ad-2089d072fcd4" class="beam">
                        <polygon points="4844,3179 5810,3179 5810,3089 4844,3089" />
                        <polygon points="4844,3044 5169,3044 5169,2954 4844,2954" />
                        <polygon points="5169,3044 5485,3044 5485,2954 5169,2954" />
                        <polygon points="5485,3044 5810,3044 5810,2954 5485,2954" />
                        <g id="m-bc1cdce3-e361-4169-9320-836b2dcdea2e" class="note">
                           <g class="notehead">
                              <use xlink:href="#E0A4-1xexxjz" x="4844" y="1874" height="720px" width="720px" />
                           </g>
                           <g id="s1uv8laz" class="stem">
                              <path d="M4853 1902 L4853 3161" stroke="currentColor" stroke-width="18" />
                           </g>
                           <g id="a2utxja" class="accid" />
                        </g>
                        <g id="m-4fb909ec-842c-43ad-80c4-06b0b76a59b2" class="note">
                           <g class="notehead">
                              <use xlink:href="#E0A4-1xexxjz" x="5160" y="2594" height="720px" width="720px" />
                           </g>
                           <g id="s2ndiby" class="stem">
                              <path d="M5169 2622 L5169 3161" stroke="currentColor" stroke-width="18" />
                           </g>
                        </g>
                        <g id="m-22cb945e-f258-4c3c-82c7-62b066c0a1fe" class="note">
                           <g class="notehead">
                              <use xlink:href="#E0A4-1xexxjz" x="5476" y="1964" height="720px" width="720px" />
                           </g>
                           <g id="s1y4s6f7" class="stem">
                              <path d="M5485 1992 L5485 3161" stroke="currentColor" stroke-width="18" />
                           </g>
                        </g>
                        <g id="m-cca8fcce-4f76-44dc-a922-5b08ac6954d1" class="note">
                           <g class="notehead">
                              <use xlink:href="#E0A4-1xexxjz" x="5792" y="1964" height="720px" width="720px" />
                           </g>
                           <g id="s1rritoo" class="stem">
                              <path d="M5801 1992 L5801 3161" stroke="currentColor" stroke-width="18" />
                           </g>
                        </g>
                     </g>
                  </g>
               </g>
               <g id="bjnykds" class="barLine">
                  <path d="M6122 1784 L6122 2504" stroke="currentColor" stroke-width="27" />
               </g>
            </g>
            <g id="m-e53a64cc-cf67-4b16-ac68-df6037049146" class="measure">
               <g id="m-18d2d0c8-d654-4d45-89a2-1a2b1c3bcd98" class="staff">
                  <path d="M6135 1784 L11034 1784" stroke="currentColor" stroke-width="13" />
                  <path d="M6135 1964 L11034 1964" stroke="currentColor" stroke-width="13" />
                  <path d="M6135 2144 L11034 2144" stroke="currentColor" stroke-width="13" />
                  <path d="M6135 2324 L11034 2324" stroke="currentColor" stroke-width="13" />
                  <path d="M6135 2504 L11034 2504" stroke="currentColor" stroke-width="13" />
                  <g id="m-e187cb73-88dc-4fcb-9bb1-1fb7468e3a16" class="layer">
                     <g id="m-1a81ce26-c195-4c9d-a513-0331bcc50bbc" class="rest">
                        <use xlink:href="#E4E3-1xexxjz" x="6315" y="1604" height="720px" width="720px" />
                        <g class="ledgerLines">
                           <path d="M6267 1604 L6579 1604" stroke="currentColor" stroke-width="22" />
                        </g>
                     </g>
                  </g>
                  <g id="m-1cc0c290-bfce-4dab-beb1-bc12bcaa29e4" class="layer">
                     <g id="m-432688fd-46d7-4d72-bb9c-0c10f2ada927" class="beam">
                        <polygon points="6315,3179 7281,3179 7281,3089 6315,3089" />
                        <polygon points="6315,3044 6640,3044 6640,2954 6315,2954" />
                        <polygon points="6640,3044 6956,3044 6956,2954 6640,2954" />
                        <polygon points="6956,3044 7281,3044 7281,2954 6956,2954" />
                        <g id="m-3dd8e6a3-04c7-456d-b67b-6344f4829ac7" class="note">
                           <g class="notehead">
                              <use xlink:href="#E0A4-1xexxjz" x="6315" y="2594" height="720px" width="720px" />
                           </g>
                           <g id="s16igmw6" class="stem">
                              <path d="M6324 2622 L6324 3161" stroke="currentColor" stroke-width="18" />
                           </g>
                        </g>
                        <g id="m-9a62293c-e0c5-4741-84c9-20a11d3ff981" class="note">
                           <g class="notehead">
                              <use xlink:href="#E0A4-1xexxjz" x="6631" y="2414" height="720px" width="720px" />
                           </g>
                           <g id="s4tc7ma" class="stem">
                              <path d="M6640 2442 L6640 3161" stroke="currentColor" stroke-width="18" />
                           </g>
                        </g>
                        <g id="m-af592b99-5945-41aa-b92c-5b6e463dd366" class="note">
                           <g class="notehead">
                              <use xlink:href="#E0A4-1xexxjz" x="6947" y="2414" height="720px" width="720px" />
                           </g>
                           <g id="s10jeint" class="stem">
                              <path d="M6956 2442 L6956 3161" stroke="currentColor" stroke-width="18" />
                           </g>
                        </g>
                        <g id="m-f8be953d-061c-4de1-ba0b-a6ffb201c8b2" class="note">
                           <g class="notehead">
                              <use xlink:href="#E0A4-1xexxjz" x="7263" y="2594" height="720px" width="720px" />
                           </g>
                           <g id="s1lcrhbn" class="stem">
                              <path d="M7272 2622 L7272 3161" stroke="currentColor" stroke-width="18" />
                           </g>
                        </g>
                     </g>
                     <g id="m-a230a7c5-c6e5-4593-9562-ffc5b2d77fdd" class="beam">
                        <polygon points="7579,2864 8229,3044 8229,2954 7579,2774" />
                        <polygon points="7579,2729 7904,2819 7904,2729 7579,2639" />
                        <g id="m-bde6ad4e-ccea-4423-b992-780cac500656" class="note">
                           <g class="notehead">
                              <use xlink:href="#E0A4-1xexxjz" x="7579" y="2144" height="720px" width="720px" />
                           </g>
                           <g id="swosjt7" class="stem">
                              <path d="M7588 2172 L7588 2846" stroke="currentColor" stroke-width="18" />
                           </g>
                           <g id="a5rejaf" class="accid" />
                        </g>
                        <g id="m-43646053-8730-4d06-9576-f7db9545bc8f" class="note">
                           <g class="notehead">
                              <use xlink:href="#E0A4-1xexxjz" x="7895" y="2144" height="720px" width="720px" />
                           </g>
                           <g id="s17uf99a" class="stem">
                              <path d="M7904 2172 L7904 2936" stroke="currentColor" stroke-width="18" />
                           </g>
                           <g id="aflqd2x" class="accid" />
                        </g>
                        <g id="m-d64cce27-4002-48b8-9185-49964f422252" class="chord">
                           <g id="s1rvxcmu" class="stem">
                              <path d="M8220 1902 L8220 3026" stroke="currentColor" stroke-width="18" />
                           </g>
                           <g id="m-7091fc25-48b2-416c-96b9-2dc40c2ff29e" class="note">
                              <g class="notehead">
                                 <use xlink:href="#E0A4-1xexxjz" x="8211" y="2594" height="720px" width="720px" />
                              </g>
                           </g>
                           <g id="m-5bb3a5a2-a755-47b4-a68f-b2370f290afc" class="note">
                              <g class="notehead">
                                 <use xlink:href="#E0A4-1xexxjz" x="8211" y="1874" height="720px" width="720px" />
                              </g>
                              <g id="a16dhg7g" class="accid" />
                           </g>
                        </g>
                     </g>
                     <g id="m-236e2a0d-e59a-43ab-90e5-4eb97e66f4f1" class="beam">
                        <polygon points="8661,3044 9445,2864 9445,2774 8661,2954" />
                        <polygon points="9120,2804 9445,2729 9445,2639 9120,2714" />
                        <g id="m-b0445616-5f53-4ab4-a30a-364ae35f8e5c" class="chord">
                           <g id="sk5774m" class="stem">
                              <path d="M8670 1902 L8670 3026" stroke="currentColor" stroke-width="18" />
                           </g>
                           <g id="m-eee23ff2-2687-4fc6-beba-7b5c2072ad8d" class="note">
                              <g class="notehead">
                                 <use xlink:href="#E0A4-1xexxjz" x="8661" y="1874" height="720px" width="720px" />
                              </g>
                              <g id="a1cnxiqa" class="accid" />
                           </g>
                           <g id="m-bfc04a50-d555-4713-9c36-3b51bf4b5d15" class="note">
                              <g class="notehead">
                                 <use xlink:href="#E0A4-1xexxjz" x="8661" y="2594" height="720px" width="720px" />
                              </g>
                           </g>
                        </g>
                        <g id="m-cb82bc44-270e-4e3e-941e-72fbda22569b" class="note">
                           <g class="notehead">
                              <use xlink:href="#E0A4-1xexxjz" x="9111" y="1964" height="720px" width="720px" />
                           </g>
                           <g id="sht4p9i" class="stem">
                              <path d="M9120 1992 L9120 2921" stroke="currentColor" stroke-width="18" />
                           </g>
                        </g>
                        <g id="m-a5005a01-5876-4752-b294-e068656772a7" class="note">
                           <g class="notehead">
                              <use xlink:href="#E0A4-1xexxjz" x="9427" y="1964" height="720px" width="720px" />
                           </g>
                           <g id="se9m9xe" class="stem">
                              <path d="M9436 1992 L9436 2846" stroke="currentColor" stroke-width="18" />
                           </g>
                        </g>
                     </g>
                     <g id="m-b65e853c-85a8-4ad4-a2a3-488aec704f32" class="beam">
                        <polygon points="9743,3179 10709,3179 10709,3089 9743,3089" />
                        <polygon points="9743,3044 10068,3044 10068,2954 9743,2954" />
                        <polygon points="10068,3044 10384,3044 10384,2954 10068,2954" />
                        <polygon points="10384,3044 10709,3044 10709,2954 10384,2954" />
                        <g id="m-70c65139-81ec-4e51-9c35-cc33e6491943" class="note">
                           <g class="notehead">
                              <use xlink:href="#E0A4-1xexxjz" x="9743" y="2594" height="720px" width="720px" />
                           </g>
                           <g id="sbi8x9g" class="stem">
                              <path d="M9752 2622 L9752 3161" stroke="currentColor" stroke-width="18" />
                           </g>
                        </g>
                        <g id="m-b70ecfbd-0f0e-4098-8d10-d9264c798965" class="note">
                           <g class="notehead">
                              <use xlink:href="#E0A4-1xexxjz" x="10059" y="2414" height="720px" width="720px" />
                           </g>
                           <g id="shbhm00" class="stem">
                              <path d="M10068 2442 L10068 3161" stroke="currentColor" stroke-width="18" />
                           </g>
                        </g>
                        <g id="m-4c309cdd-6018-452b-8e20-b2050d0795d9" class="note">
                           <g class="notehead">
                              <use xlink:href="#E0A4-1xexxjz" x="10375" y="2414" height="720px" width="720px" />
                           </g>
                           <g id="skaw6fb" class="stem">
                              <path d="M10384 2442 L10384 3161" stroke="currentColor" stroke-width="18" />
                           </g>
                        </g>
                        <g id="m-01ff0d5b-b640-49d8-9013-6c5e97b11b0c" class="note">
                           <g class="notehead">
                              <use xlink:href="#E0A4-1xexxjz" x="10691" y="2594" height="720px" width="720px" />
                           </g>
                           <g id="s9ow1t5" class="stem">
                              <path d="M10700 2622 L10700 3161" stroke="currentColor" stroke-width="18" />
                           </g>
                        </g>
                     </g>
                  </g>
               </g>
               <g id="b127w6ja" class="barLine">
                  <path d="M11021 1784 L11021 2504" stroke="currentColor" stroke-width="27" />
               </g>
            </g>
            <g id="m-46130f98-2dce-4825-8466-7124e1a55667" class="measure">
               <g id="m-d19890fd-d5bd-4f85-bad9-41da6b599cbe" class="staff">
                  <path d="M11034 1784 L15345 1784" stroke="currentColor" stroke-width="13" />
                  <path d="M11034 1964 L15345 1964" stroke="currentColor" stroke-width="13" />
                  <path d="M11034 2144 L15345 2144" stroke="currentColor" stroke-width="13" />
                  <path d="M11034 2324 L15345 2324" stroke="currentColor" stroke-width="13" />
                  <path d="M11034 2504 L15345 2504" stroke="currentColor" stroke-width="13" />
                  <g class="ledgerLines above">
                     <path d="M14594 1604 L14898 1604" stroke="currentColor" stroke-width="22" />
                  </g>
                  <g id="m-9b0d5c0d-a99b-4bea-8436-bd2b4a42340a" class="layer">
                     <g id="m-ebffeea4-0f6f-4f71-a53f-f284af20e79b" class="rest">
                        <use xlink:href="#E4E4-1xexxjz" x="11214" y="1604" height="720px" width="720px" />
                        <g class="ledgerLines">
                           <path d="M11166 1604 L11478 1604" stroke="currentColor" stroke-width="22" />
                        </g>
                     </g>
                     <g id="m-7519e2bd-23be-4d67-a8bc-4f561a282011" class="rest">
                        <use xlink:href="#E4E5-1xexxjz" x="13560" y="1424" height="720px" width="720px" />
                     </g>
                     <g id="m-b38543c0-6fd7-4b7e-9edb-93535ce08c72" class="note">
                        <g class="notehead">
                           <use xlink:href="#E0A9-1xexxjz" x="14642" y="1514" height="720px" width="720px" />
                        </g>
                        <g id="s147b79k" class="stem">
                           <path d="M14841 1435 L14841 1064" stroke="currentColor" stroke-width="18" />
                        </g>
                        <g id="albwo69" class="accid" />
                     </g>
                  </g>
                  <g id="m-4392b7b4-18a0-4244-8847-818d807e9b61" class="layer">
                     <g id="m-4b933bd2-997b-4b8a-aa3b-f442d2cbdcd3" class="beam">
                        <polygon points="11214,2864 11864,3044 11864,2954 11214,2774" />
                        <polygon points="11214,2729 11539,2819 11539,2729 11214,2639" />
                        <g id="m-1d6e45ca-6d2f-4448-892b-2a334642ecab" class="note">
                           <g class="notehead">
                              <use xlink:href="#E0A4-1xexxjz" x="11214" y="2144" height="720px" width="720px" />
                           </g>
                           <g id="s1d7krpa" class="stem">
                              <path d="M11223 2172 L11223 2846" stroke="currentColor" stroke-width="18" />
                           </g>
                           <g id="aqg06bw" class="accid" />
                        </g>
                        <g id="m-6400971c-9aeb-44d6-8cbb-21b27e9d47e8" class="note">
                           <g class="notehead">
                              <use xlink:href="#E0A4-1xexxjz" x="11530" y="2144" height="720px" width="720px" />
                           </g>
                           <g id="s1kemdty" class="stem">
                              <path d="M11539 2172 L11539 2936" stroke="currentColor" stroke-width="18" />
                           </g>
                           <g id="aa0jaxx" class="accid" />
                        </g>
                        <g id="m-6b5046bc-acc4-4643-a651-353354880959" class="chord">
                           <g id="s2w57fb" class="stem">
                              <path d="M11855 1902 L11855 3026" stroke="currentColor" stroke-width="18" />
                           </g>
                           <g id="m-a8ad6738-5c6a-4e14-b092-2305e04755d3" class="note">
                              <g class="notehead">
                                 <use xlink:href="#E0A4-1xexxjz" x="11846" y="2594" height="720px" width="720px" />
                              </g>
                           </g>
                           <g id="m-a0895154-c784-494d-be8b-3065675b6377" class="note">
                              <g class="notehead">
                                 <use xlink:href="#E0A4-1xexxjz" x="11846" y="1874" height="720px" width="720px" />
                              </g>
                              <g id="a1kzidmv" class="accid" />
                           </g>
                        </g>
                     </g>
                     <g id="m-78ebc778-1b7e-448d-9dad-b494fddaca24" class="beam">
                        <polygon points="12296,3179 13262,3179 13262,3089 12296,3089" />
                        <polygon points="12296,3044 12621,3044 12621,2954 12296,2954" />
                        <polygon points="12621,3044 12937,3044 12937,2954 12621,2954" />
                        <polygon points="12937,3044 13262,3044 13262,2954 12937,2954" />
                        <g id="m-6d655b59-1b2c-4965-abbe-c6886ef0a2c5" class="note">
                           <g class="notehead">
                              <use xlink:href="#E0A4-1xexxjz" x="12296" y="1874" height="720px" width="720px" />
                           </g>
                           <g id="s19baq2z" class="stem">
                              <path d="M12305 1902 L12305 3161" stroke="currentColor" stroke-width="18" />
                           </g>
                           <g id="agqu7g3" class="accid" />
                        </g>
                        <g id="m-4eaf96c5-9650-4c94-97a0-dc3981f0cc89" class="note">
                           <g class="notehead">
                              <use xlink:href="#E0A4-1xexxjz" x="12612" y="2594" height="720px" width="720px" />
                           </g>
                           <g id="skplu0h" class="stem">
                              <path d="M12621 2622 L12621 3161" stroke="currentColor" stroke-width="18" />
                           </g>
                        </g>
                        <g id="m-c2fe8f80-de52-4d20-999c-b0a6a9a3b542" class="note">
                           <g class="notehead">
                              <use xlink:href="#E0A4-1xexxjz" x="12928" y="1964" height="720px" width="720px" />
                           </g>
                           <g id="s36g7gn" class="stem">
                              <path d="M12937 1992 L12937 3161" stroke="currentColor" stroke-width="18" />
                           </g>
                        </g>
                        <g id="m-66ebedb9-09c4-496a-81fa-39a5a5517bd0" class="note">
                           <g class="notehead">
                              <use xlink:href="#E0A4-1xexxjz" x="13244" y="1964" height="720px" width="720px" />
                           </g>
                           <g id="sl63bfy" class="stem">
                              <path d="M13253 1992 L13253 3161" stroke="currentColor" stroke-width="18" />
                           </g>
                        </g>
                     </g>
                     <g id="m-c1da4447-6b87-478d-a4b7-75aa83c43246" class="beam">
                        <polygon points="13560,3224 14210,3044 14210,2954 13560,3134" />
                        <polygon points="13560,3089 13885,2999 13885,2909 13560,2999" />
                        <g id="m-ff1502cf-327c-4ad3-b0ba-e4957a7832af" class="note">
                           <g class="notehead">
                              <use xlink:href="#E0A4-1xexxjz" x="13560" y="2594" height="720px" width="720px" />
                           </g>
                           <g id="sndg991" class="stem">
                              <path d="M13569 2622 L13569 3206" stroke="currentColor" stroke-width="18" />
                           </g>
                        </g>
                        <g id="m-5f041a57-0c70-48be-a2cc-7c9c70cedc84" class="note">
                           <g class="notehead">
                              <use xlink:href="#E0A4-1xexxjz" x="13876" y="2414" height="720px" width="720px" />
                           </g>
                           <g id="sheum7v" class="stem">
                              <path d="M13885 2442 L13885 3116" stroke="currentColor" stroke-width="18" />
                           </g>
                        </g>
                        <g id="m-84db969c-54a8-43f6-84ed-74e1e65d5155" class="note">
                           <g class="notehead">
                              <use xlink:href="#E0A4-1xexxjz" x="14192" y="2414" height="720px" width="720px" />
                           </g>
                           <g id="spqfxmg" class="stem">
                              <path d="M14201 2442 L14201 3026" stroke="currentColor" stroke-width="18" />
                           </g>
                        </g>
                     </g>
                     <g id="m-d41fb575-d011-47ac-ae47-e42585af8dc1" class="note">
                        <g class="notehead">
                           <use xlink:href="#E0A4-1xexxjz" x="14642" y="2594" height="720px" width="720px" />
                        </g>
                        <g id="sg4qul4" class="stem">
                           <path d="M14651 2622 L14651 3044" stroke="currentColor" stroke-width="18" />
                        </g>
                     </g>
                  </g>
               </g>
               <g id="b4t5ugs" class="barLine">
                  <path d="M15332 1784 L15332 2504" stroke="currentColor" stroke-width="27" />
               </g>
            </g>
            <g id="s10qy42u" class="systemMilestoneEnd m-726d7c97-869a-4976-b0ed-a9c7780f42b6" />
         </g>
         <g id="p1sdmt18" class="pageMilestoneEnd m-30b70f24-d313-490c-8497-f1e93da45b39" />
         <g id="p1mup2li" class="pageMilestoneEnd m-77b624bb-e822-4a0d-8e53-c33c455e56d3" />
         <g id="p1qbsdy8" class="pgHead autogenerated">
            <text font-size="0px">
               <tspan id="r1bm34rg" class="rend" x="10000" y="415" text-anchor="middle">
                  <title class="labelAttr">title</title>
                  <tspan id="r1knmazx" class="rend">
                     <tspan id="t11pcqio" class="text">
                        <tspan font-size="607px">17_rock_120_beat_4-4</tspan>
                     </tspan>
                  </tspan>
                  <tspan id="l1oks0k" class="lb" />
                  <tspan id="r1ie0ssn" class="rend">
                     <tspan id="t1k8v1u2" class="text" x="10000" y="805">
                        <tspan font-size="324px">17_rock_120_beat_4-4</tspan>
                     </tspan>
                  </tspan>
               </tspan>
            </text>
         </g>
         <g id="p1icbu67" class="pgFoot autogenerated">
            <g id="f13i5me" class="fig">
               <g class="svg" transform="translate(7750, 28099) scale(10.000000, 10.000000)">
                  <g>
                     <path fill="#00000" d="M 17.11278,49.26451 V 10.367554 h 12.696511 c 3.288815,7.336676 6.71267,14.610456 10.127281,21.888976 3.419998,-7.484684 6.255515,-14.204887 9.58887,-21.909915 2.436207,0.103726 4.316952,0.08453 6.484294,-0.05808 V 49.264423 H 50.274275 C 50.145222,38.35639 50.016136,27.448368 49.887066,16.540329 45.003488,27.315459 39.967448,38.433564 35.083854,49.208695 34.678996,49.343717 34.426583,49.135619 34.021726,49.270644 29.46588,39.330716 24.910049,29.390805 20.354201,19.450876 20.224341,29.388756 20.09461,39.326619 19.964815,49.264497 H 17.11278 Z M 36.754144,39.324695 C 32.721221,30.512695 28.6883,21.700679 24.655394,12.888662 22.530527,12.750737 22.656775,12.71031 20.714356,12.813974 v 0.966497 c 4.612938,9.99784 9.609439,20.748709 13.87298,30.081745 0.722248,-1.512523 1.444528,-3.025014 2.166808,-4.537521 z m 25.738417,9.939815 c 0,-12.965651 0,-25.931305 0,-38.896956 10.084388,0 20.168791,0 30.253178,0 0,0.960416 0,1.920849 0,2.881265 -6.482825,0 -12.965652,0 -19.448478,0 0,4.802097 0,9.604178 0,14.406277 5.52241,0 11.044819,0 16.567229,0 0,0.960415 0,1.920832 0,2.881248 -5.52241,0 -11.044819,0 -16.567229,0 0,5.282306 0,10.564611 0,15.846917 6.963035,0 13.926068,0 20.889103,0 0,0.960416 0,1.920832 0,2.881249 -10.564597,0 -21.129207,0 -31.693803,0 z m 4.321874,-2.160937 c 0,-11.765131 0,-23.530263 0,-35.295394 -0.720312,0 -1.440625,0 -2.160937,0 0,11.765131 0,23.530263 0,35.295394 0.720312,0 1.440625,0 2.160937,0 z m 32.41413,2.160937 c 0,-12.965651 0,-25.931305 0,-38.896956 2.401045,0 4.802095,0 7.203135,0 0,12.965651 0,25.931305 0,38.896956 -2.40104,0 -4.80209,0 -7.203135,0 z m 2.881265,-2.160937 c 0,-11.765131 0,-23.530263 0,-35.295394 -0.72031,0 -1.44064,0 -2.160953,0 0,11.765131 0,23.530263 0,35.295394 0.720313,0 1.440643,0 2.160953,0 z" />
                     <path fill="#00000" d="m 346.3,6.7 c -3.1,0.5 -4.9,4.4 -2.7,6.8 1.2,1.4 2.7,2.4 4.1,3.5 -2.4,5.3 -7.7,8.3 -11.9,12.1 -3.7,2.8 -7,6.2 -9.7,9.9 -2.2,-0.8 -0.3,-6.8 -0.6,-9.5 0.1,-3.1 0.7,-6.4 2.9,-8.7 1.3,-1.9 3,-3.5 4.5,-5.2 1.2,-3.4 -3.2,-4.9 -5.8,-4.6 -7.3,-0.5 -14.6,2 -20,6.8 -5,4.6 -10,10.1 -11.5,17 -0.9,3.5 -0.2,7.5 2.8,9.9 2.5,2.8 7.4,2.9 9.8,-0.2 1.7,-2.3 3.2,-4.8 3.8,-7.6 -0.1,-2.6 -4.4,-2.3 -4.3,0.2 1.2,2.4 -0.9,4.7 -2.7,6.2 -1.7,0.9 -4.7,0.7 -4.8,-1.7 -1,-5.8 2.1,-11.3 5.2,-16.1 4,-5.8 9.8,-11.2 17.2,-11.8 1.6,0 8.1,-1.2 6.8,1.4 -2.8,2.8 -5.6,6.1 -6,10.3 -1.6,7.7 0.1,15.7 -2.3,23.2 -1.1,3.9 2,2.6 2.5,0.2 3.3,-7.4 8.9,-13.4 15.1,-18.5 4.2,-3.9 9.5,-7.1 11.9,-12.6 1.3,-3.6 1.2,-9 -2.7,-10.9 -0.6,-0.2 -1.2,-0.3 -1.8,-0.3 z m 66,14.5 c -2,0.8 -1.8,4.9 0.8,4.4 3.4,0.4 2.9,-6.2 -0.8,-4.4 z m 0.6,7.3 c -1.3,0.5 -7.6,0.5 -5.4,2.2 4,-0.3 0.7,4.5 0.6,6.7 -0.4,2.9 -2.4,5.9 -1.2,8.8 2.7,1.7 5.6,-0.8 6.8,-3.2 1.6,-1.4 -0.5,-3 -1.2,-0.9 -0.4,0.8 -2.4,3.5 -2.6,1.8 1.1,-5 2.7,-9.9 3.9,-14.9 l -0.1,-0.5 h -0.9 z m -65.1,0.2 c -6.5,1.6 -10.5,9.5 -8.2,15.7 2.1,3.4 7.4,2.9 10.1,0.4 2,-0.2 3.6,-5.3 1,-3.4 -1.4,2 -4,4.2 -6.5,2.8 -2.2,-1.9 -1.9,-5.7 1.7,-5.3 3.1,-0.9 6.9,-2.1 8.1,-5.5 0.9,-2.7 -1.6,-5.2 -4.3,-4.8 h -1.1 -0.7 z m 13.6,0 c -2.2,0 -8.5,1.8 -2.9,2.3 0.9,1.9 -1,4.9 -1.1,7.2 -0.5,2.9 -1.4,5.7 -1.7,8.7 3.7,0.7 3.8,-2.6 4.4,-5.3 0.9,-3.3 1.6,-7 4.1,-9.5 2.4,1.6 6.8,-0.7 3.7,-3.4 -2.9,-0.5 -4.8,2.4 -6.2,4.3 0,-1.2 2.4,-5 -0.2,-4.3 z m 15.8,0 c -6.4,1.3 -9.6,9.1 -7.7,14.9 1.9,4 7.7,3.9 11,1.7 4.1,-3 6,-8.9 4.4,-13.7 -1.3,-3 -4.8,-3.2 -7.6,-3 z m 17,0 c -2.3,0 -8.8,1.9 -3,2.4 0.4,2.5 -1,5.7 -1.4,8.4 -0.7,2.4 -1.8,7.5 2.1,7.2 3.8,-0.1 6.5,-3.5 8.5,-6.3 2,-3.2 4.5,-7 3.3,-10.9 -3.7,-3 -3.6,2.6 -3.1,5.1 -0.7,3.8 -2.7,7.9 -6.2,9.8 -3.6,0.6 -1,-4.3 -0.8,-6.1 0.6,-3.2 1.6,-6.3 1.9,-9.5 -0.4,0 -0.8,0 -1.1,0 z m 30.6,0 c -6.3,1.2 -9.5,8.9 -7.8,14.7 1.5,4 7.2,4.2 10.5,2.4 4.6,-2.8 6.6,-9.3 4.8,-14.3 -1.4,-2.8 -4.8,-3 -7.5,-2.8 z m -75.4,1.7 c 2.1,1.5 0.2,4.7 -1.6,5.7 -1.1,0.4 -5.5,3.4 -4.6,0.7 0.8,-2.7 2.2,-6.2 5.3,-6.6 l 0.9,0.1 z m 30.8,0 c 2.6,1.5 1.3,5.2 0.8,7.6 -0.8,2.7 -1.9,5.9 -4.7,7.1 -5.1,0.8 -4,-5.8 -2.8,-8.8 1,-2.8 3,-6.8 6.7,-5.8 z m 47.1,-0.1 c 2.9,0.7 2,4.7 1.5,6.8 -0.7,3 -1.8,6.7 -5,8 -4.7,0.8 -4,-5.1 -3,-7.9 0.9,-3 2.7,-7.3 6.5,-6.8 z m -88.1,5.9 c -0.3,1.3 0.9,-0.6 0,0 z m -1.1,2.4 c -0.2,0.5 0.5,-0.1 0,0 z m -1.3,4.5 c -0.3,1.3 0.8,-0.2 0,0 z" />
                     <text y="41" x="201" fill="#00000" style="font-style:italic;font-weight:normal;font-size:30px;line-height:125%;font-family:Times;text-anchor:middle" xml:space="preserve">engraved with</text>
                  </g>
               </g>
            </g>
         </g>
      </g>
   </svg>
</svg>
