<?xml version="1.0" encoding="UTF-8" standalone="no"?>
<svg width="2100px" height="2970px" version="1.1" xmlns="http://www.w3.org/2000/svg" xmlns:xlink="http://www.w3.org/1999/xlink" xmlns:mei="http://www.music-encoding.org/ns/mei" overflow="visible">
   <desc>Engraved by Verovio 4.4.0-66ab39c</desc>
   <defs>
      <symbol id="E240-19uclrt" viewBox="0 0 1000 1000" overflow="inherit">
         <path transform="scale(1,-1)" d="M179 -646c15 29 29 55 46 102c18 49 30 108 30 138c0 105 -80 173 -168 200c-18 5 -47 9 -87 16v190h22c8 0 33 -61 71 -95c4 -3 -2 3 61 -56c62 -58 122 -137 122 -241c0 -38 -13 -106 -35 -163c-20 -51 -43 -99 -66 -132c-6 -5 -10 -7 -13 -7s-5 2 -5 5l4 10 c1 3 14 25 18 33z" />
      </symbol>
      <symbol id="E4E5-19uclrt" viewBox="0 0 1000 1000" overflow="inherit">
         <path transform="scale(1,-1)" d="M107 292c-13 24 -30 49 -52 71c-1 1 0 2 0 3l-2 2c3 3 4 4 6 4c12 0 26 -7 40 -20s44 -40 89 -81c26 -24 28 -29 46 -47c4 -4 8 -9 10 -14c6 -8 8 -16 8 -27c0 -19 -12 -40 -36 -61c-28 -23 -49 -38 -61 -73c-4 -11 -7 -27 -10 -50c13 -43 34 -83 59 -121 c31 -47 59 -79 101 -129c-8 0 -26 7 -54 20l-62 29l-21 6l-23 1c-25 0 -45 -10 -60 -30l-4 -14l-1 -12c0 -33 20 -56 39 -78c8 -9 17 -18 26 -26c17 -15 27 -24 28 -30l-3 -3c-11 5 -19 10 -25 15c-9 3 -37 21 -45 26c-24 14 -45 32 -63 51c-19 21 -37 44 -37 71 c0 63 27 95 80 95c41 0 86 -18 136 -52c-19 26 -37 48 -55 66c-23 23 -48 44 -73 65c-28 23 -47 40 -58 53s-17 26 -18 39c75 64 113 125 113 183c0 27 -7 48 -18 68z" />
      </symbol>
      <symbol id="E222-19uclrt" viewBox="0 0 1000 1000" overflow="inherit">
         <path transform="scale(1,-1)" d="M-163 -200l326 150v-100l-326 -150v100zM-163 150l326 150v-100l-326 -150v100zM-163 -25l326 150v-100l-326 -150v100z" />
      </symbol>
      <symbol id="E084-19uclrt" viewBox="0 0 1000 1000" overflow="inherit">
         <path transform="scale(1,-1)" d="M20 -78c84 97 114 180 134 329h170c-13 -32 -82 -132 -99 -151l-84 -97c-33 -36 -59 -63 -80 -81h162v102l127 123v-225h57v-39h-57v-34c0 -43 19 -65 57 -65v-34h-244v36c48 0 60 26 60 70v27h-203v39z" />
      </symbol>
      <symbol id="E0A4-19uclrt" viewBox="0 0 1000 1000" overflow="inherit">
         <path transform="scale(1,-1)" d="M0 -39c0 68 73 172 200 172c66 0 114 -37 114 -95c0 -84 -106 -171 -218 -171c-64 0 -96 30 -96 94z" />
      </symbol>
      <symbol id="E0A9-19uclrt" viewBox="0 0 1000 1000" overflow="inherit">
         <path transform="scale(1,-1)" d="M0 -110c0 4 1 8 5 11l119 99l-119 100c-3 3 -5 8 -5 12c0 6 5 13 12 13c3 0 6 -1 8 -2l124 -105l126 105c2 1 5 2 7 2c6 0 13 -6 13 -14c0 -4 -2 -9 -5 -11l-119 -100l119 -99c3 -3 5 -7 5 -12c0 -6 -5 -14 -13 -14c-2 0 -5 1 -7 3l-126 105l-124 -105c-2 -2 -4 -3 -7 -3 c-8 0 -13 7 -13 15z" />
      </symbol>
      <symbol id="E4E4-19uclrt" viewBox="0 0 1000 1000" overflow="inherit">
         <path transform="scale(1,-1)" d="M0 10v105c0 9 1 10 10 10h280c9 0 10 -1 10 -10v-105c0 -9 -1 -10 -10 -10h-280c-9 0 -10 1 -10 10z" />
      </symbol>
      <symbol id="E4E3-19uclrt" viewBox="0 0 1000 1000" overflow="inherit">
         <path transform="scale(1,-1)" d="M0 -115v105c0 9 1 10 10 10h280c9 0 10 -1 10 -10v-105c0 -9 -1 -10 -10 -10h-280c-9 0 -10 1 -10 10z" />
      </symbol>
      <symbol id="E069-19uclrt" viewBox="0 0 1000 1000" overflow="inherit">
         <path transform="scale(1,-1)" d="M200 250h125v-500h-125v500zM0 250h125v-500h-125v500z" />
      </symbol>
   </defs>
   <style type="text/css">g.page-margin{font-family:Times,serif;} g.ending, g.fing, g.reh, g.tempo{font-weight:bold;} g.dir, g.dynam, g.mNum{font-style:italic;} g.label{font-weight:normal;}</style>
   <svg class="definition-scale" color="black" viewBox="0 0 21000 29700">
      <g class="page-margin" transform="translate(500, 500)">
         <g id="m-b0fb583d-f184-4932-85e6-52fd77dfdb97" class="mdiv pageMilestone" />
         <g id="m-69871835-98dc-4111-af63-12cb315b920a" class="score pageMilestone" />
         <g id="s1y4bcdp" class="system">
            <g id="m-63454f85-870d-4a8b-937b-308f3c1a5cc5" class="section systemMilestone" />
            <g id="m-4997a8e4-f842-421c-a83b-663b51bd1efd" class="measure">
               <g id="m-34f5c4a4-aee8-4a15-a31d-6550b808986a" class="staff">
                  <path d="M0 1604 L5820 1604" stroke="currentColor" stroke-width="13" />
                  <path d="M0 1784 L5820 1784" stroke="currentColor" stroke-width="13" />
                  <path d="M0 1964 L5820 1964" stroke="currentColor" stroke-width="13" />
                  <path d="M0 2144 L5820 2144" stroke="currentColor" stroke-width="13" />
                  <path d="M0 2324 L5820 2324" stroke="currentColor" stroke-width="13" />
                  <g id="c1aeq2yi" class="clef">
                     <use xlink:href="#E069-19uclrt" x="90" y="1964" height="720px" width="720px" />
                  </g>
                  <g id="k8akk3e" class="keySig" />
                  <g id="m1hle8ll" class="meterSig">
                     <use xlink:href="#E084-19uclrt" x="490" y="1784" height="720px" width="720px" />
                     <use xlink:href="#E084-19uclrt" x="490" y="2144" height="720px" width="720px" />
                  </g>
                  <g id="m-714bbaf9-4945-44e6-a911-4ef991396563" class="layer">
                     <g id="m-c6654447-8803-44f4-9460-86374dc79b35" class="rest">
                        <use xlink:href="#E4E3-19uclrt" x="1219" y="1784" height="720px" width="720px" />
                        <g class="ledgerLines" />
                     </g>
                  </g>
                  <g id="m-7ec88559-c939-41a9-9778-5e490b6594a7" class="layer">
                     <g id="m-61e7e7ac-0f5c-4486-941f-c6dd71031257" class="note">
                        <g class="notehead">
                           <use xlink:href="#E0A4-19uclrt" x="1219" y="1964" height="720px" width="720px" />
                        </g>
                        <g id="s1g2jg0z" class="stem">
                           <path d="M1228 1992 L1228 2699" stroke="currentColor" stroke-width="18" />
                           <use xlink:href="#E222-19uclrt" x="1228" y="2450" height="720px" width="720px" />
                        </g>
                        <g id="a1wahnaz" class="accid" />
                     </g>
                     <g id="m-5bfa4134-e1d5-419e-9b47-8c2860ce7b8b" class="beam">
                        <polygon points="2048,2819 2606,2819 2606,2729 2048,2729" />
                        <g id="m-a0aaf3d1-6170-4f07-b175-6b1ce4685760" class="note">
                           <g class="notehead">
                              <use xlink:href="#E0A4-19uclrt" x="2048" y="1964" height="720px" width="720px" />
                           </g>
                           <g id="s1xewwt0" class="stem">
                              <path d="M2057 1992 L2057 2801" stroke="currentColor" stroke-width="18" />
                           </g>
                           <g id="aco51kn" class="accid" />
                        </g>
                        <g id="m-408097e5-40b0-4fb4-b339-41a3272f2692" class="note">
                           <g class="notehead">
                              <use xlink:href="#E0A4-19uclrt" x="2588" y="1964" height="720px" width="720px" />
                           </g>
                           <g id="s28ckbg" class="stem">
                              <path d="M2597 1992 L2597 2801" stroke="currentColor" stroke-width="18" />
                              <use xlink:href="#E222-19uclrt" x="2597" y="2450" height="720px" width="720px" />
                           </g>
                           <g id="ah0rxgk" class="accid" />
                        </g>
                     </g>
                     <g id="m-3dbf09e2-9734-4fb9-97c8-7c785c1ed853" class="beam">
                        <polygon points="3129,2549 3968,2549 3968,2459 3129,2459" />
                        <g id="m-3ec4e95e-f5c1-44f5-96e9-621393ddc081" class="note">
                           <g class="notehead">
                              <use xlink:href="#E0A4-19uclrt" x="3129" y="1964" height="720px" width="720px" />
                           </g>
                           <g id="s18zwb2" class="stem">
                              <path d="M3138 1992 L3138 2531" stroke="currentColor" stroke-width="18" />
                           </g>
                           <g id="an67apz" class="accid" />
                        </g>
                        <g id="m-eb934b7e-8e50-4e81-b0b0-a20bb5a93d96" class="note">
                           <g class="notehead">
                              <use xlink:href="#E0A4-19uclrt" x="3583" y="1964" height="540px" width="540px" />
                           </g>
                           <g id="s1anegnl" class="stem">
                              <path d="M3743 1943 L3743 1514" stroke="currentColor" stroke-width="18" />
                              <g id="f1v1rpr0" class="flag">
                                 <use xlink:href="#E240-19uclrt" x="3734" y="1514" height="540px" width="540px" />
                              </g>
                           </g>
                           <g id="a1xqbxs8" class="accid" />
                        </g>
                        <g id="m-be788941-d1e4-47c9-a52d-c377f5db1410" class="note">
                           <g class="notehead">
                              <use xlink:href="#E0A4-19uclrt" x="3950" y="1964" height="720px" width="720px" />
                           </g>
                           <g id="sgipzmv" class="stem">
                              <path d="M3959 1992 L3959 2531" stroke="currentColor" stroke-width="18" />
                           </g>
                           <g id="a3a4qqt" class="accid" />
                        </g>
                     </g>
                     <g id="m-091badd6-be63-4c82-b436-be6555b76641" class="beam">
                        <polygon points="4490,2549 5429,2549 5429,2459 4490,2459" />
                        <polygon points="5040,2414 5429,2414 5429,2324 5040,2324" />
                        <g id="m-2aafbe9c-105f-4005-b9aa-a0c1d702fc60" class="note">
                           <g class="notehead">
                              <use xlink:href="#E0A4-19uclrt" x="4490" y="1964" height="720px" width="720px" />
                           </g>
                           <g id="s1ewa36v" class="stem">
                              <path d="M4499 1992 L4499 2531" stroke="currentColor" stroke-width="18" />
                           </g>
                           <g id="azldaiq" class="accid" />
                        </g>
                        <g id="m-4bd78195-d9e7-418a-965f-46e60bc33853" class="note">
                           <g class="notehead">
                              <use xlink:href="#E0A4-19uclrt" x="5031" y="1964" height="720px" width="720px" />
                           </g>
                           <g id="s18s5ntz" class="stem">
                              <path d="M5040 1992 L5040 2531" stroke="currentColor" stroke-width="18" />
                           </g>
                           <g id="ao2kq8k" class="accid" />
                        </g>
                        <g id="m-74a56c48-da6b-45db-b9ed-a166c68c1c5d" class="note">
                           <g class="notehead">
                              <use xlink:href="#E0A4-19uclrt" x="5411" y="1964" height="720px" width="720px" />
                           </g>
                           <g id="s62cf8k" class="stem">
                              <path d="M5420 1992 L5420 2531" stroke="currentColor" stroke-width="18" />
                           </g>
                           <g id="a1kvmf9x" class="accid" />
                        </g>
                     </g>
                  </g>
               </g>
               <g id="b1y70zw7" class="barLine">
                  <path d="M5807 1604 L5807 2324" stroke="currentColor" stroke-width="27" />
               </g>
            </g>
            <g id="m-6bf3a3b0-09c6-4364-bddc-2b7f39d2c2ef" class="measure">
               <g id="m-b638cada-23ae-4b7c-b4d0-1b1a0bb2e739" class="staff">
                  <path d="M5820 1604 L10768 1604" stroke="currentColor" stroke-width="13" />
                  <path d="M5820 1784 L10768 1784" stroke="currentColor" stroke-width="13" />
                  <path d="M5820 1964 L10768 1964" stroke="currentColor" stroke-width="13" />
                  <path d="M5820 2144 L10768 2144" stroke="currentColor" stroke-width="13" />
                  <path d="M5820 2324 L10768 2324" stroke="currentColor" stroke-width="13" />
                  <g id="m-a587ee91-4d16-48fc-9efa-82355811bf8e" class="layer">
                     <g id="m-085bb50a-08dd-4830-a206-2a491c91fe9b" class="rest">
                        <use xlink:href="#E4E3-19uclrt" x="6167" y="1784" height="720px" width="720px" />
                        <g class="ledgerLines" />
                     </g>
                  </g>
                  <g id="m-8f1c3539-cd9e-4d3a-b786-129ae7ba9fdb" class="layer">
                     <g id="m-9cf46ccb-1cf6-4c86-9d63-3fabe1f60c31" class="note">
                        <g class="notehead">
                           <use xlink:href="#E0A4-19uclrt" x="6167" y="1964" height="720px" width="720px" />
                        </g>
                        <g id="s1j433y9" class="stem">
                           <path d="M6176 1992 L6176 2699" stroke="currentColor" stroke-width="18" />
                           <use xlink:href="#E222-19uclrt" x="6176" y="2450" height="720px" width="720px" />
                        </g>
                        <g id="at9tdp4" class="accid" />
                     </g>
                     <g id="m-83c3229b-6ab1-4363-a1fc-ce1863a7cd7d" class="beam">
                        <polygon points="6996,2819 7554,2819 7554,2729 6996,2729" />
                        <g id="m-70e32af0-0462-4b77-a7f3-00853c0dd77d" class="note">
                           <g class="notehead">
                              <use xlink:href="#E0A4-19uclrt" x="6996" y="1964" height="720px" width="720px" />
                           </g>
                           <g id="s1plyp6y" class="stem">
                              <path d="M7005 1992 L7005 2801" stroke="currentColor" stroke-width="18" />
                           </g>
                           <g id="a1cte6mo" class="accid" />
                        </g>
                        <g id="m-3d18c739-54a7-494f-8055-3c0c7e06d996" class="note">
                           <g class="notehead">
                              <use xlink:href="#E0A4-19uclrt" x="7536" y="1964" height="720px" width="720px" />
                           </g>
                           <g id="sc7wgbn" class="stem">
                              <path d="M7545 1992 L7545 2801" stroke="currentColor" stroke-width="18" />
                              <use xlink:href="#E222-19uclrt" x="7545" y="2450" height="720px" width="720px" />
                           </g>
                           <g id="aivtpjk" class="accid" />
                        </g>
                     </g>
                     <g id="m-ceff823c-6d9c-450b-a272-b02f42546a25" class="beam">
                        <polygon points="8077,2549 8916,2549 8916,2459 8077,2459" />
                        <g id="m-750f94c0-8d92-4d95-8ad5-14b7246de32b" class="note">
                           <g class="notehead">
                              <use xlink:href="#E0A4-19uclrt" x="8077" y="1964" height="720px" width="720px" />
                           </g>
                           <g id="s9z8htq" class="stem">
                              <path d="M8086 1992 L8086 2531" stroke="currentColor" stroke-width="18" />
                           </g>
                           <g id="a1pt6wjs" class="accid" />
                        </g>
                        <g id="m-07a30f05-cfaa-4ba9-8135-a5f75c7974e4" class="note">
                           <g class="notehead">
                              <use xlink:href="#E0A4-19uclrt" x="8531" y="1964" height="540px" width="540px" />
                           </g>
                           <g id="sjzu5se" class="stem">
                              <path d="M8691 1943 L8691 1514" stroke="currentColor" stroke-width="18" />
                              <g id="fm0oxdo" class="flag">
                                 <use xlink:href="#E240-19uclrt" x="8682" y="1514" height="540px" width="540px" />
                              </g>
                           </g>
                           <g id="a1mwsj1v" class="accid" />
                        </g>
                        <g id="m-ca400f35-b881-4786-bae5-d324b1a9ffa3" class="note">
                           <g class="notehead">
                              <use xlink:href="#E0A4-19uclrt" x="8898" y="1964" height="720px" width="720px" />
                           </g>
                           <g id="se84a91" class="stem">
                              <path d="M8907 1992 L8907 2531" stroke="currentColor" stroke-width="18" />
                           </g>
                           <g id="asktztz" class="accid" />
                        </g>
                     </g>
                     <g id="m-c8563584-4046-4a43-8af0-736ec39170a0" class="beam">
                        <polygon points="9438,2549 10377,2549 10377,2459 9438,2459" />
                        <polygon points="9988,2414 10377,2414 10377,2324 9988,2324" />
                        <g id="m-1bdb9841-37bd-446e-b2c1-31a42d5a8317" class="note">
                           <g class="notehead">
                              <use xlink:href="#E0A4-19uclrt" x="9438" y="1964" height="720px" width="720px" />
                           </g>
                           <g id="s1nwnvm2" class="stem">
                              <path d="M9447 1992 L9447 2531" stroke="currentColor" stroke-width="18" />
                           </g>
                           <g id="a1vwpar3" class="accid" />
                        </g>
                        <g id="m-70c7c8c5-7722-4a8e-a04e-96b840d8868f" class="note">
                           <g class="notehead">
                              <use xlink:href="#E0A4-19uclrt" x="9979" y="1964" height="720px" width="720px" />
                           </g>
                           <g id="s1vyhakp" class="stem">
                              <path d="M9988 1992 L9988 2531" stroke="currentColor" stroke-width="18" />
                           </g>
                           <g id="a1w7zqbb" class="accid" />
                        </g>
                        <g id="m-4b978078-3394-4fbe-a52c-a40d44d477c9" class="note">
                           <g class="notehead">
                              <use xlink:href="#E0A4-19uclrt" x="10359" y="1964" height="720px" width="720px" />
                           </g>
                           <g id="spn7ouc" class="stem">
                              <path d="M10368 1992 L10368 2531" stroke="currentColor" stroke-width="18" />
                           </g>
                           <g id="a1a7d7j8" class="accid" />
                        </g>
                     </g>
                  </g>
               </g>
               <g id="bmszxqx" class="barLine">
                  <path d="M10755 1604 L10755 2324" stroke="currentColor" stroke-width="27" />
               </g>
            </g>
            <g id="m-a1fd7fba-22d1-4e14-8b04-31bdfb6eaf01" class="measure">
               <g id="m-e61cb893-eb8b-43d1-883b-f890318e1bb8" class="staff">
                  <path d="M10768 1604 L15699 1604" stroke="currentColor" stroke-width="13" />
                  <path d="M10768 1784 L15699 1784" stroke="currentColor" stroke-width="13" />
                  <path d="M10768 1964 L15699 1964" stroke="currentColor" stroke-width="13" />
                  <path d="M10768 2144 L15699 2144" stroke="currentColor" stroke-width="13" />
                  <path d="M10768 2324 L15699 2324" stroke="currentColor" stroke-width="13" />
                  <g id="m-9b10a96f-a56f-482b-b359-e134262b57b7" class="layer">
                     <g id="m-de7069c1-ab4d-436d-8eae-faae12f4bdcf" class="rest">
                        <use xlink:href="#E4E3-19uclrt" x="11115" y="1784" height="720px" width="720px" />
                        <g class="ledgerLines" />
                     </g>
                  </g>
                  <g id="m-4d3f0866-6b68-4b7b-8702-7a428aeb4e67" class="layer">
                     <g id="m-701157d5-2cca-4cc2-bf84-f5c901557d26" class="note">
                        <g class="notehead">
                           <use xlink:href="#E0A4-19uclrt" x="11115" y="1964" height="720px" width="720px" />
                        </g>
                        <g id="s1dqwj4g" class="stem">
                           <path d="M11124 1992 L11124 2699" stroke="currentColor" stroke-width="18" />
                           <use xlink:href="#E222-19uclrt" x="11124" y="2450" height="720px" width="720px" />
                        </g>
                        <g id="a6cuewk" class="accid" />
                     </g>
                     <g id="m-59fed448-179b-4827-a12f-a7478e5ff8ae" class="beam">
                        <polygon points="11944,2549 12721,2549 12721,2459 11944,2459" />
                        <polygon points="11944,2414 12332,2414 12332,2324 11944,2324" />
                        <g id="m-7b7c8a45-f408-4e81-a7bb-bcaa0f4375c3" class="note">
                           <g class="notehead">
                              <use xlink:href="#E0A4-19uclrt" x="11944" y="1964" height="720px" width="720px" />
                           </g>
                           <g id="svq7o7i" class="stem">
                              <path d="M11953 1992 L11953 2531" stroke="currentColor" stroke-width="18" />
                           </g>
                           <g id="acuwq3o" class="accid" />
                        </g>
                        <g id="m-7054aad1-8e03-4672-bd38-e6d06620b84a" class="note">
                           <g class="notehead">
                              <use xlink:href="#E0A4-19uclrt" x="12323" y="1964" height="720px" width="720px" />
                           </g>
                           <g id="s1an8h7b" class="stem">
                              <path d="M12332 1992 L12332 2531" stroke="currentColor" stroke-width="18" />
                           </g>
                           <g id="a1lwo9te" class="accid" />
                        </g>
                        <g id="m-23465063-16f8-4391-9b67-b4f2aea26af9" class="note">
                           <g class="notehead">
                              <use xlink:href="#E0A4-19uclrt" x="12703" y="1964" height="720px" width="720px" />
                           </g>
                           <g id="s1j0550a" class="stem">
                              <path d="M12712 1992 L12712 2531" stroke="currentColor" stroke-width="18" />
                           </g>
                           <g id="a1jn89v4" class="accid" />
                        </g>
                     </g>
                     <g id="m-2e286191-de3f-44f7-af49-b93fa30e5717" class="beam">
                        <polygon points="13244,2549 14082,2549 14082,2459 13244,2459" />
                        <g id="m-b1675f27-0ae2-46ca-8ad6-db6fdc9b53ce" class="note">
                           <g class="notehead">
                              <use xlink:href="#E0A4-19uclrt" x="13244" y="1964" height="720px" width="720px" />
                           </g>
                           <g id="s1btei3g" class="stem">
                              <path d="M13253 1992 L13253 2531" stroke="currentColor" stroke-width="18" />
                           </g>
                           <g id="a1phcupt" class="accid" />
                        </g>
                        <g id="m-4054b6fc-a5b6-49df-95ea-97d7a48246a5" class="note">
                           <g class="notehead">
                              <use xlink:href="#E0A4-19uclrt" x="13697" y="1964" height="540px" width="540px" />
                           </g>
                           <g id="sb6ra2j" class="stem">
                              <path d="M13857 1943 L13857 1514" stroke="currentColor" stroke-width="18" />
                              <g id="fhgiknm" class="flag">
                                 <use xlink:href="#E240-19uclrt" x="13848" y="1514" height="540px" width="540px" />
                              </g>
                           </g>
                           <g id="a44kufe" class="accid" />
                        </g>
                        <g id="m-223e8bea-b9e0-47aa-80b2-36b0370ff3b8" class="note">
                           <g class="notehead">
                              <use xlink:href="#E0A4-19uclrt" x="14064" y="1964" height="720px" width="720px" />
                           </g>
                           <g id="s1lx4d9n" class="stem">
                              <path d="M14073 1992 L14073 2531" stroke="currentColor" stroke-width="18" />
                           </g>
                           <g id="a1ot2vkd" class="accid" />
                        </g>
                     </g>
                     <g id="m-e8111664-0610-4eb8-b6be-2836bf2f3de6" class="beam">
                        <polygon points="14605,2549 15164,2549 15164,2459 14605,2459" />
                        <g id="m-4e457675-233e-4603-98bb-14702447d7d3" class="note">
                           <g class="notehead">
                              <use xlink:href="#E0A4-19uclrt" x="14605" y="1964" height="720px" width="720px" />
                           </g>
                           <g id="s1wmkrp" class="stem">
                              <path d="M14614 1992 L14614 2531" stroke="currentColor" stroke-width="18" />
                           </g>
                           <g id="a1ht128d" class="accid" />
                        </g>
                        <g id="m-4aa72bde-f89d-4fe6-8165-ba1a78718b4c" class="note">
                           <g class="notehead">
                              <use xlink:href="#E0A4-19uclrt" x="15146" y="1964" height="720px" width="720px" />
                           </g>
                           <g id="s87gdce" class="stem">
                              <path d="M15155 1992 L15155 2531" stroke="currentColor" stroke-width="18" />
                           </g>
                           <g id="a1irk16p" class="accid" />
                        </g>
                     </g>
                  </g>
               </g>
               <g id="bys57vh" class="barLine">
                  <path d="M15686 1604 L15686 2324" stroke="currentColor" stroke-width="27" />
               </g>
            </g>
            <g id="m-a44940e3-7701-48fc-8bdc-d3b7da7ce561" class="measure">
               <g id="m-4c961090-3a67-433c-b7c0-03aded7bd6ca" class="staff">
                  <path d="M15699 1604 L20002 1604" stroke="currentColor" stroke-width="13" />
                  <path d="M15699 1784 L20002 1784" stroke="currentColor" stroke-width="13" />
                  <path d="M15699 1964 L20002 1964" stroke="currentColor" stroke-width="13" />
                  <path d="M15699 2144 L20002 2144" stroke="currentColor" stroke-width="13" />
                  <path d="M15699 2324 L20002 2324" stroke="currentColor" stroke-width="13" />
                  <g id="m-7d374156-f1af-49f2-920f-08f19901bcc5" class="layer">
                     <g id="m-00e1194f-e24e-48d4-9417-daa9274bd513" class="rest">
                        <use xlink:href="#E4E4-19uclrt" x="15916" y="1424" height="720px" width="720px" />
                        <g class="ledgerLines">
                           <path d="M15868 1424 L16180 1424" stroke="currentColor" stroke-width="22" />
                        </g>
                     </g>
                     <g id="m-4458ca80-a82c-45fd-a172-da340bcd2f84" class="rest">
                        <use xlink:href="#E4E5-19uclrt" x="18078" y="1424" height="720px" width="720px" />
                     </g>
                     <g id="m-f291bdc6-67ce-44bf-b4ba-d12503ee10a9" class="note">
                        <g class="notehead">
                           <use xlink:href="#E0A9-19uclrt" x="19160" y="1514" height="720px" width="720px" />
                        </g>
                        <g id="s1es0ory" class="stem">
                           <path d="M19359 1435 L19359 1064" stroke="currentColor" stroke-width="18" />
                        </g>
                     </g>
                  </g>
                  <g id="m-9280ffb5-f2c3-4aa3-ba88-501b25247512" class="layer">
                     <g id="m-c2ca5e77-5fd0-4ce2-8a43-8ae2eb83bda7" class="beam">
                        <polygon points="15916,2819 16474,2819 16474,2729 15916,2729" />
                        <g id="m-683a46a3-1e8d-42e8-9844-a9e9456699a8" class="note">
                           <g class="notehead">
                              <use xlink:href="#E0A4-19uclrt" x="15916" y="1964" height="720px" width="720px" />
                           </g>
                           <g id="st6prv9" class="stem">
                              <path d="M15925 1992 L15925 2801" stroke="currentColor" stroke-width="18" />
                           </g>
                           <g id="a3grdlr" class="accid" />
                        </g>
                        <g id="m-76deb587-f1c9-4276-8c3d-0fb4b918eaaf" class="note">
                           <g class="notehead">
                              <use xlink:href="#E0A4-19uclrt" x="16456" y="1964" height="720px" width="720px" />
                           </g>
                           <g id="s1mpaf1f" class="stem">
                              <path d="M16465 1992 L16465 2801" stroke="currentColor" stroke-width="18" />
                              <use xlink:href="#E222-19uclrt" x="16465" y="2450" height="720px" width="720px" />
                           </g>
                           <g id="avb0yi2" class="accid" />
                        </g>
                     </g>
                     <g id="m-bb99d875-b675-4262-ad34-3e650d993ffd" class="beam">
                        <polygon points="16997,2549 17556,2549 17556,2459 16997,2459" />
                        <g id="m-ab428d77-604d-4a88-a9bd-647760f87704" class="note">
                           <g class="notehead">
                              <use xlink:href="#E0A4-19uclrt" x="16997" y="1964" height="720px" width="720px" />
                           </g>
                           <g id="scl1r27" class="stem">
                              <path d="M17006 1992 L17006 2531" stroke="currentColor" stroke-width="18" />
                           </g>
                           <g id="a4wyugx" class="accid" />
                        </g>
                        <g id="m-874fcad5-888c-429b-82b3-5627c4be5b0a" class="note">
                           <g class="notehead">
                              <use xlink:href="#E0A4-19uclrt" x="17538" y="1964" height="720px" width="720px" />
                           </g>
                           <g id="s1u0sr2x" class="stem">
                              <path d="M17547 1992 L17547 2531" stroke="currentColor" stroke-width="18" />
                           </g>
                           <g id="a1ldxtog" class="accid" />
                        </g>
                     </g>
                     <g id="m-aac94af0-0318-4a48-b504-343aab89c290" class="beam">
                        <polygon points="18078,2819 18637,2819 18637,2729 18078,2729" />
                        <g id="m-a08e5c98-12d2-48df-8d98-dd7c401d1c78" class="note">
                           <g class="notehead">
                              <use xlink:href="#E0A4-19uclrt" x="18078" y="1964" height="720px" width="720px" />
                           </g>
                           <g id="scqitv0" class="stem">
                              <path d="M18087 1992 L18087 2801" stroke="currentColor" stroke-width="18" />
                              <use xlink:href="#E222-19uclrt" x="18087" y="2450" height="720px" width="720px" />
                           </g>
                           <g id="ajbmim9" class="accid" />
                        </g>
                        <g id="m-6c3b159c-5e16-4081-b2c9-480464594ccb" class="note">
                           <g class="notehead">
                              <use xlink:href="#E0A4-19uclrt" x="18619" y="1964" height="720px" width="720px" />
                           </g>
                           <g id="s15et2w3" class="stem">
                              <path d="M18628 1992 L18628 2801" stroke="currentColor" stroke-width="18" />
                           </g>
                           <g id="a11ez09y" class="accid" />
                        </g>
                     </g>
                     <g id="m-1b358150-7db7-4769-a102-7f01d04a5da9" class="chord">
                        <g id="so108ls" class="stem">
                           <path d="M19169 1992 L19169 2864" stroke="currentColor" stroke-width="18" />
                        </g>
                        <g id="m-571a5096-13f1-4942-96ad-948c726222d0" class="note">
                           <g class="notehead">
                              <use xlink:href="#E0A4-19uclrt" x="19160" y="2414" height="720px" width="720px" />
                           </g>
                        </g>
                        <g id="m-7d73b8d4-02f4-4a5e-9200-0f751422454f" class="note">
                           <g class="notehead">
                              <use xlink:href="#E0A4-19uclrt" x="19160" y="1964" height="720px" width="720px" />
                           </g>
                           <g id="a126ka7h" class="accid" />
                        </g>
                     </g>
                  </g>
               </g>
               <g id="b1q51xs2" class="barLine">
                  <path d="M19989 1604 L19989 2324" stroke="currentColor" stroke-width="27" />
               </g>
            </g>
            <g id="s1kskwr0" class="systemMilestoneEnd m-63454f85-870d-4a8b-937b-308f3c1a5cc5" />
         </g>
         <g id="pqmukkt" class="pageMilestoneEnd m-69871835-98dc-4111-af63-12cb315b920a" />
         <g id="p1p2hnor" class="pageMilestoneEnd m-b0fb583d-f184-4932-85e6-52fd77dfdb97" />
         <g id="pwv0oc3" class="pgHead autogenerated">
            <text font-size="0px">
               <tspan id="rhe6pt6" class="rend" x="10000" y="415" text-anchor="middle">
                  <title class="labelAttr">title</title>
                  <tspan id="rwdsg7s" class="rend">
                     <tspan id="t1pu4kbt" class="text">
                        <tspan font-size="607px">39_jazz_120_beat_4-4</tspan>
                     </tspan>
                  </tspan>
                  <tspan id="l5oz9cm" class="lb" />
                  <tspan id="rzffy0y" class="rend">
                     <tspan id="tlx4zrb" class="text" x="10000" y="805">
                        <tspan font-size="324px">39_jazz_120_beat_4-4</tspan>
                     </tspan>
                  </tspan>
               </tspan>
            </text>
         </g>
         <g id="pc97xhb" class="pgFoot autogenerated">
            <g id="f1h2v6os" class="fig">
               <g class="svg" transform="translate(7750, 28099) scale(10.000000, 10.000000)">
                  <g>
                     <path fill="#00000" d="M 17.11278,49.26451 V 10.367554 h 12.696511 c 3.288815,7.336676 6.71267,14.610456 10.127281,21.888976 3.419998,-7.484684 6.255515,-14.204887 9.58887,-21.909915 2.436207,0.103726 4.316952,0.08453 6.484294,-0.05808 V 49.264423 H 50.274275 C 50.145222,38.35639 50.016136,27.448368 49.887066,16.540329 45.003488,27.315459 39.967448,38.433564 35.083854,49.208695 34.678996,49.343717 34.426583,49.135619 34.021726,49.270644 29.46588,39.330716 24.910049,29.390805 20.354201,19.450876 20.224341,29.388756 20.09461,39.326619 19.964815,49.264497 H 17.11278 Z M 36.754144,39.324695 C 32.721221,30.512695 28.6883,21.700679 24.655394,12.888662 22.530527,12.750737 22.656775,12.71031 20.714356,12.813974 v 0.966497 c 4.612938,9.99784 9.609439,20.748709 13.87298,30.081745 0.722248,-1.512523 1.444528,-3.025014 2.166808,-4.537521 z m 25.738417,9.939815 c 0,-12.965651 0,-25.931305 0,-38.896956 10.084388,0 20.168791,0 30.253178,0 0,0.960416 0,1.920849 0,2.881265 -6.482825,0 -12.965652,0 -19.448478,0 0,4.802097 0,9.604178 0,14.406277 5.52241,0 11.044819,0 16.567229,0 0,0.960415 0,1.920832 0,2.881248 -5.52241,0 -11.044819,0 -16.567229,0 0,5.282306 0,10.564611 0,15.846917 6.963035,0 13.926068,0 20.889103,0 0,0.960416 0,1.920832 0,2.881249 -10.564597,0 -21.129207,0 -31.693803,0 z m 4.321874,-2.160937 c 0,-11.765131 0,-23.530263 0,-35.295394 -0.720312,0 -1.440625,0 -2.160937,0 0,11.765131 0,23.530263 0,35.295394 0.720312,0 1.440625,0 2.160937,0 z m 32.41413,2.160937 c 0,-12.965651 0,-25.931305 0,-38.896956 2.401045,0 4.802095,0 7.203135,0 0,12.965651 0,25.931305 0,38.896956 -2.40104,0 -4.80209,0 -7.203135,0 z m 2.881265,-2.160937 c 0,-11.765131 0,-23.530263 0,-35.295394 -0.72031,0 -1.44064,0 -2.160953,0 0,11.765131 0,23.530263 0,35.295394 0.720313,0 1.440643,0 2.160953,0 z" />
                     <path fill="#00000" d="m 346.3,6.7 c -3.1,0.5 -4.9,4.4 -2.7,6.8 1.2,1.4 2.7,2.4 4.1,3.5 -2.4,5.3 -7.7,8.3 -11.9,12.1 -3.7,2.8 -7,6.2 -9.7,9.9 -2.2,-0.8 -0.3,-6.8 -0.6,-9.5 0.1,-3.1 0.7,-6.4 2.9,-8.7 1.3,-1.9 3,-3.5 4.5,-5.2 1.2,-3.4 -3.2,-4.9 -5.8,-4.6 -7.3,-0.5 -14.6,2 -20,6.8 -5,4.6 -10,10.1 -11.5,17 -0.9,3.5 -0.2,7.5 2.8,9.9 2.5,2.8 7.4,2.9 9.8,-0.2 1.7,-2.3 3.2,-4.8 3.8,-7.6 -0.1,-2.6 -4.4,-2.3 -4.3,0.2 1.2,2.4 -0.9,4.7 -2.7,6.2 -1.7,0.9 -4.7,0.7 -4.8,-1.7 -1,-5.8 2.1,-11.3 5.2,-16.1 4,-5.8 9.8,-11.2 17.2,-11.8 1.6,0 8.1,-1.2 6.8,1.4 -2.8,2.8 -5.6,6.1 -6,10.3 -1.6,7.7 0.1,15.7 -2.3,23.2 -1.1,3.9 2,2.6 2.5,0.2 3.3,-7.4 8.9,-13.4 15.1,-18.5 4.2,-3.9 9.5,-7.1 11.9,-12.6 1.3,-3.6 1.2,-9 -2.7,-10.9 -0.6,-0.2 -1.2,-0.3 -1.8,-0.3 z m 66,14.5 c -2,0.8 -1.8,4.9 0.8,4.4 3.4,0.4 2.9,-6.2 -0.8,-4.4 z m 0.6,7.3 c -1.3,0.5 -7.6,0.5 -5.4,2.2 4,-0.3 0.7,4.5 0.6,6.7 -0.4,2.9 -2.4,5.9 -1.2,8.8 2.7,1.7 5.6,-0.8 6.8,-3.2 1.6,-1.4 -0.5,-3 -1.2,-0.9 -0.4,0.8 -2.4,3.5 -2.6,1.8 1.1,-5 2.7,-9.9 3.9,-14.9 l -0.1,-0.5 h -0.9 z m -65.1,0.2 c -6.5,1.6 -10.5,9.5 -8.2,15.7 2.1,3.4 7.4,2.9 10.1,0.4 2,-0.2 3.6,-5.3 1,-3.4 -1.4,2 -4,4.2 -6.5,2.8 -2.2,-1.9 -1.9,-5.7 1.7,-5.3 3.1,-0.9 6.9,-2.1 8.1,-5.5 0.9,-2.7 -1.6,-5.2 -4.3,-4.8 h -1.1 -0.7 z m 13.6,0 c -2.2,0 -8.5,1.8 -2.9,2.3 0.9,1.9 -1,4.9 -1.1,7.2 -0.5,2.9 -1.4,5.7 -1.7,8.7 3.7,0.7 3.8,-2.6 4.4,-5.3 0.9,-3.3 1.6,-7 4.1,-9.5 2.4,1.6 6.8,-0.7 3.7,-3.4 -2.9,-0.5 -4.8,2.4 -6.2,4.3 0,-1.2 2.4,-5 -0.2,-4.3 z m 15.8,0 c -6.4,1.3 -9.6,9.1 -7.7,14.9 1.9,4 7.7,3.9 11,1.7 4.1,-3 6,-8.9 4.4,-13.7 -1.3,-3 -4.8,-3.2 -7.6,-3 z m 17,0 c -2.3,0 -8.8,1.9 -3,2.4 0.4,2.5 -1,5.7 -1.4,8.4 -0.7,2.4 -1.8,7.5 2.1,7.2 3.8,-0.1 6.5,-3.5 8.5,-6.3 2,-3.2 4.5,-7 3.3,-10.9 -3.7,-3 -3.6,2.6 -3.1,5.1 -0.7,3.8 -2.7,7.9 -6.2,9.8 -3.6,0.6 -1,-4.3 -0.8,-6.1 0.6,-3.2 1.6,-6.3 1.9,-9.5 -0.4,0 -0.8,0 -1.1,0 z m 30.6,0 c -6.3,1.2 -9.5,8.9 -7.8,14.7 1.5,4 7.2,4.2 10.5,2.4 4.6,-2.8 6.6,-9.3 4.8,-14.3 -1.4,-2.8 -4.8,-3 -7.5,-2.8 z m -75.4,1.7 c 2.1,1.5 0.2,4.7 -1.6,5.7 -1.1,0.4 -5.5,3.4 -4.6,0.7 0.8,-2.7 2.2,-6.2 5.3,-6.6 l 0.9,0.1 z m 30.8,0 c 2.6,1.5 1.3,5.2 0.8,7.6 -0.8,2.7 -1.9,5.9 -4.7,7.1 -5.1,0.8 -4,-5.8 -2.8,-8.8 1,-2.8 3,-6.8 6.7,-5.8 z m 47.1,-0.1 c 2.9,0.7 2,4.7 1.5,6.8 -0.7,3 -1.8,6.7 -5,8 -4.7,0.8 -4,-5.1 -3,-7.9 0.9,-3 2.7,-7.3 6.5,-6.8 z m -88.1,5.9 c -0.3,1.3 0.9,-0.6 0,0 z m -1.1,2.4 c -0.2,0.5 0.5,-0.1 0,0 z m -1.3,4.5 c -0.3,1.3 0.8,-0.2 0,0 z" />
                     <text y="41" x="201" fill="#00000" style="font-style:italic;font-weight:normal;font-size:30px;line-height:125%;font-family:Times;text-anchor:middle" xml:space="preserve">engraved with</text>
                  </g>
               </g>
            </g>
         </g>
      </g>
   </svg>
</svg>
