<?xml version="1.0" encoding="UTF-8" standalone="no"?>
<svg width="2100px" height="2970px" version="1.1" xmlns="http://www.w3.org/2000/svg" xmlns:xlink="http://www.w3.org/1999/xlink" xmlns:mei="http://www.music-encoding.org/ns/mei" overflow="visible">
   <desc>Engraved by Verovio 4.4.0-66ab39c</desc>
   <defs>
      <symbol id="E222-1u26dt9" viewBox="0 0 1000 1000" overflow="inherit">
         <path transform="scale(1,-1)" d="M-163 -200l326 150v-100l-326 -150v100zM-163 150l326 150v-100l-326 -150v100zM-163 -25l326 150v-100l-326 -150v100z" />
      </symbol>
      <symbol id="E084-1u26dt9" viewBox="0 0 1000 1000" overflow="inherit">
         <path transform="scale(1,-1)" d="M20 -78c84 97 114 180 134 329h170c-13 -32 -82 -132 -99 -151l-84 -97c-33 -36 -59 -63 -80 -81h162v102l127 123v-225h57v-39h-57v-34c0 -43 19 -65 57 -65v-34h-244v36c48 0 60 26 60 70v27h-203v39z" />
      </symbol>
      <symbol id="E0A4-1u26dt9" viewBox="0 0 1000 1000" overflow="inherit">
         <path transform="scale(1,-1)" d="M0 -39c0 68 73 172 200 172c66 0 114 -37 114 -95c0 -84 -106 -171 -218 -171c-64 0 -96 30 -96 94z" />
      </symbol>
      <symbol id="E0A9-1u26dt9" viewBox="0 0 1000 1000" overflow="inherit">
         <path transform="scale(1,-1)" d="M0 -110c0 4 1 8 5 11l119 99l-119 100c-3 3 -5 8 -5 12c0 6 5 13 12 13c3 0 6 -1 8 -2l124 -105l126 105c2 1 5 2 7 2c6 0 13 -6 13 -14c0 -4 -2 -9 -5 -11l-119 -100l119 -99c3 -3 5 -7 5 -12c0 -6 -5 -14 -13 -14c-2 0 -5 1 -7 3l-126 105l-124 -105c-2 -2 -4 -3 -7 -3 c-8 0 -13 7 -13 15z" />
      </symbol>
      <symbol id="E0B5-1u26dt9" viewBox="0 0 1000 1000" overflow="inherit">
         <path transform="scale(1,-1)" d="M293 -21c0 14 -3 29 -8 44c-3 8 -6 15 -10 22l-55 -45l68 -55c3 11 5 22 5 34zM198 133c102 0 207 -45 207 -133c0 -92 -98 -133 -207 -133c-101 0 -198 46 -198 133c0 88 93 133 198 133zM141 -64c5 -8 12 -15 19 -21c15 -15 36 -23 62 -23c4 0 10 1 18 2 c17 4 29 13 37 25l-79 64zM260 68c-2 3 -5 6 -8 9c-20 21 -43 31 -68 31l-20 -2c-15 -5 -27 -14 -36 -28c0 -1 -1 -1 -1 -2l71 -58zM119 48c-1 -6 -2 -13 -2 -21c0 -15 3 -34 9 -57l3 -9l49 39z" />
      </symbol>
      <symbol id="E069-1u26dt9" viewBox="0 0 1000 1000" overflow="inherit">
         <path transform="scale(1,-1)" d="M200 250h125v-500h-125v500zM0 250h125v-500h-125v500z" />
      </symbol>
   </defs>
   <style type="text/css">g.page-margin{font-family:Times,serif;} g.ending, g.fing, g.reh, g.tempo{font-weight:bold;} g.dir, g.dynam, g.mNum{font-style:italic;} g.label{font-weight:normal;}</style>
   <svg class="definition-scale" color="black" viewBox="0 0 21000 29700">
      <g class="page-margin" transform="translate(500, 500)">
         <g id="m-7111b2f5-e51f-488f-b51e-d72c803bcdec" class="mdiv pageMilestone" />
         <g id="m-711c4705-9905-49d4-a9dd-68be61668300" class="score pageMilestone" />
         <g id="s4pn209" class="system">
            <g id="m-5e3df00b-e98f-493e-b1d6-c8fd065923a7" class="section systemMilestone" />
            <g id="m-414df95a-69a4-4860-863e-6483a88a4369" class="measure">
               <g id="m-e88e7a69-bf0d-4f99-a81d-f32ed8009db3" class="staff">
                  <path d="M0 1604 L4671 1604" stroke="currentColor" stroke-width="13" />
                  <path d="M0 1784 L4671 1784" stroke="currentColor" stroke-width="13" />
                  <path d="M0 1964 L4671 1964" stroke="currentColor" stroke-width="13" />
                  <path d="M0 2144 L4671 2144" stroke="currentColor" stroke-width="13" />
                  <path d="M0 2324 L4671 2324" stroke="currentColor" stroke-width="13" />
                  <g id="c15xemkl" class="clef">
                     <use xlink:href="#E069-1u26dt9" x="90" y="1964" height="720px" width="720px" />
                  </g>
                  <g id="k1caunvu" class="keySig" />
                  <g id="mdgnxvt" class="meterSig">
                     <use xlink:href="#E084-1u26dt9" x="490" y="1784" height="720px" width="720px" />
                     <use xlink:href="#E084-1u26dt9" x="490" y="2144" height="720px" width="720px" />
                  </g>
                  <g id="m-2ed73fb3-d56f-418b-b907-5d36fc010314" class="layer">
                     <g id="m-04a67ceb-ebb0-4b26-9a73-ae7356bfdf9f" class="note">
                        <g class="notehead">
                           <use xlink:href="#E0A9-1u26dt9" x="1052" y="1514" height="720px" width="720px" />
                        </g>
                        <g id="s1b8i33p" class="stem">
                           <path d="M1251 1435 L1251 1064" stroke="currentColor" stroke-width="18" />
                        </g>
                     </g>
                     <g id="m-66e97e18-ba3f-4ea1-940d-b1efcc2f01b6" class="note">
                        <g class="notehead">
                           <use xlink:href="#E0A9-1u26dt9" x="1952" y="1514" height="720px" width="720px" />
                        </g>
                        <g id="s182ysg4" class="stem">
                           <path d="M2151 1435 L2151 1064" stroke="currentColor" stroke-width="18" />
                        </g>
                     </g>
                     <g id="m-e1175d23-280f-40f9-9769-606c519a2b18" class="note">
                        <g class="notehead">
                           <use xlink:href="#E0A9-1u26dt9" x="2848" y="1514" height="720px" width="720px" />
                        </g>
                        <g id="s50m0d9" class="stem">
                           <path d="M3047 1435 L3047 1064" stroke="currentColor" stroke-width="18" />
                        </g>
                     </g>
                     <g id="m-068520df-3f5e-4f11-a246-28584823931d" class="note">
                        <g class="notehead">
                           <use xlink:href="#E0A9-1u26dt9" x="3748" y="1514" height="720px" width="720px" />
                        </g>
                        <g id="seijfih" class="stem">
                           <path d="M3947 1435 L3947 1064" stroke="currentColor" stroke-width="18" />
                        </g>
                     </g>
                  </g>
                  <g id="m-7e96e006-7bec-4d2b-acf4-c29a56ca13bf" class="layer">
                     <g id="m-d274791d-216a-4e66-b4ee-fc2a3ff1b0b4" class="beam">
                        <polygon points="1052,2909 1520,2864 1520,2774 1052,2819" />
                        <g id="m-5ff8d09e-b1a4-4566-aaa8-e8d959e8965a" class="note">
                           <g class="notehead">
                              <use xlink:href="#E0A4-1u26dt9" x="1052" y="2414" height="720px" width="720px" />
                           </g>
                           <g id="s1ur457l" class="stem">
                              <path d="M1061 2442 L1061 2891" stroke="currentColor" stroke-width="18" />
                           </g>
                        </g>
                        <g id="m-6aefa98d-beaf-4d52-91c3-a05c3de22eb9" class="note">
                           <g class="notehead">
                              <use xlink:href="#E0A4-1u26dt9" x="1502" y="1964" height="720px" width="720px" />
                           </g>
                           <g id="s181ve73" class="stem">
                              <path d="M1511 1992 L1511 2846" stroke="currentColor" stroke-width="18" />
                           </g>
                           <g id="a1d6g4zz" class="accid" />
                        </g>
                     </g>
                     <g id="m-908cb9b5-7422-4e63-86a2-d9e7277069ea" class="beam">
                        <polygon points="1952,2864 2550,2684 2550,2594 1952,2774" />
                        <polygon points="2324,2614 2550,2549 2550,2459 2324,2524" />
                        <g id="m-fe48e6ed-720a-4ec6-acab-4caf484977a9" class="note">
                           <g class="notehead">
                              <use xlink:href="#E0A4-1u26dt9" x="1952" y="2414" height="720px" width="720px" />
                           </g>
                           <g id="d1d2psb7" class="dots">
                              <ellipse cx="2268" cy="2414" rx="36" ry="36" />
                           </g>
                           <g id="so102jm" class="stem">
                              <path d="M1961 2442 L1961 2846" stroke="currentColor" stroke-width="18" />
                           </g>
                        </g>
                        <g id="m-17fbc020-83da-4982-8cb3-fc1adb11e1ef" class="note">
                           <g class="notehead">
                              <use xlink:href="#E0A4-1u26dt9" x="2532" y="1964" height="720px" width="720px" />
                           </g>
                           <g id="s10ejr09" class="stem">
                              <path d="M2541 1992 L2541 2666" stroke="currentColor" stroke-width="18" />
                           </g>
                           <g id="aspfbin" class="accid" />
                        </g>
                     </g>
                     <g id="m-585924b3-6deb-4ba5-8d54-0a786ecd53f1" class="beam">
                        <polygon points="2848,2909 3316,2864 3316,2774 2848,2819" />
                        <g id="m-55104fe2-7918-4f5a-90da-067db6c9ee65" class="note">
                           <g class="notehead">
                              <use xlink:href="#E0A4-1u26dt9" x="2848" y="2414" height="720px" width="720px" />
                           </g>
                           <g id="s307908" class="stem">
                              <path d="M2857 2442 L2857 2891" stroke="currentColor" stroke-width="18" />
                           </g>
                        </g>
                        <g id="m-1a450953-a02a-4fc9-89aa-dc9d78324755" class="note">
                           <g class="notehead">
                              <use xlink:href="#E0A4-1u26dt9" x="3298" y="1964" height="720px" width="720px" />
                           </g>
                           <g id="s1oscl8x" class="stem">
                              <path d="M3307 1992 L3307 2846" stroke="currentColor" stroke-width="18" />
                           </g>
                           <g id="a15t18aw" class="accid" />
                        </g>
                     </g>
                     <g id="m-ecc19eb3-fd41-4960-8881-309e5fa4661e" class="beam">
                        <polygon points="3748,2864 4346,2684 4346,2594 3748,2774" />
                        <polygon points="4120,2614 4346,2549 4346,2459 4120,2524" />
                        <g id="m-82fa8e59-6ac5-43ae-8522-e1457ec22b98" class="note">
                           <g class="notehead">
                              <use xlink:href="#E0A4-1u26dt9" x="3748" y="2414" height="720px" width="720px" />
                           </g>
                           <g id="d8ziw3s" class="dots">
                              <ellipse cx="4064" cy="2414" rx="36" ry="36" />
                           </g>
                           <g id="s26izqm" class="stem">
                              <path d="M3757 2442 L3757 2846" stroke="currentColor" stroke-width="18" />
                           </g>
                        </g>
                        <g id="m-b320ff41-88ef-40f0-9980-ddc4828893a3" class="note">
                           <g class="notehead">
                              <use xlink:href="#E0A4-1u26dt9" x="4328" y="1964" height="720px" width="720px" />
                           </g>
                           <g id="s1czji0h" class="stem">
                              <path d="M4337 1992 L4337 2666" stroke="currentColor" stroke-width="18" />
                           </g>
                           <g id="aoau4xw" class="accid" />
                        </g>
                     </g>
                  </g>
               </g>
               <g id="bkome44" class="barLine">
                  <path d="M4658 1604 L4658 2324" stroke="currentColor" stroke-width="27" />
               </g>
            </g>
            <g id="m-38714a63-0609-4a17-bc2d-46e9925c58ef" class="measure">
               <g id="m-078a91bf-8857-4e8a-8b1a-ba829897877c" class="staff">
                  <path d="M4671 1604 L8226 1604" stroke="currentColor" stroke-width="13" />
                  <path d="M4671 1784 L8226 1784" stroke="currentColor" stroke-width="13" />
                  <path d="M4671 1964 L8226 1964" stroke="currentColor" stroke-width="13" />
                  <path d="M4671 2144 L8226 2144" stroke="currentColor" stroke-width="13" />
                  <path d="M4671 2324 L8226 2324" stroke="currentColor" stroke-width="13" />
                  <g id="m-841f11ff-4908-4d77-b1c5-9448a9a9df06" class="layer">
                     <g id="m-84697f63-edbb-4614-9daf-4721f70d3cac" class="note">
                        <g class="notehead">
                           <use xlink:href="#E0B5-1u26dt9" x="4851" y="1514" height="720px" width="720px" />
                        </g>
                     </g>
                  </g>
                  <g id="m-c14a7fbd-af7b-4e07-ab8d-e79f2e79709d" class="layer">
                     <g id="m-8e01ac00-39b6-4e3a-a415-c65e2fc2b039" class="note">
                        <g class="notehead">
                           <use xlink:href="#E0A4-1u26dt9" x="4851" y="2414" height="720px" width="720px" />
                        </g>
                        <g id="s122deig" class="stem">
                           <path d="M4860 2442 L4860 2864" stroke="currentColor" stroke-width="18" />
                        </g>
                     </g>
                     <g id="m-55518e97-fa9d-4afa-b05b-cb80579956cc" class="beam">
                        <polygon points="5541,2819 6009,2819 6009,2729 5541,2729" />
                        <g id="m-38ce5092-b219-49da-a731-809505045f04" class="note">
                           <g class="notehead">
                              <use xlink:href="#E0A4-1u26dt9" x="5541" y="1964" height="720px" width="720px" />
                           </g>
                           <g id="sgqv24j" class="stem">
                              <path d="M5550 1992 L5550 2801" stroke="currentColor" stroke-width="18" />
                           </g>
                           <g id="afsbwr6" class="accid" />
                        </g>
                        <g id="m-21aee0c4-691e-47c7-a224-a7af2460c308" class="note">
                           <g class="notehead">
                              <use xlink:href="#E0A4-1u26dt9" x="5991" y="1964" height="720px" width="720px" />
                           </g>
                           <g id="s1rekl2t" class="stem">
                              <path d="M6000 1992 L6000 2801" stroke="currentColor" stroke-width="18" />
                              <use xlink:href="#E222-1u26dt9" x="6000" y="2450" height="720px" width="720px" />
                           </g>
                           <g id="ap3mcsm" class="accid" />
                        </g>
                     </g>
                     <g id="m-d06aa85d-2852-4a7d-872e-f0d06c17a4ba" class="beam">
                        <polygon points="6441,2549 7091,2549 7091,2459 6441,2459" />
                        <polygon points="6441,2414 6766,2414 6766,2324 6441,2324" />
                        <g id="m-46678a8a-4a99-475a-8071-33800680a5bc" class="note">
                           <g class="notehead">
                              <use xlink:href="#E0A4-1u26dt9" x="6441" y="1964" height="720px" width="720px" />
                           </g>
                           <g id="s1vcu7yy" class="stem">
                              <path d="M6450 1992 L6450 2531" stroke="currentColor" stroke-width="18" />
                           </g>
                           <g id="a1h6okwn" class="accid" />
                        </g>
                        <g id="m-0acb4f9d-04ce-4e2a-8896-53dedf55e796" class="note">
                           <g class="notehead">
                              <use xlink:href="#E0A4-1u26dt9" x="6757" y="1964" height="720px" width="720px" />
                           </g>
                           <g id="s6oxowx" class="stem">
                              <path d="M6766 1992 L6766 2531" stroke="currentColor" stroke-width="18" />
                           </g>
                           <g id="a540ywz" class="accid" />
                        </g>
                        <g id="m-a4ef5004-f95d-4871-90e2-a7cc2b1a3e90" class="note">
                           <g class="notehead">
                              <use xlink:href="#E0A4-1u26dt9" x="7073" y="1694" height="720px" width="720px" />
                           </g>
                           <g id="s9gqqam" class="stem">
                              <path d="M7082 1722 L7082 2531" stroke="currentColor" stroke-width="18" />
                           </g>
                           <g id="a1g8tf4q" class="accid" />
                        </g>
                     </g>
                     <g id="m-19554f08-2b48-47b2-b9e6-a2b43e26ed50" class="note">
                        <g class="notehead">
                           <use xlink:href="#E0A4-1u26dt9" x="7523" y="1784" height="720px" width="720px" />
                        </g>
                        <g id="s18n9u0d" class="stem">
                           <path d="M7532 1812 L7532 2414" stroke="currentColor" stroke-width="18" />
                        </g>
                     </g>
                  </g>
               </g>
               <g id="bi0dhmb" class="barLine">
                  <path d="M8213 1604 L8213 2324" stroke="currentColor" stroke-width="27" />
               </g>
            </g>
            <g id="sx11r80" class="systemMilestoneEnd m-5e3df00b-e98f-493e-b1d6-c8fd065923a7" />
         </g>
         <g id="p19j2f" class="pageMilestoneEnd m-711c4705-9905-49d4-a9dd-68be61668300" />
         <g id="p1hh37kp" class="pageMilestoneEnd m-7111b2f5-e51f-488f-b51e-d72c803bcdec" />
         <g id="pniv0gi" class="pgHead autogenerated">
            <text font-size="0px">
               <tspan id="r31m3ec" class="rend" x="10000" y="415" text-anchor="middle">
                  <title class="labelAttr">title</title>
                  <tspan id="r7bwnhq" class="rend">
                     <tspan id="t10l1d2w" class="text">
                        <tspan font-size="607px">49_rock_120_beat_4-4</tspan>
                     </tspan>
                  </tspan>
                  <tspan id="l10s4gfo" class="lb" />
                  <tspan id="r56dvt8" class="rend">
                     <tspan id="t5ixs0c" class="text" x="10000" y="805">
                        <tspan font-size="324px">49_rock_120_beat_4-4</tspan>
                     </tspan>
                  </tspan>
               </tspan>
            </text>
         </g>
         <g id="padudcr" class="pgFoot autogenerated">
            <g id="f19go25v" class="fig">
               <g class="svg" transform="translate(7750, 28099) scale(10.000000, 10.000000)">
                  <g>
                     <path fill="#00000" d="M 17.11278,49.26451 V 10.367554 h 12.696511 c 3.288815,7.336676 6.71267,14.610456 10.127281,21.888976 3.419998,-7.484684 6.255515,-14.204887 9.58887,-21.909915 2.436207,0.103726 4.316952,0.08453 6.484294,-0.05808 V 49.264423 H 50.274275 C 50.145222,38.35639 50.016136,27.448368 49.887066,16.540329 45.003488,27.315459 39.967448,38.433564 35.083854,49.208695 34.678996,49.343717 34.426583,49.135619 34.021726,49.270644 29.46588,39.330716 24.910049,29.390805 20.354201,19.450876 20.224341,29.388756 20.09461,39.326619 19.964815,49.264497 H 17.11278 Z M 36.754144,39.324695 C 32.721221,30.512695 28.6883,21.700679 24.655394,12.888662 22.530527,12.750737 22.656775,12.71031 20.714356,12.813974 v 0.966497 c 4.612938,9.99784 9.609439,20.748709 13.87298,30.081745 0.722248,-1.512523 1.444528,-3.025014 2.166808,-4.537521 z m 25.738417,9.939815 c 0,-12.965651 0,-25.931305 0,-38.896956 10.084388,0 20.168791,0 30.253178,0 0,0.960416 0,1.920849 0,2.881265 -6.482825,0 -12.965652,0 -19.448478,0 0,4.802097 0,9.604178 0,14.406277 5.52241,0 11.044819,0 16.567229,0 0,0.960415 0,1.920832 0,2.881248 -5.52241,0 -11.044819,0 -16.567229,0 0,5.282306 0,10.564611 0,15.846917 6.963035,0 13.926068,0 20.889103,0 0,0.960416 0,1.920832 0,2.881249 -10.564597,0 -21.129207,0 -31.693803,0 z m 4.321874,-2.160937 c 0,-11.765131 0,-23.530263 0,-35.295394 -0.720312,0 -1.440625,0 -2.160937,0 0,11.765131 0,23.530263 0,35.295394 0.720312,0 1.440625,0 2.160937,0 z m 32.41413,2.160937 c 0,-12.965651 0,-25.931305 0,-38.896956 2.401045,0 4.802095,0 7.203135,0 0,12.965651 0,25.931305 0,38.896956 -2.40104,0 -4.80209,0 -7.203135,0 z m 2.881265,-2.160937 c 0,-11.765131 0,-23.530263 0,-35.295394 -0.72031,0 -1.44064,0 -2.160953,0 0,11.765131 0,23.530263 0,35.295394 0.720313,0 1.440643,0 2.160953,0 z" />
                     <path fill="#00000" d="m 346.3,6.7 c -3.1,0.5 -4.9,4.4 -2.7,6.8 1.2,1.4 2.7,2.4 4.1,3.5 -2.4,5.3 -7.7,8.3 -11.9,12.1 -3.7,2.8 -7,6.2 -9.7,9.9 -2.2,-0.8 -0.3,-6.8 -0.6,-9.5 0.1,-3.1 0.7,-6.4 2.9,-8.7 1.3,-1.9 3,-3.5 4.5,-5.2 1.2,-3.4 -3.2,-4.9 -5.8,-4.6 -7.3,-0.5 -14.6,2 -20,6.8 -5,4.6 -10,10.1 -11.5,17 -0.9,3.5 -0.2,7.5 2.8,9.9 2.5,2.8 7.4,2.9 9.8,-0.2 1.7,-2.3 3.2,-4.8 3.8,-7.6 -0.1,-2.6 -4.4,-2.3 -4.3,0.2 1.2,2.4 -0.9,4.7 -2.7,6.2 -1.7,0.9 -4.7,0.7 -4.8,-1.7 -1,-5.8 2.1,-11.3 5.2,-16.1 4,-5.8 9.8,-11.2 17.2,-11.8 1.6,0 8.1,-1.2 6.8,1.4 -2.8,2.8 -5.6,6.1 -6,10.3 -1.6,7.7 0.1,15.7 -2.3,23.2 -1.1,3.9 2,2.6 2.5,0.2 3.3,-7.4 8.9,-13.4 15.1,-18.5 4.2,-3.9 9.5,-7.1 11.9,-12.6 1.3,-3.6 1.2,-9 -2.7,-10.9 -0.6,-0.2 -1.2,-0.3 -1.8,-0.3 z m 66,14.5 c -2,0.8 -1.8,4.9 0.8,4.4 3.4,0.4 2.9,-6.2 -0.8,-4.4 z m 0.6,7.3 c -1.3,0.5 -7.6,0.5 -5.4,2.2 4,-0.3 0.7,4.5 0.6,6.7 -0.4,2.9 -2.4,5.9 -1.2,8.8 2.7,1.7 5.6,-0.8 6.8,-3.2 1.6,-1.4 -0.5,-3 -1.2,-0.9 -0.4,0.8 -2.4,3.5 -2.6,1.8 1.1,-5 2.7,-9.9 3.9,-14.9 l -0.1,-0.5 h -0.9 z m -65.1,0.2 c -6.5,1.6 -10.5,9.5 -8.2,15.7 2.1,3.4 7.4,2.9 10.1,0.4 2,-0.2 3.6,-5.3 1,-3.4 -1.4,2 -4,4.2 -6.5,2.8 -2.2,-1.9 -1.9,-5.7 1.7,-5.3 3.1,-0.9 6.9,-2.1 8.1,-5.5 0.9,-2.7 -1.6,-5.2 -4.3,-4.8 h -1.1 -0.7 z m 13.6,0 c -2.2,0 -8.5,1.8 -2.9,2.3 0.9,1.9 -1,4.9 -1.1,7.2 -0.5,2.9 -1.4,5.7 -1.7,8.7 3.7,0.7 3.8,-2.6 4.4,-5.3 0.9,-3.3 1.6,-7 4.1,-9.5 2.4,1.6 6.8,-0.7 3.7,-3.4 -2.9,-0.5 -4.8,2.4 -6.2,4.3 0,-1.2 2.4,-5 -0.2,-4.3 z m 15.8,0 c -6.4,1.3 -9.6,9.1 -7.7,14.9 1.9,4 7.7,3.9 11,1.7 4.1,-3 6,-8.9 4.4,-13.7 -1.3,-3 -4.8,-3.2 -7.6,-3 z m 17,0 c -2.3,0 -8.8,1.9 -3,2.4 0.4,2.5 -1,5.7 -1.4,8.4 -0.7,2.4 -1.8,7.5 2.1,7.2 3.8,-0.1 6.5,-3.5 8.5,-6.3 2,-3.2 4.5,-7 3.3,-10.9 -3.7,-3 -3.6,2.6 -3.1,5.1 -0.7,3.8 -2.7,7.9 -6.2,9.8 -3.6,0.6 -1,-4.3 -0.8,-6.1 0.6,-3.2 1.6,-6.3 1.9,-9.5 -0.4,0 -0.8,0 -1.1,0 z m 30.6,0 c -6.3,1.2 -9.5,8.9 -7.8,14.7 1.5,4 7.2,4.2 10.5,2.4 4.6,-2.8 6.6,-9.3 4.8,-14.3 -1.4,-2.8 -4.8,-3 -7.5,-2.8 z m -75.4,1.7 c 2.1,1.5 0.2,4.7 -1.6,5.7 -1.1,0.4 -5.5,3.4 -4.6,0.7 0.8,-2.7 2.2,-6.2 5.3,-6.6 l 0.9,0.1 z m 30.8,0 c 2.6,1.5 1.3,5.2 0.8,7.6 -0.8,2.7 -1.9,5.9 -4.7,7.1 -5.1,0.8 -4,-5.8 -2.8,-8.8 1,-2.8 3,-6.8 6.7,-5.8 z m 47.1,-0.1 c 2.9,0.7 2,4.7 1.5,6.8 -0.7,3 -1.8,6.7 -5,8 -4.7,0.8 -4,-5.1 -3,-7.9 0.9,-3 2.7,-7.3 6.5,-6.8 z m -88.1,5.9 c -0.3,1.3 0.9,-0.6 0,0 z m -1.1,2.4 c -0.2,0.5 0.5,-0.1 0,0 z m -1.3,4.5 c -0.3,1.3 0.8,-0.2 0,0 z" />
                     <text y="41" x="201" fill="#00000" style="font-style:italic;font-weight:normal;font-size:30px;line-height:125%;font-family:Times;text-anchor:middle" xml:space="preserve">engraved with</text>
                  </g>
               </g>
            </g>
         </g>
      </g>
   </svg>
</svg>
