<?xml version="1.0" encoding="UTF-8" standalone="no"?>
<svg width="2100px" height="2970px" version="1.1" xmlns="http://www.w3.org/2000/svg" xmlns:xlink="http://www.w3.org/1999/xlink" xmlns:mei="http://www.music-encoding.org/ns/mei" overflow="visible">
   <desc>Engraved by Verovio 4.4.0-66ab39c</desc>
   <defs>
      <symbol id="E084-5xexap" viewBox="0 0 1000 1000" overflow="inherit">
         <path transform="scale(1,-1)" d="M20 -78c84 97 114 180 134 329h170c-13 -32 -82 -132 -99 -151l-84 -97c-33 -36 -59 -63 -80 -81h162v102l127 123v-225h57v-39h-57v-34c0 -43 19 -65 57 -65v-34h-244v36c48 0 60 26 60 70v27h-203v39z" />
      </symbol>
      <symbol id="E0A4-5xexap" viewBox="0 0 1000 1000" overflow="inherit">
         <path transform="scale(1,-1)" d="M0 -39c0 68 73 172 200 172c66 0 114 -37 114 -95c0 -84 -106 -171 -218 -171c-64 0 -96 30 -96 94z" />
      </symbol>
      <symbol id="E240-5xexap" viewBox="0 0 1000 1000" overflow="inherit">
         <path transform="scale(1,-1)" d="M179 -646c15 29 29 55 46 102c18 49 30 108 30 138c0 105 -80 173 -168 200c-18 5 -47 9 -87 16v190h22c8 0 33 -61 71 -95c4 -3 -2 3 61 -56c62 -58 122 -137 122 -241c0 -38 -13 -106 -35 -163c-20 -51 -43 -99 -66 -132c-6 -5 -10 -7 -13 -7s-5 2 -5 5l4 10 c1 3 14 25 18 33z" />
      </symbol>
      <symbol id="E241-5xexap" viewBox="0 0 1000 1000" overflow="inherit">
         <path transform="scale(1,-1)" d="M179 646c-4 8 -17 30 -18 33l-4 10c0 3 2 5 5 5s7 -2 13 -7c23 -33 46 -81 66 -132c22 -57 35 -125 35 -163c0 -104 -60 -183 -122 -241c-63 -59 -57 -53 -61 -56c-38 -34 -63 -95 -71 -95h-22v190c40 7 69 11 87 16c88 27 168 95 168 200c0 30 -12 89 -30 138 c-17 47 -31 73 -46 102z" />
      </symbol>
      <symbol id="E4E5-5xexap" viewBox="0 0 1000 1000" overflow="inherit">
         <path transform="scale(1,-1)" d="M107 292c-13 24 -30 49 -52 71c-1 1 0 2 0 3l-2 2c3 3 4 4 6 4c12 0 26 -7 40 -20s44 -40 89 -81c26 -24 28 -29 46 -47c4 -4 8 -9 10 -14c6 -8 8 -16 8 -27c0 -19 -12 -40 -36 -61c-28 -23 -49 -38 -61 -73c-4 -11 -7 -27 -10 -50c13 -43 34 -83 59 -121 c31 -47 59 -79 101 -129c-8 0 -26 7 -54 20l-62 29l-21 6l-23 1c-25 0 -45 -10 -60 -30l-4 -14l-1 -12c0 -33 20 -56 39 -78c8 -9 17 -18 26 -26c17 -15 27 -24 28 -30l-3 -3c-11 5 -19 10 -25 15c-9 3 -37 21 -45 26c-24 14 -45 32 -63 51c-19 21 -37 44 -37 71 c0 63 27 95 80 95c41 0 86 -18 136 -52c-19 26 -37 48 -55 66c-23 23 -48 44 -73 65c-28 23 -47 40 -58 53s-17 26 -18 39c75 64 113 125 113 183c0 27 -7 48 -18 68z" />
      </symbol>
      <symbol id="E4E6-5xexap" viewBox="0 0 1000 1000" overflow="inherit">
         <path transform="scale(1,-1)" d="M0 123c7 34 33 56 69 60c29 -3 43 -9 53 -29c4 -8 7 -15 10 -22c0 -21 -1 -25 -11 -35c-5 -8 -18 -14 -40 -20l12 -3l15 -1c44 0 97 26 122 56c10 11 18 26 24 42c7 1 15 2 22 3l-140 -424h-36l111 330c-10 -6 -27 -12 -53 -16l-52 -8h-10l-20 1c-1 0 -8 3 -21 6 c-37 9 -55 28 -55 60z" />
      </symbol>
      <symbol id="E0A9-5xexap" viewBox="0 0 1000 1000" overflow="inherit">
         <path transform="scale(1,-1)" d="M0 -110c0 4 1 8 5 11l119 99l-119 100c-3 3 -5 8 -5 12c0 6 5 13 12 13c3 0 6 -1 8 -2l124 -105l126 105c2 1 5 2 7 2c6 0 13 -6 13 -14c0 -4 -2 -9 -5 -11l-119 -100l119 -99c3 -3 5 -7 5 -12c0 -6 -5 -14 -13 -14c-2 0 -5 1 -7 3l-126 105l-124 -105c-2 -2 -4 -3 -7 -3 c-8 0 -13 7 -13 15z" />
      </symbol>
      <symbol id="E069-5xexap" viewBox="0 0 1000 1000" overflow="inherit">
         <path transform="scale(1,-1)" d="M200 250h125v-500h-125v500zM0 250h125v-500h-125v500z" />
      </symbol>
   </defs>
   <style type="text/css">g.page-margin{font-family:Times,serif;} g.ending, g.fing, g.reh, g.tempo{font-weight:bold;} g.dir, g.dynam, g.mNum{font-style:italic;} g.label{font-weight:normal;}</style>
   <svg class="definition-scale" color="black" viewBox="0 0 21000 29700">
      <g class="page-margin" transform="translate(500, 500)">
         <g id="m-e0d953d4-0d56-46a3-96a1-c43a3dfa9785" class="mdiv pageMilestone" />
         <g id="m-61872a98-1b0b-4f73-80da-ddb050bff163" class="score pageMilestone" />
         <g id="s1u7s757" class="system">
            <g id="m-44c4d1a2-84f4-41d5-ac2c-a8c7eb8f498e" class="section systemMilestone" />
            <g id="m-617bfa52-7e47-45c3-a2f1-fb858c1542c3" class="measure">
               <g id="m-3113ea70-2e6c-4e34-8687-5fcd86c718bc" class="staff">
                  <path d="M0 1664 L4693 1664" stroke="currentColor" stroke-width="13" />
                  <path d="M0 1844 L4693 1844" stroke="currentColor" stroke-width="13" />
                  <path d="M0 2024 L4693 2024" stroke="currentColor" stroke-width="13" />
                  <path d="M0 2204 L4693 2204" stroke="currentColor" stroke-width="13" />
                  <path d="M0 2384 L4693 2384" stroke="currentColor" stroke-width="13" />
                  <g id="ciez9tv" class="clef">
                     <use xlink:href="#E069-5xexap" x="90" y="2024" height="720px" width="720px" />
                  </g>
                  <g id="k3lj68u" class="keySig" />
                  <g id="mvb7mfk" class="meterSig">
                     <use xlink:href="#E084-5xexap" x="490" y="1844" height="720px" width="720px" />
                     <use xlink:href="#E084-5xexap" x="490" y="2204" height="720px" width="720px" />
                  </g>
                  <g id="m-d33e4444-9100-4767-80de-7950231461ff" class="layer">
                     <g id="m-9d93766e-c113-4a19-8ca5-318e71c8f3b3" class="rest">
                        <use xlink:href="#E4E6-5xexap" x="1052" y="1484" height="720px" width="720px" />
                     </g>
                     <g id="m-63284cf8-7990-43d7-a9be-e0289133ddac" class="note">
                        <g class="notehead">
                           <use xlink:href="#E0A9-5xexap" x="1502" y="1574" height="720px" width="720px" />
                        </g>
                        <g id="s1iq3qvx" class="stem">
                           <path d="M1701 1495 L1701 1064" stroke="currentColor" stroke-width="18" />
                           <g id="fod1cpp" class="flag">
                              <use xlink:href="#E240-5xexap" x="1692" y="1064" height="720px" width="720px" />
                           </g>
                        </g>
                     </g>
                     <g id="m-2c689aa6-6c28-43ef-bd2d-96be8e29ecb3" class="beam">
                        <polygon points="2170,1124 2638,1124 2638,1214 2170,1214" />
                        <g id="m-0a8cdb77-100c-4057-b88b-9870fd4b4f4a" class="note">
                           <g class="notehead">
                              <use xlink:href="#E0A9-5xexap" x="1980" y="1574" height="720px" width="720px" />
                           </g>
                           <g id="s1d7eks" class="stem">
                              <path d="M2179 1495 L2179 1142" stroke="currentColor" stroke-width="18" />
                           </g>
                        </g>
                        <g id="m-a3916a70-5c8f-4b13-8926-f6d5cf644d6a" class="note">
                           <g class="notehead">
                              <use xlink:href="#E0A9-5xexap" x="2430" y="1574" height="720px" width="720px" />
                           </g>
                           <g id="smwg9vr" class="stem">
                              <path d="M2629 1495 L2629 1142" stroke="currentColor" stroke-width="18" />
                           </g>
                        </g>
                     </g>
                     <g id="m-e24c7c4e-03e5-47bd-ae60-4ace37c0de21" class="beam">
                        <polygon points="3070,1124 3538,1124 3538,1214 3070,1214" />
                        <g id="m-41bfe87c-f5b7-4d1c-985b-57672c433843" class="note">
                           <g class="notehead">
                              <use xlink:href="#E0A9-5xexap" x="2880" y="1574" height="720px" width="720px" />
                           </g>
                           <g id="s1hqr6xl" class="stem">
                              <path d="M3079 1495 L3079 1142" stroke="currentColor" stroke-width="18" />
                           </g>
                        </g>
                        <g id="m-34e9622d-364b-4159-9780-bbbc32a72daa" class="note">
                           <g class="notehead">
                              <use xlink:href="#E0A9-5xexap" x="3330" y="1574" height="720px" width="720px" />
                           </g>
                           <g id="s1rmj3og" class="stem">
                              <path d="M3529 1495 L3529 1142" stroke="currentColor" stroke-width="18" />
                           </g>
                        </g>
                     </g>
                     <g id="m-6a330b05-51a8-49bf-9d2c-d9956fca91e2" class="beam">
                        <polygon points="3970,1124 4438,1124 4438,1214 3970,1214" />
                        <g id="m-3f3a700e-0475-467c-b59b-5b427ac19e7c" class="note">
                           <g class="notehead">
                              <use xlink:href="#E0A9-5xexap" x="3780" y="1574" height="720px" width="720px" />
                           </g>
                           <g id="s1ikmpil" class="stem">
                              <path d="M3979 1495 L3979 1142" stroke="currentColor" stroke-width="18" />
                           </g>
                        </g>
                        <g id="m-97886b2d-4ae4-4dad-a43f-6a914849bff1" class="note">
                           <g class="notehead">
                              <use xlink:href="#E0A9-5xexap" x="4230" y="1574" height="720px" width="720px" />
                           </g>
                           <g id="saf3cct" class="stem">
                              <path d="M4429 1495 L4429 1142" stroke="currentColor" stroke-width="18" />
                           </g>
                        </g>
                     </g>
                  </g>
                  <g id="m-5c3c5a6b-4a5a-49dc-916f-71742efb3f7f" class="layer">
                     <g id="m-eb71ccc6-ffaf-4eb8-8db8-1180b2b742f5" class="rest">
                        <use xlink:href="#E4E6-5xexap" x="1052" y="2564" height="720px" width="720px" />
                     </g>
                     <g id="m-0b512e36-11ab-49d2-b9ad-dfcc570a077a" class="note">
                        <g class="notehead">
                           <use xlink:href="#E0A4-5xexap" x="1502" y="2474" height="720px" width="720px" />
                        </g>
                        <g id="s1j86jnb" class="stem">
                           <path d="M1511 2502 L1511 3014" stroke="currentColor" stroke-width="18" />
                           <g id="f1ndymbw" class="flag">
                              <use xlink:href="#E241-5xexap" x="1502" y="3014" height="720px" width="720px" />
                           </g>
                        </g>
                     </g>
                     <g id="m-9e822a6b-5578-4332-a2da-ecf51eeedce9" class="note">
                        <g class="notehead">
                           <use xlink:href="#E0A4-5xexap" x="1980" y="2024" height="720px" width="720px" />
                        </g>
                        <g id="s1ploax8" class="stem">
                           <path d="M1989 2052 L1989 2624" stroke="currentColor" stroke-width="18" />
                        </g>
                        <g id="a1l1zasz" class="accid" />
                     </g>
                     <g id="m-9f91c9f6-587e-4fad-b16e-ca739a724545" class="rest">
                        <use xlink:href="#E4E6-5xexap" x="2880" y="2384" height="720px" width="720px" />
                     </g>
                     <g id="m-e965175c-d5de-4891-8944-23c8d916f579" class="note">
                        <g class="notehead">
                           <use xlink:href="#E0A4-5xexap" x="3330" y="2474" height="720px" width="720px" />
                        </g>
                        <g id="s1669fi8" class="stem">
                           <path d="M3339 2502 L3339 3014" stroke="currentColor" stroke-width="18" />
                           <g id="fwg1jx4" class="flag">
                              <use xlink:href="#E241-5xexap" x="3330" y="3014" height="720px" width="720px" />
                           </g>
                        </g>
                     </g>
                     <g id="m-29b1e222-c5bb-4ea7-9d2a-b417eb8e5bea" class="beam">
                        <polygon points="3780,2924 4248,2969 4248,2879 3780,2834" />
                        <g id="m-57f80f54-32b0-4039-941d-3850513f5601" class="note">
                           <g class="notehead">
                              <use xlink:href="#E0A4-5xexap" x="3780" y="2024" height="720px" width="720px" />
                           </g>
                           <g id="sk30l02" class="stem">
                              <path d="M3789 2052 L3789 2906" stroke="currentColor" stroke-width="18" />
                           </g>
                           <g id="aumgqgh" class="accid" />
                        </g>
                        <g id="m-2c724a6d-44e1-481a-a1a5-613eade2dd4b" class="note">
                           <g class="notehead">
                              <use xlink:href="#E0A4-5xexap" x="4230" y="2474" height="720px" width="720px" />
                           </g>
                           <g id="s4d0lix" class="stem">
                              <path d="M4239 2502 L4239 2951" stroke="currentColor" stroke-width="18" />
                           </g>
                        </g>
                     </g>
                  </g>
               </g>
               <g id="b1fog9z8" class="barLine">
                  <path d="M4680 1664 L4680 2384" stroke="currentColor" stroke-width="27" />
               </g>
            </g>
            <g id="m-49521d4d-5c4c-4bdb-a21e-ffbb79e140fd" class="measure">
               <g id="m-64d867f1-5794-4e0c-9b6e-218bcead77b6" class="staff">
                  <path d="M4693 1664 L8666 1664" stroke="currentColor" stroke-width="13" />
                  <path d="M4693 1844 L8666 1844" stroke="currentColor" stroke-width="13" />
                  <path d="M4693 2024 L8666 2024" stroke="currentColor" stroke-width="13" />
                  <path d="M4693 2204 L8666 2204" stroke="currentColor" stroke-width="13" />
                  <path d="M4693 2384 L8666 2384" stroke="currentColor" stroke-width="13" />
                  <g class="ledgerLines below">
                     <path d="M6625 2564 L6929 2564" stroke="currentColor" stroke-width="22" />
                     <path d="M7525 2564 L7829 2564" stroke="currentColor" stroke-width="22" />
                  </g>
                  <g id="m-90372afb-3492-43cb-b769-cb4a92ef03d9" class="layer">
                     <g id="m-3d70fa8a-e0f6-4c78-972c-2da0c5382ffc" class="beam">
                        <polygon points="5063,1124 5531,1124 5531,1214 5063,1214" />
                        <g id="m-ce491143-7b18-4ce8-bd90-c64d04c1374c" class="note">
                           <g class="notehead">
                              <use xlink:href="#E0A9-5xexap" x="4873" y="1574" height="720px" width="720px" />
                           </g>
                           <g id="s1gkmzkj" class="stem">
                              <path d="M5072 1495 L5072 1142" stroke="currentColor" stroke-width="18" />
                           </g>
                        </g>
                        <g id="m-97a62521-d13d-4c90-bf0c-2a699565de7f" class="note">
                           <g class="notehead">
                              <use xlink:href="#E0A9-5xexap" x="5323" y="1574" height="720px" width="720px" />
                           </g>
                           <g id="s1ooiv0e" class="stem">
                              <path d="M5522 1495 L5522 1142" stroke="currentColor" stroke-width="18" />
                           </g>
                        </g>
                     </g>
                     <g id="m-59d9d20b-b762-4f0e-83f0-04a049a477a0" class="beam">
                        <polygon points="5963,1124 6431,1124 6431,1214 5963,1214" />
                        <g id="m-1ebbfddc-b162-48e7-8f98-cde637387524" class="note">
                           <g class="notehead">
                              <use xlink:href="#E0A9-5xexap" x="5773" y="1574" height="720px" width="720px" />
                           </g>
                           <g id="s1niycfn" class="stem">
                              <path d="M5972 1495 L5972 1142" stroke="currentColor" stroke-width="18" />
                           </g>
                        </g>
                        <g id="m-4d601bb5-4c37-4d2c-a4e6-8ceb7eddf30a" class="note">
                           <g class="notehead">
                              <use xlink:href="#E0A9-5xexap" x="6223" y="1574" height="720px" width="720px" />
                           </g>
                           <g id="sclrf8e" class="stem">
                              <path d="M6422 1495 L6422 1142" stroke="currentColor" stroke-width="18" />
                           </g>
                        </g>
                     </g>
                     <g id="m-d864e7a9-a7fe-4e4b-acc7-8a02115835b2" class="beam">
                        <polygon points="6863,1124 7331,1124 7331,1214 6863,1214" />
                        <g id="m-6d979979-a950-44fa-b013-7d6ba3d91f93" class="note">
                           <g class="notehead">
                              <use xlink:href="#E0A9-5xexap" x="6673" y="1574" height="720px" width="720px" />
                           </g>
                           <g id="s1d4znfx" class="stem">
                              <path d="M6872 1495 L6872 1142" stroke="currentColor" stroke-width="18" />
                           </g>
                        </g>
                        <g id="m-f40248d5-96a3-4445-a5ec-aac7c431ca6a" class="note">
                           <g class="notehead">
                              <use xlink:href="#E0A9-5xexap" x="7123" y="1574" height="720px" width="720px" />
                           </g>
                           <g id="smwmpe0" class="stem">
                              <path d="M7322 1495 L7322 1142" stroke="currentColor" stroke-width="18" />
                           </g>
                        </g>
                     </g>
                     <g id="m-746cd41c-964d-49bd-a8fb-cc5614fe58ea" class="beam">
                        <polygon points="7763,1124 8231,1124 8231,1214 7763,1214" />
                        <g id="m-46425d62-9cc8-4039-8d47-1f6aff7e94f7" class="note">
                           <g class="notehead">
                              <use xlink:href="#E0A9-5xexap" x="7573" y="1574" height="720px" width="720px" />
                           </g>
                           <g id="s1gpdk5u" class="stem">
                              <path d="M7772 1495 L7772 1142" stroke="currentColor" stroke-width="18" />
                           </g>
                        </g>
                        <g id="m-0e5564fb-ef29-4fb2-bf4a-50cebccf2e54" class="note">
                           <g class="notehead">
                              <use xlink:href="#E0A9-5xexap" x="8023" y="1574" height="720px" width="720px" />
                           </g>
                           <g id="s10vwkac" class="stem">
                              <path d="M8222 1495 L8222 1142" stroke="currentColor" stroke-width="18" />
                           </g>
                        </g>
                     </g>
                  </g>
                  <g id="m-c789442b-2cd1-48eb-94ed-1a00862445a9" class="layer">
                     <g id="m-e65f689a-1318-45e6-aa3e-3ddff25ed25b" class="note">
                        <g class="notehead">
                           <use xlink:href="#E0A4-5xexap" x="4873" y="2474" height="720px" width="720px" />
                        </g>
                        <g id="s1c7nyhp" class="stem">
                           <path d="M4882 2502 L4882 2924" stroke="currentColor" stroke-width="18" />
                        </g>
                     </g>
                     <g id="m-dfeda529-6f0f-4733-bc7b-fa7354cb48c6" class="beam">
                        <polygon points="5773,2924 6241,2969 6241,2879 5773,2834" />
                        <g id="m-4709a980-0e8c-4687-854a-6a458d9e5e11" class="note">
                           <g class="notehead">
                              <use xlink:href="#E0A4-5xexap" x="5773" y="2024" height="720px" width="720px" />
                           </g>
                           <g id="s13vjsxg" class="stem">
                              <path d="M5782 2052 L5782 2906" stroke="currentColor" stroke-width="18" />
                           </g>
                           <g id="avtouo3" class="accid" />
                        </g>
                        <g id="m-ee958fd3-3375-465e-b8f3-1aa6a1ea4287" class="note">
                           <g class="notehead">
                              <use xlink:href="#E0A4-5xexap" x="6223" y="2474" height="720px" width="720px" />
                           </g>
                           <g id="svizdif" class="stem">
                              <path d="M6232 2502 L6232 2951" stroke="currentColor" stroke-width="18" />
                           </g>
                        </g>
                     </g>
                     <g id="m-254db103-e5ea-45a4-a93a-1f91dc3d35a9" class="beam">
                        <polygon points="6673,3149 7141,3104 7141,3014 6673,3059" />
                        <g id="m-bd8fbbc1-1ee6-4046-b5ec-b234a5021ba0" class="note">
                           <g class="notehead">
                              <use xlink:href="#E0A9-5xexap" x="6673" y="2654" height="720px" width="720px" />
                           </g>
                           <g id="s1a96jke" class="stem">
                              <path d="M6682 2733 L6682 3131" stroke="currentColor" stroke-width="18" />
                           </g>
                           <g id="a8ouoe8" class="accid" />
                        </g>
                        <g id="m-139cdf3f-968b-4190-880a-ef7512f3960e" class="note">
                           <g class="notehead">
                              <use xlink:href="#E0A4-5xexap" x="7123" y="2474" height="720px" width="720px" />
                           </g>
                           <g id="s4o7e5n" class="stem">
                              <path d="M7132 2502 L7132 3086" stroke="currentColor" stroke-width="18" />
                           </g>
                        </g>
                     </g>
                     <g id="m-ed13a789-c73b-40ef-9b7b-947ec85423cd" class="beam">
                        <polygon points="7573,3104 8341,2924 8341,2834 7573,3014" />
                        <polygon points="8115,2839 8341,2789 8341,2699 8115,2749" />
                        <g id="m-041944ba-e176-4485-8e35-57aba3609c28" class="chord">
                           <g id="dfuy65m" class="dots" />
                           <g id="sjdb85m" class="stem">
                              <path d="M7582 2052 L7582 3086" stroke="currentColor" stroke-width="18" />
                           </g>
                           <g id="m-5b166f47-990c-436e-b673-192a1601dfca" class="note">
                              <g class="notehead">
                                 <use xlink:href="#E0A9-5xexap" x="7573" y="2654" height="720px" width="720px" />
                              </g>
                              <g id="dmhyiyt" class="dots">
                                 <ellipse cx="7871" cy="2654" rx="36" ry="36" />
                              </g>
                              <g id="a2h68vm" class="accid" />
                           </g>
                           <g id="m-84168b2a-121e-4f03-8899-9d105f4d2f08" class="note">
                              <g class="notehead">
                                 <use xlink:href="#E0A4-5xexap" x="7573" y="2024" height="720px" width="720px" />
                              </g>
                              <g id="d1t3m9sn" class="dots">
                                 <ellipse cx="7889" cy="2114" rx="36" ry="36" />
                              </g>
                              <g id="a15klv3w" class="accid" />
                           </g>
                        </g>
                        <g id="m-448baf67-a154-46f5-bfa6-04aaa0ac015d" class="note">
                           <g class="notehead">
                              <use xlink:href="#E0A4-5xexap" x="8323" y="2474" height="720px" width="720px" />
                           </g>
                           <g id="st57rg0" class="stem">
                              <path d="M8332 2502 L8332 2906" stroke="currentColor" stroke-width="18" />
                           </g>
                        </g>
                     </g>
                  </g>
               </g>
               <g id="b1div4y5" class="barLine">
                  <path d="M8653 1664 L8653 2384" stroke="currentColor" stroke-width="27" />
               </g>
            </g>
            <g id="m-ddef8c1b-cb2c-4fde-86a9-cb0fc850afcf" class="measure">
               <g id="m-8f17574c-5378-434b-9e3b-17af36258ad3" class="staff">
                  <path d="M8666 1664 L12729 1664" stroke="currentColor" stroke-width="13" />
                  <path d="M8666 1844 L12729 1844" stroke="currentColor" stroke-width="13" />
                  <path d="M8666 2024 L12729 2024" stroke="currentColor" stroke-width="13" />
                  <path d="M8666 2204 L12729 2204" stroke="currentColor" stroke-width="13" />
                  <path d="M8666 2384 L12729 2384" stroke="currentColor" stroke-width="13" />
                  <g class="ledgerLines below">
                     <path d="M10148 2564 L10452 2564" stroke="currentColor" stroke-width="22" />
                  </g>
                  <g id="m-04da31b2-e209-44ef-bbf9-7916dd33027b" class="layer">
                     <g id="m-02785db6-5c70-4ac7-9bd8-8cb1a93d35e5" class="beam">
                        <polygon points="9036,1124 9504,1124 9504,1214 9036,1214" />
                        <g id="m-cc87f7ed-83a2-4a8a-a3fe-cea5779a8e81" class="note">
                           <g class="notehead">
                              <use xlink:href="#E0A9-5xexap" x="8846" y="1574" height="720px" width="720px" />
                           </g>
                           <g id="s7fgnp7" class="stem">
                              <path d="M9045 1495 L9045 1142" stroke="currentColor" stroke-width="18" />
                           </g>
                        </g>
                        <g id="m-25130ab9-dd9d-4b57-8ae0-122e7aade17c" class="note">
                           <g class="notehead">
                              <use xlink:href="#E0A9-5xexap" x="9296" y="1574" height="720px" width="720px" />
                           </g>
                           <g id="s1l4g59h" class="stem">
                              <path d="M9495 1495 L9495 1142" stroke="currentColor" stroke-width="18" />
                           </g>
                        </g>
                     </g>
                     <g id="m-1f530ac4-3090-4f25-bce0-c7726fe709c8" class="beam">
                        <polygon points="9936,1124 10404,1124 10404,1214 9936,1214" />
                        <g id="m-4b2b6596-14bc-49a0-b923-1519e30fc3d6" class="note">
                           <g class="notehead">
                              <use xlink:href="#E0A9-5xexap" x="9746" y="1574" height="720px" width="720px" />
                           </g>
                           <g id="s18legmy" class="stem">
                              <path d="M9945 1495 L9945 1142" stroke="currentColor" stroke-width="18" />
                           </g>
                        </g>
                        <g id="m-e2829d59-a432-48e4-bc6b-dbaf150d9c9f" class="note">
                           <g class="notehead">
                              <use xlink:href="#E0A9-5xexap" x="10196" y="1574" height="720px" width="720px" />
                           </g>
                           <g id="s1903lx" class="stem">
                              <path d="M10395 1495 L10395 1142" stroke="currentColor" stroke-width="18" />
                           </g>
                        </g>
                     </g>
                     <g id="m-23839805-83ce-4e66-a681-3736cf6b7b6a" class="rest">
                        <use xlink:href="#E4E5-5xexap" x="11126" y="1484" height="720px" width="720px" />
                     </g>
                     <g id="m-43ddd12f-de17-42af-abf6-b279acf4729c" class="note">
                        <g class="notehead">
                           <use xlink:href="#E0A9-5xexap" x="12026" y="1574" height="720px" width="720px" />
                        </g>
                        <g id="s10qkrh7" class="stem">
                           <path d="M12225 1495 L12225 1124" stroke="currentColor" stroke-width="18" />
                        </g>
                     </g>
                  </g>
                  <g id="m-1a5afab5-b8ec-45dc-98ca-9a41f0a59096" class="layer">
                     <g id="m-f4a8169a-f17b-4092-b8cc-9649c33ea687" class="beam">
                        <polygon points="8846,2924 9314,2969 9314,2879 8846,2834" />
                        <g id="m-bae7dfe7-e432-461b-a609-61ff469d27d8" class="note">
                           <g class="notehead">
                              <use xlink:href="#E0A4-5xexap" x="8846" y="2024" height="720px" width="720px" />
                           </g>
                           <g id="srt9fk3" class="stem">
                              <path d="M8855 2052 L8855 2906" stroke="currentColor" stroke-width="18" />
                           </g>
                           <g id="a54rp0t" class="accid" />
                        </g>
                        <g id="m-bdf5ec26-1b3e-450d-aaed-d27e5c30ac37" class="note">
                           <g class="notehead">
                              <use xlink:href="#E0A4-5xexap" x="9296" y="2474" height="720px" width="720px" />
                           </g>
                           <g id="sufdxqt" class="stem">
                              <path d="M9305 2502 L9305 2951" stroke="currentColor" stroke-width="18" />
                           </g>
                        </g>
                     </g>
                     <g id="m-c5ed81c8-40de-4ebc-9d12-76a744afba46" class="beam">
                        <polygon points="9746,3374 10828,3374 10828,3284 9746,3284" />
                        <polygon points="10205,3239 10503,3239 10503,3149 10205,3149" />
                        <polygon points="10503,3239 10828,3239 10828,3149 10503,3149" />
                        <polygon points="10205,3104 10503,3104 10503,3014 10205,3014" />
                        <g id="m-b1768078-c2ce-4221-9732-6f053d259955" class="note">
                           <g class="notehead">
                              <use xlink:href="#E0A4-5xexap" x="9746" y="2024" height="720px" width="720px" />
                           </g>
                           <g id="s1sn1no6" class="stem">
                              <path d="M9755 2052 L9755 3356" stroke="currentColor" stroke-width="18" />
                           </g>
                           <g id="a1jotsas" class="accid" />
                        </g>
                        <g id="m-515c9dee-6736-459d-8df6-b4df9df4dd45" class="note">
                           <g class="notehead">
                              <use xlink:href="#E0A9-5xexap" x="10196" y="2654" height="720px" width="720px" />
                           </g>
                           <g id="sh2ewmb" class="stem">
                              <path d="M10205 2733 L10205 3356" stroke="currentColor" stroke-width="18" />
                           </g>
                           <g id="aq6dnm2" class="accid" />
                        </g>
                        <g id="m-e5123277-b982-4b83-a548-cf6ba6b25dca" class="note">
                           <g class="notehead">
                              <use xlink:href="#E0A4-5xexap" x="10494" y="2024" height="720px" width="720px" />
                           </g>
                           <g id="sdyh2nl" class="stem">
                              <path d="M10503 2052 L10503 3356" stroke="currentColor" stroke-width="18" />
                           </g>
                           <g id="aqbvjq1" class="accid" />
                        </g>
                        <g id="m-9070044c-2686-4d3d-a53d-061f7bc9e1d9" class="note">
                           <g class="notehead">
                              <use xlink:href="#E0A4-5xexap" x="10810" y="2024" height="720px" width="720px" />
                           </g>
                           <g id="sz578fe" class="stem">
                              <path d="M10819 2052 L10819 3356" stroke="currentColor" stroke-width="18" />
                           </g>
                           <g id="a1asxbw7" class="accid" />
                        </g>
                     </g>
                     <g id="m-b137b93f-68c4-4f17-853e-d7549bc600c0" class="beam">
                        <polygon points="11126,2924 11594,2969 11594,2879 11126,2834" />
                        <g id="m-9d4bcebf-0b2e-46cb-839c-d50aea31b6aa" class="note">
                           <g class="notehead">
                              <use xlink:href="#E0A4-5xexap" x="11126" y="2024" height="720px" width="720px" />
                           </g>
                           <g id="sofhzjz" class="stem">
                              <path d="M11135 2052 L11135 2906" stroke="currentColor" stroke-width="18" />
                           </g>
                           <g id="a1cspm85" class="accid" />
                        </g>
                        <g id="m-46e80c2e-70c0-4f88-81af-0cec9d9fb38b" class="note">
                           <g class="notehead">
                              <use xlink:href="#E0A4-5xexap" x="11576" y="2474" height="720px" width="720px" />
                           </g>
                           <g id="s489qnu" class="stem">
                              <path d="M11585 2502 L11585 2951" stroke="currentColor" stroke-width="18" />
                           </g>
                        </g>
                     </g>
                     <g id="m-253fd3a9-2dcb-422c-9902-aeae86ab4c9f" class="note">
                        <g class="notehead">
                           <use xlink:href="#E0A4-5xexap" x="12026" y="2024" height="720px" width="720px" />
                        </g>
                        <g id="s1hwqrli" class="stem">
                           <path d="M12035 2052 L12035 2624" stroke="currentColor" stroke-width="18" />
                        </g>
                        <g id="a1u4v1in" class="accid" />
                     </g>
                  </g>
               </g>
               <g id="b1onhr8u" class="barLine">
                  <path d="M12716 1664 L12716 2384" stroke="currentColor" stroke-width="27" />
               </g>
            </g>
            <g id="s1srs2be" class="systemMilestoneEnd m-44c4d1a2-84f4-41d5-ac2c-a8c7eb8f498e" />
         </g>
         <g id="pc6q71s" class="pageMilestoneEnd m-61872a98-1b0b-4f73-80da-ddb050bff163" />
         <g id="p1fb85id" class="pageMilestoneEnd m-e0d953d4-0d56-46a3-96a1-c43a3dfa9785" />
         <g id="p1vpreuu" class="pgHead autogenerated">
            <text font-size="0px">
               <tspan id="ru2v2g4" class="rend" x="10000" y="415" text-anchor="middle">
                  <title class="labelAttr">title</title>
                  <tspan id="r16bh7sv" class="rend">
                     <tspan id="th0kztq" class="text">
                        <tspan font-size="607px">10_rock_100_beat_4-4</tspan>
                     </tspan>
                  </tspan>
                  <tspan id="lmb0fp6" class="lb" />
                  <tspan id="rnyo8ed" class="rend">
                     <tspan id="t1u8j7mf" class="text" x="10000" y="805">
                        <tspan font-size="324px">10_rock_100_beat_4-4</tspan>
                     </tspan>
                  </tspan>
               </tspan>
            </text>
         </g>
         <g id="p90aebg" class="pgFoot autogenerated">
            <g id="f17603qf" class="fig">
               <g class="svg" transform="translate(7750, 28099) scale(10.000000, 10.000000)">
                  <g>
                     <path fill="#00000" d="M 17.11278,49.26451 V 10.367554 h 12.696511 c 3.288815,7.336676 6.71267,14.610456 10.127281,21.888976 3.419998,-7.484684 6.255515,-14.204887 9.58887,-21.909915 2.436207,0.103726 4.316952,0.08453 6.484294,-0.05808 V 49.264423 H 50.274275 C 50.145222,38.35639 50.016136,27.448368 49.887066,16.540329 45.003488,27.315459 39.967448,38.433564 35.083854,49.208695 34.678996,49.343717 34.426583,49.135619 34.021726,49.270644 29.46588,39.330716 24.910049,29.390805 20.354201,19.450876 20.224341,29.388756 20.09461,39.326619 19.964815,49.264497 H 17.11278 Z M 36.754144,39.324695 C 32.721221,30.512695 28.6883,21.700679 24.655394,12.888662 22.530527,12.750737 22.656775,12.71031 20.714356,12.813974 v 0.966497 c 4.612938,9.99784 9.609439,20.748709 13.87298,30.081745 0.722248,-1.512523 1.444528,-3.025014 2.166808,-4.537521 z m 25.738417,9.939815 c 0,-12.965651 0,-25.931305 0,-38.896956 10.084388,0 20.168791,0 30.253178,0 0,0.960416 0,1.920849 0,2.881265 -6.482825,0 -12.965652,0 -19.448478,0 0,4.802097 0,9.604178 0,14.406277 5.52241,0 11.044819,0 16.567229,0 0,0.960415 0,1.920832 0,2.881248 -5.52241,0 -11.044819,0 -16.567229,0 0,5.282306 0,10.564611 0,15.846917 6.963035,0 13.926068,0 20.889103,0 0,0.960416 0,1.920832 0,2.881249 -10.564597,0 -21.129207,0 -31.693803,0 z m 4.321874,-2.160937 c 0,-11.765131 0,-23.530263 0,-35.295394 -0.720312,0 -1.440625,0 -2.160937,0 0,11.765131 0,23.530263 0,35.295394 0.720312,0 1.440625,0 2.160937,0 z m 32.41413,2.160937 c 0,-12.965651 0,-25.931305 0,-38.896956 2.401045,0 4.802095,0 7.203135,0 0,12.965651 0,25.931305 0,38.896956 -2.40104,0 -4.80209,0 -7.203135,0 z m 2.881265,-2.160937 c 0,-11.765131 0,-23.530263 0,-35.295394 -0.72031,0 -1.44064,0 -2.160953,0 0,11.765131 0,23.530263 0,35.295394 0.720313,0 1.440643,0 2.160953,0 z" />
                     <path fill="#00000" d="m 346.3,6.7 c -3.1,0.5 -4.9,4.4 -2.7,6.8 1.2,1.4 2.7,2.4 4.1,3.5 -2.4,5.3 -7.7,8.3 -11.9,12.1 -3.7,2.8 -7,6.2 -9.7,9.9 -2.2,-0.8 -0.3,-6.8 -0.6,-9.5 0.1,-3.1 0.7,-6.4 2.9,-8.7 1.3,-1.9 3,-3.5 4.5,-5.2 1.2,-3.4 -3.2,-4.9 -5.8,-4.6 -7.3,-0.5 -14.6,2 -20,6.8 -5,4.6 -10,10.1 -11.5,17 -0.9,3.5 -0.2,7.5 2.8,9.9 2.5,2.8 7.4,2.9 9.8,-0.2 1.7,-2.3 3.2,-4.8 3.8,-7.6 -0.1,-2.6 -4.4,-2.3 -4.3,0.2 1.2,2.4 -0.9,4.7 -2.7,6.2 -1.7,0.9 -4.7,0.7 -4.8,-1.7 -1,-5.8 2.1,-11.3 5.2,-16.1 4,-5.8 9.8,-11.2 17.2,-11.8 1.6,0 8.1,-1.2 6.8,1.4 -2.8,2.8 -5.6,6.1 -6,10.3 -1.6,7.7 0.1,15.7 -2.3,23.2 -1.1,3.9 2,2.6 2.5,0.2 3.3,-7.4 8.9,-13.4 15.1,-18.5 4.2,-3.9 9.5,-7.1 11.9,-12.6 1.3,-3.6 1.2,-9 -2.7,-10.9 -0.6,-0.2 -1.2,-0.3 -1.8,-0.3 z m 66,14.5 c -2,0.8 -1.8,4.9 0.8,4.4 3.4,0.4 2.9,-6.2 -0.8,-4.4 z m 0.6,7.3 c -1.3,0.5 -7.6,0.5 -5.4,2.2 4,-0.3 0.7,4.5 0.6,6.7 -0.4,2.9 -2.4,5.9 -1.2,8.8 2.7,1.7 5.6,-0.8 6.8,-3.2 1.6,-1.4 -0.5,-3 -1.2,-0.9 -0.4,0.8 -2.4,3.5 -2.6,1.8 1.1,-5 2.7,-9.9 3.9,-14.9 l -0.1,-0.5 h -0.9 z m -65.1,0.2 c -6.5,1.6 -10.5,9.5 -8.2,15.7 2.1,3.4 7.4,2.9 10.1,0.4 2,-0.2 3.6,-5.3 1,-3.4 -1.4,2 -4,4.2 -6.5,2.8 -2.2,-1.9 -1.9,-5.7 1.7,-5.3 3.1,-0.9 6.9,-2.1 8.1,-5.5 0.9,-2.7 -1.6,-5.2 -4.3,-4.8 h -1.1 -0.7 z m 13.6,0 c -2.2,0 -8.5,1.8 -2.9,2.3 0.9,1.9 -1,4.9 -1.1,7.2 -0.5,2.9 -1.4,5.7 -1.7,8.7 3.7,0.7 3.8,-2.6 4.4,-5.3 0.9,-3.3 1.6,-7 4.1,-9.5 2.4,1.6 6.8,-0.7 3.7,-3.4 -2.9,-0.5 -4.8,2.4 -6.2,4.3 0,-1.2 2.4,-5 -0.2,-4.3 z m 15.8,0 c -6.4,1.3 -9.6,9.1 -7.7,14.9 1.9,4 7.7,3.9 11,1.7 4.1,-3 6,-8.9 4.4,-13.7 -1.3,-3 -4.8,-3.2 -7.6,-3 z m 17,0 c -2.3,0 -8.8,1.9 -3,2.4 0.4,2.5 -1,5.7 -1.4,8.4 -0.7,2.4 -1.8,7.5 2.1,7.2 3.8,-0.1 6.5,-3.5 8.5,-6.3 2,-3.2 4.5,-7 3.3,-10.9 -3.7,-3 -3.6,2.6 -3.1,5.1 -0.7,3.8 -2.7,7.9 -6.2,9.8 -3.6,0.6 -1,-4.3 -0.8,-6.1 0.6,-3.2 1.6,-6.3 1.9,-9.5 -0.4,0 -0.8,0 -1.1,0 z m 30.6,0 c -6.3,1.2 -9.5,8.9 -7.8,14.7 1.5,4 7.2,4.2 10.5,2.4 4.6,-2.8 6.6,-9.3 4.8,-14.3 -1.4,-2.8 -4.8,-3 -7.5,-2.8 z m -75.4,1.7 c 2.1,1.5 0.2,4.7 -1.6,5.7 -1.1,0.4 -5.5,3.4 -4.6,0.7 0.8,-2.7 2.2,-6.2 5.3,-6.6 l 0.9,0.1 z m 30.8,0 c 2.6,1.5 1.3,5.2 0.8,7.6 -0.8,2.7 -1.9,5.9 -4.7,7.1 -5.1,0.8 -4,-5.8 -2.8,-8.8 1,-2.8 3,-6.8 6.7,-5.8 z m 47.1,-0.1 c 2.9,0.7 2,4.7 1.5,6.8 -0.7,3 -1.8,6.7 -5,8 -4.7,0.8 -4,-5.1 -3,-7.9 0.9,-3 2.7,-7.3 6.5,-6.8 z m -88.1,5.9 c -0.3,1.3 0.9,-0.6 0,0 z m -1.1,2.4 c -0.2,0.5 0.5,-0.1 0,0 z m -1.3,4.5 c -0.3,1.3 0.8,-0.2 0,0 z" />
                     <text y="41" x="201" fill="#00000" style="font-style:italic;font-weight:normal;font-size:30px;line-height:125%;font-family:Times;text-anchor:middle" xml:space="preserve">engraved with</text>
                  </g>
               </g>
            </g>
         </g>
      </g>
   </svg>
</svg>
