<?xml version="1.0" encoding="UTF-8" standalone="no"?>
<svg width="2100px" height="2970px" version="1.1" xmlns="http://www.w3.org/2000/svg" xmlns:xlink="http://www.w3.org/1999/xlink" xmlns:mei="http://www.music-encoding.org/ns/mei" overflow="visible">
   <desc>Engraved by Verovio 4.4.0-66ab39c</desc>
   <defs>
      <symbol id="E4E3-p7yls0" viewBox="0 0 1000 1000" overflow="inherit">
         <path transform="scale(1,-1)" d="M0 -115v105c0 9 1 10 10 10h280c9 0 10 -1 10 -10v-105c0 -9 -1 -10 -10 -10h-280c-9 0 -10 1 -10 10z" />
      </symbol>
      <symbol id="E0A9-p7yls0" viewBox="0 0 1000 1000" overflow="inherit">
         <path transform="scale(1,-1)" d="M0 -110c0 4 1 8 5 11l119 99l-119 100c-3 3 -5 8 -5 12c0 6 5 13 12 13c3 0 6 -1 8 -2l124 -105l126 105c2 1 5 2 7 2c6 0 13 -6 13 -14c0 -4 -2 -9 -5 -11l-119 -100l119 -99c3 -3 5 -7 5 -12c0 -6 -5 -14 -13 -14c-2 0 -5 1 -7 3l-126 105l-124 -105c-2 -2 -4 -3 -7 -3 c-8 0 -13 7 -13 15z" />
      </symbol>
      <symbol id="E0B5-p7yls0" viewBox="0 0 1000 1000" overflow="inherit">
         <path transform="scale(1,-1)" d="M293 -21c0 14 -3 29 -8 44c-3 8 -6 15 -10 22l-55 -45l68 -55c3 11 5 22 5 34zM198 133c102 0 207 -45 207 -133c0 -92 -98 -133 -207 -133c-101 0 -198 46 -198 133c0 88 93 133 198 133zM141 -64c5 -8 12 -15 19 -21c15 -15 36 -23 62 -23c4 0 10 1 18 2 c17 4 29 13 37 25l-79 64zM260 68c-2 3 -5 6 -8 9c-20 21 -43 31 -68 31l-20 -2c-15 -5 -27 -14 -36 -28c0 -1 -1 -1 -1 -2l71 -58zM119 48c-1 -6 -2 -13 -2 -21c0 -15 3 -34 9 -57l3 -9l49 39z" />
      </symbol>
      <symbol id="E069-p7yls0" viewBox="0 0 1000 1000" overflow="inherit">
         <path transform="scale(1,-1)" d="M200 250h125v-500h-125v500zM0 250h125v-500h-125v500z" />
      </symbol>
      <symbol id="E0A2-p7yls0" viewBox="0 0 1000 1000" overflow="inherit">
         <path transform="scale(1,-1)" d="M198 133c102 0 207 -45 207 -133c0 -92 -118 -133 -227 -133c-101 0 -178 46 -178 133c0 88 93 133 198 133zM293 -21c0 14 -3 29 -8 44c-7 20 -18 38 -33 54c-20 21 -43 31 -68 31l-20 -2c-15 -5 -27 -14 -36 -28c-4 -9 -6 -17 -8 -24s-3 -16 -3 -27c0 -15 3 -34 9 -57 s18 -41 34 -55c15 -15 36 -23 62 -23c4 0 10 1 18 2c19 5 32 15 40 30s13 34 13 55z" />
      </symbol>
      <symbol id="E0A4-p7yls0" viewBox="0 0 1000 1000" overflow="inherit">
         <path transform="scale(1,-1)" d="M0 -39c0 68 73 172 200 172c66 0 114 -37 114 -95c0 -84 -106 -171 -218 -171c-64 0 -96 30 -96 94z" />
      </symbol>
      <symbol id="E240-p7yls0" viewBox="0 0 1000 1000" overflow="inherit">
         <path transform="scale(1,-1)" d="M179 -646c15 29 29 55 46 102c18 49 30 108 30 138c0 105 -80 173 -168 200c-18 5 -47 9 -87 16v190h22c8 0 33 -61 71 -95c4 -3 -2 3 61 -56c62 -58 122 -137 122 -241c0 -38 -13 -106 -35 -163c-20 -51 -43 -99 -66 -132c-6 -5 -10 -7 -13 -7s-5 2 -5 5l4 10 c1 3 14 25 18 33z" />
      </symbol>
      <symbol id="E4E5-p7yls0" viewBox="0 0 1000 1000" overflow="inherit">
         <path transform="scale(1,-1)" d="M107 292c-13 24 -30 49 -52 71c-1 1 0 2 0 3l-2 2c3 3 4 4 6 4c12 0 26 -7 40 -20s44 -40 89 -81c26 -24 28 -29 46 -47c4 -4 8 -9 10 -14c6 -8 8 -16 8 -27c0 -19 -12 -40 -36 -61c-28 -23 -49 -38 -61 -73c-4 -11 -7 -27 -10 -50c13 -43 34 -83 59 -121 c31 -47 59 -79 101 -129c-8 0 -26 7 -54 20l-62 29l-21 6l-23 1c-25 0 -45 -10 -60 -30l-4 -14l-1 -12c0 -33 20 -56 39 -78c8 -9 17 -18 26 -26c17 -15 27 -24 28 -30l-3 -3c-11 5 -19 10 -25 15c-9 3 -37 21 -45 26c-24 14 -45 32 -63 51c-19 21 -37 44 -37 71 c0 63 27 95 80 95c41 0 86 -18 136 -52c-19 26 -37 48 -55 66c-23 23 -48 44 -73 65c-28 23 -47 40 -58 53s-17 26 -18 39c75 64 113 125 113 183c0 27 -7 48 -18 68z" />
      </symbol>
      <symbol id="E222-p7yls0" viewBox="0 0 1000 1000" overflow="inherit">
         <path transform="scale(1,-1)" d="M-163 -200l326 150v-100l-326 -150v100zM-163 150l326 150v-100l-326 -150v100zM-163 -25l326 150v-100l-326 -150v100z" />
      </symbol>
      <symbol id="E084-p7yls0" viewBox="0 0 1000 1000" overflow="inherit">
         <path transform="scale(1,-1)" d="M20 -78c84 97 114 180 134 329h170c-13 -32 -82 -132 -99 -151l-84 -97c-33 -36 -59 -63 -80 -81h162v102l127 123v-225h57v-39h-57v-34c0 -43 19 -65 57 -65v-34h-244v36c48 0 60 26 60 70v27h-203v39z" />
      </symbol>
   </defs>
   <style type="text/css">g.page-margin{font-family:Times,serif;} g.ending, g.fing, g.reh, g.tempo{font-weight:bold;} g.dir, g.dynam, g.mNum{font-style:italic;} g.label{font-weight:normal;}</style>
   <svg class="definition-scale" color="black" viewBox="0 0 21000 29700">
      <g class="page-margin" transform="translate(500, 500)">
         <g id="m-17b7f992-6fa2-4c13-95ff-b71d1f1ddd16" class="mdiv pageMilestone" />
         <g id="m-caf874b3-6deb-45ec-9753-5abad6dbb119" class="score pageMilestone" />
         <g id="s1yrjwx0" class="system">
            <g id="m-fbec76da-33f9-409f-bcb5-7ca2ffad5976" class="section systemMilestone" />
            <g id="m-cd055a44-a111-4312-9832-28539a118529" class="measure">
               <g id="m-56bad6fd-1112-46d6-96d9-a26d78344c0f" class="staff">
                  <path d="M0 1595 L5902 1595" stroke="currentColor" stroke-width="13" />
                  <path d="M0 1775 L5902 1775" stroke="currentColor" stroke-width="13" />
                  <path d="M0 1955 L5902 1955" stroke="currentColor" stroke-width="13" />
                  <path d="M0 2135 L5902 2135" stroke="currentColor" stroke-width="13" />
                  <path d="M0 2315 L5902 2315" stroke="currentColor" stroke-width="13" />
                  <g id="c1mme5o9" class="clef">
                     <use xlink:href="#E069-p7yls0" x="90" y="1955" height="720px" width="720px" />
                  </g>
                  <g id="kqu2chi" class="keySig" />
                  <g id="m70yao2" class="meterSig">
                     <use xlink:href="#E084-p7yls0" x="490" y="1775" height="720px" width="720px" />
                     <use xlink:href="#E084-p7yls0" x="490" y="2135" height="720px" width="720px" />
                  </g>
                  <g class="ledgerLines below">
                     <path d="M1885 2495 L2189 2495" stroke="currentColor" stroke-width="22" />
                  </g>
                  <g id="m-9b3eb91b-d1f8-45b0-8784-dc4d1210e259" class="layer">
                     <g id="m-23e7936e-0e3d-4059-86e4-0d18da5236d2" class="rest">
                        <use xlink:href="#E4E3-p7yls0" x="1092" y="1415" height="720px" width="720px" />
                        <g class="ledgerLines">
                           <path d="M1044 1415 L1356 1415" stroke="currentColor" stroke-width="22" />
                        </g>
                     </g>
                  </g>
                  <g id="m-1429660f-c6b9-4eb7-8f4b-14065e7b5f1f" class="layer">
                     <g id="m-d6596699-846b-4e8d-ac9a-52b60450135a" class="rest">
                        <use xlink:href="#E4E5-p7yls0" x="1092" y="2675" height="720px" width="720px" />
                     </g>
                     <g id="m-88637e8b-42b3-40e8-adb3-8ef6a8bc82df" class="beam">
                        <polygon points="1933,3035 2499,2855 2499,2765 1933,2945" />
                        <g id="m-51a4a069-ab32-483c-b044-8528aa18c0ba" class="note">
                           <g class="notehead">
                              <use xlink:href="#E0A9-p7yls0" x="1933" y="2585" height="720px" width="720px" />
                           </g>
                           <g id="siougoh" class="stem">
                              <path d="M1942 2664 L1942 3017" stroke="currentColor" stroke-width="18" />
                           </g>
                           <g id="a7knbef" class="accid" />
                        </g>
                        <g id="m-9360c49b-17ed-4e66-9849-c567ffd0cc63" class="note">
                           <g class="notehead">
                              <use xlink:href="#E0A4-p7yls0" x="2481" y="1955" height="720px" width="720px" />
                           </g>
                           <g id="slrcuvd" class="stem">
                              <path d="M2490 1983 L2490 2837" stroke="currentColor" stroke-width="18" />
                              <use xlink:href="#E222-p7yls0" x="2490" y="2441" height="720px" width="720px" />
                           </g>
                           <g id="a1v3sm21" class="accid" />
                        </g>
                     </g>
                     <g id="m-c62517d1-6587-4f46-bded-881b4182c571" class="beam">
                        <polygon points="3030,2450 4203,2450 4203,2360 3030,2360" />
                        <polygon points="3030,2315 3424,2315 3424,2225 3030,2225" />
                        <polygon points="3424,2315 3809,2315 3809,2225 3424,2225" />
                        <polygon points="3809,2315 4203,2315 4203,2225 3809,2225" />
                        <g id="m-444503c3-15a8-4277-9a5d-f2999c5733ab" class="note">
                           <g class="notehead">
                              <use xlink:href="#E0A4-p7yls0" x="3030" y="1685" height="720px" width="720px" />
                           </g>
                           <g id="s1psli90" class="stem">
                              <path d="M3039 1713 L3039 2432" stroke="currentColor" stroke-width="18" />
                           </g>
                           <g id="auwexsx" class="accid" />
                        </g>
                        <g id="m-34f6aa19-e3f5-4650-b548-4dc6c53102fe" class="note">
                           <g class="notehead">
                              <use xlink:href="#E0A4-p7yls0" x="3415" y="1685" height="720px" width="720px" />
                           </g>
                           <g id="s1u2uu0e" class="stem">
                              <path d="M3424 1713 L3424 2432" stroke="currentColor" stroke-width="18" />
                           </g>
                           <g id="a1vg9drs" class="accid" />
                        </g>
                        <g id="m-e5fd5081-7a5e-41e3-b2b5-5ac7b09e1e62" class="note">
                           <g class="notehead">
                              <use xlink:href="#E0A4-p7yls0" x="3800" y="1775" height="720px" width="720px" />
                           </g>
                           <g id="s1y4psjt" class="stem">
                              <path d="M3809 1803 L3809 2432" stroke="currentColor" stroke-width="18" />
                           </g>
                        </g>
                        <g id="m-6629d093-2c56-4be7-84c5-c3cf1b63ab8d" class="note">
                           <g class="notehead">
                              <use xlink:href="#E0A4-p7yls0" x="4185" y="1775" height="720px" width="720px" />
                           </g>
                           <g id="scc24l7" class="stem">
                              <path d="M4194 1803 L4194 2432" stroke="currentColor" stroke-width="18" />
                           </g>
                        </g>
                     </g>
                     <g id="m-86fba9d7-8c60-4f28-beea-b595dbb27145" class="beam">
                        <polygon points="4570,2810 5359,2810 5359,2720 4570,2720" />
                        <polygon points="4570,2675 4965,2675 4965,2585 4570,2585" />
                        <g id="m-fe338989-26e3-4fbf-b99c-868c7a79f5dd" class="note">
                           <g class="notehead">
                              <use xlink:href="#E0A4-p7yls0" x="4570" y="2225" height="720px" width="720px" />
                           </g>
                           <g id="sncc6u0" class="stem">
                              <path d="M4579 2253 L4579 2792" stroke="currentColor" stroke-width="18" />
                           </g>
                        </g>
                        <g id="m-03485590-c12f-4b11-8c53-cc13b85aa0ec" class="note">
                           <g class="notehead">
                              <use xlink:href="#E0A4-p7yls0" x="4956" y="2225" height="720px" width="720px" />
                           </g>
                           <g id="sgo1qk" class="stem">
                              <path d="M4965 2253 L4965 2792" stroke="currentColor" stroke-width="18" />
                           </g>
                        </g>
                        <g id="m-93894722-63e2-4ec3-b6e6-877ff8857502" class="note">
                           <g class="notehead">
                              <use xlink:href="#E0A4-p7yls0" x="5341" y="2225" height="720px" width="720px" />
                           </g>
                           <g id="s1f1ohv3" class="stem">
                              <path d="M5350 2253 L5350 2792" stroke="currentColor" stroke-width="18" />
                           </g>
                        </g>
                     </g>
                  </g>
               </g>
               <g id="b1ydbyp9" class="barLine">
                  <path d="M5889 1595 L5889 2315" stroke="currentColor" stroke-width="27" />
               </g>
            </g>
            <g id="m-a5ad96f9-4d32-42fc-b624-5e44860e5d26" class="measure">
               <g id="m-c445336a-111e-453a-8460-d86572b0bb9b" class="staff">
                  <path d="M5902 1595 L11393 1595" stroke="currentColor" stroke-width="13" />
                  <path d="M5902 1775 L11393 1775" stroke="currentColor" stroke-width="13" />
                  <path d="M5902 1955 L11393 1955" stroke="currentColor" stroke-width="13" />
                  <path d="M5902 2135 L11393 2135" stroke="currentColor" stroke-width="13" />
                  <path d="M5902 2315 L11393 2315" stroke="currentColor" stroke-width="13" />
                  <g class="ledgerLines below">
                     <path d="M6915 2495 L7219 2495" stroke="currentColor" stroke-width="22" />
                  </g>
                  <g id="m-a0d3ed7c-7379-4549-8c17-f7c21fe5846c" class="layer">
                     <g id="m-ef988a2b-ee9c-4b64-a584-0a648f8ccaf9" class="rest">
                        <use xlink:href="#E4E3-p7yls0" x="6122" y="1415" height="720px" width="720px" />
                        <g class="ledgerLines">
                           <path d="M6074 1415 L6386 1415" stroke="currentColor" stroke-width="22" />
                        </g>
                     </g>
                  </g>
                  <g id="m-676ca2c0-b5ac-4a04-8c9e-4ced0476b126" class="layer">
                     <g id="m-2749f4b3-ec30-4432-a850-a80fb1a40d56" class="rest">
                        <use xlink:href="#E4E5-p7yls0" x="6122" y="2495" height="720px" width="720px" />
                     </g>
                     <g id="m-0f041255-87f1-4436-aa20-0d844f732ca0" class="beam">
                        <polygon points="6963,3035 7915,2855 7915,2765 6963,2945" />
                        <polygon points="7520,2795 7915,2720 7915,2630 7520,2705" />
                        <g id="m-6a4c2036-546a-4d42-aaf9-6627ab38b701" class="note">
                           <g class="notehead">
                              <use xlink:href="#E0A9-p7yls0" x="6963" y="2585" height="720px" width="720px" />
                           </g>
                           <g id="s1p5i15y" class="stem">
                              <path d="M6972 2664 L6972 3017" stroke="currentColor" stroke-width="18" />
                           </g>
                           <g id="a16u7woc" class="accid" />
                        </g>
                        <g id="m-2bf7284e-ec1d-43bc-896c-6d5a924f00de" class="note">
                           <g class="notehead">
                              <use xlink:href="#E0A4-p7yls0" x="7511" y="1685" height="720px" width="720px" />
                           </g>
                           <g id="s1sym8t6" class="stem">
                              <path d="M7520 1713 L7520 2912" stroke="currentColor" stroke-width="18" />
                           </g>
                           <g id="a1oizpgt" class="accid" />
                        </g>
                        <g id="m-de9078e1-9780-42d8-9866-c4221d7a68cd" class="note">
                           <g class="notehead">
                              <use xlink:href="#E0A4-p7yls0" x="7897" y="1685" height="720px" width="720px" />
                           </g>
                           <g id="s1hxfslo" class="stem">
                              <path d="M7906 1713 L7906 2837" stroke="currentColor" stroke-width="18" />
                           </g>
                           <g id="a1s6hhfc" class="accid" />
                        </g>
                     </g>
                     <g id="m-8e58c973-41e3-4124-b7a3-e4482791ea59" class="beam">
                        <polygon points="8282,2855 9455,2855 9455,2765 8282,2765" />
                        <polygon points="8282,2720 8676,2720 8676,2630 8282,2630" />
                        <polygon points="8676,2720 9061,2720 9061,2630 8676,2630" />
                        <polygon points="9061,2720 9455,2720 9455,2630 9061,2630" />
                        <g id="m-0142fc29-ba9f-4b08-a227-2615a436107a" class="note">
                           <g class="notehead">
                              <use xlink:href="#E0A4-p7yls0" x="8282" y="1775" height="720px" width="720px" />
                           </g>
                           <g id="sofmlpm" class="stem">
                              <path d="M8291 1803 L8291 2837" stroke="currentColor" stroke-width="18" />
                           </g>
                        </g>
                        <g id="m-13966c02-1df5-48e2-a5d7-b183d9fb87d4" class="note">
                           <g class="notehead">
                              <use xlink:href="#E0A4-p7yls0" x="8667" y="1775" height="720px" width="720px" />
                           </g>
                           <g id="s1hjlp1k" class="stem">
                              <path d="M8676 1803 L8676 2837" stroke="currentColor" stroke-width="18" />
                           </g>
                        </g>
                        <g id="m-558fee19-e652-4a88-97a0-21237d87c361" class="note">
                           <g class="notehead">
                              <use xlink:href="#E0A4-p7yls0" x="9052" y="2225" height="720px" width="720px" />
                           </g>
                           <g id="s1malfl5" class="stem">
                              <path d="M9061 2253 L9061 2837" stroke="currentColor" stroke-width="18" />
                           </g>
                        </g>
                        <g id="m-2ddbfb42-8aec-4090-86b7-93182f758013" class="note">
                           <g class="notehead">
                              <use xlink:href="#E0A4-p7yls0" x="9437" y="2225" height="720px" width="720px" />
                           </g>
                           <g id="sqwri6a" class="stem">
                              <path d="M9446 2253 L9446 2837" stroke="currentColor" stroke-width="18" />
                           </g>
                        </g>
                     </g>
                     <g id="m-cf99185b-56d1-4d03-b712-0b228cc63e31" class="beam">
                        <polygon points="9822,2810 10996,2810 10996,2720 9822,2720" />
                        <polygon points="9822,2675 10216,2675 10216,2585 9822,2585" />
                        <polygon points="10216,2675 10602,2675 10602,2585 10216,2585" />
                        <polygon points="10602,2675 10996,2675 10996,2585 10602,2585" />
                        <g id="m-7ca5ac9a-3fbc-460f-86bb-cd9957f52423" class="note">
                           <g class="notehead">
                              <use xlink:href="#E0A4-p7yls0" x="9822" y="2225" height="720px" width="720px" />
                           </g>
                           <g id="s1mf1yg9" class="stem">
                              <path d="M9831 2253 L9831 2792" stroke="currentColor" stroke-width="18" />
                           </g>
                        </g>
                        <g id="m-97a6d38c-434d-4e37-b6e5-d14d36eb2ea8" class="note">
                           <g class="notehead">
                              <use xlink:href="#E0A4-p7yls0" x="10207" y="2225" height="720px" width="720px" />
                           </g>
                           <g id="s81s1qt" class="stem">
                              <path d="M10216 2253 L10216 2792" stroke="currentColor" stroke-width="18" />
                           </g>
                        </g>
                        <g id="m-87d4b4bf-7149-43ac-8518-f5a1b87a83b7" class="note">
                           <g class="notehead">
                              <use xlink:href="#E0A4-p7yls0" x="10593" y="2225" height="720px" width="720px" />
                           </g>
                           <g id="s1uebfby" class="stem">
                              <path d="M10602 2253 L10602 2792" stroke="currentColor" stroke-width="18" />
                           </g>
                        </g>
                        <g id="m-94ba03ad-08a2-4d94-93f6-966b83c5210e" class="note">
                           <g class="notehead">
                              <use xlink:href="#E0A4-p7yls0" x="10978" y="1955" height="720px" width="720px" />
                           </g>
                           <g id="s1941cpl" class="stem">
                              <path d="M10987 1983 L10987 2792" stroke="currentColor" stroke-width="18" />
                           </g>
                           <g id="al05xik" class="accid" />
                        </g>
                     </g>
                  </g>
               </g>
               <g id="ba5z67b" class="barLine">
                  <path d="M11380 1595 L11380 2315" stroke="currentColor" stroke-width="27" />
               </g>
            </g>
            <g id="m-2f0f0cca-7135-4039-bbce-a83d439291d0" class="measure">
               <g id="m-72c90dde-e87c-48b7-9256-a79848ab7cf6" class="staff">
                  <path d="M11393 1595 L17831 1595" stroke="currentColor" stroke-width="13" />
                  <path d="M11393 1775 L17831 1775" stroke="currentColor" stroke-width="13" />
                  <path d="M11393 1955 L17831 1955" stroke="currentColor" stroke-width="13" />
                  <path d="M11393 2135 L17831 2135" stroke="currentColor" stroke-width="13" />
                  <path d="M11393 2315 L17831 2315" stroke="currentColor" stroke-width="13" />
                  <g id="m-8f086033-c683-4074-a041-a9810e90bac6" class="layer">
                     <g id="m-7bb2782e-6636-4053-8c7d-34e9ecf212f7" class="rest">
                        <use xlink:href="#E4E3-p7yls0" x="11951" y="1415" height="720px" width="720px" />
                        <g class="ledgerLines">
                           <path d="M11903 1415 L12215 1415" stroke="currentColor" stroke-width="22" />
                        </g>
                     </g>
                  </g>
                  <g id="m-9843a19f-59e9-4ea1-addc-cbbb7511d3d7" class="layer">
                     <g id="m-c8ea5f32-672d-4290-af0d-4b10bbad8e8f" class="note">
                        <g class="notehead">
                           <use xlink:href="#E0A4-p7yls0" x="11584" y="1955" height="540px" width="540px" />
                        </g>
                        <g id="s1xvxr6e" class="stem">
                           <path d="M11744 1934 L11744 1505" stroke="currentColor" stroke-width="18" />
                           <g id="f1215tfn" class="flag">
                              <use xlink:href="#E240-p7yls0" x="11735" y="1505" height="540px" width="540px" />
                           </g>
                        </g>
                        <g id="ahvxdot" class="accid" />
                     </g>
                     <g id="m-f8c9ea5f-2e10-4f67-9ef8-c80d76fee84f" class="beam">
                        <polygon points="11951,2540 12902,2360 12902,2270 11951,2450" />
                        <polygon points="12508,2300 12902,2225 12902,2135 12508,2210" />
                        <g id="m-9bea244a-992c-4b14-8240-c8294ed92320" class="note">
                           <g class="notehead">
                              <use xlink:href="#E0A4-p7yls0" x="11951" y="1955" height="720px" width="720px" />
                           </g>
                           <g id="skeyana" class="stem">
                              <path d="M11960 1983 L11960 2522" stroke="currentColor" stroke-width="18" />
                           </g>
                           <g id="aaqufs8" class="accid" />
                        </g>
                        <g id="m-25bb5106-46f8-4903-a8ba-4658c4564437" class="note">
                           <g class="notehead">
                              <use xlink:href="#E0A4-p7yls0" x="12499" y="1685" height="720px" width="720px" />
                           </g>
                           <g id="st5763w" class="stem">
                              <path d="M12508 1713 L12508 2417" stroke="currentColor" stroke-width="18" />
                           </g>
                           <g id="a1tftu33" class="accid" />
                        </g>
                        <g id="m-2d9bce46-ea7d-4acf-90ce-c18ede9df928" class="note">
                           <g class="notehead">
                              <use xlink:href="#E0A4-p7yls0" x="12884" y="1685" height="720px" width="720px" />
                           </g>
                           <g id="s1m9hr5s" class="stem">
                              <path d="M12893 1713 L12893 2342" stroke="currentColor" stroke-width="18" />
                           </g>
                           <g id="ai45ytp" class="accid" />
                        </g>
                     </g>
                     <g id="m-229a1517-5330-40fa-8415-b20cab243215" class="beam">
                        <polygon points="13269,2540 14443,2540 14443,2450 13269,2450" />
                        <polygon points="13269,2405 13663,2405 13663,2315 13269,2315" />
                        <polygon points="13663,2405 14049,2405 14049,2315 13663,2315" />
                        <polygon points="14049,2405 14443,2405 14443,2315 14049,2315" />
                        <g id="m-ef118a13-0749-49b9-8eed-28bb73991a2a" class="note">
                           <g class="notehead">
                              <use xlink:href="#E0A4-p7yls0" x="13269" y="1955" height="720px" width="720px" />
                           </g>
                           <g id="s4fta5h" class="stem">
                              <path d="M13278 1983 L13278 2522" stroke="currentColor" stroke-width="18" />
                           </g>
                           <g id="a14bohje" class="accid" />
                        </g>
                        <g id="m-3d4a6e05-23e7-4278-b3ed-a052f2805e88" class="note">
                           <g class="notehead">
                              <use xlink:href="#E0A4-p7yls0" x="13654" y="1955" height="720px" width="720px" />
                           </g>
                           <g id="s1a4s8y0" class="stem">
                              <path d="M13663 1983 L13663 2522" stroke="currentColor" stroke-width="18" />
                           </g>
                           <g id="a1wqn20z" class="accid" />
                        </g>
                        <g id="m-a0c7db88-b7c6-4390-bfdc-9eefb38fb616" class="note">
                           <g class="notehead">
                              <use xlink:href="#E0A4-p7yls0" x="14040" y="1775" height="720px" width="720px" />
                           </g>
                           <g id="ss7qllf" class="stem">
                              <path d="M14049 1803 L14049 2522" stroke="currentColor" stroke-width="18" />
                           </g>
                        </g>
                        <g id="m-0da9e3b8-d3aa-4044-8913-1a4c60a364da" class="note">
                           <g class="notehead">
                              <use xlink:href="#E0A4-p7yls0" x="14425" y="1955" height="720px" width="720px" />
                           </g>
                           <g id="s15gdff8" class="stem">
                              <path d="M14434 1983 L14434 2522" stroke="currentColor" stroke-width="18" />
                           </g>
                           <g id="a1wh8tmu" class="accid" />
                        </g>
                     </g>
                     <g id="m-378659f3-0499-4fba-9e03-3c8323269ad4" class="beam">
                        <polygon points="14810,2810 15730,2810 15730,2720 14810,2720" />
                        <polygon points="14810,2675 15204,2675 15204,2585 14810,2585" />
                        <g id="m-b0d28e4d-878b-4fa7-ad62-fff6eba249ce" class="note">
                           <g class="notehead">
                              <use xlink:href="#E0A4-p7yls0" x="14810" y="1955" height="720px" width="720px" />
                           </g>
                           <g id="s1hepzsp" class="stem">
                              <path d="M14819 1983 L14819 2792" stroke="currentColor" stroke-width="18" />
                           </g>
                           <g id="a1wdo00k" class="accid" />
                        </g>
                        <g id="m-d96c369c-9d10-4760-acd6-bf3c7556b869" class="note">
                           <g class="notehead">
                              <use xlink:href="#E0A4-p7yls0" x="15195" y="1955" height="720px" width="720px" />
                           </g>
                           <g id="st20nsz" class="stem">
                              <path d="M15204 1983 L15204 2792" stroke="currentColor" stroke-width="18" />
                           </g>
                           <g id="aupr2re" class="accid" />
                        </g>
                        <g id="m-aad5f81c-1f0d-44d2-af8d-aaf20e0e537d" class="note">
                           <g class="notehead">
                              <use xlink:href="#E0A4-p7yls0" x="15712" y="1955" height="720px" width="720px" />
                           </g>
                           <g id="sgww4kh" class="stem">
                              <path d="M15721 1983 L15721 2792" stroke="currentColor" stroke-width="18" />
                              <use xlink:href="#E222-p7yls0" x="15721" y="2441" height="720px" width="720px" />
                           </g>
                           <g id="a70nmh7" class="accid" />
                        </g>
                     </g>
                     <g id="m-74f30a31-ee6b-4115-92a4-4346c51e4266" class="beam">
                        <polygon points="16260,2855 17434,2855 17434,2765 16260,2765" />
                        <polygon points="16260,2720 16654,2720 16654,2630 16260,2630" />
                        <polygon points="16654,2720 17040,2720 17040,2630 16654,2630" />
                        <polygon points="17040,2720 17434,2720 17434,2630 17040,2630" />
                        <g id="m-2e71d758-2198-43fe-870d-9551f367aeaf" class="note">
                           <g class="notehead">
                              <use xlink:href="#E0A4-p7yls0" x="16260" y="1955" height="720px" width="720px" />
                           </g>
                           <g id="scetk3p" class="stem">
                              <path d="M16269 1983 L16269 2837" stroke="currentColor" stroke-width="18" />
                           </g>
                           <g id="asyhphu" class="accid" />
                        </g>
                        <g id="m-9356661b-0fe5-4ba7-94ab-7b7677ea24ac" class="note">
                           <g class="notehead">
                              <use xlink:href="#E0A4-p7yls0" x="16645" y="1955" height="720px" width="720px" />
                           </g>
                           <g id="spcl6k5" class="stem">
                              <path d="M16654 1983 L16654 2837" stroke="currentColor" stroke-width="18" />
                           </g>
                           <g id="a1pcn61x" class="accid" />
                        </g>
                        <g id="m-139335d1-4f20-4f21-ac8b-34b984adb94e" class="note">
                           <g class="notehead">
                              <use xlink:href="#E0A4-p7yls0" x="17031" y="2225" height="720px" width="720px" />
                           </g>
                           <g id="s16596tk" class="stem">
                              <path d="M17040 2253 L17040 2837" stroke="currentColor" stroke-width="18" />
                           </g>
                        </g>
                        <g id="m-30c5ac29-a35e-4cb5-a2e1-fdf63b0d0f6d" class="note">
                           <g class="notehead">
                              <use xlink:href="#E0A4-p7yls0" x="17416" y="2225" height="720px" width="720px" />
                           </g>
                           <g id="s6ba0rp" class="stem">
                              <path d="M17425 2253 L17425 2837" stroke="currentColor" stroke-width="18" />
                           </g>
                        </g>
                     </g>
                  </g>
               </g>
               <g id="bv3qd6h" class="barLine">
                  <path d="M17818 1595 L17818 2315" stroke="currentColor" stroke-width="27" />
               </g>
            </g>
            <g id="m-eecdee46-da49-42f6-9a48-18fc3a4b293c" class="measure">
               <g id="m-2af0118e-4ec0-401c-ab76-d819bed810fd" class="staff">
                  <path d="M17831 1595 L20002 1595" stroke="currentColor" stroke-width="13" />
                  <path d="M17831 1775 L20002 1775" stroke="currentColor" stroke-width="13" />
                  <path d="M17831 1955 L20002 1955" stroke="currentColor" stroke-width="13" />
                  <path d="M17831 2135 L20002 2135" stroke="currentColor" stroke-width="13" />
                  <path d="M17831 2315 L20002 2315" stroke="currentColor" stroke-width="13" />
                  <g class="ledgerLines above">
                     <path d="M18003 1415 L18389 1415" stroke="currentColor" stroke-width="22" />
                  </g>
                  <g id="m-c809cdd7-30d0-4217-ba69-f5b1372fe2be" class="layer">
                     <g id="m-0a7af183-19d5-4238-9505-ea169d15fa91" class="note">
                        <g class="notehead">
                           <use xlink:href="#E0B5-p7yls0" x="18051" y="1415" height="720px" width="720px" />
                        </g>
                     </g>
                  </g>
                  <g id="m-8314a2d9-3158-45b2-877a-1b80c20e2e01" class="layer">
                     <g id="m-d8acc0a6-7066-4988-a300-d4d848ec9a3e" class="note">
                        <g class="notehead">
                           <use xlink:href="#E0A2-p7yls0" x="18051" y="2405" height="720px" width="720px" />
                        </g>
                     </g>
                  </g>
               </g>
               <g id="b7jx6af" class="barLine">
                  <path d="M19989 1595 L19989 2315" stroke="currentColor" stroke-width="27" />
               </g>
            </g>
            <g id="swxlveo" class="systemMilestoneEnd m-fbec76da-33f9-409f-bcb5-7ca2ffad5976" />
         </g>
         <g id="p1vxox19" class="pageMilestoneEnd m-caf874b3-6deb-45ec-9753-5abad6dbb119" />
         <g id="p1app7vy" class="pageMilestoneEnd m-17b7f992-6fa2-4c13-95ff-b71d1f1ddd16" />
         <g id="pwuxbv7" class="pgHead autogenerated">
            <text font-size="0px">
               <tspan id="ri8grc9" class="rend" x="10000" y="415" text-anchor="middle">
                  <title class="labelAttr">title</title>
                  <tspan id="rwpv80q" class="rend">
                     <tspan id="t13izu77" class="text">
                        <tspan font-size="607px">7_rock_120_beat_4-4</tspan>
                     </tspan>
                  </tspan>
                  <tspan id="li9k0su" class="lb" />
                  <tspan id="r1whoxis" class="rend">
                     <tspan id="tt1rx0l" class="text" x="10000" y="805">
                        <tspan font-size="324px">7_rock_120_beat_4-4</tspan>
                     </tspan>
                  </tspan>
               </tspan>
            </text>
         </g>
         <g id="p1fql3do" class="pgFoot autogenerated">
            <g id="f15vb2ut" class="fig">
               <g class="svg" transform="translate(7750, 28099) scale(10.000000, 10.000000)">
                  <g>
                     <path fill="#00000" d="M 17.11278,49.26451 V 10.367554 h 12.696511 c 3.288815,7.336676 6.71267,14.610456 10.127281,21.888976 3.419998,-7.484684 6.255515,-14.204887 9.58887,-21.909915 2.436207,0.103726 4.316952,0.08453 6.484294,-0.05808 V 49.264423 H 50.274275 C 50.145222,38.35639 50.016136,27.448368 49.887066,16.540329 45.003488,27.315459 39.967448,38.433564 35.083854,49.208695 34.678996,49.343717 34.426583,49.135619 34.021726,49.270644 29.46588,39.330716 24.910049,29.390805 20.354201,19.450876 20.224341,29.388756 20.09461,39.326619 19.964815,49.264497 H 17.11278 Z M 36.754144,39.324695 C 32.721221,30.512695 28.6883,21.700679 24.655394,12.888662 22.530527,12.750737 22.656775,12.71031 20.714356,12.813974 v 0.966497 c 4.612938,9.99784 9.609439,20.748709 13.87298,30.081745 0.722248,-1.512523 1.444528,-3.025014 2.166808,-4.537521 z m 25.738417,9.939815 c 0,-12.965651 0,-25.931305 0,-38.896956 10.084388,0 20.168791,0 30.253178,0 0,0.960416 0,1.920849 0,2.881265 -6.482825,0 -12.965652,0 -19.448478,0 0,4.802097 0,9.604178 0,14.406277 5.52241,0 11.044819,0 16.567229,0 0,0.960415 0,1.920832 0,2.881248 -5.52241,0 -11.044819,0 -16.567229,0 0,5.282306 0,10.564611 0,15.846917 6.963035,0 13.926068,0 20.889103,0 0,0.960416 0,1.920832 0,2.881249 -10.564597,0 -21.129207,0 -31.693803,0 z m 4.321874,-2.160937 c 0,-11.765131 0,-23.530263 0,-35.295394 -0.720312,0 -1.440625,0 -2.160937,0 0,11.765131 0,23.530263 0,35.295394 0.720312,0 1.440625,0 2.160937,0 z m 32.41413,2.160937 c 0,-12.965651 0,-25.931305 0,-38.896956 2.401045,0 4.802095,0 7.203135,0 0,12.965651 0,25.931305 0,38.896956 -2.40104,0 -4.80209,0 -7.203135,0 z m 2.881265,-2.160937 c 0,-11.765131 0,-23.530263 0,-35.295394 -0.72031,0 -1.44064,0 -2.160953,0 0,11.765131 0,23.530263 0,35.295394 0.720313,0 1.440643,0 2.160953,0 z" />
                     <path fill="#00000" d="m 346.3,6.7 c -3.1,0.5 -4.9,4.4 -2.7,6.8 1.2,1.4 2.7,2.4 4.1,3.5 -2.4,5.3 -7.7,8.3 -11.9,12.1 -3.7,2.8 -7,6.2 -9.7,9.9 -2.2,-0.8 -0.3,-6.8 -0.6,-9.5 0.1,-3.1 0.7,-6.4 2.9,-8.7 1.3,-1.9 3,-3.5 4.5,-5.2 1.2,-3.4 -3.2,-4.9 -5.8,-4.6 -7.3,-0.5 -14.6,2 -20,6.8 -5,4.6 -10,10.1 -11.5,17 -0.9,3.5 -0.2,7.5 2.8,9.9 2.5,2.8 7.4,2.9 9.8,-0.2 1.7,-2.3 3.2,-4.8 3.8,-7.6 -0.1,-2.6 -4.4,-2.3 -4.3,0.2 1.2,2.4 -0.9,4.7 -2.7,6.2 -1.7,0.9 -4.7,0.7 -4.8,-1.7 -1,-5.8 2.1,-11.3 5.2,-16.1 4,-5.8 9.8,-11.2 17.2,-11.8 1.6,0 8.1,-1.2 6.8,1.4 -2.8,2.8 -5.6,6.1 -6,10.3 -1.6,7.7 0.1,15.7 -2.3,23.2 -1.1,3.9 2,2.6 2.5,0.2 3.3,-7.4 8.9,-13.4 15.1,-18.5 4.2,-3.9 9.5,-7.1 11.9,-12.6 1.3,-3.6 1.2,-9 -2.7,-10.9 -0.6,-0.2 -1.2,-0.3 -1.8,-0.3 z m 66,14.5 c -2,0.8 -1.8,4.9 0.8,4.4 3.4,0.4 2.9,-6.2 -0.8,-4.4 z m 0.6,7.3 c -1.3,0.5 -7.6,0.5 -5.4,2.2 4,-0.3 0.7,4.5 0.6,6.7 -0.4,2.9 -2.4,5.9 -1.2,8.8 2.7,1.7 5.6,-0.8 6.8,-3.2 1.6,-1.4 -0.5,-3 -1.2,-0.9 -0.4,0.8 -2.4,3.5 -2.6,1.8 1.1,-5 2.7,-9.9 3.9,-14.9 l -0.1,-0.5 h -0.9 z m -65.1,0.2 c -6.5,1.6 -10.5,9.5 -8.2,15.7 2.1,3.4 7.4,2.9 10.1,0.4 2,-0.2 3.6,-5.3 1,-3.4 -1.4,2 -4,4.2 -6.5,2.8 -2.2,-1.9 -1.9,-5.7 1.7,-5.3 3.1,-0.9 6.9,-2.1 8.1,-5.5 0.9,-2.7 -1.6,-5.2 -4.3,-4.8 h -1.1 -0.7 z m 13.6,0 c -2.2,0 -8.5,1.8 -2.9,2.3 0.9,1.9 -1,4.9 -1.1,7.2 -0.5,2.9 -1.4,5.7 -1.7,8.7 3.7,0.7 3.8,-2.6 4.4,-5.3 0.9,-3.3 1.6,-7 4.1,-9.5 2.4,1.6 6.8,-0.7 3.7,-3.4 -2.9,-0.5 -4.8,2.4 -6.2,4.3 0,-1.2 2.4,-5 -0.2,-4.3 z m 15.8,0 c -6.4,1.3 -9.6,9.1 -7.7,14.9 1.9,4 7.7,3.9 11,1.7 4.1,-3 6,-8.9 4.4,-13.7 -1.3,-3 -4.8,-3.2 -7.6,-3 z m 17,0 c -2.3,0 -8.8,1.9 -3,2.4 0.4,2.5 -1,5.7 -1.4,8.4 -0.7,2.4 -1.8,7.5 2.1,7.2 3.8,-0.1 6.5,-3.5 8.5,-6.3 2,-3.2 4.5,-7 3.3,-10.9 -3.7,-3 -3.6,2.6 -3.1,5.1 -0.7,3.8 -2.7,7.9 -6.2,9.8 -3.6,0.6 -1,-4.3 -0.8,-6.1 0.6,-3.2 1.6,-6.3 1.9,-9.5 -0.4,0 -0.8,0 -1.1,0 z m 30.6,0 c -6.3,1.2 -9.5,8.9 -7.8,14.7 1.5,4 7.2,4.2 10.5,2.4 4.6,-2.8 6.6,-9.3 4.8,-14.3 -1.4,-2.8 -4.8,-3 -7.5,-2.8 z m -75.4,1.7 c 2.1,1.5 0.2,4.7 -1.6,5.7 -1.1,0.4 -5.5,3.4 -4.6,0.7 0.8,-2.7 2.2,-6.2 5.3,-6.6 l 0.9,0.1 z m 30.8,0 c 2.6,1.5 1.3,5.2 0.8,7.6 -0.8,2.7 -1.9,5.9 -4.7,7.1 -5.1,0.8 -4,-5.8 -2.8,-8.8 1,-2.8 3,-6.8 6.7,-5.8 z m 47.1,-0.1 c 2.9,0.7 2,4.7 1.5,6.8 -0.7,3 -1.8,6.7 -5,8 -4.7,0.8 -4,-5.1 -3,-7.9 0.9,-3 2.7,-7.3 6.5,-6.8 z m -88.1,5.9 c -0.3,1.3 0.9,-0.6 0,0 z m -1.1,2.4 c -0.2,0.5 0.5,-0.1 0,0 z m -1.3,4.5 c -0.3,1.3 0.8,-0.2 0,0 z" />
                     <text y="41" x="201" fill="#00000" style="font-style:italic;font-weight:normal;font-size:30px;line-height:125%;font-family:Times;text-anchor:middle" xml:space="preserve">engraved with</text>
                  </g>
               </g>
            </g>
         </g>
      </g>
   </svg>
</svg>
