<?xml version="1.0" encoding="UTF-8" standalone="no"?>
<svg width="2100px" height="2970px" version="1.1" xmlns="http://www.w3.org/2000/svg" xmlns:xlink="http://www.w3.org/1999/xlink" xmlns:mei="http://www.music-encoding.org/ns/mei" overflow="visible">
   <desc>Engraved by Verovio 4.4.0-66ab39c</desc>
   <defs>
      <symbol id="E084-13tuy0g" viewBox="0 0 1000 1000" overflow="inherit">
         <path transform="scale(1,-1)" d="M20 -78c84 97 114 180 134 329h170c-13 -32 -82 -132 -99 -151l-84 -97c-33 -36 -59 -63 -80 -81h162v102l127 123v-225h57v-39h-57v-34c0 -43 19 -65 57 -65v-34h-244v36c48 0 60 26 60 70v27h-203v39z" />
      </symbol>
      <symbol id="E0A4-13tuy0g" viewBox="0 0 1000 1000" overflow="inherit">
         <path transform="scale(1,-1)" d="M0 -39c0 68 73 172 200 172c66 0 114 -37 114 -95c0 -84 -106 -171 -218 -171c-64 0 -96 30 -96 94z" />
      </symbol>
      <symbol id="E0A9-13tuy0g" viewBox="0 0 1000 1000" overflow="inherit">
         <path transform="scale(1,-1)" d="M0 -110c0 4 1 8 5 11l119 99l-119 100c-3 3 -5 8 -5 12c0 6 5 13 12 13c3 0 6 -1 8 -2l124 -105l126 105c2 1 5 2 7 2c6 0 13 -6 13 -14c0 -4 -2 -9 -5 -11l-119 -100l119 -99c3 -3 5 -7 5 -12c0 -6 -5 -14 -13 -14c-2 0 -5 1 -7 3l-126 105l-124 -105c-2 -2 -4 -3 -7 -3 c-8 0 -13 7 -13 15z" />
      </symbol>
      <symbol id="E4E4-13tuy0g" viewBox="0 0 1000 1000" overflow="inherit">
         <path transform="scale(1,-1)" d="M0 10v105c0 9 1 10 10 10h280c9 0 10 -1 10 -10v-105c0 -9 -1 -10 -10 -10h-280c-9 0 -10 1 -10 10z" />
      </symbol>
      <symbol id="E222-13tuy0g" viewBox="0 0 1000 1000" overflow="inherit">
         <path transform="scale(1,-1)" d="M-163 -200l326 150v-100l-326 -150v100zM-163 150l326 150v-100l-326 -150v100zM-163 -25l326 150v-100l-326 -150v100z" />
      </symbol>
      <symbol id="E069-13tuy0g" viewBox="0 0 1000 1000" overflow="inherit">
         <path transform="scale(1,-1)" d="M200 250h125v-500h-125v500zM0 250h125v-500h-125v500z" />
      </symbol>
   </defs>
   <style type="text/css">g.page-margin{font-family:Times,serif;} g.ending, g.fing, g.reh, g.tempo{font-weight:bold;} g.dir, g.dynam, g.mNum{font-style:italic;} g.label{font-weight:normal;}</style>
   <svg class="definition-scale" color="black" viewBox="0 0 21000 29700">
      <g class="page-margin" transform="translate(500, 500)">
         <g id="m-76efaebb-6fa7-48fe-8d9c-b21c4d0d9ed8" class="mdiv pageMilestone" />
         <g id="m-b121f26b-e573-435c-a9d7-3cd05d786c8b" class="score pageMilestone" />
         <g id="shjhe2m" class="system">
            <g id="m-2c8b1e84-789c-494f-8f10-a7a843942cb6" class="section systemMilestone" />
            <g id="m-37b09824-b6ef-4913-9495-1f34002f49a4" class="measure">
               <g id="m-61b937a8-deae-4a30-aca4-e6928c73a2e2" class="staff">
                  <path d="M0 1605 L5029 1605" stroke="currentColor" stroke-width="13" />
                  <path d="M0 1785 L5029 1785" stroke="currentColor" stroke-width="13" />
                  <path d="M0 1965 L5029 1965" stroke="currentColor" stroke-width="13" />
                  <path d="M0 2145 L5029 2145" stroke="currentColor" stroke-width="13" />
                  <path d="M0 2325 L5029 2325" stroke="currentColor" stroke-width="13" />
                  <g id="crxdwxu" class="clef">
                     <use xlink:href="#E069-13tuy0g" x="90" y="1965" height="720px" width="720px" />
                  </g>
                  <g id="ki3bny7" class="keySig" />
                  <g id="mbb412i" class="meterSig">
                     <use xlink:href="#E084-13tuy0g" x="490" y="1785" height="720px" width="720px" />
                     <use xlink:href="#E084-13tuy0g" x="490" y="2145" height="720px" width="720px" />
                  </g>
                  <g id="m-62acaeae-c7c4-4d63-ac8f-949ed8d2fedf" class="layer">
                     <g id="m-f6aeaf1b-0766-446e-a20a-6c3220393c18" class="beam">
                        <polygon points="1242,1065 1892,1065 1892,1155 1242,1155" />
                        <g id="m-f27d016e-36f2-4bdc-9b99-4d3b8fe4bc5d" class="note">
                           <g class="notehead">
                              <use xlink:href="#E0A9-13tuy0g" x="1052" y="1515" height="720px" width="720px" />
                           </g>
                           <g id="s1jcbrzw" class="stem">
                              <path d="M1251 1436 L1251 1083" stroke="currentColor" stroke-width="18" />
                           </g>
                        </g>
                        <g id="m-44f4765a-0c39-4070-888a-c412d4f55793" class="note">
                           <g class="notehead">
                              <use xlink:href="#E0A9-13tuy0g" x="1684" y="1515" height="720px" width="720px" />
                           </g>
                           <g id="sgy301j" class="stem">
                              <path d="M1883 1436 L1883 1083" stroke="currentColor" stroke-width="18" />
                           </g>
                        </g>
                     </g>
                     <g id="m-045930dc-4a66-4925-aae4-1f8583269baa" class="note">
                        <g class="notehead">
                           <use xlink:href="#E0A9-13tuy0g" x="2134" y="1515" height="720px" width="720px" />
                        </g>
                        <g id="s1fovvp3" class="stem">
                           <path d="M2333 1436 L2333 1065" stroke="currentColor" stroke-width="18" />
                        </g>
                     </g>
                     <g id="m-e8a3ec2e-39f9-4141-8d32-8772245c7de7" class="beam">
                        <polygon points="3224,1065 3692,1065 3692,1155 3224,1155" />
                        <g id="m-6733e9ca-9ed7-4c1e-b48d-60b943ea3fd3" class="note">
                           <g class="notehead">
                              <use xlink:href="#E0A9-13tuy0g" x="3034" y="1515" height="720px" width="720px" />
                           </g>
                           <g id="s9iyp5a" class="stem">
                              <path d="M3233 1436 L3233 1083" stroke="currentColor" stroke-width="18" />
                           </g>
                        </g>
                        <g id="m-4f710db1-ba17-48c7-8765-b6c13fb9d7bb" class="note">
                           <g class="notehead">
                              <use xlink:href="#E0A9-13tuy0g" x="3484" y="1515" height="720px" width="720px" />
                           </g>
                           <g id="s36r9n5" class="stem">
                              <path d="M3683 1436 L3683 1083" stroke="currentColor" stroke-width="18" />
                           </g>
                        </g>
                     </g>
                     <g id="m-354588ce-c3a9-4f04-ae9a-324d5107812d" class="note">
                        <g class="notehead">
                           <use xlink:href="#E0A9-13tuy0g" x="4116" y="1515" height="720px" width="720px" />
                        </g>
                        <g id="sf24wnn" class="stem">
                           <path d="M4315 1436 L4315 1065" stroke="currentColor" stroke-width="18" />
                        </g>
                     </g>
                  </g>
                  <g id="m-e7e8523d-09c4-4c30-a1b5-a6a4a09f3971" class="layer">
                     <g id="m-4710ac0e-3104-411e-bdbf-efbaf7986234" class="beam">
                        <polygon points="1052,3000 1702,3000 1702,2910 1052,2910" />
                        <polygon points="1052,2865 1377,2865 1377,2775 1052,2775" />
                        <g id="m-1afe9b29-4d3c-4e0a-b56c-b9d21e1b6063" class="note">
                           <g class="notehead">
                              <use xlink:href="#E0A4-13tuy0g" x="1052" y="1965" height="720px" width="720px" />
                           </g>
                           <g id="s1wuqbey" class="stem">
                              <path d="M1061 1993 L1061 2982" stroke="currentColor" stroke-width="18" />
                           </g>
                           <g id="a1rs5p43" class="accid" />
                        </g>
                        <g id="m-2da8a2ce-302a-4c8a-9b3c-317b9a298a09" class="note">
                           <g class="notehead">
                              <use xlink:href="#E0A4-13tuy0g" x="1368" y="2415" height="720px" width="720px" />
                           </g>
                           <g id="s1ft42ps" class="stem">
                              <path d="M1377 2443 L1377 2982" stroke="currentColor" stroke-width="18" />
                           </g>
                        </g>
                        <g id="m-5b4f6d2e-baa7-4548-913c-b88f3c6a82f2" class="note">
                           <g class="notehead">
                              <use xlink:href="#E0A4-13tuy0g" x="1684" y="2415" height="720px" width="720px" />
                           </g>
                           <g id="syruajx" class="stem">
                              <path d="M1693 2443 L1693 2982" stroke="currentColor" stroke-width="18" />
                           </g>
                        </g>
                     </g>
                     <g id="m-1dc30e50-6e8c-4239-b256-c3f2c7e50d65" class="beam">
                        <polygon points="2134,2865 2602,2865 2602,2775 2134,2775" />
                        <g id="m-f7eab450-1683-455a-b09e-e780d56d1611" class="chord">
                           <g id="s4h0qz5" class="stem">
                              <path d="M2143 1993 L2143 2847" stroke="currentColor" stroke-width="18" />
                           </g>
                           <g id="m-25a58d7e-02df-4eaf-9796-89fee22082d7" class="note">
                              <g class="notehead">
                                 <use xlink:href="#E0A4-13tuy0g" x="2134" y="2415" height="720px" width="720px" />
                              </g>
                           </g>
                           <g id="m-3edb690d-60fb-44b8-b924-d66e50d62b81" class="note">
                              <g class="notehead">
                                 <use xlink:href="#E0A4-13tuy0g" x="2134" y="1965" height="720px" width="720px" />
                              </g>
                              <g id="a1ysyuvx" class="accid" />
                           </g>
                        </g>
                        <g id="m-2cd89352-454d-41c8-9785-80bec696307f" class="note">
                           <g class="notehead">
                              <use xlink:href="#E0A4-13tuy0g" x="2584" y="2415" height="720px" width="720px" />
                           </g>
                           <g id="s1beekph" class="stem">
                              <path d="M2593 2443 L2593 2847" stroke="currentColor" stroke-width="18" />
                           </g>
                        </g>
                     </g>
                     <g id="m-5e2a332c-b7a2-4d81-a376-ef00f47dea4d" class="beam">
                        <polygon points="3034,3000 3818,3000 3818,2910 3034,2910" />
                        <polygon points="3493,2865 3818,2865 3818,2775 3493,2775" />
                        <g id="m-d5f42dbc-5b76-4f78-94ce-547893ca4fd3" class="note">
                           <g class="notehead">
                              <use xlink:href="#E0A4-13tuy0g" x="3034" y="1965" height="720px" width="720px" />
                           </g>
                           <g id="sexx280" class="stem">
                              <path d="M3043 1993 L3043 2982" stroke="currentColor" stroke-width="18" />
                           </g>
                           <g id="al9x2nh" class="accid" />
                        </g>
                        <g id="m-bfbedabe-becf-4ddd-b210-9b201aa8b9d0" class="note">
                           <g class="notehead">
                              <use xlink:href="#E0A4-13tuy0g" x="3484" y="2415" height="720px" width="720px" />
                           </g>
                           <g id="s1xwt0rv" class="stem">
                              <path d="M3493 2443 L3493 2982" stroke="currentColor" stroke-width="18" />
                           </g>
                        </g>
                        <g id="m-3fa7f491-002d-457a-be5a-539d27b973db" class="note">
                           <g class="notehead">
                              <use xlink:href="#E0A4-13tuy0g" x="3800" y="2415" height="720px" width="720px" />
                           </g>
                           <g id="s1yxok2" class="stem">
                              <path d="M3809 2443 L3809 2982" stroke="currentColor" stroke-width="18" />
                           </g>
                        </g>
                     </g>
                     <g id="m-66b1c2cf-b65f-4dd3-9e23-3fd52aa8d739" class="beam">
                        <polygon points="4116,2865 4584,2910 4584,2820 4116,2775" />
                        <g id="m-2530de17-642d-49fd-b205-d958f1f8ec9b" class="note">
                           <g class="notehead">
                              <use xlink:href="#E0A4-13tuy0g" x="4116" y="1965" height="720px" width="720px" />
                           </g>
                           <g id="sbg2yb7" class="stem">
                              <path d="M4125 1993 L4125 2847" stroke="currentColor" stroke-width="18" />
                           </g>
                           <g id="a5cjyef" class="accid" />
                        </g>
                        <g id="m-50c7e4b2-1a5f-4bee-9639-77a955286bfa" class="note">
                           <g class="notehead">
                              <use xlink:href="#E0A4-13tuy0g" x="4566" y="2415" height="720px" width="720px" />
                           </g>
                           <g id="sibi8nt" class="stem">
                              <path d="M4575 2443 L4575 2892" stroke="currentColor" stroke-width="18" />
                           </g>
                        </g>
                     </g>
                  </g>
               </g>
               <g id="bbbqk42" class="barLine">
                  <path d="M5016 1605 L5016 2325" stroke="currentColor" stroke-width="27" />
               </g>
            </g>
            <g id="m-2f989721-0392-4161-bfbd-d196a98ccdcd" class="measure">
               <g id="m-4e3a10aa-2aed-4e55-a44f-58df5f4f12d4" class="staff">
                  <path d="M5029 1605 L10411 1605" stroke="currentColor" stroke-width="13" />
                  <path d="M5029 1785 L10411 1785" stroke="currentColor" stroke-width="13" />
                  <path d="M5029 1965 L10411 1965" stroke="currentColor" stroke-width="13" />
                  <path d="M5029 2145 L10411 2145" stroke="currentColor" stroke-width="13" />
                  <path d="M5029 2325 L10411 2325" stroke="currentColor" stroke-width="13" />
                  <g id="m-59bdebac-aaac-48dd-a119-4213a3fab33d" class="layer">
                     <g id="m-ed4f8ffb-c64f-460e-ba21-84e138063b8a" class="beam">
                        <polygon points="5399,1065 5867,1065 5867,1155 5399,1155" />
                        <g id="m-71b3cb45-209f-4d51-b57e-254bbf3a3770" class="note">
                           <g class="notehead">
                              <use xlink:href="#E0A9-13tuy0g" x="5209" y="1515" height="720px" width="720px" />
                           </g>
                           <g id="s1ct83t" class="stem">
                              <path d="M5408 1436 L5408 1083" stroke="currentColor" stroke-width="18" />
                           </g>
                        </g>
                        <g id="m-6092c339-44f8-46cc-8bcd-93d45c1cea20" class="note">
                           <g class="notehead">
                              <use xlink:href="#E0A9-13tuy0g" x="5659" y="1515" height="720px" width="720px" />
                           </g>
                           <g id="scg7e3d" class="stem">
                              <path d="M5858 1436 L5858 1083" stroke="currentColor" stroke-width="18" />
                           </g>
                        </g>
                     </g>
                     <g id="m-65279b6e-6fa9-4083-b458-58be5d359fd1" class="beam">
                        <polygon points="6299,1065 7265,1065 7265,1155 6299,1155" />
                        <g id="m-df391c7c-b7cd-4fdb-bb73-25ec9fb3aec3" class="note">
                           <g class="notehead">
                              <use xlink:href="#E0A9-13tuy0g" x="6109" y="1515" height="720px" width="720px" />
                           </g>
                           <g id="s1o03cah" class="stem">
                              <path d="M6308 1436 L6308 1083" stroke="currentColor" stroke-width="18" />
                           </g>
                        </g>
                        <g id="m-4d126472-e475-4313-9e59-1f24b330cd2c" class="note">
                           <g class="notehead">
                              <use xlink:href="#E0A9-13tuy0g" x="7057" y="1515" height="720px" width="720px" />
                           </g>
                           <g id="s1l781ke" class="stem">
                              <path d="M7256 1436 L7256 1083" stroke="currentColor" stroke-width="18" />
                           </g>
                        </g>
                     </g>
                     <g id="m-9cf20e69-2668-4d88-b80d-657d37ffedec" class="note">
                        <g class="notehead">
                           <use xlink:href="#E0A9-13tuy0g" x="7689" y="1515" height="720px" width="720px" />
                        </g>
                        <g id="sshw2sa" class="stem">
                           <path d="M7888 1436 L7888 1065" stroke="currentColor" stroke-width="18" />
                        </g>
                     </g>
                     <g id="m-c6c3a77f-ba93-4b2e-9818-c09446fc0119" class="beam">
                        <polygon points="9442,1065 10156,1065 10156,1155 9442,1155" />
                        <g id="m-a28ff675-3d90-44b3-b478-c1192914ed49" class="note">
                           <g class="notehead">
                              <use xlink:href="#E0A9-13tuy0g" x="9252" y="1515" height="720px" width="720px" />
                           </g>
                           <g id="si49sve" class="stem">
                              <path d="M9451 1436 L9451 1083" stroke="currentColor" stroke-width="18" />
                           </g>
                        </g>
                        <g id="m-900c14df-8ae1-47d7-a31b-f2ab3ddbcf0d" class="note">
                           <g class="notehead">
                              <use xlink:href="#E0A9-13tuy0g" x="9948" y="1515" height="720px" width="720px" />
                           </g>
                           <g id="s16ma3pe" class="stem">
                              <path d="M10147 1436 L10147 1083" stroke="currentColor" stroke-width="18" />
                           </g>
                        </g>
                     </g>
                  </g>
                  <g id="m-a1919135-580f-4f83-851d-184bfde295a4" class="layer">
                     <g id="m-13fd8fb5-66b9-4d80-916e-f96592b1137a" class="beam">
                        <polygon points="5209,2865 5677,2910 5677,2820 5209,2775" />
                        <g id="m-affbd5fd-59fb-4cb4-ab12-3f400671e04b" class="note">
                           <g class="notehead">
                              <use xlink:href="#E0A4-13tuy0g" x="5209" y="1965" height="720px" width="720px" />
                           </g>
                           <g id="s1mojigo" class="stem">
                              <path d="M5218 1993 L5218 2847" stroke="currentColor" stroke-width="18" />
                           </g>
                           <g id="a1yes559" class="accid" />
                        </g>
                        <g id="m-e7804309-6605-49ab-a883-1b2b720b5133" class="note">
                           <g class="notehead">
                              <use xlink:href="#E0A4-13tuy0g" x="5659" y="2415" height="720px" width="720px" />
                           </g>
                           <g id="su02ce9" class="stem">
                              <path d="M5668 2443 L5668 2892" stroke="currentColor" stroke-width="18" />
                           </g>
                        </g>
                     </g>
                     <g id="m-79f485e3-3c7c-4819-b5a7-408bf1c2c79d" class="beam">
                        <polygon points="6109,3045 7391,3045 7391,2955 6109,2955" />
                        <polygon points="6109,2910 6434,2910 6434,2820 6109,2820" />
                        <polygon points="6434,2910 6750,2910 6750,2820 6434,2820" />
                        <polygon points="6750,2910 7066,2910 7066,2820 6750,2820" />
                        <polygon points="7066,2910 7391,2910 7391,2820 7066,2820" />
                        <polygon points="6434,2775 6750,2775 6750,2685 6434,2685" />
                        <g id="m-db441295-2cea-4717-8af8-ef931a6fe131" class="note">
                           <g class="notehead">
                              <use xlink:href="#E0A4-13tuy0g" x="6109" y="1965" height="720px" width="720px" />
                           </g>
                           <g id="s4hr2eo" class="stem">
                              <path d="M6118 1993 L6118 3027" stroke="currentColor" stroke-width="18" />
                           </g>
                           <g id="apluxda" class="accid" />
                        </g>
                        <g id="m-ea521c51-58b3-4a32-ae4d-a1c76caa7890" class="note">
                           <g class="notehead">
                              <use xlink:href="#E0A4-13tuy0g" x="6425" y="1965" height="720px" width="720px" />
                           </g>
                           <g id="s1ac9tey" class="stem">
                              <path d="M6434 1993 L6434 3027" stroke="currentColor" stroke-width="18" />
                           </g>
                           <g id="ac1m6sj" class="accid" />
                        </g>
                        <g id="m-6a172ada-8198-4fbd-8477-c1a361b805e4" class="note">
                           <g class="notehead">
                              <use xlink:href="#E0A4-13tuy0g" x="6741" y="1965" height="720px" width="720px" />
                           </g>
                           <g id="sall4cb" class="stem">
                              <path d="M6750 1993 L6750 3027" stroke="currentColor" stroke-width="18" />
                           </g>
                           <g id="aycwp8v" class="accid" />
                        </g>
                        <g id="m-5fdbbb04-99c9-4f26-9b5b-786fa9c6c691" class="note">
                           <g class="notehead">
                              <use xlink:href="#E0A4-13tuy0g" x="7057" y="2415" height="720px" width="720px" />
                           </g>
                           <g id="s1pu31ub" class="stem">
                              <path d="M7066 2443 L7066 3027" stroke="currentColor" stroke-width="18" />
                           </g>
                        </g>
                        <g id="m-615f1b7f-9782-4b6d-96f4-9801d2bb83e5" class="note">
                           <g class="notehead">
                              <use xlink:href="#E0A4-13tuy0g" x="7373" y="2415" height="720px" width="720px" />
                           </g>
                           <g id="s152alb1" class="stem">
                              <path d="M7382 2443 L7382 3027" stroke="currentColor" stroke-width="18" />
                           </g>
                        </g>
                     </g>
                     <g id="m-520a5330-efa8-42d1-86fc-afae35ea6011" class="beam">
                        <polygon points="7689,2775 8820,2955 8820,2865 7689,2685" />
                        <polygon points="7689,2640 8014,2692 8014,2602 7689,2550" />
                        <polygon points="8014,2692 8438,2760 8438,2670 8014,2602" />
                        <polygon points="7689,2505 8014,2557 8014,2467 7689,2415" />
                        <g id="m-0955aad8-e452-44b7-b378-248a0abec00c" class="note">
                           <g class="notehead">
                              <use xlink:href="#E0A4-13tuy0g" x="7689" y="1965" height="720px" width="720px" />
                           </g>
                           <g id="s1t44ix9" class="stem">
                              <path d="M7698 1993 L7698 2757" stroke="currentColor" stroke-width="18" />
                           </g>
                           <g id="a1lzc5m8" class="accid" />
                        </g>
                        <g id="m-d39ef131-4223-4a98-987d-0286c27d137d" class="note">
                           <g class="notehead">
                              <use xlink:href="#E0A4-13tuy0g" x="8005" y="1965" height="720px" width="720px" />
                           </g>
                           <g id="stjeyuj" class="stem">
                              <path d="M8014 1993 L8014 2809" stroke="currentColor" stroke-width="18" />
                           </g>
                           <g id="a17axrli" class="accid" />
                        </g>
                        <g id="m-549c5d87-63c7-4708-b3e6-055a090a297b" class="note">
                           <g class="notehead">
                              <use xlink:href="#E0A4-13tuy0g" x="8429" y="1965" height="720px" width="720px" />
                           </g>
                           <g id="s5awepl" class="stem">
                              <path d="M8438 1993 L8438 2877" stroke="currentColor" stroke-width="18" />
                              <use xlink:href="#E222-13tuy0g" x="8438" y="2451" height="720px" width="720px" />
                           </g>
                           <g id="a1sksau" class="accid" />
                        </g>
                        <g id="m-8df68b14-d9fd-46fb-9a39-a055109ccc70" class="chord">
                           <g id="s1ygqlb1" class="stem">
                              <path d="M8811 1993 L8811 2937" stroke="currentColor" stroke-width="18" />
                           </g>
                           <g id="m-5326a59f-b733-4b7f-88cb-958bfc3596a6" class="note">
                              <g class="notehead">
                                 <use xlink:href="#E0A4-13tuy0g" x="8802" y="1965" height="720px" width="720px" />
                              </g>
                              <g id="ads4oad" class="accid" />
                           </g>
                           <g id="m-b6f44db9-43ce-4daa-849e-fbbc0937f1a2" class="note">
                              <g class="notehead">
                                 <use xlink:href="#E0A4-13tuy0g" x="8802" y="2415" height="720px" width="720px" />
                              </g>
                           </g>
                        </g>
                     </g>
                     <g id="m-84841c80-5af5-4441-90e2-eebc76681941" class="beam">
                        <polygon points="9252,2685 9966,2865 9966,2775 9252,2595" />
                        <polygon points="9252,2550 9577,2632 9577,2542 9252,2460" />
                        <polygon points="9252,2415 9478,2474 9478,2384 9252,2325" />
                        <g id="m-b730d1bb-ab55-425c-b09b-5c65a3cf08ec" class="note">
                           <g class="notehead">
                              <use xlink:href="#E0A4-13tuy0g" x="9252" y="1965" height="720px" width="720px" />
                           </g>
                           <g id="sr0gres" class="stem">
                              <path d="M9261 1993 L9261 2667" stroke="currentColor" stroke-width="18" />
                           </g>
                           <g id="a1j3kk7t" class="accid" />
                        </g>
                        <g id="m-673c830e-f219-4d9b-8797-92fe00a20688" class="note">
                           <g class="notehead">
                              <use xlink:href="#E0A4-13tuy0g" x="9568" y="1965" height="720px" width="720px" />
                           </g>
                           <g id="d21ylmf" class="dots">
                              <ellipse cx="9884" cy="2055" rx="36" ry="36" />
                           </g>
                           <g id="s12ftyal" class="stem">
                              <path d="M9577 1993 L9577 2749" stroke="currentColor" stroke-width="18" />
                           </g>
                           <g id="ar1ql7d" class="accid" />
                        </g>
                        <g id="m-ccca3243-0680-49ee-9a05-72b40201b724" class="note">
                           <g class="notehead">
                              <use xlink:href="#E0A4-13tuy0g" x="9948" y="2415" height="720px" width="720px" />
                           </g>
                           <g id="s1gjj20s" class="stem">
                              <path d="M9957 2443 L9957 2847" stroke="currentColor" stroke-width="18" />
                           </g>
                        </g>
                     </g>
                  </g>
               </g>
               <g id="b1xs4sar" class="barLine">
                  <path d="M10398 1605 L10398 2325" stroke="currentColor" stroke-width="27" />
               </g>
            </g>
            <g id="m-98937ed9-2616-4ac9-84fa-1285510b05f2" class="measure">
               <g id="m-7cbac5cc-18c2-4b64-a5fd-aca32e40f34a" class="staff">
                  <path d="M10411 1605 L14568 1605" stroke="currentColor" stroke-width="13" />
                  <path d="M10411 1785 L14568 1785" stroke="currentColor" stroke-width="13" />
                  <path d="M10411 1965 L14568 1965" stroke="currentColor" stroke-width="13" />
                  <path d="M10411 2145 L14568 2145" stroke="currentColor" stroke-width="13" />
                  <path d="M10411 2325 L14568 2325" stroke="currentColor" stroke-width="13" />
                  <g id="m-d9b65f52-38c4-40b8-a9b3-8d6d893ffd1e" class="layer">
                     <g id="m-25a51d58-5cf0-4150-a0b3-9e8747cce472" class="beam">
                        <polygon points="10781,1065 11249,1065 11249,1155 10781,1155" />
                        <g id="m-0178faa1-8a9c-4cce-a265-94883405730b" class="note">
                           <g class="notehead">
                              <use xlink:href="#E0A9-13tuy0g" x="10591" y="1515" height="720px" width="720px" />
                           </g>
                           <g id="s133tsoo" class="stem">
                              <path d="M10790 1436 L10790 1083" stroke="currentColor" stroke-width="18" />
                           </g>
                        </g>
                        <g id="m-813ff3d5-63ab-4c12-95c6-876fb8ca731d" class="note">
                           <g class="notehead">
                              <use xlink:href="#E0A9-13tuy0g" x="11041" y="1515" height="720px" width="720px" />
                           </g>
                           <g id="s5s9o8l" class="stem">
                              <path d="M11240 1436 L11240 1083" stroke="currentColor" stroke-width="18" />
                           </g>
                        </g>
                     </g>
                     <g id="m-5efaa784-c8d6-4177-82b8-ffd6bb0edb4c" class="beam">
                        <polygon points="11681,1065 12149,1065 12149,1155 11681,1155" />
                        <g id="m-c455533c-aca4-4e90-99bf-4f7b2a68ffd6" class="note">
                           <g class="notehead">
                              <use xlink:href="#E0A9-13tuy0g" x="11491" y="1515" height="720px" width="720px" />
                           </g>
                           <g id="ss90xk2" class="stem">
                              <path d="M11690 1436 L11690 1083" stroke="currentColor" stroke-width="18" />
                           </g>
                        </g>
                        <g id="m-3b26ed47-dadf-41a0-82b3-2e1e9963a2b5" class="note">
                           <g class="notehead">
                              <use xlink:href="#E0A9-13tuy0g" x="11941" y="1515" height="720px" width="720px" />
                           </g>
                           <g id="s4ragxi" class="stem">
                              <path d="M12140 1436 L12140 1083" stroke="currentColor" stroke-width="18" />
                           </g>
                        </g>
                     </g>
                     <g id="m-23a2d276-cba3-4784-a447-858f1da7a567" class="rest">
                        <use xlink:href="#E4E4-13tuy0g" x="12391" y="1425" height="720px" width="720px" />
                        <g class="ledgerLines">
                           <path d="M12343 1425 L12655 1425" stroke="currentColor" stroke-width="22" />
                        </g>
                     </g>
                  </g>
                  <g id="m-720ea214-cd80-4c5e-9240-08c2d872d52d" class="layer">
                     <g id="m-ff770260-aa24-4e9a-b7dc-7cff54fdb15d" class="beam">
                        <polygon points="10591,2865 11059,2910 11059,2820 10591,2775" />
                        <g id="m-abd806d2-64db-48ad-8f94-ed6db8face17" class="note">
                           <g class="notehead">
                              <use xlink:href="#E0A4-13tuy0g" x="10591" y="1965" height="720px" width="720px" />
                           </g>
                           <g id="sgz8zxh" class="stem">
                              <path d="M10600 1993 L10600 2847" stroke="currentColor" stroke-width="18" />
                           </g>
                           <g id="ao0d0n9" class="accid" />
                        </g>
                        <g id="m-432f9ea0-9309-4ab4-b5df-82dbe9c95a31" class="note">
                           <g class="notehead">
                              <use xlink:href="#E0A4-13tuy0g" x="11041" y="2415" height="720px" width="720px" />
                           </g>
                           <g id="s1b5auj1" class="stem">
                              <path d="M11050 2443 L11050 2892" stroke="currentColor" stroke-width="18" />
                           </g>
                        </g>
                     </g>
                     <g id="m-0b4252cb-fbec-4ab6-b80f-9a317862208a" class="note">
                        <g class="notehead">
                           <use xlink:href="#E0A4-13tuy0g" x="11491" y="1965" height="720px" width="720px" />
                        </g>
                        <g id="s1oozq2n" class="stem">
                           <path d="M11500 1993 L11500 2565" stroke="currentColor" stroke-width="18" />
                        </g>
                        <g id="akphi9n" class="accid" />
                     </g>
                     <g id="m-a3b338f6-654f-4e2d-9b33-bf62da0f93f0" class="beam">
                        <polygon points="12391,2820 13175,2640 13175,2550 12391,2730" />
                        <polygon points="12850,2580 13175,2505 13175,2415 12850,2490" />
                        <g id="m-7229470d-0dfc-4522-b683-76a30515f72c" class="note">
                           <g class="notehead">
                              <use xlink:href="#E0A4-13tuy0g" x="12391" y="1965" height="720px" width="720px" />
                           </g>
                           <g id="s137m6ye" class="stem">
                              <path d="M12400 1993 L12400 2802" stroke="currentColor" stroke-width="18" />
                              <use xlink:href="#E222-13tuy0g" x="12400" y="2451" height="720px" width="720px" />
                           </g>
                           <g id="a1rebrij" class="accid" />
                        </g>
                        <g id="m-410da5c8-dd8c-48d6-aa64-e356a803e9d5" class="note">
                           <g class="notehead">
                              <use xlink:href="#E0A4-13tuy0g" x="12841" y="1695" height="720px" width="720px" />
                           </g>
                           <g id="s1m89i3m" class="stem">
                              <path d="M12850 1723 L12850 2697" stroke="currentColor" stroke-width="18" />
                           </g>
                           <g id="an294wq" class="accid" />
                        </g>
                        <g id="m-ce819ce1-3e1e-4f59-857d-8258705a3a8a" class="note">
                           <g class="notehead">
                              <use xlink:href="#E0A4-13tuy0g" x="13157" y="1695" height="720px" width="720px" />
                           </g>
                           <g id="s10i9r5c" class="stem">
                              <path d="M13166 1723 L13166 2622" stroke="currentColor" stroke-width="18" />
                           </g>
                           <g id="avyzcpg" class="accid" />
                        </g>
                     </g>
                     <g id="m-3f1a467e-1858-494e-8d01-a13970a7698c" class="beam">
                        <polygon points="13473,2550 14123,2730 14123,2640 13473,2460" />
                        <polygon points="13473,2415 13798,2505 13798,2415 13473,2325" />
                        <g id="m-b6a8f02e-952c-4e77-8847-97fd118ff2a7" class="note">
                           <g class="notehead">
                              <use xlink:href="#E0A4-13tuy0g" x="13473" y="1785" height="720px" width="720px" />
                           </g>
                           <g id="s17p68b6" class="stem">
                              <path d="M13482 1813 L13482 2532" stroke="currentColor" stroke-width="18" />
                           </g>
                        </g>
                        <g id="m-bb82fa64-bec1-4d25-b21f-128975324868" class="note">
                           <g class="notehead">
                              <use xlink:href="#E0A4-13tuy0g" x="13789" y="1785" height="720px" width="720px" />
                           </g>
                           <g id="s1bc1c1u" class="stem">
                              <path d="M13798 1813 L13798 2622" stroke="currentColor" stroke-width="18" />
                           </g>
                        </g>
                        <g id="m-4835b643-031c-420a-965e-5c5a87262ba7" class="note">
                           <g class="notehead">
                              <use xlink:href="#E0A4-13tuy0g" x="14105" y="2235" height="720px" width="720px" />
                           </g>
                           <g id="s1x3d2zd" class="stem">
                              <path d="M14114 2263 L14114 2712" stroke="currentColor" stroke-width="18" />
                           </g>
                        </g>
                     </g>
                  </g>
               </g>
               <g id="brxbejp" class="barLine">
                  <path d="M14555 1605 L14555 2325" stroke="currentColor" stroke-width="27" />
               </g>
            </g>
            <g id="s1siirp8" class="systemMilestoneEnd m-2c8b1e84-789c-494f-8f10-a7a843942cb6" />
         </g>
         <g id="pn8skse" class="pageMilestoneEnd m-b121f26b-e573-435c-a9d7-3cd05d786c8b" />
         <g id="ppw75jh" class="pageMilestoneEnd m-76efaebb-6fa7-48fe-8d9c-b21c4d0d9ed8" />
         <g id="pcltgev" class="pgHead autogenerated">
            <text font-size="0px">
               <tspan id="r1swzjjz" class="rend" x="10000" y="416" text-anchor="middle">
                  <title class="labelAttr">title</title>
                  <tspan id="r3tubh6" class="rend">
                     <tspan id="twf3o8c" class="text">
                        <tspan font-size="607px">16_rock_120_beat_4-4</tspan>
                     </tspan>
                  </tspan>
                  <tspan id="l8p71tk" class="lb" />
                  <tspan id="r96t87l" class="rend">
                     <tspan id="t1w1kwkp" class="text" x="10000" y="806">
                        <tspan font-size="324px">16_rock_120_beat_4-4</tspan>
                     </tspan>
                  </tspan>
               </tspan>
            </text>
         </g>
         <g id="pxp9tpj" class="pgFoot autogenerated">
            <g id="f1704h6w" class="fig">
               <g class="svg" transform="translate(7750, 28099) scale(10.000000, 10.000000)">
                  <g>
                     <path fill="#00000" d="M 17.11278,49.26451 V 10.367554 h 12.696511 c 3.288815,7.336676 6.71267,14.610456 10.127281,21.888976 3.419998,-7.484684 6.255515,-14.204887 9.58887,-21.909915 2.436207,0.103726 4.316952,0.08453 6.484294,-0.05808 V 49.264423 H 50.274275 C 50.145222,38.35639 50.016136,27.448368 49.887066,16.540329 45.003488,27.315459 39.967448,38.433564 35.083854,49.208695 34.678996,49.343717 34.426583,49.135619 34.021726,49.270644 29.46588,39.330716 24.910049,29.390805 20.354201,19.450876 20.224341,29.388756 20.09461,39.326619 19.964815,49.264497 H 17.11278 Z M 36.754144,39.324695 C 32.721221,30.512695 28.6883,21.700679 24.655394,12.888662 22.530527,12.750737 22.656775,12.71031 20.714356,12.813974 v 0.966497 c 4.612938,9.99784 9.609439,20.748709 13.87298,30.081745 0.722248,-1.512523 1.444528,-3.025014 2.166808,-4.537521 z m 25.738417,9.939815 c 0,-12.965651 0,-25.931305 0,-38.896956 10.084388,0 20.168791,0 30.253178,0 0,0.960416 0,1.920849 0,2.881265 -6.482825,0 -12.965652,0 -19.448478,0 0,4.802097 0,9.604178 0,14.406277 5.52241,0 11.044819,0 16.567229,0 0,0.960415 0,1.920832 0,2.881248 -5.52241,0 -11.044819,0 -16.567229,0 0,5.282306 0,10.564611 0,15.846917 6.963035,0 13.926068,0 20.889103,0 0,0.960416 0,1.920832 0,2.881249 -10.564597,0 -21.129207,0 -31.693803,0 z m 4.321874,-2.160937 c 0,-11.765131 0,-23.530263 0,-35.295394 -0.720312,0 -1.440625,0 -2.160937,0 0,11.765131 0,23.530263 0,35.295394 0.720312,0 1.440625,0 2.160937,0 z m 32.41413,2.160937 c 0,-12.965651 0,-25.931305 0,-38.896956 2.401045,0 4.802095,0 7.203135,0 0,12.965651 0,25.931305 0,38.896956 -2.40104,0 -4.80209,0 -7.203135,0 z m 2.881265,-2.160937 c 0,-11.765131 0,-23.530263 0,-35.295394 -0.72031,0 -1.44064,0 -2.160953,0 0,11.765131 0,23.530263 0,35.295394 0.720313,0 1.440643,0 2.160953,0 z" />
                     <path fill="#00000" d="m 346.3,6.7 c -3.1,0.5 -4.9,4.4 -2.7,6.8 1.2,1.4 2.7,2.4 4.1,3.5 -2.4,5.3 -7.7,8.3 -11.9,12.1 -3.7,2.8 -7,6.2 -9.7,9.9 -2.2,-0.8 -0.3,-6.8 -0.6,-9.5 0.1,-3.1 0.7,-6.4 2.9,-8.7 1.3,-1.9 3,-3.5 4.5,-5.2 1.2,-3.4 -3.2,-4.9 -5.8,-4.6 -7.3,-0.5 -14.6,2 -20,6.8 -5,4.6 -10,10.1 -11.5,17 -0.9,3.5 -0.2,7.5 2.8,9.9 2.5,2.8 7.4,2.9 9.8,-0.2 1.7,-2.3 3.2,-4.8 3.8,-7.6 -0.1,-2.6 -4.4,-2.3 -4.3,0.2 1.2,2.4 -0.9,4.7 -2.7,6.2 -1.7,0.9 -4.7,0.7 -4.8,-1.7 -1,-5.8 2.1,-11.3 5.2,-16.1 4,-5.8 9.8,-11.2 17.2,-11.8 1.6,0 8.1,-1.2 6.8,1.4 -2.8,2.8 -5.6,6.1 -6,10.3 -1.6,7.7 0.1,15.7 -2.3,23.2 -1.1,3.9 2,2.6 2.5,0.2 3.3,-7.4 8.9,-13.4 15.1,-18.5 4.2,-3.9 9.5,-7.1 11.9,-12.6 1.3,-3.6 1.2,-9 -2.7,-10.9 -0.6,-0.2 -1.2,-0.3 -1.8,-0.3 z m 66,14.5 c -2,0.8 -1.8,4.9 0.8,4.4 3.4,0.4 2.9,-6.2 -0.8,-4.4 z m 0.6,7.3 c -1.3,0.5 -7.6,0.5 -5.4,2.2 4,-0.3 0.7,4.5 0.6,6.7 -0.4,2.9 -2.4,5.9 -1.2,8.8 2.7,1.7 5.6,-0.8 6.8,-3.2 1.6,-1.4 -0.5,-3 -1.2,-0.9 -0.4,0.8 -2.4,3.5 -2.6,1.8 1.1,-5 2.7,-9.9 3.9,-14.9 l -0.1,-0.5 h -0.9 z m -65.1,0.2 c -6.5,1.6 -10.5,9.5 -8.2,15.7 2.1,3.4 7.4,2.9 10.1,0.4 2,-0.2 3.6,-5.3 1,-3.4 -1.4,2 -4,4.2 -6.5,2.8 -2.2,-1.9 -1.9,-5.7 1.7,-5.3 3.1,-0.9 6.9,-2.1 8.1,-5.5 0.9,-2.7 -1.6,-5.2 -4.3,-4.8 h -1.1 -0.7 z m 13.6,0 c -2.2,0 -8.5,1.8 -2.9,2.3 0.9,1.9 -1,4.9 -1.1,7.2 -0.5,2.9 -1.4,5.7 -1.7,8.7 3.7,0.7 3.8,-2.6 4.4,-5.3 0.9,-3.3 1.6,-7 4.1,-9.5 2.4,1.6 6.8,-0.7 3.7,-3.4 -2.9,-0.5 -4.8,2.4 -6.2,4.3 0,-1.2 2.4,-5 -0.2,-4.3 z m 15.8,0 c -6.4,1.3 -9.6,9.1 -7.7,14.9 1.9,4 7.7,3.9 11,1.7 4.1,-3 6,-8.9 4.4,-13.7 -1.3,-3 -4.8,-3.2 -7.6,-3 z m 17,0 c -2.3,0 -8.8,1.9 -3,2.4 0.4,2.5 -1,5.7 -1.4,8.4 -0.7,2.4 -1.8,7.5 2.1,7.2 3.8,-0.1 6.5,-3.5 8.5,-6.3 2,-3.2 4.5,-7 3.3,-10.9 -3.7,-3 -3.6,2.6 -3.1,5.1 -0.7,3.8 -2.7,7.9 -6.2,9.8 -3.6,0.6 -1,-4.3 -0.8,-6.1 0.6,-3.2 1.6,-6.3 1.9,-9.5 -0.4,0 -0.8,0 -1.1,0 z m 30.6,0 c -6.3,1.2 -9.5,8.9 -7.8,14.7 1.5,4 7.2,4.2 10.5,2.4 4.6,-2.8 6.6,-9.3 4.8,-14.3 -1.4,-2.8 -4.8,-3 -7.5,-2.8 z m -75.4,1.7 c 2.1,1.5 0.2,4.7 -1.6,5.7 -1.1,0.4 -5.5,3.4 -4.6,0.7 0.8,-2.7 2.2,-6.2 5.3,-6.6 l 0.9,0.1 z m 30.8,0 c 2.6,1.5 1.3,5.2 0.8,7.6 -0.8,2.7 -1.9,5.9 -4.7,7.1 -5.1,0.8 -4,-5.8 -2.8,-8.8 1,-2.8 3,-6.8 6.7,-5.8 z m 47.1,-0.1 c 2.9,0.7 2,4.7 1.5,6.8 -0.7,3 -1.8,6.7 -5,8 -4.7,0.8 -4,-5.1 -3,-7.9 0.9,-3 2.7,-7.3 6.5,-6.8 z m -88.1,5.9 c -0.3,1.3 0.9,-0.6 0,0 z m -1.1,2.4 c -0.2,0.5 0.5,-0.1 0,0 z m -1.3,4.5 c -0.3,1.3 0.8,-0.2 0,0 z" />
                     <text y="41" x="201" fill="#00000" style="font-style:italic;font-weight:normal;font-size:30px;line-height:125%;font-family:Times;text-anchor:middle" xml:space="preserve">engraved with</text>
                  </g>
               </g>
            </g>
         </g>
      </g>
   </svg>
</svg>
