<?xml version="1.0" encoding="UTF-8" standalone="no"?>
<svg width="2100px" height="2970px" version="1.1" xmlns="http://www.w3.org/2000/svg" xmlns:xlink="http://www.w3.org/1999/xlink" xmlns:mei="http://www.music-encoding.org/ns/mei" overflow="visible">
   <desc>Engraved by Verovio 4.4.0-66ab39c</desc>
   <defs>
      <symbol id="E4E6-cniy6z" viewBox="0 0 1000 1000" overflow="inherit">
         <path transform="scale(1,-1)" d="M0 123c7 34 33 56 69 60c29 -3 43 -9 53 -29c4 -8 7 -15 10 -22c0 -21 -1 -25 -11 -35c-5 -8 -18 -14 -40 -20l12 -3l15 -1c44 0 97 26 122 56c10 11 18 26 24 42c7 1 15 2 22 3l-140 -424h-36l111 330c-10 -6 -27 -12 -53 -16l-52 -8h-10l-20 1c-1 0 -8 3 -21 6 c-37 9 -55 28 -55 60z" />
      </symbol>
      <symbol id="E4E7-cniy6z" viewBox="0 0 1000 1000" overflow="inherit">
         <path transform="scale(1,-1)" d="M133 -111c0 -33 -21 -50 -52 -55c10 -3 18 -4 25 -4c40 0 69 24 90 47l66 197c-36 -18 -64 -25 -112 -25c-23 0 -38 3 -45 8c-37 7 -55 27 -55 59c8 35 30 54 68 58c45 -6 49 -13 64 -48c0 -3 1 -5 1 -7c0 -27 -25 -46 -52 -49c6 -4 15 -6 26 -6c32 2 62 14 88 29 c32 19 44 36 59 71l7 1l10 2h4c-72 -220 -143 -439 -215 -659h-37l108 324c-20 -13 -51 -20 -82 -20c-21 0 -35 4 -43 10c-37 6 -55 26 -55 58c8 35 31 56 68 60c43 -8 48 -13 64 -51z" />
      </symbol>
      <symbol id="E084-cniy6z" viewBox="0 0 1000 1000" overflow="inherit">
         <path transform="scale(1,-1)" d="M20 -78c84 97 114 180 134 329h170c-13 -32 -82 -132 -99 -151l-84 -97c-33 -36 -59 -63 -80 -81h162v102l127 123v-225h57v-39h-57v-34c0 -43 19 -65 57 -65v-34h-244v36c48 0 60 26 60 70v27h-203v39z" />
      </symbol>
      <symbol id="E0A4-cniy6z" viewBox="0 0 1000 1000" overflow="inherit">
         <path transform="scale(1,-1)" d="M0 -39c0 68 73 172 200 172c66 0 114 -37 114 -95c0 -84 -106 -171 -218 -171c-64 0 -96 30 -96 94z" />
      </symbol>
      <symbol id="E0B5-cniy6z" viewBox="0 0 1000 1000" overflow="inherit">
         <path transform="scale(1,-1)" d="M293 -21c0 14 -3 29 -8 44c-3 8 -6 15 -10 22l-55 -45l68 -55c3 11 5 22 5 34zM198 133c102 0 207 -45 207 -133c0 -92 -98 -133 -207 -133c-101 0 -198 46 -198 133c0 88 93 133 198 133zM141 -64c5 -8 12 -15 19 -21c15 -15 36 -23 62 -23c4 0 10 1 18 2 c17 4 29 13 37 25l-79 64zM260 68c-2 3 -5 6 -8 9c-20 21 -43 31 -68 31l-20 -2c-15 -5 -27 -14 -36 -28c0 -1 -1 -1 -1 -2l71 -58zM119 48c-1 -6 -2 -13 -2 -21c0 -15 3 -34 9 -57l3 -9l49 39z" />
      </symbol>
      <symbol id="E4E3-cniy6z" viewBox="0 0 1000 1000" overflow="inherit">
         <path transform="scale(1,-1)" d="M0 -115v105c0 9 1 10 10 10h280c9 0 10 -1 10 -10v-105c0 -9 -1 -10 -10 -10h-280c-9 0 -10 1 -10 10z" />
      </symbol>
      <symbol id="E069-cniy6z" viewBox="0 0 1000 1000" overflow="inherit">
         <path transform="scale(1,-1)" d="M200 250h125v-500h-125v500zM0 250h125v-500h-125v500z" />
      </symbol>
   </defs>
   <style type="text/css">g.page-margin{font-family:Times,serif;} g.ending, g.fing, g.reh, g.tempo{font-weight:bold;} g.dir, g.dynam, g.mNum{font-style:italic;} g.label{font-weight:normal;}</style>
   <svg class="definition-scale" color="black" viewBox="0 0 21000 29700">
      <g class="page-margin" transform="translate(500, 500)">
         <g id="m-eabb1e08-95af-464f-b589-fca4f1bba8c9" class="mdiv pageMilestone" />
         <g id="m-da63b6f8-32f0-41c8-a28e-e4ed96028fc8" class="score pageMilestone" />
         <g id="sx6sq4" class="system">
            <g id="m-a2fea385-2dba-4662-938a-8945bec21bec" class="section systemMilestone" />
            <g id="m-bab154f2-1f75-46b4-b608-b70b0487b520" class="measure">
               <g id="m-c9f05fef-761f-4d22-b5c8-4bd2b8d0bdd4" class="staff">
                  <path d="M0 1595 L6146 1595" stroke="currentColor" stroke-width="13" />
                  <path d="M0 1775 L6146 1775" stroke="currentColor" stroke-width="13" />
                  <path d="M0 1955 L6146 1955" stroke="currentColor" stroke-width="13" />
                  <path d="M0 2135 L6146 2135" stroke="currentColor" stroke-width="13" />
                  <path d="M0 2315 L6146 2315" stroke="currentColor" stroke-width="13" />
                  <g id="cztdgm3" class="clef">
                     <use xlink:href="#E069-cniy6z" x="90" y="1955" height="720px" width="720px" />
                  </g>
                  <g id="k14mokt" class="keySig" />
                  <g id="m160o5zl" class="meterSig">
                     <use xlink:href="#E084-cniy6z" x="490" y="1775" height="720px" width="720px" />
                     <use xlink:href="#E084-cniy6z" x="490" y="2135" height="720px" width="720px" />
                  </g>
                  <g id="m-820cceee-eae8-49f8-9050-ca8fb330a232" class="layer">
                     <g id="m-ec684009-ca50-41ce-9154-f13336b0bbdd" class="rest">
                        <use xlink:href="#E4E3-cniy6z" x="1083" y="1415" height="720px" width="720px" />
                        <g class="ledgerLines">
                           <path d="M1035 1415 L1347 1415" stroke="currentColor" stroke-width="22" />
                        </g>
                     </g>
                  </g>
                  <g id="m-0fd4e5a2-a37d-4b56-9df0-13c6a5236c53" class="layer">
                     <g id="m-0e71cf88-bafc-4826-b21b-701bca412236" class="beam">
                        <polygon points="1083,2315 1995,2315 1995,2225 1083,2225" />
                        <polygon points="1617,2180 1995,2180 1995,2090 1617,2090" />
                        <g id="m-0516ce79-444b-428e-a0e3-8025a5f0a40c" class="note">
                           <g class="notehead">
                              <use xlink:href="#E0A4-cniy6z" x="1083" y="1685" height="720px" width="720px" />
                           </g>
                           <g id="s508e65" class="stem">
                              <path d="M1092 1713 L1092 2297" stroke="currentColor" stroke-width="18" />
                           </g>
                           <g id="a1vehzm0" class="accid" />
                        </g>
                        <g id="m-733b1b1e-2679-4896-aef6-3dc2593450d4" class="note">
                           <g class="notehead">
                              <use xlink:href="#E0A4-cniy6z" x="1608" y="1685" height="720px" width="720px" />
                           </g>
                           <g id="sv9it9d" class="stem">
                              <path d="M1617 1713 L1617 2297" stroke="currentColor" stroke-width="18" />
                           </g>
                           <g id="a1xjsy5e" class="accid" />
                        </g>
                        <g id="m-f5a1d074-8768-48c7-a10a-6dbfaf4dabdd" class="note">
                           <g class="notehead">
                              <use xlink:href="#E0A4-cniy6z" x="1977" y="1685" height="720px" width="720px" />
                           </g>
                           <g id="surt5j2" class="stem">
                              <path d="M1986 1713 L1986 2297" stroke="currentColor" stroke-width="18" />
                           </g>
                           <g id="a1dnhgql" class="accid" />
                        </g>
                     </g>
                     <g id="m-6ad567d0-2c6e-4432-b2e8-69f48ae635b7" class="rest">
                        <use xlink:href="#E4E7-cniy6z" x="2327" y="2135" height="720px" width="720px" />
                     </g>
                     <g id="m-7ee7f027-14aa-4383-bc3d-1aee3cf53d8f" class="beam">
                        <polygon points="2704,2315 3091,2315 3091,2225 2704,2225" />
                        <polygon points="2704,2180 2930,2180 2930,2090 2704,2090" />
                        <g id="m-a56f97aa-03ba-4f32-8454-777a63b2db8e" class="note">
                           <g class="notehead">
                              <use xlink:href="#E0A4-cniy6z" x="2704" y="1685" height="720px" width="720px" />
                           </g>
                           <g id="s1ui9sm" class="stem">
                              <path d="M2713 1713 L2713 2297" stroke="currentColor" stroke-width="18" />
                           </g>
                           <g id="aeohl03" class="accid" />
                        </g>
                        <g id="m-25d14699-6b93-4600-85bc-cb9a6f39f2e6" class="note">
                           <g class="notehead">
                              <use xlink:href="#E0A4-cniy6z" x="3073" y="1685" height="720px" width="720px" />
                           </g>
                           <g id="s5e7hn1" class="stem">
                              <path d="M3082 1713 L3082 2297" stroke="currentColor" stroke-width="18" />
                           </g>
                           <g id="asr2wz1" class="accid" />
                        </g>
                     </g>
                     <g id="m-ef35cd06-967e-4138-b1e3-407a0bcd0764" class="rest">
                        <use xlink:href="#E4E7-cniy6z" x="3598" y="2135" height="720px" width="720px" />
                     </g>
                     <g id="m-58128ddd-d87a-44e1-93bb-c5b521959ef6" class="beam">
                        <polygon points="3975,2315 4519,2315 4519,2225 3975,2225" />
                        <polygon points="4293,2180 4519,2180 4519,2090 4293,2090" />
                        <g id="m-32faef10-0141-413b-8c75-308ef8ba83db" class="note">
                           <g class="notehead">
                              <use xlink:href="#E0A4-cniy6z" x="3975" y="1685" height="720px" width="720px" />
                           </g>
                           <g id="sz5e9gl" class="stem">
                              <path d="M3984 1713 L3984 2297" stroke="currentColor" stroke-width="18" />
                           </g>
                           <g id="a26vl3y" class="accid" />
                        </g>
                        <g id="m-35eb818f-50db-42db-8a52-85bbb478d3c5" class="note">
                           <g class="notehead">
                              <use xlink:href="#E0A4-cniy6z" x="4501" y="1685" height="720px" width="720px" />
                           </g>
                           <g id="ssj2ym1" class="stem">
                              <path d="M4510 1713 L4510 2297" stroke="currentColor" stroke-width="18" />
                           </g>
                           <g id="a1ko1koi" class="accid" />
                        </g>
                     </g>
                     <g id="m-6caac72b-a53d-40f1-8f21-953ed4c608fe" class="beam">
                        <polygon points="4870,2315 5625,2315 5625,2225 4870,2225" />
                        <polygon points="4870,2180 5247,2180 5247,2090 4870,2090" />
                        <g id="m-9087ce18-0c00-4f86-9150-3f551db8ba53" class="note">
                           <g class="notehead">
                              <use xlink:href="#E0A4-cniy6z" x="4870" y="1685" height="720px" width="720px" />
                           </g>
                           <g id="s1oruo7w" class="stem">
                              <path d="M4879 1713 L4879 2297" stroke="currentColor" stroke-width="18" />
                           </g>
                           <g id="aalqtch" class="accid" />
                        </g>
                        <g id="m-b5de1321-ff34-4313-8804-5fe3984bca22" class="note">
                           <g class="notehead">
                              <use xlink:href="#E0A4-cniy6z" x="5238" y="1685" height="720px" width="720px" />
                           </g>
                           <g id="s160bazv" class="stem">
                              <path d="M5247 1713 L5247 2297" stroke="currentColor" stroke-width="18" />
                           </g>
                           <g id="a1j5awhi" class="accid" />
                        </g>
                        <g id="m-9c5fd287-8607-4e19-934c-fc4f08dcd64e" class="note">
                           <g class="notehead">
                              <use xlink:href="#E0A4-cniy6z" x="5607" y="1685" height="720px" width="720px" />
                           </g>
                           <g id="s1gbauwv" class="stem">
                              <path d="M5616 1713 L5616 2297" stroke="currentColor" stroke-width="18" />
                           </g>
                           <g id="a16mhz9j" class="accid" />
                        </g>
                     </g>
                  </g>
               </g>
               <g id="bftvrsk" class="barLine">
                  <path d="M6133 1595 L6133 2315" stroke="currentColor" stroke-width="27" />
               </g>
            </g>
            <g id="m-6eeb1965-e0fd-43a7-ab81-27477b6cc774" class="measure">
               <g id="m-576a3e93-930e-4e08-a987-bb9a5b7fecc6" class="staff">
                  <path d="M6146 1595 L11420 1595" stroke="currentColor" stroke-width="13" />
                  <path d="M6146 1775 L11420 1775" stroke="currentColor" stroke-width="13" />
                  <path d="M6146 1955 L11420 1955" stroke="currentColor" stroke-width="13" />
                  <path d="M6146 2135 L11420 2135" stroke="currentColor" stroke-width="13" />
                  <path d="M6146 2315 L11420 2315" stroke="currentColor" stroke-width="13" />
                  <g class="ledgerLines above">
                     <path d="M6309 1415 L6695 1415" stroke="currentColor" stroke-width="22" />
                  </g>
                  <g id="m-d630ff22-76c3-4058-93d7-8794290c6c61" class="layer">
                     <g id="m-ec973000-28b4-413a-876b-b84cbbb61634" class="note">
                        <g class="notehead">
                           <use xlink:href="#E0B5-cniy6z" x="6357" y="1325" height="720px" width="720px" />
                        </g>
                        <g id="albhit3" class="accid" />
                     </g>
                  </g>
                  <g id="m-1c7dcd4a-e54a-416d-9f95-b34d4b6ffdee" class="layer">
                     <g id="m-ea0e8f71-3716-4d1e-8b38-fb624dc61640" class="beam">
                        <polygon points="6357,2855 7269,2675 7269,2585 6357,2765" />
                        <polygon points="6891,2615 7269,2540 7269,2450 6891,2525" />
                        <g id="m-424faf20-4e2e-4279-a14e-91bcd014bd6b" class="note">
                           <g class="notehead">
                              <use xlink:href="#E0A4-cniy6z" x="6357" y="2405" height="720px" width="720px" />
                           </g>
                           <g id="s2llgh1" class="stem">
                              <path d="M6366 2433 L6366 2837" stroke="currentColor" stroke-width="18" />
                           </g>
                        </g>
                        <g id="m-be508c7b-afd6-4656-b402-33537e8eb0e6" class="note">
                           <g class="notehead">
                              <use xlink:href="#E0A4-cniy6z" x="6882" y="1685" height="720px" width="720px" />
                           </g>
                           <g id="skqobh7" class="stem">
                              <path d="M6891 1713 L6891 2732" stroke="currentColor" stroke-width="18" />
                           </g>
                           <g id="aa1rdvz" class="accid" />
                        </g>
                        <g id="m-060512af-4abf-40bc-b315-fc97290daad1" class="note">
                           <g class="notehead">
                              <use xlink:href="#E0A4-cniy6z" x="7251" y="1685" height="720px" width="720px" />
                           </g>
                           <g id="svx8f2h" class="stem">
                              <path d="M7260 1713 L7260 2657" stroke="currentColor" stroke-width="18" />
                           </g>
                           <g id="a1mmpmjy" class="accid" />
                        </g>
                     </g>
                     <g id="m-652341e0-f326-4191-9c64-39b74c94528f" class="rest">
                        <use xlink:href="#E4E7-cniy6z" x="7601" y="2135" height="720px" width="720px" />
                     </g>
                     <g id="m-a138b08b-f3d4-441a-b724-2a1c789e3d3b" class="beam">
                        <polygon points="7978,2315 8365,2315 8365,2225 7978,2225" />
                        <polygon points="7978,2180 8204,2180 8204,2090 7978,2090" />
                        <g id="m-c9e4974c-3b1b-4022-ade0-112913bb44ee" class="note">
                           <g class="notehead">
                              <use xlink:href="#E0A4-cniy6z" x="7978" y="1685" height="720px" width="720px" />
                           </g>
                           <g id="s1lsywe2" class="stem">
                              <path d="M7987 1713 L7987 2297" stroke="currentColor" stroke-width="18" />
                           </g>
                           <g id="a1va4dsv" class="accid" />
                        </g>
                        <g id="m-65e060df-0653-46c0-a2ee-34404f5e5740" class="note">
                           <g class="notehead">
                              <use xlink:href="#E0A4-cniy6z" x="8347" y="1685" height="720px" width="720px" />
                           </g>
                           <g id="s1ef20bw" class="stem">
                              <path d="M8356 1713 L8356 2297" stroke="currentColor" stroke-width="18" />
                           </g>
                           <g id="a100u3ih" class="accid" />
                        </g>
                     </g>
                     <g id="m-0cdfe8e2-3150-4b5f-9318-0df8cc2d81eb" class="rest">
                        <use xlink:href="#E4E7-cniy6z" x="8872" y="2135" height="720px" width="720px" />
                     </g>
                     <g id="m-d348b763-9370-42ca-9c30-04e0fe0243be" class="beam">
                        <polygon points="9249,2315 9793,2315 9793,2225 9249,2225" />
                        <polygon points="9567,2180 9793,2180 9793,2090 9567,2090" />
                        <g id="m-0073dbc5-de29-447b-b396-fe42d830e046" class="note">
                           <g class="notehead">
                              <use xlink:href="#E0A4-cniy6z" x="9249" y="1685" height="720px" width="720px" />
                           </g>
                           <g id="sqrg8ao" class="stem">
                              <path d="M9258 1713 L9258 2297" stroke="currentColor" stroke-width="18" />
                           </g>
                           <g id="a1r2632e" class="accid" />
                        </g>
                        <g id="m-4f613dbc-4854-4036-affb-d99130bf2214" class="note">
                           <g class="notehead">
                              <use xlink:href="#E0A4-cniy6z" x="9775" y="1685" height="720px" width="720px" />
                           </g>
                           <g id="s57b1fq" class="stem">
                              <path d="M9784 1713 L9784 2297" stroke="currentColor" stroke-width="18" />
                           </g>
                           <g id="aapcoq0" class="accid" />
                        </g>
                     </g>
                     <g id="m-c686adab-32a8-4a7b-bd8f-af92b67579f5" class="beam">
                        <polygon points="10144,2315 10899,2315 10899,2225 10144,2225" />
                        <polygon points="10144,2180 10521,2180 10521,2090 10144,2090" />
                        <g id="m-d6273a8d-be48-497a-9d66-f3abd28ea645" class="note">
                           <g class="notehead">
                              <use xlink:href="#E0A4-cniy6z" x="10144" y="1685" height="720px" width="720px" />
                           </g>
                           <g id="sgnt7gn" class="stem">
                              <path d="M10153 1713 L10153 2297" stroke="currentColor" stroke-width="18" />
                           </g>
                           <g id="a1hqjd2o" class="accid" />
                        </g>
                        <g id="m-2a21e77b-be95-4fd3-9fa5-7e593b024f0a" class="note">
                           <g class="notehead">
                              <use xlink:href="#E0A4-cniy6z" x="10512" y="1685" height="720px" width="720px" />
                           </g>
                           <g id="s1w0npiw" class="stem">
                              <path d="M10521 1713 L10521 2297" stroke="currentColor" stroke-width="18" />
                           </g>
                           <g id="ad39jv1" class="accid" />
                        </g>
                        <g id="m-82fee7c7-19eb-4fd1-b9ac-7fd1028d1dcc" class="note">
                           <g class="notehead">
                              <use xlink:href="#E0A4-cniy6z" x="10881" y="1685" height="720px" width="720px" />
                           </g>
                           <g id="snmwan9" class="stem">
                              <path d="M10890 1713 L10890 2297" stroke="currentColor" stroke-width="18" />
                           </g>
                           <g id="a1blt7f2" class="accid" />
                        </g>
                     </g>
                  </g>
               </g>
               <g id="bx4k2hf" class="barLine">
                  <path d="M11407 1595 L11407 2315" stroke="currentColor" stroke-width="27" />
               </g>
            </g>
            <g id="m-bfdd3f02-cfd9-418c-ad52-0f442900cb22" class="measure">
               <g id="m-17cf10a8-ffaa-4800-b0b8-7d9a00328c9e" class="staff">
                  <path d="M11420 1595 L16702 1595" stroke="currentColor" stroke-width="13" />
                  <path d="M11420 1775 L16702 1775" stroke="currentColor" stroke-width="13" />
                  <path d="M11420 1955 L16702 1955" stroke="currentColor" stroke-width="13" />
                  <path d="M11420 2135 L16702 2135" stroke="currentColor" stroke-width="13" />
                  <path d="M11420 2315 L16702 2315" stroke="currentColor" stroke-width="13" />
                  <g class="ledgerLines above">
                     <path d="M11583 1415 L11969 1415" stroke="currentColor" stroke-width="22" />
                  </g>
                  <g id="m-11d79715-8915-4906-a898-8da58f479cb3" class="layer">
                     <g id="m-aa0007c9-b2a4-4ddb-bd41-791f6e9be6ee" class="note">
                        <g class="notehead">
                           <use xlink:href="#E0B5-cniy6z" x="11631" y="1325" height="720px" width="720px" />
                        </g>
                        <g id="axfcta1" class="accid" />
                     </g>
                  </g>
                  <g id="m-408049a5-0dfb-4732-9fc5-a778c4cc835d" class="layer">
                     <g id="m-dbb80185-8dec-4e62-ae2d-6d48e03f8b44" class="beam">
                        <polygon points="11631,2855 12543,2675 12543,2585 11631,2765" />
                        <polygon points="12165,2615 12543,2540 12543,2450 12165,2525" />
                        <g id="m-9a112e95-72c7-4a58-aa70-0a67a26c6330" class="note">
                           <g class="notehead">
                              <use xlink:href="#E0A4-cniy6z" x="11631" y="2405" height="720px" width="720px" />
                           </g>
                           <g id="s1gwgvmk" class="stem">
                              <path d="M11640 2433 L11640 2837" stroke="currentColor" stroke-width="18" />
                           </g>
                        </g>
                        <g id="m-d945ee7e-8937-4e2d-8ff3-c7890f9aed40" class="note">
                           <g class="notehead">
                              <use xlink:href="#E0A4-cniy6z" x="12156" y="1685" height="720px" width="720px" />
                           </g>
                           <g id="s18pxwvj" class="stem">
                              <path d="M12165 1713 L12165 2732" stroke="currentColor" stroke-width="18" />
                           </g>
                           <g id="a17w4n0a" class="accid" />
                        </g>
                        <g id="m-4253fc38-e194-498c-b5ba-c101f2ce9472" class="note">
                           <g class="notehead">
                              <use xlink:href="#E0A4-cniy6z" x="12525" y="1685" height="720px" width="720px" />
                           </g>
                           <g id="s1sgags1" class="stem">
                              <path d="M12534 1713 L12534 2657" stroke="currentColor" stroke-width="18" />
                           </g>
                           <g id="a1ihlvhd" class="accid" />
                        </g>
                     </g>
                     <g id="m-91144c1a-29ac-4575-969a-b12e7e18023f" class="rest">
                        <use xlink:href="#E4E7-cniy6z" x="12875" y="2135" height="720px" width="720px" />
                     </g>
                     <g id="m-d3ca813b-fef6-44b8-9ef3-f30bdb3e19bf" class="beam">
                        <polygon points="13252,2315 13639,2315 13639,2225 13252,2225" />
                        <polygon points="13252,2180 13478,2180 13478,2090 13252,2090" />
                        <g id="m-b12adbc4-be2c-491b-9c95-3246c1d1fa9e" class="note">
                           <g class="notehead">
                              <use xlink:href="#E0A4-cniy6z" x="13252" y="1685" height="720px" width="720px" />
                           </g>
                           <g id="smuw9a" class="stem">
                              <path d="M13261 1713 L13261 2297" stroke="currentColor" stroke-width="18" />
                           </g>
                           <g id="a12jgup5" class="accid" />
                        </g>
                        <g id="m-cf6b4bb0-0826-4039-af8f-bc1f665563fe" class="note">
                           <g class="notehead">
                              <use xlink:href="#E0A4-cniy6z" x="13621" y="1685" height="720px" width="720px" />
                           </g>
                           <g id="s1n9kk9j" class="stem">
                              <path d="M13630 1713 L13630 2297" stroke="currentColor" stroke-width="18" />
                           </g>
                           <g id="a1ore4u5" class="accid" />
                        </g>
                     </g>
                     <g id="m-9ce00d79-ef42-4fca-baab-80672e0d5662" class="rest">
                        <use xlink:href="#E4E6-cniy6z" x="14146" y="2135" height="720px" width="720px" />
                     </g>
                     <g id="m-23a19847-bcd3-4c0f-81e5-61f97f541772" class="beam">
                        <polygon points="14672,2315 15059,2315 15059,2225 14672,2225" />
                        <polygon points="14672,2180 15059,2180 15059,2090 14672,2090" />
                        <g id="m-619dc556-1bcc-4d71-8c94-b5fdcd969488" class="note">
                           <g class="notehead">
                              <use xlink:href="#E0A4-cniy6z" x="14672" y="1685" height="720px" width="720px" />
                           </g>
                           <g id="sq8yy7n" class="stem">
                              <path d="M14681 1713 L14681 2297" stroke="currentColor" stroke-width="18" />
                           </g>
                           <g id="ahp8bih" class="accid" />
                        </g>
                        <g id="m-b06c9549-a318-494b-93a7-d197fa1b865c" class="note">
                           <g class="notehead">
                              <use xlink:href="#E0A4-cniy6z" x="15041" y="1685" height="720px" width="720px" />
                           </g>
                           <g id="sooduax" class="stem">
                              <path d="M15050 1713 L15050 2297" stroke="currentColor" stroke-width="18" />
                           </g>
                           <g id="a3n8l9a" class="accid" />
                        </g>
                     </g>
                     <g id="m-725ffc1c-7384-452c-a0fc-fcd245552dd5" class="beam">
                        <polygon points="15409,2315 16322,2315 16322,2225 15409,2225" />
                        <polygon points="15944,2180 16322,2180 16322,2090 15944,2090" />
                        <g id="m-ffc14b80-767d-4cd6-923a-da15dff3eb99" class="note">
                           <g class="notehead">
                              <use xlink:href="#E0A4-cniy6z" x="15409" y="1685" height="720px" width="720px" />
                           </g>
                           <g id="s1c2lpgn" class="stem">
                              <path d="M15418 1713 L15418 2297" stroke="currentColor" stroke-width="18" />
                           </g>
                           <g id="a5lk7fy" class="accid" />
                        </g>
                        <g id="m-94ee9d5e-86f2-4e62-82f7-3c0b53761d71" class="note">
                           <g class="notehead">
                              <use xlink:href="#E0A4-cniy6z" x="15935" y="1685" height="720px" width="720px" />
                           </g>
                           <g id="s1e2dlk0" class="stem">
                              <path d="M15944 1713 L15944 2297" stroke="currentColor" stroke-width="18" />
                           </g>
                           <g id="aqi8ong" class="accid" />
                        </g>
                        <g id="m-67e74570-8c24-478b-b50f-399b04eff5fa" class="note">
                           <g class="notehead">
                              <use xlink:href="#E0A4-cniy6z" x="16304" y="1685" height="720px" width="720px" />
                           </g>
                           <g id="sxp7xxm" class="stem">
                              <path d="M16313 1713 L16313 2297" stroke="currentColor" stroke-width="18" />
                           </g>
                           <g id="a1kvqsao" class="accid" />
                        </g>
                     </g>
                  </g>
               </g>
               <g id="b1703kc2" class="barLine">
                  <path d="M16689 1595 L16689 2315" stroke="currentColor" stroke-width="27" />
               </g>
            </g>
            <g id="m-447d7521-b8f0-4aba-8930-17cb7522bad7" class="measure">
               <g id="m-52db7d04-ed39-40d5-94bd-8381024d2279" class="staff">
                  <path d="M16702 1595 L20003 1595" stroke="currentColor" stroke-width="13" />
                  <path d="M16702 1775 L20003 1775" stroke="currentColor" stroke-width="13" />
                  <path d="M16702 1955 L20003 1955" stroke="currentColor" stroke-width="13" />
                  <path d="M16702 2135 L20003 2135" stroke="currentColor" stroke-width="13" />
                  <path d="M16702 2315 L20003 2315" stroke="currentColor" stroke-width="13" />
                  <g class="ledgerLines above">
                     <path d="M16865 1415 L17251 1415" stroke="currentColor" stroke-width="22" />
                  </g>
                  <g id="m-0555d14c-a52d-4c7d-834b-4bcb4a0edf13" class="layer">
                     <g id="m-81d2071c-49b7-4bc6-9ae8-3c02401afe24" class="note">
                        <g class="notehead">
                           <use xlink:href="#E0B5-cniy6z" x="16913" y="1325" height="720px" width="720px" />
                        </g>
                        <g id="a1n1aa2g" class="accid" />
                     </g>
                  </g>
                  <g id="m-86f6eab1-67c5-4d25-afb2-c9330f5551d8" class="layer">
                     <g id="m-4953a465-d5bb-4ba9-8c78-d70d5457d079" class="beam">
                        <polygon points="16913,2855 17608,2675 17608,2585 16913,2765" />
                        <polygon points="17382,2596 17608,2540 17608,2450 17382,2506" />
                        <g id="m-3a1e1b28-3ecf-48e0-ac50-2b762f653531" class="note">
                           <g class="notehead">
                              <use xlink:href="#E0A4-cniy6z" x="16913" y="2405" height="720px" width="720px" />
                           </g>
                           <g id="d4i5cli" class="dots">
                              <ellipse cx="17229" cy="2405" rx="36" ry="36" />
                           </g>
                           <g id="s985uco" class="stem">
                              <path d="M16922 2433 L16922 2837" stroke="currentColor" stroke-width="18" />
                           </g>
                        </g>
                        <g id="m-456ce966-aec5-414b-af1f-6844318167d2" class="note">
                           <g class="notehead">
                              <use xlink:href="#E0A4-cniy6z" x="17590" y="1685" height="720px" width="720px" />
                           </g>
                           <g id="s7542rr" class="stem">
                              <path d="M17599 1713 L17599 2657" stroke="currentColor" stroke-width="18" />
                           </g>
                           <g id="a19jel45" class="accid" />
                        </g>
                     </g>
                     <g id="m-0a98221e-ece0-4a5d-b873-423651314bd9" class="note">
                        <g class="notehead">
                           <use xlink:href="#E0A4-cniy6z" x="17959" y="1685" height="720px" width="720px" />
                        </g>
                        <g id="supf3gq" class="stem">
                           <path d="M17968 1713 L17968 2315" stroke="currentColor" stroke-width="18" />
                        </g>
                        <g id="a5fb0af" class="accid" />
                     </g>
                     <g id="m-1d000954-8c68-44d1-82a9-a97d60076717" class="note">
                        <g class="notehead">
                           <use xlink:href="#E0A4-cniy6z" x="18764" y="1685" height="720px" width="720px" />
                        </g>
                        <g id="s789lnl" class="stem">
                           <path d="M18773 1713 L18773 2315" stroke="currentColor" stroke-width="18" />
                        </g>
                        <g id="a18hz633" class="accid" />
                     </g>
                  </g>
               </g>
               <g id="bjy12ch" class="barLine">
                  <path d="M19990 1595 L19990 2315" stroke="currentColor" stroke-width="27" />
               </g>
            </g>
            <g id="s1rcdxrf" class="systemMilestoneEnd m-a2fea385-2dba-4662-938a-8945bec21bec" />
         </g>
         <g id="plcu7wd" class="pageMilestoneEnd m-da63b6f8-32f0-41c8-a28e-e4ed96028fc8" />
         <g id="p1i57g0p" class="pageMilestoneEnd m-eabb1e08-95af-464f-b589-fca4f1bba8c9" />
         <g id="p1yaqegz" class="pgHead autogenerated">
            <text font-size="0px">
               <tspan id="r1hfv551" class="rend" x="10000" y="415" text-anchor="middle">
                  <title class="labelAttr">title</title>
                  <tspan id="rkh57vf" class="rend">
                     <tspan id="t14m2v7z" class="text">
                        <tspan font-size="607px">21_jazz_120_beat_4-4</tspan>
                     </tspan>
                  </tspan>
                  <tspan id="l1ecf6h3" class="lb" />
                  <tspan id="r1ju0iif" class="rend">
                     <tspan id="to8oxd2" class="text" x="10000" y="805">
                        <tspan font-size="324px">21_jazz_120_beat_4-4</tspan>
                     </tspan>
                  </tspan>
               </tspan>
            </text>
         </g>
         <g id="p12xrqa5" class="pgFoot autogenerated">
            <g id="f1ky4jm1" class="fig">
               <g class="svg" transform="translate(7750, 28099) scale(10.000000, 10.000000)">
                  <g>
                     <path fill="#00000" d="M 17.11278,49.26451 V 10.367554 h 12.696511 c 3.288815,7.336676 6.71267,14.610456 10.127281,21.888976 3.419998,-7.484684 6.255515,-14.204887 9.58887,-21.909915 2.436207,0.103726 4.316952,0.08453 6.484294,-0.05808 V 49.264423 H 50.274275 C 50.145222,38.35639 50.016136,27.448368 49.887066,16.540329 45.003488,27.315459 39.967448,38.433564 35.083854,49.208695 34.678996,49.343717 34.426583,49.135619 34.021726,49.270644 29.46588,39.330716 24.910049,29.390805 20.354201,19.450876 20.224341,29.388756 20.09461,39.326619 19.964815,49.264497 H 17.11278 Z M 36.754144,39.324695 C 32.721221,30.512695 28.6883,21.700679 24.655394,12.888662 22.530527,12.750737 22.656775,12.71031 20.714356,12.813974 v 0.966497 c 4.612938,9.99784 9.609439,20.748709 13.87298,30.081745 0.722248,-1.512523 1.444528,-3.025014 2.166808,-4.537521 z m 25.738417,9.939815 c 0,-12.965651 0,-25.931305 0,-38.896956 10.084388,0 20.168791,0 30.253178,0 0,0.960416 0,1.920849 0,2.881265 -6.482825,0 -12.965652,0 -19.448478,0 0,4.802097 0,9.604178 0,14.406277 5.52241,0 11.044819,0 16.567229,0 0,0.960415 0,1.920832 0,2.881248 -5.52241,0 -11.044819,0 -16.567229,0 0,5.282306 0,10.564611 0,15.846917 6.963035,0 13.926068,0 20.889103,0 0,0.960416 0,1.920832 0,2.881249 -10.564597,0 -21.129207,0 -31.693803,0 z m 4.321874,-2.160937 c 0,-11.765131 0,-23.530263 0,-35.295394 -0.720312,0 -1.440625,0 -2.160937,0 0,11.765131 0,23.530263 0,35.295394 0.720312,0 1.440625,0 2.160937,0 z m 32.41413,2.160937 c 0,-12.965651 0,-25.931305 0,-38.896956 2.401045,0 4.802095,0 7.203135,0 0,12.965651 0,25.931305 0,38.896956 -2.40104,0 -4.80209,0 -7.203135,0 z m 2.881265,-2.160937 c 0,-11.765131 0,-23.530263 0,-35.295394 -0.72031,0 -1.44064,0 -2.160953,0 0,11.765131 0,23.530263 0,35.295394 0.720313,0 1.440643,0 2.160953,0 z" />
                     <path fill="#00000" d="m 346.3,6.7 c -3.1,0.5 -4.9,4.4 -2.7,6.8 1.2,1.4 2.7,2.4 4.1,3.5 -2.4,5.3 -7.7,8.3 -11.9,12.1 -3.7,2.8 -7,6.2 -9.7,9.9 -2.2,-0.8 -0.3,-6.8 -0.6,-9.5 0.1,-3.1 0.7,-6.4 2.9,-8.7 1.3,-1.9 3,-3.5 4.5,-5.2 1.2,-3.4 -3.2,-4.9 -5.8,-4.6 -7.3,-0.5 -14.6,2 -20,6.8 -5,4.6 -10,10.1 -11.5,17 -0.9,3.5 -0.2,7.5 2.8,9.9 2.5,2.8 7.4,2.9 9.8,-0.2 1.7,-2.3 3.2,-4.8 3.8,-7.6 -0.1,-2.6 -4.4,-2.3 -4.3,0.2 1.2,2.4 -0.9,4.7 -2.7,6.2 -1.7,0.9 -4.7,0.7 -4.8,-1.7 -1,-5.8 2.1,-11.3 5.2,-16.1 4,-5.8 9.8,-11.2 17.2,-11.8 1.6,0 8.1,-1.2 6.8,1.4 -2.8,2.8 -5.6,6.1 -6,10.3 -1.6,7.7 0.1,15.7 -2.3,23.2 -1.1,3.9 2,2.6 2.5,0.2 3.3,-7.4 8.9,-13.4 15.1,-18.5 4.2,-3.9 9.5,-7.1 11.9,-12.6 1.3,-3.6 1.2,-9 -2.7,-10.9 -0.6,-0.2 -1.2,-0.3 -1.8,-0.3 z m 66,14.5 c -2,0.8 -1.8,4.9 0.8,4.4 3.4,0.4 2.9,-6.2 -0.8,-4.4 z m 0.6,7.3 c -1.3,0.5 -7.6,0.5 -5.4,2.2 4,-0.3 0.7,4.5 0.6,6.7 -0.4,2.9 -2.4,5.9 -1.2,8.8 2.7,1.7 5.6,-0.8 6.8,-3.2 1.6,-1.4 -0.5,-3 -1.2,-0.9 -0.4,0.8 -2.4,3.5 -2.6,1.8 1.1,-5 2.7,-9.9 3.9,-14.9 l -0.1,-0.5 h -0.9 z m -65.1,0.2 c -6.5,1.6 -10.5,9.5 -8.2,15.7 2.1,3.4 7.4,2.9 10.1,0.4 2,-0.2 3.6,-5.3 1,-3.4 -1.4,2 -4,4.2 -6.5,2.8 -2.2,-1.9 -1.9,-5.7 1.7,-5.3 3.1,-0.9 6.9,-2.1 8.1,-5.5 0.9,-2.7 -1.6,-5.2 -4.3,-4.8 h -1.1 -0.7 z m 13.6,0 c -2.2,0 -8.5,1.8 -2.9,2.3 0.9,1.9 -1,4.9 -1.1,7.2 -0.5,2.9 -1.4,5.7 -1.7,8.7 3.7,0.7 3.8,-2.6 4.4,-5.3 0.9,-3.3 1.6,-7 4.1,-9.5 2.4,1.6 6.8,-0.7 3.7,-3.4 -2.9,-0.5 -4.8,2.4 -6.2,4.3 0,-1.2 2.4,-5 -0.2,-4.3 z m 15.8,0 c -6.4,1.3 -9.6,9.1 -7.7,14.9 1.9,4 7.7,3.9 11,1.7 4.1,-3 6,-8.9 4.4,-13.7 -1.3,-3 -4.8,-3.2 -7.6,-3 z m 17,0 c -2.3,0 -8.8,1.9 -3,2.4 0.4,2.5 -1,5.7 -1.4,8.4 -0.7,2.4 -1.8,7.5 2.1,7.2 3.8,-0.1 6.5,-3.5 8.5,-6.3 2,-3.2 4.5,-7 3.3,-10.9 -3.7,-3 -3.6,2.6 -3.1,5.1 -0.7,3.8 -2.7,7.9 -6.2,9.8 -3.6,0.6 -1,-4.3 -0.8,-6.1 0.6,-3.2 1.6,-6.3 1.9,-9.5 -0.4,0 -0.8,0 -1.1,0 z m 30.6,0 c -6.3,1.2 -9.5,8.9 -7.8,14.7 1.5,4 7.2,4.2 10.5,2.4 4.6,-2.8 6.6,-9.3 4.8,-14.3 -1.4,-2.8 -4.8,-3 -7.5,-2.8 z m -75.4,1.7 c 2.1,1.5 0.2,4.7 -1.6,5.7 -1.1,0.4 -5.5,3.4 -4.6,0.7 0.8,-2.7 2.2,-6.2 5.3,-6.6 l 0.9,0.1 z m 30.8,0 c 2.6,1.5 1.3,5.2 0.8,7.6 -0.8,2.7 -1.9,5.9 -4.7,7.1 -5.1,0.8 -4,-5.8 -2.8,-8.8 1,-2.8 3,-6.8 6.7,-5.8 z m 47.1,-0.1 c 2.9,0.7 2,4.7 1.5,6.8 -0.7,3 -1.8,6.7 -5,8 -4.7,0.8 -4,-5.1 -3,-7.9 0.9,-3 2.7,-7.3 6.5,-6.8 z m -88.1,5.9 c -0.3,1.3 0.9,-0.6 0,0 z m -1.1,2.4 c -0.2,0.5 0.5,-0.1 0,0 z m -1.3,4.5 c -0.3,1.3 0.8,-0.2 0,0 z" />
                     <text y="41" x="201" fill="#00000" style="font-style:italic;font-weight:normal;font-size:30px;line-height:125%;font-family:Times;text-anchor:middle" xml:space="preserve">engraved with</text>
                  </g>
               </g>
            </g>
         </g>
      </g>
   </svg>
</svg>
