<?xml version="1.0" encoding="UTF-8" standalone="no"?>
<svg width="2100px" height="2970px" version="1.1" xmlns="http://www.w3.org/2000/svg" xmlns:xlink="http://www.w3.org/1999/xlink" xmlns:mei="http://www.music-encoding.org/ns/mei" overflow="visible">
   <desc>Engraved by Verovio 4.4.0-66ab39c</desc>
   <defs>
      <symbol id="E4E5-1m104n" viewBox="0 0 1000 1000" overflow="inherit">
         <path transform="scale(1,-1)" d="M107 292c-13 24 -30 49 -52 71c-1 1 0 2 0 3l-2 2c3 3 4 4 6 4c12 0 26 -7 40 -20s44 -40 89 -81c26 -24 28 -29 46 -47c4 -4 8 -9 10 -14c6 -8 8 -16 8 -27c0 -19 -12 -40 -36 -61c-28 -23 -49 -38 -61 -73c-4 -11 -7 -27 -10 -50c13 -43 34 -83 59 -121 c31 -47 59 -79 101 -129c-8 0 -26 7 -54 20l-62 29l-21 6l-23 1c-25 0 -45 -10 -60 -30l-4 -14l-1 -12c0 -33 20 -56 39 -78c8 -9 17 -18 26 -26c17 -15 27 -24 28 -30l-3 -3c-11 5 -19 10 -25 15c-9 3 -37 21 -45 26c-24 14 -45 32 -63 51c-19 21 -37 44 -37 71 c0 63 27 95 80 95c41 0 86 -18 136 -52c-19 26 -37 48 -55 66c-23 23 -48 44 -73 65c-28 23 -47 40 -58 53s-17 26 -18 39c75 64 113 125 113 183c0 27 -7 48 -18 68z" />
      </symbol>
      <symbol id="E084-1m104n" viewBox="0 0 1000 1000" overflow="inherit">
         <path transform="scale(1,-1)" d="M20 -78c84 97 114 180 134 329h170c-13 -32 -82 -132 -99 -151l-84 -97c-33 -36 -59 -63 -80 -81h162v102l127 123v-225h57v-39h-57v-34c0 -43 19 -65 57 -65v-34h-244v36c48 0 60 26 60 70v27h-203v39z" />
      </symbol>
      <symbol id="E0A4-1m104n" viewBox="0 0 1000 1000" overflow="inherit">
         <path transform="scale(1,-1)" d="M0 -39c0 68 73 172 200 172c66 0 114 -37 114 -95c0 -84 -106 -171 -218 -171c-64 0 -96 30 -96 94z" />
      </symbol>
      <symbol id="E0A9-1m104n" viewBox="0 0 1000 1000" overflow="inherit">
         <path transform="scale(1,-1)" d="M0 -110c0 4 1 8 5 11l119 99l-119 100c-3 3 -5 8 -5 12c0 6 5 13 12 13c3 0 6 -1 8 -2l124 -105l126 105c2 1 5 2 7 2c6 0 13 -6 13 -14c0 -4 -2 -9 -5 -11l-119 -100l119 -99c3 -3 5 -7 5 -12c0 -6 -5 -14 -13 -14c-2 0 -5 1 -7 3l-126 105l-124 -105c-2 -2 -4 -3 -7 -3 c-8 0 -13 7 -13 15z" />
      </symbol>
      <symbol id="E4E3-1m104n" viewBox="0 0 1000 1000" overflow="inherit">
         <path transform="scale(1,-1)" d="M0 -115v105c0 9 1 10 10 10h280c9 0 10 -1 10 -10v-105c0 -9 -1 -10 -10 -10h-280c-9 0 -10 1 -10 10z" />
      </symbol>
      <symbol id="E069-1m104n" viewBox="0 0 1000 1000" overflow="inherit">
         <path transform="scale(1,-1)" d="M200 250h125v-500h-125v500zM0 250h125v-500h-125v500z" />
      </symbol>
   </defs>
   <style type="text/css">g.page-margin{font-family:Times,serif;} g.ending, g.fing, g.reh, g.tempo{font-weight:bold;} g.dir, g.dynam, g.mNum{font-style:italic;} g.label{font-weight:normal;}</style>
   <svg class="definition-scale" color="black" viewBox="0 0 21000 29700">
      <g class="page-margin" transform="translate(500, 500)">
         <g id="m-d0fde83f-e11f-4e26-9342-3587919b7809" class="mdiv pageMilestone" />
         <g id="m-1f88e045-c770-4ee5-ad4c-35140dcc4095" class="score pageMilestone" />
         <g id="snuau2a" class="system">
            <g id="m-4003de83-ccbc-4ca7-9bf8-f9dedc6207e1" class="section systemMilestone" />
            <g id="m-531d03ec-e3e9-4b50-a2ee-0c1b8e637521" class="measure">
               <g id="m-84eff4d7-5f52-4259-b082-2959eb2fe348" class="staff">
                  <path d="M0 2045 L5313 2045" stroke="currentColor" stroke-width="13" />
                  <path d="M0 2225 L5313 2225" stroke="currentColor" stroke-width="13" />
                  <path d="M0 2405 L5313 2405" stroke="currentColor" stroke-width="13" />
                  <path d="M0 2585 L5313 2585" stroke="currentColor" stroke-width="13" />
                  <path d="M0 2765 L5313 2765" stroke="currentColor" stroke-width="13" />
                  <g id="c1vgpmvg" class="clef">
                     <use xlink:href="#E069-1m104n" x="90" y="2405" height="720px" width="720px" />
                  </g>
                  <g id="k1q4lola" class="keySig" />
                  <g id="m1y1qu3p" class="meterSig">
                     <use xlink:href="#E084-1m104n" x="490" y="2225" height="720px" width="720px" />
                     <use xlink:href="#E084-1m104n" x="490" y="2585" height="720px" width="720px" />
                  </g>
                  <g class="ledgerLines above">
                     <path d="M1016 1865 L1296 1865" stroke="currentColor" stroke-width="22" />
                     <path d="M1338 1865 L1606 1865" stroke="currentColor" stroke-width="22" />
                     <path d="M1638 1865 L1906 1865" stroke="currentColor" stroke-width="22" />
                     <path d="M2082 1865 L2362 1865" stroke="currentColor" stroke-width="22" />
                     <path d="M2404 1865 L2672 1865" stroke="currentColor" stroke-width="22" />
                     <path d="M2704 1865 L2972 1865" stroke="currentColor" stroke-width="22" />
                     <path d="M3154 1865 L3422 1865" stroke="currentColor" stroke-width="22" />
                     <path d="M3454 1865 L3722 1865" stroke="currentColor" stroke-width="22" />
                     <path d="M3754 1865 L4022 1865" stroke="currentColor" stroke-width="22" />
                     <path d="M4198 1865 L4478 1865" stroke="currentColor" stroke-width="22" />
                     <path d="M4520 1865 L4788 1865" stroke="currentColor" stroke-width="22" />
                     <path d="M4820 1865 L5088 1865" stroke="currentColor" stroke-width="22" />
                  </g>
                  <g id="m-78394961-1eae-4d30-961e-56c538f0a545" class="layer">
                     <g id="m-e14a385f-586b-409b-8415-395e1c004de8" class="beam">
                        <polygon points="1242,1190 1876,1190 1876,1280 1242,1280" />
                        <polygon points="1242,1325 1567,1325 1567,1415 1242,1415" />
                        <g id="m-db76d210-efd7-4370-aae6-15fe8a6a61df" class="note">
                           <g class="notehead">
                              <use xlink:href="#E0A9-1m104n" x="1052" y="1775" height="720px" width="720px" />
                           </g>
                           <g id="s3e1esd" class="stem">
                              <path d="M1251 1696 L1251 1208" stroke="currentColor" stroke-width="18" />
                           </g>
                           <g id="a1d32brf" class="accid" />
                        </g>
                        <g id="m-dd2fd1c9-7164-41fb-823d-3b71025d26df" class="note">
                           <g class="notehead">
                              <use xlink:href="#E0A9-1m104n" x="1368" y="1775" height="720px" width="720px" />
                           </g>
                           <g id="s1h5ztov" class="stem">
                              <path d="M1567 1696 L1567 1208" stroke="currentColor" stroke-width="18" />
                           </g>
                           <g id="a13jmv7h" class="accid" />
                        </g>
                        <g id="m-5c1bae2c-b3c5-4adb-8498-7375202d5946" class="note">
                           <g class="notehead">
                              <use xlink:href="#E0A9-1m104n" x="1668" y="1775" height="720px" width="720px" />
                           </g>
                           <g id="sndkq39" class="stem">
                              <path d="M1867 1696 L1867 1208" stroke="currentColor" stroke-width="18" />
                           </g>
                           <g id="a1qdiqqf" class="accid" />
                        </g>
                     </g>
                     <g id="m-b37d9b6b-efea-4be0-939d-75368e437e11" class="beam">
                        <polygon points="2308,1190 2942,1190 2942,1280 2308,1280" />
                        <polygon points="2308,1325 2633,1325 2633,1415 2308,1415" />
                        <g id="m-55e08af1-8ab6-4622-9dfc-84fc5f438f4b" class="note">
                           <g class="notehead">
                              <use xlink:href="#E0A9-1m104n" x="2118" y="1775" height="720px" width="720px" />
                           </g>
                           <g id="s11682xe" class="stem">
                              <path d="M2317 1696 L2317 1208" stroke="currentColor" stroke-width="18" />
                           </g>
                           <g id="a6eda0c" class="accid" />
                        </g>
                        <g id="m-3d335950-8eba-4ae4-970a-a5c1e143ad94" class="note">
                           <g class="notehead">
                              <use xlink:href="#E0A9-1m104n" x="2434" y="1775" height="720px" width="720px" />
                           </g>
                           <g id="s12h7sxl" class="stem">
                              <path d="M2633 1696 L2633 1208" stroke="currentColor" stroke-width="18" />
                           </g>
                           <g id="a1uxyjx5" class="accid" />
                        </g>
                        <g id="m-a2199206-9536-4ba3-b1ef-a3f2c43538d4" class="note">
                           <g class="notehead">
                              <use xlink:href="#E0A9-1m104n" x="2734" y="1775" height="720px" width="720px" />
                           </g>
                           <g id="si1yqr1" class="stem">
                              <path d="M2933 1696 L2933 1208" stroke="currentColor" stroke-width="18" />
                           </g>
                           <g id="a47rxqr" class="accid" />
                        </g>
                     </g>
                     <g id="m-1920d5f7-5f59-46eb-afc1-7693650fa291" class="beam">
                        <polygon points="3374,1190 3992,1190 3992,1280 3374,1280" />
                        <polygon points="3374,1325 3683,1325 3683,1415 3374,1415" />
                        <g id="m-03269353-3927-4eff-8465-919a2d53760b" class="note">
                           <g class="notehead">
                              <use xlink:href="#E0A9-1m104n" x="3184" y="1775" height="720px" width="720px" />
                           </g>
                           <g id="sxbm1lq" class="stem">
                              <path d="M3383 1696 L3383 1208" stroke="currentColor" stroke-width="18" />
                           </g>
                           <g id="a1kfrz03" class="accid" />
                        </g>
                        <g id="m-0d9a89f6-a165-437f-9ce7-c5ccda83cb0e" class="note">
                           <g class="notehead">
                              <use xlink:href="#E0A9-1m104n" x="3484" y="1775" height="720px" width="720px" />
                           </g>
                           <g id="s743q9p" class="stem">
                              <path d="M3683 1696 L3683 1208" stroke="currentColor" stroke-width="18" />
                           </g>
                           <g id="av286vg" class="accid" />
                        </g>
                        <g id="m-d5be207a-e91a-49e9-b8e5-a15b9cf4ade9" class="note">
                           <g class="notehead">
                              <use xlink:href="#E0A9-1m104n" x="3784" y="1775" height="720px" width="720px" />
                           </g>
                           <g id="s1456qxj" class="stem">
                              <path d="M3983 1696 L3983 1208" stroke="currentColor" stroke-width="18" />
                           </g>
                           <g id="athki27" class="accid" />
                        </g>
                     </g>
                     <g id="m-b43e2872-d16a-4eff-8f8f-893cad1bcc48" class="beam">
                        <polygon points="4424,1190 5058,1190 5058,1280 4424,1280" />
                        <polygon points="4424,1325 4749,1325 4749,1415 4424,1415" />
                        <g id="m-10730e29-89f1-4906-8e83-220b5f4cd2cb" class="note">
                           <g class="notehead">
                              <use xlink:href="#E0A9-1m104n" x="4234" y="1775" height="720px" width="720px" />
                           </g>
                           <g id="scbmik2" class="stem">
                              <path d="M4433 1696 L4433 1208" stroke="currentColor" stroke-width="18" />
                           </g>
                           <g id="a1kpz52d" class="accid" />
                        </g>
                        <g id="m-bf6f2bc4-50e0-40a0-9e02-a721eb1c8892" class="note">
                           <g class="notehead">
                              <use xlink:href="#E0A9-1m104n" x="4550" y="1775" height="720px" width="720px" />
                           </g>
                           <g id="s8t5bqk" class="stem">
                              <path d="M4749 1696 L4749 1208" stroke="currentColor" stroke-width="18" />
                           </g>
                           <g id="a15qyzfm" class="accid" />
                        </g>
                        <g id="m-0fd9d6a2-9480-441e-81df-5d1c669383ca" class="note">
                           <g class="notehead">
                              <use xlink:href="#E0A9-1m104n" x="4850" y="1775" height="720px" width="720px" />
                           </g>
                           <g id="sznqga8" class="stem">
                              <path d="M5049 1696 L5049 1208" stroke="currentColor" stroke-width="18" />
                           </g>
                           <g id="acyplti" class="accid" />
                        </g>
                     </g>
                  </g>
                  <g id="m-3ea12a42-4f9d-4a0a-8b39-588f643b8b32" class="layer">
                     <g id="m-e25f3a8f-b92b-4524-8b2c-b1c2b4839fb9" class="note">
                        <g class="notehead">
                           <use xlink:href="#E0A4-1m104n" x="1052" y="2855" height="720px" width="720px" />
                        </g>
                        <g id="s1xwob2g" class="stem">
                           <path d="M1061 2883 L1061 3305" stroke="currentColor" stroke-width="18" />
                        </g>
                     </g>
                     <g id="m-967847c0-9c66-49f6-962c-3b69cdebe87c" class="note">
                        <g class="notehead">
                           <use xlink:href="#E0A4-1m104n" x="2118" y="2405" height="720px" width="720px" />
                        </g>
                        <g id="s1muxmwk" class="stem">
                           <path d="M2127 2433 L2127 3005" stroke="currentColor" stroke-width="18" />
                        </g>
                        <g id="a12smhgg" class="accid" />
                     </g>
                     <g id="m-8e649190-dec2-4682-9d95-1694d48ffbce" class="rest">
                        <use xlink:href="#E4E5-1m104n" x="3184" y="2585" height="720px" width="720px" />
                     </g>
                     <g id="m-1e1c9740-cf60-4e55-910c-51f632fef365" class="note">
                        <g class="notehead">
                           <use xlink:href="#E0A4-1m104n" x="4234" y="2405" height="720px" width="720px" />
                        </g>
                        <g id="s1lqpdvr" class="stem">
                           <path d="M4243 2433 L4243 3005" stroke="currentColor" stroke-width="18" />
                        </g>
                        <g id="a885cg5" class="accid" />
                     </g>
                  </g>
               </g>
               <g id="b1oe20jm" class="barLine">
                  <path d="M5300 2045 L5300 2765" stroke="currentColor" stroke-width="27" />
               </g>
            </g>
            <g id="m-2351f8c0-4bfe-4588-9f68-18ef7295e764" class="measure">
               <g id="m-5f1ff632-0996-4275-9b0c-55e0aa0942a3" class="staff">
                  <path d="M5313 2045 L10372 2045" stroke="currentColor" stroke-width="13" />
                  <path d="M5313 2225 L10372 2225" stroke="currentColor" stroke-width="13" />
                  <path d="M5313 2405 L10372 2405" stroke="currentColor" stroke-width="13" />
                  <path d="M5313 2585 L10372 2585" stroke="currentColor" stroke-width="13" />
                  <path d="M5313 2765 L10372 2765" stroke="currentColor" stroke-width="13" />
                  <g class="ledgerLines above">
                     <path d="M5463 1865 L5731 1865" stroke="currentColor" stroke-width="22" />
                     <path d="M5763 1865 L6031 1865" stroke="currentColor" stroke-width="22" />
                     <path d="M6063 1865 L6331 1865" stroke="currentColor" stroke-width="22" />
                     <path d="M6495 1865 L6799 1865" stroke="currentColor" stroke-width="22" />
                     <path d="M6937 1865 L7205 1865" stroke="currentColor" stroke-width="22" />
                     <path d="M7235 1865 L7503 1865" stroke="currentColor" stroke-width="22" />
                     <path d="M7533 1865 L7801 1865" stroke="currentColor" stroke-width="22" />
                     <path d="M7939 1865 L8243 1865" stroke="currentColor" stroke-width="22" />
                     <path d="M8381 1865 L8649 1865" stroke="currentColor" stroke-width="22" />
                     <path d="M8679 1865 L8947 1865" stroke="currentColor" stroke-width="22" />
                     <path d="M8979 1865 L9247 1865" stroke="currentColor" stroke-width="22" />
                     <path d="M9279 1865 L9547 1865" stroke="currentColor" stroke-width="22" />
                     <path d="M9579 1865 L9847 1865" stroke="currentColor" stroke-width="22" />
                     <path d="M9879 1865 L10147 1865" stroke="currentColor" stroke-width="22" />
                  </g>
                  <g id="m-78b59b80-de30-4dd9-84af-ebb1ed4b8f2e" class="layer">
                     <g id="m-e815273a-d68e-4669-916d-2286ae0de335" class="beam">
                        <polygon points="5683,1190 6301,1190 6301,1280 5683,1280" />
                        <polygon points="5683,1325 5992,1325 5992,1415 5683,1415" />
                        <g id="m-a0782b33-9a4f-459d-9fbf-22f907274a72" class="note">
                           <g class="notehead">
                              <use xlink:href="#E0A9-1m104n" x="5493" y="1775" height="720px" width="720px" />
                           </g>
                           <g id="sd2xkhb" class="stem">
                              <path d="M5692 1696 L5692 1208" stroke="currentColor" stroke-width="18" />
                           </g>
                           <g id="ajop6lb" class="accid" />
                        </g>
                        <g id="m-910a4e7e-acef-4a7c-bb36-362e593cde0a" class="note">
                           <g class="notehead">
                              <use xlink:href="#E0A9-1m104n" x="5793" y="1775" height="720px" width="720px" />
                           </g>
                           <g id="sfmoe14" class="stem">
                              <path d="M5992 1696 L5992 1208" stroke="currentColor" stroke-width="18" />
                           </g>
                           <g id="a15yjb5" class="accid" />
                        </g>
                        <g id="m-bd32b88f-04f4-48a7-b029-d5d171bd5a7e" class="note">
                           <g class="notehead">
                              <use xlink:href="#E0A9-1m104n" x="6093" y="1775" height="720px" width="720px" />
                           </g>
                           <g id="s1bl4i6d" class="stem">
                              <path d="M6292 1696 L6292 1208" stroke="currentColor" stroke-width="18" />
                           </g>
                           <g id="a1cfb17u" class="accid" />
                        </g>
                     </g>
                     <g id="m-cbff134b-3555-409a-a886-a933fa071a3b" class="beam">
                        <polygon points="6733,1055 7771,1055 7771,1145 6733,1145" />
                        <polygon points="6733,1190 7166,1190 7166,1280 6733,1280" />
                        <polygon points="7166,1190 7464,1190 7464,1280 7166,1280" />
                        <polygon points="7464,1190 7771,1190 7771,1280 7464,1280" />
                        <polygon points="7166,1325 7464,1325 7464,1415 7166,1415" />
                        <g id="m-fdaf5aa2-1a0e-43af-95f4-ae8424c4d68d" class="note">
                           <g class="notehead">
                              <use xlink:href="#E0A9-1m104n" x="6543" y="1775" height="720px" width="720px" />
                           </g>
                           <g id="deczzln" class="dots">
                              <ellipse cx="6841" cy="1775" rx="36" ry="36" />
                           </g>
                           <g id="s1sy0bqz" class="stem">
                              <path d="M6742 1696 L6742 1073" stroke="currentColor" stroke-width="18" />
                           </g>
                           <g id="a10im7fc" class="accid" />
                        </g>
                        <g id="m-95bd9c23-de8e-4ad6-8f50-d2100fc9e840" class="note">
                           <g class="notehead">
                              <use xlink:href="#E0A9-1m104n" x="6967" y="1775" height="720px" width="720px" />
                           </g>
                           <g id="s7oyi50" class="stem">
                              <path d="M7166 1696 L7166 1073" stroke="currentColor" stroke-width="18" />
                           </g>
                           <g id="a1v735b3" class="accid" />
                        </g>
                        <g id="m-3fe61d80-b5a7-4d2b-acaf-05de441b4472" class="note">
                           <g class="notehead">
                              <use xlink:href="#E0A9-1m104n" x="7265" y="1775" height="720px" width="720px" />
                           </g>
                           <g id="s8zp8ta" class="stem">
                              <path d="M7464 1696 L7464 1073" stroke="currentColor" stroke-width="18" />
                           </g>
                           <g id="a1htqbam" class="accid" />
                        </g>
                        <g id="m-6ebbbbc9-3d69-4747-9872-1c9f1759db6f" class="note">
                           <g class="notehead">
                              <use xlink:href="#E0A9-1m104n" x="7563" y="1775" height="720px" width="720px" />
                           </g>
                           <g id="desz3zw" class="dots">
                              <ellipse cx="7861" cy="1775" rx="36" ry="36" />
                           </g>
                           <g id="s1q4co53" class="stem">
                              <path d="M7762 1696 L7762 1073" stroke="currentColor" stroke-width="18" />
                           </g>
                           <g id="a1cgipi2" class="accid" />
                        </g>
                     </g>
                     <g id="m-ae0ba147-8aca-4124-b0d5-68b74ff154cd" class="beam">
                        <polygon points="8177,1055 9217,1055 9217,1145 8177,1145" />
                        <polygon points="8177,1190 8610,1190 8610,1280 8177,1280" />
                        <polygon points="8610,1190 8908,1190 8908,1280 8610,1280" />
                        <polygon points="8908,1190 9217,1190 9217,1280 8908,1280" />
                        <polygon points="8384,1325 8610,1325 8610,1415 8384,1415" />
                        <g id="m-487dc58f-15ac-4693-8b66-4f76bcdd87bf" class="note">
                           <g class="notehead">
                              <use xlink:href="#E0A9-1m104n" x="7987" y="1775" height="720px" width="720px" />
                           </g>
                           <g id="dl515st" class="dots">
                              <ellipse cx="8285" cy="1775" rx="36" ry="36" />
                           </g>
                           <g id="sa33coy" class="stem">
                              <path d="M8186 1696 L8186 1073" stroke="currentColor" stroke-width="18" />
                           </g>
                           <g id="aqdj545" class="accid" />
                        </g>
                        <g id="m-85a40cb5-b731-4514-9922-7a9d5062b6ce" class="note">
                           <g class="notehead">
                              <use xlink:href="#E0A9-1m104n" x="8411" y="1775" height="720px" width="720px" />
                           </g>
                           <g id="sd36iyp" class="stem">
                              <path d="M8610 1696 L8610 1073" stroke="currentColor" stroke-width="18" />
                           </g>
                           <g id="a1l30ha7" class="accid" />
                        </g>
                        <g id="m-754a4e8b-9df9-4280-ae45-b7702ae07b8c" class="note">
                           <g class="notehead">
                              <use xlink:href="#E0A9-1m104n" x="8709" y="1775" height="720px" width="720px" />
                           </g>
                           <g id="s1coxi0f" class="stem">
                              <path d="M8908 1696 L8908 1073" stroke="currentColor" stroke-width="18" />
                           </g>
                           <g id="ad3unoe" class="accid" />
                        </g>
                        <g id="m-22269b97-31e2-4cef-a28d-ea658b0d92e0" class="note">
                           <g class="notehead">
                              <use xlink:href="#E0A9-1m104n" x="9009" y="1775" height="720px" width="720px" />
                           </g>
                           <g id="s9vt3kb" class="stem">
                              <path d="M9208 1696 L9208 1073" stroke="currentColor" stroke-width="18" />
                           </g>
                           <g id="au911ww" class="accid" />
                        </g>
                     </g>
                     <g id="m-5c3b3bf4-b708-4f9f-8e85-2ff3931f8bfe" class="beam">
                        <polygon points="9499,1190 10117,1190 10117,1280 9499,1280" />
                        <polygon points="9499,1325 9808,1325 9808,1415 9499,1415" />
                        <g id="m-e3d5df2f-3001-4677-94f2-ee208de1a7ee" class="note">
                           <g class="notehead">
                              <use xlink:href="#E0A9-1m104n" x="9309" y="1775" height="720px" width="720px" />
                           </g>
                           <g id="sjmowmg" class="stem">
                              <path d="M9508 1696 L9508 1208" stroke="currentColor" stroke-width="18" />
                           </g>
                           <g id="ai693q8" class="accid" />
                        </g>
                        <g id="m-f448498e-b9bf-46e7-8666-96377c537557" class="note">
                           <g class="notehead">
                              <use xlink:href="#E0A9-1m104n" x="9609" y="1775" height="720px" width="720px" />
                           </g>
                           <g id="szll9za" class="stem">
                              <path d="M9808 1696 L9808 1208" stroke="currentColor" stroke-width="18" />
                           </g>
                           <g id="a1qnhd2g" class="accid" />
                        </g>
                        <g id="m-60fd6725-bfe5-4c81-a8a9-3ab52ed561af" class="note">
                           <g class="notehead">
                              <use xlink:href="#E0A9-1m104n" x="9909" y="1775" height="720px" width="720px" />
                           </g>
                           <g id="scrbvb8" class="stem">
                              <path d="M10108 1696 L10108 1208" stroke="currentColor" stroke-width="18" />
                           </g>
                           <g id="a5pkg32" class="accid" />
                        </g>
                     </g>
                  </g>
                  <g id="m-58248d43-3ad7-4b92-9974-ea41043ed070" class="layer">
                     <g id="m-a68cf4fa-509e-4105-9ab7-9fcf0c6a8e0f" class="rest">
                        <use xlink:href="#E4E3-1m104n" x="5493" y="2585" height="720px" width="720px" />
                        <g class="ledgerLines" />
                     </g>
                  </g>
               </g>
               <g id="b3vype" class="barLine">
                  <path d="M10359 2045 L10359 2765" stroke="currentColor" stroke-width="27" />
               </g>
            </g>
            <g id="s1iw4psm" class="systemMilestoneEnd m-4003de83-ccbc-4ca7-9bf8-f9dedc6207e1" />
         </g>
         <g id="p1glgjc5" class="pageMilestoneEnd m-1f88e045-c770-4ee5-ad4c-35140dcc4095" />
         <g id="p1onuymb" class="pageMilestoneEnd m-d0fde83f-e11f-4e26-9342-3587919b7809" />
         <g id="p4jmam8" class="pgHead autogenerated">
            <text font-size="0px">
               <tspan id="rz15rml" class="rend" x="10000" y="415" text-anchor="middle">
                  <title class="labelAttr">title</title>
                  <tspan id="r1fvnf35" class="rend">
                     <tspan id="tbcrg98" class="text">
                        <tspan font-size="607px">27_jazz_92_beat_4-4</tspan>
                     </tspan>
                  </tspan>
                  <tspan id="l1y8bjwr" class="lb" />
                  <tspan id="rjyi2yx" class="rend">
                     <tspan id="t3wb10p" class="text" x="10000" y="805">
                        <tspan font-size="324px">27_jazz_92_beat_4-4</tspan>
                     </tspan>
                  </tspan>
               </tspan>
            </text>
         </g>
         <g id="pfasxdd" class="pgFoot autogenerated">
            <g id="f1hummpv" class="fig">
               <g class="svg" transform="translate(7750, 28099) scale(10.000000, 10.000000)">
                  <g>
                     <path fill="#00000" d="M 17.11278,49.26451 V 10.367554 h 12.696511 c 3.288815,7.336676 6.71267,14.610456 10.127281,21.888976 3.419998,-7.484684 6.255515,-14.204887 9.58887,-21.909915 2.436207,0.103726 4.316952,0.08453 6.484294,-0.05808 V 49.264423 H 50.274275 C 50.145222,38.35639 50.016136,27.448368 49.887066,16.540329 45.003488,27.315459 39.967448,38.433564 35.083854,49.208695 34.678996,49.343717 34.426583,49.135619 34.021726,49.270644 29.46588,39.330716 24.910049,29.390805 20.354201,19.450876 20.224341,29.388756 20.09461,39.326619 19.964815,49.264497 H 17.11278 Z M 36.754144,39.324695 C 32.721221,30.512695 28.6883,21.700679 24.655394,12.888662 22.530527,12.750737 22.656775,12.71031 20.714356,12.813974 v 0.966497 c 4.612938,9.99784 9.609439,20.748709 13.87298,30.081745 0.722248,-1.512523 1.444528,-3.025014 2.166808,-4.537521 z m 25.738417,9.939815 c 0,-12.965651 0,-25.931305 0,-38.896956 10.084388,0 20.168791,0 30.253178,0 0,0.960416 0,1.920849 0,2.881265 -6.482825,0 -12.965652,0 -19.448478,0 0,4.802097 0,9.604178 0,14.406277 5.52241,0 11.044819,0 16.567229,0 0,0.960415 0,1.920832 0,2.881248 -5.52241,0 -11.044819,0 -16.567229,0 0,5.282306 0,10.564611 0,15.846917 6.963035,0 13.926068,0 20.889103,0 0,0.960416 0,1.920832 0,2.881249 -10.564597,0 -21.129207,0 -31.693803,0 z m 4.321874,-2.160937 c 0,-11.765131 0,-23.530263 0,-35.295394 -0.720312,0 -1.440625,0 -2.160937,0 0,11.765131 0,23.530263 0,35.295394 0.720312,0 1.440625,0 2.160937,0 z m 32.41413,2.160937 c 0,-12.965651 0,-25.931305 0,-38.896956 2.401045,0 4.802095,0 7.203135,0 0,12.965651 0,25.931305 0,38.896956 -2.40104,0 -4.80209,0 -7.203135,0 z m 2.881265,-2.160937 c 0,-11.765131 0,-23.530263 0,-35.295394 -0.72031,0 -1.44064,0 -2.160953,0 0,11.765131 0,23.530263 0,35.295394 0.720313,0 1.440643,0 2.160953,0 z" />
                     <path fill="#00000" d="m 346.3,6.7 c -3.1,0.5 -4.9,4.4 -2.7,6.8 1.2,1.4 2.7,2.4 4.1,3.5 -2.4,5.3 -7.7,8.3 -11.9,12.1 -3.7,2.8 -7,6.2 -9.7,9.9 -2.2,-0.8 -0.3,-6.8 -0.6,-9.5 0.1,-3.1 0.7,-6.4 2.9,-8.7 1.3,-1.9 3,-3.5 4.5,-5.2 1.2,-3.4 -3.2,-4.9 -5.8,-4.6 -7.3,-0.5 -14.6,2 -20,6.8 -5,4.6 -10,10.1 -11.5,17 -0.9,3.5 -0.2,7.5 2.8,9.9 2.5,2.8 7.4,2.9 9.8,-0.2 1.7,-2.3 3.2,-4.8 3.8,-7.6 -0.1,-2.6 -4.4,-2.3 -4.3,0.2 1.2,2.4 -0.9,4.7 -2.7,6.2 -1.7,0.9 -4.7,0.7 -4.8,-1.7 -1,-5.8 2.1,-11.3 5.2,-16.1 4,-5.8 9.8,-11.2 17.2,-11.8 1.6,0 8.1,-1.2 6.8,1.4 -2.8,2.8 -5.6,6.1 -6,10.3 -1.6,7.7 0.1,15.7 -2.3,23.2 -1.1,3.9 2,2.6 2.5,0.2 3.3,-7.4 8.9,-13.4 15.1,-18.5 4.2,-3.9 9.5,-7.1 11.9,-12.6 1.3,-3.6 1.2,-9 -2.7,-10.9 -0.6,-0.2 -1.2,-0.3 -1.8,-0.3 z m 66,14.5 c -2,0.8 -1.8,4.9 0.8,4.4 3.4,0.4 2.9,-6.2 -0.8,-4.4 z m 0.6,7.3 c -1.3,0.5 -7.6,0.5 -5.4,2.2 4,-0.3 0.7,4.5 0.6,6.7 -0.4,2.9 -2.4,5.9 -1.2,8.8 2.7,1.7 5.6,-0.8 6.8,-3.2 1.6,-1.4 -0.5,-3 -1.2,-0.9 -0.4,0.8 -2.4,3.5 -2.6,1.8 1.1,-5 2.7,-9.9 3.9,-14.9 l -0.1,-0.5 h -0.9 z m -65.1,0.2 c -6.5,1.6 -10.5,9.5 -8.2,15.7 2.1,3.4 7.4,2.9 10.1,0.4 2,-0.2 3.6,-5.3 1,-3.4 -1.4,2 -4,4.2 -6.5,2.8 -2.2,-1.9 -1.9,-5.7 1.7,-5.3 3.1,-0.9 6.9,-2.1 8.1,-5.5 0.9,-2.7 -1.6,-5.2 -4.3,-4.8 h -1.1 -0.7 z m 13.6,0 c -2.2,0 -8.5,1.8 -2.9,2.3 0.9,1.9 -1,4.9 -1.1,7.2 -0.5,2.9 -1.4,5.7 -1.7,8.7 3.7,0.7 3.8,-2.6 4.4,-5.3 0.9,-3.3 1.6,-7 4.1,-9.5 2.4,1.6 6.8,-0.7 3.7,-3.4 -2.9,-0.5 -4.8,2.4 -6.2,4.3 0,-1.2 2.4,-5 -0.2,-4.3 z m 15.8,0 c -6.4,1.3 -9.6,9.1 -7.7,14.9 1.9,4 7.7,3.9 11,1.7 4.1,-3 6,-8.9 4.4,-13.7 -1.3,-3 -4.8,-3.2 -7.6,-3 z m 17,0 c -2.3,0 -8.8,1.9 -3,2.4 0.4,2.5 -1,5.7 -1.4,8.4 -0.7,2.4 -1.8,7.5 2.1,7.2 3.8,-0.1 6.5,-3.5 8.5,-6.3 2,-3.2 4.5,-7 3.3,-10.9 -3.7,-3 -3.6,2.6 -3.1,5.1 -0.7,3.8 -2.7,7.9 -6.2,9.8 -3.6,0.6 -1,-4.3 -0.8,-6.1 0.6,-3.2 1.6,-6.3 1.9,-9.5 -0.4,0 -0.8,0 -1.1,0 z m 30.6,0 c -6.3,1.2 -9.5,8.9 -7.8,14.7 1.5,4 7.2,4.2 10.5,2.4 4.6,-2.8 6.6,-9.3 4.8,-14.3 -1.4,-2.8 -4.8,-3 -7.5,-2.8 z m -75.4,1.7 c 2.1,1.5 0.2,4.7 -1.6,5.7 -1.1,0.4 -5.5,3.4 -4.6,0.7 0.8,-2.7 2.2,-6.2 5.3,-6.6 l 0.9,0.1 z m 30.8,0 c 2.6,1.5 1.3,5.2 0.8,7.6 -0.8,2.7 -1.9,5.9 -4.7,7.1 -5.1,0.8 -4,-5.8 -2.8,-8.8 1,-2.8 3,-6.8 6.7,-5.8 z m 47.1,-0.1 c 2.9,0.7 2,4.7 1.5,6.8 -0.7,3 -1.8,6.7 -5,8 -4.7,0.8 -4,-5.1 -3,-7.9 0.9,-3 2.7,-7.3 6.5,-6.8 z m -88.1,5.9 c -0.3,1.3 0.9,-0.6 0,0 z m -1.1,2.4 c -0.2,0.5 0.5,-0.1 0,0 z m -1.3,4.5 c -0.3,1.3 0.8,-0.2 0,0 z" />
                     <text y="41" x="201" fill="#00000" style="font-style:italic;font-weight:normal;font-size:30px;line-height:125%;font-family:Times;text-anchor:middle" xml:space="preserve">engraved with</text>
                  </g>
               </g>
            </g>
         </g>
      </g>
   </svg>
</svg>
