<?xml version="1.0" encoding="UTF-8" standalone="no"?>
<svg width="2100px" height="2970px" version="1.1" xmlns="http://www.w3.org/2000/svg" xmlns:xlink="http://www.w3.org/1999/xlink" xmlns:mei="http://www.music-encoding.org/ns/mei" overflow="visible">
   <desc>Engraved by Verovio 4.4.0-66ab39c</desc>
   <defs>
      <symbol id="E084-vop6u4" viewBox="0 0 1000 1000" overflow="inherit">
         <path transform="scale(1,-1)" d="M20 -78c84 97 114 180 134 329h170c-13 -32 -82 -132 -99 -151l-84 -97c-33 -36 -59 -63 -80 -81h162v102l127 123v-225h57v-39h-57v-34c0 -43 19 -65 57 -65v-34h-244v36c48 0 60 26 60 70v27h-203v39z" />
      </symbol>
      <symbol id="E0A4-vop6u4" viewBox="0 0 1000 1000" overflow="inherit">
         <path transform="scale(1,-1)" d="M0 -39c0 68 73 172 200 172c66 0 114 -37 114 -95c0 -84 -106 -171 -218 -171c-64 0 -96 30 -96 94z" />
      </symbol>
      <symbol id="E241-vop6u4" viewBox="0 0 1000 1000" overflow="inherit">
         <path transform="scale(1,-1)" d="M179 646c-4 8 -17 30 -18 33l-4 10c0 3 2 5 5 5s7 -2 13 -7c23 -33 46 -81 66 -132c22 -57 35 -125 35 -163c0 -104 -60 -183 -122 -241c-63 -59 -57 -53 -61 -56c-38 -34 -63 -95 -71 -95h-22v190c40 7 69 11 87 16c88 27 168 95 168 200c0 30 -12 89 -30 138 c-17 47 -31 73 -46 102z" />
      </symbol>
      <symbol id="E4E5-vop6u4" viewBox="0 0 1000 1000" overflow="inherit">
         <path transform="scale(1,-1)" d="M107 292c-13 24 -30 49 -52 71c-1 1 0 2 0 3l-2 2c3 3 4 4 6 4c12 0 26 -7 40 -20s44 -40 89 -81c26 -24 28 -29 46 -47c4 -4 8 -9 10 -14c6 -8 8 -16 8 -27c0 -19 -12 -40 -36 -61c-28 -23 -49 -38 -61 -73c-4 -11 -7 -27 -10 -50c13 -43 34 -83 59 -121 c31 -47 59 -79 101 -129c-8 0 -26 7 -54 20l-62 29l-21 6l-23 1c-25 0 -45 -10 -60 -30l-4 -14l-1 -12c0 -33 20 -56 39 -78c8 -9 17 -18 26 -26c17 -15 27 -24 28 -30l-3 -3c-11 5 -19 10 -25 15c-9 3 -37 21 -45 26c-24 14 -45 32 -63 51c-19 21 -37 44 -37 71 c0 63 27 95 80 95c41 0 86 -18 136 -52c-19 26 -37 48 -55 66c-23 23 -48 44 -73 65c-28 23 -47 40 -58 53s-17 26 -18 39c75 64 113 125 113 183c0 27 -7 48 -18 68z" />
      </symbol>
      <symbol id="E4E6-vop6u4" viewBox="0 0 1000 1000" overflow="inherit">
         <path transform="scale(1,-1)" d="M0 123c7 34 33 56 69 60c29 -3 43 -9 53 -29c4 -8 7 -15 10 -22c0 -21 -1 -25 -11 -35c-5 -8 -18 -14 -40 -20l12 -3l15 -1c44 0 97 26 122 56c10 11 18 26 24 42c7 1 15 2 22 3l-140 -424h-36l111 330c-10 -6 -27 -12 -53 -16l-52 -8h-10l-20 1c-1 0 -8 3 -21 6 c-37 9 -55 28 -55 60z" />
      </symbol>
      <symbol id="E222-vop6u4" viewBox="0 0 1000 1000" overflow="inherit">
         <path transform="scale(1,-1)" d="M-163 -200l326 150v-100l-326 -150v100zM-163 150l326 150v-100l-326 -150v100zM-163 -25l326 150v-100l-326 -150v100z" />
      </symbol>
      <symbol id="E069-vop6u4" viewBox="0 0 1000 1000" overflow="inherit">
         <path transform="scale(1,-1)" d="M200 250h125v-500h-125v500zM0 250h125v-500h-125v500z" />
      </symbol>
      <symbol id="E243-vop6u4" viewBox="0 0 1000 1000" overflow="inherit">
         <path transform="scale(1,-1)" d="M216 730c-5 8 -10 13 -11 16l-4 10c0 3 2 5 5 5s7 -2 13 -7c35 -42 57 -101 57 -172c0 -34 -6 -65 -17 -94c10 -31 17 -64 17 -96c0 -104 -60 -183 -122 -241c-63 -59 -57 -53 -61 -56c-38 -34 -63 -95 -71 -95h-22v190v190c40 7 69 11 87 16c116 36 175 111 175 197 c0 44 -15 91 -46 137zM248 463c-23 -48 -58 -89 -94 -122c-63 -59 -57 -53 -61 -56c-30 -27 -44 -71 -53 -88c20 3 36 6 47 9c88 27 168 95 168 200c0 19 -3 39 -7 57z" />
      </symbol>
      <symbol id="E0A9-vop6u4" viewBox="0 0 1000 1000" overflow="inherit">
         <path transform="scale(1,-1)" d="M0 -110c0 4 1 8 5 11l119 99l-119 100c-3 3 -5 8 -5 12c0 6 5 13 12 13c3 0 6 -1 8 -2l124 -105l126 105c2 1 5 2 7 2c6 0 13 -6 13 -14c0 -4 -2 -9 -5 -11l-119 -100l119 -99c3 -3 5 -7 5 -12c0 -6 -5 -14 -13 -14c-2 0 -5 1 -7 3l-126 105l-124 -105c-2 -2 -4 -3 -7 -3 c-8 0 -13 7 -13 15z" />
      </symbol>
      <symbol id="E0B6-vop6u4" viewBox="0 0 1000 1000" overflow="inherit">
         <path transform="scale(1,-1)" d="M0 -36c0 68 73 174 200 174c66 0 114 -39 114 -97c0 -84 -106 -173 -218 -173c-64 0 -96 32 -96 96zM52 -92c6 -2 15 -3 26 -3c29 5 70 23 107 47l-41 31zM208 -31c40 29 70 64 70 95c0 9 -3 16 -7 23l-105 -87zM246 102c-3 1 -7 1 -11 1c-12 0 -26 -3 -41 -10 c-30 -15 -60 -32 -86 -49l36 -26zM85 27c-33 -27 -56 -57 -56 -90c1 -4 2 -7 3 -11l92 74z" />
      </symbol>
   </defs>
   <style type="text/css">g.page-margin{font-family:Times,serif;} g.ending, g.fing, g.reh, g.tempo{font-weight:bold;} g.dir, g.dynam, g.mNum{font-style:italic;} g.label{font-weight:normal;}</style>
   <svg class="definition-scale" color="black" viewBox="0 0 21000 29700">
      <g class="page-margin" transform="translate(500, 500)">
         <g id="m-db742d8b-8815-4c87-84a3-db867d22e00c" class="mdiv pageMilestone" />
         <g id="m-074e8628-251a-4973-881b-07082a6cd6af" class="score pageMilestone" />
         <g id="svymp41" class="system">
            <g id="m-3580149f-9683-4b67-b81d-0a13b963c8a6" class="section systemMilestone" />
            <g id="m-98ddd378-e4b7-4ecd-8bb5-c8ad13b23f01" class="measure">
               <g id="m-d8688b2f-7a89-4d11-afa7-4a2dc7a7d8c2" class="staff">
                  <path d="M0 1784 L4455 1784" stroke="currentColor" stroke-width="13" />
                  <path d="M0 1964 L4455 1964" stroke="currentColor" stroke-width="13" />
                  <path d="M0 2144 L4455 2144" stroke="currentColor" stroke-width="13" />
                  <path d="M0 2324 L4455 2324" stroke="currentColor" stroke-width="13" />
                  <path d="M0 2504 L4455 2504" stroke="currentColor" stroke-width="13" />
                  <g id="cavkb80" class="clef">
                     <use xlink:href="#E069-vop6u4" x="90" y="2144" height="720px" width="720px" />
                  </g>
                  <g id="k1oi2kzd" class="keySig" />
                  <g id="mckxsl0" class="meterSig">
                     <use xlink:href="#E084-vop6u4" x="490" y="1964" height="720px" width="720px" />
                     <use xlink:href="#E084-vop6u4" x="490" y="2324" height="720px" width="720px" />
                  </g>
                  <g class="ledgerLines above">
                     <path d="M1694 1604 L1998 1604" stroke="currentColor" stroke-width="22" />
                     <path d="M2144 1604 L2448 1604" stroke="currentColor" stroke-width="22" />
                     <path d="M2594 1604 L2898 1604" stroke="currentColor" stroke-width="22" />
                     <path d="M3044 1604 L3348 1604" stroke="currentColor" stroke-width="22" />
                     <path d="M3494 1604 L3798 1604" stroke="currentColor" stroke-width="22" />
                     <path d="M3944 1604 L4248 1604" stroke="currentColor" stroke-width="22" />
                  </g>
                  <g id="m-4157537a-cd3a-4931-9c36-b535bef77a75" class="layer">
                     <g id="m-3c862e26-b661-4b05-997d-dfa220e2409d" class="rest">
                        <use xlink:href="#E4E5-vop6u4" x="1052" y="1424" height="720px" width="720px" />
                     </g>
                     <g id="m-f50db40e-306f-4add-91c6-16abf0900161" class="beam">
                        <polygon points="1932,1064 2400,1064 2400,1154 1932,1154" />
                        <g id="m-cf35a071-9d30-4733-b168-dc63a6302feb" class="note">
                           <g class="notehead">
                              <use xlink:href="#E0A9-vop6u4" x="1742" y="1514" height="720px" width="720px" />
                           </g>
                           <g id="s1kzyddx" class="stem">
                              <path d="M1941 1435 L1941 1082" stroke="currentColor" stroke-width="18" />
                           </g>
                           <g id="a18jsumc" class="accid" />
                        </g>
                        <g id="m-6bfc9699-e391-4dbf-80ff-53454185720b" class="note">
                           <g class="notehead">
                              <use xlink:href="#E0A9-vop6u4" x="2192" y="1514" height="720px" width="720px" />
                           </g>
                           <g id="s1d62vfp" class="stem">
                              <path d="M2391 1435 L2391 1082" stroke="currentColor" stroke-width="18" />
                           </g>
                           <g id="a1jdspim" class="accid" />
                        </g>
                     </g>
                     <g id="m-733aa110-7593-4df8-a765-f8e2383694fd" class="beam">
                        <polygon points="2832,1064 3300,1064 3300,1154 2832,1154" />
                        <g id="m-26e4ba07-b7d1-4f83-8449-c5f4172625e3" class="note">
                           <g class="notehead">
                              <use xlink:href="#E0A9-vop6u4" x="2642" y="1514" height="720px" width="720px" />
                           </g>
                           <g id="s1w4y3ad" class="stem">
                              <path d="M2841 1435 L2841 1082" stroke="currentColor" stroke-width="18" />
                           </g>
                           <g id="a1edjx5i" class="accid" />
                        </g>
                        <g id="m-d2666253-16b9-41e0-8a2c-efb5190786fe" class="note">
                           <g class="notehead">
                              <use xlink:href="#E0A9-vop6u4" x="3092" y="1514" height="720px" width="720px" />
                           </g>
                           <g id="s153xwq4" class="stem">
                              <path d="M3291 1435 L3291 1082" stroke="currentColor" stroke-width="18" />
                           </g>
                           <g id="av5xwdy" class="accid" />
                        </g>
                     </g>
                     <g id="m-498bd298-9ca7-4d6d-bf11-6a964b00ad18" class="beam">
                        <polygon points="3732,1064 4200,1064 4200,1154 3732,1154" />
                        <g id="m-148f8e7b-71eb-48fa-9e19-af9aab56b13a" class="note">
                           <g class="notehead">
                              <use xlink:href="#E0A9-vop6u4" x="3542" y="1514" height="720px" width="720px" />
                           </g>
                           <g id="svy8k4q" class="stem">
                              <path d="M3741 1435 L3741 1082" stroke="currentColor" stroke-width="18" />
                           </g>
                           <g id="a1cbfgdq" class="accid" />
                        </g>
                        <g id="m-4ffe35cd-ba32-48cb-97a5-22f9b9f4946e" class="note">
                           <g class="notehead">
                              <use xlink:href="#E0A9-vop6u4" x="3992" y="1514" height="720px" width="720px" />
                           </g>
                           <g id="s7h9k26" class="stem">
                              <path d="M4191 1435 L4191 1082" stroke="currentColor" stroke-width="18" />
                           </g>
                           <g id="a1qwt9j" class="accid" />
                        </g>
                     </g>
                  </g>
                  <g id="m-c8b23995-9b24-43e1-91ff-56c64dfb9d3d" class="layer">
                     <g id="m-8fda312f-1d14-4481-920a-f2b56ecc47c1" class="rest">
                        <use xlink:href="#E4E5-vop6u4" x="1052" y="2504" height="720px" width="720px" />
                     </g>
                     <g id="m-2c52c165-076d-4902-992e-0dc3f406b5b8" class="beam">
                        <polygon points="1742,3044 2210,3089 2210,2999 1742,2954" />
                        <g id="m-ff566fbe-b7e9-4937-ac69-49b521134acf" class="note">
                           <g class="notehead">
                              <use xlink:href="#E0A4-vop6u4" x="1742" y="2144" height="720px" width="720px" />
                           </g>
                           <g id="s15tpvxx" class="stem">
                              <path d="M1751 2172 L1751 3026" stroke="currentColor" stroke-width="18" />
                           </g>
                           <g id="a1plslwl" class="accid" />
                        </g>
                        <g id="m-99050f9e-762a-4d14-a73d-ac687f172677" class="note">
                           <g class="notehead">
                              <use xlink:href="#E0A4-vop6u4" x="2192" y="2594" height="720px" width="720px" />
                           </g>
                           <g id="s1k0rmef" class="stem">
                              <path d="M2201 2622 L2201 3071" stroke="currentColor" stroke-width="18" />
                           </g>
                        </g>
                     </g>
                     <g id="m-dce1035c-021f-40fb-ac0a-b64de677a54a" class="note">
                        <g class="notehead">
                           <use xlink:href="#E0A4-vop6u4" x="2642" y="2594" height="720px" width="720px" />
                        </g>
                        <g id="s18byipt" class="stem">
                           <path d="M2651 2622 L2651 3044" stroke="currentColor" stroke-width="18" />
                        </g>
                     </g>
                     <g id="m-0d67f50a-b8e1-43fc-ac11-fec836f4e948" class="note">
                        <g class="notehead">
                           <use xlink:href="#E0A4-vop6u4" x="3542" y="2144" height="720px" width="720px" />
                        </g>
                        <g id="s1e0k6kr" class="stem">
                           <path d="M3551 2172 L3551 2744" stroke="currentColor" stroke-width="18" />
                        </g>
                        <g id="a1ftigxb" class="accid" />
                     </g>
                  </g>
               </g>
               <g id="bpxa7sk" class="barLine">
                  <path d="M4442 1784 L4442 2504" stroke="currentColor" stroke-width="27" />
               </g>
            </g>
            <g id="m-64ccd015-22c1-43d0-8312-c0c3803581aa" class="measure">
               <g id="m-251dd2e2-d294-4d7a-9897-dbcaf53502cf" class="staff">
                  <path d="M4455 1784 L8248 1784" stroke="currentColor" stroke-width="13" />
                  <path d="M4455 1964 L8248 1964" stroke="currentColor" stroke-width="13" />
                  <path d="M4455 2144 L8248 2144" stroke="currentColor" stroke-width="13" />
                  <path d="M4455 2324 L8248 2324" stroke="currentColor" stroke-width="13" />
                  <path d="M4455 2504 L8248 2504" stroke="currentColor" stroke-width="13" />
                  <g class="ledgerLines above">
                     <path d="M4587 1604 L4891 1604" stroke="currentColor" stroke-width="22" />
                     <path d="M5037 1604 L5341 1604" stroke="currentColor" stroke-width="22" />
                     <path d="M5487 1604 L5791 1604" stroke="currentColor" stroke-width="22" />
                     <path d="M5937 1604 L6241 1604" stroke="currentColor" stroke-width="22" />
                     <path d="M6387 1604 L6691 1604" stroke="currentColor" stroke-width="22" />
                     <path d="M6837 1604 L7141 1604" stroke="currentColor" stroke-width="22" />
                     <path d="M7287 1604 L7591 1604" stroke="currentColor" stroke-width="22" />
                     <path d="M7737 1604 L8041 1604" stroke="currentColor" stroke-width="22" />
                  </g>
                  <g id="m-21326524-cfc4-4e7a-a14e-22562c5a8e3c" class="layer">
                     <g id="m-1fa06ae0-4f1c-44bc-8d53-1a6e9af9593e" class="beam">
                        <polygon points="4825,1064 5293,1064 5293,1154 4825,1154" />
                        <g id="m-4c97b17e-dd65-42f6-bc1f-4698f7f7fa64" class="note">
                           <g class="notehead">
                              <use xlink:href="#E0A9-vop6u4" x="4635" y="1514" height="720px" width="720px" />
                           </g>
                           <g id="s1obyxrb" class="stem">
                              <path d="M4834 1435 L4834 1082" stroke="currentColor" stroke-width="18" />
                           </g>
                           <g id="a8gmbwc" class="accid" />
                        </g>
                        <g id="m-b7160eec-b557-458b-a48e-29f0943e6f21" class="note">
                           <g class="notehead">
                              <use xlink:href="#E0A9-vop6u4" x="5085" y="1514" height="720px" width="720px" />
                           </g>
                           <g id="sk7p7yc" class="stem">
                              <path d="M5284 1435 L5284 1082" stroke="currentColor" stroke-width="18" />
                           </g>
                           <g id="aqyc5vm" class="accid" />
                        </g>
                     </g>
                     <g id="m-c81254e2-d1ef-458f-b8d4-f1cb8251d7b2" class="beam">
                        <polygon points="5725,1064 6193,1064 6193,1154 5725,1154" />
                        <g id="m-3a1375f0-a4b3-4186-a812-675a148cde59" class="note">
                           <g class="notehead">
                              <use xlink:href="#E0A9-vop6u4" x="5535" y="1514" height="720px" width="720px" />
                           </g>
                           <g id="s123ydwh" class="stem">
                              <path d="M5734 1435 L5734 1082" stroke="currentColor" stroke-width="18" />
                           </g>
                           <g id="a1f4802t" class="accid" />
                        </g>
                        <g id="m-837b7353-e9f9-41d3-b460-16fa31fe9e2e" class="note">
                           <g class="notehead">
                              <use xlink:href="#E0A9-vop6u4" x="5985" y="1514" height="720px" width="720px" />
                           </g>
                           <g id="s9hveeq" class="stem">
                              <path d="M6184 1435 L6184 1082" stroke="currentColor" stroke-width="18" />
                           </g>
                           <g id="a11zg6va" class="accid" />
                        </g>
                     </g>
                     <g id="m-f617a8d9-b81b-4033-a290-b59baed2631d" class="beam">
                        <polygon points="6625,1064 7093,1064 7093,1154 6625,1154" />
                        <g id="m-f3e2ef76-3eae-4782-b060-f5bb14244dc8" class="note">
                           <g class="notehead">
                              <use xlink:href="#E0A9-vop6u4" x="6435" y="1514" height="720px" width="720px" />
                           </g>
                           <g id="s10o078" class="stem">
                              <path d="M6634 1435 L6634 1082" stroke="currentColor" stroke-width="18" />
                           </g>
                           <g id="ahvlbqr" class="accid" />
                        </g>
                        <g id="m-5eec6ce2-27b3-4b97-acda-3aa5bba05baa" class="note">
                           <g class="notehead">
                              <use xlink:href="#E0A9-vop6u4" x="6885" y="1514" height="720px" width="720px" />
                           </g>
                           <g id="s18a3jtm" class="stem">
                              <path d="M7084 1435 L7084 1082" stroke="currentColor" stroke-width="18" />
                           </g>
                           <g id="a177o546" class="accid" />
                        </g>
                     </g>
                     <g id="m-e45f58c0-7c65-4044-ae27-93341d757511" class="beam">
                        <polygon points="7525,1064 7993,1064 7993,1154 7525,1154" />
                        <g id="m-a1fcfb2c-ad35-4190-a384-5cfd1f70f37e" class="note">
                           <g class="notehead">
                              <use xlink:href="#E0A9-vop6u4" x="7335" y="1514" height="720px" width="720px" />
                           </g>
                           <g id="s1xu2qmj" class="stem">
                              <path d="M7534 1435 L7534 1082" stroke="currentColor" stroke-width="18" />
                           </g>
                           <g id="a1tyzmn1" class="accid" />
                        </g>
                        <g id="m-5c67bb6b-347a-412c-8cb3-56f45c74ca7c" class="note">
                           <g class="notehead">
                              <use xlink:href="#E0A9-vop6u4" x="7785" y="1514" height="720px" width="720px" />
                           </g>
                           <g id="ss4zk17" class="stem">
                              <path d="M7984 1435 L7984 1082" stroke="currentColor" stroke-width="18" />
                           </g>
                           <g id="a1l4trnx" class="accid" />
                        </g>
                     </g>
                  </g>
                  <g id="m-fc35ec1f-35bd-469e-b82f-c9c229ef5cb8" class="layer">
                     <g id="m-07571afa-90a3-4753-99f9-527549c0484b" class="rest">
                        <use xlink:href="#E4E6-vop6u4" x="4635" y="2324" height="720px" width="720px" />
                     </g>
                     <g id="m-26dc0978-2419-4391-8acd-457b538273f5" class="note">
                        <g class="notehead">
                           <use xlink:href="#E0A4-vop6u4" x="5085" y="2144" height="720px" width="720px" />
                        </g>
                        <g id="stis4tc" class="stem">
                           <path d="M5094 2172 L5094 2744" stroke="currentColor" stroke-width="18" />
                           <g id="f10t8f07" class="flag">
                              <use xlink:href="#E241-vop6u4" x="5085" y="2744" height="720px" width="720px" />
                           </g>
                        </g>
                        <g id="aw8szor" class="accid" />
                     </g>
                     <g id="m-c30f9145-7686-4502-a1ee-0d62ff4cffa3" class="rest">
                        <use xlink:href="#E4E6-vop6u4" x="5535" y="2504" height="720px" width="720px" />
                     </g>
                     <g id="m-c4266ad8-9113-49a2-bd2d-a5dd2c26faf7" class="note">
                        <g class="notehead">
                           <use xlink:href="#E0A4-vop6u4" x="5985" y="2594" height="720px" width="720px" />
                        </g>
                        <g id="s1jbp2u" class="stem">
                           <path d="M5994 2622 L5994 3134" stroke="currentColor" stroke-width="18" />
                           <g id="f1w885nu" class="flag">
                              <use xlink:href="#E241-vop6u4" x="5985" y="3134" height="720px" width="720px" />
                           </g>
                        </g>
                     </g>
                     <g id="m-e181fef0-cf41-476d-af47-7a7be1949a2c" class="note">
                        <g class="notehead">
                           <use xlink:href="#E0A4-vop6u4" x="6435" y="2594" height="720px" width="720px" />
                        </g>
                        <g id="s1puwux3" class="stem">
                           <path d="M6444 2622 L6444 3044" stroke="currentColor" stroke-width="18" />
                        </g>
                     </g>
                     <g id="m-a8ef7df8-391e-4a13-a1bc-5ea667b9e0f3" class="beam">
                        <polygon points="7335,3044 7803,3089 7803,2999 7335,2954" />
                        <g id="m-4e21ba95-e401-4fc7-84b1-ffc88c3e57a7" class="note">
                           <g class="notehead">
                              <use xlink:href="#E0A4-vop6u4" x="7335" y="2144" height="720px" width="720px" />
                           </g>
                           <g id="s1jqbp6d" class="stem">
                              <path d="M7344 2172 L7344 3026" stroke="currentColor" stroke-width="18" />
                           </g>
                           <g id="avomftl" class="accid" />
                        </g>
                        <g id="m-89bdc214-5d33-4eab-900c-ce18cf082bb6" class="note">
                           <g class="notehead">
                              <use xlink:href="#E0A4-vop6u4" x="7785" y="2594" height="720px" width="720px" />
                           </g>
                           <g id="skxfdwk" class="stem">
                              <path d="M7794 2622 L7794 3071" stroke="currentColor" stroke-width="18" />
                           </g>
                        </g>
                     </g>
                  </g>
               </g>
               <g id="b1ciupz0" class="barLine">
                  <path d="M8235 1784 L8235 2504" stroke="currentColor" stroke-width="27" />
               </g>
            </g>
            <g id="m-7dafa3cc-94b5-4dbe-a3c9-bb85d048ce54" class="measure">
               <g id="m-27b8e771-6954-406c-996a-cbc211b5bb5e" class="staff">
                  <path d="M8248 1784 L11831 1784" stroke="currentColor" stroke-width="13" />
                  <path d="M8248 1964 L11831 1964" stroke="currentColor" stroke-width="13" />
                  <path d="M8248 2144 L11831 2144" stroke="currentColor" stroke-width="13" />
                  <path d="M8248 2324 L11831 2324" stroke="currentColor" stroke-width="13" />
                  <path d="M8248 2504 L11831 2504" stroke="currentColor" stroke-width="13" />
                  <g class="ledgerLines above">
                     <path d="M8380 1604 L8684 1604" stroke="currentColor" stroke-width="22" />
                     <path d="M8830 1604 L9134 1604" stroke="currentColor" stroke-width="22" />
                     <path d="M9280 1604 L9584 1604" stroke="currentColor" stroke-width="22" />
                     <path d="M9730 1604 L10034 1604" stroke="currentColor" stroke-width="22" />
                     <path d="M10180 1604 L10484 1604" stroke="currentColor" stroke-width="22" />
                     <path d="M10870 1604 L11174 1604" stroke="currentColor" stroke-width="22" />
                     <path d="M11320 1604 L11624 1604" stroke="currentColor" stroke-width="22" />
                  </g>
                  <g id="m-1093a398-69a1-49ba-986d-42fdae33658b" class="layer">
                     <g id="m-ba61d6be-36c6-4f35-b756-19d8b13ce94e" class="beam">
                        <polygon points="8618,1064 9086,1064 9086,1154 8618,1154" />
                        <g id="m-23a3df0f-3d9a-4753-bb3c-e360bb0ae829" class="note">
                           <g class="notehead">
                              <use xlink:href="#E0A9-vop6u4" x="8428" y="1514" height="720px" width="720px" />
                           </g>
                           <g id="sjhmxp1" class="stem">
                              <path d="M8627 1435 L8627 1082" stroke="currentColor" stroke-width="18" />
                           </g>
                           <g id="a1hs3qnx" class="accid" />
                        </g>
                        <g id="m-e7e7ce91-4380-464f-8b13-abbbb76e2a79" class="note">
                           <g class="notehead">
                              <use xlink:href="#E0A9-vop6u4" x="8878" y="1514" height="720px" width="720px" />
                           </g>
                           <g id="s17lt3mc" class="stem">
                              <path d="M9077 1435 L9077 1082" stroke="currentColor" stroke-width="18" />
                           </g>
                           <g id="a3pj5gq" class="accid" />
                        </g>
                     </g>
                     <g id="m-f95912a9-468b-4ac0-b799-0ea622c37d46" class="beam">
                        <polygon points="9518,1064 9986,1064 9986,1154 9518,1154" />
                        <g id="m-f48bd9d9-0f48-4361-8e2b-c913f0d8c103" class="note">
                           <g class="notehead">
                              <use xlink:href="#E0A9-vop6u4" x="9328" y="1514" height="720px" width="720px" />
                           </g>
                           <g id="s8rxs2t" class="stem">
                              <path d="M9527 1435 L9527 1082" stroke="currentColor" stroke-width="18" />
                           </g>
                           <g id="a106gzah" class="accid" />
                        </g>
                        <g id="m-d61c1cd2-2549-4181-a056-44858fe9bdaf" class="note">
                           <g class="notehead">
                              <use xlink:href="#E0A9-vop6u4" x="9778" y="1514" height="720px" width="720px" />
                           </g>
                           <g id="s5xrwgk" class="stem">
                              <path d="M9977 1435 L9977 1082" stroke="currentColor" stroke-width="18" />
                           </g>
                           <g id="autozkj" class="accid" />
                        </g>
                     </g>
                     <g id="m-cee0aa18-467e-46c2-a45b-4c8f5c9a46bc" class="note">
                        <g class="notehead">
                           <use xlink:href="#E0A9-vop6u4" x="10228" y="1514" height="720px" width="720px" />
                        </g>
                        <g id="s1d6qner" class="stem">
                           <path d="M10427 1435 L10427 1064" stroke="currentColor" stroke-width="18" />
                        </g>
                        <g id="a1wq42fg" class="accid" />
                     </g>
                     <g id="m-889a8f8e-4e45-4668-8602-b1b8bd9622e0" class="beam">
                        <polygon points="11108,1064 11576,1064 11576,1154 11108,1154" />
                        <g id="m-9b83f8ec-8c17-470f-8e8d-665d5deb6d0f" class="note">
                           <g class="notehead">
                              <use xlink:href="#E0A9-vop6u4" x="10918" y="1514" height="720px" width="720px" />
                           </g>
                           <g id="s1ridaco" class="stem">
                              <path d="M11117 1435 L11117 1082" stroke="currentColor" stroke-width="18" />
                           </g>
                           <g id="a153w17t" class="accid" />
                        </g>
                        <g id="m-237b13af-bbae-49da-9845-83116e7b6115" class="note">
                           <g class="notehead">
                              <use xlink:href="#E0A9-vop6u4" x="11368" y="1514" height="720px" width="720px" />
                           </g>
                           <g id="s1ew211u" class="stem">
                              <path d="M11567 1435 L11567 1082" stroke="currentColor" stroke-width="18" />
                           </g>
                           <g id="admwzm1" class="accid" />
                        </g>
                     </g>
                  </g>
                  <g id="m-ccde35c9-e967-4262-bb99-d62c9bdd05ef" class="layer">
                     <g id="m-98874cac-1272-4f05-a2d1-a1158a96adbe" class="note">
                        <g class="notehead">
                           <use xlink:href="#E0A4-vop6u4" x="8428" y="2594" height="720px" width="720px" />
                        </g>
                        <g id="s2rc9rx" class="stem">
                           <path d="M8437 2622 L8437 3044" stroke="currentColor" stroke-width="18" />
                        </g>
                     </g>
                     <g id="m-46e9ea7b-5ede-4919-883a-a905377fad2b" class="beam">
                        <polygon points="9328,3044 9796,3089 9796,2999 9328,2954" />
                        <g id="m-ee3a733e-ed3a-4474-bfeb-431822e3b326" class="note">
                           <g class="notehead">
                              <use xlink:href="#E0A4-vop6u4" x="9328" y="2144" height="720px" width="720px" />
                           </g>
                           <g id="svt01zp" class="stem">
                              <path d="M9337 2172 L9337 3026" stroke="currentColor" stroke-width="18" />
                           </g>
                           <g id="aeqi2h2" class="accid" />
                        </g>
                        <g id="m-804c564c-b094-4e10-abf0-a4b996197b32" class="note">
                           <g class="notehead">
                              <use xlink:href="#E0A4-vop6u4" x="9778" y="2594" height="720px" width="720px" />
                           </g>
                           <g id="sswgsa9" class="stem">
                              <path d="M9787 2622 L9787 3071" stroke="currentColor" stroke-width="18" />
                           </g>
                        </g>
                     </g>
                     <g id="m-e72f8f2c-485c-4618-b92f-5ae57f65dd9e" class="note">
                        <g class="notehead">
                           <use xlink:href="#E0A4-vop6u4" x="10228" y="2594" height="720px" width="720px" />
                        </g>
                        <g id="s9spj9i" class="stem">
                           <path d="M10237 2622 L10237 3044" stroke="currentColor" stroke-width="18" />
                        </g>
                     </g>
                     <g id="m-9f3ce24f-7241-4007-a61b-4860df9c09d9" class="note">
                        <g class="notehead">
                           <use xlink:href="#E0A4-vop6u4" x="10918" y="2144" height="720px" width="720px" />
                        </g>
                        <g id="sgnck0p" class="stem">
                           <path d="M10927 2172 L10927 2744" stroke="currentColor" stroke-width="18" />
                        </g>
                        <g id="a10g4whw" class="accid" />
                     </g>
                  </g>
               </g>
               <g id="b7t7p8s" class="barLine">
                  <path d="M11818 1784 L11818 2504" stroke="currentColor" stroke-width="27" />
               </g>
            </g>
            <g id="m-f650da92-1b48-450d-891d-5437da179f88" class="measure">
               <g id="m-e76fad44-323e-4086-9cea-1cfb2fe0b9dd" class="staff">
                  <path d="M11831 1784 L15580 1784" stroke="currentColor" stroke-width="13" />
                  <path d="M11831 1964 L15580 1964" stroke="currentColor" stroke-width="13" />
                  <path d="M11831 2144 L15580 2144" stroke="currentColor" stroke-width="13" />
                  <path d="M11831 2324 L15580 2324" stroke="currentColor" stroke-width="13" />
                  <path d="M11831 2504 L15580 2504" stroke="currentColor" stroke-width="13" />
                  <g class="ledgerLines above">
                     <path d="M11963 1604 L12285 1604" stroke="currentColor" stroke-width="22" />
                  </g>
                  <g id="m-8d6fb993-5b1a-4d2e-8ef5-ef835582244e" class="layer">
                     <g id="m-836dcc36-3fdb-45b1-953b-49e6285a3d51" class="note">
                        <g class="notehead">
                           <use xlink:href="#E0B6-vop6u4" x="12011" y="1514" height="720px" width="720px" />
                        </g>
                        <g id="s1gq1ybn" class="stem">
                           <path d="M12228 1486 L12228 1064" stroke="currentColor" stroke-width="18" />
                        </g>
                        <g id="a1iybm75" class="accid" />
                     </g>
                     <g id="m-5ebae668-e2d2-456f-a046-e31185903954" class="rest">
                        <use xlink:href="#E4E5-vop6u4" x="13977" y="1424" height="720px" width="720px" />
                     </g>
                     <g id="m-cf94617c-efe1-4ce3-969c-a1863ca60a12" class="note">
                        <g class="notehead">
                           <use xlink:href="#E0A9-vop6u4" x="14877" y="1694" height="720px" width="720px" />
                        </g>
                        <g id="scu2qg6" class="stem">
                           <path d="M15076 1615 L15076 1244" stroke="currentColor" stroke-width="18" />
                        </g>
                     </g>
                  </g>
                  <g id="m-d6d4c89d-a2b7-49ca-80b5-4f21100e9b43" class="layer">
                     <g id="m-c66a0562-b6ce-44f5-8345-74f265a1f5f3" class="rest">
                        <use xlink:href="#E4E6-vop6u4" x="12011" y="2324" height="720px" width="720px" />
                        <g id="d7bpxi2" class="dots">
                           <ellipse cx="12299" cy="2234" rx="36" ry="36" />
                        </g>
                     </g>
                     <g id="m-44ea0ec9-89b3-480b-b3c5-d7777a6ade0b" class="note">
                        <g class="notehead">
                           <use xlink:href="#E0A4-vop6u4" x="12591" y="2144" height="720px" width="720px" />
                        </g>
                        <g id="snd2rmg" class="stem">
                           <path d="M12600 2172 L12600 2744" stroke="currentColor" stroke-width="18" />
                           <g id="fe2xwl9" class="flag">
                              <use xlink:href="#E243-vop6u4" x="12591" y="2744" height="720px" width="720px" />
                           </g>
                        </g>
                        <g id="a1h48f13" class="accid" />
                     </g>
                     <g id="m-8e724b22-51e4-4632-821f-722e0e8e560f" class="beam">
                        <polygon points="13015,2999 13514,2999 13514,2909 13015,2909" />
                        <g id="m-380bc11e-8b0a-42f8-b94d-b99d01005047" class="note">
                           <g class="notehead">
                              <use xlink:href="#E0A4-vop6u4" x="13015" y="2144" height="720px" width="720px" />
                           </g>
                           <g id="s1veeff7" class="stem">
                              <path d="M13024 2172 L13024 2981" stroke="currentColor" stroke-width="18" />
                              <use xlink:href="#E222-vop6u4" x="13024" y="2630" height="720px" width="720px" />
                           </g>
                           <g id="a1se3ne0" class="accid" />
                        </g>
                        <g id="m-5d7a46ee-fc80-41c7-8bba-593d482fc581" class="note">
                           <g class="notehead">
                              <use xlink:href="#E0A4-vop6u4" x="13496" y="2144" height="720px" width="720px" />
                           </g>
                           <g id="s1w9evnq" class="stem">
                              <path d="M13505 2172 L13505 2981" stroke="currentColor" stroke-width="18" />
                              <use xlink:href="#E222-vop6u4" x="13505" y="2630" height="720px" width="720px" />
                           </g>
                           <g id="a1bge5qj" class="accid" />
                        </g>
                     </g>
                     <g id="m-5088fd96-2b85-4476-83f8-8cbb88ec8696" class="beam">
                        <polygon points="13977,2999 14445,2999 14445,2909 13977,2909" />
                        <g id="m-e011e9c0-29b5-4dd7-bd8f-4d8ba0722faf" class="note">
                           <g class="notehead">
                              <use xlink:href="#E0A4-vop6u4" x="13977" y="2144" height="720px" width="720px" />
                           </g>
                           <g id="s8sneie" class="stem">
                              <path d="M13986 2172 L13986 2981" stroke="currentColor" stroke-width="18" />
                              <use xlink:href="#E222-vop6u4" x="13986" y="2630" height="720px" width="720px" />
                           </g>
                           <g id="a1dq3pns" class="accid" />
                        </g>
                        <g id="m-3b3ffbe8-58c3-4e55-8853-42488983500f" class="note">
                           <g class="notehead">
                              <use xlink:href="#E0A4-vop6u4" x="14427" y="2144" height="720px" width="720px" />
                           </g>
                           <g id="s1j1zfsb" class="stem">
                              <path d="M14436 2172 L14436 2981" stroke="currentColor" stroke-width="18" />
                           </g>
                           <g id="aie44ig" class="accid" />
                        </g>
                     </g>
                     <g id="m-a4a39c40-ab6d-4003-a99d-1bc94bc30777" class="note">
                        <g class="notehead">
                           <use xlink:href="#E0A4-vop6u4" x="14877" y="2594" height="720px" width="720px" />
                        </g>
                        <g id="sg5f1la" class="stem">
                           <path d="M14886 2622 L14886 3044" stroke="currentColor" stroke-width="18" />
                        </g>
                     </g>
                  </g>
               </g>
               <g id="b13trspb" class="barLine">
                  <path d="M15567 1784 L15567 2504" stroke="currentColor" stroke-width="27" />
               </g>
            </g>
            <g id="s10p0vf0" class="systemMilestoneEnd m-3580149f-9683-4b67-b81d-0a13b963c8a6" />
         </g>
         <g id="pfl1yi0" class="pageMilestoneEnd m-074e8628-251a-4973-881b-07082a6cd6af" />
         <g id="p1c7y8ij" class="pageMilestoneEnd m-db742d8b-8815-4c87-84a3-db867d22e00c" />
         <g id="pduhrk" class="pgHead autogenerated">
            <text font-size="0px">
               <tspan id="r5xe0h2" class="rend" x="10000" y="415" text-anchor="middle">
                  <title class="labelAttr">title</title>
                  <tspan id="r1h99ctp" class="rend">
                     <tspan id="t1uedaey" class="text">
                        <tspan font-size="607px">48_rock_110_beat_4-4</tspan>
                     </tspan>
                  </tspan>
                  <tspan id="lnb7kc5" class="lb" />
                  <tspan id="r1psqvre" class="rend">
                     <tspan id="t1cn1x3v" class="text" x="10000" y="805">
                        <tspan font-size="324px">48_rock_110_beat_4-4</tspan>
                     </tspan>
                  </tspan>
               </tspan>
            </text>
         </g>
         <g id="pj2cpfr" class="pgFoot autogenerated">
            <g id="f1vuhj0l" class="fig">
               <g class="svg" transform="translate(7750, 28099) scale(10.000000, 10.000000)">
                  <g>
                     <path fill="#00000" d="M 17.11278,49.26451 V 10.367554 h 12.696511 c 3.288815,7.336676 6.71267,14.610456 10.127281,21.888976 3.419998,-7.484684 6.255515,-14.204887 9.58887,-21.909915 2.436207,0.103726 4.316952,0.08453 6.484294,-0.05808 V 49.264423 H 50.274275 C 50.145222,38.35639 50.016136,27.448368 49.887066,16.540329 45.003488,27.315459 39.967448,38.433564 35.083854,49.208695 34.678996,49.343717 34.426583,49.135619 34.021726,49.270644 29.46588,39.330716 24.910049,29.390805 20.354201,19.450876 20.224341,29.388756 20.09461,39.326619 19.964815,49.264497 H 17.11278 Z M 36.754144,39.324695 C 32.721221,30.512695 28.6883,21.700679 24.655394,12.888662 22.530527,12.750737 22.656775,12.71031 20.714356,12.813974 v 0.966497 c 4.612938,9.99784 9.609439,20.748709 13.87298,30.081745 0.722248,-1.512523 1.444528,-3.025014 2.166808,-4.537521 z m 25.738417,9.939815 c 0,-12.965651 0,-25.931305 0,-38.896956 10.084388,0 20.168791,0 30.253178,0 0,0.960416 0,1.920849 0,2.881265 -6.482825,0 -12.965652,0 -19.448478,0 0,4.802097 0,9.604178 0,14.406277 5.52241,0 11.044819,0 16.567229,0 0,0.960415 0,1.920832 0,2.881248 -5.52241,0 -11.044819,0 -16.567229,0 0,5.282306 0,10.564611 0,15.846917 6.963035,0 13.926068,0 20.889103,0 0,0.960416 0,1.920832 0,2.881249 -10.564597,0 -21.129207,0 -31.693803,0 z m 4.321874,-2.160937 c 0,-11.765131 0,-23.530263 0,-35.295394 -0.720312,0 -1.440625,0 -2.160937,0 0,11.765131 0,23.530263 0,35.295394 0.720312,0 1.440625,0 2.160937,0 z m 32.41413,2.160937 c 0,-12.965651 0,-25.931305 0,-38.896956 2.401045,0 4.802095,0 7.203135,0 0,12.965651 0,25.931305 0,38.896956 -2.40104,0 -4.80209,0 -7.203135,0 z m 2.881265,-2.160937 c 0,-11.765131 0,-23.530263 0,-35.295394 -0.72031,0 -1.44064,0 -2.160953,0 0,11.765131 0,23.530263 0,35.295394 0.720313,0 1.440643,0 2.160953,0 z" />
                     <path fill="#00000" d="m 346.3,6.7 c -3.1,0.5 -4.9,4.4 -2.7,6.8 1.2,1.4 2.7,2.4 4.1,3.5 -2.4,5.3 -7.7,8.3 -11.9,12.1 -3.7,2.8 -7,6.2 -9.7,9.9 -2.2,-0.8 -0.3,-6.8 -0.6,-9.5 0.1,-3.1 0.7,-6.4 2.9,-8.7 1.3,-1.9 3,-3.5 4.5,-5.2 1.2,-3.4 -3.2,-4.9 -5.8,-4.6 -7.3,-0.5 -14.6,2 -20,6.8 -5,4.6 -10,10.1 -11.5,17 -0.9,3.5 -0.2,7.5 2.8,9.9 2.5,2.8 7.4,2.9 9.8,-0.2 1.7,-2.3 3.2,-4.8 3.8,-7.6 -0.1,-2.6 -4.4,-2.3 -4.3,0.2 1.2,2.4 -0.9,4.7 -2.7,6.2 -1.7,0.9 -4.7,0.7 -4.8,-1.7 -1,-5.8 2.1,-11.3 5.2,-16.1 4,-5.8 9.8,-11.2 17.2,-11.8 1.6,0 8.1,-1.2 6.8,1.4 -2.8,2.8 -5.6,6.1 -6,10.3 -1.6,7.7 0.1,15.7 -2.3,23.2 -1.1,3.9 2,2.6 2.5,0.2 3.3,-7.4 8.9,-13.4 15.1,-18.5 4.2,-3.9 9.5,-7.1 11.9,-12.6 1.3,-3.6 1.2,-9 -2.7,-10.9 -0.6,-0.2 -1.2,-0.3 -1.8,-0.3 z m 66,14.5 c -2,0.8 -1.8,4.9 0.8,4.4 3.4,0.4 2.9,-6.2 -0.8,-4.4 z m 0.6,7.3 c -1.3,0.5 -7.6,0.5 -5.4,2.2 4,-0.3 0.7,4.5 0.6,6.7 -0.4,2.9 -2.4,5.9 -1.2,8.8 2.7,1.7 5.6,-0.8 6.8,-3.2 1.6,-1.4 -0.5,-3 -1.2,-0.9 -0.4,0.8 -2.4,3.5 -2.6,1.8 1.1,-5 2.7,-9.9 3.9,-14.9 l -0.1,-0.5 h -0.9 z m -65.1,0.2 c -6.5,1.6 -10.5,9.5 -8.2,15.7 2.1,3.4 7.4,2.9 10.1,0.4 2,-0.2 3.6,-5.3 1,-3.4 -1.4,2 -4,4.2 -6.5,2.8 -2.2,-1.9 -1.9,-5.7 1.7,-5.3 3.1,-0.9 6.9,-2.1 8.1,-5.5 0.9,-2.7 -1.6,-5.2 -4.3,-4.8 h -1.1 -0.7 z m 13.6,0 c -2.2,0 -8.5,1.8 -2.9,2.3 0.9,1.9 -1,4.9 -1.1,7.2 -0.5,2.9 -1.4,5.7 -1.7,8.7 3.7,0.7 3.8,-2.6 4.4,-5.3 0.9,-3.3 1.6,-7 4.1,-9.5 2.4,1.6 6.8,-0.7 3.7,-3.4 -2.9,-0.5 -4.8,2.4 -6.2,4.3 0,-1.2 2.4,-5 -0.2,-4.3 z m 15.8,0 c -6.4,1.3 -9.6,9.1 -7.7,14.9 1.9,4 7.7,3.9 11,1.7 4.1,-3 6,-8.9 4.4,-13.7 -1.3,-3 -4.8,-3.2 -7.6,-3 z m 17,0 c -2.3,0 -8.8,1.9 -3,2.4 0.4,2.5 -1,5.7 -1.4,8.4 -0.7,2.4 -1.8,7.5 2.1,7.2 3.8,-0.1 6.5,-3.5 8.5,-6.3 2,-3.2 4.5,-7 3.3,-10.9 -3.7,-3 -3.6,2.6 -3.1,5.1 -0.7,3.8 -2.7,7.9 -6.2,9.8 -3.6,0.6 -1,-4.3 -0.8,-6.1 0.6,-3.2 1.6,-6.3 1.9,-9.5 -0.4,0 -0.8,0 -1.1,0 z m 30.6,0 c -6.3,1.2 -9.5,8.9 -7.8,14.7 1.5,4 7.2,4.2 10.5,2.4 4.6,-2.8 6.6,-9.3 4.8,-14.3 -1.4,-2.8 -4.8,-3 -7.5,-2.8 z m -75.4,1.7 c 2.1,1.5 0.2,4.7 -1.6,5.7 -1.1,0.4 -5.5,3.4 -4.6,0.7 0.8,-2.7 2.2,-6.2 5.3,-6.6 l 0.9,0.1 z m 30.8,0 c 2.6,1.5 1.3,5.2 0.8,7.6 -0.8,2.7 -1.9,5.9 -4.7,7.1 -5.1,0.8 -4,-5.8 -2.8,-8.8 1,-2.8 3,-6.8 6.7,-5.8 z m 47.1,-0.1 c 2.9,0.7 2,4.7 1.5,6.8 -0.7,3 -1.8,6.7 -5,8 -4.7,0.8 -4,-5.1 -3,-7.9 0.9,-3 2.7,-7.3 6.5,-6.8 z m -88.1,5.9 c -0.3,1.3 0.9,-0.6 0,0 z m -1.1,2.4 c -0.2,0.5 0.5,-0.1 0,0 z m -1.3,4.5 c -0.3,1.3 0.8,-0.2 0,0 z" />
                     <text y="41" x="201" fill="#00000" style="font-style:italic;font-weight:normal;font-size:30px;line-height:125%;font-family:Times;text-anchor:middle" xml:space="preserve">engraved with</text>
                  </g>
               </g>
            </g>
         </g>
      </g>
   </svg>
</svg>
