<?xml version="1.0" encoding="UTF-8" standalone="no"?>
<svg width="2100px" height="2970px" version="1.1" xmlns="http://www.w3.org/2000/svg" xmlns:xlink="http://www.w3.org/1999/xlink" xmlns:mei="http://www.music-encoding.org/ns/mei" overflow="visible">
   <desc>Engraved by Verovio 4.4.0-66ab39c</desc>
   <defs>
      <symbol id="E4E6-1mmik0q" viewBox="0 0 1000 1000" overflow="inherit">
         <path transform="scale(1,-1)" d="M0 123c7 34 33 56 69 60c29 -3 43 -9 53 -29c4 -8 7 -15 10 -22c0 -21 -1 -25 -11 -35c-5 -8 -18 -14 -40 -20l12 -3l15 -1c44 0 97 26 122 56c10 11 18 26 24 42c7 1 15 2 22 3l-140 -424h-36l111 330c-10 -6 -27 -12 -53 -16l-52 -8h-10l-20 1c-1 0 -8 3 -21 6 c-37 9 -55 28 -55 60z" />
      </symbol>
      <symbol id="E084-1mmik0q" viewBox="0 0 1000 1000" overflow="inherit">
         <path transform="scale(1,-1)" d="M20 -78c84 97 114 180 134 329h170c-13 -32 -82 -132 -99 -151l-84 -97c-33 -36 -59 -63 -80 -81h162v102l127 123v-225h57v-39h-57v-34c0 -43 19 -65 57 -65v-34h-244v36c48 0 60 26 60 70v27h-203v39z" />
      </symbol>
      <symbol id="E0A4-1mmik0q" viewBox="0 0 1000 1000" overflow="inherit">
         <path transform="scale(1,-1)" d="M0 -39c0 68 73 172 200 172c66 0 114 -37 114 -95c0 -84 -106 -171 -218 -171c-64 0 -96 30 -96 94z" />
      </symbol>
      <symbol id="E0A9-1mmik0q" viewBox="0 0 1000 1000" overflow="inherit">
         <path transform="scale(1,-1)" d="M0 -110c0 4 1 8 5 11l119 99l-119 100c-3 3 -5 8 -5 12c0 6 5 13 12 13c3 0 6 -1 8 -2l124 -105l126 105c2 1 5 2 7 2c6 0 13 -6 13 -14c0 -4 -2 -9 -5 -11l-119 -100l119 -99c3 -3 5 -7 5 -12c0 -6 -5 -14 -13 -14c-2 0 -5 1 -7 3l-126 105l-124 -105c-2 -2 -4 -3 -7 -3 c-8 0 -13 7 -13 15z" />
      </symbol>
      <symbol id="E069-1mmik0q" viewBox="0 0 1000 1000" overflow="inherit">
         <path transform="scale(1,-1)" d="M200 250h125v-500h-125v500zM0 250h125v-500h-125v500z" />
      </symbol>
   </defs>
   <style type="text/css">g.page-margin{font-family:Times,serif;} g.ending, g.fing, g.reh, g.tempo{font-weight:bold;} g.dir, g.dynam, g.mNum{font-style:italic;} g.label{font-weight:normal;}</style>
   <svg class="definition-scale" color="black" viewBox="0 0 21000 29700">
      <g class="page-margin" transform="translate(500, 500)">
         <g id="m-b1b0e09f-f623-49e0-a3e9-8550af3633d2" class="mdiv pageMilestone" />
         <g id="m-8c1dc4b2-6cdb-44ba-aaa0-db2c3298d24c" class="score pageMilestone" />
         <g id="sr4yron" class="system">
            <g id="m-8b537849-d688-4978-819a-10d50d92fbe3" class="section systemMilestone" />
            <g id="m-e26e8f2f-369b-46c6-ae4c-202234d87b46" class="measure">
               <g id="m-4f9c35c1-07a7-4a08-91b3-45ba98ed4f02" class="staff">
                  <path d="M0 1730 L5277 1730" stroke="currentColor" stroke-width="13" />
                  <path d="M0 1910 L5277 1910" stroke="currentColor" stroke-width="13" />
                  <path d="M0 2090 L5277 2090" stroke="currentColor" stroke-width="13" />
                  <path d="M0 2270 L5277 2270" stroke="currentColor" stroke-width="13" />
                  <path d="M0 2450 L5277 2450" stroke="currentColor" stroke-width="13" />
                  <g id="c1oh9khs" class="clef">
                     <use xlink:href="#E069-1mmik0q" x="90" y="2090" height="720px" width="720px" />
                  </g>
                  <g id="k11quiyr" class="keySig" />
                  <g id="mrxkcvw" class="meterSig">
                     <use xlink:href="#E084-1mmik0q" x="490" y="1910" height="720px" width="720px" />
                     <use xlink:href="#E084-1mmik0q" x="490" y="2270" height="720px" width="720px" />
                  </g>
                  <g id="m-6a7601e3-cfe3-4b6b-af51-0d2c738bec1c" class="layer">
                     <g id="m-7bc259d8-5685-402f-93eb-6f013b4bd35d" class="beam">
                        <polygon points="1242,1055 2010,1055 2010,1145 1242,1145" />
                        <polygon points="1701,1190 2010,1190 2010,1280 1701,1280" />
                        <g id="m-09ea0ca0-5956-4a2f-9c81-cc871f1e3414" class="note">
                           <g class="notehead">
                              <use xlink:href="#E0A9-1mmik0q" x="1052" y="1640" height="720px" width="720px" />
                           </g>
                           <g id="s1xm1s1m" class="stem">
                              <path d="M1251 1561 L1251 1073" stroke="currentColor" stroke-width="18" />
                           </g>
                        </g>
                        <g id="m-3d09bc00-c871-4a28-8aca-aa38513b2e7e" class="note">
                           <g class="notehead">
                              <use xlink:href="#E0A9-1mmik0q" x="1502" y="1640" height="720px" width="720px" />
                           </g>
                           <g id="s2j553r" class="stem">
                              <path d="M1701 1561 L1701 1073" stroke="currentColor" stroke-width="18" />
                           </g>
                        </g>
                        <g id="m-2c1fc81c-8a74-403e-b922-81e2ccec6b2a" class="note">
                           <g class="notehead">
                              <use xlink:href="#E0A9-1mmik0q" x="1802" y="1640" height="720px" width="720px" />
                           </g>
                           <g id="s1v04diz" class="stem">
                              <path d="M2001 1561 L2001 1073" stroke="currentColor" stroke-width="18" />
                           </g>
                        </g>
                     </g>
                     <g id="m-2fa65276-e884-4e63-b6ee-305297b9dc4c" class="rest">
                        <use xlink:href="#E4E6-1mmik0q" x="2102" y="1550" height="720px" width="720px" />
                     </g>
                     <g id="m-257a2d05-bb40-4c14-95f3-76ed74d7d357" class="beam">
                        <polygon points="2742,1055 3060,1055 3060,1145 2742,1145" />
                        <polygon points="2742,1190 3060,1190 3060,1280 2742,1280" />
                        <g id="m-9f9f3a35-b186-4a3e-b60d-22735b29f236" class="note">
                           <g class="notehead">
                              <use xlink:href="#E0A9-1mmik0q" x="2552" y="1640" height="720px" width="720px" />
                           </g>
                           <g id="sg4xn2v" class="stem">
                              <path d="M2751 1561 L2751 1073" stroke="currentColor" stroke-width="18" />
                           </g>
                        </g>
                        <g id="m-ce34f0b9-9f41-4051-9fc8-a30de0ace368" class="note">
                           <g class="notehead">
                              <use xlink:href="#E0A9-1mmik0q" x="2852" y="1640" height="720px" width="720px" />
                           </g>
                           <g id="s181rn4x" class="stem">
                              <path d="M3051 1561 L3051 1073" stroke="currentColor" stroke-width="18" />
                           </g>
                        </g>
                     </g>
                     <g id="m-7a0a6181-4132-462c-894f-d0b4cdac70f4" class="beam">
                        <polygon points="3342,1055 4110,1055 4110,1145 3342,1145" />
                        <polygon points="3801,1190 4110,1190 4110,1280 3801,1280" />
                        <g id="m-13ddc901-c093-44eb-9fba-870797823add" class="note">
                           <g class="notehead">
                              <use xlink:href="#E0A9-1mmik0q" x="3152" y="1640" height="720px" width="720px" />
                           </g>
                           <g id="s107hgor" class="stem">
                              <path d="M3351 1561 L3351 1073" stroke="currentColor" stroke-width="18" />
                           </g>
                        </g>
                        <g id="m-e62380d5-9845-4329-9e83-ab913e9d36cd" class="note">
                           <g class="notehead">
                              <use xlink:href="#E0A9-1mmik0q" x="3602" y="1640" height="720px" width="720px" />
                           </g>
                           <g id="s1ebatbc" class="stem">
                              <path d="M3801 1561 L3801 1073" stroke="currentColor" stroke-width="18" />
                           </g>
                        </g>
                        <g id="m-f1a92b73-87f6-4dd2-a6bc-2fd59e88508e" class="note">
                           <g class="notehead">
                              <use xlink:href="#E0A9-1mmik0q" x="3902" y="1640" height="720px" width="720px" />
                           </g>
                           <g id="s1dadfp7" class="stem">
                              <path d="M4101 1561 L4101 1073" stroke="currentColor" stroke-width="18" />
                           </g>
                        </g>
                     </g>
                     <g id="m-7649e25f-3651-4f94-a9bb-88baf760cbe8" class="rest">
                        <use xlink:href="#E4E6-1mmik0q" x="4202" y="1550" height="720px" width="720px" />
                     </g>
                     <g id="m-dfe04eca-f2c4-49ef-a24f-9fe18d7445ec" class="beam">
                        <polygon points="4842,1055 5160,1055 5160,1145 4842,1145" />
                        <polygon points="4842,1190 5160,1190 5160,1280 4842,1280" />
                        <g id="m-93c53569-4298-41f2-8fec-6b413fc9d10d" class="note">
                           <g class="notehead">
                              <use xlink:href="#E0A9-1mmik0q" x="4652" y="1640" height="720px" width="720px" />
                           </g>
                           <g id="s7caf0n" class="stem">
                              <path d="M4851 1561 L4851 1073" stroke="currentColor" stroke-width="18" />
                           </g>
                        </g>
                        <g id="m-004af717-d728-447f-940e-841fd833abf2" class="note">
                           <g class="notehead">
                              <use xlink:href="#E0A9-1mmik0q" x="4952" y="1640" height="720px" width="720px" />
                           </g>
                           <g id="suosblh" class="stem">
                              <path d="M5151 1561 L5151 1073" stroke="currentColor" stroke-width="18" />
                           </g>
                        </g>
                     </g>
                  </g>
                  <g id="m-72cff79c-a96a-476f-b3a7-397bd63e33ca" class="layer">
                     <g id="m-9a2720dc-f917-4fb1-a1e4-04c25e3d2cd5" class="note">
                        <g class="notehead">
                           <use xlink:href="#E0A4-1mmik0q" x="1052" y="2540" height="720px" width="720px" />
                        </g>
                        <g id="sf5ntgw" class="stem">
                           <path d="M1061 2568 L1061 2990" stroke="currentColor" stroke-width="18" />
                        </g>
                     </g>
                     <g id="m-45f1dae6-caf9-497a-8cae-85547bed2411" class="chord">
                        <g id="s13v6yx4" class="stem">
                           <path d="M2111 2118 L2111 2990" stroke="currentColor" stroke-width="18" />
                        </g>
                        <g id="m-1a05b3cc-d0a3-4e21-a789-38cfef6103d6" class="note">
                           <g class="notehead">
                              <use xlink:href="#E0A4-1mmik0q" x="2102" y="2090" height="720px" width="720px" />
                           </g>
                           <g id="a1v8m9kf" class="accid" />
                        </g>
                        <g id="m-c1f7a9ae-a0c9-40de-a8cc-790dedd0fb9a" class="note">
                           <g class="notehead">
                              <use xlink:href="#E0A4-1mmik0q" x="2102" y="2540" height="720px" width="720px" />
                           </g>
                        </g>
                     </g>
                     <g id="m-9ea8b015-ef01-458f-9a1e-5cfc079757a6" class="note">
                        <g class="notehead">
                           <use xlink:href="#E0A4-1mmik0q" x="3152" y="2540" height="720px" width="720px" />
                        </g>
                        <g id="s7v6yfk" class="stem">
                           <path d="M3161 2568 L3161 2990" stroke="currentColor" stroke-width="18" />
                        </g>
                     </g>
                     <g id="m-3481fa83-7879-4ab5-ac0c-be838948ff84" class="chord">
                        <g id="s1nz951f" class="stem">
                           <path d="M4211 2118 L4211 2990" stroke="currentColor" stroke-width="18" />
                        </g>
                        <g id="m-ec031af8-a041-42d8-b419-91db8b46f9bd" class="note">
                           <g class="notehead">
                              <use xlink:href="#E0A4-1mmik0q" x="4202" y="2540" height="720px" width="720px" />
                           </g>
                        </g>
                        <g id="m-db5dfd07-a104-453b-956b-8db7c3594e75" class="note">
                           <g class="notehead">
                              <use xlink:href="#E0A4-1mmik0q" x="4202" y="2090" height="720px" width="720px" />
                           </g>
                           <g id="a16fl69k" class="accid" />
                        </g>
                     </g>
                  </g>
               </g>
               <g id="b1ncr3p8" class="barLine">
                  <path d="M5264 1730 L5264 2450" stroke="currentColor" stroke-width="27" />
               </g>
            </g>
            <g id="m-1b04c8f6-ce90-4978-8658-1ccf680fc498" class="measure">
               <g id="m-51b36070-42c3-49f0-92d2-55ab9118c6a0" class="staff">
                  <path d="M5277 1730 L9370 1730" stroke="currentColor" stroke-width="13" />
                  <path d="M5277 1910 L9370 1910" stroke="currentColor" stroke-width="13" />
                  <path d="M5277 2090 L9370 2090" stroke="currentColor" stroke-width="13" />
                  <path d="M5277 2270 L9370 2270" stroke="currentColor" stroke-width="13" />
                  <path d="M5277 2450 L9370 2450" stroke="currentColor" stroke-width="13" />
                  <g class="ledgerLines below">
                     <path d="M8409 2630 L8713 2630" stroke="currentColor" stroke-width="22" />
                  </g>
                  <g id="m-bd775e31-9b35-455c-a4af-026fd6f605ca" class="layer">
                     <g id="m-4160fb76-b73f-4d41-b3f8-5e38ef4d4ba6" class="beam">
                        <polygon points="5647,1055 6415,1055 6415,1145 5647,1145" />
                        <polygon points="6106,1190 6415,1190 6415,1280 6106,1280" />
                        <g id="m-7eede5db-2160-483f-b017-0869621b8102" class="note">
                           <g class="notehead">
                              <use xlink:href="#E0A9-1mmik0q" x="5457" y="1640" height="720px" width="720px" />
                           </g>
                           <g id="s1y1q7kb" class="stem">
                              <path d="M5656 1561 L5656 1073" stroke="currentColor" stroke-width="18" />
                           </g>
                        </g>
                        <g id="m-a482e31e-0e8c-406c-bf52-99e41157df7d" class="note">
                           <g class="notehead">
                              <use xlink:href="#E0A9-1mmik0q" x="5907" y="1640" height="720px" width="720px" />
                           </g>
                           <g id="soyyjaw" class="stem">
                              <path d="M6106 1561 L6106 1073" stroke="currentColor" stroke-width="18" />
                           </g>
                        </g>
                        <g id="m-29ce16eb-929d-40a5-aa06-062894e5c5c2" class="note">
                           <g class="notehead">
                              <use xlink:href="#E0A9-1mmik0q" x="6207" y="1640" height="720px" width="720px" />
                           </g>
                           <g id="s1v5jhz1" class="stem">
                              <path d="M6406 1561 L6406 1073" stroke="currentColor" stroke-width="18" />
                           </g>
                        </g>
                     </g>
                     <g id="m-e8b13db6-c316-421c-a2ae-3da1d710eeca" class="rest">
                        <use xlink:href="#E4E6-1mmik0q" x="6507" y="1550" height="720px" width="720px" />
                     </g>
                     <g id="m-89d02b05-006f-401e-8d15-2b1f28662ea7" class="beam">
                        <polygon points="7147,1055 7465,1055 7465,1145 7147,1145" />
                        <polygon points="7147,1190 7465,1190 7465,1280 7147,1280" />
                        <g id="m-b5d2c22e-7ea7-4987-901c-025b83c983d8" class="note">
                           <g class="notehead">
                              <use xlink:href="#E0A9-1mmik0q" x="6957" y="1640" height="720px" width="720px" />
                           </g>
                           <g id="sc5h30p" class="stem">
                              <path d="M7156 1561 L7156 1073" stroke="currentColor" stroke-width="18" />
                           </g>
                        </g>
                        <g id="m-5bfc563a-a4e1-44f8-bcf2-f387deb335e3" class="note">
                           <g class="notehead">
                              <use xlink:href="#E0A9-1mmik0q" x="7257" y="1640" height="720px" width="720px" />
                           </g>
                           <g id="sb7ps6n" class="stem">
                              <path d="M7456 1561 L7456 1073" stroke="currentColor" stroke-width="18" />
                           </g>
                        </g>
                     </g>
                     <g id="m-f733940e-e7b5-4867-ae55-c42546ce882a" class="beam">
                        <polygon points="7747,1190 8215,1190 8215,1280 7747,1280" />
                        <g id="m-dcaaefde-d3bd-4221-813d-d19f8c4949e2" class="note">
                           <g class="notehead">
                              <use xlink:href="#E0A9-1mmik0q" x="7557" y="1640" height="720px" width="720px" />
                           </g>
                           <g id="s1n09zyv" class="stem">
                              <path d="M7756 1561 L7756 1208" stroke="currentColor" stroke-width="18" />
                           </g>
                        </g>
                        <g id="m-9efbc17d-e812-4b59-8c30-726d8b6f1196" class="note">
                           <g class="notehead">
                              <use xlink:href="#E0A9-1mmik0q" x="8007" y="1640" height="720px" width="720px" />
                           </g>
                           <g id="s8gd9vm" class="stem">
                              <path d="M8206 1561 L8206 1208" stroke="currentColor" stroke-width="18" />
                           </g>
                        </g>
                     </g>
                     <g id="m-7d70cbec-4d77-4894-8072-4f83797524b7" class="beam">
                        <polygon points="8647,1190 9115,1190 9115,1280 8647,1280" />
                        <g id="m-a6b728c6-4b13-49b8-b4a6-11443d21f45c" class="note">
                           <g class="notehead">
                              <use xlink:href="#E0A9-1mmik0q" x="8457" y="1640" height="720px" width="720px" />
                           </g>
                           <g id="sebo95j" class="stem">
                              <path d="M8656 1561 L8656 1208" stroke="currentColor" stroke-width="18" />
                           </g>
                        </g>
                        <g id="m-567c8346-3c48-4e95-bef1-5036b1b1c26d" class="note">
                           <g class="notehead">
                              <use xlink:href="#E0A9-1mmik0q" x="8907" y="1640" height="720px" width="720px" />
                           </g>
                           <g id="s1ps5j8" class="stem">
                              <path d="M9106 1561 L9106 1208" stroke="currentColor" stroke-width="18" />
                           </g>
                        </g>
                     </g>
                  </g>
                  <g id="m-d299a8e3-63f3-4d4c-bcc0-b08478d2a769" class="layer">
                     <g id="m-b421fcfa-13c7-49b2-bf49-a715980ab34c" class="note">
                        <g class="notehead">
                           <use xlink:href="#E0A4-1mmik0q" x="5457" y="2540" height="720px" width="720px" />
                        </g>
                        <g id="s11nuh8a" class="stem">
                           <path d="M5466 2568 L5466 2990" stroke="currentColor" stroke-width="18" />
                        </g>
                     </g>
                     <g id="m-4b5ef15e-79cb-4b5c-85d5-251dfef72781" class="chord">
                        <g id="s1tejmsc" class="stem">
                           <path d="M6516 2118 L6516 2990" stroke="currentColor" stroke-width="18" />
                        </g>
                        <g id="m-87933463-a062-4e64-bbc5-8a96b870c4dd" class="note">
                           <g class="notehead">
                              <use xlink:href="#E0A4-1mmik0q" x="6507" y="2090" height="720px" width="720px" />
                           </g>
                           <g id="a68965r" class="accid" />
                        </g>
                        <g id="m-0f0099a3-4ddf-4c8f-95e8-9eb8060d510e" class="note">
                           <g class="notehead">
                              <use xlink:href="#E0A4-1mmik0q" x="6507" y="2540" height="720px" width="720px" />
                           </g>
                        </g>
                     </g>
                     <g id="m-58e87f9d-ebb5-49ca-9b47-c6dd131557df" class="beam">
                        <polygon points="7557,2990 8025,2990 8025,2900 7557,2900" />
                        <g id="m-adc1e635-10e1-426f-9a50-8bd59bf00322" class="note">
                           <g class="notehead">
                              <use xlink:href="#E0A4-1mmik0q" x="7557" y="2540" height="720px" width="720px" />
                           </g>
                           <g id="s1yysv0t" class="stem">
                              <path d="M7566 2568 L7566 2972" stroke="currentColor" stroke-width="18" />
                           </g>
                        </g>
                        <g id="m-1e847f15-49e5-4612-8c3c-9962143415c6" class="note">
                           <g class="notehead">
                              <use xlink:href="#E0A4-1mmik0q" x="8007" y="2540" height="720px" width="720px" />
                           </g>
                           <g id="s1adww8g" class="stem">
                              <path d="M8016 2568 L8016 2972" stroke="currentColor" stroke-width="18" />
                           </g>
                        </g>
                     </g>
                     <g id="m-351bc535-b8a5-40ee-b4d2-d9c38855ac21" class="beam">
                        <polygon points="8457,3215 8925,3170 8925,3080 8457,3125" />
                        <g id="m-1afe0783-6e48-43c0-ad0e-229054f21f4e" class="chord">
                           <g id="sbc878q" class="stem">
                              <path d="M8466 2118 L8466 3197" stroke="currentColor" stroke-width="18" />
                           </g>
                           <g id="m-75bd0b33-0316-457f-9954-6aa6db9bd857" class="note">
                              <g class="notehead">
                                 <use xlink:href="#E0A9-1mmik0q" x="8457" y="2720" height="720px" width="720px" />
                              </g>
                              <g id="a3pdpbf" class="accid" />
                           </g>
                           <g id="m-ac70b76c-646f-41b7-abb0-2ac7bbe2c247" class="note">
                              <g class="notehead">
                                 <use xlink:href="#E0A4-1mmik0q" x="8457" y="2090" height="720px" width="720px" />
                              </g>
                              <g id="aqg08jx" class="accid" />
                           </g>
                        </g>
                        <g id="m-3313cef7-852a-45e3-8238-f3afc60b3946" class="note">
                           <g class="notehead">
                              <use xlink:href="#E0A4-1mmik0q" x="8907" y="2540" height="720px" width="720px" />
                           </g>
                           <g id="s189c1lk" class="stem">
                              <path d="M8916 2568 L8916 3152" stroke="currentColor" stroke-width="18" />
                           </g>
                        </g>
                     </g>
                  </g>
               </g>
               <g id="b9w65jb" class="barLine">
                  <path d="M9357 1730 L9357 2450" stroke="currentColor" stroke-width="27" />
               </g>
            </g>
            <g id="sbust70" class="systemMilestoneEnd m-8b537849-d688-4978-819a-10d50d92fbe3" />
         </g>
         <g id="p1nm4qtm" class="pageMilestoneEnd m-8c1dc4b2-6cdb-44ba-aaa0-db2c3298d24c" />
         <g id="p1761x5c" class="pageMilestoneEnd m-b1b0e09f-f623-49e0-a3e9-8550af3633d2" />
         <g id="ptss8mc" class="pgHead autogenerated">
            <text font-size="0px">
               <tspan id="rr47se0" class="rend" x="10000" y="415" text-anchor="middle">
                  <title class="labelAttr">title</title>
                  <tspan id="r15lm6oi" class="rend">
                     <tspan id="tyzmhdo" class="text">
                        <tspan font-size="607px">18_rock_100_beat_4-4</tspan>
                     </tspan>
                  </tspan>
                  <tspan id="l1prio63" class="lb" />
                  <tspan id="r180opc4" class="rend">
                     <tspan id="tz5v1qc" class="text" x="10000" y="805">
                        <tspan font-size="324px">18_rock_100_beat_4-4</tspan>
                     </tspan>
                  </tspan>
               </tspan>
            </text>
         </g>
         <g id="pz8zr84" class="pgFoot autogenerated">
            <g id="fcthhm8" class="fig">
               <g class="svg" transform="translate(7750, 28099) scale(10.000000, 10.000000)">
                  <g>
                     <path fill="#00000" d="M 17.11278,49.26451 V 10.367554 h 12.696511 c 3.288815,7.336676 6.71267,14.610456 10.127281,21.888976 3.419998,-7.484684 6.255515,-14.204887 9.58887,-21.909915 2.436207,0.103726 4.316952,0.08453 6.484294,-0.05808 V 49.264423 H 50.274275 C 50.145222,38.35639 50.016136,27.448368 49.887066,16.540329 45.003488,27.315459 39.967448,38.433564 35.083854,49.208695 34.678996,49.343717 34.426583,49.135619 34.021726,49.270644 29.46588,39.330716 24.910049,29.390805 20.354201,19.450876 20.224341,29.388756 20.09461,39.326619 19.964815,49.264497 H 17.11278 Z M 36.754144,39.324695 C 32.721221,30.512695 28.6883,21.700679 24.655394,12.888662 22.530527,12.750737 22.656775,12.71031 20.714356,12.813974 v 0.966497 c 4.612938,9.99784 9.609439,20.748709 13.87298,30.081745 0.722248,-1.512523 1.444528,-3.025014 2.166808,-4.537521 z m 25.738417,9.939815 c 0,-12.965651 0,-25.931305 0,-38.896956 10.084388,0 20.168791,0 30.253178,0 0,0.960416 0,1.920849 0,2.881265 -6.482825,0 -12.965652,0 -19.448478,0 0,4.802097 0,9.604178 0,14.406277 5.52241,0 11.044819,0 16.567229,0 0,0.960415 0,1.920832 0,2.881248 -5.52241,0 -11.044819,0 -16.567229,0 0,5.282306 0,10.564611 0,15.846917 6.963035,0 13.926068,0 20.889103,0 0,0.960416 0,1.920832 0,2.881249 -10.564597,0 -21.129207,0 -31.693803,0 z m 4.321874,-2.160937 c 0,-11.765131 0,-23.530263 0,-35.295394 -0.720312,0 -1.440625,0 -2.160937,0 0,11.765131 0,23.530263 0,35.295394 0.720312,0 1.440625,0 2.160937,0 z m 32.41413,2.160937 c 0,-12.965651 0,-25.931305 0,-38.896956 2.401045,0 4.802095,0 7.203135,0 0,12.965651 0,25.931305 0,38.896956 -2.40104,0 -4.80209,0 -7.203135,0 z m 2.881265,-2.160937 c 0,-11.765131 0,-23.530263 0,-35.295394 -0.72031,0 -1.44064,0 -2.160953,0 0,11.765131 0,23.530263 0,35.295394 0.720313,0 1.440643,0 2.160953,0 z" />
                     <path fill="#00000" d="m 346.3,6.7 c -3.1,0.5 -4.9,4.4 -2.7,6.8 1.2,1.4 2.7,2.4 4.1,3.5 -2.4,5.3 -7.7,8.3 -11.9,12.1 -3.7,2.8 -7,6.2 -9.7,9.9 -2.2,-0.8 -0.3,-6.8 -0.6,-9.5 0.1,-3.1 0.7,-6.4 2.9,-8.7 1.3,-1.9 3,-3.5 4.5,-5.2 1.2,-3.4 -3.2,-4.9 -5.8,-4.6 -7.3,-0.5 -14.6,2 -20,6.8 -5,4.6 -10,10.1 -11.5,17 -0.9,3.5 -0.2,7.5 2.8,9.9 2.5,2.8 7.4,2.9 9.8,-0.2 1.7,-2.3 3.2,-4.8 3.8,-7.6 -0.1,-2.6 -4.4,-2.3 -4.3,0.2 1.2,2.4 -0.9,4.7 -2.7,6.2 -1.7,0.9 -4.7,0.7 -4.8,-1.7 -1,-5.8 2.1,-11.3 5.2,-16.1 4,-5.8 9.8,-11.2 17.2,-11.8 1.6,0 8.1,-1.2 6.8,1.4 -2.8,2.8 -5.6,6.1 -6,10.3 -1.6,7.7 0.1,15.7 -2.3,23.2 -1.1,3.9 2,2.6 2.5,0.2 3.3,-7.4 8.9,-13.4 15.1,-18.5 4.2,-3.9 9.5,-7.1 11.9,-12.6 1.3,-3.6 1.2,-9 -2.7,-10.9 -0.6,-0.2 -1.2,-0.3 -1.8,-0.3 z m 66,14.5 c -2,0.8 -1.8,4.9 0.8,4.4 3.4,0.4 2.9,-6.2 -0.8,-4.4 z m 0.6,7.3 c -1.3,0.5 -7.6,0.5 -5.4,2.2 4,-0.3 0.7,4.5 0.6,6.7 -0.4,2.9 -2.4,5.9 -1.2,8.8 2.7,1.7 5.6,-0.8 6.8,-3.2 1.6,-1.4 -0.5,-3 -1.2,-0.9 -0.4,0.8 -2.4,3.5 -2.6,1.8 1.1,-5 2.7,-9.9 3.9,-14.9 l -0.1,-0.5 h -0.9 z m -65.1,0.2 c -6.5,1.6 -10.5,9.5 -8.2,15.7 2.1,3.4 7.4,2.9 10.1,0.4 2,-0.2 3.6,-5.3 1,-3.4 -1.4,2 -4,4.2 -6.5,2.8 -2.2,-1.9 -1.9,-5.7 1.7,-5.3 3.1,-0.9 6.9,-2.1 8.1,-5.5 0.9,-2.7 -1.6,-5.2 -4.3,-4.8 h -1.1 -0.7 z m 13.6,0 c -2.2,0 -8.5,1.8 -2.9,2.3 0.9,1.9 -1,4.9 -1.1,7.2 -0.5,2.9 -1.4,5.7 -1.7,8.7 3.7,0.7 3.8,-2.6 4.4,-5.3 0.9,-3.3 1.6,-7 4.1,-9.5 2.4,1.6 6.8,-0.7 3.7,-3.4 -2.9,-0.5 -4.8,2.4 -6.2,4.3 0,-1.2 2.4,-5 -0.2,-4.3 z m 15.8,0 c -6.4,1.3 -9.6,9.1 -7.7,14.9 1.9,4 7.7,3.9 11,1.7 4.1,-3 6,-8.9 4.4,-13.7 -1.3,-3 -4.8,-3.2 -7.6,-3 z m 17,0 c -2.3,0 -8.8,1.9 -3,2.4 0.4,2.5 -1,5.7 -1.4,8.4 -0.7,2.4 -1.8,7.5 2.1,7.2 3.8,-0.1 6.5,-3.5 8.5,-6.3 2,-3.2 4.5,-7 3.3,-10.9 -3.7,-3 -3.6,2.6 -3.1,5.1 -0.7,3.8 -2.7,7.9 -6.2,9.8 -3.6,0.6 -1,-4.3 -0.8,-6.1 0.6,-3.2 1.6,-6.3 1.9,-9.5 -0.4,0 -0.8,0 -1.1,0 z m 30.6,0 c -6.3,1.2 -9.5,8.9 -7.8,14.7 1.5,4 7.2,4.2 10.5,2.4 4.6,-2.8 6.6,-9.3 4.8,-14.3 -1.4,-2.8 -4.8,-3 -7.5,-2.8 z m -75.4,1.7 c 2.1,1.5 0.2,4.7 -1.6,5.7 -1.1,0.4 -5.5,3.4 -4.6,0.7 0.8,-2.7 2.2,-6.2 5.3,-6.6 l 0.9,0.1 z m 30.8,0 c 2.6,1.5 1.3,5.2 0.8,7.6 -0.8,2.7 -1.9,5.9 -4.7,7.1 -5.1,0.8 -4,-5.8 -2.8,-8.8 1,-2.8 3,-6.8 6.7,-5.8 z m 47.1,-0.1 c 2.9,0.7 2,4.7 1.5,6.8 -0.7,3 -1.8,6.7 -5,8 -4.7,0.8 -4,-5.1 -3,-7.9 0.9,-3 2.7,-7.3 6.5,-6.8 z m -88.1,5.9 c -0.3,1.3 0.9,-0.6 0,0 z m -1.1,2.4 c -0.2,0.5 0.5,-0.1 0,0 z m -1.3,4.5 c -0.3,1.3 0.8,-0.2 0,0 z" />
                     <text y="41" x="201" fill="#00000" style="font-style:italic;font-weight:normal;font-size:30px;line-height:125%;font-family:Times;text-anchor:middle" xml:space="preserve">engraved with</text>
                  </g>
               </g>
            </g>
         </g>
      </g>
   </svg>
</svg>
