<?xml version="1.0" encoding="UTF-8" standalone="no"?>
<svg width="2100px" height="2970px" version="1.1" xmlns="http://www.w3.org/2000/svg" xmlns:xlink="http://www.w3.org/1999/xlink" xmlns:mei="http://www.music-encoding.org/ns/mei" overflow="visible">
   <desc>Engraved by Verovio 4.4.0-66ab39c</desc>
   <defs>
      <symbol id="E0A9-142zuoo" viewBox="0 0 1000 1000" overflow="inherit">
         <path transform="scale(1,-1)" d="M0 -110c0 4 1 8 5 11l119 99l-119 100c-3 3 -5 8 -5 12c0 6 5 13 12 13c3 0 6 -1 8 -2l124 -105l126 105c2 1 5 2 7 2c6 0 13 -6 13 -14c0 -4 -2 -9 -5 -11l-119 -100l119 -99c3 -3 5 -7 5 -12c0 -6 -5 -14 -13 -14c-2 0 -5 1 -7 3l-126 105l-124 -105c-2 -2 -4 -3 -7 -3 c-8 0 -13 7 -13 15z" />
      </symbol>
      <symbol id="E069-142zuoo" viewBox="0 0 1000 1000" overflow="inherit">
         <path transform="scale(1,-1)" d="M200 250h125v-500h-125v500zM0 250h125v-500h-125v500z" />
      </symbol>
      <symbol id="E084-142zuoo" viewBox="0 0 1000 1000" overflow="inherit">
         <path transform="scale(1,-1)" d="M20 -78c84 97 114 180 134 329h170c-13 -32 -82 -132 -99 -151l-84 -97c-33 -36 -59 -63 -80 -81h162v102l127 123v-225h57v-39h-57v-34c0 -43 19 -65 57 -65v-34h-244v36c48 0 60 26 60 70v27h-203v39z" />
      </symbol>
      <symbol id="E0A4-142zuoo" viewBox="0 0 1000 1000" overflow="inherit">
         <path transform="scale(1,-1)" d="M0 -39c0 68 73 172 200 172c66 0 114 -37 114 -95c0 -84 -106 -171 -218 -171c-64 0 -96 30 -96 94z" />
      </symbol>
      <symbol id="E240-142zuoo" viewBox="0 0 1000 1000" overflow="inherit">
         <path transform="scale(1,-1)" d="M179 -646c15 29 29 55 46 102c18 49 30 108 30 138c0 105 -80 173 -168 200c-18 5 -47 9 -87 16v190h22c8 0 33 -61 71 -95c4 -3 -2 3 61 -56c62 -58 122 -137 122 -241c0 -38 -13 -106 -35 -163c-20 -51 -43 -99 -66 -132c-6 -5 -10 -7 -13 -7s-5 2 -5 5l4 10 c1 3 14 25 18 33z" />
      </symbol>
      <symbol id="E241-142zuoo" viewBox="0 0 1000 1000" overflow="inherit">
         <path transform="scale(1,-1)" d="M179 646c-4 8 -17 30 -18 33l-4 10c0 3 2 5 5 5s7 -2 13 -7c23 -33 46 -81 66 -132c22 -57 35 -125 35 -163c0 -104 -60 -183 -122 -241c-63 -59 -57 -53 -61 -56c-38 -34 -63 -95 -71 -95h-22v190c40 7 69 11 87 16c88 27 168 95 168 200c0 30 -12 89 -30 138 c-17 47 -31 73 -46 102z" />
      </symbol>
      <symbol id="E4E6-142zuoo" viewBox="0 0 1000 1000" overflow="inherit">
         <path transform="scale(1,-1)" d="M0 123c7 34 33 56 69 60c29 -3 43 -9 53 -29c4 -8 7 -15 10 -22c0 -21 -1 -25 -11 -35c-5 -8 -18 -14 -40 -20l12 -3l15 -1c44 0 97 26 122 56c10 11 18 26 24 42c7 1 15 2 22 3l-140 -424h-36l111 330c-10 -6 -27 -12 -53 -16l-52 -8h-10l-20 1c-1 0 -8 3 -21 6 c-37 9 -55 28 -55 60z" />
      </symbol>
      <symbol id="E4E7-142zuoo" viewBox="0 0 1000 1000" overflow="inherit">
         <path transform="scale(1,-1)" d="M133 -111c0 -33 -21 -50 -52 -55c10 -3 18 -4 25 -4c40 0 69 24 90 47l66 197c-36 -18 -64 -25 -112 -25c-23 0 -38 3 -45 8c-37 7 -55 27 -55 59c8 35 30 54 68 58c45 -6 49 -13 64 -48c0 -3 1 -5 1 -7c0 -27 -25 -46 -52 -49c6 -4 15 -6 26 -6c32 2 62 14 88 29 c32 19 44 36 59 71l7 1l10 2h4c-72 -220 -143 -439 -215 -659h-37l108 324c-20 -13 -51 -20 -82 -20c-21 0 -35 4 -43 10c-37 6 -55 26 -55 58c8 35 31 56 68 60c43 -8 48 -13 64 -51z" />
      </symbol>
   </defs>
   <style type="text/css">g.page-margin{font-family:Times,serif;} g.ending, g.fing, g.reh, g.tempo{font-weight:bold;} g.dir, g.dynam, g.mNum{font-style:italic;} g.label{font-weight:normal;}</style>
   <svg class="definition-scale" color="black" viewBox="0 0 21000 29700">
      <g class="page-margin" transform="translate(500, 500)">
         <g id="m-90ddf606-7f7c-49a2-bb6a-540cbb4f6521" class="mdiv pageMilestone" />
         <g id="m-45ba7388-a62e-4423-9c1e-cf7b381f678b" class="score pageMilestone" />
         <g id="s1gd8f30" class="system">
            <g id="m-7529557c-de6f-4fe4-a11f-bba4604f3c0a" class="section systemMilestone" />
            <g id="m-802ec6ea-2026-4e0d-8a67-6f4f77743475" class="measure">
               <g id="m-8a594091-9986-484d-8e96-03844afcea17" class="staff">
                  <path d="M0 2135 L5920 2135" stroke="currentColor" stroke-width="13" />
                  <path d="M0 2315 L5920 2315" stroke="currentColor" stroke-width="13" />
                  <path d="M0 2495 L5920 2495" stroke="currentColor" stroke-width="13" />
                  <path d="M0 2675 L5920 2675" stroke="currentColor" stroke-width="13" />
                  <path d="M0 2855 L5920 2855" stroke="currentColor" stroke-width="13" />
                  <g id="c1lp6jro" class="clef">
                     <use xlink:href="#E069-142zuoo" x="90" y="2495" height="720px" width="720px" />
                  </g>
                  <g id="kptmq7l" class="keySig" />
                  <g id="miw7ge8" class="meterSig">
                     <use xlink:href="#E084-142zuoo" x="490" y="2315" height="720px" width="720px" />
                     <use xlink:href="#E084-142zuoo" x="490" y="2675" height="720px" width="720px" />
                  </g>
                  <g class="ledgerLines above">
                     <path d="M1620 1955 L1924 1955" stroke="currentColor" stroke-width="22" />
                     <path d="M2945 1955 L3249 1955" stroke="currentColor" stroke-width="22" />
                     <path d="M4143 1955 L4447 1955" stroke="currentColor" stroke-width="22" />
                     <path d="M5075 1955 L5379 1955" stroke="currentColor" stroke-width="22" />
                  </g>
                  <g class="ledgerLines below">
                     <path d="M1004 3035 L1308 3035" stroke="currentColor" stroke-width="22" />
                  </g>
                  <g id="m-68d2ed24-535c-4511-9a0e-5d8950614d65" class="layer">
                     <g id="m-415a4c16-1d38-4630-9027-bce2f37fb990" class="rest">
                        <use xlink:href="#E4E6-142zuoo" x="1052" y="1775" height="720px" width="720px" />
                     </g>
                     <g id="m-cbc3fada-921f-4540-8086-6a3b9159c80d" class="note">
                        <g class="notehead">
                           <use xlink:href="#E0A9-142zuoo" x="1668" y="1865" height="720px" width="720px" />
                        </g>
                        <g id="su7vs69" class="stem">
                           <path d="M1867 1786 L1867 1355" stroke="currentColor" stroke-width="18" />
                           <g id="f14ykwcf" class="flag">
                              <use xlink:href="#E240-142zuoo" x="1858" y="1355" height="720px" width="720px" />
                           </g>
                        </g>
                        <g id="a9jyjjs" class="accid" />
                     </g>
                     <g id="m-582d1ee4-e1ef-4040-a2d2-dec6f4b6d745" class="rest">
                        <use xlink:href="#E4E7-142zuoo" x="2372" y="1775" height="720px" width="720px" />
                     </g>
                     <g id="m-bff0e91e-df65-4986-9c14-ac191a69196e" class="beam">
                        <polygon points="2885,1235 3201,1055 3201,1145 2885,1325" />
                        <polygon points="2885,1370 3201,1190 3201,1280 2885,1460" />
                        <polygon points="2885,1505 3201,1325 3201,1415 2885,1595" />
                        <g id="m-37995619-906d-4356-bcab-5e98989b7397" class="note">
                           <g class="notehead">
                              <use xlink:href="#E0A9-142zuoo" x="2695" y="2045" height="720px" width="720px" />
                           </g>
                           <g id="sxquly8" class="stem">
                              <path d="M2894 1966 L2894 1253" stroke="currentColor" stroke-width="18" />
                           </g>
                        </g>
                        <g id="m-21c0e963-500c-4961-bdf7-5b4cd31e9074" class="note">
                           <g class="notehead">
                              <use xlink:href="#E0A9-142zuoo" x="2993" y="1865" height="720px" width="720px" />
                           </g>
                           <g id="smdkzo6" class="stem">
                              <path d="M3192 1786 L3192 1073" stroke="currentColor" stroke-width="18" />
                           </g>
                           <g id="abh0io9" class="accid" />
                        </g>
                     </g>
                     <g id="m-549d7108-a4c1-455d-b8a5-c74fbe128047" class="rest">
                        <use xlink:href="#E4E6-142zuoo" x="3291" y="1775" height="720px" width="720px" />
                     </g>
                     <g id="m-c07d2520-c6ea-44c6-83cf-0a923e39c4c0" class="rest">
                        <use xlink:href="#E4E6-142zuoo" x="3741" y="1775" height="720px" width="720px" />
                     </g>
                     <g id="m-b168a223-e33d-4d1e-94e1-8851abb62f83" class="note">
                        <g class="notehead">
                           <use xlink:href="#E0A9-142zuoo" x="4191" y="1865" height="720px" width="720px" />
                        </g>
                        <g id="sit1f2" class="stem">
                           <path d="M4390 1786 L4390 1355" stroke="currentColor" stroke-width="18" />
                           <g id="fwtzq2g" class="flag">
                              <use xlink:href="#E240-142zuoo" x="4381" y="1355" height="720px" width="720px" />
                           </g>
                        </g>
                        <g id="a1jm549e" class="accid" />
                     </g>
                     <g id="m-8d6dfeeb-ee50-4245-8859-5cc07acd84ac" class="beam">
                        <polygon points="5013,1415 5331,1370 5331,1460 5013,1505" />
                        <polygon points="5013,1550 5239,1517 5239,1607 5013,1640" />
                        <g id="m-56efab18-e885-43c7-a85d-e538652ff327" class="note">
                           <g class="notehead">
                              <use xlink:href="#E0A9-142zuoo" x="4823" y="2045" height="720px" width="720px" />
                           </g>
                           <g id="sa8kzbn" class="stem">
                              <path d="M5022 1966 L5022 1433" stroke="currentColor" stroke-width="18" />
                           </g>
                        </g>
                        <g id="m-58914332-43ea-4fbf-9252-973f477599e5" class="note">
                           <g class="notehead">
                              <use xlink:href="#E0A9-142zuoo" x="5123" y="1865" height="720px" width="720px" />
                           </g>
                           <g id="dktmti7" class="dots">
                              <ellipse cx="5421" cy="1865" rx="36" ry="36" />
                           </g>
                           <g id="s1eqjz9s" class="stem">
                              <path d="M5322 1786 L5322 1388" stroke="currentColor" stroke-width="18" />
                           </g>
                           <g id="a13g4s07" class="accid" />
                        </g>
                     </g>
                  </g>
                  <g id="m-1ec2a86b-a2cc-4c15-84a0-a60a8e55d6d1" class="layer">
                     <g id="m-e0c7da54-d3a2-4809-ae83-ab8890a3d44f" class="beam">
                        <polygon points="1052,3755 2074,3575 2074,3485 1052,3665" />
                        <polygon points="1052,3620 1278,3580 1278,3490 1052,3530" />
                        <polygon points="1848,3478 2074,3440 2074,3350 1848,3388" />
                        <g id="m-dc282db9-092c-4201-952e-5388a2554378" class="note">
                           <g class="notehead">
                              <use xlink:href="#E0A9-142zuoo" x="1052" y="3125" height="720px" width="720px" />
                           </g>
                           <g id="slcxgy" class="stem">
                              <path d="M1061 3204 L1061 3737" stroke="currentColor" stroke-width="18" />
                           </g>
                           <g id="a1w14s31" class="accid" />
                        </g>
                        <g id="m-23bc3763-7261-406c-b9e5-6ec6a422290a" class="note">
                           <g class="notehead">
                              <use xlink:href="#E0A4-142zuoo" x="1352" y="2495" height="720px" width="720px" />
                           </g>
                           <g id="s1c6rjru" class="stem">
                              <path d="M1361 2523 L1361 3684" stroke="currentColor" stroke-width="18" />
                           </g>
                           <g id="apa40td" class="accid" />
                        </g>
                        <g id="m-afda695e-dbf8-4f10-934e-c566423f7fa4" class="note">
                           <g class="notehead">
                              <use xlink:href="#E0A4-142zuoo" x="2056" y="2945" height="720px" width="720px" />
                           </g>
                           <g id="smaxngv" class="stem">
                              <path d="M2065 2973 L2065 3557" stroke="currentColor" stroke-width="18" />
                           </g>
                        </g>
                     </g>
                     <g id="m-ac5cec6e-9629-4a81-a7a7-e6079eb7cb7d" class="beam">
                        <polygon points="2372,3080 3309,3080 3309,2990 2372,2990" />
                        <g id="m-620ca8ec-a0f7-4924-b868-30c7dfaa29bf" class="note">
                           <g class="notehead">
                              <use xlink:href="#E0A4-142zuoo" x="2372" y="2495" height="720px" width="720px" />
                           </g>
                           <g id="s19g5hjq" class="stem">
                              <path d="M2381 2523 L2381 3062" stroke="currentColor" stroke-width="18" />
                           </g>
                           <g id="a1j5mi5o" class="accid" />
                        </g>
                        <g id="m-a058648c-72fa-4a5c-8334-01dadc9df035" class="note">
                           <g class="notehead">
                              <use xlink:href="#E0A4-142zuoo" x="3291" y="2495" height="720px" width="720px" />
                           </g>
                           <g id="s1wrf9r4" class="stem">
                              <path d="M3300 2523 L3300 3062" stroke="currentColor" stroke-width="18" />
                           </g>
                           <g id="ax2h22y" class="accid" />
                        </g>
                     </g>
                     <g id="m-8c3deebd-6e6e-4d25-864c-0a6d2a49f184" class="beam">
                        <polygon points="3741,3530 4525,3530 4525,3440 3741,3440" />
                        <polygon points="4200,3395 4525,3395 4525,3305 4200,3305" />
                        <g id="m-484e1669-8a3a-4034-b685-54e261698b5c" class="chord">
                           <g id="smyehcf" class="stem">
                              <path d="M3750 2523 L3750 3512" stroke="currentColor" stroke-width="18" />
                           </g>
                           <g id="m-d14153fa-2002-43d0-a842-eef0a10f5338" class="note">
                              <g class="notehead">
                                 <use xlink:href="#E0A4-142zuoo" x="3741" y="2945" height="720px" width="720px" />
                              </g>
                           </g>
                           <g id="m-3b93446e-c5e8-483f-a8e9-4cb6d75a3ebd" class="note">
                              <g class="notehead">
                                 <use xlink:href="#E0A4-142zuoo" x="3741" y="2495" height="720px" width="720px" />
                              </g>
                              <g id="a1016ph2" class="accid" />
                           </g>
                        </g>
                        <g id="m-c64042c5-f0cd-4cf6-bae1-ec42140dfabf" class="note">
                           <g class="notehead">
                              <use xlink:href="#E0A4-142zuoo" x="4191" y="2945" height="720px" width="720px" />
                           </g>
                           <g id="sooais8" class="stem">
                              <path d="M4200 2973 L4200 3512" stroke="currentColor" stroke-width="18" />
                           </g>
                        </g>
                        <g id="m-8afe33bd-2479-4400-80ac-9d82cee0891e" class="note">
                           <g class="notehead">
                              <use xlink:href="#E0A4-142zuoo" x="4507" y="2495" height="720px" width="720px" />
                           </g>
                           <g id="sq8ankr" class="stem">
                              <path d="M4516 2523 L4516 3512" stroke="currentColor" stroke-width="18" />
                           </g>
                           <g id="a7klhad" class="accid" />
                        </g>
                     </g>
                     <g id="m-8f6fe244-dd8a-449e-a726-5af2c3c4b801" class="rest">
                        <use xlink:href="#E4E6-142zuoo" x="4823" y="2675" height="720px" width="720px" />
                     </g>
                     <g id="m-b67a248b-486d-411c-a07d-7e1a3dc868f5" class="note">
                        <g class="notehead">
                           <use xlink:href="#E0A4-142zuoo" x="5457" y="2495" height="720px" width="720px" />
                        </g>
                        <g id="s1dxeehn" class="stem">
                           <path d="M5466 2523 L5466 3095" stroke="currentColor" stroke-width="18" />
                           <g id="f5fp7ay" class="flag">
                              <use xlink:href="#E241-142zuoo" x="5457" y="3095" height="720px" width="720px" />
                           </g>
                        </g>
                        <g id="aqmu49y" class="accid" />
                     </g>
                  </g>
               </g>
               <g id="b1fgk2pk" class="barLine">
                  <path d="M5907 2135 L5907 2855" stroke="currentColor" stroke-width="27" />
               </g>
            </g>
            <g id="s13t2hav" class="systemMilestoneEnd m-7529557c-de6f-4fe4-a11f-bba4604f3c0a" />
         </g>
         <g id="p17lyn9n" class="pageMilestoneEnd m-45ba7388-a62e-4423-9c1e-cf7b381f678b" />
         <g id="p1n3sgo1" class="pageMilestoneEnd m-90ddf606-7f7c-49a2-bb6a-540cbb4f6521" />
         <g id="p1njza9x" class="pgHead autogenerated">
            <text font-size="0px">
               <tspan id="r1vuqnn6" class="rend" x="10000" y="415" text-anchor="middle">
                  <title class="labelAttr">title</title>
                  <tspan id="r1fgm4i9" class="rend">
                     <tspan id="tytp9i1" class="text">
                        <tspan font-size="607px">10_rock_130_beat_4-4</tspan>
                     </tspan>
                  </tspan>
                  <tspan id="l9pjazy" class="lb" />
                  <tspan id="rxt7vjn" class="rend">
                     <tspan id="ttbffum" class="text" x="10000" y="805">
                        <tspan font-size="324px">10_rock_130_beat_4-4</tspan>
                     </tspan>
                  </tspan>
               </tspan>
            </text>
         </g>
         <g id="p12i2vfl" class="pgFoot autogenerated">
            <g id="flmszha" class="fig">
               <g class="svg" transform="translate(7750, 28099) scale(10.000000, 10.000000)">
                  <g>
                     <path fill="#00000" d="M 17.11278,49.26451 V 10.367554 h 12.696511 c 3.288815,7.336676 6.71267,14.610456 10.127281,21.888976 3.419998,-7.484684 6.255515,-14.204887 9.58887,-21.909915 2.436207,0.103726 4.316952,0.08453 6.484294,-0.05808 V 49.264423 H 50.274275 C 50.145222,38.35639 50.016136,27.448368 49.887066,16.540329 45.003488,27.315459 39.967448,38.433564 35.083854,49.208695 34.678996,49.343717 34.426583,49.135619 34.021726,49.270644 29.46588,39.330716 24.910049,29.390805 20.354201,19.450876 20.224341,29.388756 20.09461,39.326619 19.964815,49.264497 H 17.11278 Z M 36.754144,39.324695 C 32.721221,30.512695 28.6883,21.700679 24.655394,12.888662 22.530527,12.750737 22.656775,12.71031 20.714356,12.813974 v 0.966497 c 4.612938,9.99784 9.609439,20.748709 13.87298,30.081745 0.722248,-1.512523 1.444528,-3.025014 2.166808,-4.537521 z m 25.738417,9.939815 c 0,-12.965651 0,-25.931305 0,-38.896956 10.084388,0 20.168791,0 30.253178,0 0,0.960416 0,1.920849 0,2.881265 -6.482825,0 -12.965652,0 -19.448478,0 0,4.802097 0,9.604178 0,14.406277 5.52241,0 11.044819,0 16.567229,0 0,0.960415 0,1.920832 0,2.881248 -5.52241,0 -11.044819,0 -16.567229,0 0,5.282306 0,10.564611 0,15.846917 6.963035,0 13.926068,0 20.889103,0 0,0.960416 0,1.920832 0,2.881249 -10.564597,0 -21.129207,0 -31.693803,0 z m 4.321874,-2.160937 c 0,-11.765131 0,-23.530263 0,-35.295394 -0.720312,0 -1.440625,0 -2.160937,0 0,11.765131 0,23.530263 0,35.295394 0.720312,0 1.440625,0 2.160937,0 z m 32.41413,2.160937 c 0,-12.965651 0,-25.931305 0,-38.896956 2.401045,0 4.802095,0 7.203135,0 0,12.965651 0,25.931305 0,38.896956 -2.40104,0 -4.80209,0 -7.203135,0 z m 2.881265,-2.160937 c 0,-11.765131 0,-23.530263 0,-35.295394 -0.72031,0 -1.44064,0 -2.160953,0 0,11.765131 0,23.530263 0,35.295394 0.720313,0 1.440643,0 2.160953,0 z" />
                     <path fill="#00000" d="m 346.3,6.7 c -3.1,0.5 -4.9,4.4 -2.7,6.8 1.2,1.4 2.7,2.4 4.1,3.5 -2.4,5.3 -7.7,8.3 -11.9,12.1 -3.7,2.8 -7,6.2 -9.7,9.9 -2.2,-0.8 -0.3,-6.8 -0.6,-9.5 0.1,-3.1 0.7,-6.4 2.9,-8.7 1.3,-1.9 3,-3.5 4.5,-5.2 1.2,-3.4 -3.2,-4.9 -5.8,-4.6 -7.3,-0.5 -14.6,2 -20,6.8 -5,4.6 -10,10.1 -11.5,17 -0.9,3.5 -0.2,7.5 2.8,9.9 2.5,2.8 7.4,2.9 9.8,-0.2 1.7,-2.3 3.2,-4.8 3.8,-7.6 -0.1,-2.6 -4.4,-2.3 -4.3,0.2 1.2,2.4 -0.9,4.7 -2.7,6.2 -1.7,0.9 -4.7,0.7 -4.8,-1.7 -1,-5.8 2.1,-11.3 5.2,-16.1 4,-5.8 9.8,-11.2 17.2,-11.8 1.6,0 8.1,-1.2 6.8,1.4 -2.8,2.8 -5.6,6.1 -6,10.3 -1.6,7.7 0.1,15.7 -2.3,23.2 -1.1,3.9 2,2.6 2.5,0.2 3.3,-7.4 8.9,-13.4 15.1,-18.5 4.2,-3.9 9.5,-7.1 11.9,-12.6 1.3,-3.6 1.2,-9 -2.7,-10.9 -0.6,-0.2 -1.2,-0.3 -1.8,-0.3 z m 66,14.5 c -2,0.8 -1.8,4.9 0.8,4.4 3.4,0.4 2.9,-6.2 -0.8,-4.4 z m 0.6,7.3 c -1.3,0.5 -7.6,0.5 -5.4,2.2 4,-0.3 0.7,4.5 0.6,6.7 -0.4,2.9 -2.4,5.9 -1.2,8.8 2.7,1.7 5.6,-0.8 6.8,-3.2 1.6,-1.4 -0.5,-3 -1.2,-0.9 -0.4,0.8 -2.4,3.5 -2.6,1.8 1.1,-5 2.7,-9.9 3.9,-14.9 l -0.1,-0.5 h -0.9 z m -65.1,0.2 c -6.5,1.6 -10.5,9.5 -8.2,15.7 2.1,3.4 7.4,2.9 10.1,0.4 2,-0.2 3.6,-5.3 1,-3.4 -1.4,2 -4,4.2 -6.5,2.8 -2.2,-1.9 -1.9,-5.7 1.7,-5.3 3.1,-0.9 6.9,-2.1 8.1,-5.5 0.9,-2.7 -1.6,-5.2 -4.3,-4.8 h -1.1 -0.7 z m 13.6,0 c -2.2,0 -8.5,1.8 -2.9,2.3 0.9,1.9 -1,4.9 -1.1,7.2 -0.5,2.9 -1.4,5.7 -1.7,8.7 3.7,0.7 3.8,-2.6 4.4,-5.3 0.9,-3.3 1.6,-7 4.1,-9.5 2.4,1.6 6.8,-0.7 3.7,-3.4 -2.9,-0.5 -4.8,2.4 -6.2,4.3 0,-1.2 2.4,-5 -0.2,-4.3 z m 15.8,0 c -6.4,1.3 -9.6,9.1 -7.7,14.9 1.9,4 7.7,3.9 11,1.7 4.1,-3 6,-8.9 4.4,-13.7 -1.3,-3 -4.8,-3.2 -7.6,-3 z m 17,0 c -2.3,0 -8.8,1.9 -3,2.4 0.4,2.5 -1,5.7 -1.4,8.4 -0.7,2.4 -1.8,7.5 2.1,7.2 3.8,-0.1 6.5,-3.5 8.5,-6.3 2,-3.2 4.5,-7 3.3,-10.9 -3.7,-3 -3.6,2.6 -3.1,5.1 -0.7,3.8 -2.7,7.9 -6.2,9.8 -3.6,0.6 -1,-4.3 -0.8,-6.1 0.6,-3.2 1.6,-6.3 1.9,-9.5 -0.4,0 -0.8,0 -1.1,0 z m 30.6,0 c -6.3,1.2 -9.5,8.9 -7.8,14.7 1.5,4 7.2,4.2 10.5,2.4 4.6,-2.8 6.6,-9.3 4.8,-14.3 -1.4,-2.8 -4.8,-3 -7.5,-2.8 z m -75.4,1.7 c 2.1,1.5 0.2,4.7 -1.6,5.7 -1.1,0.4 -5.5,3.4 -4.6,0.7 0.8,-2.7 2.2,-6.2 5.3,-6.6 l 0.9,0.1 z m 30.8,0 c 2.6,1.5 1.3,5.2 0.8,7.6 -0.8,2.7 -1.9,5.9 -4.7,7.1 -5.1,0.8 -4,-5.8 -2.8,-8.8 1,-2.8 3,-6.8 6.7,-5.8 z m 47.1,-0.1 c 2.9,0.7 2,4.7 1.5,6.8 -0.7,3 -1.8,6.7 -5,8 -4.7,0.8 -4,-5.1 -3,-7.9 0.9,-3 2.7,-7.3 6.5,-6.8 z m -88.1,5.9 c -0.3,1.3 0.9,-0.6 0,0 z m -1.1,2.4 c -0.2,0.5 0.5,-0.1 0,0 z m -1.3,4.5 c -0.3,1.3 0.8,-0.2 0,0 z" />
                     <text y="41" x="201" fill="#00000" style="font-style:italic;font-weight:normal;font-size:30px;line-height:125%;font-family:Times;text-anchor:middle" xml:space="preserve">engraved with</text>
                  </g>
               </g>
            </g>
         </g>
      </g>
   </svg>
</svg>
